<svg width="56" height="40" viewBox="0 0 56 40" fill="none" xmlns="http://www.w3.org/2000/svg">
<g clip-path="url(#clip0_93_11638)">
<path opacity="0.35" d="M35.2676 27.4445V38.7437C35.2678 38.9212 35.3058 39.0967 35.3792 39.2587C35.4526 39.4206 35.5597 39.5653 35.6934 39.6833C35.8271 39.8013 35.9845 39.8899 36.1552 39.9433C36.3258 39.9968 36.506 40.0138 36.6837 39.9933C39.7954 39.6492 42.67 38.1792 44.7577 35.8643C46.8454 33.5495 47.9997 30.5523 47.9997 27.4462C47.9997 24.34 46.8454 21.3428 44.7577 19.028C42.67 16.7132 39.7954 15.2431 36.6837 14.8991C36.506 14.8785 36.3258 14.8956 36.1552 14.949C35.9845 15.0024 35.8271 15.091 35.6934 15.209C35.5597 15.327 35.4526 15.4717 35.3792 15.6337C35.3058 15.7956 35.2678 15.9711 35.2676 16.1486V27.4445Z" fill="#F9BE53"/>
<path d="M7.4307 17.511H2.13259C1.3662 17.511 0.818618 17.3402 0.489847 16.9986C0.161075 16.657 -0.00219907 16.1148 2.23635e-05 15.3721V2.43327C2.23635e-05 1.67294 0.16774 1.12198 0.503175 0.780379C0.83639 0.449801 1.37953 0.281208 2.13259 0.281208H7.76392C8.48445 0.272602 9.20445 0.323466 9.91648 0.433273C10.4947 0.524156 11.05 0.723886 11.5526 1.0217C11.9653 1.265 12.3328 1.57699 12.6388 1.94402C12.9514 2.30943 13.1962 2.7269 13.3619 3.17707C13.5297 3.63356 13.6143 4.116 13.6118 4.60187C13.6118 6.32528 12.7433 7.58589 11.0061 8.38369C13.2875 9.11316 14.4282 10.5192 14.4282 12.6019C14.4398 13.5227 14.1804 14.4268 13.6818 15.2035C13.2034 15.9594 12.5067 16.5549 11.6825 16.9126C11.0981 17.1456 10.4852 17.3012 9.85983 17.3754C9.05395 17.4729 8.24252 17.5182 7.4307 17.511V17.511ZM3.51543 2.89939V7.35228H6.73429C7.4208 7.37737 8.10695 7.29367 8.76689 7.10435C9.23904 6.94195 9.63029 6.60587 9.85983 6.1655C10.0583 5.83115 10.1608 5.44935 10.1564 5.06137C10.1564 4.19305 9.84429 3.61564 9.22006 3.32914C8.59584 3.04264 7.64507 2.89939 6.36775 2.89939H3.51543ZM7.18079 9.84154H3.51543V14.8696H7.29075C9.66546 14.8696 10.8539 14.0201 10.8561 12.3209C10.8561 11.4515 10.5463 10.8201 9.93314 10.43C9.32003 10.0399 8.39702 9.86468 7.17413 9.86468L7.18079 9.84154Z" fill="#F9BE53"/>
<path d="M23.4915 -0.000413488C25.1056 -0.044555 26.7034 0.330352 28.1265 1.08719C29.3995 1.79323 30.4223 2.87137 31.0555 4.17479C31.75 5.64533 32.0922 7.25537 32.0551 8.87892C32.0712 10.1123 31.8866 11.3402 31.5087 12.5153C31.1705 13.5627 30.6142 14.5279 29.8759 15.3483C29.1399 16.1526 28.228 16.7791 27.2102 17.1797C24.8602 18.0369 22.2795 18.0369 19.9295 17.1797C18.905 16.7777 17.9865 16.149 17.2437 15.3417C16.5046 14.5142 15.9504 13.5408 15.6177 12.4855C15.2402 11.3215 15.0535 10.105 15.0645 8.88223C15.052 7.64678 15.2469 6.41787 15.641 5.24587C15.9902 4.2011 16.558 3.2413 17.3071 2.42934C18.0482 1.6436 18.9597 1.03541 19.9728 0.650824C21.0934 0.214037 22.2876 -0.00697987 23.4915 -0.000413488ZM28.4897 8.85578C28.5172 7.73335 28.3084 6.61758 27.8766 5.57975C27.5199 4.71826 26.9059 3.98573 26.1172 3.48058C25.3293 3.00088 24.4192 2.75537 23.4949 2.77314C22.8254 2.76541 22.1619 2.89953 21.5489 3.16653C20.9542 3.42583 20.4275 3.81715 20.0094 4.31033C19.5502 4.87783 19.2103 5.53092 19.0098 6.23099C18.7497 7.0816 18.6239 7.967 18.6366 8.85578C18.6257 9.75096 18.7515 10.6426 19.0098 11.5004C19.2167 12.2275 19.5755 12.9033 20.0627 13.4839C20.4892 13.9839 21.0232 14.3827 21.6255 14.6508C22.1881 14.9065 22.7964 15.0486 23.415 15.0688C24.0335 15.0891 24.6499 14.987 25.2282 14.7685C25.8066 14.5501 26.3354 14.2197 26.7838 13.7965C27.2321 13.3733 27.5912 12.8659 27.84 12.3037C28.3096 11.2136 28.5304 10.0339 28.4864 8.84917L28.4897 8.85578Z" fill="#F9BE53"/>
<path d="M33.3915 33.4809V19.9272C33.3476 19.357 33.5199 18.7911 33.8746 18.3404C34.0332 18.1678 34.2277 18.0314 34.4445 17.9407C34.6614 17.8499 34.8956 17.807 35.1309 17.8148C35.37 17.8053 35.6083 17.8471 35.8297 17.9372C36.0511 18.0274 36.2503 18.1637 36.4137 18.3371C36.7767 18.7852 36.9532 19.3541 36.9069 19.9272V33.4809C36.9532 34.056 36.7769 34.627 36.4137 35.0776C36.2509 35.2521 36.0519 35.3898 35.8305 35.481C35.6091 35.5723 35.3705 35.6151 35.1309 35.6065C34.8962 35.6125 34.663 35.5681 34.4473 35.4762C34.2316 35.3843 34.0385 35.2472 33.8813 35.0743C33.5243 34.6219 33.3497 34.0539 33.3915 33.4809Z" fill="#F9BE53"/>
<path d="M47.443 17.8045C49.0579 17.7588 50.6569 18.1326 52.0813 18.8888C53.3537 19.5957 54.3762 20.6736 55.0103 21.9764C55.7045 23.4471 56.0466 25.057 56.0099 26.6806C56.0266 27.9137 55.8433 29.1415 55.4668 30.3169C55.1286 31.3633 54.5723 32.3275 53.8341 33.1467C53.0989 33.952 52.1868 34.5786 51.1683 34.9781C48.8163 35.8299 46.2356 35.8241 43.8876 34.9616C42.8631 34.5595 41.9446 33.9309 41.2019 33.1235C40.4618 32.2974 39.9064 31.3251 39.5725 30.2706C39.1975 29.105 39.012 27.8876 39.0227 26.664C39.0087 25.4287 39.2024 24.1998 39.5958 23.0277C39.945 21.9819 40.5127 21.021 41.2619 20.2078C42.0046 19.4239 42.9157 18.8161 43.9276 18.4293C45.0495 18.0042 46.2421 17.7923 47.443 17.8045ZM52.4412 26.6574C52.4675 25.5348 52.2575 24.419 51.8248 23.3814C51.4682 22.5217 50.8555 21.7905 50.0687 21.2855C49.2809 20.8052 48.3709 20.5586 47.4463 20.5748C46.777 20.5684 46.1138 20.7024 45.5004 20.9682C44.9064 21.2286 44.3799 21.6197 43.9609 22.112C43.4966 22.6791 43.15 23.3319 42.9413 24.0326C42.6833 24.8837 42.5575 25.7688 42.5681 26.6574C42.5586 27.5525 42.6844 28.444 42.9413 29.302C43.1524 30.0225 43.5108 30.6921 43.9942 31.269C44.4219 31.7686 44.9555 32.1682 45.557 32.4392C46.2644 32.7363 47.032 32.8652 47.7985 32.8159C48.565 32.7665 49.3093 32.5402 49.9721 32.1549C50.7692 31.6632 51.3967 30.9426 51.7715 30.0888C52.2462 29.0079 52.4738 27.836 52.4379 26.6574H52.4412Z" fill="#F9BE53"/>
<path d="M16.9672 31.0414V29.6365ZM16.9672 29.6365V20.2348C16.9672 19.4745 17.1349 18.9235 17.4704 18.5819C17.8036 18.2513 18.3467 18.0827 19.0965 18.0827H24.7211C25.4417 18.0752 26.1617 18.1272 26.8737 18.2381C27.4517 18.3279 28.007 18.5265 28.5098 18.8232C28.9209 19.0689 29.2879 19.3805 29.596 19.7456C30.2307 20.4887 30.5759 21.4328 30.569 22.4067C30.569 24.1279 29.7005 25.3885 27.9633 26.1885C30.2447 26.9092 31.3854 28.3097 31.3854 30.3902C31.3975 31.311 31.1381 32.2153 30.639 32.9918C30.1617 33.7486 29.4647 34.3445 28.6397 34.7009C28.0553 34.9339 27.4424 35.0895 26.817 35.1637C26.0201 35.2617 25.2175 35.307 24.4146 35.2993H19.0931C18.329 35.2993 17.7825 35.1296 17.4537 34.7902C17.1249 34.4508 16.9617 33.9086 16.9639 33.1637V31.0282M20.4793 20.7042V25.1538H23.6982C24.3847 25.1789 25.0708 25.0952 25.7308 24.9059C26.2041 24.7456 26.5961 24.4089 26.8237 23.967C27.0224 23.6328 27.125 23.2509 27.1203 22.8629C27.1203 21.9935 26.807 21.4183 26.1839 21.1307C25.5608 20.8431 24.6112 20.7042 23.3316 20.7042H20.4793ZM24.1447 27.6464H20.4793V32.6712H24.258C26.6327 32.6712 27.8211 31.8216 27.8233 30.1224C27.8522 29.754 27.7816 29.3846 27.6188 29.0523C27.456 28.7199 27.2068 28.4366 26.897 28.2315C26.2839 27.8569 25.3653 27.6695 24.1413 27.6695L24.1447 27.6464Z" fill="#F9BE53"/>
<path d="M33.5779 30.4764H33.3847C30.1805 30.1097 27.2241 28.587 25.078 26.1981C22.932 23.8093 21.7461 20.721 21.7461 17.5211C21.7461 14.3211 22.932 11.2329 25.078 8.84403C27.2241 6.45518 30.1805 4.93247 33.3847 4.5657C33.6203 4.53878 33.8589 4.56136 34.0851 4.63198C34.3113 4.7026 34.52 4.81968 34.6976 4.97559C34.8752 5.1315 35.0177 5.32276 35.1158 5.53691C35.214 5.75107 35.2656 5.98333 35.2673 6.21859V28.8136C35.2612 29.2541 35.0805 29.6745 34.7644 29.9838C34.4482 30.2932 34.022 30.4666 33.5779 30.4665V30.4764ZM33.5779 5.369C33.5447 5.36571 33.5112 5.36571 33.478 5.369C30.4698 5.7036 27.6913 7.12619 25.6736 9.3649C23.6559 11.6036 22.5405 14.5014 22.5405 17.5045C22.5405 20.5077 23.6559 23.4055 25.6736 25.6442C27.6913 27.8829 30.4698 29.3055 33.478 29.6401C33.5978 29.6529 33.719 29.6407 33.8338 29.6043C33.9486 29.5679 34.0544 29.508 34.1444 29.4285C34.2343 29.3501 34.3062 29.2535 34.355 29.1451C34.4039 29.0367 34.4287 28.9191 34.4276 28.8004V6.20537C34.4282 6.08719 34.4032 5.97026 34.3544 5.86248C34.3055 5.7547 34.2339 5.65857 34.1444 5.58057C33.9882 5.44346 33.7865 5.36815 33.5779 5.369V5.369Z" fill="#F9BE53"/>
</g>
<defs>
<clipPath id="clip0_93_11638">
<rect width="56" height="40" fill="white"/>
</clipPath>
</defs>
</svg>
