<svg width="293" height="527" viewBox="0 0 293 527" fill="none" xmlns="http://www.w3.org/2000/svg">
<path d="M166.851 262.626C166.256 262.626 165.683 262.365 165.286 261.916C164.88 261.458 164.702 260.842 164.786 260.237L187.896 99.5522C187.979 99.0099 188.271 98.5093 188.709 98.1756C189.074 97.9044 189.512 97.7584 189.961 97.7584C190.054 97.7584 190.159 97.7584 190.253 97.7793L218.16 101.794C219.297 101.961 220.089 103.014 219.922 104.151L197.448 260.383C197.302 261.395 196.437 262.156 195.415 262.167C195.415 262.167 166.851 262.605 166.84 262.605L166.851 262.626Z" fill="#FCDBA3"/>
<path d="M189.96 99.8548L217.868 103.87L195.394 260.102L166.85 260.54L189.96 99.8548M189.96 95.6833C189.064 95.6833 188.188 95.9753 187.457 96.5176C186.571 97.1851 185.987 98.1654 185.831 99.2604L162.721 259.946C162.543 261.155 162.908 262.376 163.722 263.293C164.514 264.19 165.651 264.712 166.85 264.712C166.871 264.712 166.892 264.712 166.913 264.712L195.456 264.274C197.511 264.242 199.231 262.73 199.523 260.696L221.997 104.464C222.321 102.18 220.746 100.074 218.462 99.7401L190.555 95.7251C190.357 95.6938 190.159 95.6833 189.96 95.6833V95.6833Z" fill="#543714"/>
<path d="M214.047 131.742C213.953 131.742 213.849 131.742 213.755 131.721L185.848 127.706C184.711 127.539 183.919 126.486 184.086 125.349L187.861 99.09C188.007 98.0471 188.904 97.3067 189.926 97.3067C190.02 97.3067 190.124 97.3066 190.228 97.3275C190.374 97.3484 190.51 97.3588 190.656 97.3588C192.095 97.3588 193.346 96.2742 193.555 94.8455C193.67 94.0738 193.471 93.302 193.002 92.6763C192.533 92.0506 191.845 91.6439 191.073 91.5292C190.531 91.4457 190.03 91.1537 189.696 90.7157C189.363 90.2777 189.227 89.7146 189.3 89.1723L193.325 61.1921C193.409 60.6498 193.701 60.1492 194.139 59.8155C194.504 59.5444 194.942 59.3984 195.39 59.3984C195.484 59.3984 195.589 59.3984 195.693 59.4192C195.839 59.4401 195.974 59.4505 196.12 59.4505C197.56 59.4505 198.811 58.3659 199.009 56.9372C199.239 55.3416 198.123 53.8503 196.527 53.6209C195.985 53.5374 195.484 53.2454 195.151 52.8074C194.817 52.3694 194.681 51.8063 194.754 51.264L199.843 15.8899C199.989 14.847 200.886 14.1066 201.908 14.1066C202.002 14.1066 202.106 14.1066 202.211 14.1274L230.118 18.1425C230.66 18.2259 231.161 18.5179 231.494 18.9559C231.828 19.3939 231.964 19.9571 231.891 20.4994L226.802 55.8735C226.718 56.4158 226.426 56.9163 225.988 57.2501C225.623 57.5212 225.185 57.6672 224.737 57.6672C224.643 57.6672 224.539 57.6672 224.434 57.6463C224.288 57.6255 224.153 57.6151 224.007 57.6151C222.568 57.6151 221.316 58.6996 221.118 60.1284C220.889 61.724 222.004 63.2153 223.6 63.4447C224.737 63.6116 225.529 64.6648 225.362 65.8016L221.337 93.7817C221.191 94.8246 220.294 95.5651 219.272 95.5651C219.178 95.5651 219.074 95.5651 218.97 95.5442C218.824 95.5233 218.688 95.5129 218.542 95.5129C217.103 95.5129 215.851 96.5975 215.643 98.0262C215.528 98.7979 215.726 99.5697 216.196 100.195C216.665 100.821 217.353 101.228 218.125 101.343C218.667 101.426 219.168 101.718 219.501 102.156C219.835 102.594 219.971 103.157 219.898 103.699L216.123 129.959C216.039 130.501 215.747 131.002 215.309 131.335C214.944 131.607 214.506 131.753 214.058 131.753L214.047 131.742Z" fill="#E30413"/>
<path d="M201.888 16.1715L229.795 20.1865L224.706 55.5606C224.466 55.5293 224.226 55.5085 223.986 55.5085C221.535 55.5085 219.387 57.3126 219.032 59.8155C218.636 62.5583 220.544 65.1029 223.287 65.4992L219.262 93.4793C219.022 93.4481 218.782 93.4272 218.542 93.4272C216.091 93.4272 213.943 95.2314 213.589 97.7342C213.192 100.477 215.101 103.022 217.843 103.418L214.068 129.677L186.161 125.662L189.936 99.4028C190.176 99.4341 190.416 99.455 190.656 99.455C193.107 99.455 195.255 97.6508 195.609 95.1479C196.006 92.4052 194.097 89.8606 191.355 89.4643L195.38 61.4841C195.62 61.5154 195.86 61.5363 196.1 61.5363C198.55 61.5363 200.699 59.7321 201.053 57.2292C201.45 54.4865 199.541 51.9419 196.798 51.5456L201.888 16.1715M201.888 12C200.991 12 200.115 12.292 199.385 12.8343C198.498 13.5017 197.914 14.482 197.758 15.577L192.669 50.9512C192.512 52.0462 192.794 53.162 193.461 54.0485C194.129 54.9349 195.109 55.5189 196.204 55.6753C196.663 55.7379 196.986 56.1655 196.923 56.6348C196.861 57.1041 196.444 57.3648 196.089 57.3648C196.047 57.3648 196.006 57.3648 195.964 57.3648C195.766 57.3335 195.568 57.3231 195.37 57.3231C194.473 57.3231 193.597 57.6151 192.867 58.1574C191.98 58.8248 191.396 59.8051 191.24 60.9001L187.214 88.8803C186.891 91.1642 188.466 93.2708 190.75 93.6045C191.209 93.6671 191.532 94.0946 191.469 94.5639C191.407 95.0332 190.99 95.2939 190.635 95.2939C190.593 95.2939 190.552 95.2939 190.51 95.2939C190.312 95.2627 190.114 95.2522 189.915 95.2522C189.019 95.2522 188.143 95.5442 187.413 96.0865C186.526 96.7539 185.942 97.7343 185.786 98.8293L182.01 125.089C181.854 126.184 182.136 127.3 182.803 128.186C183.47 129.072 184.451 129.656 185.546 129.813L213.453 133.828C213.651 133.859 213.86 133.87 214.047 133.87C216.091 133.87 217.875 132.368 218.167 130.293L221.942 104.033C222.098 102.938 221.817 101.822 221.149 100.936C220.482 100.049 219.502 99.4654 218.407 99.309C218.125 99.2673 217.948 99.1108 217.854 98.9753C217.76 98.8501 217.656 98.6311 217.697 98.3495C217.76 97.8803 218.177 97.6195 218.532 97.6195C218.573 97.6195 218.615 97.6195 218.657 97.6195C218.855 97.6508 219.053 97.6612 219.251 97.6612C220.148 97.6612 221.024 97.3692 221.754 96.8269C222.641 96.1595 223.225 95.1792 223.381 94.0842L227.407 66.104C227.73 63.8202 226.155 61.7136 223.871 61.3798C223.412 61.3173 223.089 60.8897 223.152 60.4204C223.214 59.9511 223.631 59.6904 223.975 59.6904C224.017 59.6904 224.059 59.6904 224.101 59.6904C224.299 59.7217 224.497 59.7321 224.695 59.7321C225.592 59.7321 226.468 59.4401 227.198 58.8978C228.084 58.2304 228.668 57.2501 228.825 56.1551L233.914 20.781C234.237 18.4971 232.663 16.3905 230.379 16.0568L202.482 12.0417C202.284 12.0104 202.086 12 201.888 12V12Z" fill="#543714"/>
</svg>
