<svg width="293" height="429" viewBox="0 0 293 429" fill="none" xmlns="http://www.w3.org/2000/svg">
<path d="M83.3617 190.33C83.1317 190.33 82.9017 190.29 82.6817 190.21L15.3217 165.84C14.7117 165.62 14.2517 165.12 14.0717 164.49C13.9017 163.87 14.0417 163.2 14.4517 162.69L38.6617 132.88C38.9317 132.55 39.3017 132.31 39.7217 132.2L102.322 116.31C102.482 116.27 102.652 116.25 102.812 116.25H189.522C189.692 116.25 189.852 116.27 190.012 116.31L252.612 132.2C253.032 132.31 253.402 132.54 253.672 132.88L277.882 162.69C278.292 163.19 278.432 163.86 278.262 164.49C278.092 165.11 277.622 165.62 277.012 165.84L209.652 190.21C209.432 190.29 209.202 190.33 208.972 190.33H83.3617Z" fill="#C30D23"/>
<path d="M189.522 118.26L252.112 134.15L276.322 163.96L208.962 188.33H83.3617L16.0017 163.96L40.2117 134.15L102.802 118.26H189.512M189.512 114.26H102.812C102.482 114.26 102.152 114.3 101.832 114.38L39.2417 130.27C38.4117 130.48 37.6617 130.96 37.1217 131.63L12.9017 161.44C12.0817 162.45 11.8017 163.78 12.1517 165.03C12.5017 166.28 13.4317 167.28 14.6417 167.72L82.0017 192.09C82.4417 192.25 82.9017 192.33 83.3617 192.33H208.982C209.442 192.33 209.902 192.25 210.342 192.09L277.702 167.72C278.922 167.28 279.852 166.28 280.192 165.03C280.542 163.78 280.262 162.44 279.442 161.44L255.232 131.63C254.692 130.96 253.942 130.49 253.112 130.27L190.522 114.38C190.202 114.3 189.872 114.26 189.542 114.26H189.512Z" fill="#52320C"/>
<path d="M110.932 417.42C110.632 417.42 110.332 417.35 110.062 417.22L54.9718 390.46C54.4018 390.18 53.9918 389.64 53.8818 389.02L14.0318 168.31C13.9018 167.61 14.1618 166.89 14.7118 166.43C15.0818 166.12 15.5418 165.96 16.0018 165.96C16.2318 165.96 16.4618 166 16.6818 166.08L83.7118 190.33H208.632L275.662 166.08C275.882 166 276.112 165.96 276.342 165.96C276.802 165.96 277.262 166.12 277.632 166.43C278.182 166.89 278.442 167.61 278.312 168.31L238.472 389C238.362 389.63 237.952 390.16 237.382 390.44L182.292 417.2C182.022 417.33 181.722 417.4 181.422 417.4H110.932V417.42Z" fill="#C30D23"/>
<path d="M276.332 167.96L236.492 388.65L181.402 415.42H110.932L55.8418 388.65L16.0018 167.96L83.3618 192.33H208.982L276.342 167.96M276.342 163.96C275.882 163.96 275.422 164.04 274.982 164.2L208.282 188.33H84.0618L17.3618 164.2C16.9218 164.04 16.4618 163.96 16.0018 163.96C15.0718 163.96 14.1518 164.28 13.4218 164.9C12.3318 165.82 11.8118 167.26 12.0618 168.67L51.9018 389.36C52.1318 390.62 52.9418 391.69 54.0918 392.25L109.182 419.02C109.722 419.28 110.322 419.42 110.932 419.42H181.402C182.012 419.42 182.602 419.28 183.152 419.02L238.242 392.25C239.392 391.69 240.202 390.62 240.432 389.36L280.272 168.67C280.522 167.26 280.012 165.83 278.912 164.9C278.182 164.28 277.262 163.96 276.332 163.96H276.342Z" fill="#52320C"/>
<path d="M236.432 139.04L251.102 157.73L202.742 175.42H146.172H89.5917L41.2317 157.73L55.9117 139.04L107.812 125.65H146.172H184.522L236.432 139.04Z" fill="#53320A" stroke="#543305" stroke-width="4" stroke-linecap="round" stroke-linejoin="round"/>
<path d="M83.3618 224.33C83.1318 224.33 82.9018 224.29 82.6818 224.21L21.1218 201.94C20.4518 201.7 19.9618 201.12 19.8318 200.41L14.0418 168.31C13.9118 167.61 14.1718 166.89 14.7218 166.43C15.0918 166.12 15.5518 165.96 16.0118 165.96C16.2418 165.96 16.4718 166 16.6918 166.08L83.7218 190.33H208.642L275.672 166.08C275.892 166 276.122 165.96 276.352 165.96C276.812 165.96 277.272 166.12 277.642 166.43C278.192 166.89 278.452 167.61 278.322 168.31L272.532 200.41C272.402 201.11 271.912 201.69 271.242 201.94L209.682 224.21C209.462 224.29 209.232 224.33 209.002 224.33H83.3618Z" fill="#F8C24D"/>
<path d="M276.332 167.96C276.332 167.96 271.982 192.08 270.542 200.06C260.862 203.56 208.982 222.33 208.982 222.33H83.3618L21.8018 200.06C20.3618 192.08 16.0118 167.96 16.0118 167.96L83.3718 192.33H208.992L276.352 167.96M276.352 163.96C276.292 163.96 276.232 163.96 276.172 163.96C275.732 163.98 275.302 164.07 274.912 164.23L208.302 188.33H84.0618L17.3618 164.2C16.9218 164.04 16.4618 163.96 16.0018 163.96C15.0718 163.96 14.1518 164.28 13.4218 164.9C12.3318 165.82 11.8118 167.26 12.0618 168.67L17.8518 200.77C18.1018 202.17 19.0818 203.34 20.4318 203.82L81.9918 226.09C82.4318 226.25 82.8918 226.33 83.3518 226.33H208.972C209.432 226.33 209.892 226.25 210.332 226.09L271.892 203.82C273.232 203.33 274.212 202.17 274.472 200.77L280.242 168.83C280.302 168.55 280.332 168.26 280.332 167.96C280.332 165.76 278.562 163.98 276.372 163.96C276.362 163.96 276.342 163.96 276.332 163.96H276.352Z" fill="#52320C"/>
<path d="M208.972 192.33L181.402 415.42H110.932L83.3618 192.33H208.982M208.982 188.33H83.3618C82.2118 188.33 81.1218 188.82 80.3618 189.68C79.6018 190.54 79.2518 191.68 79.3918 192.82L106.962 415.91C107.212 417.91 108.912 419.42 110.932 419.42H181.402C183.422 419.42 185.122 417.91 185.372 415.91L212.932 192.98C212.962 192.77 212.982 192.56 212.982 192.34C212.982 190.13 211.192 188.34 208.982 188.34V188.33Z" fill="#52320C"/>
<path d="M83.6816 148.84C82.8416 148.84 82.0616 148.31 81.7816 147.47L73.7716 123.32C73.4216 122.27 73.9916 121.14 75.0416 120.79C75.2516 120.72 75.4616 120.69 75.6716 120.69C76.5116 120.69 77.2916 121.22 77.5716 122.06L85.5816 146.21C85.9316 147.26 85.3616 148.39 84.3116 148.74C84.1016 148.81 83.8916 148.84 83.6816 148.84V148.84Z" fill="#E60012"/>
<path d="M75.6716 122.69L83.6816 146.84L75.6716 122.69M75.6716 118.69C75.2516 118.69 74.8316 118.76 74.4116 118.89C72.3116 119.59 71.1816 121.85 71.8716 123.95L79.8816 148.1C80.4416 149.78 82.0016 150.84 83.6816 150.84C84.1016 150.84 84.5216 150.77 84.9416 150.64C87.0416 149.94 88.1716 147.68 87.4816 145.58L79.4716 121.43C78.9116 119.75 77.3516 118.69 75.6716 118.69V118.69Z" fill="#53320A"/>
<path d="M89.5919 177.42C89.3619 177.42 89.1219 177.38 88.9019 177.3L60.5519 166.93C59.9819 166.72 59.5319 166.26 59.3419 165.68L48.1219 131.83C47.7719 130.78 48.3419 129.65 49.3919 129.3C49.6019 129.23 49.8119 129.2 50.0219 129.2C50.8619 129.2 51.6419 129.73 51.9219 130.57L59.3019 152.82L83.0619 144.94C83.2719 144.87 83.4819 144.84 83.6919 144.84C84.0019 144.84 84.3119 144.91 84.5919 145.05C85.0619 145.29 85.4219 145.7 85.5919 146.21L95.0719 174.79C95.2719 175.4 95.1719 176.07 94.7919 176.59C94.4119 177.11 93.8119 177.42 93.1719 177.42H89.6019H89.5919Z" fill="#FBDDA0"/>
<path d="M50.0119 131.2L58.0219 155.35L50.0119 131.2M83.6819 146.84L93.1619 175.42H89.5919L61.2419 165.05L58.0219 155.35L83.6819 146.84M50.0119 127.2C49.5919 127.2 49.1719 127.27 48.7519 127.4C46.6519 128.1 45.5219 130.36 46.2119 132.46L54.2219 156.61C54.2219 156.61 54.2219 156.62 54.2219 156.63L57.4319 166.31C57.8119 167.47 58.7119 168.39 59.8519 168.81L88.2019 179.18C88.6419 179.34 89.1119 179.42 89.5719 179.42H93.1419C94.4219 179.42 95.6319 178.8 96.3819 177.76C97.1319 176.72 97.3419 175.38 96.9319 174.16L87.4519 145.58C87.1219 144.57 86.4019 143.74 85.4519 143.26C84.8919 142.98 84.2719 142.83 83.6619 142.83C83.2419 142.83 82.8119 142.9 82.4019 143.03L60.5419 150.28L53.7919 129.93C53.2319 128.25 51.6719 127.19 49.9919 127.19L50.0119 127.2Z" fill="#53320A"/>
<path d="M58.0218 157.35C57.1818 157.35 56.4018 156.82 56.1218 155.98L48.1118 131.83C47.9418 131.33 47.9818 130.78 48.2218 130.3C48.4618 129.83 48.8718 129.47 49.3818 129.3C50.0918 129.06 50.6718 128.56 51.0118 127.89C51.3518 127.22 51.4018 126.46 51.1718 125.74C50.7918 124.59 49.7218 123.81 48.5018 123.81C48.2018 123.81 47.9018 123.86 47.6118 123.95C47.4018 124.02 47.1918 124.05 46.9818 124.05C46.1418 124.05 45.3618 123.52 45.0818 122.68L36.5518 96.9499C36.2018 95.8999 36.7718 94.7699 37.8218 94.4199C39.2918 93.9299 40.0918 92.3399 39.6018 90.8699C39.2218 89.7199 38.1518 88.9399 36.9318 88.9399C36.6318 88.9399 36.3318 88.9899 36.0418 89.0799C35.8318 89.1499 35.6218 89.1799 35.4118 89.1799C34.5718 89.1799 33.7918 88.6499 33.5118 87.8099L22.7418 55.3099C22.3918 54.2599 22.9618 53.1299 24.0118 52.7799L49.6718 44.2699C49.8818 44.1999 50.0918 44.1699 50.3018 44.1699C50.6118 44.1699 50.9218 44.2399 51.2018 44.3799C51.6718 44.6199 52.0318 45.0299 52.2018 45.5399L62.9818 78.0699C63.1518 78.5699 63.1118 79.1199 62.8718 79.5999C62.6318 80.0699 62.2218 80.4299 61.7118 80.5999C61.0018 80.8399 60.4218 81.3399 60.0818 82.0099C59.7418 82.6799 59.6918 83.4399 59.9218 84.1599C60.3018 85.3099 61.3718 86.0899 62.5918 86.0899C62.8918 86.0899 63.1918 86.0399 63.4718 85.9499C63.6818 85.8799 63.8918 85.8499 64.1018 85.8499C64.4118 85.8499 64.7218 85.9199 65.0018 86.0599C65.4718 86.2999 65.8318 86.7099 66.0018 87.2199L74.5318 112.95C74.7018 113.45 74.6618 114 74.4218 114.48C74.1818 114.95 73.7718 115.31 73.2618 115.48C71.7918 115.97 70.9918 117.56 71.4818 119.03C71.8618 120.18 72.9318 120.96 74.1518 120.96C74.4518 120.96 74.7518 120.91 75.0418 120.82C75.2518 120.75 75.4618 120.72 75.6718 120.72C76.5118 120.72 77.2918 121.25 77.5718 122.09L85.5818 146.24C85.9318 147.29 85.3618 148.42 84.3118 148.77L58.6518 157.28C58.4418 157.35 58.2318 157.38 58.0218 157.38V157.35Z" fill="#E60012"/>
<path d="M50.3018 46.1799L61.0818 78.7099C58.5618 79.5499 57.1918 82.2699 58.0318 84.7899C58.7018 86.8099 60.5818 88.0899 62.5918 88.0899C63.0918 88.0899 63.6018 88.0099 64.1018 87.8399L72.6318 113.57C70.1118 114.41 68.7418 117.13 69.5818 119.65C70.2518 121.67 72.1318 122.95 74.1418 122.95C74.6418 122.95 75.1518 122.87 75.6518 122.7L83.6618 146.85L58.0018 155.36L49.9918 131.21C52.5118 130.37 53.8818 127.65 53.0418 125.13C52.3718 123.11 50.4918 121.83 48.4818 121.83C47.9818 121.83 47.4718 121.91 46.9718 122.08L38.4418 96.3499C40.9618 95.5099 42.3318 92.7899 41.4918 90.2699C40.8218 88.2499 38.9418 86.9699 36.9318 86.9699C36.4318 86.9699 35.9218 87.0499 35.4218 87.2199L24.6418 54.6899L50.3018 46.1799ZM50.3018 42.1799C49.8818 42.1799 49.4518 42.2499 49.0418 42.3799L23.3818 50.8899C21.2818 51.5899 20.1518 53.8499 20.8418 55.9499L31.6218 88.4799C31.9518 89.4899 32.6718 90.3199 33.6218 90.7999C34.1818 91.0799 34.8018 91.2299 35.4118 91.2299C35.8318 91.2299 36.2618 91.1599 36.6718 91.0299C36.7518 90.9999 36.8418 90.9899 36.9318 90.9899C37.2218 90.9899 37.5718 91.1599 37.7018 91.5499C37.8418 91.9699 37.6118 92.4299 37.1918 92.5699C35.0918 93.2699 33.9618 95.5299 34.6518 97.6299L43.1818 123.36C43.5118 124.37 44.2318 125.2 45.1818 125.68C45.7418 125.96 46.3618 126.11 46.9718 126.11C47.3918 126.11 47.8218 126.04 48.2318 125.91C48.3118 125.88 48.4018 125.87 48.4918 125.87C48.7818 125.87 49.1318 126.04 49.2618 126.43C49.4018 126.85 49.1718 127.31 48.7518 127.45C47.7418 127.78 46.9118 128.5 46.4318 129.45C45.9518 130.4 45.8718 131.5 46.2118 132.5L54.2218 156.65C54.5518 157.66 55.2718 158.49 56.2218 158.97C56.7818 159.25 57.4018 159.4 58.0118 159.4C58.4318 159.4 58.8618 159.33 59.2718 159.2L84.9318 150.69C87.0318 149.99 88.1618 147.73 87.4718 145.63L79.4618 121.48C79.1318 120.47 78.4118 119.64 77.4618 119.16C76.9018 118.88 76.2818 118.73 75.6718 118.73C75.2518 118.73 74.8218 118.8 74.4118 118.93C74.3318 118.96 74.2418 118.97 74.1518 118.97C73.8618 118.97 73.5118 118.8 73.3818 118.41C73.2918 118.15 73.3618 117.93 73.4218 117.79C73.4918 117.65 73.6318 117.47 73.8918 117.38C75.9918 116.68 77.1218 114.42 76.4318 112.32L67.9018 86.5899C67.5718 85.5799 66.8518 84.7499 65.9018 84.2699C65.3418 83.9899 64.7218 83.8399 64.1118 83.8399C63.6918 83.8399 63.2618 83.9099 62.8518 84.0399C62.7718 84.0699 62.6818 84.0799 62.5918 84.0799C62.3018 84.0799 61.9518 83.9099 61.8218 83.5199C61.6818 83.0999 61.9118 82.6399 62.3318 82.4999C63.3418 82.1699 64.1718 81.4499 64.6518 80.4999C65.1318 79.5499 65.2118 78.4499 64.8718 77.4499L54.0918 44.9199C53.7618 43.9099 53.0418 43.0799 52.0918 42.5999C51.5318 42.3199 50.9118 42.1699 50.3018 42.1699V42.1799Z" fill="#53320A"/>
<path d="M92.7016 133.19C91.7216 133.19 90.8716 132.47 90.7216 131.47L87.1016 106.29C86.9416 105.2 87.7016 104.18 88.7916 104.03C88.8916 104.02 88.9816 104.01 89.0816 104.01C90.0616 104.01 90.9116 104.73 91.0616 105.73L94.6816 130.91C94.8416 132 94.0816 133.02 92.9916 133.17C92.8916 133.18 92.8016 133.19 92.7016 133.19Z" fill="#E60012"/>
<path d="M89.0816 106.01L92.7016 131.19L89.0816 106.01M89.0816 102.01C88.8916 102.01 88.7016 102.02 88.5116 102.05C86.3216 102.36 84.8116 104.39 85.1216 106.58L88.7416 131.76C89.0316 133.75 90.7416 135.19 92.6916 135.19C92.8816 135.19 93.0716 135.18 93.2616 135.15C95.4516 134.84 96.9616 132.81 96.6516 130.62L93.0316 105.44C92.7416 103.45 91.0316 102.01 89.0816 102.01Z" fill="#53320A"/>
<path d="M119.462 129.34C118.482 129.34 117.632 128.62 117.482 127.62L113.862 102.44C113.702 101.35 114.462 100.33 115.552 100.18C115.652 100.17 115.742 100.16 115.842 100.16C116.822 100.16 117.672 100.88 117.822 101.88L121.442 127.06C121.602 128.15 120.842 129.17 119.752 129.32C119.652 129.33 119.562 129.34 119.462 129.34Z" fill="#E60012"/>
<path d="M115.842 102.16L119.462 127.34L115.842 102.16ZM115.842 98.1599C115.652 98.1599 115.462 98.1699 115.272 98.1999C113.082 98.5099 111.572 100.54 111.882 102.73L115.502 127.91C115.792 129.9 117.502 131.34 119.452 131.34C119.642 131.34 119.832 131.33 120.022 131.3C122.212 130.99 123.722 128.96 123.412 126.77L119.792 101.59C119.502 99.5999 117.792 98.1599 115.842 98.1599Z" fill="#53320A"/>
<path d="M99.0618 177.42C98.0718 177.42 97.2218 176.69 97.0818 175.7L90.7218 131.47C90.6418 130.95 90.7818 130.41 91.1018 129.99C91.4218 129.57 91.8918 129.28 92.4218 129.21L119.182 125.36C119.282 125.35 119.372 125.34 119.472 125.34C120.452 125.34 121.302 126.06 121.452 127.06L128.372 175.14C128.452 175.71 128.282 176.3 127.902 176.73C127.522 177.16 126.972 177.42 126.392 177.42H99.0818H99.0618Z" fill="#FBDDA0"/>
<path d="M119.462 127.34L126.382 175.42H99.0718L92.7118 131.19L119.472 127.34M119.472 123.34C119.282 123.34 119.092 123.35 118.902 123.38L92.1418 127.23C89.9518 127.54 88.4418 129.57 88.7518 131.76L95.1118 175.99C95.3918 177.96 97.0818 179.42 99.0718 179.42H126.382C127.542 179.42 128.642 178.92 129.402 178.04C130.162 177.16 130.502 176 130.342 174.85L123.422 126.77C123.272 125.72 122.712 124.77 121.862 124.14C121.162 123.62 120.322 123.34 119.462 123.34H119.472Z" fill="#53320A"/>
<path d="M92.7017 133.19C91.7217 133.19 90.8717 132.47 90.7217 131.47L87.1017 106.29C86.9417 105.2 87.7017 104.18 88.7917 104.03C90.3217 103.81 91.3917 102.38 91.1717 100.85C90.9717 99.4801 89.7817 98.4401 88.3917 98.4401C88.2617 98.4401 88.1217 98.4401 87.9817 98.4701C87.8917 98.4801 87.7917 98.4901 87.7017 98.4901C87.2717 98.4901 86.8517 98.3501 86.5017 98.0901C86.0817 97.7701 85.7917 97.3001 85.7217 96.7701L81.8617 69.9401C81.7017 68.8501 82.4617 67.8301 83.5517 67.6801C85.0817 67.4601 86.1517 66.0301 85.9317 64.5001C85.7317 63.1301 84.5417 62.0901 83.1617 62.0901C83.0317 62.0901 82.8917 62.0901 82.7517 62.1201C82.6517 62.1301 82.5617 62.1401 82.4617 62.1401C82.0317 62.1401 81.6117 62.0001 81.2617 61.7401C80.8417 61.4201 80.5517 60.9501 80.4817 60.4201L75.6017 26.5001C75.5217 25.9801 75.6617 25.4401 75.9817 25.0201C76.3017 24.6001 76.7717 24.3101 77.3017 24.2401L104.062 20.3901C104.162 20.3801 104.252 20.3701 104.352 20.3701C105.332 20.3701 106.182 21.0901 106.332 22.0901L111.212 56.0101C111.372 57.1001 110.612 58.1201 109.522 58.2701C107.992 58.4901 106.922 59.9201 107.142 61.4501C107.342 62.8201 108.532 63.8601 109.912 63.8601C110.042 63.8601 110.182 63.8601 110.322 63.8301C110.412 63.8201 110.512 63.8101 110.602 63.8101C111.032 63.8101 111.452 63.9501 111.802 64.2101C112.222 64.5301 112.512 65.0001 112.582 65.5301L116.442 92.3601C116.602 93.4501 115.842 94.4701 114.752 94.6201C113.222 94.8401 112.152 96.2701 112.372 97.8001C112.572 99.1701 113.762 100.21 115.142 100.21C115.272 100.21 115.412 100.21 115.552 100.18C115.652 100.17 115.742 100.16 115.842 100.16C116.272 100.16 116.692 100.3 117.042 100.56C117.462 100.88 117.752 101.35 117.822 101.88L121.442 127.06C121.522 127.58 121.382 128.12 121.062 128.54C120.742 128.96 120.272 129.25 119.742 129.32L92.9817 133.17C92.8817 133.18 92.7917 133.19 92.6917 133.19H92.7017Z" fill="#E60012"/>
<path d="M104.362 22.3701L109.242 56.2901C106.612 56.6701 104.792 59.1101 105.162 61.7401C105.502 64.1401 107.562 65.8701 109.912 65.8701C110.142 65.8701 110.372 65.8501 110.602 65.8201L114.462 92.6501C111.832 93.0301 110.012 95.4701 110.382 98.1001C110.722 100.5 112.782 102.23 115.132 102.23C115.362 102.23 115.592 102.21 115.822 102.18L119.442 127.36L92.6817 131.21L89.0617 106.03C91.6917 105.65 93.5117 103.21 93.1417 100.58C92.8017 98.1801 90.7417 96.4501 88.3917 96.4501C88.1617 96.4501 87.9317 96.4701 87.7017 96.5001L83.8417 69.6701C86.4717 69.2901 88.2917 66.8501 87.9217 64.2201C87.5817 61.8201 85.5217 60.0901 83.1717 60.0901C82.9417 60.0901 82.7117 60.1101 82.4817 60.1401L77.6017 26.2201L104.362 22.3701M104.362 18.3701C104.172 18.3701 103.982 18.3801 103.792 18.4101L77.0317 22.2601C74.8417 22.5701 73.3317 24.6001 73.6417 26.7901L78.5217 60.7101C78.6717 61.7601 79.2317 62.7101 80.0817 63.3401C80.7817 63.8601 81.6217 64.1401 82.4817 64.1401C82.6717 64.1401 82.8617 64.1301 83.0517 64.1001C83.0917 64.1001 83.1317 64.1001 83.1717 64.1001C83.5117 64.1001 83.9017 64.3401 83.9717 64.8001C84.0317 65.2401 83.7317 65.6501 83.2817 65.7201C81.0917 66.0301 79.5817 68.0601 79.8917 70.2501L83.7517 97.0801C83.9017 98.1301 84.4617 99.0801 85.3117 99.7101C86.0117 100.23 86.8517 100.51 87.7117 100.51C87.9017 100.51 88.0917 100.5 88.2817 100.47C88.3217 100.47 88.3617 100.47 88.4017 100.47C88.7417 100.47 89.1317 100.71 89.2017 101.17C89.2417 101.44 89.1417 101.65 89.0517 101.77C88.9617 101.89 88.7917 102.05 88.5217 102.09C87.4717 102.24 86.5217 102.8 85.8917 103.65C85.2517 104.5 84.9817 105.57 85.1317 106.62L88.7517 131.8C89.0417 133.79 90.7517 135.23 92.7017 135.23C92.8917 135.23 93.0817 135.22 93.2717 135.19L120.032 131.34C121.082 131.19 122.032 130.63 122.662 129.78C123.292 128.93 123.572 127.86 123.422 126.81L119.802 101.63C119.652 100.58 119.092 99.6301 118.242 99.0001C117.542 98.4801 116.702 98.2001 115.842 98.2001C115.652 98.2001 115.462 98.2101 115.272 98.2401C115.232 98.2401 115.192 98.2401 115.152 98.2401C114.812 98.2401 114.422 98.0001 114.352 97.5401C114.292 97.1001 114.592 96.6901 115.042 96.6201C117.232 96.3101 118.742 94.2801 118.432 92.0901L114.572 65.2601C114.422 64.2101 113.862 63.2601 113.012 62.6301C112.312 62.1101 111.472 61.8301 110.612 61.8301C110.422 61.8301 110.232 61.8401 110.042 61.8701C110.002 61.8701 109.962 61.8701 109.922 61.8701C109.582 61.8701 109.192 61.6301 109.122 61.1701C109.062 60.7301 109.362 60.3201 109.812 60.2501C110.862 60.1001 111.812 59.5401 112.442 58.6901C113.082 57.8401 113.352 56.7701 113.202 55.7201L108.322 21.8001C108.172 20.7501 107.612 19.8001 106.762 19.1701C106.062 18.6501 105.222 18.3701 104.362 18.3701V18.3701Z" fill="#53320A"/>
<path d="M199.182 177.42C198.542 177.42 197.932 177.11 197.562 176.59C197.182 176.07 197.082 175.4 197.282 174.79L206.762 146.21C207.042 145.37 207.822 144.84 208.662 144.84C208.872 144.84 209.082 144.87 209.292 144.94L233.052 152.82L240.432 130.57C240.712 129.73 241.492 129.2 242.332 129.2C242.542 129.2 242.752 129.23 242.962 129.3C244.012 129.65 244.582 130.78 244.232 131.83L233.012 165.68C232.822 166.26 232.372 166.72 231.802 166.93L203.452 177.3C203.232 177.38 203.002 177.42 202.762 177.42H199.192H199.182Z" fill="#FBDDA0"/>
<path d="M242.322 131.2L234.312 155.35L242.322 131.2M208.652 146.84L234.312 155.35L231.092 165.05L202.742 175.42H199.172L208.652 146.84ZM242.322 127.2C240.642 127.2 239.082 128.26 238.522 129.94L231.772 150.29L209.912 143.04C209.502 142.9 209.082 142.84 208.652 142.84C208.032 142.84 207.422 142.98 206.862 143.27C205.912 143.75 205.192 144.58 204.862 145.59L195.382 174.17C194.982 175.39 195.182 176.73 195.932 177.77C196.682 178.81 197.892 179.43 199.172 179.43H202.742C203.212 179.43 203.672 179.35 204.112 179.19L232.462 168.82C233.612 168.4 234.502 167.48 234.882 166.32L238.102 156.62L246.112 132.47C246.812 130.37 245.672 128.11 243.572 127.41C243.152 127.27 242.732 127.21 242.312 127.21L242.322 127.2Z" fill="#53320A"/>
<path d="M234.312 157.35C234.102 157.35 233.892 157.32 233.682 157.25L208.022 148.74C207.522 148.57 207.102 148.21 206.862 147.74C206.622 147.27 206.582 146.72 206.752 146.21L214.762 122.06C215.042 121.22 215.822 120.69 216.662 120.69C216.872 120.69 217.082 120.72 217.292 120.79C217.582 120.89 217.882 120.93 218.172 120.93C219.382 120.93 220.452 120.16 220.842 119C221.082 118.29 221.022 117.53 220.682 116.85C220.342 116.18 219.772 115.68 219.052 115.44C218.002 115.09 217.432 113.96 217.782 112.91L226.312 87.1799C226.592 86.3399 227.372 85.8099 228.212 85.8099C228.422 85.8099 228.632 85.8399 228.842 85.9099C229.132 86.0099 229.432 86.0499 229.732 86.0499C230.942 86.0499 232.012 85.2799 232.402 84.1199C232.642 83.4099 232.582 82.6499 232.242 81.9699C231.902 81.2999 231.332 80.7999 230.612 80.5599C230.112 80.3899 229.692 80.0299 229.452 79.5599C229.212 79.0899 229.172 78.5399 229.342 78.0299L240.122 45.4999C240.402 44.6599 241.182 44.1299 242.022 44.1299C242.232 44.1299 242.442 44.1599 242.652 44.2299L268.312 52.7399C269.362 53.0899 269.932 54.2199 269.582 55.2699L258.802 87.7999C258.522 88.6399 257.742 89.1699 256.902 89.1699C256.692 89.1699 256.482 89.1399 256.272 89.0699C255.982 88.9699 255.682 88.9299 255.382 88.9299C254.172 88.9299 253.102 89.6999 252.712 90.8599C252.222 92.3299 253.022 93.9199 254.492 94.4099C254.992 94.5799 255.412 94.9399 255.652 95.4099C255.892 95.8799 255.932 96.4299 255.762 96.9399L247.232 122.67C247.062 123.17 246.702 123.59 246.232 123.83C245.952 123.97 245.642 124.04 245.332 124.04C245.122 124.04 244.912 124.01 244.702 123.94C244.412 123.84 244.112 123.8 243.822 123.8C242.612 123.8 241.542 124.57 241.152 125.73C240.912 126.44 240.972 127.2 241.312 127.88C241.652 128.55 242.222 129.05 242.942 129.29C243.442 129.46 243.862 129.82 244.102 130.29C244.342 130.76 244.382 131.31 244.212 131.82L236.202 155.97C236.032 156.47 235.672 156.89 235.202 157.13C234.922 157.27 234.612 157.34 234.302 157.34L234.312 157.35Z" fill="#E60012"/>
<path d="M242.032 46.1799L267.692 54.6899L256.912 87.2199C256.412 87.0499 255.902 86.9699 255.402 86.9699C253.382 86.9699 251.502 88.2499 250.842 90.2699C250.002 92.7899 251.372 95.5099 253.892 96.3499L245.362 122.08C244.862 121.91 244.352 121.83 243.852 121.83C241.832 121.83 239.962 123.11 239.292 125.13C238.452 127.65 239.822 130.37 242.342 131.21L234.332 155.36L208.672 146.85L216.682 122.7C217.182 122.87 217.692 122.95 218.192 122.95C220.212 122.95 222.092 121.67 222.752 119.65C223.592 117.13 222.222 114.41 219.702 113.57L228.232 87.8399C228.732 88.0099 229.242 88.0899 229.742 88.0899C231.762 88.0899 233.642 86.8099 234.302 84.7899C235.142 82.2699 233.772 79.5499 231.252 78.7099L242.032 46.1799M242.032 42.1799C241.412 42.1799 240.802 42.3199 240.242 42.6099C239.292 43.0899 238.572 43.9199 238.242 44.9299L227.462 77.4599C227.132 78.4699 227.212 79.5699 227.682 80.5099C228.162 81.4599 228.992 82.1799 230.002 82.5099C230.422 82.6499 230.652 83.1099 230.512 83.5299C230.382 83.9099 230.032 84.0899 229.742 84.0899C229.662 84.0899 229.572 84.0799 229.482 84.0499C229.072 83.9099 228.652 83.8499 228.222 83.8499C227.602 83.8499 226.992 83.9899 226.432 84.2799C225.482 84.7599 224.762 85.5899 224.432 86.5999L215.902 112.33C215.202 114.43 216.342 116.69 218.442 117.39C218.702 117.48 218.842 117.66 218.912 117.8C218.982 117.94 219.042 118.15 218.952 118.42C218.822 118.8 218.472 118.98 218.182 118.98C218.102 118.98 218.012 118.97 217.922 118.94C217.512 118.8 217.092 118.74 216.662 118.74C216.042 118.74 215.432 118.88 214.872 119.17C213.922 119.65 213.202 120.48 212.872 121.49L204.862 145.64C204.162 147.74 205.302 150 207.402 150.7L233.062 159.21C233.472 159.35 233.892 159.41 234.322 159.41C234.942 159.41 235.552 159.27 236.112 158.98C237.062 158.5 237.782 157.67 238.112 156.66L246.122 132.51C246.452 131.5 246.372 130.4 245.902 129.46C245.422 128.51 244.592 127.79 243.582 127.46C243.162 127.32 242.932 126.86 243.072 126.44C243.202 126.06 243.552 125.88 243.842 125.88C243.922 125.88 244.012 125.89 244.102 125.92C244.512 126.06 244.932 126.12 245.362 126.12C245.982 126.12 246.592 125.98 247.152 125.69C248.102 125.21 248.822 124.38 249.152 123.37L257.682 97.6399C258.382 95.5399 257.242 93.2799 255.142 92.5799C254.722 92.4399 254.492 91.9799 254.632 91.5599C254.762 91.1799 255.112 90.9999 255.402 90.9999C255.482 90.9999 255.572 91.0099 255.662 91.0399C256.072 91.1799 256.492 91.2399 256.922 91.2399C257.542 91.2399 258.152 91.0999 258.712 90.8099C259.662 90.3299 260.382 89.4999 260.712 88.4899L271.492 55.9599C272.192 53.8599 271.052 51.5999 268.952 50.8999L243.292 42.3899C242.882 42.2499 242.462 42.1899 242.032 42.1899V42.1799Z" fill="#53320A"/>
<path d="M165.962 177.42C165.382 177.42 164.832 177.17 164.452 176.73C164.072 176.29 163.902 175.71 163.982 175.14L170.902 127.06C171.042 126.06 171.902 125.34 172.882 125.34C172.972 125.34 173.072 125.34 173.172 125.36L199.932 129.21C200.452 129.29 200.932 129.57 201.252 129.99C201.572 130.41 201.702 130.95 201.632 131.47L195.272 175.7C195.132 176.68 194.292 177.42 193.292 177.42H165.982H165.962Z" fill="#FBDDA0"/>
<path d="M172.872 127.34L199.632 131.19L193.272 175.42H165.962L172.882 127.34M172.882 123.34C172.022 123.34 171.182 123.62 170.482 124.14C169.632 124.78 169.072 125.72 168.922 126.77L162.002 174.85C161.832 176 162.182 177.16 162.942 178.04C163.702 178.92 164.802 179.42 165.962 179.42H193.272C195.262 179.42 196.952 177.96 197.232 175.99L203.592 131.76C203.902 129.57 202.392 127.55 200.202 127.23L173.442 123.38C173.252 123.35 173.062 123.34 172.872 123.34H172.882Z" fill="#53320A"/>
<path d="M199.631 133.19C199.541 133.19 199.441 133.19 199.341 133.17L172.581 129.32C172.061 129.24 171.581 128.96 171.261 128.54C170.941 128.12 170.811 127.58 170.881 127.06L174.501 101.88C174.581 101.36 174.861 100.88 175.281 100.56C175.631 100.3 176.051 100.16 176.481 100.16C176.571 100.16 176.671 100.16 176.761 100.18C176.901 100.2 177.031 100.21 177.171 100.21C178.551 100.21 179.751 99.1701 179.941 97.8001C180.161 96.2701 179.091 94.8401 177.561 94.6201C176.471 94.4601 175.711 93.4501 175.871 92.3601L179.731 65.5301C179.811 65.0001 180.091 64.5301 180.511 64.2101C180.861 63.9501 181.281 63.8101 181.711 63.8101C181.801 63.8101 181.901 63.8101 181.991 63.8301C182.131 63.8501 182.261 63.8601 182.401 63.8601C183.781 63.8601 184.981 62.8201 185.171 61.4501C185.391 59.9201 184.321 58.4901 182.791 58.2701C181.701 58.1101 180.941 57.1001 181.101 56.0101L185.981 22.0901C186.061 21.5701 186.341 21.0901 186.761 20.7701C187.111 20.5101 187.531 20.3701 187.961 20.3701C188.051 20.3701 188.151 20.3701 188.241 20.3901L215.001 24.2401C216.091 24.4001 216.851 25.4101 216.691 26.5001L211.811 60.4201C211.731 60.9401 211.451 61.4201 211.031 61.7401C210.681 62.0001 210.261 62.1401 209.831 62.1401C209.741 62.1401 209.641 62.1401 209.551 62.1201C209.411 62.1001 209.281 62.0901 209.141 62.0901C207.761 62.0901 206.561 63.1301 206.371 64.5001C206.151 66.0301 207.221 67.4601 208.751 67.6801C209.841 67.8401 210.601 68.8501 210.441 69.9401L206.581 96.7701C206.501 97.2901 206.221 97.7701 205.801 98.0901C205.451 98.3501 205.031 98.4901 204.601 98.4901C204.511 98.4901 204.411 98.4901 204.321 98.4701C204.181 98.4501 204.051 98.4401 203.911 98.4401C202.531 98.4401 201.331 99.4801 201.141 100.85C200.921 102.38 201.991 103.81 203.521 104.03C204.611 104.19 205.371 105.2 205.211 106.29L201.591 131.47C201.451 132.47 200.591 133.19 199.611 133.19H199.631Z" fill="#E60012"/>
<path d="M187.972 22.3701L214.732 26.2201L209.852 60.1401C209.622 60.1101 209.392 60.0901 209.162 60.0901C206.812 60.0901 204.752 61.8201 204.412 64.2201C204.032 66.8501 205.862 69.2901 208.492 69.6701L204.632 96.5001C204.402 96.4701 204.172 96.4501 203.942 96.4501C201.592 96.4501 199.532 98.1801 199.192 100.58C198.812 103.21 200.642 105.65 203.272 106.03L199.652 131.21L172.892 127.36L176.512 102.18C176.742 102.21 176.972 102.23 177.202 102.23C179.552 102.23 181.612 100.5 181.952 98.1001C182.332 95.4701 180.502 93.0301 177.872 92.6501L181.732 65.8201C181.962 65.8501 182.192 65.8701 182.422 65.8701C184.772 65.8701 186.832 64.1401 187.172 61.7401C187.552 59.1101 185.722 56.6701 183.092 56.2901L187.972 22.3701M187.972 18.3701C187.112 18.3701 186.272 18.6501 185.572 19.1701C184.722 19.8101 184.162 20.7501 184.012 21.8001L179.132 55.7201C178.982 56.7701 179.252 57.8401 179.892 58.6901C180.532 59.5401 181.472 60.1001 182.522 60.2501C182.962 60.3101 183.272 60.7201 183.212 61.1701C183.152 61.6201 182.752 61.8701 182.412 61.8701C182.372 61.8701 182.332 61.8701 182.292 61.8701C182.102 61.8401 181.912 61.8301 181.722 61.8301C180.862 61.8301 180.022 62.1101 179.322 62.6301C178.472 63.2701 177.912 64.2101 177.762 65.2601L173.902 92.0901C173.592 94.2801 175.102 96.3001 177.292 96.6201C177.732 96.6801 178.042 97.0901 177.982 97.5401C177.922 97.9901 177.522 98.2401 177.182 98.2401C177.142 98.2401 177.102 98.2401 177.062 98.2401C176.872 98.2101 176.682 98.2001 176.492 98.2001C175.632 98.2001 174.792 98.4801 174.092 99.0001C173.242 99.6401 172.682 100.58 172.532 101.63L168.912 126.81C168.762 127.86 169.032 128.93 169.672 129.78C170.312 130.63 171.252 131.19 172.302 131.34L199.062 135.19C199.252 135.22 199.452 135.23 199.632 135.23C201.592 135.23 203.302 133.79 203.582 131.8L207.202 106.62C207.352 105.57 207.082 104.5 206.442 103.65C205.802 102.8 204.862 102.24 203.812 102.09C203.542 102.05 203.372 101.9 203.282 101.77C203.192 101.65 203.092 101.44 203.132 101.17C203.192 100.72 203.592 100.47 203.932 100.47C203.972 100.47 204.012 100.47 204.052 100.47C204.242 100.5 204.432 100.51 204.622 100.51C205.482 100.51 206.322 100.23 207.022 99.7101C207.872 99.0701 208.432 98.1301 208.582 97.0801L212.442 70.2501C212.752 68.0601 211.242 66.0401 209.052 65.7201C208.612 65.6601 208.302 65.2501 208.362 64.8001C208.422 64.3501 208.822 64.1001 209.152 64.1001C209.192 64.1001 209.232 64.1001 209.272 64.1001C209.462 64.1301 209.652 64.1401 209.842 64.1401C210.702 64.1401 211.542 63.8601 212.242 63.3401C213.092 62.7001 213.652 61.7601 213.802 60.7101L218.682 26.7901C218.992 24.6001 217.482 22.5801 215.292 22.2601L188.532 18.4101C188.342 18.3801 188.152 18.3701 187.962 18.3701H187.972Z" fill="#53320A"/>
<path d="M159.682 117.05H132.652C131.547 117.05 130.652 117.945 130.652 119.05V175.42C130.652 176.525 131.547 177.42 132.652 177.42H159.682C160.786 177.42 161.682 176.525 161.682 175.42V119.05C161.682 117.945 160.786 117.05 159.682 117.05Z" fill="#FBDDA0"/>
<path d="M159.682 119.05V175.42H132.652V119.05H159.682M159.682 115.05H132.652C130.442 115.05 128.652 116.84 128.652 119.05V175.42C128.652 177.63 130.442 179.42 132.652 179.42H159.682C161.892 179.42 163.682 177.63 163.682 175.42V119.05C163.682 116.84 161.892 115.05 159.682 115.05Z" fill="#53320A"/>
<path d="M132.652 121.05C131.552 121.05 130.652 120.15 130.652 119.05V93.61C130.652 92.51 131.552 91.61 132.652 91.61C134.202 91.61 135.462 90.35 135.462 88.8C135.462 87.25 134.202 85.99 132.652 85.99C131.552 85.99 130.652 85.09 130.652 83.99V56.89C130.652 55.79 131.552 54.89 132.652 54.89C134.202 54.89 135.462 53.63 135.462 52.08C135.462 50.53 134.202 49.27 132.652 49.27C131.552 49.27 130.652 48.37 130.652 47.27V13C130.652 11.9 131.552 11 132.652 11H159.682C160.782 11 161.682 11.9 161.682 13V47.27C161.682 48.37 160.782 49.27 159.682 49.27C158.132 49.27 156.872 50.53 156.872 52.08C156.872 53.63 158.132 54.89 159.682 54.89C160.782 54.89 161.682 55.79 161.682 56.89V83.99C161.682 85.09 160.782 85.99 159.682 85.99C158.132 85.99 156.872 87.25 156.872 88.8C156.872 90.35 158.132 91.61 159.682 91.61C160.782 91.61 161.682 92.51 161.682 93.61V119.05C161.682 120.15 160.782 121.05 159.682 121.05H132.652V121.05Z" fill="#E60012"/>
<path d="M159.682 13V47.27C157.022 47.27 154.872 49.42 154.872 52.08C154.872 54.74 157.022 56.89 159.682 56.89V83.99C157.022 83.99 154.872 86.14 154.872 88.8C154.872 91.46 157.022 93.61 159.682 93.61V119.05H132.652V93.61C135.312 93.61 137.462 91.46 137.462 88.8C137.462 86.14 135.312 83.99 132.652 83.99V56.89C135.312 56.89 137.462 54.74 137.462 52.08C137.462 49.42 135.312 47.27 132.652 47.27V13H159.682ZM159.682 9H132.652C130.442 9 128.652 10.79 128.652 13V47.27C128.652 49.48 130.442 51.27 132.652 51.27C133.102 51.27 133.462 51.63 133.462 52.08C133.462 52.53 133.102 52.89 132.652 52.89C130.442 52.89 128.652 54.68 128.652 56.89V83.99C128.652 86.2 130.442 87.99 132.652 87.99C133.102 87.99 133.462 88.35 133.462 88.8C133.462 89.25 133.102 89.61 132.652 89.61C130.442 89.61 128.652 91.4 128.652 93.61V119.05C128.652 121.26 130.442 123.05 132.652 123.05H159.682C161.892 123.05 163.682 121.26 163.682 119.05V93.61C163.682 91.4 161.892 89.61 159.682 89.61C159.232 89.61 158.872 89.25 158.872 88.8C158.872 88.35 159.232 87.99 159.682 87.99C161.892 87.99 163.682 86.2 163.682 83.99V56.89C163.682 54.68 161.892 52.89 159.682 52.89C159.232 52.89 158.872 52.53 158.872 52.08C158.872 51.63 159.232 51.27 159.682 51.27C161.892 51.27 163.682 49.48 163.682 47.27V13C163.682 10.79 161.892 9 159.682 9Z" fill="#53320A"/>
<path d="M252.102 159.37L202.742 177.42H146.172H89.5916L39.9216 159.25" stroke="#52320E" stroke-width="4" stroke-linecap="round" stroke-linejoin="round"/>
<path d="M145.522 324.04C169.005 324.04 188.042 305.003 188.042 281.52C188.042 258.037 169.005 239 145.522 239C122.039 239 103.002 258.037 103.002 281.52C103.002 305.003 122.039 324.04 145.522 324.04Z" fill="#FFFCE9"/>
<g clip-path="url(#clip0_116_13602)">
<path opacity="0.35" d="M154.677 289.875V302.587C154.678 302.787 154.721 302.984 154.803 303.166C154.886 303.348 155.006 303.511 155.157 303.644C155.307 303.777 155.484 303.876 155.676 303.937C155.868 303.997 156.071 304.016 156.271 303.993C159.771 303.606 163.005 301.952 165.354 299.348C167.703 296.743 169.001 293.372 169.001 289.877C169.001 286.383 167.703 283.011 165.354 280.407C163.005 277.803 159.771 276.149 156.271 275.762C156.071 275.739 155.868 275.758 155.676 275.818C155.484 275.878 155.307 275.978 155.157 276.11C155.006 276.243 154.886 276.406 154.803 276.588C154.721 276.77 154.678 276.968 154.677 277.167V289.875Z" fill="#F9BE53"/>
<path d="M123.361 278.7H117.401C116.539 278.7 115.923 278.508 115.553 278.123C115.183 277.739 114.999 277.129 115.002 276.294V261.737C115.002 260.882 115.19 260.262 115.568 259.878C115.943 259.506 116.554 259.316 117.401 259.316H123.736C124.547 259.307 125.357 259.364 126.158 259.487C126.808 259.59 127.433 259.814 127.998 260.149C128.463 260.423 128.876 260.774 129.22 261.187C129.572 261.598 129.847 262.068 130.034 262.574C130.223 263.088 130.318 263.63 130.315 264.177C130.315 266.116 129.338 267.534 127.384 268.432C129.95 269.252 131.233 270.834 131.233 273.177C131.246 274.213 130.955 275.23 130.394 276.104C129.856 276.954 129.072 277.624 128.145 278.027C127.487 278.289 126.798 278.464 126.094 278.547C125.187 278.657 124.275 278.708 123.361 278.7V278.7ZM118.957 262.262V267.271H122.578C123.35 267.299 124.122 267.205 124.864 266.992C125.396 266.81 125.836 266.431 126.094 265.936C126.317 265.56 126.433 265.13 126.428 264.694C126.428 263.717 126.077 263.067 125.374 262.745C124.672 262.423 123.602 262.262 122.165 262.262H118.957ZM123.08 270.072H118.957V275.728H123.204C125.875 275.728 127.212 274.772 127.215 272.861C127.215 271.883 126.866 271.172 126.176 270.734C125.487 270.295 124.448 270.098 123.073 270.098L123.08 270.072Z" fill="#F9BE53"/>
<path d="M141.43 259C143.246 258.95 145.043 259.372 146.644 260.224C148.076 261.018 149.227 262.231 149.939 263.697C150.721 265.351 151.105 267.163 151.064 268.989C151.082 270.377 150.874 271.758 150.449 273.08C150.069 274.259 149.443 275.344 148.612 276.267C147.784 277.172 146.758 277.877 145.613 278.328C142.969 279.292 140.066 279.292 137.422 278.328C136.27 277.875 135.237 277.168 134.401 276.26C133.569 275.329 132.946 274.234 132.572 273.047C132.147 271.737 131.937 270.369 131.949 268.993C131.935 267.603 132.154 266.221 132.598 264.902C132.991 263.727 133.629 262.647 134.472 261.733C135.306 260.85 136.331 260.165 137.471 259.733C138.732 259.241 140.075 258.993 141.43 259ZM147.053 268.963C147.084 267.701 146.849 266.445 146.363 265.278C145.962 264.309 145.271 263.484 144.384 262.916C143.497 262.376 142.473 262.1 141.433 262.12C140.68 262.112 139.934 262.262 139.244 262.563C138.575 262.855 137.983 263.295 137.512 263.85C136.996 264.488 136.613 265.223 136.388 266.01C136.095 266.967 135.954 267.963 135.968 268.963C135.956 269.97 136.097 270.973 136.388 271.938C136.621 272.756 137.024 273.517 137.572 274.17C138.052 274.732 138.653 275.181 139.33 275.483C139.963 275.77 140.648 275.93 141.344 275.953C142.039 275.976 142.733 275.861 143.384 275.615C144.034 275.369 144.629 274.998 145.134 274.522C145.638 274.045 146.042 273.475 146.322 272.842C146.85 271.616 147.098 270.289 147.049 268.956L147.053 268.963Z" fill="#F9BE53"/>
<path d="M152.567 296.666V281.418C152.518 280.777 152.712 280.14 153.111 279.633C153.289 279.439 153.508 279.285 153.752 279.183C153.996 279.081 154.259 279.033 154.524 279.042C154.793 279.031 155.061 279.078 155.31 279.18C155.559 279.281 155.783 279.434 155.967 279.629C156.376 280.133 156.574 280.774 156.522 281.418V296.666C156.574 297.313 156.376 297.955 155.967 298.462C155.784 298.659 155.56 298.814 155.311 298.916C155.062 299.019 154.793 299.067 154.524 299.057C154.26 299.064 153.998 299.014 153.755 298.911C153.512 298.808 153.295 298.653 153.118 298.459C152.717 297.95 152.52 297.311 152.567 296.666Z" fill="#F9BE53"/>
<path d="M168.375 279.031C170.192 278.979 171.991 279.4 173.593 280.25C175.025 281.046 176.175 282.258 176.888 283.724C177.669 285.378 178.054 287.19 178.013 289.016C178.032 290.403 177.826 291.785 177.402 293.107C177.022 294.284 176.396 295.369 175.565 296.291C174.738 297.196 173.712 297.901 172.566 298.351C169.92 299.309 167.017 299.303 164.375 298.332C163.223 297.88 162.19 297.173 161.354 296.264C160.521 295.335 159.897 294.241 159.521 293.055C159.099 291.744 158.89 290.374 158.902 288.998C158.887 287.608 159.105 286.225 159.547 284.907C159.94 283.73 160.579 282.649 161.422 281.734C162.257 280.852 163.282 280.169 164.42 279.733C165.683 279.255 167.024 279.017 168.375 279.031ZM173.998 288.99C174.028 287.727 173.792 286.472 173.305 285.305C172.904 284.337 172.214 283.515 171.329 282.947C170.443 282.406 169.419 282.129 168.379 282.147C167.626 282.14 166.88 282.291 166.19 282.59C165.522 282.883 164.929 283.323 164.458 283.876C163.936 284.515 163.546 285.249 163.311 286.037C163.021 286.995 162.879 287.99 162.891 288.99C162.88 289.997 163.022 291 163.311 291.965C163.548 292.776 163.952 293.529 164.495 294.178C164.976 294.74 165.577 295.19 166.254 295.495C167.049 295.829 167.913 295.974 168.775 295.918C169.638 295.863 170.475 295.608 171.221 295.175C172.117 294.622 172.823 293.811 173.245 292.85C173.779 291.634 174.035 290.316 173.995 288.99H173.998Z" fill="#F9BE53"/>
<path d="M134.09 293.922V292.341ZM134.09 292.341V281.764C134.09 280.909 134.279 280.289 134.656 279.905C135.031 279.533 135.642 279.343 136.485 279.343H142.813C143.624 279.335 144.434 279.393 145.235 279.518C145.885 279.619 146.51 279.842 147.075 280.176C147.538 280.452 147.951 280.803 148.297 281.214C149.011 282.05 149.4 283.112 149.392 284.208C149.392 286.144 148.415 287.562 146.461 288.462C149.027 289.273 150.31 290.848 150.31 293.189C150.324 294.225 150.032 295.242 149.471 296.116C148.934 296.967 148.15 297.638 147.222 298.039C146.564 298.301 145.875 298.476 145.171 298.559C144.274 298.669 143.372 298.72 142.468 298.712H136.482C135.622 298.712 135.007 298.521 134.637 298.139C134.267 297.757 134.084 297.147 134.086 296.309V293.907M138.041 282.292V287.298H141.662C142.435 287.326 143.206 287.232 143.949 287.019C144.481 286.839 144.922 286.46 145.178 285.963C145.402 285.587 145.517 285.157 145.512 284.721C145.512 283.743 145.16 283.096 144.459 282.772C143.758 282.448 142.689 282.292 141.25 282.292H138.041ZM142.165 290.102H138.041V295.755H142.292C144.964 295.755 146.301 294.799 146.303 292.888C146.336 292.473 146.256 292.058 146.073 291.684C145.89 291.31 145.61 290.991 145.261 290.76C144.571 290.339 143.538 290.128 142.161 290.128L142.165 290.102Z" fill="#F9BE53"/>
<path d="M152.777 293.286H152.559C148.955 292.873 145.629 291.16 143.214 288.472C140.8 285.785 139.466 282.311 139.466 278.711C139.466 275.111 140.8 271.637 143.214 268.949C145.629 266.262 148.955 264.549 152.559 264.136C152.825 264.106 153.093 264.131 153.347 264.21C153.602 264.29 153.837 264.422 154.036 264.597C154.236 264.772 154.397 264.988 154.507 265.229C154.617 265.469 154.676 265.731 154.677 265.995V291.415C154.671 291.91 154.467 292.383 154.112 292.731C153.756 293.079 153.276 293.274 152.777 293.274V293.286ZM152.777 265.04C152.74 265.036 152.702 265.036 152.664 265.04C149.28 265.416 146.154 267.016 143.885 269.535C141.615 272.054 140.36 275.314 140.36 278.692C140.36 282.071 141.615 285.331 143.885 287.849C146.154 290.368 149.28 291.968 152.664 292.345C152.799 292.359 152.936 292.345 153.065 292.304C153.194 292.263 153.313 292.196 153.414 292.107C153.515 292.018 153.596 291.91 153.651 291.788C153.706 291.666 153.734 291.534 153.733 291.4V265.981C153.733 265.848 153.705 265.716 153.65 265.595C153.595 265.474 153.515 265.365 153.414 265.278C153.238 265.123 153.012 265.039 152.777 265.04V265.04Z" fill="#F9BE53"/>
</g>
<path d="M14 163.415L39.92 158L88.4 176.708H201.68L251.12 158L278 163.415L208.4 190H82.64L14 163.415Z" fill="#BE1521" stroke="#573605" stroke-width="3" stroke-linejoin="round"/>
<defs>
<clipPath id="clip0_116_13602">
<rect width="63" height="45" fill="white" transform="translate(115.002 259)"/>
</clipPath>
</defs>
</svg>
