<svg width="293" height="527" viewBox="0 0 293 527" fill="none" xmlns="http://www.w3.org/2000/svg">
<path d="M81.4211 276.089C81.1812 276.089 80.9414 276.047 80.7119 275.964L10.4643 250.549C9.82815 250.32 9.34843 249.798 9.16071 249.141C8.98343 248.495 9.12943 247.796 9.557 247.264L34.8049 216.176C35.0864 215.832 35.4723 215.582 35.9103 215.467L101.194 198.896C101.361 198.854 101.538 198.833 101.705 198.833H192.132C192.309 198.833 192.476 198.854 192.643 198.896L257.916 215.467C258.354 215.582 258.74 215.822 259.022 216.176L284.27 247.264C284.697 247.786 284.843 248.484 284.666 249.141C284.489 249.798 283.998 250.309 283.362 250.549L213.115 275.964C212.885 276.047 212.645 276.089 212.405 276.089H81.4211Z" fill="#BE1521"/>
<path d="M192.132 200.93L257.416 217.501L282.663 248.589L212.416 274.003H81.421L11.1734 248.589L36.4212 217.501L101.705 200.93H192.132M192.132 196.758H101.705C101.361 196.758 101.017 196.8 100.683 196.883L35.3992 213.454C34.5336 213.673 33.7515 214.174 33.1883 214.873L7.94046 245.961C7.08531 247.014 6.79331 248.401 7.15831 249.705C7.52331 251.008 8.49318 252.051 9.75505 252.51L80.0027 277.925C80.4616 278.091 80.9413 278.175 81.421 278.175H212.426C212.906 278.175 213.386 278.091 213.844 277.925L284.092 252.51C285.364 252.051 286.334 251.008 286.689 249.705C287.043 248.401 286.762 247.003 285.907 245.961L260.659 214.873C260.096 214.174 259.314 213.684 258.448 213.454L193.164 196.883C192.831 196.8 192.487 196.758 192.142 196.758H192.132Z" fill="#533716"/>
<path d="M241.053 222.6L256.352 242.092L205.919 260.54H146.924H87.918L37.4849 242.092L52.7942 222.6L106.919 208.636H146.924H186.918L241.053 222.6Z" fill="#543714" stroke="#553711" stroke-width="4" stroke-linecap="round" stroke-linejoin="round"/>
<path d="M119.068 212.485C118.046 212.485 117.16 211.734 117.003 210.701L113.228 184.442C113.061 183.305 113.854 182.241 114.991 182.085C115.095 182.075 115.189 182.064 115.293 182.064C116.315 182.064 117.202 182.815 117.358 183.847L121.133 210.107C121.3 211.244 120.507 212.307 119.371 212.464C119.266 212.474 119.173 212.485 119.068 212.485Z" fill="#E30413"/>
<path d="M115.293 184.139L119.069 210.399L115.293 184.139ZM115.293 179.968C115.095 179.968 114.897 179.978 114.699 180.01C112.415 180.333 110.84 182.45 111.164 184.734L114.939 210.993C115.241 213.069 117.025 214.57 119.058 214.57C119.256 214.57 119.454 214.56 119.653 214.529C121.936 214.205 123.511 212.088 123.188 209.804L119.413 183.545C119.11 181.47 117.327 179.968 115.293 179.968Z" fill="#543714"/>
<path d="M97.7939 262.626C96.7615 262.626 95.8751 261.864 95.7291 260.842L89.0964 214.716C88.9295 213.58 89.7221 212.516 90.8589 212.36L118.766 208.344C118.86 208.334 118.964 208.324 119.058 208.324C119.506 208.324 119.944 208.47 120.309 208.741C120.747 209.074 121.05 209.565 121.123 210.117L128.34 260.258C128.423 260.853 128.246 261.468 127.849 261.917C127.453 262.365 126.88 262.636 126.275 262.636H97.7939V262.626Z" fill="#FCDBA3"/>
<path d="M119.069 210.399L126.285 260.54H97.8045L91.1718 214.414L119.079 210.399M119.079 206.227C118.881 206.227 118.683 206.238 118.485 206.269L90.5774 210.284C88.2935 210.607 86.7188 212.724 87.0421 215.008L93.6747 261.134C93.9667 263.189 95.7292 264.711 97.8045 264.711H126.285C127.495 264.711 128.642 264.19 129.435 263.272C130.227 262.355 130.582 261.145 130.415 259.946L123.198 209.804C123.042 208.709 122.458 207.719 121.571 207.062C120.841 206.519 119.965 206.227 119.069 206.227H119.079Z" fill="#543714"/>
<path d="M91.1612 216.5C90.7128 216.5 90.2748 216.354 89.9098 216.083C89.4718 215.749 89.1694 215.259 89.0964 214.706L85.3212 188.446C85.2377 187.894 85.3838 187.341 85.7175 186.903C86.0512 186.465 86.5413 186.163 87.0941 186.09C87.8658 185.975 88.5541 185.568 89.0234 184.942C89.4927 184.317 89.6908 183.545 89.5761 182.773C89.3675 181.345 88.1265 180.26 86.6769 180.26C86.5413 180.26 86.3953 180.26 86.2493 180.291C86.145 180.302 86.0512 180.312 85.9469 180.312C84.9249 180.312 84.0385 179.561 83.882 178.529L79.8565 150.549C79.6897 149.412 80.4823 148.348 81.619 148.192C83.2146 147.962 84.3305 146.471 84.101 144.875C83.8924 143.447 82.6514 142.362 81.2123 142.362C81.0767 142.362 80.9307 142.362 80.7847 142.393C80.6908 142.404 80.5866 142.414 80.4823 142.414C80.0338 142.414 79.5958 142.268 79.2308 141.997C78.7928 141.663 78.4904 141.173 78.4174 140.621L73.3282 105.246C73.2448 104.694 73.3908 104.141 73.7245 103.703C74.0582 103.265 74.5483 102.963 75.1011 102.89L103.008 98.8745C103.113 98.8641 103.206 98.8536 103.311 98.8536C104.333 98.8536 105.219 99.6045 105.376 100.637L110.465 136.011C110.548 136.564 110.402 137.116 110.068 137.554C109.735 137.992 109.245 138.295 108.692 138.368C107.096 138.597 105.98 140.089 106.21 141.684C106.418 143.113 107.659 144.198 109.099 144.198C109.234 144.198 109.38 144.198 109.526 144.166C109.62 144.156 109.724 144.145 109.829 144.145C110.277 144.145 110.715 144.291 111.08 144.563C111.518 144.896 111.82 145.386 111.893 145.939L115.919 173.919C116.002 174.472 115.856 175.025 115.523 175.463C115.189 175.901 114.699 176.203 114.146 176.276C113.374 176.391 112.686 176.798 112.217 177.423C111.747 178.049 111.549 178.821 111.664 179.593C111.873 181.032 113.114 182.106 114.563 182.106C114.699 182.106 114.845 182.106 114.991 182.075C115.095 182.064 115.189 182.054 115.293 182.054C116.315 182.054 117.202 182.805 117.358 183.837L121.133 210.096C121.3 211.233 120.508 212.297 119.371 212.453L91.4637 216.468C91.3698 216.479 91.2655 216.489 91.1717 216.489L91.1612 216.5Z" fill="#E30413"/>
<path d="M103.321 100.929L108.41 136.303C105.668 136.699 103.77 139.244 104.155 141.987C104.51 144.49 106.658 146.294 109.109 146.294C109.349 146.294 109.589 146.273 109.829 146.242L113.854 174.222C111.111 174.618 109.213 177.163 109.599 179.905C109.954 182.408 112.102 184.212 114.553 184.212C114.793 184.212 115.033 184.192 115.272 184.16L119.048 210.42L91.1405 214.435L87.3653 188.175C90.108 187.779 92.0061 185.234 91.6202 182.492C91.2656 179.989 89.1173 178.185 86.6666 178.185C86.4267 178.185 86.1868 178.206 85.947 178.237L81.9215 150.257C84.6643 149.86 86.5623 147.316 86.1764 144.573C85.8218 142.07 83.6735 140.266 81.2228 140.266C80.9829 140.266 80.7431 140.287 80.5032 140.318L75.414 104.944L103.321 100.929M103.321 96.7574C103.123 96.7574 102.925 96.7679 102.727 96.7992L74.8196 100.814C72.5357 101.137 70.961 103.255 71.2843 105.538L76.3734 140.913C76.5299 142.008 77.1139 142.998 78.0003 143.655C78.7303 144.198 79.6063 144.49 80.5032 144.49C80.7014 144.49 80.8995 144.479 81.0977 144.448C81.1394 144.448 81.1811 144.448 81.2228 144.448C81.5774 144.448 81.9841 144.698 82.0571 145.178C82.1197 145.637 81.8068 146.064 81.3375 146.137C79.0536 146.461 77.4789 148.578 77.8022 150.861L81.8277 178.842C81.9841 179.937 82.5681 180.927 83.4545 181.584C84.1845 182.127 85.0605 182.419 85.9574 182.419C86.1556 182.419 86.3537 182.408 86.5519 182.377C86.5936 182.377 86.6353 182.377 86.677 182.377C87.0316 182.377 87.4383 182.627 87.5113 183.107C87.553 183.389 87.4487 183.608 87.3549 183.733C87.261 183.858 87.0837 184.025 86.8021 184.066C85.7071 184.223 84.7164 184.807 84.0594 185.693C83.392 186.58 83.1104 187.696 83.2668 188.791L87.042 215.05C87.3444 217.125 89.1277 218.627 91.1613 218.627C91.3595 218.627 91.5576 218.617 91.7558 218.585L119.663 214.57C120.758 214.414 121.749 213.83 122.406 212.943C123.073 212.057 123.355 210.941 123.198 209.846L119.423 183.587C119.267 182.492 118.683 181.501 117.796 180.844C117.066 180.302 116.19 180.01 115.293 180.01C115.095 180.01 114.897 180.02 114.699 180.051C114.657 180.051 114.615 180.051 114.574 180.051C114.219 180.051 113.812 179.801 113.739 179.321C113.677 178.863 113.99 178.435 114.459 178.362C116.743 178.039 118.318 175.922 117.994 173.638L113.969 145.658C113.812 144.563 113.228 143.572 112.342 142.915C111.612 142.373 110.736 142.081 109.839 142.081C109.641 142.081 109.443 142.091 109.245 142.122C109.203 142.122 109.161 142.122 109.12 142.122C108.765 142.122 108.358 141.872 108.285 141.403C108.223 140.944 108.536 140.516 109.005 140.443C110.1 140.287 111.091 139.703 111.748 138.816C112.415 137.93 112.697 136.814 112.54 135.719L107.451 100.345C107.295 99.2499 106.711 98.2592 105.824 97.6022C105.094 97.0599 104.218 96.7679 103.321 96.7679V96.7574Z" fill="#543714"/>
<path d="M202.206 262.626C201.538 262.626 200.902 262.302 200.516 261.76C200.13 261.218 200.016 260.519 200.224 259.883L210.111 230.078C210.403 229.202 211.216 228.649 212.092 228.649C212.311 228.649 212.53 228.68 212.749 228.753L237.528 236.971L245.224 213.767C245.516 212.891 246.33 212.339 247.206 212.339C247.425 212.339 247.644 212.37 247.863 212.443C248.958 212.808 249.552 213.986 249.187 215.081L237.486 250.382C237.288 250.987 236.819 251.467 236.224 251.686L206.659 262.5C206.429 262.584 206.19 262.626 205.939 262.626H202.216H202.206Z" fill="#FCDBA3"/>
<path d="M247.195 214.424L238.842 239.61L247.195 214.424ZM212.082 230.735L238.842 239.61L235.484 249.726L205.918 260.54H202.195L212.082 230.735ZM247.195 210.253C245.443 210.253 243.816 211.358 243.232 213.11L236.193 234.333L213.396 226.772C212.968 226.626 212.53 226.563 212.082 226.563C211.435 226.563 210.799 226.709 210.215 227.012C209.224 227.512 208.473 228.378 208.129 229.431L198.243 259.236C197.826 260.509 198.034 261.906 198.816 262.991C199.598 264.075 200.86 264.722 202.195 264.722H205.918C206.408 264.722 206.888 264.639 207.347 264.472L236.912 253.657C238.112 253.219 239.04 252.26 239.436 251.05L242.794 240.934L251.148 215.749C251.878 213.559 250.689 211.202 248.499 210.472C248.061 210.326 247.623 210.263 247.185 210.263L247.195 210.253Z" fill="#543714"/>
<path d="M238.842 241.695C238.623 241.695 238.404 241.664 238.185 241.591L211.425 232.716C210.33 232.351 209.736 231.173 210.101 230.078L218.454 204.892C218.746 204.016 219.56 203.464 220.436 203.464C220.655 203.464 220.874 203.495 221.093 203.568C221.395 203.672 221.708 203.714 222.021 203.714C223.283 203.714 224.398 202.911 224.805 201.701C225.316 200.168 224.482 198.51 222.949 197.999C222.427 197.822 221.989 197.446 221.739 196.956C221.489 196.466 221.447 195.892 221.624 195.361L230.52 168.528C230.697 168.006 231.073 167.568 231.563 167.318C231.855 167.172 232.178 167.099 232.502 167.099C232.721 167.099 232.94 167.13 233.159 167.203C233.461 167.307 233.774 167.349 234.076 167.349C235.338 167.349 236.454 166.546 236.861 165.336C237.372 163.803 236.537 162.145 235.004 161.634C234.483 161.457 234.045 161.082 233.795 160.591C233.544 160.101 233.503 159.528 233.68 158.996L244.922 125.082C245.214 124.206 246.028 123.653 246.904 123.653C247.123 123.653 247.342 123.684 247.561 123.757L274.321 132.632C274.842 132.809 275.28 133.185 275.53 133.675C275.781 134.165 275.822 134.739 275.645 135.271L264.403 169.185C264.111 170.061 263.297 170.613 262.421 170.613C262.202 170.613 261.983 170.582 261.764 170.509C261.462 170.405 261.149 170.363 260.836 170.363C259.574 170.363 258.459 171.166 258.052 172.376C257.541 173.909 258.375 175.567 259.908 176.078C261.003 176.443 261.598 177.621 261.233 178.716L252.337 205.549C252.045 206.425 251.231 206.978 250.355 206.978C250.136 206.978 249.917 206.947 249.698 206.874C249.396 206.77 249.083 206.728 248.781 206.728C247.519 206.728 246.403 207.531 245.996 208.741C245.746 209.481 245.809 210.274 246.163 210.972C246.518 211.671 247.112 212.193 247.863 212.443C248.384 212.62 248.822 212.996 249.073 213.486C249.323 213.976 249.365 214.549 249.187 215.081L240.834 240.267C240.542 241.143 239.729 241.695 238.853 241.695H238.842Z" fill="#E30413"/>
<path d="M246.893 125.76L273.653 134.635L262.411 168.559C261.89 168.382 261.358 168.298 260.836 168.298C258.73 168.298 256.769 169.633 256.081 171.74C255.205 174.368 256.633 177.204 259.261 178.08L250.366 204.913C249.844 204.736 249.313 204.653 248.791 204.653C246.685 204.653 244.734 205.988 244.036 208.094C243.16 210.722 244.588 213.559 247.216 214.435L238.863 239.62L212.103 230.745L220.456 205.56C220.978 205.737 221.51 205.821 222.031 205.821C224.138 205.821 226.098 204.486 226.787 202.379C227.663 199.751 226.234 196.915 223.606 196.039L232.501 169.206C233.023 169.383 233.555 169.466 234.076 169.466C236.183 169.466 238.143 168.131 238.832 166.025C239.708 163.397 238.279 160.56 235.651 159.684L246.893 125.76ZM246.893 121.588C246.246 121.588 245.61 121.734 245.026 122.037C244.036 122.537 243.285 123.403 242.941 124.456L231.698 158.381C231.354 159.434 231.438 160.581 231.928 161.561C232.428 162.552 233.294 163.303 234.347 163.647C234.785 163.793 235.025 164.273 234.879 164.711C234.744 165.107 234.379 165.295 234.076 165.295C233.993 165.295 233.899 165.284 233.805 165.253C233.377 165.107 232.939 165.045 232.491 165.045C231.844 165.045 231.208 165.191 230.624 165.493C229.634 165.994 228.883 166.859 228.539 167.912L219.643 194.746C218.913 196.936 220.102 199.292 222.292 200.022C222.563 200.116 222.709 200.304 222.782 200.45C222.855 200.596 222.918 200.815 222.824 201.097C222.688 201.493 222.323 201.681 222.021 201.681C221.937 201.681 221.843 201.67 221.749 201.639C221.322 201.493 220.884 201.43 220.435 201.43C219.789 201.43 219.153 201.576 218.569 201.879C217.578 202.379 216.827 203.245 216.483 204.298L208.13 229.483C207.4 231.673 208.588 234.03 210.779 234.76L237.539 243.635C237.966 243.781 238.404 243.844 238.853 243.844C239.499 243.844 240.135 243.698 240.719 243.395C241.71 242.895 242.461 242.029 242.805 240.976L251.158 215.791C251.503 214.737 251.419 213.59 250.929 212.61C250.428 211.619 249.563 210.868 248.51 210.524C248.072 210.378 247.832 209.898 247.978 209.46C248.113 209.064 248.478 208.876 248.781 208.876C248.864 208.876 248.958 208.887 249.052 208.918C249.479 209.064 249.917 209.127 250.366 209.127C251.012 209.127 251.649 208.981 252.233 208.678C253.223 208.178 253.974 207.312 254.318 206.259L263.214 179.426C263.944 177.236 262.755 174.879 260.565 174.149C260.127 174.003 259.887 173.523 260.033 173.085C260.169 172.689 260.534 172.501 260.836 172.501C260.92 172.501 261.014 172.512 261.107 172.543C261.535 172.689 261.973 172.751 262.421 172.751C263.068 172.751 263.704 172.605 264.288 172.303C265.279 171.802 266.03 170.937 266.374 169.884L277.616 135.959C278.346 133.769 277.157 131.412 274.967 130.682L248.207 121.807C247.779 121.661 247.342 121.599 246.893 121.599V121.588Z" fill="#543714"/>
<path d="M161.012 199.668H132.824C131.672 199.668 130.738 200.602 130.738 201.753V260.54C130.738 261.692 131.672 262.626 132.824 262.626H161.012C162.164 262.626 163.098 261.692 163.098 260.54V201.753C163.098 200.602 162.164 199.668 161.012 199.668Z" fill="#FCDBA3"/>
<path d="M161.013 201.754V260.54H132.824V201.754H161.013ZM161.013 197.582H132.824C130.519 197.582 128.652 199.449 128.652 201.754V260.54C128.652 262.845 130.519 264.711 132.824 264.711H161.013C163.317 264.711 165.184 262.845 165.184 260.54V201.754C165.184 199.449 163.317 197.582 161.013 197.582Z" fill="#543714"/>
<path d="M132.824 203.839C131.676 203.839 130.738 202.901 130.738 201.753V175.223C130.738 174.076 131.676 173.137 132.824 173.137C134.44 173.137 135.754 171.823 135.754 170.207C135.754 168.59 134.44 167.276 132.824 167.276C131.676 167.276 130.738 166.338 130.738 165.19V136.929C130.738 135.782 131.676 134.843 132.824 134.843C134.44 134.843 135.754 133.529 135.754 131.912C135.754 130.296 134.44 128.982 132.824 128.982C131.676 128.982 130.738 128.043 130.738 126.896V91.1571C130.738 90.01 131.676 89.0714 132.824 89.0714H161.012C162.159 89.0714 163.098 90.01 163.098 91.1571V126.896C163.098 128.043 162.159 128.982 161.012 128.982C159.396 128.982 158.082 130.296 158.082 131.912C158.082 133.529 159.396 134.843 161.012 134.843C162.159 134.843 163.098 135.782 163.098 136.929V165.19C163.098 166.338 162.159 167.276 161.012 167.276C159.396 167.276 158.082 168.59 158.082 170.207C158.082 171.823 159.396 173.137 161.012 173.137C162.159 173.137 163.098 174.076 163.098 175.223V201.753C163.098 202.901 162.159 203.839 161.012 203.839H132.824Z" fill="#E30413"/>
<path d="M161.013 91.1572V126.896C158.239 126.896 155.996 129.138 155.996 131.913C155.996 134.687 158.239 136.929 161.013 136.929V165.19C158.239 165.19 155.996 167.433 155.996 170.207C155.996 172.981 158.239 175.223 161.013 175.223V201.753H132.824V175.223C135.598 175.223 137.84 172.981 137.84 170.207C137.84 167.433 135.598 165.19 132.824 165.19V136.929C135.598 136.929 137.84 134.687 137.84 131.913C137.84 129.138 135.598 126.896 132.824 126.896V91.1572H161.013ZM161.013 86.9857H132.824C130.519 86.9857 128.652 88.8525 128.652 91.1572V126.896C128.652 129.201 130.519 131.068 132.824 131.068C133.293 131.068 133.669 131.443 133.669 131.913C133.669 132.382 133.293 132.757 132.824 132.757C130.519 132.757 128.652 134.624 128.652 136.929V165.19C128.652 167.495 130.519 169.362 132.824 169.362C133.293 169.362 133.669 169.737 133.669 170.207C133.669 170.676 133.293 171.051 132.824 171.051C130.519 171.051 128.652 172.918 128.652 175.223V201.753C128.652 204.058 130.519 205.925 132.824 205.925H161.013C163.317 205.925 165.184 204.058 165.184 201.753V175.223C165.184 172.918 163.317 171.051 161.013 171.051C160.543 171.051 160.168 170.676 160.168 170.207C160.168 169.737 160.543 169.362 161.013 169.362C163.317 169.362 165.184 167.495 165.184 165.19V136.929C165.184 134.624 163.317 132.757 161.013 132.757C160.543 132.757 160.168 132.382 160.168 131.913C160.168 131.443 160.543 131.068 161.013 131.068C163.317 131.068 165.184 129.201 165.184 126.896V91.1572C165.184 88.8525 163.317 86.9857 161.013 86.9857Z" fill="#543714"/>
<path d="M257.395 243.802L205.919 262.626H146.923H87.9179L36.1187 243.677" stroke="#543717" stroke-width="4" stroke-linecap="round" stroke-linejoin="round"/>
<path d="M86.2108 261.792C85.9709 261.792 85.7206 261.75 85.4912 261.666L55.9259 250.852C55.3314 250.633 54.8621 250.153 54.664 249.548L42.963 214.247C42.598 213.152 43.1924 211.974 44.2875 211.609C44.5065 211.536 44.7255 211.504 44.9445 211.504C45.8205 211.504 46.6339 212.057 46.9259 212.933L54.6223 236.137L79.4008 227.919C79.6198 227.846 79.8389 227.815 80.0579 227.815C80.3811 227.815 80.7044 227.888 80.9964 228.034C81.4866 228.284 81.862 228.712 82.0393 229.244L91.9257 259.049C92.1343 259.685 92.03 260.384 91.6337 260.926C91.2374 261.468 90.6117 261.792 89.9442 261.792H86.2212H86.2108Z" fill="#FBDDA0"/>
<path d="M44.9338 213.59L53.2871 238.775L44.9338 213.59M80.0471 229.9L89.9335 259.706H86.2105L56.6452 248.891L53.2871 238.775L80.0471 229.9M44.9338 209.419C44.4957 209.419 44.0577 209.492 43.6197 209.627C41.4297 210.357 40.2513 212.714 40.9708 214.904L49.3242 240.089C49.3242 240.089 49.3242 240.1 49.3242 240.11L52.6718 250.205C53.0681 251.415 54.0067 252.374 55.1956 252.812L84.7609 263.627C85.2198 263.794 85.7099 263.877 86.1896 263.877H89.9127C91.2476 263.877 92.5094 263.231 93.2916 262.146C94.0737 261.061 94.2927 259.664 93.8652 258.392L83.9788 228.586C83.6346 227.533 82.8837 226.668 81.893 226.167C81.309 225.875 80.6624 225.719 80.0263 225.719C79.5883 225.719 79.1399 225.792 78.7123 225.927L55.9152 233.488L48.8758 212.266C48.2918 210.514 46.6649 209.408 44.9129 209.408L44.9338 209.419Z" fill="#53320A"/>
<path d="M53.2867 240.861C52.4107 240.861 51.5972 240.308 51.3052 239.432L42.9518 214.247C42.7746 213.726 42.8163 213.152 43.0666 212.651C43.3168 212.161 43.7444 211.786 44.2763 211.609C45.0167 211.358 45.6216 210.837 45.9762 210.138C46.3307 209.439 46.3829 208.647 46.143 207.896C45.7467 206.697 44.6309 205.883 43.3586 205.883C43.0457 205.883 42.7328 205.935 42.4304 206.029C42.2114 206.102 41.9924 206.133 41.7734 206.133C40.8974 206.133 40.084 205.581 39.792 204.705L30.8963 177.872C30.5313 176.777 31.1257 175.598 32.2207 175.233C33.7537 174.722 34.588 173.064 34.077 171.531C33.6807 170.332 32.5649 169.518 31.2926 169.518C30.9797 169.518 30.6668 169.57 30.3644 169.664C30.1454 169.737 29.9264 169.769 29.7074 169.769C28.8314 169.769 28.018 169.216 27.726 168.34L16.4943 134.447C16.1293 133.352 16.7237 132.173 17.8187 131.808L44.5787 122.933C44.7977 122.86 45.0167 122.829 45.2357 122.829C45.559 122.829 45.8823 122.902 46.1743 123.048C46.6645 123.298 47.0399 123.726 47.2172 124.258L58.4593 158.182C58.6366 158.704 58.5949 159.277 58.3446 159.778C58.0943 160.268 57.6667 160.644 57.1349 160.821C56.3944 161.071 55.7896 161.593 55.435 162.291C55.0804 162.99 55.0283 163.783 55.2681 164.533C55.6644 165.733 56.7803 166.546 58.0526 166.546C58.3654 166.546 58.6783 166.494 58.9703 166.4C59.1893 166.327 59.4083 166.296 59.6273 166.296C59.9506 166.296 60.2739 166.369 60.5659 166.515C61.056 166.765 61.4315 167.193 61.6088 167.725L70.5044 194.558C70.6817 195.079 70.64 195.653 70.3897 196.153C70.1394 196.643 69.7119 197.019 69.18 197.196C67.647 197.707 66.8127 199.365 67.3237 200.898C67.72 202.098 68.8358 202.911 70.1081 202.911C70.421 202.911 70.7339 202.859 71.0363 202.765C71.2553 202.692 71.4743 202.661 71.6933 202.661C72.5693 202.661 73.3828 203.213 73.6748 204.089L82.0281 229.275C82.3931 230.37 81.7987 231.548 80.7037 231.913L53.9437 240.788C53.7247 240.861 53.5057 240.892 53.2867 240.892V240.861Z" fill="#E60012"/>
<path d="M45.236 124.925L56.4781 158.85C53.8501 159.726 52.4214 162.562 53.2974 165.19C53.9961 167.297 55.9567 168.632 58.0529 168.632C58.5743 168.632 59.1062 168.549 59.6276 168.371L68.5233 195.204C65.8952 196.08 64.4665 198.917 65.3425 201.545C66.0412 203.651 68.0018 204.986 70.098 204.986C70.6194 204.986 71.1513 204.903 71.6727 204.726L80.0261 229.911L53.2661 238.786L44.9127 213.6C47.5407 212.724 48.9695 209.888 48.0935 207.26C47.3947 205.153 45.4341 203.818 43.338 203.818C42.8165 203.818 42.2847 203.902 41.7633 204.079L32.8676 177.246C35.4956 176.37 36.9243 173.533 36.0483 170.905C35.3496 168.799 33.389 167.464 31.2928 167.464C30.7714 167.464 30.2395 167.547 29.7181 167.725L18.476 133.8L45.236 124.925ZM45.236 120.754C44.798 120.754 44.3496 120.827 43.922 120.962L17.162 129.837C14.9719 130.567 13.7935 132.924 14.5131 135.114L25.7552 169.039C26.0994 170.092 26.8502 170.958 27.841 171.458C28.425 171.75 29.0715 171.907 29.7077 171.907C30.1457 171.907 30.5941 171.834 31.0217 171.698C31.1051 171.667 31.199 171.656 31.2928 171.656C31.5953 171.656 31.9603 171.834 32.0959 172.24C32.2419 172.678 32.002 173.158 31.564 173.304C29.374 174.034 28.1955 176.391 28.9151 178.581L37.8108 205.414C38.1549 206.467 38.9058 207.333 39.8965 207.833C40.4805 208.125 41.1271 208.282 41.7633 208.282C42.2013 208.282 42.6497 208.209 43.0773 208.073C43.1607 208.042 43.2546 208.032 43.3484 208.032C43.6508 208.032 44.0158 208.209 44.1514 208.616C44.2974 209.054 44.0576 209.533 43.6196 209.679C42.5663 210.023 41.7007 210.774 41.2001 211.765C40.6995 212.756 40.6161 213.903 40.9707 214.946L49.3241 240.131C49.6682 241.184 50.4191 242.05 51.4098 242.55C51.9938 242.842 52.6404 242.999 53.2765 242.999C53.7145 242.999 54.163 242.926 54.5905 242.79L81.3505 233.916C83.5406 233.186 84.719 230.829 83.9994 228.639L75.6461 203.453C75.3019 202.4 74.551 201.534 73.5603 201.034C72.9763 200.742 72.3297 200.585 71.6936 200.585C71.2556 200.585 70.8071 200.658 70.3796 200.794C70.2961 200.825 70.2023 200.836 70.1084 200.836C69.806 200.836 69.441 200.658 69.3054 200.252C69.2116 199.981 69.2846 199.751 69.3471 199.605C69.4201 199.459 69.5661 199.271 69.8373 199.178C72.0273 198.448 73.2057 196.091 72.4862 193.901L63.5905 167.068C63.2463 166.014 62.4955 165.149 61.5048 164.648C60.9208 164.356 60.2742 164.2 59.638 164.2C59.2 164.2 58.7516 164.273 58.324 164.408C58.2406 164.44 58.1467 164.45 58.0529 164.45C57.7504 164.45 57.3854 164.273 57.2499 163.866C57.1039 163.428 57.3437 162.948 57.7817 162.802C58.835 162.458 59.7006 161.707 60.2012 160.717C60.7017 159.726 60.7852 158.579 60.4306 157.536L49.1885 123.611C48.8443 122.558 48.0935 121.692 47.1027 121.192C46.5187 120.9 45.8722 120.743 45.236 120.743V120.754Z" fill="#53320A"/>
<path d="M10 249L37 243.5L87.5 262.5H205.5L257 243.5L285 249L212.5 276H81.5L10 249Z" fill="#BE1521" stroke="#573605" stroke-width="3" stroke-linejoin="round"/>
</svg>
