<svg width="293" height="527" viewBox="0 0 293 527" fill="none" xmlns="http://www.w3.org/2000/svg">
<path d="M110.173 512.904C109.86 512.904 109.547 512.831 109.266 512.695L51.8139 484.778C51.2195 484.486 50.7919 483.922 50.6772 483.276L9.11886 253.125C8.98329 252.395 9.25444 251.644 9.82802 251.165C10.2139 250.841 10.6936 250.674 11.1733 250.674C11.4132 250.674 11.653 250.716 11.8825 250.8L81.786 276.089H212.061L281.965 250.8C282.194 250.716 282.434 250.674 282.674 250.674C283.153 250.674 283.633 250.841 284.019 251.165C284.593 251.644 284.864 252.395 284.728 253.125L243.18 483.276C243.066 483.933 242.638 484.486 242.044 484.778L184.592 512.695C184.31 512.831 183.998 512.904 183.685 512.904H110.173V512.904Z" fill="#BE1521"/>
<path d="M282.663 252.76L241.115 482.911L183.664 510.828H110.173L52.7212 482.911L11.1733 252.76L81.421 278.175H212.426L282.674 252.76M282.674 248.589C282.194 248.589 281.714 248.672 281.256 248.839L211.696 274.003H82.151L12.5916 248.839C12.1328 248.672 11.653 248.589 11.1733 248.589C10.2034 248.589 9.244 248.922 8.48271 249.569C7.34598 250.528 6.80369 252.03 7.06441 253.501L48.6123 483.651C48.8522 484.965 49.6969 486.081 50.8962 486.665L108.348 514.583C108.911 514.854 109.537 515 110.173 515H183.664C184.3 515 184.915 514.854 185.489 514.583L242.94 486.665C244.14 486.081 244.984 484.965 245.224 483.651L286.772 253.501C287.033 252.03 286.501 250.539 285.354 249.569C284.593 248.922 283.633 248.589 282.663 248.589H282.674Z" fill="#533716"/>
<path d="M81.4208 311.547C81.1809 311.547 80.9411 311.505 80.7116 311.422L16.5126 288.197C15.8139 287.947 15.3029 287.342 15.1673 286.601L9.12912 253.125C8.99355 252.395 9.26469 251.644 9.83827 251.165C10.2241 250.841 10.7039 250.674 11.1836 250.674C11.4234 250.674 11.6633 250.716 11.8927 250.8L81.7962 276.089H212.071L281.975 250.8C282.204 250.716 282.444 250.674 282.684 250.674C283.164 250.674 283.644 250.841 284.029 251.165C284.603 251.644 284.874 252.395 284.739 253.125L278.7 286.601C278.565 287.331 278.054 287.936 277.355 288.197L213.156 311.422C212.927 311.505 212.687 311.547 212.447 311.547H81.4208Z" fill="#F9BE52"/>
<path d="M282.663 252.76C282.663 252.76 278.127 277.914 276.625 286.236C266.53 289.886 212.426 309.461 212.426 309.461H81.421L17.2219 286.236C15.7202 277.914 11.1837 252.76 11.1837 252.76L81.4314 278.175H212.437L282.684 252.76M282.684 248.589C282.622 248.589 282.559 248.589 282.496 248.589C282.038 248.609 281.589 248.703 281.182 248.87L211.717 274.003H82.151L12.5916 248.839C12.1328 248.672 11.653 248.589 11.1733 248.589C10.2034 248.589 9.244 248.922 8.48271 249.569C7.34598 250.528 6.80369 252.03 7.06441 253.501L13.1026 286.977C13.3633 288.437 14.3853 289.657 15.7932 290.157L79.9922 313.382C80.4511 313.549 80.9308 313.632 81.4105 313.632H212.416C212.895 313.632 213.375 313.549 213.834 313.382L278.033 290.157C279.43 289.646 280.452 288.437 280.724 286.977L286.741 253.667C286.804 253.375 286.835 253.073 286.835 252.76C286.835 250.466 284.989 248.609 282.705 248.589C282.695 248.589 282.674 248.589 282.663 248.589H282.684Z" fill="#533716"/>
<path d="M212.416 278.175L183.664 510.829H110.173L81.4207 278.175H212.426M212.426 274.003H81.4207C80.2214 274.003 79.0847 274.514 78.2921 275.411C77.4996 276.308 77.1346 277.497 77.2806 278.686L106.032 511.34C106.293 513.425 108.066 515 110.173 515H183.664C185.77 515 187.543 513.425 187.804 511.34L216.545 278.853C216.577 278.634 216.597 278.415 216.597 278.185C216.597 275.881 214.731 274.014 212.426 274.014V274.003Z" fill="#533716"/>
<path d="M146.246 415.917C170.735 415.917 190.588 396.064 190.588 371.574C190.588 347.084 170.735 327.231 146.246 327.231C121.756 327.231 101.903 347.084 101.903 371.574C101.903 396.064 121.756 415.917 146.246 415.917Z" fill="#FFFBE8"/>
<g clip-path="url(#clip0_151_12127)">
<path opacity="0.35" d="M155.794 380.288V393.544C155.794 393.752 155.839 393.958 155.925 394.148C156.011 394.338 156.137 394.508 156.294 394.647C156.45 394.785 156.635 394.889 156.835 394.952C157.036 395.014 157.247 395.034 157.455 395.01C161.106 394.607 164.479 392.882 166.928 390.166C169.377 387.45 170.732 383.934 170.732 380.29C170.732 376.645 169.377 373.129 166.928 370.413C164.479 367.697 161.106 365.973 157.455 365.569C157.247 365.545 157.036 365.565 156.835 365.628C156.635 365.69 156.45 365.794 156.294 365.933C156.137 366.071 156.011 366.241 155.925 366.431C155.839 366.621 155.794 366.827 155.794 367.035V380.288Z" fill="#F9BE53"/>
<path d="M123.135 368.633H116.919C116.02 368.633 115.378 368.433 114.992 368.032C114.606 367.631 114.415 366.995 114.418 366.124V350.944C114.418 350.052 114.614 349.405 115.008 349.004C115.399 348.616 116.036 348.419 116.919 348.419H123.526C124.372 348.409 125.216 348.468 126.052 348.597C126.73 348.704 127.382 348.938 127.971 349.287C128.456 349.573 128.887 349.939 129.246 350.37C129.612 350.798 129.9 351.288 130.094 351.816C130.291 352.352 130.39 352.918 130.387 353.488C130.387 355.51 129.368 356.989 127.33 357.925C130.007 358.781 131.345 360.43 131.345 362.874C131.359 363.954 131.054 365.015 130.469 365.926C129.908 366.813 129.091 367.511 128.124 367.931C127.438 368.204 126.719 368.387 125.985 368.474C125.04 368.588 124.088 368.642 123.135 368.633V368.633ZM118.542 351.49V356.715H122.318C123.124 356.744 123.929 356.646 124.703 356.424C125.257 356.233 125.716 355.839 125.985 355.322C126.218 354.93 126.338 354.482 126.333 354.027C126.333 353.008 125.967 352.331 125.235 351.995C124.502 351.658 123.387 351.49 121.888 351.49H118.542ZM122.842 359.635H118.542V365.534H122.971C125.757 365.534 127.152 364.537 127.154 362.544C127.154 361.524 126.791 360.783 126.071 360.326C125.352 359.868 124.269 359.662 122.834 359.662L122.842 359.635Z" fill="#F9BE53"/>
<path d="M141.978 348.089C143.872 348.037 145.746 348.477 147.416 349.365C148.91 350.193 150.11 351.458 150.853 352.987C151.667 354.713 152.069 356.601 152.025 358.506C152.044 359.953 151.828 361.394 151.384 362.773C150.987 364.001 150.335 365.134 149.469 366.096C148.605 367.04 147.535 367.775 146.341 368.245C143.584 369.251 140.556 369.251 137.799 368.245C136.597 367.773 135.52 367.036 134.648 366.089C133.781 365.118 133.131 363.976 132.74 362.738C132.298 361.372 132.079 359.945 132.091 358.51C132.077 357.061 132.305 355.619 132.768 354.244C133.178 353.018 133.844 351.892 134.722 350.939C135.592 350.018 136.661 349.304 137.85 348.853C139.165 348.34 140.566 348.081 141.978 348.089ZM147.842 358.479C147.875 357.162 147.63 355.853 147.123 354.636C146.704 353.625 145.984 352.765 145.059 352.173C144.134 351.61 143.067 351.322 141.982 351.343C141.197 351.334 140.418 351.491 139.699 351.804C139.001 352.109 138.384 352.568 137.893 353.146C137.354 353.812 136.955 354.578 136.72 355.4C136.415 356.398 136.267 357.436 136.282 358.479C136.27 359.529 136.417 360.576 136.72 361.582C136.963 362.435 137.384 363.228 137.956 363.909C138.456 364.496 139.082 364.963 139.789 365.278C140.449 365.578 141.163 365.745 141.888 365.768C142.614 365.792 143.337 365.672 144.016 365.416C144.694 365.16 145.315 364.772 145.841 364.276C146.367 363.779 146.788 363.184 147.08 362.524C147.631 361.245 147.89 359.861 147.838 358.471L147.842 358.479Z" fill="#F9BE53"/>
<path d="M153.593 387.37V371.468C153.542 370.799 153.744 370.135 154.16 369.606C154.346 369.404 154.574 369.244 154.829 369.137C155.083 369.031 155.358 368.981 155.634 368.99C155.915 368.979 156.194 369.028 156.454 369.133C156.714 369.239 156.947 369.399 157.139 369.602C157.565 370.128 157.772 370.796 157.718 371.468V387.37C157.772 388.044 157.565 388.714 157.139 389.243C156.948 389.448 156.715 389.609 156.455 389.716C156.195 389.823 155.915 389.874 155.634 389.863C155.359 389.871 155.085 389.818 154.832 389.711C154.579 389.603 154.352 389.442 154.168 389.239C153.749 388.708 153.544 388.042 153.593 387.37Z" fill="#F9BE53"/>
<path d="M170.079 368.978C171.974 368.924 173.85 369.363 175.521 370.25C177.014 371.08 178.213 372.344 178.957 373.873C179.772 375.598 180.173 377.487 180.13 379.392C180.15 380.838 179.934 382.279 179.493 383.658C179.096 384.886 178.443 386.017 177.577 386.978C176.715 387.923 175.645 388.658 174.45 389.127C171.69 390.126 168.662 390.119 165.908 389.107C164.706 388.635 163.628 387.898 162.757 386.951C161.888 385.981 161.237 384.841 160.845 383.604C160.405 382.236 160.187 380.808 160.2 379.372C160.184 377.923 160.411 376.481 160.872 375.106C161.282 373.879 161.948 372.752 162.827 371.798C163.698 370.878 164.767 370.165 165.955 369.711C167.271 369.212 168.67 368.964 170.079 368.978ZM175.943 379.364C175.974 378.047 175.728 376.738 175.22 375.521C174.801 374.512 174.083 373.654 173.16 373.062C172.235 372.498 171.168 372.209 170.083 372.228C169.298 372.221 168.52 372.378 167.8 372.69C167.103 372.995 166.485 373.454 165.994 374.032C165.449 374.697 165.042 375.463 164.797 376.285C164.495 377.284 164.347 378.322 164.36 379.364C164.348 380.415 164.496 381.46 164.797 382.467C165.045 383.312 165.466 384.098 166.033 384.775C166.535 385.361 167.161 385.83 167.866 386.148C168.696 386.496 169.597 386.648 170.496 386.59C171.395 386.532 172.269 386.266 173.046 385.814C173.981 385.237 174.718 384.392 175.157 383.39C175.714 382.122 175.981 380.747 175.939 379.364H175.943Z" fill="#F9BE53"/>
<path d="M134.324 384.507V382.859ZM134.324 382.859V371.829C134.324 370.937 134.521 370.29 134.915 369.89C135.305 369.502 135.943 369.304 136.822 369.304H143.421C144.267 369.295 145.112 369.356 145.947 369.486C146.625 369.592 147.276 369.825 147.866 370.173C148.349 370.461 148.779 370.827 149.141 371.255C149.885 372.127 150.29 373.234 150.282 374.377C150.282 376.396 149.263 377.875 147.225 378.814C149.902 379.659 151.24 381.303 151.24 383.743C151.254 384.824 150.95 385.885 150.364 386.796C149.804 387.684 148.987 388.383 148.019 388.801C147.333 389.074 146.614 389.257 145.88 389.344C144.945 389.459 144.004 389.512 143.062 389.503H136.818C135.922 389.503 135.281 389.304 134.895 388.906C134.509 388.507 134.318 387.871 134.32 386.997V384.492M138.445 372.38V377.6H142.221C143.027 377.629 143.832 377.531 144.606 377.309C145.161 377.121 145.621 376.726 145.888 376.208C146.121 375.815 146.242 375.367 146.236 374.912C146.236 373.892 145.869 373.217 145.138 372.88C144.406 372.542 143.292 372.38 141.791 372.38H138.445ZM142.745 380.524H138.445V386.419H142.878C145.664 386.419 147.058 385.423 147.061 383.429C147.095 382.997 147.012 382.564 146.821 382.174C146.63 381.784 146.338 381.451 145.974 381.211C145.255 380.771 144.177 380.551 142.741 380.551L142.745 380.524Z" fill="#F9BE53"/>
<path d="M153.812 383.844H153.585C149.826 383.414 146.358 381.627 143.84 378.825C141.322 376.022 139.931 372.399 139.931 368.644C139.931 364.89 141.322 361.267 143.84 358.464C146.358 355.662 149.826 353.875 153.585 353.445C153.862 353.413 154.142 353.44 154.407 353.523C154.673 353.605 154.917 353.743 155.126 353.926C155.334 354.109 155.501 354.333 155.616 354.584C155.732 354.836 155.792 355.108 155.794 355.384V381.893C155.787 382.41 155.575 382.903 155.204 383.266C154.833 383.629 154.333 383.832 153.812 383.832V383.844ZM153.812 354.387C153.773 354.383 153.734 354.383 153.695 354.387C150.166 354.78 146.906 356.449 144.539 359.075C142.171 361.702 140.863 365.102 140.863 368.625C140.863 372.148 142.171 375.548 144.539 378.175C146.906 380.801 150.166 382.47 153.695 382.863C153.835 382.878 153.978 382.864 154.112 382.821C154.247 382.778 154.371 382.708 154.477 382.615C154.582 382.523 154.666 382.409 154.724 382.282C154.781 382.155 154.81 382.017 154.809 381.878V355.369C154.81 355.23 154.78 355.093 154.723 354.966C154.666 354.84 154.582 354.727 154.477 354.635C154.293 354.475 154.057 354.386 153.812 354.387V354.387Z" fill="#F9BE53"/>
</g>
<path d="M10 249L37 243.5L87.5 262.5H205.5L257 243.5L285 249L212.5 276H81.5L10 249Z" fill="#BE1521" stroke="#573605" stroke-width="3" stroke-linejoin="round"/>
<defs>
<clipPath id="clip0_151_12127">
<rect width="65.7007" height="46.9291" fill="white" transform="translate(114.417 348.089)"/>
</clipPath>
</defs>
</svg>
