<svg width="293" height="429" fill="none" xmlns="http://www.w3.org/2000/svg"><path d="M83.362 190.33c-.23 0-.46-.04-.68-.12l-67.36-24.37a2.01 2.01 0 0 1-1.25-1.35c-.17-.62-.03-1.29.38-1.8l24.21-29.81c.27-.33.64-.57 1.06-.68l62.6-15.89c.16-.04.33-.06.49-.06h86.71c.17 0 .33.02.49.06l62.6 15.89c.42.11.79.34 1.06.68l24.21 29.81c.41.5.55 1.17.38 1.8a2.01 2.01 0 0 1-1.25 1.35l-67.36 24.37c-.22.08-.45.12-.68.12H83.362Z" fill="#C30D23"/><path d="m189.522 118.26 62.59 15.89 24.21 29.81-67.36 24.37h-125.6l-67.36-24.37 24.21-29.81 62.59-15.89h86.71m0-4h-86.7c-.33 0-.66.04-.98.12l-62.59 15.89c-.83.21-1.58.69-2.12 1.36l-24.22 29.81a3.978 3.978 0 0 0-.75 3.59 4.013 4.013 0 0 0 2.49 2.69l67.36 24.37c.44.16.9.24 1.36.24h125.62c.46 0 .92-.08 1.36-.24l67.36-24.37a3.969 3.969 0 0 0 2.49-2.69c.35-1.25.07-2.59-.75-3.59l-24.21-29.81a4.05 4.05 0 0 0-2.12-1.36l-62.59-15.89c-.32-.08-.65-.12-.98-.12h-.03Z" fill="#52320C"/><path d="M110.932 417.42c-.3 0-.6-.07-.87-.2l-55.09-26.76c-.57-.28-.98-.82-1.09-1.44l-39.85-220.71c-.13-.7.13-1.42.68-1.88a2.011 2.011 0 0 1 1.97-.35l67.03 24.25h124.92l67.03-24.25a2.011 2.011 0 0 1 1.97.35c.55.46.81 1.18.68 1.88L238.472 389a1.99 1.99 0 0 1-1.09 1.44l-55.09 26.76c-.27.13-.57.2-.87.2h-70.49v.02Z" fill="#C30D23"/><path d="m276.332 167.96-39.84 220.69-55.09 26.77h-70.47l-55.09-26.77-39.84-220.69 67.36 24.37h125.62l67.36-24.37m0-4c-.46 0-.92.08-1.36.24l-66.7 24.13H84.062l-66.7-24.13c-.44-.16-.9-.24-1.36-.24-.93 0-1.85.32-2.58.94a4.02 4.02 0 0 0-1.36 3.77l39.84 220.69a4.008 4.008 0 0 0 2.19 2.89l55.09 26.77c.54.26 1.14.4 1.75.4h70.47c.61 0 1.2-.14 1.75-.4l55.09-26.77a4.008 4.008 0 0 0 2.19-2.89l39.84-220.69c.25-1.41-.26-2.84-1.36-3.77-.73-.62-1.65-.94-2.58-.94h.01Z" fill="#52320C"/><path d="m236.432 139.04 14.67 18.69-48.36 17.69H89.592l-48.36-17.69 14.68-18.69 51.9-13.39H184.522l51.91 13.39Z" fill="#53320A" stroke="#543305" stroke-width="4" stroke-linecap="round" stroke-linejoin="round"/><path d="M83.362 224.33c-.23 0-.46-.04-.68-.12l-61.56-22.27a2 2 0 0 1-1.29-1.53l-5.79-32.1c-.13-.7.13-1.42.68-1.88a2.011 2.011 0 0 1 1.97-.35l67.03 24.25h124.92l67.03-24.25a2.011 2.011 0 0 1 1.97.35c.55.46.81 1.18.68 1.88l-5.79 32.1c-.13.7-.62 1.28-1.29 1.53l-61.56 22.27c-.22.08-.45.12-.68.12H83.362Z" fill="#F8C24D"/><path d="m276.332 167.96-5.79 32.1c-9.68 3.5-61.56 22.27-61.56 22.27H83.362l-61.56-22.27-5.79-32.1 67.36 24.37h125.62l67.36-24.37m0-4h-.18c-.44.02-.87.11-1.26.27l-66.61 24.1H84.062l-66.7-24.13c-.44-.16-.9-.24-1.36-.24-.93 0-1.85.32-2.58.94a4.02 4.02 0 0 0-1.36 3.77l5.79 32.1c.25 1.4 1.23 2.57 2.58 3.05l61.56 22.27c.44.16.9.24 1.36.24h125.62c.46 0 .92-.08 1.36-.24l61.56-22.27a4.032 4.032 0 0 0 2.58-3.05l5.77-31.94c.06-.28.09-.57.09-.87 0-2.2-1.77-3.98-3.96-4h-.04.02Z" fill="#52320C"/><path d="m208.972 192.33-27.57 223.09h-70.47l-27.57-223.09h125.62m0-4H83.362a3.997 3.997 0 0 0-3.97 4.49l27.57 223.09c.25 2 1.95 3.51 3.97 3.51h70.47c2.02 0 3.72-1.51 3.97-3.51l27.56-222.93a3.999 3.999 0 0 0-3.95-4.64v-.01Z" fill="#52320C"/><path d="M83.682 148.84c-.84 0-1.62-.53-1.9-1.37l-8.01-24.15a2 2 0 0 1 1.9-2.63c.84 0 1.62.53 1.9 1.37l8.01 24.15a2 2 0 0 1-1.9 2.63Z" fill="#E60012"/><path d="m75.672 122.69 8.01 24.15-8.01-24.15Zm0-4c-.42 0-.84.07-1.26.2-2.1.7-3.23 2.96-2.54 5.06l8.01 24.15a4.004 4.004 0 0 0 3.8 2.74c.42 0 .84-.07 1.26-.2 2.1-.7 3.23-2.96 2.54-5.06l-8.01-24.15a4.004 4.004 0 0 0-3.8-2.74Z" fill="#53320A"/><path d="M89.592 177.42c-.23 0-.47-.04-.69-.12l-28.35-10.37c-.57-.21-1.02-.67-1.21-1.25l-11.22-33.85a2 2 0 0 1 1.9-2.63c.84 0 1.62.53 1.9 1.37l7.38 22.25 23.76-7.88a2.016 2.016 0 0 1 1.53.11c.47.24.83.65 1 1.16l9.48 28.58c.2.61.1 1.28-.28 1.8s-.98.83-1.62.83H89.592Z" fill="#FBDDA0"/><path d="m50.012 131.2 8.01 24.15-8.01-24.15Zm33.67 15.64 9.48 28.58h-3.57l-28.35-10.37-3.22-9.7 25.66-8.51Zm-33.67-19.64c-.42 0-.84.07-1.26.2-2.1.7-3.23 2.96-2.54 5.06l8.01 24.15v.02l3.21 9.68a4.003 4.003 0 0 0 2.42 2.5l28.35 10.37c.44.16.91.24 1.37.24h3.57c1.28 0 2.49-.62 3.24-1.66s.96-2.38.55-3.6l-9.48-28.58a3.987 3.987 0 0 0-2-2.32c-.56-.28-1.18-.43-1.79-.43-.42 0-.85.07-1.26.2l-21.86 7.25-6.75-20.35a4.004 4.004 0 0 0-3.8-2.74l.02.01Z" fill="#53320A"/><path d="M58.022 157.35c-.84 0-1.62-.53-1.9-1.37l-8.01-24.15c-.17-.5-.13-1.05.11-1.53.24-.47.65-.83 1.16-1 .71-.24 1.29-.74 1.63-1.41.34-.67.39-1.43.16-2.15a2.808 2.808 0 0 0-2.67-1.93c-.3 0-.6.05-.89.14a2.002 2.002 0 0 1-2.53-1.27l-8.53-25.73a2 2 0 0 1 1.27-2.53 2.81 2.81 0 0 0 1.78-3.55 2.808 2.808 0 0 0-2.67-1.93c-.3 0-.6.05-.89.14a2.002 2.002 0 0 1-2.53-1.27l-10.77-32.5a2 2 0 0 1 1.27-2.53l25.66-8.51a2.016 2.016 0 0 1 1.53.11c.47.24.83.65 1 1.16l10.78 32.53c.17.5.13 1.05-.11 1.53-.24.47-.65.83-1.16 1-.71.24-1.29.74-1.63 1.41-.34.67-.39 1.43-.16 2.15a2.808 2.808 0 0 0 3.55 1.79 2.016 2.016 0 0 1 1.53.11c.47.24.83.65 1 1.16l8.53 25.73c.17.5.13 1.05-.11 1.53-.24.47-.65.83-1.16 1a2.81 2.81 0 0 0-1.78 3.55 2.808 2.808 0 0 0 2.67 1.93c.3 0 .6-.05.89-.14a2.002 2.002 0 0 1 2.53 1.27l8.01 24.15a2 2 0 0 1-1.27 2.53l-25.66 8.51c-.21.07-.42.1-.63.1v-.03Z" fill="#E60012"/><path d="m50.302 46.18 10.78 32.53a4.81 4.81 0 0 0-3.05 6.08c.67 2.02 2.55 3.3 4.56 3.3.5 0 1.01-.08 1.51-.25l8.53 25.73a4.81 4.81 0 0 0-3.05 6.08c.67 2.02 2.55 3.3 4.56 3.3.5 0 1.01-.08 1.51-.25l8.01 24.15-25.66 8.51-8.01-24.15a4.81 4.81 0 0 0 3.05-6.08 4.814 4.814 0 0 0-4.56-3.3c-.5 0-1.01.08-1.51.25l-8.53-25.73a4.81 4.81 0 0 0 3.05-6.08 4.814 4.814 0 0 0-4.56-3.3c-.5 0-1.01.08-1.51.25l-10.78-32.53 25.66-8.51Zm0-4c-.42 0-.85.07-1.26.2l-25.66 8.51c-2.1.7-3.23 2.96-2.54 5.06l10.78 32.53a3.987 3.987 0 0 0 2 2.32c.56.28 1.18.43 1.79.43.42 0 .85-.07 1.26-.2.08-.03.17-.04.26-.04a.81.81 0 0 1 .26 1.58c-2.1.7-3.23 2.96-2.54 5.06l8.53 25.73a3.987 3.987 0 0 0 2 2.32c.56.28 1.18.43 1.79.43.42 0 .85-.07 1.26-.2.08-.03.17-.04.26-.04a.81.81 0 0 1 .26 1.58 3.987 3.987 0 0 0-2.32 2c-.48.95-.56 2.05-.22 3.05l8.01 24.15a3.987 3.987 0 0 0 2 2.32c.56.28 1.18.43 1.79.43.42 0 .85-.07 1.26-.2l25.66-8.51c2.1-.7 3.23-2.96 2.54-5.06l-8.01-24.15a3.987 3.987 0 0 0-2-2.32c-.56-.28-1.18-.43-1.79-.43-.42 0-.85.07-1.26.2-.08.03-.17.04-.26.04a.81.81 0 0 1-.77-.56.833.833 0 0 1 .04-.62c.07-.14.21-.32.47-.41 2.1-.7 3.23-2.96 2.54-5.06l-8.53-25.73a3.987 3.987 0 0 0-2-2.32c-.56-.28-1.18-.43-1.79-.43-.42 0-.85.07-1.26.2-.08.03-.17.04-.26.04a.81.81 0 0 1-.26-1.58 3.987 3.987 0 0 0 2.32-2c.48-.95.56-2.05.22-3.05l-10.78-32.53a3.987 3.987 0 0 0-2-2.32c-.56-.28-1.18-.43-1.79-.43v.01Z" fill="#53320A"/><path d="M92.702 133.19c-.98 0-1.83-.72-1.98-1.72l-3.62-25.18a1.99 1.99 0 0 1 1.69-2.26c.1-.01.19-.02.29-.02.98 0 1.83.72 1.98 1.72l3.62 25.18a1.99 1.99 0 0 1-1.69 2.26c-.1.01-.19.02-.29.02Z" fill="#E60012"/><path d="m89.082 106.01 3.62 25.18-3.62-25.18Zm0-4c-.19 0-.38.01-.57.04-2.19.31-3.7 2.34-3.39 4.53l3.62 25.18a4.007 4.007 0 0 0 4.52 3.39c2.19-.31 3.7-2.34 3.39-4.53l-3.62-25.18c-.29-1.99-2-3.43-3.95-3.43Z" fill="#53320A"/><path d="M119.462 129.34c-.98 0-1.83-.72-1.98-1.72l-3.62-25.18a1.99 1.99 0 0 1 1.69-2.26c.1-.01.19-.02.29-.02.98 0 1.83.72 1.98 1.72l3.62 25.18a1.99 1.99 0 0 1-1.69 2.26c-.1.01-.19.02-.29.02Z" fill="#E60012"/><path d="m115.842 102.16 3.62 25.18-3.62-25.18Zm0-4c-.19 0-.38.01-.57.04-2.19.31-3.7 2.34-3.39 4.53l3.62 25.18a4.007 4.007 0 0 0 4.52 3.39c2.19-.31 3.7-2.34 3.39-4.53l-3.62-25.18c-.29-1.99-2-3.43-3.95-3.43Z" fill="#53320A"/><path d="M99.062 177.42c-.99 0-1.84-.73-1.98-1.72l-6.36-44.23c-.08-.52.06-1.06.38-1.48.32-.42.79-.71 1.32-.78l26.76-3.85c.1-.01.19-.02.29-.02.98 0 1.83.72 1.98 1.72l6.92 48.08c.08.57-.09 1.16-.47 1.59-.38.43-.93.69-1.51.69h-27.33Z" fill="#FBDDA0"/><path d="m119.462 127.34 6.92 48.08h-27.31l-6.36-44.23 26.76-3.85m0-4c-.19 0-.38.01-.57.04l-26.76 3.85c-2.19.31-3.7 2.34-3.39 4.53l6.36 44.23a3.996 3.996 0 0 0 3.96 3.43h27.31c1.16 0 2.26-.5 3.02-1.38.76-.88 1.1-2.04.94-3.19l-6.92-48.08c-.15-1.05-.71-2-1.56-2.63-.7-.52-1.54-.8-2.4-.8h.01Z" fill="#53320A"/><path d="M92.702 133.19c-.98 0-1.83-.72-1.98-1.72l-3.62-25.18a1.99 1.99 0 0 1 1.69-2.26c1.53-.22 2.6-1.65 2.38-3.18a2.827 2.827 0 0 0-2.78-2.41c-.13 0-.27 0-.41.03a2.012 2.012 0 0 1-1.48-.38c-.42-.32-.71-.79-.78-1.32l-3.86-26.83a1.99 1.99 0 0 1 1.69-2.26c1.53-.22 2.6-1.65 2.38-3.18-.2-1.37-1.39-2.41-2.77-2.41-.13 0-.27 0-.41.03-.1.01-.19.02-.29.02a1.996 1.996 0 0 1-1.98-1.72l-4.88-33.92c-.08-.52.06-1.06.38-1.48.32-.42.79-.71 1.32-.78l26.76-3.85c.1-.01.19-.02.29-.02.98 0 1.83.72 1.98 1.72l4.88 33.92a1.99 1.99 0 0 1-1.69 2.26c-1.53.22-2.6 1.65-2.38 3.18.2 1.37 1.39 2.41 2.77 2.41.13 0 .27 0 .41-.03a2.012 2.012 0 0 1 1.48.38c.42.32.71.79.78 1.32l3.86 26.83a1.99 1.99 0 0 1-1.69 2.26c-1.53.22-2.6 1.65-2.38 3.18.2 1.37 1.39 2.41 2.77 2.41.13 0 .27 0 .41-.03.1-.01.19-.02.29-.02a1.996 1.996 0 0 1 1.98 1.72l3.62 25.18c.08.52-.06 1.06-.38 1.48-.32.42-.79.71-1.32.78l-26.76 3.85c-.1.01-.19.02-.29.02h.01Z" fill="#E60012"/><path d="m104.362 22.37 4.88 33.92a4.823 4.823 0 0 0-4.08 5.45 4.806 4.806 0 0 0 5.44 4.08l3.86 26.83a4.823 4.823 0 0 0-4.08 5.45 4.806 4.806 0 0 0 5.44 4.08l3.62 25.18-26.76 3.85-3.62-25.18a4.823 4.823 0 0 0 4.08-5.45 4.806 4.806 0 0 0-5.44-4.08l-3.86-26.83a4.823 4.823 0 0 0 4.08-5.45 4.806 4.806 0 0 0-5.44-4.08l-4.88-33.92 26.76-3.85Zm0-4c-.19 0-.38.01-.57.04l-26.76 3.85c-2.19.31-3.7 2.34-3.39 4.53l4.88 33.92c.15 1.05.71 2 1.56 2.63a4.024 4.024 0 0 0 2.97.76h.12a.814.814 0 0 1 .11 1.62c-2.19.31-3.7 2.34-3.39 4.53l3.86 26.83c.15 1.05.71 2 1.56 2.63a4.025 4.025 0 0 0 2.97.76h.12a.814.814 0 0 1 .12 1.62c-1.05.15-2 .71-2.63 1.56-.64.85-.91 1.92-.76 2.97l3.62 25.18a4.006 4.006 0 0 0 4.52 3.39l26.76-3.85c1.05-.15 2-.71 2.63-1.56.63-.85.91-1.92.76-2.97l-3.62-25.18c-.15-1.05-.71-2-1.56-2.63a4.024 4.024 0 0 0-2.97-.76h-.12a.814.814 0 0 1-.11-1.62c2.19-.31 3.7-2.34 3.39-4.53l-3.86-26.83c-.15-1.05-.71-2-1.56-2.63a4.024 4.024 0 0 0-2.97-.76h-.12a.814.814 0 0 1-.11-1.62c1.05-.15 2-.71 2.63-1.56.64-.85.91-1.92.76-2.97l-4.88-33.92c-.15-1.05-.71-2-1.56-2.63-.7-.52-1.54-.8-2.4-.8Z" fill="#53320A"/><path d="M199.182 177.42c-.64 0-1.25-.31-1.62-.83-.38-.52-.48-1.19-.28-1.8l9.48-28.58a2.002 2.002 0 0 1 2.53-1.27l23.76 7.88 7.38-22.25a2.002 2.002 0 0 1 3.8 1.26l-11.22 33.85c-.19.58-.64 1.04-1.21 1.25l-28.35 10.37c-.22.08-.45.12-.69.12H199.182Z" fill="#FBDDA0"/><path d="m242.322 131.2-8.01 24.15 8.01-24.15Zm-33.67 15.64 25.66 8.51-3.22 9.7-28.35 10.37h-3.57l9.48-28.58Zm33.67-19.64c-1.68 0-3.24 1.06-3.8 2.74l-6.75 20.35-21.86-7.25c-.41-.14-.83-.2-1.26-.2-.62 0-1.23.14-1.79.43-.95.48-1.67 1.31-2 2.32l-9.48 28.58c-.4 1.22-.2 2.56.55 3.6a4.004 4.004 0 0 0 3.24 1.66h3.57c.47 0 .93-.08 1.37-.24l28.35-10.37a3.979 3.979 0 0 0 2.42-2.5l3.22-9.7 8.01-24.15a4 4 0 0 0-3.8-5.26l.01-.01Z" fill="#53320A"/><path d="M234.312 157.35c-.21 0-.42-.03-.63-.1l-25.66-8.51c-.5-.17-.92-.53-1.16-1-.24-.47-.28-1.02-.11-1.53l8.01-24.15a2.002 2.002 0 0 1 2.53-1.27 2.813 2.813 0 0 0 3.55-1.79c.24-.71.18-1.47-.16-2.15-.34-.67-.91-1.17-1.63-1.41a2 2 0 0 1-1.27-2.53l8.53-25.73a2.002 2.002 0 0 1 2.53-1.27c.29.1.59.14.89.14 1.21 0 2.28-.77 2.67-1.93.24-.71.18-1.47-.16-2.15-.34-.67-.91-1.17-1.63-1.41-.5-.17-.92-.53-1.16-1-.24-.47-.28-1.02-.11-1.53l10.78-32.53a2.002 2.002 0 0 1 2.53-1.27l25.66 8.51a2 2 0 0 1 1.27 2.53l-10.78 32.53a2.002 2.002 0 0 1-2.53 1.27c-.29-.1-.59-.14-.89-.14a2.813 2.813 0 0 0-.89 5.48c.5.17.92.53 1.16 1 .24.47.28 1.02.11 1.53l-8.53 25.73c-.17.5-.53.92-1 1.16a2.016 2.016 0 0 1-1.53.11 2.813 2.813 0 0 0-3.55 1.79c-.24.71-.18 1.47.16 2.15.34.67.91 1.17 1.63 1.41.5.17.92.53 1.16 1 .24.47.28 1.02.11 1.53l-8.01 24.15c-.17.5-.53.92-1 1.16-.28.14-.59.21-.9.21l.01.01Z" fill="#E60012"/><path d="m242.032 46.18 25.66 8.51-10.78 32.53c-.5-.17-1.01-.25-1.51-.25-2.02 0-3.9 1.28-4.56 3.3a4.81 4.81 0 0 0 3.05 6.08l-8.53 25.73c-.5-.17-1.01-.25-1.51-.25-2.02 0-3.89 1.28-4.56 3.3a4.81 4.81 0 0 0 3.05 6.08l-8.01 24.15-25.66-8.51 8.01-24.15c.5.17 1.01.25 1.51.25 2.02 0 3.9-1.28 4.56-3.3a4.81 4.81 0 0 0-3.05-6.08l8.53-25.73c.5.17 1.01.25 1.51.25 2.02 0 3.9-1.28 4.56-3.3a4.81 4.81 0 0 0-3.05-6.08l10.78-32.53Zm0-4c-.62 0-1.23.14-1.79.43-.95.48-1.67 1.31-2 2.32l-10.78 32.53c-.33 1.01-.25 2.11.22 3.05.48.95 1.31 1.67 2.32 2 .42.14.65.6.51 1.02a.825.825 0 0 1-1.03.52c-.41-.14-.83-.2-1.26-.2-.62 0-1.23.14-1.79.43-.95.48-1.67 1.31-2 2.32l-8.53 25.73a4 4 0 0 0 2.54 5.06c.26.09.4.27.47.41.07.14.13.35.04.62a.825.825 0 0 1-1.03.52c-.41-.14-.83-.2-1.26-.2-.62 0-1.23.14-1.79.43-.95.48-1.67 1.31-2 2.32l-8.01 24.15a4 4 0 0 0 2.54 5.06l25.66 8.51c.41.14.83.2 1.26.2.62 0 1.23-.14 1.79-.43.95-.48 1.67-1.31 2-2.32l8.01-24.15c.33-1.01.25-2.11-.22-3.05a3.987 3.987 0 0 0-2.32-2 .81.81 0 0 1-.51-1.02.825.825 0 0 1 1.03-.52c.41.14.83.2 1.26.2.62 0 1.23-.14 1.79-.43.95-.48 1.67-1.31 2-2.32l8.53-25.73a4 4 0 0 0-2.54-5.06.81.81 0 0 1-.51-1.02.825.825 0 0 1 1.03-.52c.41.14.83.2 1.26.2.62 0 1.23-.14 1.79-.43.95-.48 1.67-1.31 2-2.32l10.78-32.53a4 4 0 0 0-2.54-5.06l-25.66-8.51c-.41-.14-.83-.2-1.26-.2v-.01Z" fill="#53320A"/><path d="M165.962 177.42c-.58 0-1.13-.25-1.51-.69-.38-.44-.55-1.02-.47-1.59l6.92-48.08a2 2 0 0 1 1.98-1.72c.09 0 .19 0 .29.02l26.76 3.85c.52.08 1 .36 1.32.78.32.42.45.96.38 1.48l-6.36 44.23c-.14.98-.98 1.72-1.98 1.72h-27.33Z" fill="#FBDDA0"/><path d="m172.872 127.34 26.76 3.85-6.36 44.23h-27.31l6.92-48.08m0-4c-.86 0-1.7.28-2.4.8-.85.64-1.41 1.58-1.56 2.63l-6.92 48.08c-.17 1.15.18 2.31.94 3.19.76.88 1.86 1.38 3.02 1.38h27.31c1.99 0 3.68-1.46 3.96-3.43l6.36-44.23c.31-2.19-1.2-4.21-3.39-4.53l-26.76-3.85c-.19-.03-.38-.04-.57-.04h.01Z" fill="#53320A"/><path d="M199.631 133.19c-.09 0-.19 0-.29-.02l-26.76-3.85c-.52-.08-1-.36-1.32-.78-.32-.42-.45-.96-.38-1.48l3.62-25.18c.08-.52.36-1 .78-1.32a2.012 2.012 0 0 1 1.48-.38 2.816 2.816 0 0 0 3.18-2.38c.22-1.53-.85-2.96-2.38-3.18a1.996 1.996 0 0 1-1.69-2.26l3.86-26.83c.08-.53.36-1 .78-1.32a2.012 2.012 0 0 1 1.48-.38 2.817 2.817 0 0 0 3.18-2.38c.22-1.53-.85-2.96-2.38-3.18a1.996 1.996 0 0 1-1.69-2.26l4.88-33.92c.08-.52.36-1 .78-1.32a2.012 2.012 0 0 1 1.48-.38l26.76 3.85c1.09.16 1.85 1.17 1.69 2.26l-4.88 33.92c-.08.52-.36 1-.78 1.32-.35.26-.77.4-1.2.4-.09 0-.19 0-.28-.02a2.817 2.817 0 0 0-3.18 2.38c-.22 1.53.85 2.96 2.38 3.18 1.09.16 1.85 1.17 1.69 2.26l-3.86 26.83c-.08.52-.36 1-.78 1.32-.35.26-.77.4-1.2.4-.09 0-.19 0-.28-.02a2.817 2.817 0 0 0-3.18 2.38c-.22 1.53.85 2.96 2.38 3.18 1.09.16 1.85 1.17 1.69 2.26l-3.62 25.18a2 2 0 0 1-1.98 1.72h.02Z" fill="#E60012"/><path d="m187.972 22.37 26.76 3.85-4.88 33.92a4.806 4.806 0 0 0-5.44 4.08 4.816 4.816 0 0 0 4.08 5.45l-3.86 26.83a4.806 4.806 0 0 0-5.44 4.08 4.816 4.816 0 0 0 4.08 5.45l-3.62 25.18-26.76-3.85 3.62-25.18a4.806 4.806 0 0 0 5.44-4.08 4.816 4.816 0 0 0-4.08-5.45l3.86-26.83a4.806 4.806 0 0 0 5.44-4.08 4.816 4.816 0 0 0-4.08-5.45l4.88-33.92Zm0-4c-.86 0-1.7.28-2.4.8-.85.64-1.41 1.58-1.56 2.63l-4.88 33.92c-.15 1.05.12 2.12.76 2.97.64.85 1.58 1.41 2.63 1.56a.814.814 0 0 1-.11 1.62h-.12a4.024 4.024 0 0 0-2.97.76c-.85.64-1.41 1.58-1.56 2.63l-3.86 26.83a4.003 4.003 0 0 0 3.39 4.53.814.814 0 0 1-.11 1.62h-.12a4.024 4.024 0 0 0-2.97.76c-.85.64-1.41 1.58-1.56 2.63l-3.62 25.18c-.15 1.05.12 2.12.76 2.97.64.85 1.58 1.41 2.63 1.56l26.76 3.85a3.991 3.991 0 0 0 4.52-3.39l3.62-25.18c.15-1.05-.12-2.12-.76-2.97a3.994 3.994 0 0 0-2.63-1.56.771.771 0 0 1-.53-.32.816.816 0 0 1 .65-1.3h.12a4.025 4.025 0 0 0 2.97-.76c.85-.64 1.41-1.58 1.56-2.63l3.86-26.83c.31-2.19-1.2-4.21-3.39-4.53a.814.814 0 0 1 .1-1.62h.12a4.024 4.024 0 0 0 2.97-.76c.85-.64 1.41-1.58 1.56-2.63l4.88-33.92c.31-2.19-1.2-4.21-3.39-4.53l-26.76-3.85c-.19-.03-.38-.04-.57-.04h.01Z" fill="#53320A"/><path d="M159.682 117.05h-27.03a2 2 0 0 0-2 2v56.37a2 2 0 0 0 2 2h27.03a2 2 0 0 0 2-2v-56.37a2 2 0 0 0-2-2Z" fill="#FBDDA0"/><path d="M159.682 119.05v56.37h-27.03v-56.37h27.03Zm0-4h-27.03c-2.21 0-4 1.79-4 4v56.37c0 2.21 1.79 4 4 4h27.03c2.21 0 4-1.79 4-4v-56.37c0-2.21-1.79-4-4-4Z" fill="#53320A"/><path d="M132.652 121.05c-1.1 0-2-.9-2-2V93.61c0-1.1.9-2 2-2 1.55 0 2.81-1.26 2.81-2.81s-1.26-2.81-2.81-2.81c-1.1 0-2-.9-2-2v-27.1c0-1.1.9-2 2-2 1.55 0 2.81-1.26 2.81-2.81s-1.26-2.81-2.81-2.81c-1.1 0-2-.9-2-2V13c0-1.1.9-2 2-2h27.03c1.1 0 2 .9 2 2v34.27c0 1.1-.9 2-2 2-1.55 0-2.81 1.26-2.81 2.81s1.26 2.81 2.81 2.81c1.1 0 2 .9 2 2v27.1c0 1.1-.9 2-2 2-1.55 0-2.81 1.26-2.81 2.81s1.26 2.81 2.81 2.81c1.1 0 2 .9 2 2v25.44c0 1.1-.9 2-2 2h-27.03Z" fill="#E60012"/><path d="M159.682 13v34.27c-2.66 0-4.81 2.15-4.81 4.81 0 2.66 2.15 4.81 4.81 4.81v27.1c-2.66 0-4.81 2.15-4.81 4.81 0 2.66 2.15 4.81 4.81 4.81v25.44h-27.03V93.61c2.66 0 4.81-2.15 4.81-4.81 0-2.66-2.15-4.81-4.81-4.81v-27.1c2.66 0 4.81-2.15 4.81-4.81 0-2.66-2.15-4.81-4.81-4.81V13h27.03Zm0-4h-27.03c-2.21 0-4 1.79-4 4v34.27c0 2.21 1.79 4 4 4 .45 0 .81.36.81.81 0 .45-.36.81-.81.81-2.21 0-4 1.79-4 4v27.1c0 2.21 1.79 4 4 4 .45 0 .81.36.81.81 0 .45-.36.81-.81.81-2.21 0-4 1.79-4 4v25.44c0 2.21 1.79 4 4 4h27.03c2.21 0 4-1.79 4-4V93.61c0-2.21-1.79-4-4-4-.45 0-.81-.36-.81-.81 0-.45.36-.81.81-.81 2.21 0 4-1.79 4-4v-27.1c0-2.21-1.79-4-4-4-.45 0-.81-.36-.81-.81 0-.45.36-.81.81-.81 2.21 0 4-1.79 4-4V13c0-2.21-1.79-4-4-4Z" fill="#53320A"/><path d="m252.102 159.37-49.36 18.05H89.592l-49.67-18.17" stroke="#52320E" stroke-width="4" stroke-linecap="round" stroke-linejoin="round"/><path d="M145.522 324.04c23.483 0 42.52-19.037 42.52-42.52 0-23.483-19.037-42.52-42.52-42.52-23.483 0-42.52 19.037-42.52 42.52 0 23.483 19.037 42.52 42.52 42.52Z" fill="#FFFCE9"/><g clip-path="url(#a)" fill="#F9BE53"><path opacity=".35" d="M154.677 289.875v12.712a1.426 1.426 0 0 0 .48 1.057 1.436 1.436 0 0 0 1.114.349 14.357 14.357 0 0 0 9.083-4.645 14.14 14.14 0 0 0 3.647-9.471c0-3.494-1.298-6.866-3.647-9.47a14.357 14.357 0 0 0-9.083-4.645 1.443 1.443 0 0 0-1.114.348 1.423 1.423 0 0 0-.48 1.057v12.708Z"/><path d="M123.361 278.7h-5.96c-.862 0-1.478-.192-1.848-.577-.37-.384-.554-.994-.551-1.829v-14.557c0-.855.188-1.475.566-1.859.375-.372.986-.562 1.833-.562h6.335a14.87 14.87 0 0 1 2.422.171c.65.103 1.275.327 1.84.662.465.274.878.625 1.222 1.038a4.564 4.564 0 0 1 1.095 2.99c0 1.939-.977 3.357-2.931 4.255 2.566.82 3.849 2.402 3.849 4.745a5.293 5.293 0 0 1-.839 2.927 5.037 5.037 0 0 1-2.249 1.923 8.11 8.11 0 0 1-2.051.52 21.15 21.15 0 0 1-2.733.153Zm-4.404-16.438v5.009h3.621a7.325 7.325 0 0 0 2.286-.279 2.184 2.184 0 0 0 1.23-1.056c.223-.376.339-.806.334-1.242 0-.977-.351-1.627-1.054-1.949-.702-.322-1.772-.483-3.209-.483h-3.208Zm4.123 7.81h-4.123v5.656h4.247c2.671 0 4.008-.956 4.011-2.867 0-.978-.349-1.689-1.039-2.127-.689-.439-1.728-.636-3.103-.636l.007-.026ZM141.43 259c1.816-.05 3.613.372 5.214 1.224a7.942 7.942 0 0 1 3.295 3.473 11.762 11.762 0 0 1 1.125 5.292 12.821 12.821 0 0 1-.615 4.091 8.795 8.795 0 0 1-1.837 3.187 8.075 8.075 0 0 1-2.999 2.061 11.961 11.961 0 0 1-8.191 0 8.169 8.169 0 0 1-3.021-2.068 8.782 8.782 0 0 1-1.829-3.213 12.771 12.771 0 0 1-.623-4.054c-.014-1.39.205-2.772.649-4.091a8.783 8.783 0 0 1 1.874-3.169 8.05 8.05 0 0 1 2.999-2 10.737 10.737 0 0 1 3.959-.733Zm5.623 9.963a9.011 9.011 0 0 0-.69-3.685 5.142 5.142 0 0 0-1.979-2.362 5.473 5.473 0 0 0-2.951-.796 5.331 5.331 0 0 0-2.189.443 4.776 4.776 0 0 0-1.732 1.287 6.107 6.107 0 0 0-1.124 2.16 9.624 9.624 0 0 0-.42 2.953 9.894 9.894 0 0 0 .42 2.975 6.05 6.05 0 0 0 1.184 2.232 4.981 4.981 0 0 0 1.758 1.313 5.304 5.304 0 0 0 4.054.132 5.221 5.221 0 0 0 2.938-2.773 8.988 8.988 0 0 0 .727-3.886l.004.007ZM152.567 296.666v-15.248a2.57 2.57 0 0 1 .544-1.785 1.827 1.827 0 0 1 1.413-.591c.269-.011.537.036.786.138.249.101.473.254.657.449.409.504.607 1.145.555 1.789v15.248a2.535 2.535 0 0 1-.555 1.796 1.878 1.878 0 0 1-1.443.595 1.845 1.845 0 0 1-1.406-.598 2.593 2.593 0 0 1-.551-1.793ZM168.375 279.031a10.496 10.496 0 0 1 5.218 1.219 7.96 7.96 0 0 1 3.295 3.474 11.776 11.776 0 0 1 1.125 5.292 12.822 12.822 0 0 1-.611 4.091 8.791 8.791 0 0 1-1.837 3.184 8.045 8.045 0 0 1-2.999 2.06 11.955 11.955 0 0 1-8.191-.019 8.145 8.145 0 0 1-3.021-2.068 8.781 8.781 0 0 1-1.833-3.209 12.875 12.875 0 0 1-.619-4.057c-.015-1.39.203-2.773.645-4.091a8.793 8.793 0 0 1 1.875-3.173 8.133 8.133 0 0 1 2.998-2.001 10.854 10.854 0 0 1 3.955-.702Zm5.623 9.959a9.011 9.011 0 0 0-.693-3.685 5.142 5.142 0 0 0-1.976-2.358 5.48 5.48 0 0 0-2.95-.8 5.38 5.38 0 0 0-2.189.443 4.817 4.817 0 0 0-1.732 1.286 6.23 6.23 0 0 0-1.147 2.161 9.783 9.783 0 0 0-.42 2.953 9.99 9.99 0 0 0 .42 2.975 6.13 6.13 0 0 0 1.184 2.213 5.04 5.04 0 0 0 1.759 1.317 5.579 5.579 0 0 0 2.521.423 5.58 5.58 0 0 0 2.446-.743 5.182 5.182 0 0 0 2.024-2.325 8.928 8.928 0 0 0 .75-3.86h.003ZM134.09 293.922v-1.581 1.581Zm0-1.581v-10.577c0-.855.189-1.475.566-1.859.375-.372.986-.562 1.829-.562h6.328c.811-.008 1.621.05 2.422.175.65.101 1.275.324 1.84.658a4.83 4.83 0 0 1 1.222 1.038 4.559 4.559 0 0 1 1.095 2.994c0 1.936-.977 3.354-2.931 4.254 2.566.811 3.849 2.386 3.849 4.727a5.285 5.285 0 0 1-.839 2.927 5.008 5.008 0 0 1-2.249 1.923 8.11 8.11 0 0 1-2.051.52c-.897.11-1.799.161-2.703.153h-5.986c-.86 0-1.475-.191-1.845-.573-.37-.382-.553-.992-.551-1.83v-2.402m3.955-11.615v5.006h3.621a7.328 7.328 0 0 0 2.287-.279c.532-.18.973-.559 1.229-1.056.224-.376.339-.806.334-1.242 0-.978-.352-1.625-1.053-1.949-.701-.324-1.77-.48-3.209-.48h-3.209Zm4.124 7.81h-4.124v5.653h4.251c2.672 0 4.009-.956 4.011-2.867a2.343 2.343 0 0 0-1.042-2.128c-.69-.421-1.723-.632-3.1-.632l.004-.026Z"/><path d="M152.777 293.286h-.218a14.83 14.83 0 0 1-9.345-4.814 14.604 14.604 0 0 1-3.748-9.761c0-3.6 1.334-7.074 3.748-9.762a14.835 14.835 0 0 1 9.345-4.813 1.909 1.909 0 0 1 1.948 1.093c.11.24.169.502.17.766v25.42c-.006.495-.21.968-.565 1.316a1.91 1.91 0 0 1-1.335.543v.012Zm0-28.246a.534.534 0 0 0-.113 0 13.876 13.876 0 0 0-8.779 4.495 13.678 13.678 0 0 0-3.525 9.157c0 3.379 1.255 6.639 3.525 9.157a13.882 13.882 0 0 0 8.779 4.496.99.99 0 0 0 .75-.238.94.94 0 0 0 .319-.707v-25.419a.934.934 0 0 0-.319-.703.955.955 0 0 0-.637-.238Z"/></g><defs><clipPath id="a"><path fill="#fff" transform="translate(115.002 259)" d="M0 0h63v45H0z"/></clipPath></defs></svg>