<svg width="52" height="52" viewBox="0 0 52 52" fill="none" xmlns="http://www.w3.org/2000/svg">
<path d="M23.187 45.1851C12.9214 45.0792 4.56934 36.6432 4.56934 26.3798C4.56934 16.1165 12.9214 7.67759 23.187 7.57178H23.1928C23.3787 7.57178 23.5503 7.66043 23.659 7.81199C23.7677 7.96355 23.7963 8.15801 23.7334 8.33531C21.6882 14.1261 20.65 20.1944 20.65 26.3798C20.65 32.5653 21.6882 38.6335 23.7334 44.4244C23.7963 44.6017 23.7677 44.7961 23.659 44.9477C23.5503 45.0993 23.3787 45.1879 23.1928 45.1879H23.187V45.1851Z" fill="#E30413"/>
<path d="M23.1926 8.14387C21.1761 13.8489 20.0749 19.9829 20.0749 26.3771C20.0749 32.7714 21.1761 38.9082 23.1926 44.6104C13.2044 44.5075 5.14126 36.386 5.14126 26.3771C5.14126 16.3683 13.2073 8.24682 23.1926 8.14387M23.1926 7C23.1926 7 23.1926 7 23.1898 7H23.1869H23.1812C18.0469 7.05433 13.2273 9.09328 9.61191 12.7422C5.99363 16.394 4 21.2383 4 26.38C4 31.5217 5.99363 36.366 9.61191 40.0178C13.2273 43.6667 18.0469 45.7057 23.184 45.76C23.1869 45.76 23.1926 45.76 23.1955 45.76C23.5645 45.76 23.9106 45.5827 24.1251 45.2824C24.3425 44.9793 24.3968 44.5875 24.2738 44.2358C22.2487 38.5079 21.2219 32.4997 21.2219 26.3829C21.2219 20.266 22.243 14.2864 24.2595 8.57282C24.311 8.44127 24.3396 8.29829 24.3396 8.14959C24.3396 7.5176 23.8276 7.00572 23.1955 7.00572L23.1926 7Z" fill="#533716"/>
<path d="M13.662 26.3771C13.662 18.839 17.4089 12.1788 23.1381 8.1438C13.1757 8.27534 5.14111 16.3854 5.14111 26.3771C5.14111 36.3688 13.1786 44.4788 23.1381 44.6103C17.4089 40.5753 13.662 33.9152 13.662 26.3771V26.3771Z" fill="#E30413"/>
<path d="M28.8045 45.1855C28.6186 45.1855 28.4469 45.0968 28.3383 44.9453C28.2296 44.7937 28.201 44.5992 28.2639 44.4219C30.309 38.6311 31.3473 32.5629 31.3473 26.3774C31.3473 20.1919 30.309 14.1237 28.2639 8.33287C28.201 8.15557 28.2296 7.96111 28.3383 7.80955C28.4469 7.65799 28.6186 7.56934 28.8045 7.56934H28.8102C39.0758 7.67514 47.4279 16.1112 47.4279 26.3745C47.4279 36.6379 39.0758 45.0739 28.8102 45.1797H28.8045V45.1855Z" fill="#E30413"/>
<path d="M28.8048 8.14387C38.793 8.24682 46.8562 16.3683 46.8562 26.3771C46.8562 36.386 38.7901 44.5075 28.8048 44.6104C30.8213 38.9054 31.9226 32.7714 31.9226 26.3771C31.9226 19.9829 30.8213 13.8461 28.8048 8.14387M28.8048 7C28.4359 7 28.0898 7.1773 27.8752 7.47757C27.6579 7.78069 27.6035 8.17247 27.7265 8.52421C29.7516 14.2521 30.7784 20.2603 30.7784 26.3771C30.7784 32.494 29.7516 38.5022 27.7265 44.2301C27.6006 44.5818 27.6579 44.9736 27.8752 45.2767C28.0898 45.577 28.4359 45.7543 28.8048 45.7543C28.8077 45.7543 28.8134 45.7543 28.8163 45.7543C33.9534 45.7028 38.773 43.6639 42.3884 40.0121C46.0067 36.3603 48.0003 31.516 48.0003 26.3743C48.0003 21.2326 46.0067 16.3883 42.3884 12.7365C38.773 9.09042 33.9534 7.05147 28.8163 7C28.8134 7 28.8077 7 28.8048 7V7Z" fill="#533716"/>
<path d="M38.3351 26.3771C38.3351 18.839 34.5881 12.1788 28.8589 8.1438C38.8213 8.27534 46.8559 16.3854 46.8559 26.3771C46.8559 36.3688 38.8185 44.4788 28.8589 44.6103C34.5881 40.5753 38.3351 33.9152 38.3351 26.3771V26.3771Z" fill="#E30413"/>
</svg>
