<svg width="52" height="52" viewBox="0 0 52 52" fill="none" xmlns="http://www.w3.org/2000/svg">
<path d="M23.187 45.1853C12.9214 45.0795 4.56934 36.6434 4.56934 26.3801C4.56934 16.1167 12.9185 7.67783 23.187 7.57202H23.1928C23.3787 7.57202 23.5503 7.66067 23.659 7.81223C23.7677 7.9638 23.7963 8.15825 23.7334 8.33555C21.6882 14.1264 20.6499 20.1946 20.6499 26.3801C20.6499 32.5656 21.6882 38.6338 23.7334 44.4246C23.7963 44.6019 23.7677 44.7964 23.659 44.9479C23.5503 45.0995 23.3787 45.1881 23.1928 45.1881H23.187V45.1853Z" fill="#E30413"/>
<path d="M23.1926 8.14387C21.1761 13.8489 20.0749 19.9829 20.0749 26.3771C20.0749 32.7714 21.1761 38.9082 23.1926 44.6104C13.2045 44.5075 5.14126 36.386 5.14126 26.3771C5.14126 16.3683 13.2045 8.24682 23.1926 8.14387ZM23.1926 7C23.1926 7 23.1926 7 23.1898 7H23.1869H23.1812C18.0469 7.05433 13.2273 9.09328 9.61191 12.7422C5.99363 16.394 4 21.2383 4 26.38C4 31.5217 5.99363 36.366 9.61191 40.0178C13.2273 43.6667 18.0469 45.7057 23.184 45.76C23.1869 45.76 23.1926 45.76 23.1955 45.76C23.5645 45.76 23.9106 45.5827 24.1251 45.2824C24.3425 44.9793 24.3968 44.5875 24.2738 44.2358C22.2487 38.5079 21.2219 32.4997 21.2219 26.3829C21.2219 20.266 22.243 14.2864 24.2595 8.57282C24.311 8.44127 24.3396 8.29829 24.3396 8.14959C24.3396 7.5176 23.8276 7.00572 23.1955 7.00572L23.1926 7Z" fill="#533716"/>
<path d="M13.6619 26.3771C13.6619 18.839 17.4089 12.1788 23.1381 8.1438C13.1757 8.27534 5.14111 16.3854 5.14111 26.3771C5.14111 36.3688 13.1786 44.4788 23.1381 44.6103C17.4089 40.5754 13.6619 33.9152 13.6619 26.3771V26.3771Z" fill="#BE1521"/>
<path d="M28.8045 45.1855C28.6186 45.1855 28.4469 45.0968 28.3383 44.9453C28.2296 44.7937 28.201 44.5992 28.2639 44.4219C30.309 38.6311 31.3473 32.5629 31.3473 26.3774C31.3473 20.1919 30.309 14.1237 28.2639 8.33287C28.201 8.15557 28.2296 7.96111 28.3383 7.80955C28.4469 7.65799 28.6186 7.56934 28.8045 7.56934H28.8102C39.0758 7.67514 47.4279 16.1112 47.4279 26.3745C47.4279 36.6379 39.0758 45.0739 28.8102 45.1797H28.8045V45.1855Z" fill="#E30413"/>
<path d="M28.8043 8.14387C38.7925 8.24682 46.8557 16.3683 46.8557 26.3771C46.8557 36.386 38.7897 44.5075 28.8043 44.6104C30.8209 38.9054 31.9221 32.7714 31.9221 26.3771C31.9221 19.9829 30.8209 13.8461 28.8043 8.14387M28.8043 7C28.4354 7 28.0893 7.1773 27.8747 7.47757C27.6574 7.78069 27.603 8.17247 27.726 8.52421C29.7511 14.2521 30.7779 20.2603 30.7779 26.3771C30.7779 32.494 29.7511 38.5022 27.726 44.2301C27.6002 44.5818 27.6574 44.9736 27.8747 45.2767C28.0893 45.577 28.4354 45.7543 28.8043 45.7543C28.8072 45.7543 28.8129 45.7543 28.8158 45.7543C33.9529 45.7028 38.7725 43.6639 42.3879 40.0121C46.0062 36.3603 47.9998 31.516 47.9998 26.3743C47.9998 21.2326 46.0062 16.3883 42.3879 12.7365C38.7725 9.09042 33.95 7.05147 28.8158 7C28.8129 7 28.8072 7 28.8043 7V7Z" fill="#533716"/>
<path d="M38.3321 26.3771C38.3321 18.839 34.5851 12.1788 28.856 8.1438C38.8184 8.27534 46.853 16.3854 46.853 26.3771C46.853 36.3688 38.8155 44.4788 28.856 44.6103C34.5851 40.5754 38.3321 33.9152 38.3321 26.3771V26.3771Z" fill="#BE1521"/>
</svg>
