<svg width="52" height="52" viewBox="0 0 52 52" fill="none" xmlns="http://www.w3.org/2000/svg">
<path d="M23.1882 45.191C12.9233 45.0851 4.57178 36.6478 4.57178 26.3801C4.57178 16.1123 12.9233 7.67785 23.1882 7.57202H23.1939C23.3798 7.57202 23.5514 7.66068 23.6601 7.81227C23.7688 7.96386 23.7974 8.15834 23.7345 8.33567C21.6895 14.1274 20.6513 20.1965 20.6513 26.3829C20.6513 32.5693 21.6895 38.6385 23.7345 44.4302C23.7974 44.6075 23.7688 44.802 23.6601 44.9536C23.5514 45.1051 23.3798 45.1938 23.1939 45.1938H23.1882V45.191Z" fill="#E30413"/>
<path d="M23.1941 8.14404C21.1778 13.8499 20.0766 19.9849 20.0766 26.3801C20.0766 32.7752 21.1778 38.913 23.1941 44.6161C13.2067 44.5131 5.14404 36.3904 5.14404 26.3801C5.14404 16.3697 13.2095 8.247 23.1941 8.14404ZM23.1941 7C23.1941 7 23.1941 7 23.1913 7H23.1884H23.1827C18.046 7.05434 13.2267 9.0936 9.61152 12.7431C5.99349 16.3954 4 21.2376 4 26.3801C4 31.5225 5.99349 36.3675 9.61152 40.0199C13.2267 43.6694 18.046 45.7086 23.1827 45.763C23.1856 45.763 23.1913 45.763 23.1941 45.763C23.5631 45.763 23.9092 45.5856 24.1237 45.2853C24.3411 44.9822 24.3954 44.5903 24.2724 44.2385C22.2475 38.5097 21.2207 32.5007 21.2207 26.3829C21.2207 20.2652 22.2417 14.2847 24.2581 8.5702C24.3096 8.43863 24.3382 8.29563 24.3382 8.1469C24.3382 7.51482 23.8262 7.00286 23.1941 7.00286V7Z" fill="#533716"/>
<path d="M13.6671 26.3801C13.6671 18.8408 17.4139 12.1796 23.1427 8.14404C13.1809 8.27847 5.14404 16.3897 5.14404 26.3801C5.14404 36.3704 13.1809 44.4845 23.1398 44.6161C17.411 40.5805 13.6643 33.9193 13.6643 26.3801H13.6671Z" fill="#AF151D"/>
<path d="M28.8059 45.1909C28.62 45.1909 28.4484 45.1022 28.3397 44.9506C28.231 44.799 28.2024 44.6046 28.2653 44.4272C30.3103 38.6355 31.3485 32.5664 31.3485 26.38C31.3485 20.1936 30.3103 14.1244 28.2653 8.33274C28.2024 8.15541 28.231 7.96093 28.3397 7.80934C28.4484 7.65775 28.62 7.56909 28.8059 7.56909H28.8116C39.0765 7.67492 47.428 16.1122 47.428 26.3771C47.428 36.642 39.0765 45.0793 28.8116 45.1852H28.8059V45.1909Z" fill="#E30413"/>
<path d="M28.8057 8.14404C38.7932 8.247 46.8558 16.3697 46.8558 26.3801C46.8558 36.3904 38.7903 44.5131 28.8057 44.6161C30.8221 38.9102 31.9232 32.7752 31.9232 26.3801C31.9232 19.9849 30.8221 13.8471 28.8057 8.14404M28.8057 7C28.4368 7 28.0907 7.17733 27.8762 7.47764C27.6588 7.78081 27.6045 8.17264 27.7275 8.52443C29.7524 14.2532 30.7792 20.2623 30.7792 26.3801C30.7792 32.4978 29.7524 38.5069 27.7275 44.2357C27.6016 44.5875 27.6588 44.9793 27.8762 45.2825C28.0907 45.5828 28.4368 45.7601 28.8057 45.7601C28.8086 45.7601 28.8143 45.7601 28.8172 45.7601C33.9539 45.7086 38.7732 43.6694 42.3884 40.017C46.0064 36.3647 47.9999 31.5197 47.9999 26.3772C47.9999 21.2347 46.0064 16.3897 42.3884 12.7374C38.7732 9.09073 33.9539 7.05148 28.8172 7C28.8143 7 28.8086 7 28.8057 7V7Z" fill="#533716"/>
<path d="M38.3354 26.3801C38.3354 18.8408 34.5886 12.1796 28.8599 8.14404C38.8216 8.27561 46.8556 16.3869 46.8556 26.3801C46.8556 36.3733 38.8187 44.4845 28.8599 44.6161C34.5886 40.5805 38.3354 33.9193 38.3354 26.3801V26.3801Z" fill="#E30413"/>
</svg>
