<svg width="52" height="52" viewBox="0 0 52 52" fill="none" xmlns="http://www.w3.org/2000/svg">
<path d="M8.63867 20L11.1387 21.5L10.7101 24.5L11.6387 20L12.6387 17.5V12.5L14.1387 10.5H15.6387L16.6387 11.5L17.1387 14.5L18.1387 10.5L19.6387 10L21.1387 10.5V13L24.1387 12.5L25.1387 15L24.1387 17.5L25.1387 18.5L26.6387 18L27.6387 18.5L28.1387 20L25.1387 37.5L21.1387 42L16.6387 43.5L12.6387 43L8.63867 41L5.13867 36.5L4.63867 32L6.63867 21L8.63867 20Z" fill="#FFFAE7"/>
<path d="M29.0982 20.4876L26.5597 34.8681C25.4712 41.0362 19.5638 45.1692 13.3937 44.0814C7.22129 42.9936 3.08519 37.0906 4.17379 30.9249L5.77139 21.8709C6.05289 20.2744 7.58259 19.2053 9.18019 19.4866C9.87469 19.6085 10.4682 19.9672 10.8952 20.4642L12.3802 12.0526C12.6336 10.6155 14.0084 9.65434 15.4465 9.90753C16.0471 10.013 16.5562 10.3201 16.9363 10.7398C17.3679 9.55822 18.5949 8.81505 19.8759 9.04011C21.314 9.2933 22.2782 10.6671 22.0248 12.1042L22.0178 12.144C22.5058 11.9002 23.0712 11.7994 23.6483 11.9002C25.0864 12.1534 26.0483 13.5272 25.7949 14.9643L25.3187 17.6674C25.809 17.4235 26.3721 17.3228 26.9515 17.4236C28.3897 17.6768 29.3515 19.0505 29.0982 20.4876ZM21.6471 14.2329L19.4676 26.5901C20.4741 27.0004 21.4477 27.4857 22.3885 28.0413L23.8829 19.5687L24.7298 14.7744C24.88 13.9257 24.3099 13.1122 23.4606 12.9622C22.6113 12.8122 21.7973 13.3818 21.6471 14.2305V14.2329ZM17.5932 12.9692L15.4043 25.371C16.4389 25.5773 17.45 25.854 18.4354 26.201L20.5797 14.0454L20.955 11.9143C21.1052 11.0656 20.5351 10.2522 19.6858 10.1021C18.8366 9.95207 18.0225 10.5218 17.8747 11.3705L17.5932 12.9692ZM11.5662 22.8906L11.2072 24.9302C12.2535 24.9396 13.3022 25.0241 14.3415 25.1812L16.5304 12.7793C16.6805 11.9307 16.1104 11.1172 15.2612 10.9671C14.4119 10.8171 13.5978 11.3868 13.45 12.2354L11.5709 22.8884L11.5662 22.8906ZM25.4946 34.6806L28.0331 20.3001C28.1832 19.4514 27.6131 18.638 26.7638 18.488C25.9146 18.3379 25.1005 18.9075 24.9504 19.7562L23.3269 28.9556V28.9743C23.3081 29.054 23.2753 29.1244 23.233 29.1877C23.233 29.19 23.233 29.1947 23.2284 29.1971C23.1064 29.387 22.8858 29.4737 22.6794 29.4386C22.6113 29.4268 22.5433 29.401 22.4823 29.3612C20.1081 27.842 17.4876 26.8199 14.6934 26.3276H14.6887C14.6887 26.3276 14.6864 26.3276 14.6841 26.3276C13.4735 26.1142 12.2418 26.0134 11.0172 26.0111L10.7028 27.7858C13.6846 29.0306 16.399 30.946 18.5785 33.3466C18.7779 33.567 18.7615 33.9092 18.541 34.1108C18.3204 34.3101 17.9779 34.2961 17.7761 34.0734C15.6107 31.6845 12.8846 29.8018 9.89579 28.6273C9.87699 28.6203 9.86059 28.604 9.84179 28.5946C9.81839 28.5829 9.79489 28.5688 9.77379 28.5524C9.74089 28.5266 9.71279 28.5008 9.68699 28.468C9.67059 28.4492 9.65409 28.4305 9.64009 28.4094C9.61659 28.3719 9.60249 28.332 9.58839 28.2922C9.58139 28.2711 9.56969 28.2523 9.56499 28.2289C9.55089 28.1632 9.54859 28.0952 9.56029 28.0272L10.5011 22.7007C10.6794 21.6926 10.0013 20.7268 8.99249 20.5486C7.98369 20.3704 7.01719 21.0457 6.83889 22.0561L5.24119 31.1101C4.25589 36.6897 7.99779 42.0301 13.5838 43.0147C19.1697 43.9994 24.5116 40.2602 25.497 34.6782L25.4946 34.6806Z" fill="#533716"/>
<path d="M43.5 20L41 21.5L41.4286 24.5L40.5 20L39.5 17.5V12.5L38 10.5H36.5L35.5 11.5L35 14.5L34 10.5L32.5 10L31 10.5V13L28 12.5L27 15L28 17.5L27 18.5L25.5 18L24.5 18.5L24 20L27 37.5L31 42L35.5 43.5L39.5 43L43.5 41L47 36.5L47.5 32L45.5 21L43.5 20Z" fill="#FFFAE7"/>
<path d="M23.0405 20.4876L25.579 34.8681C26.6675 41.0362 32.5749 45.1692 38.745 44.0814C44.9174 42.9936 49.0535 37.0906 47.9649 30.9249L46.3673 21.8709C46.0858 20.2744 44.5561 19.2053 42.9585 19.4866C42.264 19.6085 41.6705 19.9672 41.2435 20.4642L39.7585 12.0526C39.5051 10.6155 38.1303 9.65434 36.6922 9.90753C36.0916 10.013 35.5825 10.3201 35.2024 10.7398C34.7708 9.55822 33.5438 8.81505 32.2628 9.04011C30.8247 9.2933 29.8605 10.6671 30.1139 12.1042L30.1209 12.144C29.6329 11.9002 29.0675 11.7994 28.4904 11.9002C27.0523 12.1534 26.0904 13.5272 26.3438 14.9643L26.82 17.6674C26.3297 17.4235 25.7666 17.3228 25.1872 17.4236C23.749 17.6768 22.7872 19.0505 23.0405 20.4876ZM30.4916 14.2329L32.6711 26.5901C31.6646 27.0004 30.691 27.4857 29.7502 28.0413L28.2558 19.5687L27.4089 14.7744C27.2587 13.9257 27.8288 13.1122 28.6781 12.9622C29.5274 12.8122 30.3414 13.3818 30.4916 14.2305V14.2329ZM34.5455 12.9692L36.7344 25.371C35.6998 25.5773 34.6887 25.854 33.7033 26.201L31.559 14.0454L31.1837 11.9143C31.0335 11.0656 31.6036 10.2522 32.4529 10.1021C33.3021 9.95207 34.1162 10.5218 34.264 11.3705L34.5455 12.9692ZM40.5725 22.8906L40.9315 24.9302C39.8852 24.9396 38.8365 25.0241 37.7972 25.1812L35.6083 12.7793C35.4582 11.9307 36.0283 11.1172 36.8775 10.9671C37.7268 10.8171 38.5409 11.3868 38.6887 12.2354L40.5678 22.8884L40.5725 22.8906ZM26.6441 34.6806L24.1056 20.3001C23.9555 19.4514 24.5256 18.638 25.3749 18.488C26.2241 18.3379 27.0382 18.9075 27.1883 19.7562L28.8118 28.9556V28.9743C28.8306 29.054 28.8634 29.1244 28.9057 29.1877C28.9057 29.19 28.9057 29.1947 28.9103 29.1971C29.0323 29.387 29.2529 29.4737 29.4593 29.4386C29.5274 29.4268 29.5954 29.401 29.6564 29.3612C32.0306 27.842 34.6511 26.8199 37.4453 26.3276H37.45C37.45 26.3276 37.4523 26.3276 37.4546 26.3276C38.6652 26.1142 39.8969 26.0134 41.1215 26.0111L41.4359 27.7858C38.4541 29.0306 35.7397 30.946 33.5602 33.3466C33.3608 33.567 33.3772 33.9092 33.5977 34.1108C33.8183 34.3101 34.1608 34.2961 34.3626 34.0734C36.528 31.6845 39.2541 29.8018 42.2429 28.6273C42.2617 28.6203 42.2781 28.604 42.2969 28.5946C42.3203 28.5829 42.3438 28.5688 42.3649 28.5524C42.3978 28.5266 42.4259 28.5008 42.4517 28.468C42.4681 28.4492 42.4846 28.4305 42.4986 28.4094C42.5221 28.3719 42.5362 28.332 42.5503 28.2922C42.5573 28.2711 42.569 28.2523 42.5737 28.2289C42.5878 28.1632 42.5901 28.0952 42.5784 28.0272L41.6376 22.7007C41.4593 21.6926 42.1374 20.7268 43.1462 20.5486C44.155 20.3704 45.1215 21.0457 45.2998 22.0561L46.8975 31.1101C47.8828 36.6897 44.1409 42.0301 38.5549 43.0147C32.969 43.9994 27.6271 40.2602 26.6417 34.6782L26.6441 34.6806Z" fill="#533716"/>
<path d="M26.5229 41.3094C26.2649 41.3094 26.0537 41.0984 26.0537 40.8406V10.9381C26.0537 10.6802 26.2649 10.4692 26.5229 10.4692C28.8361 10.4692 30.9874 12.1126 32.5804 15.097C34.1241 17.9876 34.9734 21.8206 34.9734 25.8905C34.9734 29.9603 34.1241 33.7934 32.5804 36.684C30.9874 39.6684 28.8361 41.3118 26.5229 41.3118V41.3094Z" fill="#E30413"/>
<path d="M26.5229 10.9377C30.9311 10.9377 34.5041 17.6333 34.5041 25.8902C34.5041 34.147 30.9311 40.8426 26.5229 40.8426V10.9377ZM26.5229 10C26.0044 10 25.5845 10.4196 25.5845 10.9377V40.8426C25.5845 41.3607 26.0044 41.7803 26.5229 41.7803C29.0167 41.7803 31.3159 40.0478 32.9933 36.904C34.5722 33.9454 35.4402 30.035 35.4402 25.8902C35.4402 21.7453 34.5698 17.8326 32.9933 14.8763C31.3159 11.7325 29.0167 10 26.5229 10Z" fill="#533716"/>
<path d="M25.5847 41.3093C23.2715 41.3093 21.1202 39.6659 19.5272 36.6815C17.9835 33.7909 17.1343 29.9579 17.1343 25.888C17.1343 21.8182 17.9835 17.9852 19.5272 15.0945C21.1202 12.1102 23.2715 10.4668 25.5847 10.4668C25.8428 10.4668 26.0539 10.6777 26.0539 10.9356V40.8405C26.0539 41.0983 25.8428 41.3093 25.5847 41.3093Z" fill="#E30413"/>
<path d="M25.5848 10.9377V40.8426C21.1766 40.8426 17.6036 34.147 17.6036 25.8902C17.6036 17.6333 21.1766 10.9377 25.5848 10.9377ZM25.5848 10C23.091 10 20.7918 11.7325 19.1144 14.8763C17.5355 17.8349 16.6675 21.7453 16.6675 25.8902C16.6675 30.035 17.5379 33.9478 19.1144 36.904C20.7918 40.0478 23.091 41.7803 25.5848 41.7803C26.1033 41.7803 26.5232 41.3607 26.5232 40.8426V10.9377C26.5232 10.6892 26.4247 10.4501 26.2487 10.2743C26.0728 10.0985 25.8335 10 25.5848 10Z" fill="#533716"/>
</svg>
