<svg width="52" height="52" viewBox="0 0 52 52" fill="none" xmlns="http://www.w3.org/2000/svg">
<path d="M26.8516 16.8735C26.2721 16.7727 25.709 16.8735 25.2187 17.1174L25.695 14.4143C25.9483 12.9772 24.9841 11.6034 23.5483 11.3502C22.9689 11.2494 22.4058 11.3502 21.9178 11.594L21.9249 11.5542C22.1782 10.1171 21.214 8.74325 19.7759 8.49006C18.4949 8.265 17.268 9.00817 16.8363 10.1897C16.4562 9.77009 15.9471 9.46298 15.3465 9.35748C13.9084 9.10429 12.5336 10.0678 12.2803 11.5026L10.7952 19.9142C10.3682 19.4172 9.77234 19.0608 9.08026 18.9366C7.4826 18.6553 5.95298 19.7243 5.67145 21.3208L4.07379 30.3748C2.98523 36.5428 7.12131 42.4436 13.2938 43.5314C19.4662 44.6192 25.3736 40.4861 26.4598 34.318L28.9982 19.9376C29.2516 18.5005 28.2873 17.1267 26.8516 16.8735V16.8735ZM23.3606 12.4145C24.2099 12.5646 24.78 13.3757 24.6299 14.2267L23.7829 19.021L22.2885 27.4935C21.3477 26.9379 20.3718 26.4526 19.3677 26.0424L21.5471 13.6852C21.6973 12.8365 22.509 12.2668 23.3606 12.4169V12.4145ZM17.7771 10.8204C17.9272 9.9717 18.7389 9.40202 19.5882 9.55206C20.4375 9.7021 21.0076 10.5133 20.8574 11.3643L20.482 13.4953L18.3378 25.6509C17.3524 25.3039 16.3413 25.0273 15.3067 24.821L17.4955 12.4192L17.7771 10.8204V10.8204ZM13.3477 11.6878C13.4979 10.8391 14.3096 10.2694 15.1589 10.4195C16.0081 10.5695 16.5782 11.3807 16.4281 12.2317L14.2392 24.6334C13.2023 24.4763 12.1512 24.3919 11.1049 24.3826L11.4638 22.343L13.3454 11.6878H13.3477ZM25.397 34.1305C24.4117 39.7101 19.0674 43.4494 13.4838 42.4671C7.89785 41.4824 4.15591 36.1419 5.1389 30.5623L6.73656 21.5084C6.91486 20.5003 7.88143 19.8228 8.89023 20.0009C9.89903 20.1791 10.577 21.145 10.3987 22.1531L9.45797 27.4795C9.44624 27.5475 9.44859 27.6155 9.46266 27.6811C9.46736 27.7022 9.47674 27.7233 9.48612 27.7444C9.5002 27.7866 9.51428 27.8265 9.53774 27.8616C9.55181 27.8827 9.56824 27.9015 9.58466 27.9202C9.61046 27.9507 9.63862 27.9788 9.67146 28.0046C9.69258 28.021 9.71604 28.0328 9.7395 28.0468C9.75827 28.0562 9.77234 28.0726 9.79346 28.0796C12.7823 29.2542 15.5061 31.1391 17.6738 33.5256C17.8756 33.7483 18.2181 33.7647 18.4386 33.5631C18.6615 33.3615 18.6779 33.0216 18.4762 32.7989C16.299 30.3982 13.5823 28.4829 10.6005 27.238L10.9149 25.4633C12.1395 25.4633 13.3712 25.5665 14.5817 25.7798C14.5817 25.7798 14.5841 25.7798 14.5864 25.7798C14.5888 25.7798 14.5888 25.7798 14.5911 25.7798C17.3853 26.2721 20.0058 27.2943 22.38 28.8134C22.441 28.8533 22.509 28.8791 22.5771 28.8908C22.7859 28.9283 23.0064 28.8392 23.126 28.6493C23.126 28.647 23.126 28.6423 23.1307 28.6399C23.173 28.5766 23.2082 28.5063 23.2222 28.4266V28.4079L24.848 19.2085C24.9982 18.3599 25.8099 17.7902 26.6615 17.9402C27.5108 18.0903 28.0809 18.9014 27.9307 19.7524L25.3923 34.1328L25.397 34.1305Z" fill="#533716"/>
<path d="M23.1098 19.9376L25.6483 34.318C26.7368 40.4861 32.6442 44.6192 38.8143 43.5314C44.9867 42.4436 49.1228 36.5405 48.0342 30.3748L46.4366 21.3208C46.1551 19.7243 44.6254 18.6553 43.0278 18.9366C42.3333 19.0585 41.7398 19.4172 41.3128 19.9142L39.8278 11.5026C39.5744 10.0655 38.1996 9.10429 36.7615 9.35748C36.1609 9.46298 35.6518 9.77009 35.2717 10.1897C34.8401 9.00817 33.6131 8.265 32.3321 8.49006C30.894 8.74325 29.9298 10.1171 30.1832 11.5542L30.1902 11.594C29.7022 11.3502 29.1368 11.2494 28.5597 11.3502C27.1216 11.6034 26.1597 12.9772 26.4131 14.4143L26.8893 17.1174C26.399 16.8735 25.8359 16.7727 25.2565 16.8735C23.8183 17.1267 22.8565 18.5005 23.1098 19.9376V19.9376ZM30.5609 13.6828L32.7404 26.04C31.7339 26.4503 30.7603 26.9356 29.8195 27.4912L28.3251 19.0186L27.4782 14.2244C27.328 13.3757 27.8981 12.5622 28.7474 12.4122C29.5967 12.2622 30.4107 12.8318 30.5609 13.6805V13.6828ZM34.6148 12.4192L36.8037 24.821C35.7691 25.0273 34.758 25.3039 33.7726 25.6509L31.6283 13.4953L31.253 11.3643C31.1028 10.5156 31.6729 9.7021 32.5222 9.55206C33.3714 9.40202 34.1855 9.9717 34.3333 10.8204L34.6148 12.4192V12.4192ZM40.6418 22.3406L41.0008 24.3802C39.9545 24.3896 38.9058 24.474 37.8665 24.6311L35.6776 12.2293C35.5275 11.3807 36.0976 10.5672 36.9468 10.4171C37.7961 10.2671 38.6102 10.8368 38.758 11.6854L40.6371 22.3383L40.6418 22.3406ZM26.7134 34.1305L24.1749 19.7501C24.0248 18.9014 24.5949 18.0879 25.4442 17.9379C26.2934 17.7878 27.1075 18.3575 27.2576 19.2062L28.8811 28.4055V28.4243C28.8999 28.504 28.9327 28.5743 28.975 28.6376C28.975 28.6399 28.975 28.6446 28.9796 28.647C29.1016 28.8369 29.3222 28.9236 29.5286 28.8885C29.5967 28.8767 29.6647 28.8509 29.7257 28.8111C32.0999 27.2919 34.7204 26.2698 37.5146 25.7775H37.5193C37.5193 25.7775 37.5216 25.7775 37.5239 25.7775C38.7345 25.5641 39.9662 25.4633 41.1908 25.461L41.5052 27.2357C38.5234 28.4805 35.809 30.3959 33.6295 32.7965C33.4301 33.0169 33.4465 33.3592 33.667 33.5608C33.8876 33.7601 34.2301 33.746 34.4319 33.5233C36.5973 31.1344 39.3234 29.2518 42.3122 28.0773C42.331 28.0703 42.3474 28.0539 42.3662 28.0445C42.3896 28.0328 42.4131 28.0187 42.4342 28.0023C42.4671 27.9765 42.4952 27.9507 42.521 27.9179C42.5374 27.8991 42.5539 27.8804 42.5679 27.8593C42.5914 27.8218 42.6055 27.7819 42.6196 27.7421C42.6266 27.721 42.6383 27.7022 42.643 27.6788C42.6571 27.6131 42.6594 27.5451 42.6477 27.4771L41.7069 22.1507C41.5286 21.1426 42.2067 20.1768 43.2155 19.9986C44.2243 19.8204 45.1908 20.4956 45.3691 21.506L46.9668 30.56C47.9521 36.1396 44.2102 41.4801 38.6242 42.4647C33.0383 43.4494 27.6964 39.7101 26.711 34.1281L26.7134 34.1305Z" fill="#533716"/>
<path d="M26.5229 41.3092C26.2649 41.3092 26.0537 41.0982 26.0537 40.8404V10.9379C26.0537 10.68 26.2649 10.469 26.5229 10.469C28.8361 10.469 30.9874 12.1124 32.5804 15.0968C34.1241 17.9874 34.9734 21.8204 34.9734 25.8903C34.9734 29.9601 34.1241 33.7932 32.5804 36.6838C30.9874 39.6682 28.8361 41.3116 26.5229 41.3116V41.3092Z" fill="#E30413"/>
<path d="M26.5229 10.9377C30.9311 10.9377 34.5041 17.6333 34.5041 25.8902C34.5041 34.147 30.9311 40.8426 26.5229 40.8426V10.9377ZM26.5229 10C26.0044 10 25.5845 10.4196 25.5845 10.9377V40.8426C25.5845 41.3607 26.0044 41.7803 26.5229 41.7803C29.0167 41.7803 31.3159 40.0478 32.9933 36.904C34.5722 33.9454 35.4402 30.035 35.4402 25.8902C35.4402 21.7453 34.5698 17.8326 32.9933 14.8763C31.3159 11.7325 29.0167 10 26.5229 10V10Z" fill="#533716"/>
<path d="M25.5847 41.3091C23.2715 41.3091 21.1202 39.6657 19.5272 36.6813C17.9835 33.7907 17.1343 29.9577 17.1343 25.8878C17.1343 21.818 17.9835 17.985 19.5272 15.0943C21.1202 12.11 23.2715 10.4666 25.5847 10.4666C25.8428 10.4666 26.0539 10.6775 26.0539 10.9354V40.8403C26.0539 41.0981 25.8428 41.3091 25.5847 41.3091Z" fill="#E30413"/>
<path d="M25.5848 10.9377V40.8426C21.1766 40.8426 17.6036 34.147 17.6036 25.8902C17.6036 17.6333 21.1766 10.9377 25.5848 10.9377ZM25.5848 10C23.091 10 20.7918 11.7325 19.1144 14.8763C17.5355 17.8349 16.6675 21.7453 16.6675 25.8902C16.6675 30.035 17.5379 33.9478 19.1144 36.904C20.7918 40.0478 23.091 41.7803 25.5848 41.7803C26.1033 41.7803 26.5232 41.3607 26.5232 40.8426V10.9377C26.5232 10.6892 26.4247 10.4501 26.2487 10.2743C26.0728 10.0985 25.8335 10 25.5848 10Z" fill="#533716"/>
</svg>
