<svg width="425" height="425" viewBox="0 0 425 425" fill="none" xmlns="http://www.w3.org/2000/svg">
<g filter="url(#filter0_i_114_13006)">
<path d="M412 213C412 160.222 390.929 109.605 353.421 72.2858C315.914 34.966 265.043 14 212 14C158.957 14 108.086 34.966 70.5787 72.2857C33.0714 109.605 12 160.222 12 213L412 213Z" fill="#FDBF52"/>
</g>
<path d="M372 214C372 171.565 355.143 130.869 325.137 100.863C295.131 70.8571 254.435 54 212 54C169.565 54 128.869 70.8571 98.8629 100.863C68.8571 130.869 52 171.565 52 214" stroke="#FCDBA3" stroke-width="3"/>
<path d="M12 213C12 266.043 33.0714 316.914 70.5786 354.421C108.086 391.929 158.957 413 212 413C265.043 413 315.914 391.929 353.421 354.421C390.929 316.914 412 266.043 412 213L212 213L12 213Z" fill="#FDBF52"/>
<path d="M12 213C12 266.043 33.0714 316.914 70.5786 354.421C108.086 391.929 158.957 413 212 413C265.043 413 315.914 391.929 353.421 354.421C390.929 316.914 412 266.043 412 213L212 213L12 213Z" fill="black" fill-opacity="0.2"/>
<g filter="url(#filter1_di_114_13006)">
<path d="M12 213C12 250.13 33.0714 285.74 70.5786 311.995C108.086 338.25 158.957 353 212 353C265.043 353 315.914 338.25 353.421 311.995C390.929 285.74 412 250.13 412 213L212 213L12 213Z" fill="#FCDBA3"/>
</g>
<path d="M52 213C52 242.704 68.8571 271.192 98.8629 292.196C128.869 313.2 169.565 325 212 325C254.435 325 295.131 313.2 325.137 292.196C355.143 271.192 372 242.704 372 213" stroke="#FDBF52" stroke-width="3"/>
<path d="M175.692 124.656C175.148 122.256 173.708 118.736 172.204 116.016L169.644 116.88C171.052 119.6 172.428 123.216 172.94 125.616L175.692 124.656ZM168.204 111.152H165.388V129.744H168.204V111.152ZM160.812 116.592C160.364 119.984 159.596 123.6 158.476 125.968C159.18 126.256 160.428 126.8 161.004 127.184C162.06 124.688 162.988 120.752 163.532 117.104L160.812 116.592ZM154.732 120.464C154.668 123.248 154.38 126.576 153.036 129.904C152.076 129.104 151.052 128.272 150.124 127.536C150.7 125.52 151.244 123.12 151.788 120.656L154.732 120.464ZM158.54 120.176L158.572 117.68L157.388 117.744V115.632H154.732V117.904L152.332 118C152.748 115.728 153.132 113.52 153.388 111.472L150.636 111.28C150.412 113.392 150.028 115.792 149.612 118.128L146.316 118.288L146.604 120.976L149.068 120.816C148.428 123.696 147.756 126.416 147.084 128.464C148.556 129.616 150.22 131.056 151.82 132.464C150.54 134.576 148.716 136.656 146.156 138.512C146.796 138.928 147.756 139.856 148.204 140.464C150.732 138.64 152.588 136.528 153.932 134.352C155.052 135.472 156.076 136.496 156.78 137.36L158.604 135.024C157.804 134.096 156.62 132.944 155.276 131.76C156.972 127.76 157.356 123.664 157.388 120.272L158.54 120.176ZM171.66 126.672C169.484 132.848 164.876 136.176 157.548 137.744C158.156 138.384 158.86 139.536 159.148 140.4C167.116 138.32 172.044 134.544 174.444 127.472L171.66 126.672ZM209.132 127.504H196.3V122.96H207.308V120.112H196.3V115.408C199.948 114.96 203.34 114.416 206.124 113.616L203.916 111.184C198.924 112.624 189.9 113.456 182.348 113.808C182.636 114.448 183.02 115.664 183.052 116.4C186.284 116.272 189.772 116.048 193.196 115.76V120.112H182.508V122.96H193.196V127.504H180.332V130.416H193.196V136.656C193.196 137.328 192.94 137.552 192.236 137.552C191.5 137.584 188.94 137.584 186.38 137.488C186.86 138.288 187.436 139.632 187.628 140.432C190.924 140.464 193.1 140.4 194.412 139.92C195.756 139.472 196.3 138.64 196.3 136.688V130.416H209.132V127.504ZM231.532 128.944H224.716V122.416H231.532V128.944ZM221.9 119.792V131.536H234.508V119.792H221.9ZM218.028 136.016V115.408H238.476V136.016H218.028ZM214.956 112.368V140.528H218.028V138.8H238.476V140.528H241.676V112.368H214.956ZM256.46 136.688V134.192H267.276V136.688H256.46ZM267.276 131.952H256.46V129.52H267.276V131.952ZM265.9 125.008C266.348 125.744 266.828 126.416 267.372 127.088H256.62C257.196 126.416 257.676 125.744 258.188 125.008H265.9ZM276.172 125.008V122.448H259.724C260.108 121.744 260.428 121.072 260.748 120.368H273.452V117.968H261.644C261.868 117.328 262.06 116.688 262.22 116.048H274.444V113.552H262.764C262.892 112.848 262.988 112.144 263.084 111.44L259.948 111.184C259.852 111.952 259.756 112.752 259.596 113.552H249.356V116.048H259.052C258.86 116.688 258.668 117.328 258.412 117.968H250.444V120.368H257.388C257.068 121.072 256.652 121.744 256.236 122.448H247.66V125.008H254.348C252.524 127.216 250.092 129.168 247.052 130.704C247.788 131.184 248.748 132.368 249.1 133.104C250.668 132.272 252.076 131.312 253.356 130.288V140.464H256.46V139.184H267.276V140.336H270.508V130.224C271.852 131.344 273.292 132.304 274.764 133.008C275.212 132.208 276.108 131.056 276.812 130.512C273.964 129.392 271.116 127.376 269.196 125.008H276.172ZM155.66 154.832C154.284 153.936 151.564 152.496 149.708 151.6L148.044 153.712C149.932 154.768 152.588 156.304 153.9 157.232L155.66 154.832ZM154.028 163.408C152.684 162.544 149.964 161.136 148.14 160.24L146.508 162.448C148.428 163.44 151.084 164.976 152.396 165.872L154.028 163.408ZM149.644 180.112C151.532 177.136 153.676 173.296 155.308 170L153.164 168.016C151.308 171.632 148.844 175.728 147.148 178.128L149.644 180.112ZM170.988 176.464H160.396V170.704H170.988V176.464ZM175.692 163.28V160.432H167.212V155.408C169.868 154.928 172.364 154.32 174.412 153.552L172.076 151.248C168.556 152.56 162.348 153.584 156.876 154.16C157.228 154.832 157.612 155.952 157.74 156.656C159.852 156.496 162.156 156.24 164.396 155.888V160.432H155.5V163.28H164.396V168.016H157.676V180.496H160.396V179.152H170.988V180.336H173.804V168.016H167.212V163.28H175.692ZM194.252 153.744H189.292C189.036 152.88 188.62 151.792 188.236 150.992L185.548 151.632C185.804 152.272 186.092 153.008 186.284 153.744H180.62V156.272H194.252V153.744ZM184.524 169.2C186.06 169.776 188.076 170.736 189.164 171.28L190.348 169.648C189.292 169.104 187.244 168.272 185.708 167.728L184.524 169.2ZM184.3 166.512H190.508V171.76C188.108 172.656 185.836 173.552 184.172 174.064C184.268 172.848 184.3 171.664 184.3 170.576V166.512ZM193.452 164.272H181.804V170.544C181.804 173.2 181.676 176.656 180.236 179.184C180.844 179.472 181.964 180.24 182.412 180.688C183.5 178.832 183.948 176.432 184.172 174.096L185.068 176.464C186.7 175.664 188.588 174.768 190.508 173.808V177.232C190.508 177.584 190.412 177.68 190.028 177.712C189.644 177.744 188.524 177.744 187.308 177.68C187.66 178.384 188.108 179.536 188.268 180.304C190.06 180.304 191.34 180.272 192.3 179.824C193.196 179.376 193.452 178.608 193.452 177.296V164.272ZM189.9 156.4C189.612 157.488 189.068 158.992 188.62 160.144H185.964L186.092 160.112C185.9 159.12 185.42 157.552 184.94 156.4L182.54 156.944C182.892 157.936 183.276 159.184 183.5 160.144H180.108V162.672H194.764V160.144H191.18C191.628 159.216 192.076 158.064 192.556 157.008L189.9 156.4ZM200.78 177.904C199.34 177.904 199.116 177.712 199.116 176.592V175.664H206.988C206.86 177.52 206.604 177.904 205.612 177.904H200.78ZM207.852 175.664V173.84H199.116V172.112H207.532V170.256H199.116V168.592H207.724V166.768H199.116V165.136H207.724V158.192H199.116V155.952H208.972V153.52H199.116V151.152H196.204V160.464H204.876V162.864H196.204V176.624C196.204 179.6 197.164 180.336 200.396 180.336H205.868C208.46 180.336 209.228 179.44 209.58 176.4C208.972 176.272 208.14 175.984 207.5 175.664H207.852ZM222.316 156.336C221.9 157.328 221.388 158.32 220.908 159.152H217.836C218.316 158.224 218.796 157.296 219.18 156.336H222.316ZM224.972 164.272H222.508V161.552H224.972V164.272ZM224.972 169.232H222.508V166.512H224.972V169.232ZM217.964 164.272V161.552H220.364V164.272H217.964ZM220.364 166.512V169.232H217.964V166.512H220.364ZM215.5 171.664H227.5V159.152H223.628C224.428 157.84 225.196 156.368 225.836 155.024L224.108 153.84L223.596 154H220.076C220.364 153.136 220.62 152.304 220.844 151.504L218.092 151.12C217.388 154.128 215.916 157.968 213.452 160.848C214.124 161.2 215.02 161.968 215.5 162.576V171.664ZM215.436 180.528C216.972 178.864 217.548 176.112 217.868 173.392L215.756 172.88C215.468 175.408 214.892 177.904 213.452 179.408L215.436 180.528ZM218.732 173.136C219.02 175.088 219.18 177.584 219.052 179.216L221.164 178.96C221.228 177.328 221.068 174.832 220.684 172.88L218.732 173.136ZM221.74 173.232C222.412 175.056 222.988 177.424 223.084 178.992L225.1 178.512C224.94 176.976 224.364 174.608 223.628 172.816L221.74 173.232ZM224.876 172.976C225.868 174.832 226.86 177.264 227.244 178.864L229.196 178.128C228.812 176.56 227.756 174.128 226.732 172.304L224.876 172.976ZM243.084 169.936H236.716V166.16H241.772V163.568H236.716V160.048H242.348V157.424H239.052C239.916 155.984 240.876 153.808 241.772 151.856L238.764 151.12C238.284 152.88 237.292 155.344 236.492 156.912L238.252 157.424H232.236L233.772 156.816C233.42 155.28 232.428 152.944 231.436 151.184L229.004 152.048C229.868 153.68 230.7 155.856 231.084 157.424H228.3V160.048H233.804V163.568H228.972V166.16H233.804V169.936H228.012V172.56H233.804V180.464H236.716V172.56H243.084V169.936ZM272.204 155.824V157.872H269.356V155.824H272.204ZM272.204 162.288H269.356V160.112H272.204V162.288ZM266.892 157.872H261.772V160.112H266.892V162.288H263.116V164.464H266.892V166.448H262.764V168.752H266.892V170.832H261.996V173.168H266.892V176.624H269.356V173.168H275.788V170.832H269.356V168.752H274.86V166.448H269.356V164.464H274.508V160.112H276.652V157.872H274.508V153.68H269.356V151.312H266.892V153.68H263.116V155.824H266.892V157.872ZM252.364 151.216C251.212 155.792 249.292 160.304 246.956 163.28C247.436 164.016 248.172 165.68 248.364 166.384C249.068 165.52 249.708 164.528 250.348 163.44V180.496H252.972V158.064C253.772 156.08 254.508 154 255.084 151.952L252.364 151.216ZM260.556 162.576L260.076 162.608H258.284C259.724 160.208 261.164 157.2 262.348 154.128L260.62 152.976L259.788 153.328H255.02V155.888H258.796C257.772 158.544 256.524 160.912 256.044 161.68C255.436 162.64 254.636 163.536 254.028 163.696C254.412 164.208 255.02 165.296 255.244 165.808C255.244 165.552 255.692 165.232 256.172 164.944H259.404C259.116 167.568 258.636 169.808 257.964 171.728C257.292 170.576 256.748 169.2 256.3 167.536L254.188 168.272C254.892 170.8 255.788 172.752 256.844 174.352C255.852 176.24 254.604 177.648 253.1 178.672C253.676 179.024 254.636 179.952 255.084 180.528C256.428 179.504 257.58 178.16 258.572 176.464C261.58 179.376 265.516 180.048 270.06 180.048H275.724C275.852 179.312 276.268 178.096 276.684 177.488C275.276 177.52 271.308 177.52 270.156 177.52C266.124 177.488 262.476 176.912 259.756 174.128C260.94 171.216 261.708 167.536 262.124 162.928L260.556 162.576Z" fill="white"/>
<rect x="165" y="45" width="92.5" height="26" fill="#FDBF52"/>
<path d="M182.268 51.078C180.522 51.636 177.588 52.032 175.122 52.212C175.23 52.554 175.374 53.058 175.41 53.436C177.93 53.292 180.936 52.914 182.934 52.302L182.268 51.078ZM181.854 55.722C182.25 55.11 182.7 54.21 183.132 53.328L181.98 52.878C181.728 53.634 181.242 54.66 180.846 55.326L181.854 55.722ZM177.3 55.398C177.174 54.858 176.868 54.084 176.526 53.508L175.41 53.958C175.716 54.552 176.04 55.38 176.13 55.938L177.3 55.398ZM178.452 61.014C178.434 61.464 178.398 61.896 178.344 62.274H175.068V63.534H178.056C177.642 64.83 176.742 65.676 174.78 66.234C175.086 66.504 175.482 67.062 175.626 67.422C177.372 66.882 178.398 66.09 179.01 65.01C180.162 65.73 181.404 66.648 182.034 67.296L183.006 66.27C182.25 65.532 180.738 64.56 179.514 63.84L179.568 63.534H183.06V62.274H179.802C179.856 61.878 179.892 61.446 179.91 61.014H178.452ZM180.558 58.602C180.774 58.89 180.972 59.214 181.17 59.556L178.038 59.808C179.352 58.962 180.684 57.936 181.944 56.73L180.9 55.938C180.414 56.442 179.874 56.946 179.352 57.396L177.462 57.432C178.074 56.946 178.704 56.334 179.262 55.722L178.92 55.488L180.036 55.002C179.928 54.48 179.622 53.706 179.334 53.13L178.2 53.562C178.47 54.156 178.758 54.912 178.848 55.434L178.2 54.984C177.534 55.938 176.544 56.784 176.238 57.018C175.95 57.234 175.698 57.396 175.446 57.45C175.572 57.81 175.752 58.512 175.806 58.8C176.04 58.71 176.364 58.638 177.912 58.566C177.372 58.944 176.94 59.25 176.688 59.394C176.112 59.772 175.68 60.006 175.284 60.078C175.392 60.438 175.572 61.158 175.626 61.428C176.04 61.212 176.652 61.158 181.746 60.636C181.908 60.96 182.034 61.266 182.124 61.518L183.348 60.996C183.06 60.186 182.394 58.998 181.71 58.116L180.558 58.602ZM185.508 62.958H187.416V65.082H185.508V62.958ZM187.416 57.99H185.508V55.974H187.416V57.99ZM187.416 61.536H185.508V59.412H187.416V61.536ZM191.376 65.082H188.91V62.958H190.908V61.536H188.91V59.412H190.908V57.99H188.91V55.974H191.16V54.462H188.91L189.756 54.156C189.486 53.418 188.946 52.266 188.46 51.402L187.056 51.834C187.506 52.626 187.974 53.724 188.244 54.462H185.58C185.994 53.436 186.318 52.356 186.606 51.276L185.04 50.898C184.428 53.418 183.402 55.92 182.07 57.504C182.412 57.81 182.988 58.494 183.222 58.818C183.492 58.476 183.744 58.116 183.996 57.702V67.404H185.508V66.594H191.376V65.082ZM207.216 53.85H201.726V52.698H207.216V53.85ZM207.216 56.154H201.726V54.984H207.216V56.154ZM208.872 51.474H200.142V57.378H208.872V51.474ZM198.684 52.842C198.036 52.212 196.668 51.456 195.606 51.006L194.67 52.248C195.732 52.752 197.082 53.598 197.694 54.21L198.684 52.842ZM197.766 57.504C197.1 56.928 195.732 56.208 194.67 55.794L193.734 57.054C194.832 57.522 196.164 58.314 196.794 58.908L197.766 57.504ZM196.974 60.456C196.092 62.508 194.904 64.812 194.076 66.198L195.57 67.188C196.47 65.496 197.496 63.354 198.27 61.464L196.974 60.456ZM210.312 59.682V58.314H198.522V59.682H200.826C200.052 60.96 198.918 62.148 197.73 62.94C198.072 63.192 198.648 63.678 198.9 63.948C199.566 63.444 200.25 62.796 200.862 62.076H202.302C201.402 63.606 200.052 64.992 198.63 65.91C198.954 66.162 199.53 66.684 199.782 66.954C201.366 65.784 202.932 64.02 203.976 62.076H205.416C204.732 63.876 203.616 65.46 202.248 66.504C202.59 66.702 203.202 67.17 203.454 67.422C204.912 66.162 206.19 64.254 206.982 62.076H208.134C207.954 64.524 207.738 65.496 207.468 65.784C207.324 65.964 207.18 66 206.946 65.982C206.712 65.982 206.172 65.982 205.578 65.928C205.812 66.306 205.956 66.936 205.992 67.368C206.694 67.404 207.378 67.404 207.756 67.35C208.188 67.296 208.512 67.17 208.8 66.828C209.286 66.288 209.538 64.884 209.772 61.41C209.79 61.194 209.808 60.762 209.808 60.762H201.87C202.104 60.402 202.32 60.042 202.518 59.682H210.312ZM220.104 51.15V65.208C220.104 65.568 219.978 65.676 219.6 65.694C219.222 65.712 217.908 65.712 216.684 65.658C216.954 66.144 217.242 66.936 217.35 67.404C219.06 67.422 220.212 67.368 220.932 67.098C221.634 66.81 221.922 66.324 221.922 65.208V51.15H220.104ZM224.406 55.74C225.864 58.332 227.286 61.68 227.664 63.804L229.482 63.084C229.032 60.906 227.556 57.63 226.026 55.128L224.406 55.74ZM215.442 55.272C215.028 57.648 214.074 60.744 212.562 62.616C213.012 62.778 213.75 63.192 214.164 63.498C215.73 61.5 216.738 58.242 217.332 55.614L215.442 55.272ZM247.14 63.156C245.754 62.49 243.036 61.392 241.218 60.708L240.354 62.004C242.226 62.778 244.908 63.948 246.204 64.668L247.14 63.156ZM247.896 58.998V57.342H240.3V54.858H246.15V53.256H240.3V50.916H238.536V57.342H231.858V58.998H238.59V67.404H240.354V58.998H247.896Z" fill="#573605"/>
<path d="M206.07 300.77L205.97 301.917L204.374 301.778L204.474 300.63L206.07 300.77ZM205.753 304.392L204.157 304.252L204.264 303.033L205.86 303.173L205.753 304.392ZM202.993 301.657L200.124 301.406L200.014 302.661L202.883 302.912L202.777 304.131L200.661 303.946L200.554 305.166L202.67 305.351L202.573 306.463L200.26 306.26L200.147 307.551L202.46 307.754L202.358 308.919L199.614 308.679L199.5 309.988L202.243 310.228L202.074 312.165L203.455 312.286L203.624 310.349L207.228 310.664L207.343 309.355L203.739 309.04L203.841 307.874L206.925 308.144L207.038 306.853L203.954 306.583L204.051 305.472L206.938 305.724L207.151 303.285L208.353 303.391L208.462 302.135L207.261 302.03L207.466 299.681L204.579 299.429L204.696 298.102L203.315 297.981L203.199 299.308L201.083 299.123L200.978 300.324L203.094 300.509L202.993 301.657ZM195.179 297.215C194.309 299.723 193.012 302.157 191.557 303.71C191.79 304.146 192.121 305.114 192.194 305.518C192.63 305.069 193.038 304.544 193.45 303.966L192.614 313.523L194.084 313.652L195.184 301.082C195.729 300.01 196.244 298.88 196.667 297.761L195.179 297.215ZM199.212 303.982L198.942 303.977L197.938 303.889C198.862 302.614 199.816 301 200.631 299.336L199.719 298.606L199.235 298.762L196.563 298.529L196.438 299.963L198.554 300.148C197.85 301.586 197.034 302.852 196.728 303.259C196.34 303.767 195.848 304.23 195.499 304.29C195.689 304.595 195.977 305.235 196.077 305.533C196.09 305.389 196.356 305.232 196.639 305.094L198.451 305.253C198.161 306.709 197.782 307.941 197.311 308.984C196.991 308.305 196.754 307.507 196.584 306.553L195.365 306.862C195.635 308.313 196.042 309.451 196.555 310.399C195.906 311.408 195.138 312.136 194.245 312.636C194.551 312.862 195.043 313.429 195.266 313.774C196.069 313.266 196.781 312.569 197.42 311.667C198.962 313.446 201.135 314.016 203.681 314.239L206.855 314.516C206.963 314.11 207.256 313.449 207.519 313.129C206.728 313.078 204.505 312.883 203.859 312.827C201.601 312.611 199.585 312.11 198.198 310.416C199.004 308.843 199.615 306.818 200.074 304.256L199.212 303.982Z" fill="#927858"/>
<path d="M224.57 305.077L227.547 304.817L227.653 306.036L224.677 306.296L224.57 305.077ZM224.361 302.692L227.338 302.432L227.44 303.597L224.463 303.858L224.361 302.692ZM224.78 307.48L229.335 307.081L229.132 304.768L230.8 304.622L230.675 303.188L229.007 303.334L228.814 301.128L224.259 301.527L224.164 300.433L230.189 299.906L230.06 298.435L224.071 298.959C223.756 298.463 223.341 297.849 222.958 297.394L221.345 297.951C221.593 298.309 221.864 298.719 222.134 299.129L215.231 299.733L215.686 304.933C215.916 307.569 216.111 311.238 214.915 313.89C215.288 314.02 216.028 314.425 216.34 314.687C217.645 311.844 217.529 307.626 217.282 304.793L216.955 301.063L222.478 300.58L222.574 301.674L218.234 302.054L218.336 303.219L222.676 302.84L222.778 304.005L217.649 304.454L217.756 305.673L222.884 305.224L222.991 306.444L218.49 306.838L218.594 308.021L219.096 307.977L218.33 308.929C219.238 309.392 220.453 310.063 221.054 310.534L221.914 309.411C221.301 309.013 220.125 308.375 219.239 307.965L223.095 307.627L223.253 309.438C221.211 310.466 219.099 311.518 217.726 312.144L218.491 313.451C219.888 312.696 221.663 311.71 223.368 310.747L223.506 312.325C223.531 312.612 223.433 312.729 223.11 312.757C222.825 312.8 221.732 312.914 220.723 312.948C220.989 313.304 221.258 313.895 221.366 314.301C222.872 314.17 223.839 314.067 224.464 313.777C225.073 313.507 225.273 313.11 225.193 312.196L225.055 310.618C226.989 311.244 229.23 312.077 230.455 312.657L231.105 311.408C230.221 311.015 228.877 310.518 227.482 310.062C228.316 309.483 229.23 308.771 230.037 308.086L228.714 307.208C228.054 307.934 226.897 308.957 226.013 309.594C225.642 309.482 225.29 309.387 224.937 309.273L224.78 307.48Z" fill="#927858"/>
<defs>
<filter id="filter0_i_114_13006" x="12" y="14" width="400" height="203" filterUnits="userSpaceOnUse" color-interpolation-filters="sRGB">
<feFlood flood-opacity="0" result="BackgroundImageFix"/>
<feBlend mode="normal" in="SourceGraphic" in2="BackgroundImageFix" result="shape"/>
<feColorMatrix in="SourceAlpha" type="matrix" values="0 0 0 0 0 0 0 0 0 0 0 0 0 0 0 0 0 0 127 0" result="hardAlpha"/>
<feOffset dy="4"/>
<feGaussianBlur stdDeviation="2"/>
<feComposite in2="hardAlpha" operator="arithmetic" k2="-1" k3="1"/>
<feColorMatrix type="matrix" values="0 0 0 0 0 0 0 0 0 0 0 0 0 0 0 0 0 0 0.35 0"/>
<feBlend mode="normal" in2="shape" result="effect1_innerShadow_114_13006"/>
</filter>
<filter id="filter1_di_114_13006" x="8" y="213" width="408" height="148" filterUnits="userSpaceOnUse" color-interpolation-filters="sRGB">
<feFlood flood-opacity="0" result="BackgroundImageFix"/>
<feColorMatrix in="SourceAlpha" type="matrix" values="0 0 0 0 0 0 0 0 0 0 0 0 0 0 0 0 0 0 127 0" result="hardAlpha"/>
<feOffset dy="4"/>
<feGaussianBlur stdDeviation="2"/>
<feComposite in2="hardAlpha" operator="out"/>
<feColorMatrix type="matrix" values="0 0 0 0 0 0 0 0 0 0 0 0 0 0 0 0 0 0 0.25 0"/>
<feBlend mode="normal" in2="BackgroundImageFix" result="effect1_dropShadow_114_13006"/>
<feBlend mode="normal" in="SourceGraphic" in2="effect1_dropShadow_114_13006" result="shape"/>
<feColorMatrix in="SourceAlpha" type="matrix" values="0 0 0 0 0 0 0 0 0 0 0 0 0 0 0 0 0 0 127 0" result="hardAlpha"/>
<feOffset dy="3"/>
<feGaussianBlur stdDeviation="4"/>
<feComposite in2="hardAlpha" operator="arithmetic" k2="-1" k3="1"/>
<feColorMatrix type="matrix" values="0 0 0 0 0 0 0 0 0 0 0 0 0 0 0 0 0 0 0.25 0"/>
<feBlend mode="normal" in2="shape" result="effect2_innerShadow_114_13006"/>
</filter>
</defs>
</svg>
