<svg width="425" height="425" viewBox="0 0 425 425" fill="none" xmlns="http://www.w3.org/2000/svg">
<g filter="url(#filter0_i_114_13036)">
<path d="M412 213C412 160.222 390.929 109.605 353.421 72.2858C315.914 34.966 265.043 14 212 14C158.957 14 108.086 34.966 70.5787 72.2857C33.0714 109.605 12 160.222 12 213L412 213Z" fill="#FDBF52"/>
</g>
<path d="M372 214C372 171.565 355.143 130.869 325.137 100.863C295.131 70.8571 254.435 54 212 54C169.565 54 128.869 70.8571 98.8629 100.863C68.8571 130.869 52 171.565 52 214" stroke="#FCDBA3" stroke-width="3"/>
<path d="M12 213C12 266.043 33.0714 316.914 70.5786 354.421C108.086 391.929 158.957 413 212 413C265.043 413 315.914 391.929 353.421 354.421C390.929 316.914 412 266.043 412 213L212 213L12 213Z" fill="#FDBF52"/>
<path d="M12 213C12 266.043 33.0714 316.914 70.5786 354.421C108.086 391.929 158.957 413 212 413C265.043 413 315.914 391.929 353.421 354.421C390.929 316.914 412 266.043 412 213L212 213L12 213Z" fill="black" fill-opacity="0.2"/>
<g filter="url(#filter1_di_114_13036)">
<path d="M12 213C12 250.13 33.0714 285.74 70.5786 311.995C108.086 338.25 158.957 353 212 353C265.043 353 315.914 338.25 353.421 311.995C390.929 285.74 412 250.13 412 213L212 213L12 213Z" fill="#FCDBA3"/>
</g>
<path d="M52 213C52 242.704 68.8571 271.192 98.8629 292.196C128.869 313.2 169.565 325 212 325C254.435 325 295.131 313.2 325.137 292.196C355.143 271.192 372 242.704 372 213" stroke="#FDBF52" stroke-width="3"/>
<path d="M154.444 130.608C153.196 129.584 151.948 128.56 150.764 127.664C151.372 125.392 151.948 122.672 152.492 119.92C153.964 119.824 155.468 119.728 157.036 119.632C157.004 122.8 156.62 126.768 154.444 130.608ZM159.948 115.248H157.036V116.784L153.036 117.008C153.324 115.088 153.612 113.232 153.804 111.472L150.668 111.312C150.508 113.136 150.252 115.12 149.932 117.168L146.22 117.328L146.54 120.272L149.42 120.112C148.78 123.248 148.108 126.256 147.404 128.496C149.068 129.808 150.956 131.408 152.78 133.008C151.244 134.928 149.1 136.688 146.252 138.224C146.924 138.736 147.916 139.792 148.396 140.496C151.244 138.896 153.388 137.04 155.02 135.088C156.428 136.432 157.676 137.68 158.54 138.736L160.716 136.464C159.756 135.344 158.348 134 156.78 132.624C159.5 128.112 159.916 123.248 159.948 119.44L161.196 119.344L161.228 116.56L159.948 116.624V115.248ZM165.004 134.512V117.328H171.148V134.512H165.004ZM162.22 114.512V139.696H165.004V137.328H171.148V139.248H174.092V114.512H162.22ZM199.372 115.6C199.084 116.432 198.604 117.488 198.156 118.384H191.18C190.956 117.552 190.476 116.464 189.964 115.6H199.372ZM208.428 118.384H201.196C201.612 117.68 202.028 116.912 202.508 116.048L200.332 115.6H206.764V113.264H196.716C196.396 112.464 195.948 111.568 195.5 110.864L192.62 111.408C192.94 111.984 193.196 112.624 193.452 113.264H182.54V115.6H189.356L187.212 116.08C187.564 116.784 187.916 117.616 188.14 118.384H181.068V120.752H208.428V118.384ZM201.9 125.936H187.564V124.112H201.9V125.936ZM201.9 129.616H187.564V127.792H201.9V129.616ZM204.844 122.128H184.748V131.568H192.78L191.564 132.688C193.324 133.648 195.532 135.088 196.556 136.112L198.38 134.256C197.484 133.424 195.852 132.368 194.316 131.568H204.844V122.128ZM182.956 139.728C184.588 138.224 185.9 135.856 186.828 133.872L184.364 132.784C183.532 134.672 182.124 136.88 180.524 138.288L182.956 139.728ZM192.876 137.808C191.308 137.808 191.02 137.68 191.02 136.88V133.104H188.14V136.912C188.14 139.536 189.004 140.24 192.588 140.24H198.22C200.972 140.24 201.772 139.376 202.124 135.824C201.356 135.664 200.204 135.248 199.564 134.864C199.436 137.456 199.212 137.808 197.964 137.808H192.876ZM202.124 133.552C203.692 135.28 205.356 137.68 206.028 139.248L208.588 138.064C207.82 136.464 206.092 134.16 204.492 132.464L202.124 133.552ZM242.316 131.184H235.532V124.4H241.58V121.616H235.532V115.44C237.9 115.056 240.14 114.608 241.996 114.064L240.204 111.6C236.556 112.784 230.38 113.552 225.004 113.968C225.324 114.608 225.612 115.728 225.708 116.432C227.884 116.304 230.188 116.112 232.492 115.824V131.184H229.164V119.056H226.348V131.184H224.172V133.968H242.316V131.184ZM221.868 122.032L221.356 122.128H218.668C220.268 119.664 221.932 116.624 223.372 113.488L221.548 112.272L220.684 112.656H213.772V115.312H219.532C218.284 118.032 216.78 120.464 216.268 121.232C215.564 122.256 214.764 123.056 214.156 123.216C214.54 123.792 215.116 124.976 215.308 125.488C215.308 125.232 215.916 124.816 216.46 124.528H220.652C220.3 127.184 219.724 129.52 218.924 131.504C217.9 130.192 217.036 128.56 216.396 126.544L214.092 127.536C215.052 130.288 216.236 132.4 217.644 134.064C216.492 135.92 215.084 137.296 213.388 138.192C213.964 138.832 214.732 139.984 215.084 140.752C216.94 139.6 218.476 138.096 219.756 136.144C223.532 139.12 228.492 139.824 234.348 139.824H242.188C242.348 138.96 242.828 137.584 243.308 136.88C241.452 136.944 235.852 136.944 234.412 136.944C229.196 136.944 224.524 136.336 221.068 133.648C222.348 130.704 223.18 127.024 223.564 122.416L221.868 122.032ZM255.596 130.576V124.912H262.028V130.576H255.596ZM276.332 130.576H265.1V124.912H274.028V122.128H265.1V117.712H274.764V114.832H256.236C256.652 113.872 257.1 112.816 257.484 111.824L254.476 111.024C253.004 115.28 250.444 119.344 247.5 121.872C248.236 122.32 249.516 123.28 250.092 123.792C251.724 122.192 253.324 120.08 254.7 117.712H262.028V122.128H252.62V130.576H247.468V133.456H262.028V140.528H265.1V133.456H276.332V130.576ZM171.692 169.008C170.188 170.256 167.852 171.76 165.772 172.944C164.524 171.792 163.532 170.48 162.7 169.008H171.692ZM171.756 169.008H175.34V166.384H155.372V164.08H171.212V161.744H155.372V159.504H171.212V157.136H155.372V154.832H172.14V152.368H152.364V166.384H146.86V169.008H151.82V175.312C151.82 176.592 150.924 177.328 150.252 177.616C150.764 178.352 151.34 179.856 151.532 180.624L151.756 180.432C152.556 180.048 154.316 179.632 162.444 177.616C162.444 177.008 162.54 175.792 162.668 175.024L154.764 176.752V169.008H159.596C162.316 174.96 166.988 178.768 174.22 180.368C174.572 179.568 175.436 178.352 176.076 177.68C172.812 177.104 170.028 176.048 167.788 174.512C169.868 173.456 172.236 172.016 174.124 170.64L171.756 169.008ZM209.036 166.928C208.78 165.52 208.204 163.376 207.66 161.776L205.708 162.288C205.9 162.896 206.124 163.568 206.284 164.272L203.02 164.592C205.132 162.32 207.212 159.408 208.908 156.56L206.668 155.344C206.22 156.24 205.74 157.168 205.196 158.064L202.476 158.32C203.66 156.56 204.844 154.288 205.708 152.176L203.276 151.408C202.508 154 201.036 156.688 200.556 157.392C200.108 158.096 199.724 158.608 199.276 158.736C199.564 159.312 199.948 160.496 200.044 161.008C200.46 160.816 201.1 160.656 203.788 160.272C202.828 161.68 201.964 162.768 201.548 163.248C200.78 164.144 200.172 164.784 199.564 164.912C199.852 165.584 200.204 166.768 200.332 167.248C200.876 167.024 201.74 166.832 206.732 166.192C206.828 166.704 206.924 167.12 206.988 167.536L209.036 166.928ZM196.364 159.088H193.004V156.304H196.364V159.088ZM196.364 164.048H193.004V161.2H196.364V164.048ZM198.988 154.064H195.372C195.66 153.264 196.012 152.336 196.364 151.44L193.644 150.96C193.548 151.824 193.292 153.04 193.036 154.064H190.476V166.288H198.988V154.064ZM190.06 166.736C189.868 165.232 189.356 163.024 188.908 161.296L186.924 161.712C187.052 162.384 187.244 163.152 187.404 163.888L184.14 164.272C186.188 161.936 188.204 159.056 189.836 156.24L187.692 155.056C187.212 156.016 186.7 157.008 186.124 157.968L183.884 158.16C185.036 156.464 186.156 154.288 186.988 152.272L184.652 151.408C183.916 153.904 182.444 156.56 182.028 157.2C181.58 157.904 181.132 158.416 180.748 158.512C180.972 159.088 181.356 160.24 181.484 160.72C181.868 160.528 182.444 160.368 184.78 160.08C183.852 161.456 183.02 162.544 182.636 162.992C181.868 163.92 181.26 164.56 180.652 164.688C180.94 165.296 181.324 166.48 181.42 166.96C181.964 166.736 182.796 166.512 187.788 165.808C187.852 166.352 187.948 166.832 187.98 167.248L190.06 166.736ZM189.356 172.272C187.276 174.384 183.34 176.24 179.692 177.04C180.364 177.616 181.228 178.768 181.676 179.536C185.452 178.384 189.516 176.016 191.82 173.264L189.356 172.272ZM198.092 173.872C201.196 175.536 205.132 178.064 207.052 179.728L208.94 177.552C206.892 175.92 202.892 173.552 199.852 172.016L198.092 173.872ZM196.236 167.056H193.26V168.816H180.46V171.28H193.26V180.432H196.236V171.28H208.94V168.816H196.236V167.056ZM234.348 155.248C231.66 153.776 226.412 152.08 222.604 151.216L221.132 153.68C225.036 154.672 230.22 156.56 232.78 158.032L234.348 155.248ZM222.956 163.728L222.444 163.824H214.188V166.64H221.164C219.628 170.96 216.748 174.384 213.484 176.336C214.188 176.784 215.34 177.936 215.852 178.576C219.82 175.984 223.34 171.152 224.94 164.56L222.956 163.728ZM239.34 159.984C237.612 162 234.924 164.496 232.524 166.32C231.5 164.464 230.7 162.384 230.028 160.176V157.616H218.38V160.464H226.828V176.848C226.828 177.392 226.668 177.552 226.092 177.584C225.548 177.584 223.596 177.584 221.836 177.52C222.284 178.32 222.764 179.664 222.892 180.496C225.516 180.496 227.308 180.464 228.492 179.952C229.644 179.472 230.028 178.608 230.028 176.912V167.408C232.492 172.464 236.076 176.368 241.1 178.576C241.58 177.776 242.508 176.56 243.18 175.952C239.276 174.48 236.236 171.888 233.932 168.592C236.492 166.832 239.596 164.272 242.06 161.968L239.34 159.984ZM265.42 164.72H270.732V166.896H265.42V164.72ZM265.42 160.464H270.732V162.544H265.42V160.464ZM265.42 169.008H273.548V164.88H276.524V162.32H273.548V158.384H265.42V156.432H276.172V153.808H265.484C265.004 152.88 264.364 151.728 263.756 150.864L260.812 151.6C261.196 152.272 261.612 153.04 262.028 153.808H249.708V163.088C249.708 167.792 249.484 174.32 246.956 178.832C247.596 179.12 248.844 179.952 249.356 180.464C252.108 175.632 252.556 168.144 252.556 163.088V156.432H262.412V158.384H254.668V160.464H262.412V162.544H253.26V164.72H262.412V166.896H254.38V169.008H255.276L253.772 170.576C255.308 171.536 257.356 172.912 258.348 173.84L260.044 171.984C259.02 171.184 257.036 169.872 255.532 169.008H262.412V172.24C258.636 173.744 254.732 175.28 252.204 176.176L253.356 178.608C255.948 177.488 259.244 176.016 262.412 174.576V177.392C262.412 177.904 262.22 178.096 261.644 178.096C261.132 178.128 259.18 178.16 257.388 178.064C257.804 178.736 258.188 179.824 258.316 180.56C261.004 180.56 262.732 180.528 263.884 180.112C265.004 179.728 265.42 179.056 265.42 177.424V174.608C268.748 176.016 272.588 177.84 274.668 179.056L276.012 176.944C274.508 176.112 272.204 175.024 269.804 174C271.372 173.104 273.1 171.984 274.636 170.896L272.428 169.136C271.148 170.32 268.94 171.952 267.276 172.944C266.636 172.688 266.028 172.464 265.42 172.208V169.008Z" fill="white"/>
<rect x="165" y="45" width="92.5" height="26" fill="#FDBF52"/>
<path d="M182.268 51.078C180.522 51.636 177.588 52.032 175.122 52.212C175.23 52.554 175.374 53.058 175.41 53.436C177.93 53.292 180.936 52.914 182.934 52.302L182.268 51.078ZM181.854 55.722C182.25 55.11 182.7 54.21 183.132 53.328L181.98 52.878C181.728 53.634 181.242 54.66 180.846 55.326L181.854 55.722ZM177.3 55.398C177.174 54.858 176.868 54.084 176.526 53.508L175.41 53.958C175.716 54.552 176.04 55.38 176.13 55.938L177.3 55.398ZM178.452 61.014C178.434 61.464 178.398 61.896 178.344 62.274H175.068V63.534H178.056C177.642 64.83 176.742 65.676 174.78 66.234C175.086 66.504 175.482 67.062 175.626 67.422C177.372 66.882 178.398 66.09 179.01 65.01C180.162 65.73 181.404 66.648 182.034 67.296L183.006 66.27C182.25 65.532 180.738 64.56 179.514 63.84L179.568 63.534H183.06V62.274H179.802C179.856 61.878 179.892 61.446 179.91 61.014H178.452ZM180.558 58.602C180.774 58.89 180.972 59.214 181.17 59.556L178.038 59.808C179.352 58.962 180.684 57.936 181.944 56.73L180.9 55.938C180.414 56.442 179.874 56.946 179.352 57.396L177.462 57.432C178.074 56.946 178.704 56.334 179.262 55.722L178.92 55.488L180.036 55.002C179.928 54.48 179.622 53.706 179.334 53.13L178.2 53.562C178.47 54.156 178.758 54.912 178.848 55.434L178.2 54.984C177.534 55.938 176.544 56.784 176.238 57.018C175.95 57.234 175.698 57.396 175.446 57.45C175.572 57.81 175.752 58.512 175.806 58.8C176.04 58.71 176.364 58.638 177.912 58.566C177.372 58.944 176.94 59.25 176.688 59.394C176.112 59.772 175.68 60.006 175.284 60.078C175.392 60.438 175.572 61.158 175.626 61.428C176.04 61.212 176.652 61.158 181.746 60.636C181.908 60.96 182.034 61.266 182.124 61.518L183.348 60.996C183.06 60.186 182.394 58.998 181.71 58.116L180.558 58.602ZM185.508 62.958H187.416V65.082H185.508V62.958ZM187.416 57.99H185.508V55.974H187.416V57.99ZM187.416 61.536H185.508V59.412H187.416V61.536ZM191.376 65.082H188.91V62.958H190.908V61.536H188.91V59.412H190.908V57.99H188.91V55.974H191.16V54.462H188.91L189.756 54.156C189.486 53.418 188.946 52.266 188.46 51.402L187.056 51.834C187.506 52.626 187.974 53.724 188.244 54.462H185.58C185.994 53.436 186.318 52.356 186.606 51.276L185.04 50.898C184.428 53.418 183.402 55.92 182.07 57.504C182.412 57.81 182.988 58.494 183.222 58.818C183.492 58.476 183.744 58.116 183.996 57.702V67.404H185.508V66.594H191.376V65.082ZM207.216 53.85H201.726V52.698H207.216V53.85ZM207.216 56.154H201.726V54.984H207.216V56.154ZM208.872 51.474H200.142V57.378H208.872V51.474ZM198.684 52.842C198.036 52.212 196.668 51.456 195.606 51.006L194.67 52.248C195.732 52.752 197.082 53.598 197.694 54.21L198.684 52.842ZM197.766 57.504C197.1 56.928 195.732 56.208 194.67 55.794L193.734 57.054C194.832 57.522 196.164 58.314 196.794 58.908L197.766 57.504ZM196.974 60.456C196.092 62.508 194.904 64.812 194.076 66.198L195.57 67.188C196.47 65.496 197.496 63.354 198.27 61.464L196.974 60.456ZM210.312 59.682V58.314H198.522V59.682H200.826C200.052 60.96 198.918 62.148 197.73 62.94C198.072 63.192 198.648 63.678 198.9 63.948C199.566 63.444 200.25 62.796 200.862 62.076H202.302C201.402 63.606 200.052 64.992 198.63 65.91C198.954 66.162 199.53 66.684 199.782 66.954C201.366 65.784 202.932 64.02 203.976 62.076H205.416C204.732 63.876 203.616 65.46 202.248 66.504C202.59 66.702 203.202 67.17 203.454 67.422C204.912 66.162 206.19 64.254 206.982 62.076H208.134C207.954 64.524 207.738 65.496 207.468 65.784C207.324 65.964 207.18 66 206.946 65.982C206.712 65.982 206.172 65.982 205.578 65.928C205.812 66.306 205.956 66.936 205.992 67.368C206.694 67.404 207.378 67.404 207.756 67.35C208.188 67.296 208.512 67.17 208.8 66.828C209.286 66.288 209.538 64.884 209.772 61.41C209.79 61.194 209.808 60.762 209.808 60.762H201.87C202.104 60.402 202.32 60.042 202.518 59.682H210.312ZM220.104 51.15V65.208C220.104 65.568 219.978 65.676 219.6 65.694C219.222 65.712 217.908 65.712 216.684 65.658C216.954 66.144 217.242 66.936 217.35 67.404C219.06 67.422 220.212 67.368 220.932 67.098C221.634 66.81 221.922 66.324 221.922 65.208V51.15H220.104ZM224.406 55.74C225.864 58.332 227.286 61.68 227.664 63.804L229.482 63.084C229.032 60.906 227.556 57.63 226.026 55.128L224.406 55.74ZM215.442 55.272C215.028 57.648 214.074 60.744 212.562 62.616C213.012 62.778 213.75 63.192 214.164 63.498C215.73 61.5 216.738 58.242 217.332 55.614L215.442 55.272ZM247.14 63.156C245.754 62.49 243.036 61.392 241.218 60.708L240.354 62.004C242.226 62.778 244.908 63.948 246.204 64.668L247.14 63.156ZM247.896 58.998V57.342H240.3V54.858H246.15V53.256H240.3V50.916H238.536V57.342H231.858V58.998H238.59V67.404H240.354V58.998H247.896Z" fill="#573605"/>
<path d="M206.07 300.77L205.97 301.917L204.374 301.778L204.474 300.63L206.07 300.77ZM205.753 304.392L204.157 304.252L204.264 303.033L205.86 303.173L205.753 304.392ZM202.993 301.657L200.124 301.406L200.014 302.661L202.883 302.912L202.777 304.131L200.661 303.946L200.554 305.166L202.67 305.351L202.573 306.463L200.26 306.26L200.147 307.551L202.46 307.754L202.358 308.919L199.614 308.679L199.5 309.988L202.243 310.228L202.074 312.165L203.455 312.286L203.624 310.349L207.228 310.664L207.343 309.355L203.739 309.04L203.841 307.874L206.925 308.144L207.038 306.853L203.954 306.583L204.051 305.472L206.938 305.724L207.151 303.285L208.353 303.391L208.462 302.135L207.261 302.03L207.466 299.681L204.579 299.429L204.696 298.102L203.315 297.981L203.199 299.308L201.083 299.123L200.978 300.324L203.094 300.509L202.993 301.657ZM195.179 297.215C194.309 299.723 193.012 302.157 191.557 303.71C191.79 304.146 192.121 305.114 192.194 305.518C192.63 305.069 193.038 304.544 193.45 303.966L192.614 313.523L194.084 313.652L195.184 301.082C195.729 300.01 196.244 298.88 196.667 297.761L195.179 297.215ZM199.212 303.982L198.942 303.977L197.938 303.889C198.862 302.614 199.816 301 200.631 299.336L199.719 298.606L199.235 298.762L196.563 298.529L196.438 299.963L198.554 300.148C197.85 301.586 197.034 302.852 196.728 303.259C196.34 303.767 195.848 304.23 195.499 304.29C195.689 304.595 195.977 305.235 196.077 305.533C196.09 305.389 196.356 305.232 196.639 305.094L198.451 305.253C198.161 306.709 197.782 307.941 197.311 308.984C196.991 308.305 196.754 307.507 196.584 306.553L195.365 306.862C195.635 308.313 196.042 309.451 196.555 310.399C195.906 311.408 195.138 312.136 194.245 312.636C194.551 312.862 195.043 313.429 195.266 313.774C196.069 313.266 196.781 312.569 197.42 311.667C198.962 313.446 201.135 314.016 203.681 314.239L206.855 314.516C206.963 314.11 207.256 313.449 207.519 313.129C206.728 313.078 204.505 312.883 203.859 312.827C201.601 312.611 199.585 312.11 198.198 310.416C199.004 308.843 199.615 306.818 200.074 304.256L199.212 303.982Z" fill="#927858"/>
<path d="M224.57 305.077L227.547 304.817L227.653 306.036L224.677 306.296L224.57 305.077ZM224.361 302.692L227.338 302.432L227.44 303.597L224.463 303.858L224.361 302.692ZM224.78 307.48L229.335 307.081L229.132 304.768L230.8 304.622L230.675 303.188L229.007 303.334L228.814 301.128L224.259 301.527L224.164 300.433L230.189 299.906L230.06 298.435L224.071 298.959C223.756 298.463 223.341 297.849 222.958 297.394L221.345 297.951C221.593 298.309 221.864 298.719 222.134 299.129L215.231 299.733L215.686 304.933C215.916 307.569 216.111 311.238 214.915 313.89C215.288 314.02 216.028 314.425 216.34 314.687C217.645 311.844 217.529 307.626 217.282 304.793L216.955 301.063L222.478 300.58L222.574 301.674L218.234 302.054L218.336 303.219L222.676 302.84L222.778 304.005L217.649 304.454L217.756 305.673L222.884 305.224L222.991 306.444L218.49 306.838L218.594 308.021L219.096 307.977L218.33 308.929C219.238 309.392 220.453 310.063 221.054 310.534L221.914 309.411C221.301 309.013 220.125 308.375 219.239 307.965L223.095 307.627L223.253 309.438C221.211 310.466 219.099 311.518 217.726 312.144L218.491 313.451C219.888 312.696 221.663 311.71 223.368 310.747L223.506 312.325C223.531 312.612 223.433 312.729 223.11 312.757C222.825 312.8 221.732 312.914 220.723 312.948C220.989 313.304 221.258 313.895 221.366 314.301C222.872 314.17 223.839 314.067 224.464 313.777C225.073 313.507 225.273 313.11 225.193 312.196L225.055 310.618C226.989 311.244 229.23 312.077 230.455 312.657L231.105 311.408C230.221 311.015 228.877 310.518 227.482 310.062C228.316 309.483 229.23 308.771 230.037 308.086L228.714 307.208C228.054 307.934 226.897 308.957 226.013 309.594C225.642 309.482 225.29 309.387 224.937 309.273L224.78 307.48Z" fill="#927858"/>
<defs>
<filter id="filter0_i_114_13036" x="12" y="14" width="400" height="203" filterUnits="userSpaceOnUse" color-interpolation-filters="sRGB">
<feFlood flood-opacity="0" result="BackgroundImageFix"/>
<feBlend mode="normal" in="SourceGraphic" in2="BackgroundImageFix" result="shape"/>
<feColorMatrix in="SourceAlpha" type="matrix" values="0 0 0 0 0 0 0 0 0 0 0 0 0 0 0 0 0 0 127 0" result="hardAlpha"/>
<feOffset dy="4"/>
<feGaussianBlur stdDeviation="2"/>
<feComposite in2="hardAlpha" operator="arithmetic" k2="-1" k3="1"/>
<feColorMatrix type="matrix" values="0 0 0 0 0 0 0 0 0 0 0 0 0 0 0 0 0 0 0.35 0"/>
<feBlend mode="normal" in2="shape" result="effect1_innerShadow_114_13036"/>
</filter>
<filter id="filter1_di_114_13036" x="8" y="213" width="408" height="148" filterUnits="userSpaceOnUse" color-interpolation-filters="sRGB">
<feFlood flood-opacity="0" result="BackgroundImageFix"/>
<feColorMatrix in="SourceAlpha" type="matrix" values="0 0 0 0 0 0 0 0 0 0 0 0 0 0 0 0 0 0 127 0" result="hardAlpha"/>
<feOffset dy="4"/>
<feGaussianBlur stdDeviation="2"/>
<feComposite in2="hardAlpha" operator="out"/>
<feColorMatrix type="matrix" values="0 0 0 0 0 0 0 0 0 0 0 0 0 0 0 0 0 0 0.25 0"/>
<feBlend mode="normal" in2="BackgroundImageFix" result="effect1_dropShadow_114_13036"/>
<feBlend mode="normal" in="SourceGraphic" in2="effect1_dropShadow_114_13036" result="shape"/>
<feColorMatrix in="SourceAlpha" type="matrix" values="0 0 0 0 0 0 0 0 0 0 0 0 0 0 0 0 0 0 127 0" result="hardAlpha"/>
<feOffset dy="3"/>
<feGaussianBlur stdDeviation="4"/>
<feComposite in2="hardAlpha" operator="arithmetic" k2="-1" k3="1"/>
<feColorMatrix type="matrix" values="0 0 0 0 0 0 0 0 0 0 0 0 0 0 0 0 0 0 0.25 0"/>
<feBlend mode="normal" in2="shape" result="effect2_innerShadow_114_13036"/>
</filter>
</defs>
</svg>
