<svg width="400" height="400" viewBox="0 0 400 400" fill="none" xmlns="http://www.w3.org/2000/svg">
<g clip-path="url(#clip0_114_13036)">
<g filter="url(#filter0_d_114_13036)">
<g filter="url(#filter1_i_114_13036)">
<path d="M400 200C400 147.222 378.929 96.6055 341.421 59.2858C303.914 21.966 253.043 1 200 1C146.957 0.999996 96.0859 21.966 58.5787 59.2857C21.0714 96.6055 8.00932e-06 147.222 0 200L400 200Z" fill="#FDBF52"/>
</g>
<path d="M360 201C360 158.565 343.143 117.869 313.137 87.8629C283.131 57.8571 242.435 41 200 41C157.565 41 116.869 57.8571 86.8629 87.8629C56.8571 117.869 40 158.565 40 201" stroke="#FCDBA3" stroke-width="3"/>
<g filter="url(#filter2_i_114_13036)">
<path d="M1.74846e-05 200C1.28474e-05 253.043 21.0714 303.914 58.5786 341.421C96.0859 378.929 146.957 400 200 400C253.043 400 303.914 378.929 341.421 341.421C378.929 303.914 400 253.043 400 200L200 200L1.74846e-05 200Z" fill="#FDBF52"/>
<path d="M1.74846e-05 200C1.28474e-05 253.043 21.0714 303.914 58.5786 341.421C96.0859 378.929 146.957 400 200 400C253.043 400 303.914 378.929 341.421 341.421C378.929 303.914 400 253.043 400 200L200 200L1.74846e-05 200Z" fill="black" fill-opacity="0.2"/>
</g>
<g filter="url(#filter3_di_114_13036)">
<path d="M1.22392e-05 200C8.99315e-06 237.13 21.0714 272.74 58.5786 298.995C96.0859 325.25 146.957 340 200 340C253.043 340 303.914 325.25 341.421 298.995C378.929 272.74 400 237.13 400 200L200 200L1.22392e-05 200Z" fill="#FCDBA3"/>
</g>
<path d="M40 200C40 229.704 56.8571 258.192 86.8629 279.196C116.869 300.2 157.565 312 200 312C242.435 312 283.131 300.2 313.137 279.196C343.143 258.192 360 229.704 360 200" stroke="#FDBF52" stroke-width="3"/>
<path d="M157.292 120.552H150.476V118.568H157.292V120.552ZM150.476 114.408H157.292V116.232H150.476V114.408ZM141.452 108.424V106.504H147.468V108.424H141.452ZM156.78 106.504V108.424H150.476V106.504H156.78ZM163.628 116.232H160.3V112.296H150.476V110.408H159.788V104.52H150.476V102.888H162.956V100.488H150.476V98.152H147.468V100.488H135.34V102.888H147.468V104.52H138.604V110.408H147.468V112.296H137.772V114.408H147.468V116.232H134.668V118.568H147.468V120.552H137.484V122.792H147.468V124.488C147.468 125.032 147.276 125.192 146.7 125.224C146.188 125.256 144.268 125.256 142.508 125.192C142.924 125.832 143.372 126.92 143.532 127.592C146.22 127.592 147.884 127.56 148.972 127.176C150.06 126.76 150.476 126.088 150.476 124.456V122.792H157.292V124.168H160.3V118.568H163.628V116.232ZM177.804 121.448C175.756 122.76 171.884 123.944 168.652 124.424C169.26 124.968 170.028 125.96 170.444 126.6C173.74 125.864 177.74 124.2 179.98 122.472L177.804 121.448ZM185.868 122.76C188.78 123.88 192.684 125.576 194.668 126.568L196.652 124.84C194.508 123.816 190.604 122.28 187.788 121.256L185.868 122.76ZM187.564 105.992C187.116 106.824 186.38 108.04 185.772 108.84L186.924 109.192H178.188L179.628 108.808C179.372 108.072 178.764 106.888 178.124 105.992H187.564ZM184.108 117.608V115.688H193.932V113.448H184.108V111.528H195.436V109.192H188.652C189.292 108.456 190.028 107.592 190.732 106.632L188.236 105.992H196.62V103.624H192.044C192.876 102.44 193.836 100.84 194.7 99.272L191.628 98.472C191.148 99.912 190.156 101.928 189.388 103.208L190.636 103.624H187.148V98.12H184.332V103.624H181.164V98.12H178.38V103.624H174.796L176.492 102.984C176.044 101.736 174.924 99.784 173.932 98.408L171.34 99.304C172.236 100.616 173.196 102.376 173.676 103.624H168.908V105.992H177.068L175.212 106.44C175.756 107.272 176.3 108.392 176.62 109.192H170.188V111.528H181.196V113.448H171.756V115.688H181.196V117.608H168.78V120.104H181.196V127.528H184.108V120.104H196.716V117.608H184.108ZM223.724 113.512H211.244V110.76H223.724V113.512ZM211.148 118.792C211.212 118.024 211.244 117.256 211.244 116.552V116.008H223.724V118.792H211.148ZM230.316 104.936V102.152H214.38C214.828 101.064 215.18 99.944 215.532 98.856L212.492 98.152C212.14 99.464 211.692 100.808 211.148 102.152H202.38V104.936H209.9C207.916 108.776 205.196 112.328 201.676 114.696C202.284 115.272 203.18 116.328 203.628 117C205.356 115.784 206.892 114.344 208.268 112.712V116.488C208.268 119.464 208.012 122.952 205.324 125.416C205.9 125.832 207.084 127.08 207.468 127.752C209.356 126.024 210.348 123.688 210.828 121.288H223.724V124.04C223.724 124.52 223.564 124.68 223.02 124.68C222.476 124.712 220.556 124.712 218.668 124.616C219.052 125.416 219.5 126.696 219.596 127.496C222.252 127.496 224.044 127.496 225.164 127.016C226.316 126.568 226.636 125.672 226.636 124.072V108.136H211.5C212.108 107.112 212.652 106.024 213.196 104.936H230.316ZM259.468 108.328C258.54 111.272 257.356 113.928 255.82 116.296C255.084 113.448 254.572 109.992 254.252 106.184H264.3V103.272H261.036L262.572 101.64C261.324 100.552 258.924 99.08 257.036 98.088L255.244 99.912C256.94 100.84 259.02 102.216 260.268 103.272H254.092C253.996 101.608 253.964 99.912 253.996 98.184H250.86C250.86 99.88 250.924 101.608 251.02 103.272H237.868V112.328C237.868 116.456 237.644 121.96 235.084 125.8C235.756 126.184 237.068 127.24 237.58 127.848C240.396 123.72 240.94 117.32 240.972 112.776H246.092C245.996 117.608 245.804 119.432 245.452 119.88C245.228 120.168 244.908 120.264 244.46 120.264C243.948 120.264 242.7 120.232 241.388 120.104C241.836 120.872 242.124 122.024 242.188 122.888C243.724 122.952 245.164 122.952 245.964 122.824C246.828 122.728 247.436 122.472 248.012 121.8C248.684 120.904 248.844 118.152 249.004 111.208V110.056H240.972V106.184H251.212C251.596 111.176 252.332 115.752 253.484 119.368C251.532 121.64 249.164 123.496 246.508 124.968C247.18 125.512 248.236 126.76 248.684 127.4C250.892 126.056 252.908 124.424 254.732 122.504C256.172 125.512 258.028 127.304 260.364 127.304C262.988 127.304 264.076 125.8 264.556 120.168C263.756 119.88 262.7 119.208 261.996 118.504C261.804 122.632 261.42 124.264 260.588 124.264C259.244 124.264 257.996 122.6 256.908 119.88C259.244 116.808 261.132 113.192 262.476 109.064L259.468 108.328ZM142.22 160.424C142.284 159.784 142.316 159.112 142.316 158.504H156.012V160.424H142.22ZM156.012 154.568V156.456H142.316V154.568H156.012ZM159.052 152.328H139.404V158.024C139.404 160.456 139.212 163.528 137.42 165.736C138.06 166.152 139.276 167.304 139.692 167.912C140.94 166.408 141.612 164.424 141.964 162.44H156.012V164.456C156.012 164.936 155.852 165.064 155.308 165.096C154.828 165.096 152.844 165.096 151.084 165.032C151.436 165.704 151.852 166.728 151.98 167.432C154.604 167.432 156.396 167.432 157.548 167.048C158.668 166.664 159.052 165.96 159.052 164.488V152.328ZM150.508 148.328V146.344H160.076V144.168H150.508V142.376H161.42V140.072H150.508V138.152H147.5V140.072H137.068V142.376H147.5V144.168H138.22V146.344H147.5V148.328H135.116V150.632H163.084V148.328H150.508ZM171.724 144.68H181.196V153.352H184.108V144.68H193.612V149.384H196.364V142.696H184.108V141.256H194.316V139.048H171.052V141.256H181.196V142.696H169.068V149.384H171.724V144.68ZM172.524 154.152C174.764 153.32 177.484 152.232 180.108 151.176L179.756 149.16C176.716 150.184 173.612 151.176 171.5 151.784L172.524 154.152ZM172.684 146.76C174.732 147.368 177.452 148.456 178.86 149.128L179.948 147.272C178.508 146.632 175.756 145.64 173.772 145.096L172.684 146.76ZM193.292 154.728H172.14V156.936H193.292V154.728ZM185.196 151.016C187.788 151.848 191.276 153.16 193.068 154.024L194.028 152.008C192.172 151.112 188.652 149.928 186.156 149.192L185.196 151.016ZM191.596 145.16C189.932 145.896 187.02 147.016 185.068 147.496L186.22 149.16C188.172 148.68 190.956 147.912 192.972 146.984L191.596 145.16ZM176.364 164.328C177.644 163.368 178.924 162.248 180.14 161.096H187.788L186.38 161.736C187.244 162.344 188.172 163.112 189.068 163.88L176.364 164.328ZM196.972 158.792H168.46V161.096H176.14C174.956 162.216 173.804 163.144 173.292 163.432C172.588 163.976 172.012 164.328 171.436 164.424C171.788 165.192 172.236 166.632 172.396 167.24C173.58 166.824 175.308 166.792 191.436 166.056C192.044 166.664 192.588 167.208 192.94 167.688L195.628 166.408C194.252 164.904 191.66 162.728 189.484 161.096H196.972V158.792ZM209.132 161.384H223.532V163.752H209.132V161.384ZM223.532 147.976V150.216H209.132V147.976H223.532ZM223.532 154.6H209.132V152.456H223.532V154.6ZM209.132 156.84H223.532V159.144H209.132V156.84ZM226.54 163.752V145.512H216.588C216.748 144.808 216.908 144.104 217.036 143.336H229.868V140.712H217.516L217.932 138.408L214.636 138.12C214.572 138.888 214.508 139.816 214.38 140.712H202.764V143.336H214.06C213.964 144.104 213.836 144.84 213.708 145.512H206.252V163.752H201.9V166.472H230.764V163.752H226.54ZM250.476 162.984V151.08H262.028V148.104H250.476V138.6H247.276V162.984H235.596V165.992H264.236V162.984H250.476Z" fill="white"/>
<rect x="153" y="32" width="92.5" height="26" fill="#FDBF52"/>
<path d="M170.268 38.078C168.522 38.636 165.588 39.032 163.122 39.212C163.23 39.554 163.374 40.058 163.41 40.436C165.93 40.292 168.936 39.914 170.934 39.302L170.268 38.078ZM169.854 42.722C170.25 42.11 170.7 41.21 171.132 40.328L169.98 39.878C169.728 40.634 169.242 41.66 168.846 42.326L169.854 42.722ZM165.3 42.398C165.174 41.858 164.868 41.084 164.526 40.508L163.41 40.958C163.716 41.552 164.04 42.38 164.13 42.938L165.3 42.398ZM166.452 48.014C166.434 48.464 166.398 48.896 166.344 49.274H163.068V50.534H166.056C165.642 51.83 164.742 52.676 162.78 53.234C163.086 53.504 163.482 54.062 163.626 54.422C165.372 53.882 166.398 53.09 167.01 52.01C168.162 52.73 169.404 53.648 170.034 54.296L171.006 53.27C170.25 52.532 168.738 51.56 167.514 50.84L167.568 50.534H171.06V49.274H167.802C167.856 48.878 167.892 48.446 167.91 48.014H166.452ZM168.558 45.602C168.774 45.89 168.972 46.214 169.17 46.556L166.038 46.808C167.352 45.962 168.684 44.936 169.944 43.73L168.9 42.938C168.414 43.442 167.874 43.946 167.352 44.396L165.462 44.432C166.074 43.946 166.704 43.334 167.262 42.722L166.92 42.488L168.036 42.002C167.928 41.48 167.622 40.706 167.334 40.13L166.2 40.562C166.47 41.156 166.758 41.912 166.848 42.434L166.2 41.984C165.534 42.938 164.544 43.784 164.238 44.018C163.95 44.234 163.698 44.396 163.446 44.45C163.572 44.81 163.752 45.512 163.806 45.8C164.04 45.71 164.364 45.638 165.912 45.566C165.372 45.944 164.94 46.25 164.688 46.394C164.112 46.772 163.68 47.006 163.284 47.078C163.392 47.438 163.572 48.158 163.626 48.428C164.04 48.212 164.652 48.158 169.746 47.636C169.908 47.96 170.034 48.266 170.124 48.518L171.348 47.996C171.06 47.186 170.394 45.998 169.71 45.116L168.558 45.602ZM173.508 49.958H175.416V52.082H173.508V49.958ZM175.416 44.99H173.508V42.974H175.416V44.99ZM175.416 48.536H173.508V46.412H175.416V48.536ZM179.376 52.082H176.91V49.958H178.908V48.536H176.91V46.412H178.908V44.99H176.91V42.974H179.16V41.462H176.91L177.756 41.156C177.486 40.418 176.946 39.266 176.46 38.402L175.056 38.834C175.506 39.626 175.974 40.724 176.244 41.462H173.58C173.994 40.436 174.318 39.356 174.606 38.276L173.04 37.898C172.428 40.418 171.402 42.92 170.07 44.504C170.412 44.81 170.988 45.494 171.222 45.818C171.492 45.476 171.744 45.116 171.996 44.702V54.404H173.508V53.594H179.376V52.082ZM195.216 40.85H189.726V39.698H195.216V40.85ZM195.216 43.154H189.726V41.984H195.216V43.154ZM196.872 38.474H188.142V44.378H196.872V38.474ZM186.684 39.842C186.036 39.212 184.668 38.456 183.606 38.006L182.67 39.248C183.732 39.752 185.082 40.598 185.694 41.21L186.684 39.842ZM185.766 44.504C185.1 43.928 183.732 43.208 182.67 42.794L181.734 44.054C182.832 44.522 184.164 45.314 184.794 45.908L185.766 44.504ZM184.974 47.456C184.092 49.508 182.904 51.812 182.076 53.198L183.57 54.188C184.47 52.496 185.496 50.354 186.27 48.464L184.974 47.456ZM198.312 46.682V45.314H186.522V46.682H188.826C188.052 47.96 186.918 49.148 185.73 49.94C186.072 50.192 186.648 50.678 186.9 50.948C187.566 50.444 188.25 49.796 188.862 49.076H190.302C189.402 50.606 188.052 51.992 186.63 52.91C186.954 53.162 187.53 53.684 187.782 53.954C189.366 52.784 190.932 51.02 191.976 49.076H193.416C192.732 50.876 191.616 52.46 190.248 53.504C190.59 53.702 191.202 54.17 191.454 54.422C192.912 53.162 194.19 51.254 194.982 49.076H196.134C195.954 51.524 195.738 52.496 195.468 52.784C195.324 52.964 195.18 53 194.946 52.982C194.712 52.982 194.172 52.982 193.578 52.928C193.812 53.306 193.956 53.936 193.992 54.368C194.694 54.404 195.378 54.404 195.756 54.35C196.188 54.296 196.512 54.17 196.8 53.828C197.286 53.288 197.538 51.884 197.772 48.41C197.79 48.194 197.808 47.762 197.808 47.762H189.87C190.104 47.402 190.32 47.042 190.518 46.682H198.312ZM208.104 38.15V52.208C208.104 52.568 207.978 52.676 207.6 52.694C207.222 52.712 205.908 52.712 204.684 52.658C204.954 53.144 205.242 53.936 205.35 54.404C207.06 54.422 208.212 54.368 208.932 54.098C209.634 53.81 209.922 53.324 209.922 52.208V38.15H208.104ZM212.406 42.74C213.864 45.332 215.286 48.68 215.664 50.804L217.482 50.084C217.032 47.906 215.556 44.63 214.026 42.128L212.406 42.74ZM203.442 42.272C203.028 44.648 202.074 47.744 200.562 49.616C201.012 49.778 201.75 50.192 202.164 50.498C203.73 48.5 204.738 45.242 205.332 42.614L203.442 42.272ZM235.14 50.156C233.754 49.49 231.036 48.392 229.218 47.708L228.354 49.004C230.226 49.778 232.908 50.948 234.204 51.668L235.14 50.156ZM235.896 45.998V44.342H228.3V41.858H234.15V40.256H228.3V37.916H226.536V44.342H219.858V45.998H226.59V54.404H228.354V45.998H235.896Z" fill="#573605"/>
<path d="M192.018 297.6L188.198 297.266L188.296 296.154L192.115 296.488L192.018 297.6ZM188.499 293.823L192.319 294.157L192.229 295.179L188.41 294.845L188.499 293.823ZM183.736 290.028L183.83 288.952L187.201 289.247L187.107 290.323L183.736 290.028ZM192.419 289.703L192.325 290.779L188.793 290.47L188.887 289.394L192.419 289.703ZM195.78 295.49L193.915 295.327L194.108 293.121L188.603 292.64L188.696 291.582L193.914 292.038L194.202 288.739L188.984 288.282L189.064 287.368L196.058 287.98L196.175 286.635L189.182 286.023L189.296 284.714L187.611 284.567L187.496 285.876L180.7 285.281L180.583 286.626L187.379 287.22L187.299 288.135L182.332 287.7L182.043 291L187.01 291.434L186.917 292.492L181.484 292.017L181.381 293.2L186.814 293.676L186.725 294.698L179.552 294.07L179.437 295.379L186.61 296.007L186.513 297.119L180.918 296.629L180.808 297.884L186.403 298.374L186.32 299.324C186.293 299.629 186.178 299.709 185.853 299.699C185.565 299.692 184.489 299.598 183.506 299.475C183.708 299.855 183.905 300.486 183.962 300.871C185.468 301.002 186.402 301.066 187.031 300.904C187.661 300.724 187.927 300.368 188.007 299.454L188.088 298.521L191.908 298.855L191.84 299.626L193.526 299.774L193.801 296.636L195.665 296.799L195.78 295.49Z" fill="#927858"/>
<path d="M208.331 297.941C207.248 298.776 205.136 299.63 203.348 300.057C203.716 300.332 204.195 300.85 204.459 301.189C206.27 300.615 208.43 299.486 209.601 298.408L208.331 297.941ZM212.914 298.281C214.601 298.765 216.871 299.524 218.032 299.983L219.059 298.917C217.807 298.449 215.544 297.779 213.916 297.344L212.914 298.281ZM213.042 288.801C212.832 289.29 212.479 290.007 212.178 290.485L212.841 290.626L207.945 291.054L208.733 290.768C208.554 290.368 208.155 289.735 207.753 289.264L213.042 288.801ZM211.675 295.48L211.581 294.404L217.086 293.922L216.976 292.667L211.471 293.149L211.377 292.073L217.725 291.518L217.61 290.209L213.809 290.541C214.131 290.097 214.502 289.577 214.849 289.005L213.419 288.768L218.117 288.357L218.001 287.03L215.437 287.255C215.845 286.551 216.304 285.607 216.712 284.686L214.951 284.388C214.753 285.219 214.296 286.397 213.928 287.152L214.648 287.324L212.693 287.495L212.423 284.411L210.845 284.549L211.115 287.633L209.34 287.788L209.07 284.704L207.51 284.84L207.78 287.925L205.772 288.1L206.691 287.659C206.378 286.981 205.655 285.942 205.032 285.22L203.623 285.849C204.19 286.54 204.814 287.479 205.144 288.155L202.472 288.389L202.588 289.716L207.161 289.316L206.143 289.658C206.488 290.097 206.848 290.698 207.067 291.131L203.462 291.446L203.577 292.755L209.745 292.216L209.839 293.292L204.55 293.754L204.66 295.01L209.949 294.547L210.043 295.623L203.086 296.231L203.208 297.63L210.166 297.021L210.53 301.181L212.162 301.039L211.798 296.879L218.863 296.26L218.74 294.862L211.675 295.48Z" fill="#927858"/>
</g>
<g filter="url(#filter4_d_114_13036)">
<g filter="url(#filter5_i_114_13036)">
<path d="M400 200C400 147.222 378.929 96.6055 341.421 59.2858C303.914 21.966 253.043 1 200 1C146.957 0.999996 96.0859 21.966 58.5787 59.2857C21.0714 96.6055 8.00932e-06 147.222 0 200L400 200Z" fill="#FDBF52"/>
</g>
<path d="M360 201C360 158.565 343.143 117.869 313.137 87.8629C283.131 57.8571 242.435 41 200 41C157.565 41 116.869 57.8571 86.8629 87.8629C56.8571 117.869 40 158.565 40 201" stroke="#FCDBA3" stroke-width="3"/>
<g filter="url(#filter6_i_114_13036)">
<path d="M1.74846e-05 200C1.28474e-05 253.043 21.0714 303.914 58.5786 341.421C96.0859 378.929 146.957 400 200 400C253.043 400 303.914 378.929 341.421 341.421C378.929 303.914 400 253.043 400 200L200 200L1.74846e-05 200Z" fill="#FDBF52"/>
<path d="M1.74846e-05 200C1.28474e-05 253.043 21.0714 303.914 58.5786 341.421C96.0859 378.929 146.957 400 200 400C253.043 400 303.914 378.929 341.421 341.421C378.929 303.914 400 253.043 400 200L200 200L1.74846e-05 200Z" fill="black" fill-opacity="0.2"/>
</g>
<g filter="url(#filter7_di_114_13036)">
<path d="M1.22392e-05 200C8.99315e-06 237.13 21.0714 272.74 58.5786 298.995C96.0859 325.25 146.957 340 200 340C253.043 340 303.914 325.25 341.421 298.995C378.929 272.74 400 237.13 400 200L200 200L1.22392e-05 200Z" fill="#FCDBA3"/>
</g>
<path d="M40 200C40 229.704 56.8571 258.192 86.8629 279.196C116.869 300.2 157.565 312 200 312C242.435 312 283.131 300.2 313.137 279.196C343.143 258.192 360 229.704 360 200" stroke="#FDBF52" stroke-width="3"/>
<path d="M142.444 117.608C141.196 116.584 139.948 115.56 138.764 114.664C139.372 112.392 139.948 109.672 140.492 106.92C141.964 106.824 143.468 106.728 145.036 106.632C145.004 109.8 144.62 113.768 142.444 117.608ZM147.948 102.248H145.036V103.784L141.036 104.008C141.324 102.088 141.612 100.232 141.804 98.472L138.668 98.312C138.508 100.136 138.252 102.12 137.932 104.168L134.22 104.328L134.54 107.272L137.42 107.112C136.78 110.248 136.108 113.256 135.404 115.496C137.068 116.808 138.956 118.408 140.78 120.008C139.244 121.928 137.1 123.688 134.252 125.224C134.924 125.736 135.916 126.792 136.396 127.496C139.244 125.896 141.388 124.04 143.02 122.088C144.428 123.432 145.676 124.68 146.54 125.736L148.716 123.464C147.756 122.344 146.348 121 144.78 119.624C147.5 115.112 147.916 110.248 147.948 106.44L149.196 106.344L149.228 103.56L147.948 103.624V102.248ZM153.004 121.512V104.328H159.148V121.512H153.004ZM150.22 101.512V126.696H153.004V124.328H159.148V126.248H162.092V101.512H150.22ZM187.372 102.6C187.084 103.432 186.604 104.488 186.156 105.384H179.18C178.956 104.552 178.476 103.464 177.964 102.6H187.372ZM196.428 105.384H189.196C189.612 104.68 190.028 103.912 190.508 103.048L188.332 102.6H194.764V100.264H184.716C184.396 99.464 183.948 98.568 183.5 97.864L180.62 98.408C180.94 98.984 181.196 99.624 181.452 100.264H170.54V102.6H177.356L175.212 103.08C175.564 103.784 175.916 104.616 176.14 105.384H169.068V107.752H196.428V105.384ZM189.9 112.936H175.564V111.112H189.9V112.936ZM189.9 116.616H175.564V114.792H189.9V116.616ZM192.844 109.128H172.748V118.568H180.78L179.564 119.688C181.324 120.648 183.532 122.088 184.556 123.112L186.38 121.256C185.484 120.424 183.852 119.368 182.316 118.568H192.844V109.128ZM170.956 126.728C172.588 125.224 173.9 122.856 174.828 120.872L172.364 119.784C171.532 121.672 170.124 123.88 168.524 125.288L170.956 126.728ZM180.876 124.808C179.308 124.808 179.02 124.68 179.02 123.88V120.104H176.14V123.912C176.14 126.536 177.004 127.24 180.588 127.24H186.22C188.972 127.24 189.772 126.376 190.124 122.824C189.356 122.664 188.204 122.248 187.564 121.864C187.436 124.456 187.212 124.808 185.964 124.808H180.876ZM190.124 120.552C191.692 122.28 193.356 124.68 194.028 126.248L196.588 125.064C195.82 123.464 194.092 121.16 192.492 119.464L190.124 120.552ZM230.316 118.184H223.532V111.4H229.58V108.616H223.532V102.44C225.9 102.056 228.14 101.608 229.996 101.064L228.204 98.6C224.556 99.784 218.38 100.552 213.004 100.968C213.324 101.608 213.612 102.728 213.708 103.432C215.884 103.304 218.188 103.112 220.492 102.824V118.184H217.164V106.056H214.348V118.184H212.172V120.968H230.316V118.184ZM209.868 109.032L209.356 109.128H206.668C208.268 106.664 209.932 103.624 211.372 100.488L209.548 99.272L208.684 99.656H201.772V102.312H207.532C206.284 105.032 204.78 107.464 204.268 108.232C203.564 109.256 202.764 110.056 202.156 110.216C202.54 110.792 203.116 111.976 203.308 112.488C203.308 112.232 203.916 111.816 204.46 111.528H208.652C208.3 114.184 207.724 116.52 206.924 118.504C205.9 117.192 205.036 115.56 204.396 113.544L202.092 114.536C203.052 117.288 204.236 119.4 205.644 121.064C204.492 122.92 203.084 124.296 201.388 125.192C201.964 125.832 202.732 126.984 203.084 127.752C204.94 126.6 206.476 125.096 207.756 123.144C211.532 126.12 216.492 126.824 222.348 126.824H230.188C230.348 125.96 230.828 124.584 231.308 123.88C229.452 123.944 223.852 123.944 222.412 123.944C217.196 123.944 212.524 123.336 209.068 120.648C210.348 117.704 211.18 114.024 211.564 109.416L209.868 109.032ZM243.596 117.576V111.912H250.028V117.576H243.596ZM264.332 117.576H253.1V111.912H262.028V109.128H253.1V104.712H262.764V101.832H244.236C244.652 100.872 245.1 99.816 245.484 98.824L242.476 98.024C241.004 102.28 238.444 106.344 235.5 108.872C236.236 109.32 237.516 110.28 238.092 110.792C239.724 109.192 241.324 107.08 242.7 104.712H250.028V109.128H240.62V117.576H235.468V120.456H250.028V127.528H253.1V120.456H264.332V117.576ZM159.692 156.008C158.188 157.256 155.852 158.76 153.772 159.944C152.524 158.792 151.532 157.48 150.7 156.008H159.692ZM159.756 156.008H163.34V153.384H143.372V151.08H159.212V148.744H143.372V146.504H159.212V144.136H143.372V141.832H160.14V139.368H140.364V153.384H134.86V156.008H139.82V162.312C139.82 163.592 138.924 164.328 138.252 164.616C138.764 165.352 139.34 166.856 139.532 167.624L139.756 167.432C140.556 167.048 142.316 166.632 150.444 164.616C150.444 164.008 150.54 162.792 150.668 162.024L142.764 163.752V156.008H147.596C150.316 161.96 154.988 165.768 162.22 167.368C162.572 166.568 163.436 165.352 164.076 164.68C160.812 164.104 158.028 163.048 155.788 161.512C157.868 160.456 160.236 159.016 162.124 157.64L159.756 156.008ZM197.036 153.928C196.78 152.52 196.204 150.376 195.66 148.776L193.708 149.288C193.9 149.896 194.124 150.568 194.284 151.272L191.02 151.592C193.132 149.32 195.212 146.408 196.908 143.56L194.668 142.344C194.22 143.24 193.74 144.168 193.196 145.064L190.476 145.32C191.66 143.56 192.844 141.288 193.708 139.176L191.276 138.408C190.508 141 189.036 143.688 188.556 144.392C188.108 145.096 187.724 145.608 187.276 145.736C187.564 146.312 187.948 147.496 188.044 148.008C188.46 147.816 189.1 147.656 191.788 147.272C190.828 148.68 189.964 149.768 189.548 150.248C188.78 151.144 188.172 151.784 187.564 151.912C187.852 152.584 188.204 153.768 188.332 154.248C188.876 154.024 189.74 153.832 194.732 153.192C194.828 153.704 194.924 154.12 194.988 154.536L197.036 153.928ZM184.364 146.088H181.004V143.304H184.364V146.088ZM184.364 151.048H181.004V148.2H184.364V151.048ZM186.988 141.064H183.372C183.66 140.264 184.012 139.336 184.364 138.44L181.644 137.96C181.548 138.824 181.292 140.04 181.036 141.064H178.476V153.288H186.988V141.064ZM178.06 153.736C177.868 152.232 177.356 150.024 176.908 148.296L174.924 148.712C175.052 149.384 175.244 150.152 175.404 150.888L172.14 151.272C174.188 148.936 176.204 146.056 177.836 143.24L175.692 142.056C175.212 143.016 174.7 144.008 174.124 144.968L171.884 145.16C173.036 143.464 174.156 141.288 174.988 139.272L172.652 138.408C171.916 140.904 170.444 143.56 170.028 144.2C169.58 144.904 169.132 145.416 168.748 145.512C168.972 146.088 169.356 147.24 169.484 147.72C169.868 147.528 170.444 147.368 172.78 147.08C171.852 148.456 171.02 149.544 170.636 149.992C169.868 150.92 169.26 151.56 168.652 151.688C168.94 152.296 169.324 153.48 169.42 153.96C169.964 153.736 170.796 153.512 175.788 152.808C175.852 153.352 175.948 153.832 175.98 154.248L178.06 153.736ZM177.356 159.272C175.276 161.384 171.34 163.24 167.692 164.04C168.364 164.616 169.228 165.768 169.676 166.536C173.452 165.384 177.516 163.016 179.82 160.264L177.356 159.272ZM186.092 160.872C189.196 162.536 193.132 165.064 195.052 166.728L196.94 164.552C194.892 162.92 190.892 160.552 187.852 159.016L186.092 160.872ZM184.236 154.056H181.26V155.816H168.46V158.28H181.26V167.432H184.236V158.28H196.94V155.816H184.236V154.056ZM222.348 142.248C219.66 140.776 214.412 139.08 210.604 138.216L209.132 140.68C213.036 141.672 218.22 143.56 220.78 145.032L222.348 142.248ZM210.956 150.728L210.444 150.824H202.188V153.64H209.164C207.628 157.96 204.748 161.384 201.484 163.336C202.188 163.784 203.34 164.936 203.852 165.576C207.82 162.984 211.34 158.152 212.94 151.56L210.956 150.728ZM227.34 146.984C225.612 149 222.924 151.496 220.524 153.32C219.5 151.464 218.7 149.384 218.028 147.176V144.616H206.38V147.464H214.828V163.848C214.828 164.392 214.668 164.552 214.092 164.584C213.548 164.584 211.596 164.584 209.836 164.52C210.284 165.32 210.764 166.664 210.892 167.496C213.516 167.496 215.308 167.464 216.492 166.952C217.644 166.472 218.028 165.608 218.028 163.912V154.408C220.492 159.464 224.076 163.368 229.1 165.576C229.58 164.776 230.508 163.56 231.18 162.952C227.276 161.48 224.236 158.888 221.932 155.592C224.492 153.832 227.596 151.272 230.06 148.968L227.34 146.984ZM253.42 151.72H258.732V153.896H253.42V151.72ZM253.42 147.464H258.732V149.544H253.42V147.464ZM253.42 156.008H261.548V151.88H264.524V149.32H261.548V145.384H253.42V143.432H264.172V140.808H253.484C253.004 139.88 252.364 138.728 251.756 137.864L248.812 138.6C249.196 139.272 249.612 140.04 250.028 140.808H237.708V150.088C237.708 154.792 237.484 161.32 234.956 165.832C235.596 166.12 236.844 166.952 237.356 167.464C240.108 162.632 240.556 155.144 240.556 150.088V143.432H250.412V145.384H242.668V147.464H250.412V149.544H241.26V151.72H250.412V153.896H242.38V156.008H243.276L241.772 157.576C243.308 158.536 245.356 159.912 246.348 160.84L248.044 158.984C247.02 158.184 245.036 156.872 243.532 156.008H250.412V159.24C246.636 160.744 242.732 162.28 240.204 163.176L241.356 165.608C243.948 164.488 247.244 163.016 250.412 161.576V164.392C250.412 164.904 250.22 165.096 249.644 165.096C249.132 165.128 247.18 165.16 245.388 165.064C245.804 165.736 246.188 166.824 246.316 167.56C249.004 167.56 250.732 167.528 251.884 167.112C253.004 166.728 253.42 166.056 253.42 164.424V161.608C256.748 163.016 260.588 164.84 262.668 166.056L264.012 163.944C262.508 163.112 260.204 162.024 257.804 161C259.372 160.104 261.1 158.984 262.636 157.896L260.428 156.136C259.148 157.32 256.94 158.952 255.276 159.944C254.636 159.688 254.028 159.464 253.42 159.208V156.008Z" fill="white"/>
<rect x="153" y="32" width="92.5" height="26" fill="#FDBF52"/>
<path d="M170.268 38.078C168.522 38.636 165.588 39.032 163.122 39.212C163.23 39.554 163.374 40.058 163.41 40.436C165.93 40.292 168.936 39.914 170.934 39.302L170.268 38.078ZM169.854 42.722C170.25 42.11 170.7 41.21 171.132 40.328L169.98 39.878C169.728 40.634 169.242 41.66 168.846 42.326L169.854 42.722ZM165.3 42.398C165.174 41.858 164.868 41.084 164.526 40.508L163.41 40.958C163.716 41.552 164.04 42.38 164.13 42.938L165.3 42.398ZM166.452 48.014C166.434 48.464 166.398 48.896 166.344 49.274H163.068V50.534H166.056C165.642 51.83 164.742 52.676 162.78 53.234C163.086 53.504 163.482 54.062 163.626 54.422C165.372 53.882 166.398 53.09 167.01 52.01C168.162 52.73 169.404 53.648 170.034 54.296L171.006 53.27C170.25 52.532 168.738 51.56 167.514 50.84L167.568 50.534H171.06V49.274H167.802C167.856 48.878 167.892 48.446 167.91 48.014H166.452ZM168.558 45.602C168.774 45.89 168.972 46.214 169.17 46.556L166.038 46.808C167.352 45.962 168.684 44.936 169.944 43.73L168.9 42.938C168.414 43.442 167.874 43.946 167.352 44.396L165.462 44.432C166.074 43.946 166.704 43.334 167.262 42.722L166.92 42.488L168.036 42.002C167.928 41.48 167.622 40.706 167.334 40.13L166.2 40.562C166.47 41.156 166.758 41.912 166.848 42.434L166.2 41.984C165.534 42.938 164.544 43.784 164.238 44.018C163.95 44.234 163.698 44.396 163.446 44.45C163.572 44.81 163.752 45.512 163.806 45.8C164.04 45.71 164.364 45.638 165.912 45.566C165.372 45.944 164.94 46.25 164.688 46.394C164.112 46.772 163.68 47.006 163.284 47.078C163.392 47.438 163.572 48.158 163.626 48.428C164.04 48.212 164.652 48.158 169.746 47.636C169.908 47.96 170.034 48.266 170.124 48.518L171.348 47.996C171.06 47.186 170.394 45.998 169.71 45.116L168.558 45.602ZM173.508 49.958H175.416V52.082H173.508V49.958ZM175.416 44.99H173.508V42.974H175.416V44.99ZM175.416 48.536H173.508V46.412H175.416V48.536ZM179.376 52.082H176.91V49.958H178.908V48.536H176.91V46.412H178.908V44.99H176.91V42.974H179.16V41.462H176.91L177.756 41.156C177.486 40.418 176.946 39.266 176.46 38.402L175.056 38.834C175.506 39.626 175.974 40.724 176.244 41.462H173.58C173.994 40.436 174.318 39.356 174.606 38.276L173.04 37.898C172.428 40.418 171.402 42.92 170.07 44.504C170.412 44.81 170.988 45.494 171.222 45.818C171.492 45.476 171.744 45.116 171.996 44.702V54.404H173.508V53.594H179.376V52.082ZM195.216 40.85H189.726V39.698H195.216V40.85ZM195.216 43.154H189.726V41.984H195.216V43.154ZM196.872 38.474H188.142V44.378H196.872V38.474ZM186.684 39.842C186.036 39.212 184.668 38.456 183.606 38.006L182.67 39.248C183.732 39.752 185.082 40.598 185.694 41.21L186.684 39.842ZM185.766 44.504C185.1 43.928 183.732 43.208 182.67 42.794L181.734 44.054C182.832 44.522 184.164 45.314 184.794 45.908L185.766 44.504ZM184.974 47.456C184.092 49.508 182.904 51.812 182.076 53.198L183.57 54.188C184.47 52.496 185.496 50.354 186.27 48.464L184.974 47.456ZM198.312 46.682V45.314H186.522V46.682H188.826C188.052 47.96 186.918 49.148 185.73 49.94C186.072 50.192 186.648 50.678 186.9 50.948C187.566 50.444 188.25 49.796 188.862 49.076H190.302C189.402 50.606 188.052 51.992 186.63 52.91C186.954 53.162 187.53 53.684 187.782 53.954C189.366 52.784 190.932 51.02 191.976 49.076H193.416C192.732 50.876 191.616 52.46 190.248 53.504C190.59 53.702 191.202 54.17 191.454 54.422C192.912 53.162 194.19 51.254 194.982 49.076H196.134C195.954 51.524 195.738 52.496 195.468 52.784C195.324 52.964 195.18 53 194.946 52.982C194.712 52.982 194.172 52.982 193.578 52.928C193.812 53.306 193.956 53.936 193.992 54.368C194.694 54.404 195.378 54.404 195.756 54.35C196.188 54.296 196.512 54.17 196.8 53.828C197.286 53.288 197.538 51.884 197.772 48.41C197.79 48.194 197.808 47.762 197.808 47.762H189.87C190.104 47.402 190.32 47.042 190.518 46.682H198.312ZM208.104 38.15V52.208C208.104 52.568 207.978 52.676 207.6 52.694C207.222 52.712 205.908 52.712 204.684 52.658C204.954 53.144 205.242 53.936 205.35 54.404C207.06 54.422 208.212 54.368 208.932 54.098C209.634 53.81 209.922 53.324 209.922 52.208V38.15H208.104ZM212.406 42.74C213.864 45.332 215.286 48.68 215.664 50.804L217.482 50.084C217.032 47.906 215.556 44.63 214.026 42.128L212.406 42.74ZM203.442 42.272C203.028 44.648 202.074 47.744 200.562 49.616C201.012 49.778 201.75 50.192 202.164 50.498C203.73 48.5 204.738 45.242 205.332 42.614L203.442 42.272ZM235.14 50.156C233.754 49.49 231.036 48.392 229.218 47.708L228.354 49.004C230.226 49.778 232.908 50.948 234.204 51.668L235.14 50.156ZM235.896 45.998V44.342H228.3V41.858H234.15V40.256H228.3V37.916H226.536V44.342H219.858V45.998H226.59V54.404H228.354V45.998H235.896Z" fill="#573605"/>
<path d="M194.07 287.77L193.97 288.917L192.374 288.778L192.474 287.63L194.07 287.77ZM193.753 291.392L192.157 291.252L192.264 290.033L193.86 290.173L193.753 291.392ZM190.993 288.657L188.124 288.406L188.014 289.661L190.883 289.912L190.777 291.131L188.661 290.946L188.554 292.166L190.67 292.351L190.573 293.463L188.26 293.26L188.147 294.551L190.46 294.754L190.358 295.919L187.614 295.679L187.5 296.988L190.243 297.228L190.074 299.165L191.455 299.286L191.624 297.349L195.228 297.664L195.343 296.355L191.739 296.04L191.841 294.874L194.925 295.144L195.038 293.853L191.954 293.583L192.051 292.472L194.938 292.724L195.151 290.285L196.353 290.391L196.462 289.135L195.261 289.03L195.466 286.681L192.579 286.429L192.696 285.102L191.315 284.981L191.199 286.308L189.083 286.123L188.978 287.324L191.094 287.509L190.993 288.657ZM183.179 284.215C182.309 286.723 181.012 289.157 179.557 290.71C179.79 291.146 180.121 292.114 180.194 292.518C180.63 292.069 181.038 291.544 181.45 290.966L180.614 300.523L182.084 300.652L183.184 288.082C183.729 287.01 184.244 285.88 184.667 284.761L183.179 284.215ZM187.212 290.982L186.942 290.977L185.938 290.889C186.862 289.614 187.816 288 188.631 286.336L187.719 285.606L187.235 285.762L184.563 285.529L184.438 286.963L186.554 287.148C185.85 288.586 185.034 289.852 184.728 290.259C184.34 290.767 183.848 291.23 183.499 291.29C183.689 291.595 183.977 292.235 184.077 292.533C184.09 292.389 184.356 292.232 184.639 292.094L186.451 292.253C186.161 293.709 185.782 294.941 185.311 295.984C184.991 295.305 184.754 294.507 184.584 293.553L183.365 293.862C183.635 295.313 184.042 296.451 184.555 297.399C183.906 298.408 183.138 299.136 182.245 299.636C182.551 299.862 183.043 300.429 183.266 300.774C184.069 300.266 184.781 299.569 185.42 298.667C186.962 300.446 189.135 301.016 191.681 301.239L194.855 301.516C194.963 301.11 195.256 300.449 195.519 300.129C194.728 300.078 192.505 299.883 191.859 299.827C189.601 299.611 187.585 299.11 186.198 297.416C187.004 295.843 187.615 293.818 188.074 291.256L187.212 290.982Z" fill="#927858"/>
<path d="M212.57 292.077L215.547 291.817L215.653 293.036L212.677 293.296L212.57 292.077ZM212.361 289.692L215.338 289.432L215.44 290.597L212.463 290.858L212.361 289.692ZM212.78 294.48L217.335 294.081L217.132 291.768L218.8 291.622L218.675 290.188L217.007 290.334L216.814 288.128L212.259 288.527L212.164 287.433L218.189 286.906L218.06 285.435L212.071 285.959C211.756 285.463 211.341 284.849 210.958 284.394L209.345 284.951C209.593 285.309 209.864 285.719 210.134 286.129L203.231 286.733L203.686 291.933C203.916 294.569 204.111 298.238 202.915 300.89C203.288 301.02 204.028 301.425 204.34 301.687C205.645 298.844 205.529 294.626 205.282 291.793L204.955 288.063L210.478 287.58L210.574 288.674L206.234 289.054L206.336 290.219L210.676 289.84L210.778 291.005L205.649 291.454L205.756 292.673L210.884 292.224L210.991 293.444L206.49 293.838L206.594 295.021L207.096 294.977L206.33 295.929C207.238 296.392 208.453 297.063 209.054 297.534L209.914 296.411C209.301 296.013 208.125 295.375 207.239 294.965L211.095 294.627L211.253 296.438C209.211 297.466 207.099 298.518 205.726 299.144L206.491 300.451C207.888 299.696 209.663 298.71 211.368 297.747L211.506 299.325C211.531 299.612 211.433 299.729 211.11 299.757C210.825 299.8 209.732 299.914 208.723 299.948C208.989 300.304 209.258 300.895 209.366 301.301C210.872 301.17 211.839 301.067 212.464 300.777C213.073 300.507 213.273 300.11 213.193 299.196L213.055 297.618C214.989 298.244 217.23 299.077 218.455 299.657L219.105 298.408C218.221 298.015 216.877 297.518 215.482 297.062C216.316 296.483 217.23 295.771 218.037 295.086L216.714 294.208C216.054 294.934 214.897 295.957 214.013 296.594C213.642 296.482 213.29 296.387 212.937 296.273L212.78 294.48Z" fill="#927858"/>
</g>
</g>
<defs>
<filter id="filter0_d_114_13036" x="-4" y="1" width="408" height="407" filterUnits="userSpaceOnUse" color-interpolation-filters="sRGB">
<feFlood flood-opacity="0" result="BackgroundImageFix"/>
<feColorMatrix in="SourceAlpha" type="matrix" values="0 0 0 0 0 0 0 0 0 0 0 0 0 0 0 0 0 0 127 0" result="hardAlpha"/>
<feOffset dy="4"/>
<feGaussianBlur stdDeviation="2"/>
<feComposite in2="hardAlpha" operator="out"/>
<feColorMatrix type="matrix" values="0 0 0 0 0 0 0 0 0 0 0 0 0 0 0 0 0 0 0.25 0"/>
<feBlend mode="normal" in2="BackgroundImageFix" result="effect1_dropShadow_114_13036"/>
<feBlend mode="normal" in="SourceGraphic" in2="effect1_dropShadow_114_13036" result="shape"/>
</filter>
<filter id="filter1_i_114_13036" x="0" y="1" width="400" height="203" filterUnits="userSpaceOnUse" color-interpolation-filters="sRGB">
<feFlood flood-opacity="0" result="BackgroundImageFix"/>
<feBlend mode="normal" in="SourceGraphic" in2="BackgroundImageFix" result="shape"/>
<feColorMatrix in="SourceAlpha" type="matrix" values="0 0 0 0 0 0 0 0 0 0 0 0 0 0 0 0 0 0 127 0" result="hardAlpha"/>
<feOffset dy="4"/>
<feGaussianBlur stdDeviation="2"/>
<feComposite in2="hardAlpha" operator="arithmetic" k2="-1" k3="1"/>
<feColorMatrix type="matrix" values="0 0 0 0 0 0 0 0 0 0 0 0 0 0 0 0 0 0 0.35 0"/>
<feBlend mode="normal" in2="shape" result="effect1_innerShadow_114_13036"/>
</filter>
<filter id="filter2_i_114_13036" x="0" y="198" width="400" height="202" filterUnits="userSpaceOnUse" color-interpolation-filters="sRGB">
<feFlood flood-opacity="0" result="BackgroundImageFix"/>
<feBlend mode="normal" in="SourceGraphic" in2="BackgroundImageFix" result="shape"/>
<feColorMatrix in="SourceAlpha" type="matrix" values="0 0 0 0 0 0 0 0 0 0 0 0 0 0 0 0 0 0 127 0" result="hardAlpha"/>
<feOffset dy="-2"/>
<feGaussianBlur stdDeviation="2"/>
<feComposite in2="hardAlpha" operator="arithmetic" k2="-1" k3="1"/>
<feColorMatrix type="matrix" values="0 0 0 0 0 0 0 0 0 0 0 0 0 0 0 0 0 0 0.25 0"/>
<feBlend mode="normal" in2="shape" result="effect1_innerShadow_114_13036"/>
</filter>
<filter id="filter3_di_114_13036" x="-8" y="200" width="416" height="158" filterUnits="userSpaceOnUse" color-interpolation-filters="sRGB">
<feFlood flood-opacity="0" result="BackgroundImageFix"/>
<feColorMatrix in="SourceAlpha" type="matrix" values="0 0 0 0 0 0 0 0 0 0 0 0 0 0 0 0 0 0 127 0" result="hardAlpha"/>
<feOffset dy="10"/>
<feGaussianBlur stdDeviation="4"/>
<feComposite in2="hardAlpha" operator="out"/>
<feColorMatrix type="matrix" values="0 0 0 0 0 0 0 0 0 0 0 0 0 0 0 0 0 0 0.25 0"/>
<feBlend mode="normal" in2="BackgroundImageFix" result="effect1_dropShadow_114_13036"/>
<feBlend mode="normal" in="SourceGraphic" in2="effect1_dropShadow_114_13036" result="shape"/>
<feColorMatrix in="SourceAlpha" type="matrix" values="0 0 0 0 0 0 0 0 0 0 0 0 0 0 0 0 0 0 127 0" result="hardAlpha"/>
<feOffset dy="3"/>
<feGaussianBlur stdDeviation="4"/>
<feComposite in2="hardAlpha" operator="arithmetic" k2="-1" k3="1"/>
<feColorMatrix type="matrix" values="0 0 0 0 0 0 0 0 0 0 0 0 0 0 0 0 0 0 0.25 0"/>
<feBlend mode="normal" in2="shape" result="effect2_innerShadow_114_13036"/>
</filter>
<filter id="filter4_d_114_13036" x="-4" y="1" width="408" height="407" filterUnits="userSpaceOnUse" color-interpolation-filters="sRGB">
<feFlood flood-opacity="0" result="BackgroundImageFix"/>
<feColorMatrix in="SourceAlpha" type="matrix" values="0 0 0 0 0 0 0 0 0 0 0 0 0 0 0 0 0 0 127 0" result="hardAlpha"/>
<feOffset dy="4"/>
<feGaussianBlur stdDeviation="2"/>
<feComposite in2="hardAlpha" operator="out"/>
<feColorMatrix type="matrix" values="0 0 0 0 0 0 0 0 0 0 0 0 0 0 0 0 0 0 0.25 0"/>
<feBlend mode="normal" in2="BackgroundImageFix" result="effect1_dropShadow_114_13036"/>
<feBlend mode="normal" in="SourceGraphic" in2="effect1_dropShadow_114_13036" result="shape"/>
</filter>
<filter id="filter5_i_114_13036" x="0" y="1" width="400" height="203" filterUnits="userSpaceOnUse" color-interpolation-filters="sRGB">
<feFlood flood-opacity="0" result="BackgroundImageFix"/>
<feBlend mode="normal" in="SourceGraphic" in2="BackgroundImageFix" result="shape"/>
<feColorMatrix in="SourceAlpha" type="matrix" values="0 0 0 0 0 0 0 0 0 0 0 0 0 0 0 0 0 0 127 0" result="hardAlpha"/>
<feOffset dy="4"/>
<feGaussianBlur stdDeviation="2"/>
<feComposite in2="hardAlpha" operator="arithmetic" k2="-1" k3="1"/>
<feColorMatrix type="matrix" values="0 0 0 0 0 0 0 0 0 0 0 0 0 0 0 0 0 0 0.35 0"/>
<feBlend mode="normal" in2="shape" result="effect1_innerShadow_114_13036"/>
</filter>
<filter id="filter6_i_114_13036" x="0" y="198" width="400" height="202" filterUnits="userSpaceOnUse" color-interpolation-filters="sRGB">
<feFlood flood-opacity="0" result="BackgroundImageFix"/>
<feBlend mode="normal" in="SourceGraphic" in2="BackgroundImageFix" result="shape"/>
<feColorMatrix in="SourceAlpha" type="matrix" values="0 0 0 0 0 0 0 0 0 0 0 0 0 0 0 0 0 0 127 0" result="hardAlpha"/>
<feOffset dy="-2"/>
<feGaussianBlur stdDeviation="2"/>
<feComposite in2="hardAlpha" operator="arithmetic" k2="-1" k3="1"/>
<feColorMatrix type="matrix" values="0 0 0 0 0 0 0 0 0 0 0 0 0 0 0 0 0 0 0.25 0"/>
<feBlend mode="normal" in2="shape" result="effect1_innerShadow_114_13036"/>
</filter>
<filter id="filter7_di_114_13036" x="-8" y="200" width="416" height="158" filterUnits="userSpaceOnUse" color-interpolation-filters="sRGB">
<feFlood flood-opacity="0" result="BackgroundImageFix"/>
<feColorMatrix in="SourceAlpha" type="matrix" values="0 0 0 0 0 0 0 0 0 0 0 0 0 0 0 0 0 0 127 0" result="hardAlpha"/>
<feOffset dy="10"/>
<feGaussianBlur stdDeviation="4"/>
<feComposite in2="hardAlpha" operator="out"/>
<feColorMatrix type="matrix" values="0 0 0 0 0 0 0 0 0 0 0 0 0 0 0 0 0 0 0.25 0"/>
<feBlend mode="normal" in2="BackgroundImageFix" result="effect1_dropShadow_114_13036"/>
<feBlend mode="normal" in="SourceGraphic" in2="effect1_dropShadow_114_13036" result="shape"/>
<feColorMatrix in="SourceAlpha" type="matrix" values="0 0 0 0 0 0 0 0 0 0 0 0 0 0 0 0 0 0 127 0" result="hardAlpha"/>
<feOffset dy="3"/>
<feGaussianBlur stdDeviation="4"/>
<feComposite in2="hardAlpha" operator="arithmetic" k2="-1" k3="1"/>
<feColorMatrix type="matrix" values="0 0 0 0 0 0 0 0 0 0 0 0 0 0 0 0 0 0 0.25 0"/>
<feBlend mode="normal" in2="shape" result="effect2_innerShadow_114_13036"/>
</filter>
<clipPath id="clip0_114_13036">
<rect width="400" height="400" fill="white"/>
</clipPath>
</defs>
</svg>
