<svg width="400" height="400" viewBox="0 0 400 400" fill="none" xmlns="http://www.w3.org/2000/svg">
<g clip-path="url(#clip0_114_13021)">
<g filter="url(#filter0_d_114_13021)">
<g filter="url(#filter1_i_114_13021)">
<path d="M400 200C400 147.222 378.929 96.6055 341.421 59.2858C303.914 21.966 253.043 1 200 1C146.957 0.999996 96.0859 21.966 58.5787 59.2857C21.0714 96.6055 8.00932e-06 147.222 0 200L400 200Z" fill="#FDBF52"/>
</g>
<path d="M360 201C360 158.565 343.143 117.869 313.137 87.8629C283.131 57.8571 242.435 41 200 41C157.565 41 116.869 57.8571 86.8629 87.8629C56.8571 117.869 40 158.565 40 201" stroke="#FCDBA3" stroke-width="3"/>
<g filter="url(#filter2_i_114_13021)">
<path d="M1.74846e-05 200C1.28474e-05 253.043 21.0714 303.914 58.5786 341.421C96.0859 378.929 146.957 400 200 400C253.043 400 303.914 378.929 341.421 341.421C378.929 303.914 400 253.043 400 200L200 200L1.74846e-05 200Z" fill="#FDBF52"/>
<path d="M1.74846e-05 200C1.28474e-05 253.043 21.0714 303.914 58.5786 341.421C96.0859 378.929 146.957 400 200 400C253.043 400 303.914 378.929 341.421 341.421C378.929 303.914 400 253.043 400 200L200 200L1.74846e-05 200Z" fill="black" fill-opacity="0.2"/>
</g>
<g filter="url(#filter3_di_114_13021)">
<path d="M1.22392e-05 200C8.99315e-06 237.13 21.0714 272.74 58.5786 298.995C96.0859 325.25 146.957 340 200 340C253.043 340 303.914 325.25 341.421 298.995C378.929 272.74 400 237.13 400 200L200 200L1.22392e-05 200Z" fill="#FCDBA3"/>
</g>
<path d="M40 200C40 229.704 56.8571 258.192 86.8629 279.196C116.869 300.2 157.565 312 200 312C242.435 312 283.131 300.2 313.137 279.196C343.143 258.192 360 229.704 360 200" stroke="#FDBF52" stroke-width="3"/>
<path d="M157.292 120.552H150.476V118.568H157.292V120.552ZM150.476 114.408H157.292V116.232H150.476V114.408ZM141.452 108.424V106.504H147.468V108.424H141.452ZM156.78 106.504V108.424H150.476V106.504H156.78ZM163.628 116.232H160.3V112.296H150.476V110.408H159.788V104.52H150.476V102.888H162.956V100.488H150.476V98.152H147.468V100.488H135.34V102.888H147.468V104.52H138.604V110.408H147.468V112.296H137.772V114.408H147.468V116.232H134.668V118.568H147.468V120.552H137.484V122.792H147.468V124.488C147.468 125.032 147.276 125.192 146.7 125.224C146.188 125.256 144.268 125.256 142.508 125.192C142.924 125.832 143.372 126.92 143.532 127.592C146.22 127.592 147.884 127.56 148.972 127.176C150.06 126.76 150.476 126.088 150.476 124.456V122.792H157.292V124.168H160.3V118.568H163.628V116.232ZM177.804 121.448C175.756 122.76 171.884 123.944 168.652 124.424C169.26 124.968 170.028 125.96 170.444 126.6C173.74 125.864 177.74 124.2 179.98 122.472L177.804 121.448ZM185.868 122.76C188.78 123.88 192.684 125.576 194.668 126.568L196.652 124.84C194.508 123.816 190.604 122.28 187.788 121.256L185.868 122.76ZM187.564 105.992C187.116 106.824 186.38 108.04 185.772 108.84L186.924 109.192H178.188L179.628 108.808C179.372 108.072 178.764 106.888 178.124 105.992H187.564ZM184.108 117.608V115.688H193.932V113.448H184.108V111.528H195.436V109.192H188.652C189.292 108.456 190.028 107.592 190.732 106.632L188.236 105.992H196.62V103.624H192.044C192.876 102.44 193.836 100.84 194.7 99.272L191.628 98.472C191.148 99.912 190.156 101.928 189.388 103.208L190.636 103.624H187.148V98.12H184.332V103.624H181.164V98.12H178.38V103.624H174.796L176.492 102.984C176.044 101.736 174.924 99.784 173.932 98.408L171.34 99.304C172.236 100.616 173.196 102.376 173.676 103.624H168.908V105.992H177.068L175.212 106.44C175.756 107.272 176.3 108.392 176.62 109.192H170.188V111.528H181.196V113.448H171.756V115.688H181.196V117.608H168.78V120.104H181.196V127.528H184.108V120.104H196.716V117.608H184.108ZM223.724 113.512H211.244V110.76H223.724V113.512ZM211.148 118.792C211.212 118.024 211.244 117.256 211.244 116.552V116.008H223.724V118.792H211.148ZM230.316 104.936V102.152H214.38C214.828 101.064 215.18 99.944 215.532 98.856L212.492 98.152C212.14 99.464 211.692 100.808 211.148 102.152H202.38V104.936H209.9C207.916 108.776 205.196 112.328 201.676 114.696C202.284 115.272 203.18 116.328 203.628 117C205.356 115.784 206.892 114.344 208.268 112.712V116.488C208.268 119.464 208.012 122.952 205.324 125.416C205.9 125.832 207.084 127.08 207.468 127.752C209.356 126.024 210.348 123.688 210.828 121.288H223.724V124.04C223.724 124.52 223.564 124.68 223.02 124.68C222.476 124.712 220.556 124.712 218.668 124.616C219.052 125.416 219.5 126.696 219.596 127.496C222.252 127.496 224.044 127.496 225.164 127.016C226.316 126.568 226.636 125.672 226.636 124.072V108.136H211.5C212.108 107.112 212.652 106.024 213.196 104.936H230.316ZM259.468 108.328C258.54 111.272 257.356 113.928 255.82 116.296C255.084 113.448 254.572 109.992 254.252 106.184H264.3V103.272H261.036L262.572 101.64C261.324 100.552 258.924 99.08 257.036 98.088L255.244 99.912C256.94 100.84 259.02 102.216 260.268 103.272H254.092C253.996 101.608 253.964 99.912 253.996 98.184H250.86C250.86 99.88 250.924 101.608 251.02 103.272H237.868V112.328C237.868 116.456 237.644 121.96 235.084 125.8C235.756 126.184 237.068 127.24 237.58 127.848C240.396 123.72 240.94 117.32 240.972 112.776H246.092C245.996 117.608 245.804 119.432 245.452 119.88C245.228 120.168 244.908 120.264 244.46 120.264C243.948 120.264 242.7 120.232 241.388 120.104C241.836 120.872 242.124 122.024 242.188 122.888C243.724 122.952 245.164 122.952 245.964 122.824C246.828 122.728 247.436 122.472 248.012 121.8C248.684 120.904 248.844 118.152 249.004 111.208V110.056H240.972V106.184H251.212C251.596 111.176 252.332 115.752 253.484 119.368C251.532 121.64 249.164 123.496 246.508 124.968C247.18 125.512 248.236 126.76 248.684 127.4C250.892 126.056 252.908 124.424 254.732 122.504C256.172 125.512 258.028 127.304 260.364 127.304C262.988 127.304 264.076 125.8 264.556 120.168C263.756 119.88 262.7 119.208 261.996 118.504C261.804 122.632 261.42 124.264 260.588 124.264C259.244 124.264 257.996 122.6 256.908 119.88C259.244 116.808 261.132 113.192 262.476 109.064L259.468 108.328ZM142.22 160.424C142.284 159.784 142.316 159.112 142.316 158.504H156.012V160.424H142.22ZM156.012 154.568V156.456H142.316V154.568H156.012ZM159.052 152.328H139.404V158.024C139.404 160.456 139.212 163.528 137.42 165.736C138.06 166.152 139.276 167.304 139.692 167.912C140.94 166.408 141.612 164.424 141.964 162.44H156.012V164.456C156.012 164.936 155.852 165.064 155.308 165.096C154.828 165.096 152.844 165.096 151.084 165.032C151.436 165.704 151.852 166.728 151.98 167.432C154.604 167.432 156.396 167.432 157.548 167.048C158.668 166.664 159.052 165.96 159.052 164.488V152.328ZM150.508 148.328V146.344H160.076V144.168H150.508V142.376H161.42V140.072H150.508V138.152H147.5V140.072H137.068V142.376H147.5V144.168H138.22V146.344H147.5V148.328H135.116V150.632H163.084V148.328H150.508ZM171.724 144.68H181.196V153.352H184.108V144.68H193.612V149.384H196.364V142.696H184.108V141.256H194.316V139.048H171.052V141.256H181.196V142.696H169.068V149.384H171.724V144.68ZM172.524 154.152C174.764 153.32 177.484 152.232 180.108 151.176L179.756 149.16C176.716 150.184 173.612 151.176 171.5 151.784L172.524 154.152ZM172.684 146.76C174.732 147.368 177.452 148.456 178.86 149.128L179.948 147.272C178.508 146.632 175.756 145.64 173.772 145.096L172.684 146.76ZM193.292 154.728H172.14V156.936H193.292V154.728ZM185.196 151.016C187.788 151.848 191.276 153.16 193.068 154.024L194.028 152.008C192.172 151.112 188.652 149.928 186.156 149.192L185.196 151.016ZM191.596 145.16C189.932 145.896 187.02 147.016 185.068 147.496L186.22 149.16C188.172 148.68 190.956 147.912 192.972 146.984L191.596 145.16ZM176.364 164.328C177.644 163.368 178.924 162.248 180.14 161.096H187.788L186.38 161.736C187.244 162.344 188.172 163.112 189.068 163.88L176.364 164.328ZM196.972 158.792H168.46V161.096H176.14C174.956 162.216 173.804 163.144 173.292 163.432C172.588 163.976 172.012 164.328 171.436 164.424C171.788 165.192 172.236 166.632 172.396 167.24C173.58 166.824 175.308 166.792 191.436 166.056C192.044 166.664 192.588 167.208 192.94 167.688L195.628 166.408C194.252 164.904 191.66 162.728 189.484 161.096H196.972V158.792ZM209.132 161.384H223.532V163.752H209.132V161.384ZM223.532 147.976V150.216H209.132V147.976H223.532ZM223.532 154.6H209.132V152.456H223.532V154.6ZM209.132 156.84H223.532V159.144H209.132V156.84ZM226.54 163.752V145.512H216.588C216.748 144.808 216.908 144.104 217.036 143.336H229.868V140.712H217.516L217.932 138.408L214.636 138.12C214.572 138.888 214.508 139.816 214.38 140.712H202.764V143.336H214.06C213.964 144.104 213.836 144.84 213.708 145.512H206.252V163.752H201.9V166.472H230.764V163.752H226.54ZM250.476 162.984V151.08H262.028V148.104H250.476V138.6H247.276V162.984H235.596V165.992H264.236V162.984H250.476Z" fill="white"/>
<rect x="153" y="32" width="92.5" height="26" fill="#FDBF52"/>
<path d="M170.268 38.078C168.522 38.636 165.588 39.032 163.122 39.212C163.23 39.554 163.374 40.058 163.41 40.436C165.93 40.292 168.936 39.914 170.934 39.302L170.268 38.078ZM169.854 42.722C170.25 42.11 170.7 41.21 171.132 40.328L169.98 39.878C169.728 40.634 169.242 41.66 168.846 42.326L169.854 42.722ZM165.3 42.398C165.174 41.858 164.868 41.084 164.526 40.508L163.41 40.958C163.716 41.552 164.04 42.38 164.13 42.938L165.3 42.398ZM166.452 48.014C166.434 48.464 166.398 48.896 166.344 49.274H163.068V50.534H166.056C165.642 51.83 164.742 52.676 162.78 53.234C163.086 53.504 163.482 54.062 163.626 54.422C165.372 53.882 166.398 53.09 167.01 52.01C168.162 52.73 169.404 53.648 170.034 54.296L171.006 53.27C170.25 52.532 168.738 51.56 167.514 50.84L167.568 50.534H171.06V49.274H167.802C167.856 48.878 167.892 48.446 167.91 48.014H166.452ZM168.558 45.602C168.774 45.89 168.972 46.214 169.17 46.556L166.038 46.808C167.352 45.962 168.684 44.936 169.944 43.73L168.9 42.938C168.414 43.442 167.874 43.946 167.352 44.396L165.462 44.432C166.074 43.946 166.704 43.334 167.262 42.722L166.92 42.488L168.036 42.002C167.928 41.48 167.622 40.706 167.334 40.13L166.2 40.562C166.47 41.156 166.758 41.912 166.848 42.434L166.2 41.984C165.534 42.938 164.544 43.784 164.238 44.018C163.95 44.234 163.698 44.396 163.446 44.45C163.572 44.81 163.752 45.512 163.806 45.8C164.04 45.71 164.364 45.638 165.912 45.566C165.372 45.944 164.94 46.25 164.688 46.394C164.112 46.772 163.68 47.006 163.284 47.078C163.392 47.438 163.572 48.158 163.626 48.428C164.04 48.212 164.652 48.158 169.746 47.636C169.908 47.96 170.034 48.266 170.124 48.518L171.348 47.996C171.06 47.186 170.394 45.998 169.71 45.116L168.558 45.602ZM173.508 49.958H175.416V52.082H173.508V49.958ZM175.416 44.99H173.508V42.974H175.416V44.99ZM175.416 48.536H173.508V46.412H175.416V48.536ZM179.376 52.082H176.91V49.958H178.908V48.536H176.91V46.412H178.908V44.99H176.91V42.974H179.16V41.462H176.91L177.756 41.156C177.486 40.418 176.946 39.266 176.46 38.402L175.056 38.834C175.506 39.626 175.974 40.724 176.244 41.462H173.58C173.994 40.436 174.318 39.356 174.606 38.276L173.04 37.898C172.428 40.418 171.402 42.92 170.07 44.504C170.412 44.81 170.988 45.494 171.222 45.818C171.492 45.476 171.744 45.116 171.996 44.702V54.404H173.508V53.594H179.376V52.082ZM195.216 40.85H189.726V39.698H195.216V40.85ZM195.216 43.154H189.726V41.984H195.216V43.154ZM196.872 38.474H188.142V44.378H196.872V38.474ZM186.684 39.842C186.036 39.212 184.668 38.456 183.606 38.006L182.67 39.248C183.732 39.752 185.082 40.598 185.694 41.21L186.684 39.842ZM185.766 44.504C185.1 43.928 183.732 43.208 182.67 42.794L181.734 44.054C182.832 44.522 184.164 45.314 184.794 45.908L185.766 44.504ZM184.974 47.456C184.092 49.508 182.904 51.812 182.076 53.198L183.57 54.188C184.47 52.496 185.496 50.354 186.27 48.464L184.974 47.456ZM198.312 46.682V45.314H186.522V46.682H188.826C188.052 47.96 186.918 49.148 185.73 49.94C186.072 50.192 186.648 50.678 186.9 50.948C187.566 50.444 188.25 49.796 188.862 49.076H190.302C189.402 50.606 188.052 51.992 186.63 52.91C186.954 53.162 187.53 53.684 187.782 53.954C189.366 52.784 190.932 51.02 191.976 49.076H193.416C192.732 50.876 191.616 52.46 190.248 53.504C190.59 53.702 191.202 54.17 191.454 54.422C192.912 53.162 194.19 51.254 194.982 49.076H196.134C195.954 51.524 195.738 52.496 195.468 52.784C195.324 52.964 195.18 53 194.946 52.982C194.712 52.982 194.172 52.982 193.578 52.928C193.812 53.306 193.956 53.936 193.992 54.368C194.694 54.404 195.378 54.404 195.756 54.35C196.188 54.296 196.512 54.17 196.8 53.828C197.286 53.288 197.538 51.884 197.772 48.41C197.79 48.194 197.808 47.762 197.808 47.762H189.87C190.104 47.402 190.32 47.042 190.518 46.682H198.312ZM208.104 38.15V52.208C208.104 52.568 207.978 52.676 207.6 52.694C207.222 52.712 205.908 52.712 204.684 52.658C204.954 53.144 205.242 53.936 205.35 54.404C207.06 54.422 208.212 54.368 208.932 54.098C209.634 53.81 209.922 53.324 209.922 52.208V38.15H208.104ZM212.406 42.74C213.864 45.332 215.286 48.68 215.664 50.804L217.482 50.084C217.032 47.906 215.556 44.63 214.026 42.128L212.406 42.74ZM203.442 42.272C203.028 44.648 202.074 47.744 200.562 49.616C201.012 49.778 201.75 50.192 202.164 50.498C203.73 48.5 204.738 45.242 205.332 42.614L203.442 42.272ZM235.14 50.156C233.754 49.49 231.036 48.392 229.218 47.708L228.354 49.004C230.226 49.778 232.908 50.948 234.204 51.668L235.14 50.156ZM235.896 45.998V44.342H228.3V41.858H234.15V40.256H228.3V37.916H226.536V44.342H219.858V45.998H226.59V54.404H228.354V45.998H235.896Z" fill="#573605"/>
<path d="M192.018 297.6L188.198 297.266L188.296 296.154L192.115 296.488L192.018 297.6ZM188.499 293.823L192.319 294.157L192.229 295.179L188.41 294.845L188.499 293.823ZM183.736 290.028L183.83 288.952L187.201 289.247L187.107 290.323L183.736 290.028ZM192.419 289.703L192.325 290.779L188.793 290.47L188.887 289.394L192.419 289.703ZM195.78 295.49L193.915 295.327L194.108 293.121L188.603 292.64L188.696 291.582L193.914 292.038L194.202 288.739L188.984 288.282L189.064 287.368L196.058 287.98L196.175 286.635L189.182 286.023L189.296 284.714L187.611 284.567L187.496 285.876L180.7 285.281L180.583 286.626L187.379 287.22L187.299 288.135L182.332 287.7L182.043 291L187.01 291.434L186.917 292.492L181.484 292.017L181.381 293.2L186.814 293.676L186.725 294.698L179.552 294.07L179.437 295.379L186.61 296.007L186.513 297.119L180.918 296.629L180.808 297.884L186.403 298.374L186.32 299.324C186.293 299.629 186.178 299.709 185.853 299.699C185.565 299.692 184.489 299.598 183.506 299.475C183.708 299.855 183.905 300.486 183.962 300.871C185.468 301.002 186.402 301.066 187.031 300.904C187.661 300.724 187.927 300.368 188.007 299.454L188.088 298.521L191.908 298.855L191.84 299.626L193.526 299.774L193.801 296.636L195.665 296.799L195.78 295.49Z" fill="#927858"/>
<path d="M208.331 297.941C207.248 298.776 205.136 299.63 203.348 300.057C203.716 300.332 204.195 300.85 204.459 301.189C206.27 300.615 208.43 299.486 209.601 298.408L208.331 297.941ZM212.914 298.281C214.601 298.765 216.871 299.524 218.032 299.983L219.059 298.917C217.807 298.449 215.544 297.779 213.916 297.344L212.914 298.281ZM213.042 288.801C212.832 289.29 212.479 290.007 212.178 290.485L212.841 290.626L207.945 291.054L208.733 290.768C208.554 290.368 208.155 289.735 207.753 289.264L213.042 288.801ZM211.675 295.48L211.581 294.404L217.086 293.922L216.976 292.667L211.471 293.149L211.377 292.073L217.725 291.518L217.61 290.209L213.809 290.541C214.131 290.097 214.502 289.577 214.849 289.005L213.419 288.768L218.117 288.357L218.001 287.03L215.437 287.255C215.845 286.551 216.304 285.607 216.712 284.686L214.951 284.388C214.753 285.219 214.296 286.397 213.928 287.152L214.648 287.324L212.693 287.495L212.423 284.411L210.845 284.549L211.115 287.633L209.34 287.788L209.07 284.704L207.51 284.84L207.78 287.925L205.772 288.1L206.691 287.659C206.378 286.981 205.655 285.942 205.032 285.22L203.623 285.849C204.19 286.54 204.814 287.479 205.144 288.155L202.472 288.389L202.588 289.716L207.161 289.316L206.143 289.658C206.488 290.097 206.848 290.698 207.067 291.131L203.462 291.446L203.577 292.755L209.745 292.216L209.839 293.292L204.55 293.754L204.66 295.01L209.949 294.547L210.043 295.623L203.086 296.231L203.208 297.63L210.166 297.021L210.53 301.181L212.162 301.039L211.798 296.879L218.863 296.26L218.74 294.862L211.675 295.48Z" fill="#927858"/>
</g>
<g filter="url(#filter4_d_114_13021)">
<g filter="url(#filter5_i_114_13021)">
<path d="M400 200C400 147.222 378.929 96.6055 341.421 59.2858C303.914 21.966 253.043 1 200 1C146.957 0.999996 96.0859 21.966 58.5787 59.2857C21.0714 96.6055 8.00932e-06 147.222 0 200L400 200Z" fill="#FDBF52"/>
</g>
<path d="M360 201C360 158.565 343.143 117.869 313.137 87.8629C283.131 57.8571 242.435 41 200 41C157.565 41 116.869 57.8571 86.8629 87.8629C56.8571 117.869 40 158.565 40 201" stroke="#FCDBA3" stroke-width="3"/>
<g filter="url(#filter6_i_114_13021)">
<path d="M1.74846e-05 200C1.28474e-05 253.043 21.0714 303.914 58.5786 341.421C96.0859 378.929 146.957 400 200 400C253.043 400 303.914 378.929 341.421 341.421C378.929 303.914 400 253.043 400 200L200 200L1.74846e-05 200Z" fill="#FDBF52"/>
<path d="M1.74846e-05 200C1.28474e-05 253.043 21.0714 303.914 58.5786 341.421C96.0859 378.929 146.957 400 200 400C253.043 400 303.914 378.929 341.421 341.421C378.929 303.914 400 253.043 400 200L200 200L1.74846e-05 200Z" fill="black" fill-opacity="0.2"/>
</g>
<g filter="url(#filter7_di_114_13021)">
<path d="M1.22392e-05 200C8.99315e-06 237.13 21.0714 272.74 58.5786 298.995C96.0859 325.25 146.957 340 200 340C253.043 340 303.914 325.25 341.421 298.995C378.929 272.74 400 237.13 400 200L200 200L1.22392e-05 200Z" fill="#FCDBA3"/>
</g>
<path d="M40 200C40 229.704 56.8571 258.192 86.8629 279.196C116.869 300.2 157.565 312 200 312C242.435 312 283.131 300.2 313.137 279.196C343.143 258.192 360 229.704 360 200" stroke="#FDBF52" stroke-width="3"/>
<path d="M159.692 116.008C158.188 117.256 155.852 118.76 153.772 119.944C152.524 118.792 151.532 117.48 150.7 116.008H159.692ZM159.756 116.008H163.34V113.384H143.372V111.08H159.212V108.744H143.372V106.504H159.212V104.136H143.372V101.832H160.14V99.368H140.364V113.384H134.86V116.008H139.82V122.312C139.82 123.592 138.924 124.328 138.252 124.616C138.764 125.352 139.34 126.856 139.532 127.624L139.756 127.432C140.556 127.048 142.316 126.632 150.444 124.616C150.444 124.008 150.54 122.792 150.668 122.024L142.764 123.752V116.008H147.596C150.316 121.96 154.988 125.768 162.22 127.368C162.572 126.568 163.436 125.352 164.076 124.68C160.812 124.104 158.028 123.048 155.788 121.512C157.868 120.456 160.236 119.016 162.124 117.64L159.756 116.008ZM177.932 114.024V119.944H173.452V114.024H177.932ZM180.716 111.432H170.7V125.16H173.452V122.536H180.716V111.432ZM194.86 111.432H183.692V127.56H186.604V114.088H191.98V120.232C191.98 120.616 191.852 120.744 191.404 120.744C191.02 120.776 189.548 120.776 188.012 120.744C188.364 121.48 188.748 122.632 188.876 123.432C191.084 123.432 192.62 123.432 193.612 122.952C194.604 122.504 194.86 121.704 194.86 120.264V111.432ZM177.164 106.472C179.244 105.192 181.196 103.688 182.828 102.12C184.3 103.72 186.092 105.192 188.076 106.472H177.164ZM182.86 97.736C179.884 101.832 173.676 105.672 167.788 107.208C168.396 107.976 169.132 109.192 169.516 110.056C171.692 109.32 173.932 108.328 176.044 107.144V109.128H189.1V107.112C191.116 108.296 193.292 109.288 195.5 109.896C195.948 109.064 196.908 107.784 197.612 107.08C192.62 105.896 187.5 103.176 184.62 100.168C184.844 99.912 185.036 99.656 185.228 99.432L182.86 97.736ZM224.012 114.856H208.876V109.768H224.012V114.856ZM208.876 122.792V117.576H224.012V122.792H208.876ZM230.188 102.728V99.816H202.444V102.728H214.316C214.156 104.136 213.868 105.704 213.58 106.984H205.868V127.56H208.876V125.544H224.012V127.56H227.18V106.984H216.652C217.036 105.704 217.388 104.168 217.804 102.728H230.188ZM250.028 117.448C249.644 118.888 248.94 120.232 247.884 121.416V116.104H251.532V113.992H241.644V116.104H245.452V122.312H246.988C245.356 123.816 243.148 124.968 240.588 125.704C241.004 126.12 241.58 126.92 241.868 127.432C247.244 125.832 251.02 122.312 252.428 117.832L250.028 117.448ZM242.476 117.192C242.028 118.856 241.228 120.488 240.108 121.672C240.652 121.96 241.548 122.568 241.932 122.92C243.052 121.608 244.076 119.624 244.62 117.672L242.476 117.192ZM256.908 107.528L256.236 108.168C257.228 108.68 258.444 109.352 259.276 109.992H255.148C255.084 109.192 255.052 108.392 255.02 107.528H256.908ZM259.116 113.608C258.54 115.464 257.676 117.16 256.684 118.696C256.108 116.904 255.692 114.792 255.404 112.456H263.628V109.992H260.428L261.452 108.936C260.94 108.52 260.172 108.008 259.308 107.528H263.948V105.064H251.756V102.952H261.132V100.68H251.756V98.184H248.876V105.064H243.596V99.592H240.844V105.064H235.884V107.528H252.332C252.364 108.36 252.396 109.16 252.46 109.992H237.58V115.336C237.58 118.568 237.292 122.984 235.084 126.184C235.756 126.472 237.004 127.176 237.548 127.624C239.884 124.2 240.332 119.016 240.332 115.368V112.456H252.716C253.1 115.784 253.772 118.792 254.7 121.224C253.068 122.984 251.148 124.424 249.004 125.512C249.58 125.992 250.636 127.048 251.02 127.592C252.844 126.568 254.444 125.32 255.916 123.816C257.228 126.056 258.86 127.368 260.78 127.368C262.988 127.368 263.916 126.216 264.332 121.96C263.628 121.704 262.732 121.16 262.124 120.616C261.964 123.592 261.676 124.776 260.972 124.776C259.852 124.776 258.732 123.656 257.804 121.672C259.468 119.528 260.844 117.032 261.804 114.216L259.116 113.608ZM142.764 153.192H154.956V154.344C154.572 154.696 154.188 155.016 153.804 155.336C150.028 155.592 146.22 155.784 142.764 155.976V153.192ZM154.956 143.816V146.312H142.764V143.816H154.956ZM154.956 151.016H142.764V148.488H154.956V151.016ZM160.428 148.04C159.692 149.16 158.892 150.216 158.028 151.24V141.224H149.612C150.124 140.392 150.636 139.464 151.116 138.536L147.5 138.056C147.244 138.984 146.828 140.136 146.348 141.224H139.788V156.136L134.924 156.392L135.372 159.336C139.276 159.08 144.396 158.696 149.708 158.248C145.292 161.032 140.14 163.112 134.572 164.552C135.18 165.224 136.172 166.568 136.588 167.272C143.372 165.256 149.708 162.312 154.956 158.248V163.624C154.956 164.232 154.732 164.424 154.092 164.456C153.42 164.456 151.084 164.488 148.812 164.392C149.26 165.256 149.74 166.664 149.868 167.528C153.004 167.528 155.084 167.496 156.364 167.016C157.644 166.472 158.028 165.512 158.028 163.656V155.656C160.012 153.8 161.772 151.752 163.308 149.48L160.428 148.04ZM197.1 147.496C196.076 145.608 193.804 142.824 191.852 140.808L189.74 142.088C190.412 142.888 191.18 143.72 191.884 144.648L183.692 145.288C185.26 143.496 186.86 141.256 188.14 139.048L185.068 138.312C183.852 140.968 181.868 143.656 181.228 144.392C180.652 145.128 180.076 145.608 179.532 145.736C179.884 146.44 180.396 147.72 180.556 148.264C181.42 147.912 182.796 147.784 193.548 146.856C194.06 147.624 194.508 148.36 194.828 149L197.1 147.496ZM171.308 154.088C171.468 152.744 171.628 151.272 171.788 149.832H178.572V139.848H168.652V142.536H175.82V147.112H169.42C169.164 150.216 168.652 154.216 168.204 156.744H175.852C175.532 161.704 175.148 163.752 174.604 164.328C174.316 164.648 173.996 164.68 173.484 164.68C172.94 164.68 171.628 164.68 170.22 164.552C170.668 165.32 171.02 166.472 171.052 167.272C172.556 167.368 173.996 167.336 174.828 167.24C175.788 167.144 176.46 166.92 177.068 166.216C177.964 165.192 178.412 162.376 178.828 155.272C178.86 154.888 178.892 154.088 178.892 154.088H171.308ZM182.828 156.808V153H186.508V156.808H182.828ZM193.068 153V156.808H189.324V153H193.068ZM197.676 166.504C197.036 164.616 195.372 161.736 193.804 159.56L191.372 160.616C191.884 161.384 192.396 162.248 192.908 163.112L189.324 163.336V159.24H195.788V150.6H189.324V147.72H186.508V150.6H180.236V159.24H186.508V163.496C183.66 163.656 181.036 163.784 179.02 163.88L179.404 166.792C183.34 166.536 188.908 166.152 194.252 165.704C194.604 166.44 194.892 167.112 195.084 167.72L197.676 166.504ZM227.628 144.488H225.452V142.568H227.628V144.488ZM227.628 148.36H225.452V146.408H227.628V148.36ZM217.548 146.408H219.66V148.36H217.548V146.408ZM217.548 142.568H219.66V144.488H217.548V142.568ZM223.564 146.408V148.36H221.548V146.408H223.564ZM221.548 144.488V142.568H223.564V144.488H221.548ZM229.964 140.552H225.836V138.184H223.468V140.552H221.548V138.184H219.212V140.552H215.276V150.408H229.964V140.552ZM230.732 151.816H214.7V154.024H230.7L230.732 151.816ZM205.964 156.36C207.052 157.096 208.396 158.248 209.068 158.952L210.412 157.416C209.74 156.712 208.364 155.72 207.148 154.952L205.964 156.2V153.992H210.444V159.112C208.716 159.976 207.084 160.808 205.804 161.32C205.932 160.136 205.964 158.984 205.964 157.928V156.36ZM205.612 141.416H210.572V143.112H207.244V148.136H205.612V141.416ZM208.876 148.136V144.904H210.572V148.136H208.876ZM212.076 151.944H204.172V150.216H212.076V151.944ZM214.348 152.84V148.136H213.036V139.208H203.276V148.136H201.964V152.84H203.532V157.896C203.532 160.456 203.372 163.72 201.74 166.152C202.316 166.408 203.404 167.176 203.82 167.656C204.972 165.96 205.484 163.752 205.772 161.608L206.668 163.4C207.852 162.664 209.132 161.896 210.444 161.064V164.712C210.444 165.032 210.348 165.128 210.028 165.128C209.676 165.16 208.684 165.16 207.532 165.128C207.852 165.736 208.204 166.696 208.332 167.368C210.06 167.368 211.18 167.336 211.948 166.952C212.716 166.536 212.94 165.928 212.94 164.744V152.84H214.348ZM225.292 161.384C225.004 162.312 224.492 163.656 224.012 164.712H221.196C220.876 163.752 220.332 162.44 219.82 161.384H225.292ZM218.7 157.256H226.508V159.496H218.7V157.256ZM226.476 164.712C226.956 163.88 227.436 162.952 227.98 162.056L225.548 161.384H229.292V155.336H216.108V161.384H219.724L217.58 162.024C217.932 162.856 218.284 163.848 218.572 164.712H214.348V166.952H231.02V164.712H226.476ZM242.828 146.952H239.212V139.496H236.524V149.64H242.828V153.736H235.244V156.424H237.036V156.776C237.036 159.208 236.78 163.208 234.988 165.992C235.66 166.344 236.716 167.112 237.228 167.624C239.372 164.392 239.724 159.624 239.724 156.872V156.424H242.828V167.496H245.612V138.152H242.828V146.952ZM264.684 151.272V148.392H257.132V138.216H254.124V148.392H246.732V151.272H254.124V163.688H247.468V166.504H263.916V163.688H257.132V151.272H264.684Z" fill="white"/>
<rect x="153" y="32" width="92.5" height="26" fill="#FDBF52"/>
<path d="M170.268 38.078C168.522 38.636 165.588 39.032 163.122 39.212C163.23 39.554 163.374 40.058 163.41 40.436C165.93 40.292 168.936 39.914 170.934 39.302L170.268 38.078ZM169.854 42.722C170.25 42.11 170.7 41.21 171.132 40.328L169.98 39.878C169.728 40.634 169.242 41.66 168.846 42.326L169.854 42.722ZM165.3 42.398C165.174 41.858 164.868 41.084 164.526 40.508L163.41 40.958C163.716 41.552 164.04 42.38 164.13 42.938L165.3 42.398ZM166.452 48.014C166.434 48.464 166.398 48.896 166.344 49.274H163.068V50.534H166.056C165.642 51.83 164.742 52.676 162.78 53.234C163.086 53.504 163.482 54.062 163.626 54.422C165.372 53.882 166.398 53.09 167.01 52.01C168.162 52.73 169.404 53.648 170.034 54.296L171.006 53.27C170.25 52.532 168.738 51.56 167.514 50.84L167.568 50.534H171.06V49.274H167.802C167.856 48.878 167.892 48.446 167.91 48.014H166.452ZM168.558 45.602C168.774 45.89 168.972 46.214 169.17 46.556L166.038 46.808C167.352 45.962 168.684 44.936 169.944 43.73L168.9 42.938C168.414 43.442 167.874 43.946 167.352 44.396L165.462 44.432C166.074 43.946 166.704 43.334 167.262 42.722L166.92 42.488L168.036 42.002C167.928 41.48 167.622 40.706 167.334 40.13L166.2 40.562C166.47 41.156 166.758 41.912 166.848 42.434L166.2 41.984C165.534 42.938 164.544 43.784 164.238 44.018C163.95 44.234 163.698 44.396 163.446 44.45C163.572 44.81 163.752 45.512 163.806 45.8C164.04 45.71 164.364 45.638 165.912 45.566C165.372 45.944 164.94 46.25 164.688 46.394C164.112 46.772 163.68 47.006 163.284 47.078C163.392 47.438 163.572 48.158 163.626 48.428C164.04 48.212 164.652 48.158 169.746 47.636C169.908 47.96 170.034 48.266 170.124 48.518L171.348 47.996C171.06 47.186 170.394 45.998 169.71 45.116L168.558 45.602ZM173.508 49.958H175.416V52.082H173.508V49.958ZM175.416 44.99H173.508V42.974H175.416V44.99ZM175.416 48.536H173.508V46.412H175.416V48.536ZM179.376 52.082H176.91V49.958H178.908V48.536H176.91V46.412H178.908V44.99H176.91V42.974H179.16V41.462H176.91L177.756 41.156C177.486 40.418 176.946 39.266 176.46 38.402L175.056 38.834C175.506 39.626 175.974 40.724 176.244 41.462H173.58C173.994 40.436 174.318 39.356 174.606 38.276L173.04 37.898C172.428 40.418 171.402 42.92 170.07 44.504C170.412 44.81 170.988 45.494 171.222 45.818C171.492 45.476 171.744 45.116 171.996 44.702V54.404H173.508V53.594H179.376V52.082ZM195.216 40.85H189.726V39.698H195.216V40.85ZM195.216 43.154H189.726V41.984H195.216V43.154ZM196.872 38.474H188.142V44.378H196.872V38.474ZM186.684 39.842C186.036 39.212 184.668 38.456 183.606 38.006L182.67 39.248C183.732 39.752 185.082 40.598 185.694 41.21L186.684 39.842ZM185.766 44.504C185.1 43.928 183.732 43.208 182.67 42.794L181.734 44.054C182.832 44.522 184.164 45.314 184.794 45.908L185.766 44.504ZM184.974 47.456C184.092 49.508 182.904 51.812 182.076 53.198L183.57 54.188C184.47 52.496 185.496 50.354 186.27 48.464L184.974 47.456ZM198.312 46.682V45.314H186.522V46.682H188.826C188.052 47.96 186.918 49.148 185.73 49.94C186.072 50.192 186.648 50.678 186.9 50.948C187.566 50.444 188.25 49.796 188.862 49.076H190.302C189.402 50.606 188.052 51.992 186.63 52.91C186.954 53.162 187.53 53.684 187.782 53.954C189.366 52.784 190.932 51.02 191.976 49.076H193.416C192.732 50.876 191.616 52.46 190.248 53.504C190.59 53.702 191.202 54.17 191.454 54.422C192.912 53.162 194.19 51.254 194.982 49.076H196.134C195.954 51.524 195.738 52.496 195.468 52.784C195.324 52.964 195.18 53 194.946 52.982C194.712 52.982 194.172 52.982 193.578 52.928C193.812 53.306 193.956 53.936 193.992 54.368C194.694 54.404 195.378 54.404 195.756 54.35C196.188 54.296 196.512 54.17 196.8 53.828C197.286 53.288 197.538 51.884 197.772 48.41C197.79 48.194 197.808 47.762 197.808 47.762H189.87C190.104 47.402 190.32 47.042 190.518 46.682H198.312ZM208.104 38.15V52.208C208.104 52.568 207.978 52.676 207.6 52.694C207.222 52.712 205.908 52.712 204.684 52.658C204.954 53.144 205.242 53.936 205.35 54.404C207.06 54.422 208.212 54.368 208.932 54.098C209.634 53.81 209.922 53.324 209.922 52.208V38.15H208.104ZM212.406 42.74C213.864 45.332 215.286 48.68 215.664 50.804L217.482 50.084C217.032 47.906 215.556 44.63 214.026 42.128L212.406 42.74ZM203.442 42.272C203.028 44.648 202.074 47.744 200.562 49.616C201.012 49.778 201.75 50.192 202.164 50.498C203.73 48.5 204.738 45.242 205.332 42.614L203.442 42.272ZM235.14 50.156C233.754 49.49 231.036 48.392 229.218 47.708L228.354 49.004C230.226 49.778 232.908 50.948 234.204 51.668L235.14 50.156ZM235.896 45.998V44.342H228.3V41.858H234.15V40.256H228.3V37.916H226.536V44.342H219.858V45.998H226.59V54.404H228.354V45.998H235.896Z" fill="#573605"/>
<path d="M194.07 287.77L193.97 288.917L192.374 288.778L192.474 287.63L194.07 287.77ZM193.753 291.392L192.157 291.252L192.264 290.033L193.86 290.173L193.753 291.392ZM190.993 288.657L188.124 288.406L188.014 289.661L190.883 289.912L190.777 291.131L188.661 290.946L188.554 292.166L190.67 292.351L190.573 293.463L188.26 293.26L188.147 294.551L190.46 294.754L190.358 295.919L187.614 295.679L187.5 296.988L190.243 297.228L190.074 299.165L191.455 299.286L191.624 297.349L195.228 297.664L195.343 296.355L191.739 296.04L191.841 294.874L194.925 295.144L195.038 293.853L191.954 293.583L192.051 292.472L194.938 292.724L195.151 290.285L196.353 290.391L196.462 289.135L195.261 289.03L195.466 286.681L192.579 286.429L192.696 285.102L191.315 284.981L191.199 286.308L189.083 286.123L188.978 287.324L191.094 287.509L190.993 288.657ZM183.179 284.215C182.309 286.723 181.012 289.157 179.557 290.71C179.79 291.146 180.121 292.114 180.194 292.518C180.63 292.069 181.038 291.544 181.45 290.966L180.614 300.523L182.084 300.652L183.184 288.082C183.729 287.01 184.244 285.88 184.667 284.761L183.179 284.215ZM187.212 290.982L186.942 290.977L185.938 290.889C186.862 289.614 187.816 288 188.631 286.336L187.719 285.606L187.235 285.762L184.563 285.529L184.438 286.963L186.554 287.148C185.85 288.586 185.034 289.852 184.728 290.259C184.34 290.767 183.848 291.23 183.499 291.29C183.689 291.595 183.977 292.235 184.077 292.533C184.09 292.389 184.356 292.232 184.639 292.094L186.451 292.253C186.161 293.709 185.782 294.941 185.311 295.984C184.991 295.305 184.754 294.507 184.584 293.553L183.365 293.862C183.635 295.313 184.042 296.451 184.555 297.399C183.906 298.408 183.138 299.136 182.245 299.636C182.551 299.862 183.043 300.429 183.266 300.774C184.069 300.266 184.781 299.569 185.42 298.667C186.962 300.446 189.135 301.016 191.681 301.239L194.855 301.516C194.963 301.11 195.256 300.449 195.519 300.129C194.728 300.078 192.505 299.883 191.859 299.827C189.601 299.611 187.585 299.11 186.198 297.416C187.004 295.843 187.615 293.818 188.074 291.256L187.212 290.982Z" fill="#927858"/>
<path d="M212.57 292.077L215.547 291.817L215.653 293.036L212.677 293.296L212.57 292.077ZM212.361 289.692L215.338 289.432L215.44 290.597L212.463 290.858L212.361 289.692ZM212.78 294.48L217.335 294.081L217.132 291.768L218.8 291.622L218.675 290.188L217.007 290.334L216.814 288.128L212.259 288.527L212.164 287.433L218.189 286.906L218.06 285.435L212.071 285.959C211.756 285.463 211.341 284.849 210.958 284.394L209.345 284.951C209.593 285.309 209.864 285.719 210.134 286.129L203.231 286.733L203.686 291.933C203.916 294.569 204.111 298.238 202.915 300.89C203.288 301.02 204.028 301.425 204.34 301.687C205.645 298.844 205.529 294.626 205.282 291.793L204.955 288.063L210.478 287.58L210.574 288.674L206.234 289.054L206.336 290.219L210.676 289.84L210.778 291.005L205.649 291.454L205.756 292.673L210.884 292.224L210.991 293.444L206.49 293.838L206.594 295.021L207.096 294.977L206.33 295.929C207.238 296.392 208.453 297.063 209.054 297.534L209.914 296.411C209.301 296.013 208.125 295.375 207.239 294.965L211.095 294.627L211.253 296.438C209.211 297.466 207.099 298.518 205.726 299.144L206.491 300.451C207.888 299.696 209.663 298.71 211.368 297.747L211.506 299.325C211.531 299.612 211.433 299.729 211.11 299.757C210.825 299.8 209.732 299.914 208.723 299.948C208.989 300.304 209.258 300.895 209.366 301.301C210.872 301.17 211.839 301.067 212.464 300.777C213.073 300.507 213.273 300.11 213.193 299.196L213.055 297.618C214.989 298.244 217.23 299.077 218.455 299.657L219.105 298.408C218.221 298.015 216.877 297.518 215.482 297.062C216.316 296.483 217.23 295.771 218.037 295.086L216.714 294.208C216.054 294.934 214.897 295.957 214.013 296.594C213.642 296.482 213.29 296.387 212.937 296.273L212.78 294.48Z" fill="#927858"/>
</g>
</g>
<defs>
<filter id="filter0_d_114_13021" x="-4" y="1" width="408" height="407" filterUnits="userSpaceOnUse" color-interpolation-filters="sRGB">
<feFlood flood-opacity="0" result="BackgroundImageFix"/>
<feColorMatrix in="SourceAlpha" type="matrix" values="0 0 0 0 0 0 0 0 0 0 0 0 0 0 0 0 0 0 127 0" result="hardAlpha"/>
<feOffset dy="4"/>
<feGaussianBlur stdDeviation="2"/>
<feComposite in2="hardAlpha" operator="out"/>
<feColorMatrix type="matrix" values="0 0 0 0 0 0 0 0 0 0 0 0 0 0 0 0 0 0 0.25 0"/>
<feBlend mode="normal" in2="BackgroundImageFix" result="effect1_dropShadow_114_13021"/>
<feBlend mode="normal" in="SourceGraphic" in2="effect1_dropShadow_114_13021" result="shape"/>
</filter>
<filter id="filter1_i_114_13021" x="0" y="1" width="400" height="203" filterUnits="userSpaceOnUse" color-interpolation-filters="sRGB">
<feFlood flood-opacity="0" result="BackgroundImageFix"/>
<feBlend mode="normal" in="SourceGraphic" in2="BackgroundImageFix" result="shape"/>
<feColorMatrix in="SourceAlpha" type="matrix" values="0 0 0 0 0 0 0 0 0 0 0 0 0 0 0 0 0 0 127 0" result="hardAlpha"/>
<feOffset dy="4"/>
<feGaussianBlur stdDeviation="2"/>
<feComposite in2="hardAlpha" operator="arithmetic" k2="-1" k3="1"/>
<feColorMatrix type="matrix" values="0 0 0 0 0 0 0 0 0 0 0 0 0 0 0 0 0 0 0.35 0"/>
<feBlend mode="normal" in2="shape" result="effect1_innerShadow_114_13021"/>
</filter>
<filter id="filter2_i_114_13021" x="0" y="198" width="400" height="202" filterUnits="userSpaceOnUse" color-interpolation-filters="sRGB">
<feFlood flood-opacity="0" result="BackgroundImageFix"/>
<feBlend mode="normal" in="SourceGraphic" in2="BackgroundImageFix" result="shape"/>
<feColorMatrix in="SourceAlpha" type="matrix" values="0 0 0 0 0 0 0 0 0 0 0 0 0 0 0 0 0 0 127 0" result="hardAlpha"/>
<feOffset dy="-2"/>
<feGaussianBlur stdDeviation="2"/>
<feComposite in2="hardAlpha" operator="arithmetic" k2="-1" k3="1"/>
<feColorMatrix type="matrix" values="0 0 0 0 0 0 0 0 0 0 0 0 0 0 0 0 0 0 0.25 0"/>
<feBlend mode="normal" in2="shape" result="effect1_innerShadow_114_13021"/>
</filter>
<filter id="filter3_di_114_13021" x="-8" y="200" width="416" height="158" filterUnits="userSpaceOnUse" color-interpolation-filters="sRGB">
<feFlood flood-opacity="0" result="BackgroundImageFix"/>
<feColorMatrix in="SourceAlpha" type="matrix" values="0 0 0 0 0 0 0 0 0 0 0 0 0 0 0 0 0 0 127 0" result="hardAlpha"/>
<feOffset dy="10"/>
<feGaussianBlur stdDeviation="4"/>
<feComposite in2="hardAlpha" operator="out"/>
<feColorMatrix type="matrix" values="0 0 0 0 0 0 0 0 0 0 0 0 0 0 0 0 0 0 0.25 0"/>
<feBlend mode="normal" in2="BackgroundImageFix" result="effect1_dropShadow_114_13021"/>
<feBlend mode="normal" in="SourceGraphic" in2="effect1_dropShadow_114_13021" result="shape"/>
<feColorMatrix in="SourceAlpha" type="matrix" values="0 0 0 0 0 0 0 0 0 0 0 0 0 0 0 0 0 0 127 0" result="hardAlpha"/>
<feOffset dy="3"/>
<feGaussianBlur stdDeviation="4"/>
<feComposite in2="hardAlpha" operator="arithmetic" k2="-1" k3="1"/>
<feColorMatrix type="matrix" values="0 0 0 0 0 0 0 0 0 0 0 0 0 0 0 0 0 0 0.25 0"/>
<feBlend mode="normal" in2="shape" result="effect2_innerShadow_114_13021"/>
</filter>
<filter id="filter4_d_114_13021" x="-4" y="1" width="408" height="407" filterUnits="userSpaceOnUse" color-interpolation-filters="sRGB">
<feFlood flood-opacity="0" result="BackgroundImageFix"/>
<feColorMatrix in="SourceAlpha" type="matrix" values="0 0 0 0 0 0 0 0 0 0 0 0 0 0 0 0 0 0 127 0" result="hardAlpha"/>
<feOffset dy="4"/>
<feGaussianBlur stdDeviation="2"/>
<feComposite in2="hardAlpha" operator="out"/>
<feColorMatrix type="matrix" values="0 0 0 0 0 0 0 0 0 0 0 0 0 0 0 0 0 0 0.25 0"/>
<feBlend mode="normal" in2="BackgroundImageFix" result="effect1_dropShadow_114_13021"/>
<feBlend mode="normal" in="SourceGraphic" in2="effect1_dropShadow_114_13021" result="shape"/>
</filter>
<filter id="filter5_i_114_13021" x="0" y="1" width="400" height="203" filterUnits="userSpaceOnUse" color-interpolation-filters="sRGB">
<feFlood flood-opacity="0" result="BackgroundImageFix"/>
<feBlend mode="normal" in="SourceGraphic" in2="BackgroundImageFix" result="shape"/>
<feColorMatrix in="SourceAlpha" type="matrix" values="0 0 0 0 0 0 0 0 0 0 0 0 0 0 0 0 0 0 127 0" result="hardAlpha"/>
<feOffset dy="4"/>
<feGaussianBlur stdDeviation="2"/>
<feComposite in2="hardAlpha" operator="arithmetic" k2="-1" k3="1"/>
<feColorMatrix type="matrix" values="0 0 0 0 0 0 0 0 0 0 0 0 0 0 0 0 0 0 0.35 0"/>
<feBlend mode="normal" in2="shape" result="effect1_innerShadow_114_13021"/>
</filter>
<filter id="filter6_i_114_13021" x="0" y="198" width="400" height="202" filterUnits="userSpaceOnUse" color-interpolation-filters="sRGB">
<feFlood flood-opacity="0" result="BackgroundImageFix"/>
<feBlend mode="normal" in="SourceGraphic" in2="BackgroundImageFix" result="shape"/>
<feColorMatrix in="SourceAlpha" type="matrix" values="0 0 0 0 0 0 0 0 0 0 0 0 0 0 0 0 0 0 127 0" result="hardAlpha"/>
<feOffset dy="-2"/>
<feGaussianBlur stdDeviation="2"/>
<feComposite in2="hardAlpha" operator="arithmetic" k2="-1" k3="1"/>
<feColorMatrix type="matrix" values="0 0 0 0 0 0 0 0 0 0 0 0 0 0 0 0 0 0 0.25 0"/>
<feBlend mode="normal" in2="shape" result="effect1_innerShadow_114_13021"/>
</filter>
<filter id="filter7_di_114_13021" x="-8" y="200" width="416" height="158" filterUnits="userSpaceOnUse" color-interpolation-filters="sRGB">
<feFlood flood-opacity="0" result="BackgroundImageFix"/>
<feColorMatrix in="SourceAlpha" type="matrix" values="0 0 0 0 0 0 0 0 0 0 0 0 0 0 0 0 0 0 127 0" result="hardAlpha"/>
<feOffset dy="10"/>
<feGaussianBlur stdDeviation="4"/>
<feComposite in2="hardAlpha" operator="out"/>
<feColorMatrix type="matrix" values="0 0 0 0 0 0 0 0 0 0 0 0 0 0 0 0 0 0 0.25 0"/>
<feBlend mode="normal" in2="BackgroundImageFix" result="effect1_dropShadow_114_13021"/>
<feBlend mode="normal" in="SourceGraphic" in2="effect1_dropShadow_114_13021" result="shape"/>
<feColorMatrix in="SourceAlpha" type="matrix" values="0 0 0 0 0 0 0 0 0 0 0 0 0 0 0 0 0 0 127 0" result="hardAlpha"/>
<feOffset dy="3"/>
<feGaussianBlur stdDeviation="4"/>
<feComposite in2="hardAlpha" operator="arithmetic" k2="-1" k3="1"/>
<feColorMatrix type="matrix" values="0 0 0 0 0 0 0 0 0 0 0 0 0 0 0 0 0 0 0.25 0"/>
<feBlend mode="normal" in2="shape" result="effect2_innerShadow_114_13021"/>
</filter>
<clipPath id="clip0_114_13021">
<rect width="400" height="400" fill="white"/>
</clipPath>
</defs>
</svg>
