<svg width="425" height="425" viewBox="0 0 425 425" fill="none" xmlns="http://www.w3.org/2000/svg">
<g filter="url(#filter0_i_114_13021)">
<path d="M412 213C412 160.222 390.929 109.605 353.421 72.2858C315.914 34.966 265.043 14 212 14C158.957 14 108.086 34.966 70.5787 72.2857C33.0714 109.605 12 160.222 12 213L412 213Z" fill="#FDBF52"/>
</g>
<path d="M372 214C372 171.565 355.143 130.869 325.137 100.863C295.131 70.8571 254.435 54 212 54C169.565 54 128.869 70.8571 98.8629 100.863C68.8571 130.869 52 171.565 52 214" stroke="#FCDBA3" stroke-width="3"/>
<path d="M12 213C12 266.043 33.0714 316.914 70.5786 354.421C108.086 391.929 158.957 413 212 413C265.043 413 315.914 391.929 353.421 354.421C390.929 316.914 412 266.043 412 213L212 213L12 213Z" fill="#FDBF52"/>
<path d="M12 213C12 266.043 33.0714 316.914 70.5786 354.421C108.086 391.929 158.957 413 212 413C265.043 413 315.914 391.929 353.421 354.421C390.929 316.914 412 266.043 412 213L212 213L12 213Z" fill="black" fill-opacity="0.2"/>
<g filter="url(#filter1_di_114_13021)">
<path d="M12 213C12 250.13 33.0714 285.74 70.5786 311.995C108.086 338.25 158.957 353 212 353C265.043 353 315.914 338.25 353.421 311.995C390.929 285.74 412 250.13 412 213L212 213L12 213Z" fill="#FCDBA3"/>
</g>
<path d="M52 213C52 242.704 68.8571 271.192 98.8629 292.196C128.869 313.2 169.565 325 212 325C254.435 325 295.131 313.2 325.137 292.196C355.143 271.192 372 242.704 372 213" stroke="#FDBF52" stroke-width="3"/>
<path d="M171.692 129.008C170.188 130.256 167.852 131.76 165.772 132.944C164.524 131.792 163.532 130.48 162.7 129.008H171.692ZM171.756 129.008H175.34V126.384H155.372V124.08H171.212V121.744H155.372V119.504H171.212V117.136H155.372V114.832H172.14V112.368H152.364V126.384H146.86V129.008H151.82V135.312C151.82 136.592 150.924 137.328 150.252 137.616C150.764 138.352 151.34 139.856 151.532 140.624L151.756 140.432C152.556 140.048 154.316 139.632 162.444 137.616C162.444 137.008 162.54 135.792 162.668 135.024L154.764 136.752V129.008H159.596C162.316 134.96 166.988 138.768 174.22 140.368C174.572 139.568 175.436 138.352 176.076 137.68C172.812 137.104 170.028 136.048 167.788 134.512C169.868 133.456 172.236 132.016 174.124 130.64L171.756 129.008ZM189.932 127.024V132.944H185.452V127.024H189.932ZM192.716 124.432H182.7V138.16H185.452V135.536H192.716V124.432ZM206.86 124.432H195.692V140.56H198.604V127.088H203.98V133.232C203.98 133.616 203.852 133.744 203.404 133.744C203.02 133.776 201.548 133.776 200.012 133.744C200.364 134.48 200.748 135.632 200.876 136.432C203.084 136.432 204.62 136.432 205.612 135.952C206.604 135.504 206.86 134.704 206.86 133.264V124.432ZM189.164 119.472C191.244 118.192 193.196 116.688 194.828 115.12C196.3 116.72 198.092 118.192 200.076 119.472H189.164ZM194.86 110.736C191.884 114.832 185.676 118.672 179.788 120.208C180.396 120.976 181.132 122.192 181.516 123.056C183.692 122.32 185.932 121.328 188.044 120.144V122.128H201.1V120.112C203.116 121.296 205.292 122.288 207.5 122.896C207.948 122.064 208.908 120.784 209.612 120.08C204.62 118.896 199.5 116.176 196.62 113.168C196.844 112.912 197.036 112.656 197.228 112.432L194.86 110.736ZM236.012 127.856H220.876V122.768H236.012V127.856ZM220.876 135.792V130.576H236.012V135.792H220.876ZM242.188 115.728V112.816H214.444V115.728H226.316C226.156 117.136 225.868 118.704 225.58 119.984H217.868V140.56H220.876V138.544H236.012V140.56H239.18V119.984H228.652C229.036 118.704 229.388 117.168 229.804 115.728H242.188ZM262.028 130.448C261.644 131.888 260.94 133.232 259.884 134.416V129.104H263.532V126.992H253.644V129.104H257.452V135.312H258.988C257.356 136.816 255.148 137.968 252.588 138.704C253.004 139.12 253.58 139.92 253.868 140.432C259.244 138.832 263.02 135.312 264.428 130.832L262.028 130.448ZM254.476 130.192C254.028 131.856 253.228 133.488 252.108 134.672C252.652 134.96 253.548 135.568 253.932 135.92C255.052 134.608 256.076 132.624 256.62 130.672L254.476 130.192ZM268.908 120.528L268.236 121.168C269.228 121.68 270.444 122.352 271.276 122.992H267.148C267.084 122.192 267.052 121.392 267.02 120.528H268.908ZM271.116 126.608C270.54 128.464 269.676 130.16 268.684 131.696C268.108 129.904 267.692 127.792 267.404 125.456H275.628V122.992H272.428L273.452 121.936C272.94 121.52 272.172 121.008 271.308 120.528H275.948V118.064H263.756V115.952H273.132V113.68H263.756V111.184H260.876V118.064H255.596V112.592H252.844V118.064H247.884V120.528H264.332C264.364 121.36 264.396 122.16 264.46 122.992H249.58V128.336C249.58 131.568 249.292 135.984 247.084 139.184C247.756 139.472 249.004 140.176 249.548 140.624C251.884 137.2 252.332 132.016 252.332 128.368V125.456H264.716C265.1 128.784 265.772 131.792 266.7 134.224C265.068 135.984 263.148 137.424 261.004 138.512C261.58 138.992 262.636 140.048 263.02 140.592C264.844 139.568 266.444 138.32 267.916 136.816C269.228 139.056 270.86 140.368 272.78 140.368C274.988 140.368 275.916 139.216 276.332 134.96C275.628 134.704 274.732 134.16 274.124 133.616C273.964 136.592 273.676 137.776 272.972 137.776C271.852 137.776 270.732 136.656 269.804 134.672C271.468 132.528 272.844 130.032 273.804 127.216L271.116 126.608ZM154.764 166.192H166.956V167.344C166.572 167.696 166.188 168.016 165.804 168.336C162.028 168.592 158.22 168.784 154.764 168.976V166.192ZM166.956 156.816V159.312H154.764V156.816H166.956ZM166.956 164.016H154.764V161.488H166.956V164.016ZM172.428 161.04C171.692 162.16 170.892 163.216 170.028 164.24V154.224H161.612C162.124 153.392 162.636 152.464 163.116 151.536L159.5 151.056C159.244 151.984 158.828 153.136 158.348 154.224H151.788V169.136L146.924 169.392L147.372 172.336C151.276 172.08 156.396 171.696 161.708 171.248C157.292 174.032 152.14 176.112 146.572 177.552C147.18 178.224 148.172 179.568 148.588 180.272C155.372 178.256 161.708 175.312 166.956 171.248V176.624C166.956 177.232 166.732 177.424 166.092 177.456C165.42 177.456 163.084 177.488 160.812 177.392C161.26 178.256 161.74 179.664 161.868 180.528C165.004 180.528 167.084 180.496 168.364 180.016C169.644 179.472 170.028 178.512 170.028 176.656V168.656C172.012 166.8 173.772 164.752 175.308 162.48L172.428 161.04ZM209.1 160.496C208.076 158.608 205.804 155.824 203.852 153.808L201.74 155.088C202.412 155.888 203.18 156.72 203.884 157.648L195.692 158.288C197.26 156.496 198.86 154.256 200.14 152.048L197.068 151.312C195.852 153.968 193.868 156.656 193.228 157.392C192.652 158.128 192.076 158.608 191.532 158.736C191.884 159.44 192.396 160.72 192.556 161.264C193.42 160.912 194.796 160.784 205.548 159.856C206.06 160.624 206.508 161.36 206.828 162L209.1 160.496ZM183.308 167.088C183.468 165.744 183.628 164.272 183.788 162.832H190.572V152.848H180.652V155.536H187.82V160.112H181.42C181.164 163.216 180.652 167.216 180.204 169.744H187.852C187.532 174.704 187.148 176.752 186.604 177.328C186.316 177.648 185.996 177.68 185.484 177.68C184.94 177.68 183.628 177.68 182.22 177.552C182.668 178.32 183.02 179.472 183.052 180.272C184.556 180.368 185.996 180.336 186.828 180.24C187.788 180.144 188.46 179.92 189.068 179.216C189.964 178.192 190.412 175.376 190.828 168.272C190.86 167.888 190.892 167.088 190.892 167.088H183.308ZM194.828 169.808V166H198.508V169.808H194.828ZM205.068 166V169.808H201.324V166H205.068ZM209.676 179.504C209.036 177.616 207.372 174.736 205.804 172.56L203.372 173.616C203.884 174.384 204.396 175.248 204.908 176.112L201.324 176.336V172.24H207.788V163.6H201.324V160.72H198.508V163.6H192.236V172.24H198.508V176.496C195.66 176.656 193.036 176.784 191.02 176.88L191.404 179.792C195.34 179.536 200.908 179.152 206.252 178.704C206.604 179.44 206.892 180.112 207.084 180.72L209.676 179.504ZM239.628 157.488H237.452V155.568H239.628V157.488ZM239.628 161.36H237.452V159.408H239.628V161.36ZM229.548 159.408H231.66V161.36H229.548V159.408ZM229.548 155.568H231.66V157.488H229.548V155.568ZM235.564 159.408V161.36H233.548V159.408H235.564ZM233.548 157.488V155.568H235.564V157.488H233.548ZM241.964 153.552H237.836V151.184H235.468V153.552H233.548V151.184H231.212V153.552H227.276V163.408H241.964V153.552ZM242.732 164.816H226.7V167.024H242.7L242.732 164.816ZM217.964 169.36C219.052 170.096 220.396 171.248 221.068 171.952L222.412 170.416C221.74 169.712 220.364 168.72 219.148 167.952L217.964 169.2V166.992H222.444V172.112C220.716 172.976 219.084 173.808 217.804 174.32C217.932 173.136 217.964 171.984 217.964 170.928V169.36ZM217.612 154.416H222.572V156.112H219.244V161.136H217.612V154.416ZM220.876 161.136V157.904H222.572V161.136H220.876ZM224.076 164.944H216.172V163.216H224.076V164.944ZM226.348 165.84V161.136H225.036V152.208H215.276V161.136H213.964V165.84H215.532V170.896C215.532 173.456 215.372 176.72 213.74 179.152C214.316 179.408 215.404 180.176 215.82 180.656C216.972 178.96 217.484 176.752 217.772 174.608L218.668 176.4C219.852 175.664 221.132 174.896 222.444 174.064V177.712C222.444 178.032 222.348 178.128 222.028 178.128C221.676 178.16 220.684 178.16 219.532 178.128C219.852 178.736 220.204 179.696 220.332 180.368C222.06 180.368 223.18 180.336 223.948 179.952C224.716 179.536 224.94 178.928 224.94 177.744V165.84H226.348ZM237.292 174.384C237.004 175.312 236.492 176.656 236.012 177.712H233.196C232.876 176.752 232.332 175.44 231.82 174.384H237.292ZM230.7 170.256H238.508V172.496H230.7V170.256ZM238.476 177.712C238.956 176.88 239.436 175.952 239.98 175.056L237.548 174.384H241.292V168.336H228.108V174.384H231.724L229.58 175.024C229.932 175.856 230.284 176.848 230.572 177.712H226.348V179.952H243.02V177.712H238.476ZM254.828 159.952H251.212V152.496H248.524V162.64H254.828V166.736H247.244V169.424H249.036V169.776C249.036 172.208 248.78 176.208 246.988 178.992C247.66 179.344 248.716 180.112 249.228 180.624C251.372 177.392 251.724 172.624 251.724 169.872V169.424H254.828V180.496H257.612V151.152H254.828V159.952ZM276.684 164.272V161.392H269.132V151.216H266.124V161.392H258.732V164.272H266.124V176.688H259.468V179.504H275.916V176.688H269.132V164.272H276.684Z" fill="white"/>
<rect x="165" y="45" width="92.5" height="26" fill="#FDBF52"/>
<path d="M182.268 51.078C180.522 51.636 177.588 52.032 175.122 52.212C175.23 52.554 175.374 53.058 175.41 53.436C177.93 53.292 180.936 52.914 182.934 52.302L182.268 51.078ZM181.854 55.722C182.25 55.11 182.7 54.21 183.132 53.328L181.98 52.878C181.728 53.634 181.242 54.66 180.846 55.326L181.854 55.722ZM177.3 55.398C177.174 54.858 176.868 54.084 176.526 53.508L175.41 53.958C175.716 54.552 176.04 55.38 176.13 55.938L177.3 55.398ZM178.452 61.014C178.434 61.464 178.398 61.896 178.344 62.274H175.068V63.534H178.056C177.642 64.83 176.742 65.676 174.78 66.234C175.086 66.504 175.482 67.062 175.626 67.422C177.372 66.882 178.398 66.09 179.01 65.01C180.162 65.73 181.404 66.648 182.034 67.296L183.006 66.27C182.25 65.532 180.738 64.56 179.514 63.84L179.568 63.534H183.06V62.274H179.802C179.856 61.878 179.892 61.446 179.91 61.014H178.452ZM180.558 58.602C180.774 58.89 180.972 59.214 181.17 59.556L178.038 59.808C179.352 58.962 180.684 57.936 181.944 56.73L180.9 55.938C180.414 56.442 179.874 56.946 179.352 57.396L177.462 57.432C178.074 56.946 178.704 56.334 179.262 55.722L178.92 55.488L180.036 55.002C179.928 54.48 179.622 53.706 179.334 53.13L178.2 53.562C178.47 54.156 178.758 54.912 178.848 55.434L178.2 54.984C177.534 55.938 176.544 56.784 176.238 57.018C175.95 57.234 175.698 57.396 175.446 57.45C175.572 57.81 175.752 58.512 175.806 58.8C176.04 58.71 176.364 58.638 177.912 58.566C177.372 58.944 176.94 59.25 176.688 59.394C176.112 59.772 175.68 60.006 175.284 60.078C175.392 60.438 175.572 61.158 175.626 61.428C176.04 61.212 176.652 61.158 181.746 60.636C181.908 60.96 182.034 61.266 182.124 61.518L183.348 60.996C183.06 60.186 182.394 58.998 181.71 58.116L180.558 58.602ZM185.508 62.958H187.416V65.082H185.508V62.958ZM187.416 57.99H185.508V55.974H187.416V57.99ZM187.416 61.536H185.508V59.412H187.416V61.536ZM191.376 65.082H188.91V62.958H190.908V61.536H188.91V59.412H190.908V57.99H188.91V55.974H191.16V54.462H188.91L189.756 54.156C189.486 53.418 188.946 52.266 188.46 51.402L187.056 51.834C187.506 52.626 187.974 53.724 188.244 54.462H185.58C185.994 53.436 186.318 52.356 186.606 51.276L185.04 50.898C184.428 53.418 183.402 55.92 182.07 57.504C182.412 57.81 182.988 58.494 183.222 58.818C183.492 58.476 183.744 58.116 183.996 57.702V67.404H185.508V66.594H191.376V65.082ZM207.216 53.85H201.726V52.698H207.216V53.85ZM207.216 56.154H201.726V54.984H207.216V56.154ZM208.872 51.474H200.142V57.378H208.872V51.474ZM198.684 52.842C198.036 52.212 196.668 51.456 195.606 51.006L194.67 52.248C195.732 52.752 197.082 53.598 197.694 54.21L198.684 52.842ZM197.766 57.504C197.1 56.928 195.732 56.208 194.67 55.794L193.734 57.054C194.832 57.522 196.164 58.314 196.794 58.908L197.766 57.504ZM196.974 60.456C196.092 62.508 194.904 64.812 194.076 66.198L195.57 67.188C196.47 65.496 197.496 63.354 198.27 61.464L196.974 60.456ZM210.312 59.682V58.314H198.522V59.682H200.826C200.052 60.96 198.918 62.148 197.73 62.94C198.072 63.192 198.648 63.678 198.9 63.948C199.566 63.444 200.25 62.796 200.862 62.076H202.302C201.402 63.606 200.052 64.992 198.63 65.91C198.954 66.162 199.53 66.684 199.782 66.954C201.366 65.784 202.932 64.02 203.976 62.076H205.416C204.732 63.876 203.616 65.46 202.248 66.504C202.59 66.702 203.202 67.17 203.454 67.422C204.912 66.162 206.19 64.254 206.982 62.076H208.134C207.954 64.524 207.738 65.496 207.468 65.784C207.324 65.964 207.18 66 206.946 65.982C206.712 65.982 206.172 65.982 205.578 65.928C205.812 66.306 205.956 66.936 205.992 67.368C206.694 67.404 207.378 67.404 207.756 67.35C208.188 67.296 208.512 67.17 208.8 66.828C209.286 66.288 209.538 64.884 209.772 61.41C209.79 61.194 209.808 60.762 209.808 60.762H201.87C202.104 60.402 202.32 60.042 202.518 59.682H210.312ZM220.104 51.15V65.208C220.104 65.568 219.978 65.676 219.6 65.694C219.222 65.712 217.908 65.712 216.684 65.658C216.954 66.144 217.242 66.936 217.35 67.404C219.06 67.422 220.212 67.368 220.932 67.098C221.634 66.81 221.922 66.324 221.922 65.208V51.15H220.104ZM224.406 55.74C225.864 58.332 227.286 61.68 227.664 63.804L229.482 63.084C229.032 60.906 227.556 57.63 226.026 55.128L224.406 55.74ZM215.442 55.272C215.028 57.648 214.074 60.744 212.562 62.616C213.012 62.778 213.75 63.192 214.164 63.498C215.73 61.5 216.738 58.242 217.332 55.614L215.442 55.272ZM247.14 63.156C245.754 62.49 243.036 61.392 241.218 60.708L240.354 62.004C242.226 62.778 244.908 63.948 246.204 64.668L247.14 63.156ZM247.896 58.998V57.342H240.3V54.858H246.15V53.256H240.3V50.916H238.536V57.342H231.858V58.998H238.59V67.404H240.354V58.998H247.896Z" fill="#573605"/>
<path d="M206.07 300.77L205.97 301.917L204.374 301.778L204.474 300.63L206.07 300.77ZM205.753 304.392L204.157 304.252L204.264 303.033L205.86 303.173L205.753 304.392ZM202.993 301.657L200.124 301.406L200.014 302.661L202.883 302.912L202.777 304.131L200.661 303.946L200.554 305.166L202.67 305.351L202.573 306.463L200.26 306.26L200.147 307.551L202.46 307.754L202.358 308.919L199.614 308.679L199.5 309.988L202.243 310.228L202.074 312.165L203.455 312.286L203.624 310.349L207.228 310.664L207.343 309.355L203.739 309.04L203.841 307.874L206.925 308.144L207.038 306.853L203.954 306.583L204.051 305.472L206.938 305.724L207.151 303.285L208.353 303.391L208.462 302.135L207.261 302.03L207.466 299.681L204.579 299.429L204.696 298.102L203.315 297.981L203.199 299.308L201.083 299.123L200.978 300.324L203.094 300.509L202.993 301.657ZM195.179 297.215C194.309 299.723 193.012 302.157 191.557 303.71C191.79 304.146 192.121 305.114 192.194 305.518C192.63 305.069 193.038 304.544 193.45 303.966L192.614 313.523L194.084 313.652L195.184 301.082C195.729 300.01 196.244 298.88 196.667 297.761L195.179 297.215ZM199.212 303.982L198.942 303.977L197.938 303.889C198.862 302.614 199.816 301 200.631 299.336L199.719 298.606L199.235 298.762L196.563 298.529L196.438 299.963L198.554 300.148C197.85 301.586 197.034 302.852 196.728 303.259C196.34 303.767 195.848 304.23 195.499 304.29C195.689 304.595 195.977 305.235 196.077 305.533C196.09 305.389 196.356 305.232 196.639 305.094L198.451 305.253C198.161 306.709 197.782 307.941 197.311 308.984C196.991 308.305 196.754 307.507 196.584 306.553L195.365 306.862C195.635 308.313 196.042 309.451 196.555 310.399C195.906 311.408 195.138 312.136 194.245 312.636C194.551 312.862 195.043 313.429 195.266 313.774C196.069 313.266 196.781 312.569 197.42 311.667C198.962 313.446 201.135 314.016 203.681 314.239L206.855 314.516C206.963 314.11 207.256 313.449 207.519 313.129C206.728 313.078 204.505 312.883 203.859 312.827C201.601 312.611 199.585 312.11 198.198 310.416C199.004 308.843 199.615 306.818 200.074 304.256L199.212 303.982Z" fill="#927858"/>
<path d="M224.57 305.077L227.547 304.817L227.653 306.036L224.677 306.296L224.57 305.077ZM224.361 302.692L227.338 302.432L227.44 303.597L224.463 303.858L224.361 302.692ZM224.78 307.48L229.335 307.081L229.132 304.768L230.8 304.622L230.675 303.188L229.007 303.334L228.814 301.128L224.259 301.527L224.164 300.433L230.189 299.906L230.06 298.435L224.071 298.959C223.756 298.463 223.341 297.849 222.958 297.394L221.345 297.951C221.593 298.309 221.864 298.719 222.134 299.129L215.231 299.733L215.686 304.933C215.916 307.569 216.111 311.238 214.915 313.89C215.288 314.02 216.028 314.425 216.34 314.687C217.645 311.844 217.529 307.626 217.282 304.793L216.955 301.063L222.478 300.58L222.574 301.674L218.234 302.054L218.336 303.219L222.676 302.84L222.778 304.005L217.649 304.454L217.756 305.673L222.884 305.224L222.991 306.444L218.49 306.838L218.594 308.021L219.096 307.977L218.33 308.929C219.238 309.392 220.453 310.063 221.054 310.534L221.914 309.411C221.301 309.013 220.125 308.375 219.239 307.965L223.095 307.627L223.253 309.438C221.211 310.466 219.099 311.518 217.726 312.144L218.491 313.451C219.888 312.696 221.663 311.71 223.368 310.747L223.506 312.325C223.531 312.612 223.433 312.729 223.11 312.757C222.825 312.8 221.732 312.914 220.723 312.948C220.989 313.304 221.258 313.895 221.366 314.301C222.872 314.17 223.839 314.067 224.464 313.777C225.073 313.507 225.273 313.11 225.193 312.196L225.055 310.618C226.989 311.244 229.23 312.077 230.455 312.657L231.105 311.408C230.221 311.015 228.877 310.518 227.482 310.062C228.316 309.483 229.23 308.771 230.037 308.086L228.714 307.208C228.054 307.934 226.897 308.957 226.013 309.594C225.642 309.482 225.29 309.387 224.937 309.273L224.78 307.48Z" fill="#927858"/>
<defs>
<filter id="filter0_i_114_13021" x="12" y="14" width="400" height="203" filterUnits="userSpaceOnUse" color-interpolation-filters="sRGB">
<feFlood flood-opacity="0" result="BackgroundImageFix"/>
<feBlend mode="normal" in="SourceGraphic" in2="BackgroundImageFix" result="shape"/>
<feColorMatrix in="SourceAlpha" type="matrix" values="0 0 0 0 0 0 0 0 0 0 0 0 0 0 0 0 0 0 127 0" result="hardAlpha"/>
<feOffset dy="4"/>
<feGaussianBlur stdDeviation="2"/>
<feComposite in2="hardAlpha" operator="arithmetic" k2="-1" k3="1"/>
<feColorMatrix type="matrix" values="0 0 0 0 0 0 0 0 0 0 0 0 0 0 0 0 0 0 0.35 0"/>
<feBlend mode="normal" in2="shape" result="effect1_innerShadow_114_13021"/>
</filter>
<filter id="filter1_di_114_13021" x="8" y="213" width="408" height="148" filterUnits="userSpaceOnUse" color-interpolation-filters="sRGB">
<feFlood flood-opacity="0" result="BackgroundImageFix"/>
<feColorMatrix in="SourceAlpha" type="matrix" values="0 0 0 0 0 0 0 0 0 0 0 0 0 0 0 0 0 0 127 0" result="hardAlpha"/>
<feOffset dy="4"/>
<feGaussianBlur stdDeviation="2"/>
<feComposite in2="hardAlpha" operator="out"/>
<feColorMatrix type="matrix" values="0 0 0 0 0 0 0 0 0 0 0 0 0 0 0 0 0 0 0.25 0"/>
<feBlend mode="normal" in2="BackgroundImageFix" result="effect1_dropShadow_114_13021"/>
<feBlend mode="normal" in="SourceGraphic" in2="effect1_dropShadow_114_13021" result="shape"/>
<feColorMatrix in="SourceAlpha" type="matrix" values="0 0 0 0 0 0 0 0 0 0 0 0 0 0 0 0 0 0 127 0" result="hardAlpha"/>
<feOffset dy="3"/>
<feGaussianBlur stdDeviation="4"/>
<feComposite in2="hardAlpha" operator="arithmetic" k2="-1" k3="1"/>
<feColorMatrix type="matrix" values="0 0 0 0 0 0 0 0 0 0 0 0 0 0 0 0 0 0 0.25 0"/>
<feBlend mode="normal" in2="shape" result="effect2_innerShadow_114_13021"/>
</filter>
</defs>
</svg>
