<svg width="400" height="400" viewBox="0 0 400 400" fill="none" xmlns="http://www.w3.org/2000/svg">
<g clip-path="url(#clip0_114_12832)">
<g filter="url(#filter0_i_114_12832)">
<path d="M399 200C399 147.222 377.929 96.6055 340.421 59.2858C302.914 21.966 252.043 1 199 1C145.957 0.999996 95.0859 21.966 57.5787 59.2857C20.0714 96.6055 -0.999992 147.222 -1 200L399 200Z" fill="#FDBF52"/>
</g>
<path d="M359 201C359 158.565 342.143 117.869 312.137 87.8629C282.131 57.8571 241.435 41 199 41C156.565 41 115.869 57.8571 85.8629 87.8629C55.8571 117.869 39 158.565 39 201" stroke="#FCDBA3" stroke-width="3"/>
<g filter="url(#filter1_i_114_12832)">
<path d="M-0.999983 200C-0.999987 253.043 20.0714 303.914 57.5786 341.421C95.0859 378.929 145.957 400 199 400C252.043 400 302.914 378.929 340.421 341.421C377.929 303.914 399 253.043 399 200L199 200L-0.999983 200Z" fill="#FDBF52"/>
<path d="M-0.999983 200C-0.999987 253.043 20.0714 303.914 57.5786 341.421C95.0859 378.929 145.957 400 199 400C252.043 400 302.914 378.929 340.421 341.421C377.929 303.914 399 253.043 399 200L199 200L-0.999983 200Z" fill="black" fill-opacity="0.2"/>
</g>
<g filter="url(#filter2_di_114_12832)">
<path d="M-0.999988 200C-0.999991 237.13 20.0714 272.74 57.5786 298.995C95.0859 325.25 145.957 340 199 340C252.043 340 302.914 325.25 340.421 298.995C377.929 272.74 399 237.13 399 200L199 200L-0.999988 200Z" fill="#FCDBA3"/>
</g>
<path d="M39 200C39 229.704 55.8571 258.192 85.8629 279.196C115.869 300.2 156.565 312 199 312C241.435 312 282.131 300.2 312.137 279.196C342.143 258.192 359 229.704 359 200" stroke="#FDBF52" stroke-width="3"/>
<path d="M161.924 113.16V110.12H149.284C149.38 109.064 149.412 108.008 149.412 107.048V103.528H160.612V100.456H135.492V103.528H146.308V107.016C146.308 107.976 146.276 109.032 146.148 110.12H134.34V113.16H145.572C144.356 117.448 141.22 121.896 133.412 124.904C134.084 125.48 134.98 126.696 135.364 127.432C143.012 124.424 146.564 120.04 148.164 115.56C150.756 121.32 154.852 125.352 160.996 127.4C161.412 126.536 162.34 125.288 163.012 124.648C156.676 122.92 152.452 118.76 150.212 113.16H161.924ZM167.62 110.344C168.068 110.12 168.772 109.928 171.748 109.608C170.756 111.176 169.828 112.36 169.38 112.904C168.452 114.088 167.748 114.888 167.076 115.048C167.3 115.656 167.684 116.776 167.844 117.384V117.608C168.452 117.256 169.476 117.032 176.356 115.912C176.452 116.328 176.516 116.68 176.58 117L178.692 116.136C178.372 114.568 177.476 112.04 176.548 110.12L174.596 110.824C175.012 111.752 175.396 112.808 175.748 113.832L170.916 114.504C173.412 111.528 175.876 107.816 177.796 104.136L175.556 102.728C174.884 104.232 174.052 105.768 173.252 107.208L170.34 107.432C172.004 105.096 173.636 102.088 174.884 99.24L172.452 98.184C171.268 101.608 169.188 105.192 168.516 106.12C167.908 107.048 167.332 107.688 166.82 107.848C167.108 108.456 167.428 109.608 167.62 110.184V110.344ZM168.1 118.728C167.876 121.288 167.46 124.136 166.724 126.024C167.3 126.184 168.356 126.568 168.9 126.856C169.508 124.872 170.052 121.896 170.372 119.144L168.1 118.728ZM171.524 119.048C171.876 121.192 172.196 123.976 172.26 125.8L174.436 125.256C174.308 123.432 173.956 120.712 173.572 118.568L171.524 119.048ZM183.684 104.328C183.876 103.656 184.068 102.92 184.292 102.184H190.532C190.404 102.824 190.244 103.592 190.116 104.328H183.684ZM194.084 111.656C192.58 112.776 190.276 114.152 188.26 115.176C187.652 114.184 186.82 113.192 185.86 112.328C186.628 111.72 187.332 111.112 187.972 110.44H196.42V108.072H192.004C192.548 105.544 193.124 102.664 193.508 100.264L191.556 99.944L191.076 100.072H184.804C184.964 99.464 185.092 98.92 185.188 98.376L182.468 98.056C181.956 100.744 181.124 104.232 180.452 106.44H189.7L189.38 108.072H178.596V110.44H184.708C182.884 111.848 180.548 113.032 178.34 113.864C178.82 114.344 179.588 115.368 179.908 115.88C181.252 115.272 182.66 114.504 183.972 113.64C184.388 114.024 184.772 114.44 185.092 114.824C183.428 116.264 180.708 117.736 178.628 118.408C179.14 118.92 179.812 119.816 180.164 120.424C182.084 119.528 184.484 118.024 186.244 116.584C186.532 117.128 186.724 117.672 186.884 118.152C184.996 120.264 181.604 122.408 178.66 123.56C178.308 121.928 177.54 119.56 176.868 117.736L174.948 118.344C175.652 120.296 176.388 122.824 176.676 124.52L178.084 124.008C178.66 124.52 179.204 125.288 179.524 125.832C182.148 124.712 185.188 122.76 187.428 120.744C187.588 122.504 187.204 123.944 186.66 124.488C186.244 125.032 185.732 125.128 185.092 125.128C184.484 125.128 183.844 125.064 183.012 124.968C183.492 125.736 183.652 126.792 183.652 127.464C184.356 127.496 185.06 127.528 185.636 127.528C186.852 127.496 187.62 127.304 188.42 126.536C190.084 125.192 190.788 121.096 189.284 117.192C189.764 116.968 190.276 116.712 190.82 116.424C191.492 120.296 192.676 123.752 194.788 125.672C195.204 124.968 196.004 123.976 196.644 123.496C194.66 121.928 193.508 118.76 192.9 115.368C194.02 114.728 195.076 114.12 196.004 113.48L194.084 111.656ZM208.196 105.192H212.228V102.248H200.708V105.192H205.22V118.28C203.396 118.632 201.7 118.952 200.324 119.176L200.996 122.248C204.324 121.544 208.772 120.552 212.932 119.592L212.676 116.744C211.172 117.064 209.668 117.352 208.196 117.672V105.192ZM229.956 103.048V100.072H212.548V103.048H216.9C216.196 106.664 215.268 110.792 214.436 113.512H225.956C225.476 120.008 224.964 123.048 224.004 123.816C223.62 124.136 223.172 124.2 222.404 124.2C221.444 124.2 218.916 124.168 216.42 123.944C217.06 124.808 217.54 126.12 217.604 126.984C219.94 127.112 222.212 127.144 223.46 127.048C224.9 126.92 225.796 126.664 226.692 125.736C227.972 124.392 228.516 120.84 229.092 112.008L229.188 110.632H218.372C218.884 108.296 219.46 105.608 219.972 103.048H229.956ZM256.004 117.192V123.112H242.148V117.192H256.004ZM239.14 127.464H242.148V125.864H256.004V127.336H259.14V114.536H239.14V127.464ZM242.756 108.456C245.06 106.856 247.236 105 249.092 102.952C251.364 105.192 253.572 106.952 255.908 108.456H242.756ZM249.316 98.056C246.02 102.984 240.132 107.048 234.18 109.384C235.012 110.12 235.844 111.24 236.356 112.072C237.924 111.368 239.46 110.504 240.964 109.608V111.208H256.9V109.096C258.5 110.056 260.132 110.92 261.828 111.72C262.244 110.792 263.108 109.704 263.908 109C259.172 107.112 254.82 104.68 250.916 100.84C251.3 100.36 251.62 99.88 251.94 99.4L249.316 98.056ZM162.468 165.032C159.556 163.272 153.732 160.744 149.54 159.24L148.228 161.48C152.516 163.144 158.244 165.8 161.092 167.656L162.468 165.032ZM162.468 154.6V151.976H149.572V149.704H159.588V147.176H149.572V145H161.124V142.376H154.596C155.364 141.352 156.228 140.072 156.964 138.888L153.796 138.024C153.252 139.304 152.164 141.096 151.3 142.376H143.492L144.548 141.896C144.1 140.776 143.012 139.176 141.924 138.024L139.332 139.048C140.1 140.008 140.964 141.32 141.476 142.376H135.044V145H146.5V147.176H136.836V149.704H146.5V151.976H133.988V154.6H146.148C146.052 155.368 145.924 156.04 145.796 156.712H134.692V159.24H144.9C143.46 162.024 140.42 163.816 133.412 164.776C133.988 165.448 134.692 166.664 134.916 167.464C143.364 166.088 146.756 163.4 148.26 159.24H161.764V156.712H148.932C149.06 156.04 149.188 155.336 149.252 154.6H162.468ZM170.212 167.112C171.556 164.136 173.06 160.36 174.244 157L171.812 155.432C170.532 159.08 168.804 163.112 167.524 165.576L170.212 167.112ZM173.764 149.8C172.676 148.808 170.404 147.624 168.58 146.92L166.916 149.096C168.74 149.896 170.98 151.24 172.036 152.2L173.764 149.8ZM182.276 143.464H188.516V145.768H182.276V143.464ZM192.74 152.744V161.64C191.46 160.232 190.788 157.544 190.66 154.248H187.588V156.136H189.22C189.252 156.488 189.284 156.84 189.316 157.16H188.74C188.58 158.888 187.94 160.776 186.596 161.928V152.744H192.74ZM179.076 154.248V156.136H180.74C180.772 156.488 180.804 156.84 180.836 157.192H180.228C180.036 159.048 179.396 161.064 178.02 162.28V152.744H184.004V161.608C182.852 160.136 182.276 157.448 182.18 154.248H179.076ZM191.428 148.296V143.464H196.228V140.808H191.428V138.12H188.516V140.808H182.276V138.12H179.428V140.808H174.884V141.48C173.764 140.456 171.62 139.208 169.924 138.472L168.26 140.584C169.988 141.48 172.196 142.92 173.188 143.944L174.884 141.704V143.464H179.428V148.296H184.004V150.216H175.492V167.464H178.02V162.44C178.404 162.696 178.916 163.208 179.14 163.592C180.228 162.632 180.932 161.352 181.348 159.944C181.764 161.352 182.308 162.472 183.044 163.272C183.268 162.984 183.652 162.6 184.004 162.312V167.208H186.596V162.216C186.98 162.504 187.396 162.984 187.62 163.304C188.74 162.408 189.444 161.192 189.892 159.816C190.34 161.224 190.948 162.376 191.716 163.208C191.908 162.888 192.356 162.472 192.74 162.184V164.808C192.74 165.128 192.644 165.256 192.26 165.256C191.908 165.256 190.756 165.256 189.572 165.224C189.892 165.832 190.18 166.792 190.308 167.432C192.164 167.432 193.444 167.432 194.308 167.08C195.14 166.664 195.396 166.024 195.396 164.808V150.216H186.596V148.296H191.428ZM207.94 149.256H222.724V152.52H207.94V149.256ZM222.724 143.784V146.856H207.94V143.784H222.724ZM225.572 155.4C223.972 156.776 221.54 158.504 219.364 159.752C217.796 158.44 216.484 156.872 215.492 155.144H225.764V141.16H217.412C217.124 140.136 216.676 138.856 216.196 137.896L213.156 138.568C213.476 139.336 213.828 140.296 214.052 141.16H204.868V162.28C204.868 163.88 203.844 164.904 203.14 165.384C203.652 165.896 204.484 167.048 204.772 167.72C205.604 167.208 206.916 166.888 215.684 164.712C215.524 164.072 215.364 162.792 215.364 161.96L207.94 163.72V155.144H212.356C215.364 161.288 220.516 165.352 227.876 167.144C228.26 166.344 229.124 165.128 229.764 164.488C226.692 163.848 224.004 162.824 221.732 161.416C223.812 160.232 226.18 158.728 228.036 157.288L225.572 155.4ZM234.82 150.344C235.268 150.12 235.972 149.928 238.948 149.608C237.956 151.176 237.028 152.36 236.58 152.904C235.652 154.088 234.948 154.888 234.276 155.048C234.5 155.656 234.884 156.776 235.044 157.384V157.608C235.652 157.256 236.676 157.032 243.556 155.912C243.652 156.328 243.716 156.68 243.78 157L245.892 156.136C245.572 154.568 244.676 152.04 243.748 150.12L241.796 150.824C242.212 151.752 242.596 152.808 242.948 153.832L238.116 154.504C240.612 151.528 243.076 147.816 244.996 144.136L242.756 142.728C242.084 144.232 241.252 145.768 240.452 147.208L237.54 147.432C239.204 145.096 240.836 142.088 242.084 139.24L239.652 138.184C238.468 141.608 236.388 145.192 235.716 146.12C235.108 147.048 234.532 147.688 234.02 147.848C234.308 148.456 234.628 149.608 234.82 150.184V150.344ZM235.3 158.728C235.076 161.288 234.66 164.136 233.924 166.024C234.5 166.184 235.556 166.568 236.1 166.856C236.708 164.872 237.252 161.896 237.572 159.144L235.3 158.728ZM238.724 159.048C239.076 161.192 239.396 163.976 239.46 165.8L241.636 165.256C241.508 163.432 241.156 160.712 240.772 158.568L238.724 159.048ZM250.884 144.328C251.076 143.656 251.268 142.92 251.492 142.184H257.732C257.604 142.824 257.444 143.592 257.316 144.328H250.884ZM261.284 151.656C259.78 152.776 257.476 154.152 255.46 155.176C254.852 154.184 254.02 153.192 253.06 152.328C253.828 151.72 254.532 151.112 255.172 150.44H263.62V148.072H259.204C259.748 145.544 260.324 142.664 260.708 140.264L258.756 139.944L258.276 140.072H252.004C252.164 139.464 252.292 138.92 252.388 138.376L249.668 138.056C249.156 140.744 248.324 144.232 247.652 146.44H256.9L256.58 148.072H245.796V150.44H251.908C250.084 151.848 247.748 153.032 245.54 153.864C246.02 154.344 246.788 155.368 247.108 155.88C248.452 155.272 249.86 154.504 251.172 153.64C251.588 154.024 251.972 154.44 252.292 154.824C250.628 156.264 247.908 157.736 245.828 158.408C246.34 158.92 247.012 159.816 247.364 160.424C249.284 159.528 251.684 158.024 253.444 156.584C253.732 157.128 253.924 157.672 254.084 158.152C252.196 160.264 248.804 162.408 245.86 163.56C245.508 161.928 244.74 159.56 244.068 157.736L242.148 158.344C242.852 160.296 243.588 162.824 243.876 164.52L245.284 164.008C245.86 164.52 246.404 165.288 246.724 165.832C249.348 164.712 252.388 162.76 254.628 160.744C254.788 162.504 254.404 163.944 253.86 164.488C253.444 165.032 252.932 165.128 252.292 165.128C251.684 165.128 251.044 165.064 250.212 164.968C250.692 165.736 250.852 166.792 250.852 167.464C251.556 167.496 252.26 167.528 252.836 167.528C254.052 167.496 254.82 167.304 255.62 166.536C257.284 165.192 257.988 161.096 256.484 157.192C256.964 156.968 257.476 156.712 258.02 156.424C258.692 160.296 259.876 163.752 261.988 165.672C262.404 164.968 263.204 163.976 263.844 163.496C261.86 161.928 260.708 158.76 260.1 155.368C261.22 154.728 262.276 154.12 263.204 153.48L261.284 151.656Z" fill="white"/>
<rect x="152" y="32" width="92.5" height="26" fill="#FDBF52"/>
<path d="M169.268 38.078C167.522 38.636 164.588 39.032 162.122 39.212C162.23 39.554 162.374 40.058 162.41 40.436C164.93 40.292 167.936 39.914 169.934 39.302L169.268 38.078ZM168.854 42.722C169.25 42.11 169.7 41.21 170.132 40.328L168.98 39.878C168.728 40.634 168.242 41.66 167.846 42.326L168.854 42.722ZM164.3 42.398C164.174 41.858 163.868 41.084 163.526 40.508L162.41 40.958C162.716 41.552 163.04 42.38 163.13 42.938L164.3 42.398ZM165.452 48.014C165.434 48.464 165.398 48.896 165.344 49.274H162.068V50.534H165.056C164.642 51.83 163.742 52.676 161.78 53.234C162.086 53.504 162.482 54.062 162.626 54.422C164.372 53.882 165.398 53.09 166.01 52.01C167.162 52.73 168.404 53.648 169.034 54.296L170.006 53.27C169.25 52.532 167.738 51.56 166.514 50.84L166.568 50.534H170.06V49.274H166.802C166.856 48.878 166.892 48.446 166.91 48.014H165.452ZM167.558 45.602C167.774 45.89 167.972 46.214 168.17 46.556L165.038 46.808C166.352 45.962 167.684 44.936 168.944 43.73L167.9 42.938C167.414 43.442 166.874 43.946 166.352 44.396L164.462 44.432C165.074 43.946 165.704 43.334 166.262 42.722L165.92 42.488L167.036 42.002C166.928 41.48 166.622 40.706 166.334 40.13L165.2 40.562C165.47 41.156 165.758 41.912 165.848 42.434L165.2 41.984C164.534 42.938 163.544 43.784 163.238 44.018C162.95 44.234 162.698 44.396 162.446 44.45C162.572 44.81 162.752 45.512 162.806 45.8C163.04 45.71 163.364 45.638 164.912 45.566C164.372 45.944 163.94 46.25 163.688 46.394C163.112 46.772 162.68 47.006 162.284 47.078C162.392 47.438 162.572 48.158 162.626 48.428C163.04 48.212 163.652 48.158 168.746 47.636C168.908 47.96 169.034 48.266 169.124 48.518L170.348 47.996C170.06 47.186 169.394 45.998 168.71 45.116L167.558 45.602ZM172.508 49.958H174.416V52.082H172.508V49.958ZM174.416 44.99H172.508V42.974H174.416V44.99ZM174.416 48.536H172.508V46.412H174.416V48.536ZM178.376 52.082H175.91V49.958H177.908V48.536H175.91V46.412H177.908V44.99H175.91V42.974H178.16V41.462H175.91L176.756 41.156C176.486 40.418 175.946 39.266 175.46 38.402L174.056 38.834C174.506 39.626 174.974 40.724 175.244 41.462H172.58C172.994 40.436 173.318 39.356 173.606 38.276L172.04 37.898C171.428 40.418 170.402 42.92 169.07 44.504C169.412 44.81 169.988 45.494 170.222 45.818C170.492 45.476 170.744 45.116 170.996 44.702V54.404H172.508V53.594H178.376V52.082ZM194.216 40.85H188.726V39.698H194.216V40.85ZM194.216 43.154H188.726V41.984H194.216V43.154ZM195.872 38.474H187.142V44.378H195.872V38.474ZM185.684 39.842C185.036 39.212 183.668 38.456 182.606 38.006L181.67 39.248C182.732 39.752 184.082 40.598 184.694 41.21L185.684 39.842ZM184.766 44.504C184.1 43.928 182.732 43.208 181.67 42.794L180.734 44.054C181.832 44.522 183.164 45.314 183.794 45.908L184.766 44.504ZM183.974 47.456C183.092 49.508 181.904 51.812 181.076 53.198L182.57 54.188C183.47 52.496 184.496 50.354 185.27 48.464L183.974 47.456ZM197.312 46.682V45.314H185.522V46.682H187.826C187.052 47.96 185.918 49.148 184.73 49.94C185.072 50.192 185.648 50.678 185.9 50.948C186.566 50.444 187.25 49.796 187.862 49.076H189.302C188.402 50.606 187.052 51.992 185.63 52.91C185.954 53.162 186.53 53.684 186.782 53.954C188.366 52.784 189.932 51.02 190.976 49.076H192.416C191.732 50.876 190.616 52.46 189.248 53.504C189.59 53.702 190.202 54.17 190.454 54.422C191.912 53.162 193.19 51.254 193.982 49.076H195.134C194.954 51.524 194.738 52.496 194.468 52.784C194.324 52.964 194.18 53 193.946 52.982C193.712 52.982 193.172 52.982 192.578 52.928C192.812 53.306 192.956 53.936 192.992 54.368C193.694 54.404 194.378 54.404 194.756 54.35C195.188 54.296 195.512 54.17 195.8 53.828C196.286 53.288 196.538 51.884 196.772 48.41C196.79 48.194 196.808 47.762 196.808 47.762H188.87C189.104 47.402 189.32 47.042 189.518 46.682H197.312ZM207.104 38.15V52.208C207.104 52.568 206.978 52.676 206.6 52.694C206.222 52.712 204.908 52.712 203.684 52.658C203.954 53.144 204.242 53.936 204.35 54.404C206.06 54.422 207.212 54.368 207.932 54.098C208.634 53.81 208.922 53.324 208.922 52.208V38.15H207.104ZM211.406 42.74C212.864 45.332 214.286 48.68 214.664 50.804L216.482 50.084C216.032 47.906 214.556 44.63 213.026 42.128L211.406 42.74ZM202.442 42.272C202.028 44.648 201.074 47.744 199.562 49.616C200.012 49.778 200.75 50.192 201.164 50.498C202.73 48.5 203.738 45.242 204.332 42.614L202.442 42.272ZM234.14 50.156C232.754 49.49 230.036 48.392 228.218 47.708L227.354 49.004C229.226 49.778 231.908 50.948 233.204 51.668L234.14 50.156ZM234.896 45.998V44.342H227.3V41.858H233.15V40.256H227.3V37.916H225.536V44.342H218.858V45.998H225.59V54.404H227.354V45.998H234.896Z" fill="#573605"/>
<path d="M183.069 289.533C182.897 291.09 182.557 292.903 181.734 294.674C181.323 294.204 180.913 293.735 180.515 293.321C180.885 292.196 181.271 290.875 181.627 289.497L183.069 289.533ZM184.776 286.954L183.324 286.827L183.213 288.1L181.969 288.063C182.26 286.806 182.532 285.547 182.74 284.409L181.206 284.184C181.031 285.361 180.752 286.692 180.438 288.002C179.881 287.971 179.359 287.943 178.874 287.919L178.903 289.439L180.093 289.471C179.685 291.043 179.21 292.538 178.823 293.66C179.481 294.404 180.219 295.264 180.904 296.101C180.172 297.248 179.173 298.335 177.828 299.247C178.149 299.51 178.626 300.039 178.846 300.42C180.137 299.503 181.113 298.468 181.895 297.38C182.431 298.06 182.864 298.694 183.179 299.227L184.382 298.068C184.018 297.476 183.452 296.721 182.801 295.906C183.892 293.76 184.326 291.486 184.547 289.572L185.269 289.581L185.393 288.164L184.673 288.137L184.776 286.954ZM186.323 298.599L186.441 297.254C186.743 297.515 187.121 297.946 187.297 298.214C188.585 297.116 189.407 295.779 189.906 294.413C190.543 295.806 191.103 297.246 191.362 298.209L192.55 297.644C192.173 296.382 191.248 294.35 190.42 292.669C190.474 292.457 190.514 292.208 190.553 291.976L192.776 292.171L192.895 290.808L190.744 290.62L190.784 290.153L190.99 287.804L189.681 287.69L189.478 290.003L189.435 290.505L187.39 290.326L187.271 291.689L189.244 291.862C188.904 293.675 188.213 295.584 186.453 297.111L187.341 286.961L193.528 287.503L192.51 299.14L186.323 298.599ZM186.003 285.326L184.63 301.016L186.101 301.145L186.193 300.087L192.379 300.628L192.299 301.543L193.824 301.676L195.184 286.13L186.003 285.326Z" fill="#927858"/>
<path d="M201.641 292.169C201.881 292.021 202.266 291.879 203.918 291.554C203.439 292.481 202.977 293.19 202.752 293.517C202.29 294.226 201.935 294.709 201.567 294.831C201.722 295.161 201.992 295.77 202.111 296.103L202.122 296.228C202.446 296.001 203.009 295.825 206.809 294.861C206.883 295.089 206.936 295.283 206.988 295.459L208.129 294.872C207.873 294.009 207.247 292.636 206.633 291.606L205.573 292.096C205.852 292.595 206.119 293.168 206.366 293.725L203.692 294.338C204.944 292.548 206.143 290.347 207.039 288.191L205.714 287.512C205.412 288.388 205.021 289.289 204.643 290.135L203.022 290.404C203.84 289.013 204.607 287.247 205.167 285.59L203.752 285.118C203.257 287.095 202.267 289.205 201.936 289.758C201.641 290.308 201.349 290.695 201.07 290.809C201.261 291.136 201.497 291.766 201.633 292.079L201.641 292.169ZM202.321 296.843C202.321 298.289 202.227 299.905 201.907 300.999C202.238 301.061 202.849 301.224 203.167 301.359C203.411 300.217 203.57 298.523 203.614 296.965L202.321 296.843ZM204.255 296.855C204.557 298.039 204.873 299.583 204.999 300.602L206.191 300.191C206.03 299.175 205.699 297.668 205.379 296.485L204.255 296.855ZM210.347 288.01C210.422 287.624 210.494 287.202 210.583 286.779L214.08 286.473C214.039 286.838 213.987 287.276 213.952 287.695L210.347 288.01ZM216.534 291.607C215.747 292.308 214.523 293.192 213.443 293.865C213.054 293.338 212.539 292.823 211.959 292.386C212.36 292.008 212.724 291.633 213.05 291.225L217.784 290.811L217.668 289.484L215.193 289.7C215.374 288.257 215.556 286.615 215.653 285.251L214.544 285.168L214.281 285.263L210.766 285.57C210.826 285.222 210.871 284.911 210.898 284.601L209.359 284.555C209.203 286.086 208.908 288.082 208.64 289.352L213.822 288.899L213.723 289.829L207.68 290.358L207.796 291.684L211.221 291.385C210.268 292.263 209.017 293.041 207.82 293.616C208.113 293.861 208.593 294.397 208.798 294.668C209.521 294.262 210.272 293.762 210.965 293.214C211.217 293.409 211.453 293.623 211.651 293.823C210.789 294.711 209.337 295.669 208.205 296.148C208.517 296.41 208.937 296.879 209.164 297.202C210.196 296.606 211.467 295.646 212.383 294.752C212.571 295.043 212.705 295.338 212.818 295.6C211.864 296.876 210.068 298.243 208.475 299.033C208.198 298.136 207.651 296.847 207.185 295.858L206.139 296.292C206.629 297.352 207.166 298.732 207.41 299.668L208.174 299.312C208.522 299.571 208.865 299.975 209.071 300.264C210.486 299.508 212.094 298.265 213.25 297.025C213.426 298.004 213.282 298.83 213.003 299.161C212.797 299.486 212.515 299.565 212.156 299.597C211.815 299.626 211.454 299.622 210.983 299.609C211.289 300.016 211.431 300.6 211.464 300.976C211.86 300.96 212.256 300.943 212.579 300.915C213.258 300.837 213.679 300.692 214.09 300.222C214.957 299.388 215.15 297.058 214.116 294.944C214.374 294.795 214.648 294.626 214.939 294.438C215.506 296.575 216.338 298.454 217.616 299.426C217.815 299.011 218.214 298.416 218.549 298.116C217.361 297.334 216.56 295.616 216.053 293.745C216.649 293.331 217.211 292.939 217.7 292.535L216.534 291.607Z" fill="#927858"/>
</g>
<defs>
<filter id="filter0_i_114_12832" x="-1" y="1" width="400" height="203" filterUnits="userSpaceOnUse" color-interpolation-filters="sRGB">
<feFlood flood-opacity="0" result="BackgroundImageFix"/>
<feBlend mode="normal" in="SourceGraphic" in2="BackgroundImageFix" result="shape"/>
<feColorMatrix in="SourceAlpha" type="matrix" values="0 0 0 0 0 0 0 0 0 0 0 0 0 0 0 0 0 0 127 0" result="hardAlpha"/>
<feOffset dy="4"/>
<feGaussianBlur stdDeviation="2"/>
<feComposite in2="hardAlpha" operator="arithmetic" k2="-1" k3="1"/>
<feColorMatrix type="matrix" values="0 0 0 0 0 0 0 0 0 0 0 0 0 0 0 0 0 0 0.35 0"/>
<feBlend mode="normal" in2="shape" result="effect1_innerShadow_114_12832"/>
</filter>
<filter id="filter1_i_114_12832" x="-1" y="198" width="400" height="202" filterUnits="userSpaceOnUse" color-interpolation-filters="sRGB">
<feFlood flood-opacity="0" result="BackgroundImageFix"/>
<feBlend mode="normal" in="SourceGraphic" in2="BackgroundImageFix" result="shape"/>
<feColorMatrix in="SourceAlpha" type="matrix" values="0 0 0 0 0 0 0 0 0 0 0 0 0 0 0 0 0 0 127 0" result="hardAlpha"/>
<feOffset dy="-2"/>
<feGaussianBlur stdDeviation="2"/>
<feComposite in2="hardAlpha" operator="arithmetic" k2="-1" k3="1"/>
<feColorMatrix type="matrix" values="0 0 0 0 0 0 0 0 0 0 0 0 0 0 0 0 0 0 0.25 0"/>
<feBlend mode="normal" in2="shape" result="effect1_innerShadow_114_12832"/>
</filter>
<filter id="filter2_di_114_12832" x="-9" y="200" width="416" height="158" filterUnits="userSpaceOnUse" color-interpolation-filters="sRGB">
<feFlood flood-opacity="0" result="BackgroundImageFix"/>
<feColorMatrix in="SourceAlpha" type="matrix" values="0 0 0 0 0 0 0 0 0 0 0 0 0 0 0 0 0 0 127 0" result="hardAlpha"/>
<feOffset dy="10"/>
<feGaussianBlur stdDeviation="4"/>
<feComposite in2="hardAlpha" operator="out"/>
<feColorMatrix type="matrix" values="0 0 0 0 0 0 0 0 0 0 0 0 0 0 0 0 0 0 0.25 0"/>
<feBlend mode="normal" in2="BackgroundImageFix" result="effect1_dropShadow_114_12832"/>
<feBlend mode="normal" in="SourceGraphic" in2="effect1_dropShadow_114_12832" result="shape"/>
<feColorMatrix in="SourceAlpha" type="matrix" values="0 0 0 0 0 0 0 0 0 0 0 0 0 0 0 0 0 0 127 0" result="hardAlpha"/>
<feOffset dy="3"/>
<feGaussianBlur stdDeviation="4"/>
<feComposite in2="hardAlpha" operator="arithmetic" k2="-1" k3="1"/>
<feColorMatrix type="matrix" values="0 0 0 0 0 0 0 0 0 0 0 0 0 0 0 0 0 0 0.25 0"/>
<feBlend mode="normal" in2="shape" result="effect2_innerShadow_114_12832"/>
</filter>
<clipPath id="clip0_114_12832">
<rect width="400" height="400" fill="white"/>
</clipPath>
</defs>
</svg>
