<svg width="400" height="400" viewBox="0 0 400 400" fill="none" xmlns="http://www.w3.org/2000/svg">
<g clip-path="url(#clip0_114_12817)">
<g filter="url(#filter0_i_114_12817)">
<path d="M400 200C400 147.222 378.929 96.6055 341.421 59.2858C303.914 21.966 253.043 1 200 1C146.957 0.999996 96.0859 21.966 58.5787 59.2857C21.0714 96.6055 8.00932e-06 147.222 0 200L400 200Z" fill="#FDBF52"/>
</g>
<path d="M360 201C360 158.565 343.143 117.869 313.137 87.8629C283.131 57.8571 242.435 41 200 41C157.565 41 116.869 57.8571 86.8629 87.8629C56.8571 117.869 40 158.565 40 201" stroke="#FCDBA3" stroke-width="3"/>
<g filter="url(#filter1_i_114_12817)">
<path d="M1.74846e-05 200C1.28474e-05 253.043 21.0714 303.914 58.5786 341.421C96.0859 378.929 146.957 400 200 400C253.043 400 303.914 378.929 341.421 341.421C378.929 303.914 400 253.043 400 200L200 200L1.74846e-05 200Z" fill="#FDBF52"/>
<path d="M1.74846e-05 200C1.28474e-05 253.043 21.0714 303.914 58.5786 341.421C96.0859 378.929 146.957 400 200 400C253.043 400 303.914 378.929 341.421 341.421C378.929 303.914 400 253.043 400 200L200 200L1.74846e-05 200Z" fill="black" fill-opacity="0.2"/>
</g>
<g filter="url(#filter2_di_114_12817)">
<path d="M1.22392e-05 200C8.99315e-06 237.13 21.0714 272.74 58.5786 298.995C96.0859 325.25 146.957 340 200 340C253.043 340 303.914 325.25 341.421 298.995C378.929 272.74 400 237.13 400 200L200 200L1.22392e-05 200Z" fill="#FCDBA3"/>
</g>
<path d="M40 200C40 229.704 56.8571 258.192 86.8629 279.196C116.869 300.2 157.565 312 200 312C242.435 312 283.131 300.2 313.137 279.196C343.143 258.192 360 229.704 360 200" stroke="#FDBF52" stroke-width="3"/>
<path d="M148.3 108.264V112.04C148.3 112.424 148.172 112.52 147.692 112.552C147.276 112.584 145.644 112.616 144.044 112.52C144.396 113.192 144.78 114.056 144.94 114.792C147.212 114.792 148.78 114.792 149.9 114.44C150.988 114.12 151.308 113.576 151.308 112.168V108.264H158.412C157.42 109.64 156.268 110.984 155.244 111.912L157.9 112.936C159.628 111.336 161.484 108.872 163.052 106.504L160.78 105.736L160.204 105.896H154.572L154.764 105.672C154.092 105.384 153.356 105.064 152.492 104.808C155.084 103.688 157.58 102.248 159.468 100.712L157.548 99.208L156.908 99.368H138.348V101.736H153.516C152.172 102.504 150.668 103.176 149.228 103.752C147.532 103.24 145.74 102.792 144.14 102.536L142.444 104.232C144.492 104.616 146.796 105.192 148.908 105.896H135.596V108.264H144.364C141.74 110.216 138.188 111.88 134.988 112.84C135.628 113.416 136.46 114.44 136.844 115.144C140.812 113.768 145.164 111.208 148.012 108.264H148.3ZM144.204 119.752C142.092 121.928 138.06 123.976 134.38 124.904C135.02 125.512 135.916 126.6 136.364 127.336C140.108 126.12 144.3 123.592 146.636 120.808L144.204 119.752ZM163.212 119.08V116.488H150.636V114.952H147.628V116.488H135.052V119.08H147.628V127.528H150.636V119.08H163.212ZM151.5 121.032C154.956 122.856 159.276 125.576 161.42 127.368L163.788 125.736C161.484 123.912 157.068 121.32 153.708 119.624L151.5 121.032ZM170.092 113.352C170.828 110.984 171.404 107.272 171.596 104.648L169.26 104.36C169.036 106.92 168.46 110.408 167.692 112.584L170.092 113.352ZM179.116 107.368C178.732 106.152 177.836 104.072 177.036 102.536L175.276 103.336V98.088H172.524V127.464H175.276V103.912C175.98 105.448 176.684 107.272 177.036 108.456L179.116 107.368ZM182.412 120.52C182.476 119.848 182.508 119.144 182.54 118.536H192.588V120.52H182.412ZM192.588 114.248V116.328H182.54V114.248H192.588ZM195.372 112.104H179.724V117.896C179.724 120.36 179.564 123.528 177.772 125.8C178.38 126.184 179.532 127.272 179.916 127.848C181.1 126.376 181.772 124.52 182.124 122.664H192.588V124.456C192.588 124.84 192.428 124.968 191.98 125C191.596 125 190.028 125.032 188.556 124.968C188.94 125.64 189.292 126.76 189.42 127.496C191.66 127.496 193.132 127.464 194.124 127.016C195.116 126.664 195.372 125.896 195.372 124.488V112.104ZM188.876 108.328V106.472H195.34V104.392H188.876V102.728H196.236V100.52H188.876V98.152H185.932V100.52H178.604V102.728H185.932V104.392H179.564V106.472H185.932V108.328H177.836V110.536H197.26V108.328H188.876ZM223.532 109.608C222.956 107.592 221.292 104.52 219.724 102.184L217.196 103.24C218.7 105.64 220.268 108.808 220.876 110.824L223.532 109.608ZM208.492 98.28C206.764 102.952 203.916 107.624 200.908 110.6C201.388 111.304 202.252 112.904 202.54 113.608C203.468 112.616 204.396 111.496 205.292 110.28V127.464H208.108V105.864C209.324 103.688 210.412 101.384 211.276 99.112L208.492 98.28ZM220.46 115.592C218.796 116.2 217.1 116.84 215.468 117.416L215.276 99.944L212.364 99.976L212.556 118.44C211.34 118.856 210.22 119.24 209.26 119.528L210.508 122.44C213.548 121.288 217.388 119.688 221.036 118.184L220.46 115.592ZM231.532 125.416C230.412 123.56 228.108 120.744 226.124 118.408C228.492 113.832 229.356 107.752 229.676 99.56L226.668 99.464C226.22 114.152 224.044 121.576 212.78 125.16C213.42 125.768 214.38 127.112 214.7 127.752C219.148 126.088 222.284 123.912 224.524 120.968C226.284 123.24 228.236 125.832 229.196 127.56L231.532 125.416ZM245.068 105.992L244.524 106.12H236.14V109.128H243.436C241.964 115.08 238.956 119.688 235.084 122.248C235.82 122.728 236.972 123.88 237.484 124.584C241.964 121.32 245.548 115.176 247.052 106.76L245.068 105.992ZM259.724 103.912C258.22 106.024 255.852 108.648 253.804 110.6C252.908 109.064 252.172 107.464 251.564 105.832V98.184H248.428V123.624C248.428 124.168 248.204 124.328 247.692 124.328C247.148 124.36 245.484 124.36 243.692 124.264C244.172 125.16 244.652 126.696 244.812 127.592C247.308 127.592 249.004 127.464 250.092 126.92C251.18 126.408 251.564 125.448 251.564 123.624V111.944C254.284 117.352 258.06 121.864 262.828 124.392C263.308 123.496 264.332 122.28 265.036 121.672C261.164 119.88 257.772 116.712 255.212 112.904C257.452 111.016 260.236 108.264 262.444 105.864L259.724 103.912ZM151.852 148.872H143.66V151.688H163.18V148.872H154.86V144.84H161.74V142.056H154.86V138.152H151.852V142.056H145.164V144.84H151.852V148.872ZM141.42 138.28C139.82 142.952 137.164 147.624 134.284 150.632C134.796 151.304 135.628 152.904 135.884 153.608C136.716 152.712 137.484 151.752 138.252 150.696V167.496H141.196V145.864C142.348 143.72 143.404 141.384 144.204 139.144L141.42 138.28ZM154.86 163.528V158.856H162.316V156.04H154.86V152.776H151.852V156.04H144.556V158.856H151.852V163.528H142.668V166.408H163.756V163.528H154.86ZM173.676 154.504H178.668V157.256H173.676V154.504ZM178.668 144.776V147.176H173.676V144.776H178.668ZM173.676 149.512H178.668V152.168H173.676V149.512ZM183.596 157.256H181.42V144.776H183.724V142.184H181.42V138.504H178.668V142.184H173.676V138.504H170.988V142.184H168.396V144.776H170.988V157.256H168.012V159.848H183.596V157.256ZM172.204 160.36C171.276 162.376 169.644 164.424 167.916 165.8C168.62 166.216 169.772 167.048 170.284 167.56C172.012 165.992 173.868 163.528 175.02 161.128L172.204 160.36ZM176.812 161.512C178.028 163.016 179.5 165.096 180.14 166.376L182.54 164.936C181.868 163.656 180.332 161.704 179.084 160.264L176.812 161.512ZM187.788 154.184C187.852 153.16 187.852 152.136 187.852 151.208V149.512H193.484V154.184H187.788ZM193.484 142.376V146.888H187.852V142.376H193.484ZM196.364 139.688H185.036V151.208C185.036 155.784 184.812 161.768 182.284 165.928C182.924 166.248 184.172 167.112 184.652 167.656C186.476 164.744 187.244 160.68 187.596 156.872H193.484V163.976C193.484 164.488 193.292 164.616 192.812 164.648C192.396 164.648 190.796 164.68 189.292 164.616C189.676 165.352 190.06 166.664 190.156 167.432C192.524 167.464 194.06 167.4 195.02 166.888C196.012 166.44 196.364 165.576 196.364 164.008V139.688ZM209.644 157.608C208.396 156.584 207.148 155.56 205.964 154.664C206.572 152.392 207.148 149.672 207.692 146.92C209.164 146.824 210.668 146.728 212.236 146.632C212.204 149.8 211.82 153.768 209.644 157.608ZM215.148 142.248H212.236V143.784L208.236 144.008C208.524 142.088 208.812 140.232 209.004 138.472L205.868 138.312C205.708 140.136 205.452 142.12 205.132 144.168L201.42 144.328L201.74 147.272L204.62 147.112C203.98 150.248 203.308 153.256 202.604 155.496C204.268 156.808 206.156 158.408 207.98 160.008C206.444 161.928 204.3 163.688 201.452 165.224C202.124 165.736 203.116 166.792 203.596 167.496C206.444 165.896 208.588 164.04 210.22 162.088C211.628 163.432 212.876 164.68 213.74 165.736L215.916 163.464C214.956 162.344 213.548 161 211.98 159.624C214.7 155.112 215.116 150.248 215.148 146.44L216.396 146.344L216.428 143.56L215.148 143.624V142.248ZM220.204 161.512V144.328H226.348V161.512H220.204ZM217.42 141.512V166.696H220.204V164.328H226.348V166.248H229.292V141.512H217.42ZM244.78 144.04H247.692V138.152H244.78V140.04H235.852V142.568H244.78V144.04ZM241.356 146.728H245.388V149.48H241.356V146.728ZM247.884 146.728H252.076V149.48H247.884V146.728ZM254.572 146.728H258.796V149.48H254.572V146.728ZM238.7 151.496H261.58V144.712H238.7V151.496ZM254.732 158.888C253.452 160.104 251.756 161.128 249.804 161.96C248.844 161.032 247.244 159.848 245.772 159.016L245.964 158.888H254.732ZM236.108 158.28H238.892V155.176H246.764C245.388 156.648 242.828 158.056 239.212 159.016C239.756 159.464 240.62 160.424 240.972 161.096C241.868 160.776 242.732 160.456 243.5 160.136C244.748 160.936 246.156 161.96 247.212 162.888C244.012 163.912 240.396 164.52 236.812 164.808C237.292 165.48 237.836 166.664 238.06 167.432C246.636 166.408 255.34 163.848 259.148 157.8L257.228 156.648L256.716 156.776H248.78C249.1 156.424 249.42 156.104 249.74 155.72L247.116 155.176H260.844V158.28H263.756V152.872H236.108V158.28ZM255.052 140.04V138.152H252.108V144.04H255.052V142.568H263.884V140.04H255.052Z" fill="white"/>
<rect x="153" y="32" width="92.5" height="26" fill="#FDBF52"/>
<path d="M170.268 38.078C168.522 38.636 165.588 39.032 163.122 39.212C163.23 39.554 163.374 40.058 163.41 40.436C165.93 40.292 168.936 39.914 170.934 39.302L170.268 38.078ZM169.854 42.722C170.25 42.11 170.7 41.21 171.132 40.328L169.98 39.878C169.728 40.634 169.242 41.66 168.846 42.326L169.854 42.722ZM165.3 42.398C165.174 41.858 164.868 41.084 164.526 40.508L163.41 40.958C163.716 41.552 164.04 42.38 164.13 42.938L165.3 42.398ZM166.452 48.014C166.434 48.464 166.398 48.896 166.344 49.274H163.068V50.534H166.056C165.642 51.83 164.742 52.676 162.78 53.234C163.086 53.504 163.482 54.062 163.626 54.422C165.372 53.882 166.398 53.09 167.01 52.01C168.162 52.73 169.404 53.648 170.034 54.296L171.006 53.27C170.25 52.532 168.738 51.56 167.514 50.84L167.568 50.534H171.06V49.274H167.802C167.856 48.878 167.892 48.446 167.91 48.014H166.452ZM168.558 45.602C168.774 45.89 168.972 46.214 169.17 46.556L166.038 46.808C167.352 45.962 168.684 44.936 169.944 43.73L168.9 42.938C168.414 43.442 167.874 43.946 167.352 44.396L165.462 44.432C166.074 43.946 166.704 43.334 167.262 42.722L166.92 42.488L168.036 42.002C167.928 41.48 167.622 40.706 167.334 40.13L166.2 40.562C166.47 41.156 166.758 41.912 166.848 42.434L166.2 41.984C165.534 42.938 164.544 43.784 164.238 44.018C163.95 44.234 163.698 44.396 163.446 44.45C163.572 44.81 163.752 45.512 163.806 45.8C164.04 45.71 164.364 45.638 165.912 45.566C165.372 45.944 164.94 46.25 164.688 46.394C164.112 46.772 163.68 47.006 163.284 47.078C163.392 47.438 163.572 48.158 163.626 48.428C164.04 48.212 164.652 48.158 169.746 47.636C169.908 47.96 170.034 48.266 170.124 48.518L171.348 47.996C171.06 47.186 170.394 45.998 169.71 45.116L168.558 45.602ZM173.508 49.958H175.416V52.082H173.508V49.958ZM175.416 44.99H173.508V42.974H175.416V44.99ZM175.416 48.536H173.508V46.412H175.416V48.536ZM179.376 52.082H176.91V49.958H178.908V48.536H176.91V46.412H178.908V44.99H176.91V42.974H179.16V41.462H176.91L177.756 41.156C177.486 40.418 176.946 39.266 176.46 38.402L175.056 38.834C175.506 39.626 175.974 40.724 176.244 41.462H173.58C173.994 40.436 174.318 39.356 174.606 38.276L173.04 37.898C172.428 40.418 171.402 42.92 170.07 44.504C170.412 44.81 170.988 45.494 171.222 45.818C171.492 45.476 171.744 45.116 171.996 44.702V54.404H173.508V53.594H179.376V52.082ZM195.216 40.85H189.726V39.698H195.216V40.85ZM195.216 43.154H189.726V41.984H195.216V43.154ZM196.872 38.474H188.142V44.378H196.872V38.474ZM186.684 39.842C186.036 39.212 184.668 38.456 183.606 38.006L182.67 39.248C183.732 39.752 185.082 40.598 185.694 41.21L186.684 39.842ZM185.766 44.504C185.1 43.928 183.732 43.208 182.67 42.794L181.734 44.054C182.832 44.522 184.164 45.314 184.794 45.908L185.766 44.504ZM184.974 47.456C184.092 49.508 182.904 51.812 182.076 53.198L183.57 54.188C184.47 52.496 185.496 50.354 186.27 48.464L184.974 47.456ZM198.312 46.682V45.314H186.522V46.682H188.826C188.052 47.96 186.918 49.148 185.73 49.94C186.072 50.192 186.648 50.678 186.9 50.948C187.566 50.444 188.25 49.796 188.862 49.076H190.302C189.402 50.606 188.052 51.992 186.63 52.91C186.954 53.162 187.53 53.684 187.782 53.954C189.366 52.784 190.932 51.02 191.976 49.076H193.416C192.732 50.876 191.616 52.46 190.248 53.504C190.59 53.702 191.202 54.17 191.454 54.422C192.912 53.162 194.19 51.254 194.982 49.076H196.134C195.954 51.524 195.738 52.496 195.468 52.784C195.324 52.964 195.18 53 194.946 52.982C194.712 52.982 194.172 52.982 193.578 52.928C193.812 53.306 193.956 53.936 193.992 54.368C194.694 54.404 195.378 54.404 195.756 54.35C196.188 54.296 196.512 54.17 196.8 53.828C197.286 53.288 197.538 51.884 197.772 48.41C197.79 48.194 197.808 47.762 197.808 47.762H189.87C190.104 47.402 190.32 47.042 190.518 46.682H198.312ZM208.104 38.15V52.208C208.104 52.568 207.978 52.676 207.6 52.694C207.222 52.712 205.908 52.712 204.684 52.658C204.954 53.144 205.242 53.936 205.35 54.404C207.06 54.422 208.212 54.368 208.932 54.098C209.634 53.81 209.922 53.324 209.922 52.208V38.15H208.104ZM212.406 42.74C213.864 45.332 215.286 48.68 215.664 50.804L217.482 50.084C217.032 47.906 215.556 44.63 214.026 42.128L212.406 42.74ZM203.442 42.272C203.028 44.648 202.074 47.744 200.562 49.616C201.012 49.778 201.75 50.192 202.164 50.498C203.73 48.5 204.738 45.242 205.332 42.614L203.442 42.272ZM235.14 50.156C233.754 49.49 231.036 48.392 229.218 47.708L228.354 49.004C230.226 49.778 232.908 50.948 234.204 51.668L235.14 50.156ZM235.896 45.998V44.342H228.3V41.858H234.15V40.256H228.3V37.916H226.536V44.342H219.858V45.998H226.59V54.404H228.354V45.998H235.896Z" fill="#573605"/>
<path d="M184.069 289.533C183.897 291.09 183.557 292.903 182.734 294.674C182.323 294.204 181.913 293.735 181.515 293.321C181.885 292.196 182.271 290.875 182.627 289.497L184.069 289.533ZM185.776 286.954L184.324 286.827L184.213 288.1L182.969 288.063C183.26 286.806 183.532 285.547 183.74 284.409L182.206 284.184C182.031 285.361 181.752 286.692 181.438 288.002C180.881 287.971 180.359 287.943 179.874 287.919L179.903 289.439L181.093 289.471C180.685 291.043 180.21 292.538 179.823 293.66C180.481 294.404 181.219 295.264 181.904 296.101C181.172 297.248 180.173 298.335 178.828 299.247C179.149 299.51 179.626 300.039 179.846 300.42C181.137 299.503 182.113 298.468 182.895 297.38C183.431 298.06 183.864 298.694 184.179 299.227L185.382 298.068C185.018 297.476 184.452 296.721 183.801 295.906C184.892 293.76 185.326 291.486 185.547 289.572L186.269 289.581L186.393 288.164L185.673 288.137L185.776 286.954ZM187.323 298.599L187.441 297.254C187.743 297.515 188.121 297.946 188.297 298.214C189.585 297.116 190.407 295.779 190.906 294.413C191.543 295.806 192.103 297.246 192.362 298.209L193.55 297.644C193.173 296.382 192.248 294.35 191.42 292.669C191.474 292.457 191.514 292.208 191.553 291.976L193.776 292.171L193.895 290.808L191.744 290.62L191.784 290.153L191.99 287.804L190.681 287.69L190.478 290.003L190.435 290.505L188.39 290.326L188.271 291.689L190.244 291.862C189.904 293.675 189.213 295.584 187.453 297.111L188.341 286.961L194.528 287.503L193.51 299.14L187.323 298.599ZM187.003 285.326L185.63 301.016L187.101 301.145L187.193 300.087L193.379 300.628L193.299 301.543L194.824 301.676L196.184 286.13L187.003 285.326Z" fill="#927858"/>
<path d="M202.641 292.169C202.881 292.021 203.266 291.879 204.918 291.554C204.439 292.481 203.977 293.19 203.752 293.517C203.29 294.226 202.935 294.709 202.567 294.831C202.722 295.161 202.992 295.77 203.111 296.103L203.122 296.228C203.446 296.001 204.009 295.825 207.809 294.861C207.883 295.089 207.936 295.283 207.988 295.459L209.129 294.872C208.873 294.009 208.247 292.636 207.633 291.606L206.573 292.096C206.852 292.595 207.119 293.168 207.366 293.725L204.692 294.338C205.944 292.548 207.143 290.347 208.039 288.191L206.714 287.512C206.412 288.388 206.021 289.289 205.643 290.135L204.022 290.404C204.84 289.013 205.607 287.247 206.167 285.59L204.752 285.118C204.257 287.095 203.267 289.205 202.936 289.758C202.641 290.308 202.349 290.695 202.07 290.809C202.261 291.136 202.497 291.766 202.633 292.079L202.641 292.169ZM203.321 296.843C203.321 298.289 203.227 299.905 202.907 300.999C203.238 301.061 203.849 301.224 204.167 301.359C204.411 300.217 204.57 298.523 204.614 296.965L203.321 296.843ZM205.255 296.855C205.557 298.039 205.873 299.583 205.999 300.602L207.191 300.191C207.03 299.175 206.699 297.668 206.379 296.485L205.255 296.855ZM211.347 288.01C211.422 287.624 211.494 287.202 211.583 286.779L215.08 286.473C215.039 286.838 214.987 287.276 214.952 287.695L211.347 288.01ZM217.534 291.607C216.747 292.308 215.523 293.192 214.443 293.865C214.054 293.338 213.539 292.823 212.959 292.386C213.36 292.008 213.724 291.633 214.05 291.225L218.784 290.811L218.668 289.484L216.193 289.7C216.374 288.257 216.556 286.615 216.653 285.251L215.544 285.168L215.281 285.263L211.766 285.57C211.826 285.222 211.871 284.911 211.898 284.601L210.359 284.555C210.203 286.086 209.908 288.082 209.64 289.352L214.822 288.899L214.723 289.829L208.68 290.358L208.796 291.684L212.221 291.385C211.268 292.263 210.017 293.041 208.82 293.616C209.113 293.861 209.593 294.397 209.798 294.668C210.521 294.262 211.272 293.762 211.965 293.214C212.217 293.409 212.453 293.623 212.651 293.823C211.789 294.711 210.337 295.669 209.205 296.148C209.517 296.41 209.937 296.879 210.164 297.202C211.196 296.606 212.467 295.646 213.383 294.752C213.571 295.043 213.705 295.338 213.818 295.6C212.864 296.876 211.068 298.243 209.475 299.033C209.198 298.136 208.651 296.847 208.185 295.858L207.139 296.292C207.629 297.352 208.166 298.732 208.41 299.668L209.174 299.312C209.522 299.571 209.865 299.975 210.071 300.264C211.486 299.508 213.094 298.265 214.25 297.025C214.426 298.004 214.282 298.83 214.003 299.161C213.797 299.486 213.515 299.565 213.156 299.597C212.815 299.626 212.454 299.622 211.983 299.609C212.289 300.016 212.431 300.6 212.464 300.976C212.86 300.96 213.256 300.943 213.579 300.915C214.258 300.837 214.679 300.692 215.09 300.222C215.957 299.388 216.15 297.058 215.116 294.944C215.374 294.795 215.648 294.626 215.939 294.438C216.506 296.575 217.338 298.454 218.616 299.426C218.815 299.011 219.214 298.416 219.549 298.116C218.361 297.334 217.56 295.616 217.053 293.745C217.649 293.331 218.211 292.939 218.7 292.535L217.534 291.607Z" fill="#927858"/>
</g>
<defs>
<filter id="filter0_i_114_12817" x="0" y="1" width="400" height="203" filterUnits="userSpaceOnUse" color-interpolation-filters="sRGB">
<feFlood flood-opacity="0" result="BackgroundImageFix"/>
<feBlend mode="normal" in="SourceGraphic" in2="BackgroundImageFix" result="shape"/>
<feColorMatrix in="SourceAlpha" type="matrix" values="0 0 0 0 0 0 0 0 0 0 0 0 0 0 0 0 0 0 127 0" result="hardAlpha"/>
<feOffset dy="4"/>
<feGaussianBlur stdDeviation="2"/>
<feComposite in2="hardAlpha" operator="arithmetic" k2="-1" k3="1"/>
<feColorMatrix type="matrix" values="0 0 0 0 0 0 0 0 0 0 0 0 0 0 0 0 0 0 0.35 0"/>
<feBlend mode="normal" in2="shape" result="effect1_innerShadow_114_12817"/>
</filter>
<filter id="filter1_i_114_12817" x="0" y="198" width="400" height="202" filterUnits="userSpaceOnUse" color-interpolation-filters="sRGB">
<feFlood flood-opacity="0" result="BackgroundImageFix"/>
<feBlend mode="normal" in="SourceGraphic" in2="BackgroundImageFix" result="shape"/>
<feColorMatrix in="SourceAlpha" type="matrix" values="0 0 0 0 0 0 0 0 0 0 0 0 0 0 0 0 0 0 127 0" result="hardAlpha"/>
<feOffset dy="-2"/>
<feGaussianBlur stdDeviation="2"/>
<feComposite in2="hardAlpha" operator="arithmetic" k2="-1" k3="1"/>
<feColorMatrix type="matrix" values="0 0 0 0 0 0 0 0 0 0 0 0 0 0 0 0 0 0 0.25 0"/>
<feBlend mode="normal" in2="shape" result="effect1_innerShadow_114_12817"/>
</filter>
<filter id="filter2_di_114_12817" x="-8" y="200" width="416" height="158" filterUnits="userSpaceOnUse" color-interpolation-filters="sRGB">
<feFlood flood-opacity="0" result="BackgroundImageFix"/>
<feColorMatrix in="SourceAlpha" type="matrix" values="0 0 0 0 0 0 0 0 0 0 0 0 0 0 0 0 0 0 127 0" result="hardAlpha"/>
<feOffset dy="10"/>
<feGaussianBlur stdDeviation="4"/>
<feComposite in2="hardAlpha" operator="out"/>
<feColorMatrix type="matrix" values="0 0 0 0 0 0 0 0 0 0 0 0 0 0 0 0 0 0 0.25 0"/>
<feBlend mode="normal" in2="BackgroundImageFix" result="effect1_dropShadow_114_12817"/>
<feBlend mode="normal" in="SourceGraphic" in2="effect1_dropShadow_114_12817" result="shape"/>
<feColorMatrix in="SourceAlpha" type="matrix" values="0 0 0 0 0 0 0 0 0 0 0 0 0 0 0 0 0 0 127 0" result="hardAlpha"/>
<feOffset dy="3"/>
<feGaussianBlur stdDeviation="4"/>
<feComposite in2="hardAlpha" operator="arithmetic" k2="-1" k3="1"/>
<feColorMatrix type="matrix" values="0 0 0 0 0 0 0 0 0 0 0 0 0 0 0 0 0 0 0.25 0"/>
<feBlend mode="normal" in2="shape" result="effect2_innerShadow_114_12817"/>
</filter>
<clipPath id="clip0_114_12817">
<rect width="400" height="400" fill="white"/>
</clipPath>
</defs>
</svg>
