<svg width="425" height="425" viewBox="0 0 425 425" fill="none" xmlns="http://www.w3.org/2000/svg">
<g filter="url(#filter0_i_114_12832)">
<path d="M412 213C412 160.222 390.929 109.605 353.421 72.2858C315.914 34.966 265.043 14 212 14C158.957 14 108.086 34.966 70.5787 72.2857C33.0714 109.605 12 160.222 12 213L412 213Z" fill="#FDBF52"/>
</g>
<path d="M372 214C372 171.565 355.143 130.869 325.137 100.863C295.131 70.8571 254.435 54 212 54C169.565 54 128.869 70.8571 98.8629 100.863C68.8571 130.869 52 171.565 52 214" stroke="#FCDBA3" stroke-width="3"/>
<path d="M12 213C12 266.043 33.0714 316.914 70.5786 354.421C108.086 391.929 158.957 413 212 413C265.043 413 315.914 391.929 353.421 354.421C390.929 316.914 412 266.043 412 213L212 213L12 213Z" fill="#FDBF52"/>
<path d="M12 213C12 266.043 33.0714 316.914 70.5786 354.421C108.086 391.929 158.957 413 212 413C265.043 413 315.914 391.929 353.421 354.421C390.929 316.914 412 266.043 412 213L212 213L12 213Z" fill="black" fill-opacity="0.2"/>
<g filter="url(#filter1_di_114_12832)">
<path d="M12 213C12 250.13 33.0714 285.74 70.5786 311.995C108.086 338.25 158.957 353 212 353C265.043 353 315.914 338.25 353.421 311.995C390.929 285.74 412 250.13 412 213L212 213L12 213Z" fill="#FCDBA3"/>
</g>
<path d="M52 213C52 242.704 68.8571 271.192 98.8629 292.196C128.869 313.2 169.565 325 212 325C254.435 325 295.131 313.2 325.137 292.196C355.143 271.192 372 242.704 372 213" stroke="#FDBF52" stroke-width="3"/>
<path d="M174.924 126.16V123.12H162.284C162.38 122.064 162.412 121.008 162.412 120.048V116.528H173.612V113.456H148.492V116.528H159.308V120.016C159.308 120.976 159.276 122.032 159.148 123.12H147.34V126.16H158.572C157.356 130.448 154.22 134.896 146.412 137.904C147.084 138.48 147.98 139.696 148.364 140.432C156.012 137.424 159.564 133.04 161.164 128.56C163.756 134.32 167.852 138.352 173.996 140.4C174.412 139.536 175.34 138.288 176.012 137.648C169.676 135.92 165.452 131.76 163.212 126.16H174.924ZM180.62 123.344C181.068 123.12 181.772 122.928 184.748 122.608C183.756 124.176 182.828 125.36 182.38 125.904C181.452 127.088 180.748 127.888 180.076 128.048C180.3 128.656 180.684 129.776 180.844 130.384V130.608C181.452 130.256 182.476 130.032 189.356 128.912C189.452 129.328 189.516 129.68 189.58 130L191.692 129.136C191.372 127.568 190.476 125.04 189.548 123.12L187.596 123.824C188.012 124.752 188.396 125.808 188.748 126.832L183.916 127.504C186.412 124.528 188.876 120.816 190.796 117.136L188.556 115.728C187.884 117.232 187.052 118.768 186.252 120.208L183.34 120.432C185.004 118.096 186.636 115.088 187.884 112.24L185.452 111.184C184.268 114.608 182.188 118.192 181.516 119.12C180.908 120.048 180.332 120.688 179.82 120.848C180.108 121.456 180.428 122.608 180.62 123.184V123.344ZM181.1 131.728C180.876 134.288 180.46 137.136 179.724 139.024C180.3 139.184 181.356 139.568 181.9 139.856C182.508 137.872 183.052 134.896 183.372 132.144L181.1 131.728ZM184.524 132.048C184.876 134.192 185.196 136.976 185.26 138.8L187.436 138.256C187.308 136.432 186.956 133.712 186.572 131.568L184.524 132.048ZM196.684 117.328C196.876 116.656 197.068 115.92 197.292 115.184H203.532C203.404 115.824 203.244 116.592 203.116 117.328H196.684ZM207.084 124.656C205.58 125.776 203.276 127.152 201.26 128.176C200.652 127.184 199.82 126.192 198.86 125.328C199.628 124.72 200.332 124.112 200.972 123.44H209.42V121.072H205.004C205.548 118.544 206.124 115.664 206.508 113.264L204.556 112.944L204.076 113.072H197.804C197.964 112.464 198.092 111.92 198.188 111.376L195.468 111.056C194.956 113.744 194.124 117.232 193.452 119.44H202.7L202.38 121.072H191.596V123.44H197.708C195.884 124.848 193.548 126.032 191.34 126.864C191.82 127.344 192.588 128.368 192.908 128.88C194.252 128.272 195.66 127.504 196.972 126.64C197.388 127.024 197.772 127.44 198.092 127.824C196.428 129.264 193.708 130.736 191.628 131.408C192.14 131.92 192.812 132.816 193.164 133.424C195.084 132.528 197.484 131.024 199.244 129.584C199.532 130.128 199.724 130.672 199.884 131.152C197.996 133.264 194.604 135.408 191.66 136.56C191.308 134.928 190.54 132.56 189.868 130.736L187.948 131.344C188.652 133.296 189.388 135.824 189.676 137.52L191.084 137.008C191.66 137.52 192.204 138.288 192.524 138.832C195.148 137.712 198.188 135.76 200.428 133.744C200.588 135.504 200.204 136.944 199.66 137.488C199.244 138.032 198.732 138.128 198.092 138.128C197.484 138.128 196.844 138.064 196.012 137.968C196.492 138.736 196.652 139.792 196.652 140.464C197.356 140.496 198.06 140.528 198.636 140.528C199.852 140.496 200.62 140.304 201.42 139.536C203.084 138.192 203.788 134.096 202.284 130.192C202.764 129.968 203.276 129.712 203.82 129.424C204.492 133.296 205.676 136.752 207.788 138.672C208.204 137.968 209.004 136.976 209.644 136.496C207.66 134.928 206.508 131.76 205.9 128.368C207.02 127.728 208.076 127.12 209.004 126.48L207.084 124.656ZM221.196 118.192H225.228V115.248H213.708V118.192H218.22V131.28C216.396 131.632 214.7 131.952 213.324 132.176L213.996 135.248C217.324 134.544 221.772 133.552 225.932 132.592L225.676 129.744C224.172 130.064 222.668 130.352 221.196 130.672V118.192ZM242.956 116.048V113.072H225.548V116.048H229.9C229.196 119.664 228.268 123.792 227.436 126.512H238.956C238.476 133.008 237.964 136.048 237.004 136.816C236.62 137.136 236.172 137.2 235.404 137.2C234.444 137.2 231.916 137.168 229.42 136.944C230.06 137.808 230.54 139.12 230.604 139.984C232.94 140.112 235.212 140.144 236.46 140.048C237.9 139.92 238.796 139.664 239.692 138.736C240.972 137.392 241.516 133.84 242.092 125.008L242.188 123.632H231.372C231.884 121.296 232.46 118.608 232.972 116.048H242.956ZM269.004 130.192V136.112H255.148V130.192H269.004ZM252.14 140.464H255.148V138.864H269.004V140.336H272.14V127.536H252.14V140.464ZM255.756 121.456C258.06 119.856 260.236 118 262.092 115.952C264.364 118.192 266.572 119.952 268.908 121.456H255.756ZM262.316 111.056C259.02 115.984 253.132 120.048 247.18 122.384C248.012 123.12 248.844 124.24 249.356 125.072C250.924 124.368 252.46 123.504 253.964 122.608V124.208H269.9V122.096C271.5 123.056 273.132 123.92 274.828 124.72C275.244 123.792 276.108 122.704 276.908 122C272.172 120.112 267.82 117.68 263.916 113.84C264.3 113.36 264.62 112.88 264.94 112.4L262.316 111.056ZM175.468 178.032C172.556 176.272 166.732 173.744 162.54 172.24L161.228 174.48C165.516 176.144 171.244 178.8 174.092 180.656L175.468 178.032ZM175.468 167.6V164.976H162.572V162.704H172.588V160.176H162.572V158H174.124V155.376H167.596C168.364 154.352 169.228 153.072 169.964 151.888L166.796 151.024C166.252 152.304 165.164 154.096 164.3 155.376H156.492L157.548 154.896C157.1 153.776 156.012 152.176 154.924 151.024L152.332 152.048C153.1 153.008 153.964 154.32 154.476 155.376H148.044V158H159.5V160.176H149.836V162.704H159.5V164.976H146.988V167.6H159.148C159.052 168.368 158.924 169.04 158.796 169.712H147.692V172.24H157.9C156.46 175.024 153.42 176.816 146.412 177.776C146.988 178.448 147.692 179.664 147.916 180.464C156.364 179.088 159.756 176.4 161.26 172.24H174.764V169.712H161.932C162.06 169.04 162.188 168.336 162.252 167.6H175.468ZM183.212 180.112C184.556 177.136 186.06 173.36 187.244 170L184.812 168.432C183.532 172.08 181.804 176.112 180.524 178.576L183.212 180.112ZM186.764 162.8C185.676 161.808 183.404 160.624 181.58 159.92L179.916 162.096C181.74 162.896 183.98 164.24 185.036 165.2L186.764 162.8ZM195.276 156.464H201.516V158.768H195.276V156.464ZM205.74 165.744V174.64C204.46 173.232 203.788 170.544 203.66 167.248H200.588V169.136H202.22C202.252 169.488 202.284 169.84 202.316 170.16H201.74C201.58 171.888 200.94 173.776 199.596 174.928V165.744H205.74ZM192.076 167.248V169.136H193.74C193.772 169.488 193.804 169.84 193.836 170.192H193.228C193.036 172.048 192.396 174.064 191.02 175.28V165.744H197.004V174.608C195.852 173.136 195.276 170.448 195.18 167.248H192.076ZM204.428 161.296V156.464H209.228V153.808H204.428V151.12H201.516V153.808H195.276V151.12H192.428V153.808H187.884V154.48C186.764 153.456 184.62 152.208 182.924 151.472L181.26 153.584C182.988 154.48 185.196 155.92 186.188 156.944L187.884 154.704V156.464H192.428V161.296H197.004V163.216H188.492V180.464H191.02V175.44C191.404 175.696 191.916 176.208 192.14 176.592C193.228 175.632 193.932 174.352 194.348 172.944C194.764 174.352 195.308 175.472 196.044 176.272C196.268 175.984 196.652 175.6 197.004 175.312V180.208H199.596V175.216C199.98 175.504 200.396 175.984 200.62 176.304C201.74 175.408 202.444 174.192 202.892 172.816C203.34 174.224 203.948 175.376 204.716 176.208C204.908 175.888 205.356 175.472 205.74 175.184V177.808C205.74 178.128 205.644 178.256 205.26 178.256C204.908 178.256 203.756 178.256 202.572 178.224C202.892 178.832 203.18 179.792 203.308 180.432C205.164 180.432 206.444 180.432 207.308 180.08C208.14 179.664 208.396 179.024 208.396 177.808V163.216H199.596V161.296H204.428ZM220.94 162.256H235.724V165.52H220.94V162.256ZM235.724 156.784V159.856H220.94V156.784H235.724ZM238.572 168.4C236.972 169.776 234.54 171.504 232.364 172.752C230.796 171.44 229.484 169.872 228.492 168.144H238.764V154.16H230.412C230.124 153.136 229.676 151.856 229.196 150.896L226.156 151.568C226.476 152.336 226.828 153.296 227.052 154.16H217.868V175.28C217.868 176.88 216.844 177.904 216.14 178.384C216.652 178.896 217.484 180.048 217.772 180.72C218.604 180.208 219.916 179.888 228.684 177.712C228.524 177.072 228.364 175.792 228.364 174.96L220.94 176.72V168.144H225.356C228.364 174.288 233.516 178.352 240.876 180.144C241.26 179.344 242.124 178.128 242.764 177.488C239.692 176.848 237.004 175.824 234.732 174.416C236.812 173.232 239.18 171.728 241.036 170.288L238.572 168.4ZM247.82 163.344C248.268 163.12 248.972 162.928 251.948 162.608C250.956 164.176 250.028 165.36 249.58 165.904C248.652 167.088 247.948 167.888 247.276 168.048C247.5 168.656 247.884 169.776 248.044 170.384V170.608C248.652 170.256 249.676 170.032 256.556 168.912C256.652 169.328 256.716 169.68 256.78 170L258.892 169.136C258.572 167.568 257.676 165.04 256.748 163.12L254.796 163.824C255.212 164.752 255.596 165.808 255.948 166.832L251.116 167.504C253.612 164.528 256.076 160.816 257.996 157.136L255.756 155.728C255.084 157.232 254.252 158.768 253.452 160.208L250.54 160.432C252.204 158.096 253.836 155.088 255.084 152.24L252.652 151.184C251.468 154.608 249.388 158.192 248.716 159.12C248.108 160.048 247.532 160.688 247.02 160.848C247.308 161.456 247.628 162.608 247.82 163.184V163.344ZM248.3 171.728C248.076 174.288 247.66 177.136 246.924 179.024C247.5 179.184 248.556 179.568 249.1 179.856C249.708 177.872 250.252 174.896 250.572 172.144L248.3 171.728ZM251.724 172.048C252.076 174.192 252.396 176.976 252.46 178.8L254.636 178.256C254.508 176.432 254.156 173.712 253.772 171.568L251.724 172.048ZM263.884 157.328C264.076 156.656 264.268 155.92 264.492 155.184H270.732C270.604 155.824 270.444 156.592 270.316 157.328H263.884ZM274.284 164.656C272.78 165.776 270.476 167.152 268.46 168.176C267.852 167.184 267.02 166.192 266.06 165.328C266.828 164.72 267.532 164.112 268.172 163.44H276.62V161.072H272.204C272.748 158.544 273.324 155.664 273.708 153.264L271.756 152.944L271.276 153.072H265.004C265.164 152.464 265.292 151.92 265.388 151.376L262.668 151.056C262.156 153.744 261.324 157.232 260.652 159.44H269.9L269.58 161.072H258.796V163.44H264.908C263.084 164.848 260.748 166.032 258.54 166.864C259.02 167.344 259.788 168.368 260.108 168.88C261.452 168.272 262.86 167.504 264.172 166.64C264.588 167.024 264.972 167.44 265.292 167.824C263.628 169.264 260.908 170.736 258.828 171.408C259.34 171.92 260.012 172.816 260.364 173.424C262.284 172.528 264.684 171.024 266.444 169.584C266.732 170.128 266.924 170.672 267.084 171.152C265.196 173.264 261.804 175.408 258.86 176.56C258.508 174.928 257.74 172.56 257.068 170.736L255.148 171.344C255.852 173.296 256.588 175.824 256.876 177.52L258.284 177.008C258.86 177.52 259.404 178.288 259.724 178.832C262.348 177.712 265.388 175.76 267.628 173.744C267.788 175.504 267.404 176.944 266.86 177.488C266.444 178.032 265.932 178.128 265.292 178.128C264.684 178.128 264.044 178.064 263.212 177.968C263.692 178.736 263.852 179.792 263.852 180.464C264.556 180.496 265.26 180.528 265.836 180.528C267.052 180.496 267.82 180.304 268.62 179.536C270.284 178.192 270.988 174.096 269.484 170.192C269.964 169.968 270.476 169.712 271.02 169.424C271.692 173.296 272.876 176.752 274.988 178.672C275.404 177.968 276.204 176.976 276.844 176.496C274.86 174.928 273.708 171.76 273.1 168.368C274.22 167.728 275.276 167.12 276.204 166.48L274.284 164.656Z" fill="white"/>
<rect x="165" y="45" width="92.5" height="26" fill="#FDBF52"/>
<path d="M182.268 51.078C180.522 51.636 177.588 52.032 175.122 52.212C175.23 52.554 175.374 53.058 175.41 53.436C177.93 53.292 180.936 52.914 182.934 52.302L182.268 51.078ZM181.854 55.722C182.25 55.11 182.7 54.21 183.132 53.328L181.98 52.878C181.728 53.634 181.242 54.66 180.846 55.326L181.854 55.722ZM177.3 55.398C177.174 54.858 176.868 54.084 176.526 53.508L175.41 53.958C175.716 54.552 176.04 55.38 176.13 55.938L177.3 55.398ZM178.452 61.014C178.434 61.464 178.398 61.896 178.344 62.274H175.068V63.534H178.056C177.642 64.83 176.742 65.676 174.78 66.234C175.086 66.504 175.482 67.062 175.626 67.422C177.372 66.882 178.398 66.09 179.01 65.01C180.162 65.73 181.404 66.648 182.034 67.296L183.006 66.27C182.25 65.532 180.738 64.56 179.514 63.84L179.568 63.534H183.06V62.274H179.802C179.856 61.878 179.892 61.446 179.91 61.014H178.452ZM180.558 58.602C180.774 58.89 180.972 59.214 181.17 59.556L178.038 59.808C179.352 58.962 180.684 57.936 181.944 56.73L180.9 55.938C180.414 56.442 179.874 56.946 179.352 57.396L177.462 57.432C178.074 56.946 178.704 56.334 179.262 55.722L178.92 55.488L180.036 55.002C179.928 54.48 179.622 53.706 179.334 53.13L178.2 53.562C178.47 54.156 178.758 54.912 178.848 55.434L178.2 54.984C177.534 55.938 176.544 56.784 176.238 57.018C175.95 57.234 175.698 57.396 175.446 57.45C175.572 57.81 175.752 58.512 175.806 58.8C176.04 58.71 176.364 58.638 177.912 58.566C177.372 58.944 176.94 59.25 176.688 59.394C176.112 59.772 175.68 60.006 175.284 60.078C175.392 60.438 175.572 61.158 175.626 61.428C176.04 61.212 176.652 61.158 181.746 60.636C181.908 60.96 182.034 61.266 182.124 61.518L183.348 60.996C183.06 60.186 182.394 58.998 181.71 58.116L180.558 58.602ZM185.508 62.958H187.416V65.082H185.508V62.958ZM187.416 57.99H185.508V55.974H187.416V57.99ZM187.416 61.536H185.508V59.412H187.416V61.536ZM191.376 65.082H188.91V62.958H190.908V61.536H188.91V59.412H190.908V57.99H188.91V55.974H191.16V54.462H188.91L189.756 54.156C189.486 53.418 188.946 52.266 188.46 51.402L187.056 51.834C187.506 52.626 187.974 53.724 188.244 54.462H185.58C185.994 53.436 186.318 52.356 186.606 51.276L185.04 50.898C184.428 53.418 183.402 55.92 182.07 57.504C182.412 57.81 182.988 58.494 183.222 58.818C183.492 58.476 183.744 58.116 183.996 57.702V67.404H185.508V66.594H191.376V65.082ZM207.216 53.85H201.726V52.698H207.216V53.85ZM207.216 56.154H201.726V54.984H207.216V56.154ZM208.872 51.474H200.142V57.378H208.872V51.474ZM198.684 52.842C198.036 52.212 196.668 51.456 195.606 51.006L194.67 52.248C195.732 52.752 197.082 53.598 197.694 54.21L198.684 52.842ZM197.766 57.504C197.1 56.928 195.732 56.208 194.67 55.794L193.734 57.054C194.832 57.522 196.164 58.314 196.794 58.908L197.766 57.504ZM196.974 60.456C196.092 62.508 194.904 64.812 194.076 66.198L195.57 67.188C196.47 65.496 197.496 63.354 198.27 61.464L196.974 60.456ZM210.312 59.682V58.314H198.522V59.682H200.826C200.052 60.96 198.918 62.148 197.73 62.94C198.072 63.192 198.648 63.678 198.9 63.948C199.566 63.444 200.25 62.796 200.862 62.076H202.302C201.402 63.606 200.052 64.992 198.63 65.91C198.954 66.162 199.53 66.684 199.782 66.954C201.366 65.784 202.932 64.02 203.976 62.076H205.416C204.732 63.876 203.616 65.46 202.248 66.504C202.59 66.702 203.202 67.17 203.454 67.422C204.912 66.162 206.19 64.254 206.982 62.076H208.134C207.954 64.524 207.738 65.496 207.468 65.784C207.324 65.964 207.18 66 206.946 65.982C206.712 65.982 206.172 65.982 205.578 65.928C205.812 66.306 205.956 66.936 205.992 67.368C206.694 67.404 207.378 67.404 207.756 67.35C208.188 67.296 208.512 67.17 208.8 66.828C209.286 66.288 209.538 64.884 209.772 61.41C209.79 61.194 209.808 60.762 209.808 60.762H201.87C202.104 60.402 202.32 60.042 202.518 59.682H210.312ZM220.104 51.15V65.208C220.104 65.568 219.978 65.676 219.6 65.694C219.222 65.712 217.908 65.712 216.684 65.658C216.954 66.144 217.242 66.936 217.35 67.404C219.06 67.422 220.212 67.368 220.932 67.098C221.634 66.81 221.922 66.324 221.922 65.208V51.15H220.104ZM224.406 55.74C225.864 58.332 227.286 61.68 227.664 63.804L229.482 63.084C229.032 60.906 227.556 57.63 226.026 55.128L224.406 55.74ZM215.442 55.272C215.028 57.648 214.074 60.744 212.562 62.616C213.012 62.778 213.75 63.192 214.164 63.498C215.73 61.5 216.738 58.242 217.332 55.614L215.442 55.272ZM247.14 63.156C245.754 62.49 243.036 61.392 241.218 60.708L240.354 62.004C242.226 62.778 244.908 63.948 246.204 64.668L247.14 63.156ZM247.896 58.998V57.342H240.3V54.858H246.15V53.256H240.3V50.916H238.536V57.342H231.858V58.998H238.59V67.404H240.354V58.998H247.896Z" fill="#573605"/>
<path d="M196.069 302.533C195.897 304.09 195.557 305.903 194.734 307.674C194.323 307.204 193.913 306.735 193.515 306.321C193.885 305.196 194.271 303.875 194.627 302.497L196.069 302.533ZM197.776 299.954L196.324 299.827L196.213 301.1L194.969 301.063C195.26 299.806 195.532 298.547 195.74 297.409L194.206 297.184C194.031 298.361 193.752 299.692 193.438 301.002C192.881 300.971 192.359 300.943 191.874 300.919L191.903 302.439L193.093 302.471C192.685 304.043 192.21 305.538 191.823 306.66C192.481 307.404 193.219 308.264 193.904 309.101C193.172 310.248 192.173 311.335 190.828 312.247C191.149 312.51 191.626 313.039 191.846 313.42C193.137 312.503 194.113 311.468 194.895 310.38C195.431 311.06 195.864 311.694 196.179 312.227L197.382 311.068C197.018 310.476 196.452 309.721 195.801 308.906C196.892 306.76 197.326 304.486 197.547 302.572L198.269 302.581L198.393 301.164L197.673 301.137L197.776 299.954ZM199.323 311.599L199.441 310.254C199.743 310.515 200.121 310.946 200.297 311.214C201.585 310.116 202.407 308.779 202.906 307.413C203.543 308.806 204.103 310.246 204.362 311.209L205.55 310.644C205.173 309.382 204.248 307.35 203.42 305.669C203.474 305.457 203.514 305.208 203.553 304.976L205.776 305.171L205.895 303.808L203.744 303.62L203.784 303.153L203.99 300.804L202.681 300.69L202.478 303.003L202.435 303.505L200.39 303.326L200.271 304.689L202.244 304.862C201.904 306.675 201.213 308.584 199.453 310.111L200.341 299.961L206.528 300.503L205.51 312.14L199.323 311.599ZM199.003 298.326L197.63 314.016L199.101 314.145L199.193 313.087L205.379 313.628L205.299 314.543L206.824 314.676L208.184 299.13L199.003 298.326Z" fill="#927858"/>
<path d="M214.641 305.169C214.881 305.021 215.266 304.879 216.918 304.554C216.439 305.481 215.977 306.19 215.752 306.517C215.29 307.226 214.935 307.709 214.567 307.831C214.722 308.161 214.992 308.77 215.111 309.103L215.122 309.228C215.446 309.001 216.009 308.825 219.809 307.861C219.883 308.089 219.936 308.283 219.988 308.459L221.129 307.872C220.873 307.009 220.247 305.636 219.633 304.606L218.573 305.096C218.852 305.595 219.119 306.168 219.366 306.725L216.692 307.338C217.944 305.548 219.143 303.347 220.039 301.191L218.714 300.512C218.412 301.388 218.021 302.289 217.643 303.135L216.022 303.404C216.84 302.013 217.607 300.247 218.167 298.59L216.752 298.118C216.257 300.095 215.267 302.205 214.936 302.758C214.641 303.308 214.349 303.695 214.07 303.809C214.261 304.136 214.497 304.766 214.633 305.079L214.641 305.169ZM215.321 309.843C215.321 311.289 215.227 312.905 214.907 313.999C215.238 314.061 215.849 314.224 216.167 314.359C216.411 313.217 216.57 311.523 216.614 309.965L215.321 309.843ZM217.255 309.855C217.557 311.039 217.873 312.583 217.999 313.602L219.191 313.191C219.03 312.175 218.699 310.668 218.379 309.485L217.255 309.855ZM223.347 301.01C223.422 300.624 223.494 300.202 223.583 299.779L227.08 299.473C227.039 299.838 226.987 300.276 226.952 300.695L223.347 301.01ZM229.534 304.607C228.747 305.308 227.523 306.192 226.443 306.865C226.054 306.338 225.539 305.823 224.959 305.386C225.36 305.008 225.724 304.633 226.05 304.225L230.784 303.811L230.668 302.484L228.193 302.7C228.374 301.257 228.556 299.615 228.653 298.251L227.544 298.168L227.281 298.263L223.766 298.57C223.826 298.222 223.871 297.911 223.898 297.601L222.359 297.555C222.203 299.086 221.908 301.082 221.64 302.352L226.822 301.899L226.723 302.829L220.68 303.358L220.796 304.684L224.221 304.385C223.268 305.263 222.017 306.041 220.82 306.616C221.113 306.861 221.593 307.397 221.798 307.668C222.521 307.262 223.272 306.762 223.965 306.214C224.217 306.409 224.453 306.623 224.651 306.823C223.789 307.711 222.337 308.669 221.205 309.148C221.517 309.41 221.937 309.879 222.164 310.202C223.196 309.606 224.467 308.646 225.383 307.752C225.571 308.043 225.705 308.338 225.818 308.6C224.864 309.876 223.068 311.243 221.475 312.033C221.198 311.136 220.651 309.847 220.185 308.858L219.139 309.292C219.629 310.352 220.166 311.732 220.41 312.668L221.174 312.312C221.522 312.571 221.865 312.975 222.071 313.264C223.486 312.508 225.094 311.265 226.25 310.025C226.426 311.004 226.282 311.83 226.003 312.161C225.797 312.486 225.515 312.565 225.156 312.597C224.815 312.626 224.454 312.622 223.983 312.609C224.289 313.016 224.431 313.6 224.464 313.976C224.86 313.96 225.256 313.943 225.579 313.915C226.258 313.837 226.679 313.692 227.09 313.222C227.957 312.388 228.15 310.058 227.116 307.944C227.374 307.795 227.648 307.626 227.939 307.438C228.506 309.575 229.338 311.454 230.616 312.426C230.815 312.011 231.214 311.416 231.549 311.116C230.361 310.334 229.56 308.616 229.053 306.745C229.649 306.331 230.211 305.939 230.7 305.535L229.534 304.607Z" fill="#927858"/>
<defs>
<filter id="filter0_i_114_12832" x="12" y="14" width="400" height="203" filterUnits="userSpaceOnUse" color-interpolation-filters="sRGB">
<feFlood flood-opacity="0" result="BackgroundImageFix"/>
<feBlend mode="normal" in="SourceGraphic" in2="BackgroundImageFix" result="shape"/>
<feColorMatrix in="SourceAlpha" type="matrix" values="0 0 0 0 0 0 0 0 0 0 0 0 0 0 0 0 0 0 127 0" result="hardAlpha"/>
<feOffset dy="4"/>
<feGaussianBlur stdDeviation="2"/>
<feComposite in2="hardAlpha" operator="arithmetic" k2="-1" k3="1"/>
<feColorMatrix type="matrix" values="0 0 0 0 0 0 0 0 0 0 0 0 0 0 0 0 0 0 0.35 0"/>
<feBlend mode="normal" in2="shape" result="effect1_innerShadow_114_12832"/>
</filter>
<filter id="filter1_di_114_12832" x="8" y="213" width="408" height="148" filterUnits="userSpaceOnUse" color-interpolation-filters="sRGB">
<feFlood flood-opacity="0" result="BackgroundImageFix"/>
<feColorMatrix in="SourceAlpha" type="matrix" values="0 0 0 0 0 0 0 0 0 0 0 0 0 0 0 0 0 0 127 0" result="hardAlpha"/>
<feOffset dy="4"/>
<feGaussianBlur stdDeviation="2"/>
<feComposite in2="hardAlpha" operator="out"/>
<feColorMatrix type="matrix" values="0 0 0 0 0 0 0 0 0 0 0 0 0 0 0 0 0 0 0.25 0"/>
<feBlend mode="normal" in2="BackgroundImageFix" result="effect1_dropShadow_114_12832"/>
<feBlend mode="normal" in="SourceGraphic" in2="effect1_dropShadow_114_12832" result="shape"/>
<feColorMatrix in="SourceAlpha" type="matrix" values="0 0 0 0 0 0 0 0 0 0 0 0 0 0 0 0 0 0 127 0" result="hardAlpha"/>
<feOffset dy="3"/>
<feGaussianBlur stdDeviation="4"/>
<feComposite in2="hardAlpha" operator="arithmetic" k2="-1" k3="1"/>
<feColorMatrix type="matrix" values="0 0 0 0 0 0 0 0 0 0 0 0 0 0 0 0 0 0 0.25 0"/>
<feBlend mode="normal" in2="shape" result="effect2_innerShadow_114_12832"/>
</filter>
</defs>
</svg>
