<svg width="425" height="425" viewBox="0 0 425 425" fill="none" xmlns="http://www.w3.org/2000/svg">
<g filter="url(#filter0_i_114_12847)">
<path d="M412 213C412 160.222 390.929 109.605 353.421 72.2858C315.914 34.966 265.043 14 212 14C158.957 14 108.086 34.966 70.5787 72.2857C33.0714 109.605 12 160.222 12 213L412 213Z" fill="#FDBF52"/>
</g>
<path d="M372 214C372 171.565 355.143 130.869 325.137 100.863C295.131 70.8571 254.435 54 212 54C169.565 54 128.869 70.8571 98.8629 100.863C68.8571 130.869 52 171.565 52 214" stroke="#FCDBA3" stroke-width="3"/>
<path d="M12 213C12 266.043 33.0714 316.914 70.5786 354.421C108.086 391.929 158.957 413 212 413C265.043 413 315.914 391.929 353.421 354.421C390.929 316.914 412 266.043 412 213L212 213L12 213Z" fill="#FDBF52"/>
<path d="M12 213C12 266.043 33.0714 316.914 70.5786 354.421C108.086 391.929 158.957 413 212 413C265.043 413 315.914 391.929 353.421 354.421C390.929 316.914 412 266.043 412 213L212 213L12 213Z" fill="black" fill-opacity="0.2"/>
<g filter="url(#filter1_di_114_12847)">
<path d="M12 213C12 250.13 33.0714 285.74 70.5786 311.995C108.086 338.25 158.957 353 212 353C265.043 353 315.914 338.25 353.421 311.995C390.929 285.74 412 250.13 412 213L212 213L12 213Z" fill="#FCDBA3"/>
</g>
<path d="M52 213C52 242.704 68.8571 271.192 98.8629 292.196C128.869 313.2 169.565 325 212 325C254.435 325 295.131 313.2 325.137 292.196C355.143 271.192 372 242.704 372 213" stroke="#FDBF52" stroke-width="3"/>
<path d="M175.468 138.032C172.556 136.272 166.732 133.744 162.54 132.24L161.228 134.48C165.516 136.144 171.244 138.8 174.092 140.656L175.468 138.032ZM175.468 127.6V124.976H162.572V122.704H172.588V120.176H162.572V118H174.124V115.376H167.596C168.364 114.352 169.228 113.072 169.964 111.888L166.796 111.024C166.252 112.304 165.164 114.096 164.3 115.376H156.492L157.548 114.896C157.1 113.776 156.012 112.176 154.924 111.024L152.332 112.048C153.1 113.008 153.964 114.32 154.476 115.376H148.044V118H159.5V120.176H149.836V122.704H159.5V124.976H146.988V127.6H159.148C159.052 128.368 158.924 129.04 158.796 129.712H147.692V132.24H157.9C156.46 135.024 153.42 136.816 146.412 137.776C146.988 138.448 147.692 139.664 147.916 140.464C156.364 139.088 159.756 136.4 161.26 132.24H174.764V129.712H161.932C162.06 129.04 162.188 128.336 162.252 127.6H175.468ZM183.212 140.112C184.556 137.136 186.06 133.36 187.244 130L184.812 128.432C183.532 132.08 181.804 136.112 180.524 138.576L183.212 140.112ZM186.764 122.8C185.676 121.808 183.404 120.624 181.58 119.92L179.916 122.096C181.74 122.896 183.98 124.24 185.036 125.2L186.764 122.8ZM195.276 116.464H201.516V118.768H195.276V116.464ZM205.74 125.744V134.64C204.46 133.232 203.788 130.544 203.66 127.248H200.588V129.136H202.22C202.252 129.488 202.284 129.84 202.316 130.16H201.74C201.58 131.888 200.94 133.776 199.596 134.928V125.744H205.74ZM192.076 127.248V129.136H193.74C193.772 129.488 193.804 129.84 193.836 130.192H193.228C193.036 132.048 192.396 134.064 191.02 135.28V125.744H197.004V134.608C195.852 133.136 195.276 130.448 195.18 127.248H192.076ZM204.428 121.296V116.464H209.228V113.808H204.428V111.12H201.516V113.808H195.276V111.12H192.428V113.808H187.884V114.48C186.764 113.456 184.62 112.208 182.924 111.472L181.26 113.584C182.988 114.48 185.196 115.92 186.188 116.944L187.884 114.704V116.464H192.428V121.296H197.004V123.216H188.492V140.464H191.02V135.44C191.404 135.696 191.916 136.208 192.14 136.592C193.228 135.632 193.932 134.352 194.348 132.944C194.764 134.352 195.308 135.472 196.044 136.272C196.268 135.984 196.652 135.6 197.004 135.312V140.208H199.596V135.216C199.98 135.504 200.396 135.984 200.62 136.304C201.74 135.408 202.444 134.192 202.892 132.816C203.34 134.224 203.948 135.376 204.716 136.208C204.908 135.888 205.356 135.472 205.74 135.184V137.808C205.74 138.128 205.644 138.256 205.26 138.256C204.908 138.256 203.756 138.256 202.572 138.224C202.892 138.832 203.18 139.792 203.308 140.432C205.164 140.432 206.444 140.432 207.308 140.08C208.14 139.664 208.396 139.024 208.396 137.808V123.216H199.596V121.296H204.428ZM221.164 120.496C221.1 123.28 220.78 126.544 219.596 129.808C218.796 129.04 217.996 128.272 217.228 127.6C217.708 125.552 218.188 123.152 218.604 120.656L221.164 120.496ZM223.788 115.664H221.196V117.936L218.988 118.064C219.308 115.792 219.596 113.52 219.788 111.472L217.036 111.312C216.908 113.424 216.62 115.824 216.268 118.192C215.276 118.224 214.348 118.256 213.484 118.288L213.772 120.976L215.884 120.848C215.404 123.696 214.796 126.416 214.284 128.464C215.564 129.68 217.004 131.088 218.348 132.464C217.228 134.608 215.628 136.688 213.388 138.512C213.996 138.928 214.924 139.792 215.372 140.432C217.516 138.608 219.084 136.624 220.3 134.576C221.356 135.696 222.22 136.752 222.86 137.648L224.812 135.408C224.076 134.416 222.956 133.168 221.676 131.824C223.276 127.856 223.692 123.76 223.788 120.336L225.068 120.24V117.712L223.788 117.776V115.664ZM228.332 136.048V133.648C228.908 134.064 229.644 134.768 229.996 135.216C232.108 133.072 233.356 130.576 234.028 128.08C235.372 130.448 236.588 132.912 237.196 134.576L239.212 133.392C238.348 131.216 236.396 127.76 234.668 124.912C234.732 124.528 234.764 124.08 234.796 123.664H238.764V121.232H234.924V120.4V116.208H232.588V120.336V121.232H228.94V123.664H232.46C232.14 126.928 231.212 130.416 228.332 133.392V115.28H239.372V136.048H228.332ZM225.708 112.592V140.592H228.332V138.704H239.372V140.336H242.092V112.592H225.708ZM247.82 123.344C248.268 123.12 248.972 122.928 251.948 122.608C250.956 124.176 250.028 125.36 249.58 125.904C248.652 127.088 247.948 127.888 247.276 128.048C247.5 128.656 247.884 129.776 248.044 130.384V130.608C248.652 130.256 249.676 130.032 256.556 128.912C256.652 129.328 256.716 129.68 256.78 130L258.892 129.136C258.572 127.568 257.676 125.04 256.748 123.12L254.796 123.824C255.212 124.752 255.596 125.808 255.948 126.832L251.116 127.504C253.612 124.528 256.076 120.816 257.996 117.136L255.756 115.728C255.084 117.232 254.252 118.768 253.452 120.208L250.54 120.432C252.204 118.096 253.836 115.088 255.084 112.24L252.652 111.184C251.468 114.608 249.388 118.192 248.716 119.12C248.108 120.048 247.532 120.688 247.02 120.848C247.308 121.456 247.628 122.608 247.82 123.184V123.344ZM248.3 131.728C248.076 134.288 247.66 137.136 246.924 139.024C247.5 139.184 248.556 139.568 249.1 139.856C249.708 137.872 250.252 134.896 250.572 132.144L248.3 131.728ZM251.724 132.048C252.076 134.192 252.396 136.976 252.46 138.8L254.636 138.256C254.508 136.432 254.156 133.712 253.772 131.568L251.724 132.048ZM263.884 117.328C264.076 116.656 264.268 115.92 264.492 115.184H270.732C270.604 115.824 270.444 116.592 270.316 117.328H263.884ZM274.284 124.656C272.78 125.776 270.476 127.152 268.46 128.176C267.852 127.184 267.02 126.192 266.06 125.328C266.828 124.72 267.532 124.112 268.172 123.44H276.62V121.072H272.204C272.748 118.544 273.324 115.664 273.708 113.264L271.756 112.944L271.276 113.072H265.004C265.164 112.464 265.292 111.92 265.388 111.376L262.668 111.056C262.156 113.744 261.324 117.232 260.652 119.44H269.9L269.58 121.072H258.796V123.44H264.908C263.084 124.848 260.748 126.032 258.54 126.864C259.02 127.344 259.788 128.368 260.108 128.88C261.452 128.272 262.86 127.504 264.172 126.64C264.588 127.024 264.972 127.44 265.292 127.824C263.628 129.264 260.908 130.736 258.828 131.408C259.34 131.92 260.012 132.816 260.364 133.424C262.284 132.528 264.684 131.024 266.444 129.584C266.732 130.128 266.924 130.672 267.084 131.152C265.196 133.264 261.804 135.408 258.86 136.56C258.508 134.928 257.74 132.56 257.068 130.736L255.148 131.344C255.852 133.296 256.588 135.824 256.876 137.52L258.284 137.008C258.86 137.52 259.404 138.288 259.724 138.832C262.348 137.712 265.388 135.76 267.628 133.744C267.788 135.504 267.404 136.944 266.86 137.488C266.444 138.032 265.932 138.128 265.292 138.128C264.684 138.128 264.044 138.064 263.212 137.968C263.692 138.736 263.852 139.792 263.852 140.464C264.556 140.496 265.26 140.528 265.836 140.528C267.052 140.496 267.82 140.304 268.62 139.536C270.284 138.192 270.988 134.096 269.484 130.192C269.964 129.968 270.476 129.712 271.02 129.424C271.692 133.296 272.876 136.752 274.988 138.672C275.404 137.968 276.204 136.976 276.844 136.496C274.86 134.928 273.708 131.76 273.1 128.368C274.22 127.728 275.276 127.12 276.204 126.48L274.284 124.656ZM159.884 169.424C159.564 167.76 158.668 165.04 157.772 162.96L155.34 163.568C155.66 164.432 156.012 165.392 156.3 166.352L151.564 166.992C154.252 164.272 156.908 160.912 159.116 157.52L156.46 155.856C155.66 157.296 154.764 158.672 153.836 159.984L150.636 160.24C152.524 157.936 154.476 155.088 156.012 152.304L153.164 151.088C151.66 154.448 149.228 157.936 148.428 158.864C147.66 159.792 147.052 160.4 146.412 160.56C146.764 161.328 147.244 162.704 147.404 163.312C147.852 163.088 148.62 162.896 151.948 162.512C150.764 164.016 149.74 165.136 149.228 165.648C148.108 166.8 147.34 167.536 146.54 167.696C146.892 168.496 147.372 169.968 147.532 170.544C148.236 170.16 149.388 169.936 157.004 168.656C157.132 169.232 157.228 169.776 157.292 170.192L159.884 169.424ZM148.46 171.728C148.012 174.256 147.308 177.104 146.412 178.992C147.148 179.216 148.396 179.632 149.036 179.92C149.804 178 150.668 174.992 151.116 172.272L148.46 171.728ZM152.268 172.112C152.684 174.192 153.1 176.944 153.164 178.768L155.724 178.096C155.564 176.304 155.116 173.584 154.668 171.504L152.268 172.112ZM155.852 171.28C156.46 172.752 157.164 174.704 157.42 175.952L159.82 175.056C159.5 173.808 158.828 171.92 158.156 170.448L155.852 171.28ZM169.036 175.952V156.432H175.276V153.52H159.884V156.432H165.964V175.952H158.668V178.864H175.82V175.952H169.036ZM208.908 160.656C208.62 159.664 207.756 158.192 207.02 157.104L205.42 157.648C205.612 158 205.868 158.416 206.092 158.832L202.892 159.12C204.588 157.808 206.348 156.176 208.012 154.416L206.092 153.552C205.644 154.096 205.196 154.608 204.684 155.12L202.028 155.312C202.988 154.416 204.012 153.264 204.844 152.048L202.892 151.344C201.996 152.88 200.492 154.416 200.044 154.768C199.628 155.184 199.212 155.376 198.796 155.472C199.052 155.984 199.34 156.912 199.468 157.328C199.82 157.168 200.396 157.072 202.892 156.848C202.028 157.616 201.26 158.224 200.908 158.48C200.172 158.992 199.532 159.344 198.956 159.44C199.212 159.952 199.5 160.88 199.596 161.328C200.044 161.072 200.972 160.912 206.86 160.24C207.02 160.624 207.18 160.976 207.244 161.296L208.908 160.656ZM208.78 164.464C208.588 163.632 208.044 162.256 207.5 161.232L205.932 161.68C206.412 162.704 206.956 164.08 207.148 165.008L208.78 164.464ZM205.26 165.072C205.196 164.144 204.908 162.768 204.492 161.744L202.764 162C203.116 163.056 203.404 164.496 203.436 165.392L205.26 165.072ZM199.916 161.68C199.788 162.768 199.532 163.952 199.052 164.912C199.5 165.104 200.332 165.52 200.716 165.776C201.196 164.848 201.58 163.376 201.804 162.096L199.916 161.68ZM199.084 153.488H195.724C195.436 152.784 194.956 151.92 194.54 151.248L192.652 151.824C192.972 152.336 193.292 152.912 193.484 153.488H189.74V155.152H199.084V153.488ZM198.156 156.048H190.732V157.456H198.156V156.048ZM190.732 159.792H198.156V158.384H190.732V159.792ZM190.252 160.464C189.932 159.568 189.196 158.16 188.492 157.136L186.924 157.616C187.148 157.968 187.372 158.352 187.564 158.768L184.46 159.056C186.092 157.808 187.788 156.24 189.324 154.544L187.34 153.776C186.988 154.224 186.572 154.64 186.188 155.056L183.724 155.216C184.684 154.32 185.708 153.136 186.572 151.92L184.524 151.248C183.66 152.784 182.156 154.288 181.708 154.64C181.26 154.992 180.908 155.216 180.492 155.28C180.716 155.824 181.004 156.752 181.132 157.232C181.452 157.072 182.06 156.944 184.46 156.72C183.596 157.52 182.828 158.128 182.476 158.384C181.772 158.928 181.164 159.248 180.652 159.312C180.876 159.824 181.132 160.784 181.26 161.232C181.772 160.976 182.604 160.816 188.268 160.176C188.396 160.528 188.524 160.816 188.62 161.072L190.252 160.464ZM189.996 164.016C189.772 163.248 189.26 162.032 188.78 161.104L187.212 161.552C187.692 162.48 188.172 163.728 188.332 164.56L189.996 164.016ZM186.7 165.008C186.604 164.112 186.252 162.672 185.868 161.584L184.14 161.936C184.492 163.056 184.812 164.496 184.844 165.424L186.7 165.008ZM181.42 161.616C181.196 162.896 180.876 164.272 180.3 165.36C180.78 165.584 181.58 166.032 181.932 166.288C182.476 165.168 182.988 163.504 183.276 162.032L181.42 161.616ZM183.308 180.56C184.364 179.632 185.356 178.32 186.028 177.168L183.884 176.112C183.276 177.2 182.188 178.544 181.068 179.312L183.308 180.56ZM187.916 177.232C188.46 178.256 188.972 179.6 189.068 180.496L191.468 179.728C191.308 178.896 190.732 177.552 190.188 176.592L187.916 177.232ZM192.972 177.296C193.612 178.16 194.316 179.376 194.572 180.176L196.652 179.216C196.396 178.48 195.66 177.328 194.988 176.496L192.972 177.296ZM201.996 167.312V168.24H187.66V167.312H201.996ZM187.66 170.448V169.52H201.996V170.448H187.66ZM201.708 178.256C201.356 177.712 200.684 176.976 200.012 176.368H204.14C203.884 177.744 203.596 178.448 203.244 178.736C203.02 178.928 202.796 178.96 202.348 178.96C202.028 178.96 201.356 178.96 200.588 178.928L201.708 178.256ZM192.492 162.128H196.236V163.312H192.492V162.128ZM187.66 171.792H204.812V165.968H195.148C195.372 165.68 195.596 165.36 195.788 165.04L193.932 164.688H198.188V160.72H190.604V164.688H192.652C192.492 165.072 192.3 165.52 192.108 165.968H184.876V176.368H199.148L197.868 177.04C198.54 177.648 199.244 178.448 199.692 179.088C199.884 179.568 200.044 180.08 200.076 180.464C201.548 180.56 202.924 180.592 203.66 180.56C204.364 180.528 205.068 180.4 205.612 179.984C206.252 179.44 206.7 178.32 207.116 175.888C207.18 175.568 207.18 174.992 207.18 174.992H187.66V174.128H208.876V172.688H187.66V171.792ZM220.556 159.184H235.916V161.552H220.556V159.184ZM220.556 154.704H235.916V156.976H220.556V154.704ZM229.9 177.136V174.192H238.828V171.856H229.9V169.328H240.204V166.832H229.9V164.528H226.828V166.832H221.228C221.644 166.096 222.092 165.36 222.444 164.624L219.948 163.888H238.988V152.368H217.644V163.888H219.468C218.252 166.544 216.14 169.136 213.868 170.832C214.604 171.216 215.82 172.144 216.396 172.656C217.42 171.76 218.476 170.608 219.5 169.328H226.828V171.856H218.252V174.192H226.828V177.136H214.444V179.696H242.22V177.136H229.9ZM256.652 173.904H262.668V171.728H256.652V170.096H262.604V160.464H256.652V158.8H262.988V161.2H266.38C266.124 167.024 265.324 171.856 262.7 175.472C260.684 175.696 258.636 175.888 256.652 176.08V173.904ZM250.636 168.144V166.192H253.932V168.144H250.636ZM260.076 166.192V168.144H256.652V166.192H260.076ZM256.652 164.368V162.416H260.076V164.368H256.652ZM250.636 162.416H253.932V164.368H250.636V162.416ZM269.292 158.448C269.324 156.272 269.356 153.968 269.356 151.6H266.508C266.508 154 266.508 156.272 266.476 158.448H263.116V156.592H256.652V154.544C258.86 154.32 260.972 154 262.668 153.648L261.26 151.408C257.932 152.144 252.268 152.72 247.532 152.976C247.82 153.552 248.14 154.512 248.236 155.12C250.028 155.056 251.98 154.96 253.932 154.8V156.592H247.34V158.8H253.932V160.464H248.204V170.096H253.932V171.728H248.108V173.904H253.932V176.336C251.404 176.56 249.1 176.752 247.244 176.88L247.628 179.408C251.052 179.088 255.66 178.608 260.268 178.064C260.076 178.224 259.884 178.384 259.692 178.512C260.396 178.992 261.388 180.048 261.836 180.72C267.34 176.496 268.78 169.712 269.196 161.2H272.972C272.716 172.208 272.396 176.272 271.692 177.168C271.372 177.584 271.084 177.68 270.54 177.68C269.964 177.68 268.652 177.68 267.18 177.552C267.628 178.352 267.948 179.568 268.012 180.368C269.516 180.464 270.988 180.464 271.948 180.336C272.94 180.176 273.612 179.92 274.22 178.96C275.244 177.584 275.532 173.04 275.884 159.824C275.884 159.472 275.916 158.448 275.916 158.448H269.292Z" fill="white"/>
<rect x="165" y="45" width="92.5" height="26" fill="#FDBF52"/>
<path d="M182.268 51.078C180.522 51.636 177.588 52.032 175.122 52.212C175.23 52.554 175.374 53.058 175.41 53.436C177.93 53.292 180.936 52.914 182.934 52.302L182.268 51.078ZM181.854 55.722C182.25 55.11 182.7 54.21 183.132 53.328L181.98 52.878C181.728 53.634 181.242 54.66 180.846 55.326L181.854 55.722ZM177.3 55.398C177.174 54.858 176.868 54.084 176.526 53.508L175.41 53.958C175.716 54.552 176.04 55.38 176.13 55.938L177.3 55.398ZM178.452 61.014C178.434 61.464 178.398 61.896 178.344 62.274H175.068V63.534H178.056C177.642 64.83 176.742 65.676 174.78 66.234C175.086 66.504 175.482 67.062 175.626 67.422C177.372 66.882 178.398 66.09 179.01 65.01C180.162 65.73 181.404 66.648 182.034 67.296L183.006 66.27C182.25 65.532 180.738 64.56 179.514 63.84L179.568 63.534H183.06V62.274H179.802C179.856 61.878 179.892 61.446 179.91 61.014H178.452ZM180.558 58.602C180.774 58.89 180.972 59.214 181.17 59.556L178.038 59.808C179.352 58.962 180.684 57.936 181.944 56.73L180.9 55.938C180.414 56.442 179.874 56.946 179.352 57.396L177.462 57.432C178.074 56.946 178.704 56.334 179.262 55.722L178.92 55.488L180.036 55.002C179.928 54.48 179.622 53.706 179.334 53.13L178.2 53.562C178.47 54.156 178.758 54.912 178.848 55.434L178.2 54.984C177.534 55.938 176.544 56.784 176.238 57.018C175.95 57.234 175.698 57.396 175.446 57.45C175.572 57.81 175.752 58.512 175.806 58.8C176.04 58.71 176.364 58.638 177.912 58.566C177.372 58.944 176.94 59.25 176.688 59.394C176.112 59.772 175.68 60.006 175.284 60.078C175.392 60.438 175.572 61.158 175.626 61.428C176.04 61.212 176.652 61.158 181.746 60.636C181.908 60.96 182.034 61.266 182.124 61.518L183.348 60.996C183.06 60.186 182.394 58.998 181.71 58.116L180.558 58.602ZM185.508 62.958H187.416V65.082H185.508V62.958ZM187.416 57.99H185.508V55.974H187.416V57.99ZM187.416 61.536H185.508V59.412H187.416V61.536ZM191.376 65.082H188.91V62.958H190.908V61.536H188.91V59.412H190.908V57.99H188.91V55.974H191.16V54.462H188.91L189.756 54.156C189.486 53.418 188.946 52.266 188.46 51.402L187.056 51.834C187.506 52.626 187.974 53.724 188.244 54.462H185.58C185.994 53.436 186.318 52.356 186.606 51.276L185.04 50.898C184.428 53.418 183.402 55.92 182.07 57.504C182.412 57.81 182.988 58.494 183.222 58.818C183.492 58.476 183.744 58.116 183.996 57.702V67.404H185.508V66.594H191.376V65.082ZM207.216 53.85H201.726V52.698H207.216V53.85ZM207.216 56.154H201.726V54.984H207.216V56.154ZM208.872 51.474H200.142V57.378H208.872V51.474ZM198.684 52.842C198.036 52.212 196.668 51.456 195.606 51.006L194.67 52.248C195.732 52.752 197.082 53.598 197.694 54.21L198.684 52.842ZM197.766 57.504C197.1 56.928 195.732 56.208 194.67 55.794L193.734 57.054C194.832 57.522 196.164 58.314 196.794 58.908L197.766 57.504ZM196.974 60.456C196.092 62.508 194.904 64.812 194.076 66.198L195.57 67.188C196.47 65.496 197.496 63.354 198.27 61.464L196.974 60.456ZM210.312 59.682V58.314H198.522V59.682H200.826C200.052 60.96 198.918 62.148 197.73 62.94C198.072 63.192 198.648 63.678 198.9 63.948C199.566 63.444 200.25 62.796 200.862 62.076H202.302C201.402 63.606 200.052 64.992 198.63 65.91C198.954 66.162 199.53 66.684 199.782 66.954C201.366 65.784 202.932 64.02 203.976 62.076H205.416C204.732 63.876 203.616 65.46 202.248 66.504C202.59 66.702 203.202 67.17 203.454 67.422C204.912 66.162 206.19 64.254 206.982 62.076H208.134C207.954 64.524 207.738 65.496 207.468 65.784C207.324 65.964 207.18 66 206.946 65.982C206.712 65.982 206.172 65.982 205.578 65.928C205.812 66.306 205.956 66.936 205.992 67.368C206.694 67.404 207.378 67.404 207.756 67.35C208.188 67.296 208.512 67.17 208.8 66.828C209.286 66.288 209.538 64.884 209.772 61.41C209.79 61.194 209.808 60.762 209.808 60.762H201.87C202.104 60.402 202.32 60.042 202.518 59.682H210.312ZM220.104 51.15V65.208C220.104 65.568 219.978 65.676 219.6 65.694C219.222 65.712 217.908 65.712 216.684 65.658C216.954 66.144 217.242 66.936 217.35 67.404C219.06 67.422 220.212 67.368 220.932 67.098C221.634 66.81 221.922 66.324 221.922 65.208V51.15H220.104ZM224.406 55.74C225.864 58.332 227.286 61.68 227.664 63.804L229.482 63.084C229.032 60.906 227.556 57.63 226.026 55.128L224.406 55.74ZM215.442 55.272C215.028 57.648 214.074 60.744 212.562 62.616C213.012 62.778 213.75 63.192 214.164 63.498C215.73 61.5 216.738 58.242 217.332 55.614L215.442 55.272ZM247.14 63.156C245.754 62.49 243.036 61.392 241.218 60.708L240.354 62.004C242.226 62.778 244.908 63.948 246.204 64.668L247.14 63.156ZM247.896 58.998V57.342H240.3V54.858H246.15V53.256H240.3V50.916H238.536V57.342H231.858V58.998H238.59V67.404H240.354V58.998H247.896Z" fill="#573605"/>
<path d="M196.069 302.533C195.897 304.09 195.557 305.903 194.734 307.674C194.323 307.204 193.913 306.735 193.515 306.321C193.885 305.196 194.271 303.875 194.627 302.497L196.069 302.533ZM197.776 299.954L196.324 299.827L196.213 301.1L194.969 301.063C195.26 299.806 195.532 298.547 195.74 297.409L194.206 297.184C194.031 298.361 193.752 299.692 193.438 301.002C192.881 300.971 192.359 300.943 191.874 300.919L191.903 302.439L193.093 302.471C192.685 304.043 192.21 305.538 191.823 306.66C192.481 307.404 193.219 308.264 193.904 309.101C193.172 310.248 192.173 311.335 190.828 312.247C191.149 312.51 191.626 313.039 191.846 313.42C193.137 312.503 194.113 311.468 194.895 310.38C195.431 311.06 195.864 311.694 196.179 312.227L197.382 311.068C197.018 310.476 196.452 309.721 195.801 308.906C196.892 306.76 197.326 304.486 197.547 302.572L198.269 302.581L198.393 301.164L197.673 301.137L197.776 299.954ZM199.323 311.599L199.441 310.254C199.743 310.515 200.121 310.946 200.297 311.214C201.585 310.116 202.407 308.779 202.906 307.413C203.543 308.806 204.103 310.246 204.362 311.209L205.55 310.644C205.173 309.382 204.248 307.35 203.42 305.669C203.474 305.457 203.514 305.208 203.553 304.976L205.776 305.171L205.895 303.808L203.744 303.62L203.784 303.153L203.99 300.804L202.681 300.69L202.478 303.003L202.435 303.505L200.39 303.326L200.271 304.689L202.244 304.862C201.904 306.675 201.213 308.584 199.453 310.111L200.341 299.961L206.528 300.503L205.51 312.14L199.323 311.599ZM199.003 298.326L197.63 314.016L199.101 314.145L199.193 313.087L205.379 313.628L205.299 314.543L206.824 314.676L208.184 299.13L199.003 298.326Z" fill="#927858"/>
<path d="M214.641 305.169C214.881 305.021 215.266 304.879 216.918 304.554C216.439 305.481 215.977 306.19 215.752 306.517C215.29 307.226 214.935 307.709 214.567 307.831C214.722 308.161 214.992 308.77 215.111 309.103L215.122 309.228C215.446 309.001 216.009 308.825 219.809 307.861C219.883 308.089 219.936 308.283 219.988 308.459L221.129 307.872C220.873 307.009 220.247 305.636 219.633 304.606L218.573 305.096C218.852 305.595 219.119 306.168 219.366 306.725L216.692 307.338C217.944 305.548 219.143 303.347 220.039 301.191L218.714 300.512C218.412 301.388 218.021 302.289 217.643 303.135L216.022 303.404C216.84 302.013 217.607 300.247 218.167 298.59L216.752 298.118C216.257 300.095 215.267 302.205 214.936 302.758C214.641 303.308 214.349 303.695 214.07 303.809C214.261 304.136 214.497 304.766 214.633 305.079L214.641 305.169ZM215.321 309.843C215.321 311.289 215.227 312.905 214.907 313.999C215.238 314.061 215.849 314.224 216.167 314.359C216.411 313.217 216.57 311.523 216.614 309.965L215.321 309.843ZM217.255 309.855C217.557 311.039 217.873 312.583 217.999 313.602L219.191 313.191C219.03 312.175 218.699 310.668 218.379 309.485L217.255 309.855ZM223.347 301.01C223.422 300.624 223.494 300.202 223.583 299.779L227.08 299.473C227.039 299.838 226.987 300.276 226.952 300.695L223.347 301.01ZM229.534 304.607C228.747 305.308 227.523 306.192 226.443 306.865C226.054 306.338 225.539 305.823 224.959 305.386C225.36 305.008 225.724 304.633 226.05 304.225L230.784 303.811L230.668 302.484L228.193 302.7C228.374 301.257 228.556 299.615 228.653 298.251L227.544 298.168L227.281 298.263L223.766 298.57C223.826 298.222 223.871 297.911 223.898 297.601L222.359 297.555C222.203 299.086 221.908 301.082 221.64 302.352L226.822 301.899L226.723 302.829L220.68 303.358L220.796 304.684L224.221 304.385C223.268 305.263 222.017 306.041 220.82 306.616C221.113 306.861 221.593 307.397 221.798 307.668C222.521 307.262 223.272 306.762 223.965 306.214C224.217 306.409 224.453 306.623 224.651 306.823C223.789 307.711 222.337 308.669 221.205 309.148C221.517 309.41 221.937 309.879 222.164 310.202C223.196 309.606 224.467 308.646 225.383 307.752C225.571 308.043 225.705 308.338 225.818 308.6C224.864 309.876 223.068 311.243 221.475 312.033C221.198 311.136 220.651 309.847 220.185 308.858L219.139 309.292C219.629 310.352 220.166 311.732 220.41 312.668L221.174 312.312C221.522 312.571 221.865 312.975 222.071 313.264C223.486 312.508 225.094 311.265 226.25 310.025C226.426 311.004 226.282 311.83 226.003 312.161C225.797 312.486 225.515 312.565 225.156 312.597C224.815 312.626 224.454 312.622 223.983 312.609C224.289 313.016 224.431 313.6 224.464 313.976C224.86 313.96 225.256 313.943 225.579 313.915C226.258 313.837 226.679 313.692 227.09 313.222C227.957 312.388 228.15 310.058 227.116 307.944C227.374 307.795 227.648 307.626 227.939 307.438C228.506 309.575 229.338 311.454 230.616 312.426C230.815 312.011 231.214 311.416 231.549 311.116C230.361 310.334 229.56 308.616 229.053 306.745C229.649 306.331 230.211 305.939 230.7 305.535L229.534 304.607Z" fill="#927858"/>
<defs>
<filter id="filter0_i_114_12847" x="12" y="14" width="400" height="203" filterUnits="userSpaceOnUse" color-interpolation-filters="sRGB">
<feFlood flood-opacity="0" result="BackgroundImageFix"/>
<feBlend mode="normal" in="SourceGraphic" in2="BackgroundImageFix" result="shape"/>
<feColorMatrix in="SourceAlpha" type="matrix" values="0 0 0 0 0 0 0 0 0 0 0 0 0 0 0 0 0 0 127 0" result="hardAlpha"/>
<feOffset dy="4"/>
<feGaussianBlur stdDeviation="2"/>
<feComposite in2="hardAlpha" operator="arithmetic" k2="-1" k3="1"/>
<feColorMatrix type="matrix" values="0 0 0 0 0 0 0 0 0 0 0 0 0 0 0 0 0 0 0.35 0"/>
<feBlend mode="normal" in2="shape" result="effect1_innerShadow_114_12847"/>
</filter>
<filter id="filter1_di_114_12847" x="8" y="213" width="408" height="148" filterUnits="userSpaceOnUse" color-interpolation-filters="sRGB">
<feFlood flood-opacity="0" result="BackgroundImageFix"/>
<feColorMatrix in="SourceAlpha" type="matrix" values="0 0 0 0 0 0 0 0 0 0 0 0 0 0 0 0 0 0 127 0" result="hardAlpha"/>
<feOffset dy="4"/>
<feGaussianBlur stdDeviation="2"/>
<feComposite in2="hardAlpha" operator="out"/>
<feColorMatrix type="matrix" values="0 0 0 0 0 0 0 0 0 0 0 0 0 0 0 0 0 0 0.25 0"/>
<feBlend mode="normal" in2="BackgroundImageFix" result="effect1_dropShadow_114_12847"/>
<feBlend mode="normal" in="SourceGraphic" in2="effect1_dropShadow_114_12847" result="shape"/>
<feColorMatrix in="SourceAlpha" type="matrix" values="0 0 0 0 0 0 0 0 0 0 0 0 0 0 0 0 0 0 127 0" result="hardAlpha"/>
<feOffset dy="3"/>
<feGaussianBlur stdDeviation="4"/>
<feComposite in2="hardAlpha" operator="arithmetic" k2="-1" k3="1"/>
<feColorMatrix type="matrix" values="0 0 0 0 0 0 0 0 0 0 0 0 0 0 0 0 0 0 0.25 0"/>
<feBlend mode="normal" in2="shape" result="effect2_innerShadow_114_12847"/>
</filter>
</defs>
</svg>
