<svg width="400" height="400" viewBox="0 0 400 400" fill="none" xmlns="http://www.w3.org/2000/svg">
<g clip-path="url(#clip0_114_12847)">
<g filter="url(#filter0_i_114_12847)">
<path d="M396 200C396 147.222 374.929 96.6055 337.421 59.2858C299.914 21.966 249.043 1 196 1C142.957 0.999996 92.0859 21.966 54.5787 59.2857C17.0714 96.6055 -3.99999 147.222 -4 200L396 200Z" fill="#FDBF52"/>
</g>
<path d="M356 201C356 158.565 339.143 117.869 309.137 87.8629C279.131 57.8571 238.435 41 196 41C153.565 41 112.869 57.8571 82.8629 87.8629C52.8571 117.869 36 158.565 36 201" stroke="#FCDBA3" stroke-width="3"/>
<g filter="url(#filter1_i_114_12847)">
<path d="M-3.99998 200C-3.99999 253.043 17.0714 303.914 54.5786 341.421C92.0859 378.929 142.957 400 196 400C249.043 400 299.914 378.929 337.421 341.421C374.929 303.914 396 253.043 396 200L196 200L-3.99998 200Z" fill="#FDBF52"/>
<path d="M-3.99998 200C-3.99999 253.043 17.0714 303.914 54.5786 341.421C92.0859 378.929 142.957 400 196 400C249.043 400 299.914 378.929 337.421 341.421C374.929 303.914 396 253.043 396 200L196 200L-3.99998 200Z" fill="black" fill-opacity="0.2"/>
</g>
<g filter="url(#filter2_di_114_12847)">
<path d="M-3.99999 200C-3.99999 237.13 17.0714 272.74 54.5786 298.995C92.0859 325.25 142.957 340 196 340C249.043 340 299.914 325.25 337.421 298.995C374.929 272.74 396 237.13 396 200L196 200L-3.99999 200Z" fill="#FCDBA3"/>
</g>
<path d="M36 200C36 229.704 52.8571 258.192 82.8629 279.196C112.869 300.2 153.565 312 196 312C238.435 312 279.131 300.2 309.137 279.196C339.143 258.192 356 229.704 356 200" stroke="#FDBF52" stroke-width="3"/>
<path d="M159.468 125.032C156.556 123.272 150.732 120.744 146.54 119.24L145.228 121.48C149.516 123.144 155.244 125.8 158.092 127.656L159.468 125.032ZM159.468 114.6V111.976H146.572V109.704H156.588V107.176H146.572V105H158.124V102.376H151.596C152.364 101.352 153.228 100.072 153.964 98.888L150.796 98.024C150.252 99.304 149.164 101.096 148.3 102.376H140.492L141.548 101.896C141.1 100.776 140.012 99.176 138.924 98.024L136.332 99.048C137.1 100.008 137.964 101.32 138.476 102.376H132.044V105H143.5V107.176H133.836V109.704H143.5V111.976H130.988V114.6H143.148C143.052 115.368 142.924 116.04 142.796 116.712H131.692V119.24H141.9C140.46 122.024 137.42 123.816 130.412 124.776C130.988 125.448 131.692 126.664 131.916 127.464C140.364 126.088 143.756 123.4 145.26 119.24H158.764V116.712H145.932C146.06 116.04 146.188 115.336 146.252 114.6H159.468ZM167.212 127.112C168.556 124.136 170.06 120.36 171.244 117L168.812 115.432C167.532 119.08 165.804 123.112 164.524 125.576L167.212 127.112ZM170.764 109.8C169.676 108.808 167.404 107.624 165.58 106.92L163.916 109.096C165.74 109.896 167.98 111.24 169.036 112.2L170.764 109.8ZM179.276 103.464H185.516V105.768H179.276V103.464ZM189.74 112.744V121.64C188.46 120.232 187.788 117.544 187.66 114.248H184.588V116.136H186.22C186.252 116.488 186.284 116.84 186.316 117.16H185.74C185.58 118.888 184.94 120.776 183.596 121.928V112.744H189.74ZM176.076 114.248V116.136H177.74C177.772 116.488 177.804 116.84 177.836 117.192H177.228C177.036 119.048 176.396 121.064 175.02 122.28V112.744H181.004V121.608C179.852 120.136 179.276 117.448 179.18 114.248H176.076ZM188.428 108.296V103.464H193.228V100.808H188.428V98.12H185.516V100.808H179.276V98.12H176.428V100.808H171.884V101.48C170.764 100.456 168.62 99.208 166.924 98.472L165.26 100.584C166.988 101.48 169.196 102.92 170.188 103.944L171.884 101.704V103.464H176.428V108.296H181.004V110.216H172.492V127.464H175.02V122.44C175.404 122.696 175.916 123.208 176.14 123.592C177.228 122.632 177.932 121.352 178.348 119.944C178.764 121.352 179.308 122.472 180.044 123.272C180.268 122.984 180.652 122.6 181.004 122.312V127.208H183.596V122.216C183.98 122.504 184.396 122.984 184.62 123.304C185.74 122.408 186.444 121.192 186.892 119.816C187.34 121.224 187.948 122.376 188.716 123.208C188.908 122.888 189.356 122.472 189.74 122.184V124.808C189.74 125.128 189.644 125.256 189.26 125.256C188.908 125.256 187.756 125.256 186.572 125.224C186.892 125.832 187.18 126.792 187.308 127.432C189.164 127.432 190.444 127.432 191.308 127.08C192.14 126.664 192.396 126.024 192.396 124.808V110.216H183.596V108.296H188.428ZM205.164 107.496C205.1 110.28 204.78 113.544 203.596 116.808C202.796 116.04 201.996 115.272 201.228 114.6C201.708 112.552 202.188 110.152 202.604 107.656L205.164 107.496ZM207.788 102.664H205.196V104.936L202.988 105.064C203.308 102.792 203.596 100.52 203.788 98.472L201.036 98.312C200.908 100.424 200.62 102.824 200.268 105.192C199.276 105.224 198.348 105.256 197.484 105.288L197.772 107.976L199.884 107.848C199.404 110.696 198.796 113.416 198.284 115.464C199.564 116.68 201.004 118.088 202.348 119.464C201.228 121.608 199.628 123.688 197.388 125.512C197.996 125.928 198.924 126.792 199.372 127.432C201.516 125.608 203.084 123.624 204.3 121.576C205.356 122.696 206.22 123.752 206.86 124.648L208.812 122.408C208.076 121.416 206.956 120.168 205.676 118.824C207.276 114.856 207.692 110.76 207.788 107.336L209.068 107.24V104.712L207.788 104.776V102.664ZM212.332 123.048V120.648C212.908 121.064 213.644 121.768 213.996 122.216C216.108 120.072 217.356 117.576 218.028 115.08C219.372 117.448 220.588 119.912 221.196 121.576L223.212 120.392C222.348 118.216 220.396 114.76 218.668 111.912C218.732 111.528 218.764 111.08 218.796 110.664H222.764V108.232H218.924V107.4V103.208H216.588V107.336V108.232H212.94V110.664H216.46C216.14 113.928 215.212 117.416 212.332 120.392V102.28H223.372V123.048H212.332ZM209.708 99.592V127.592H212.332V125.704H223.372V127.336H226.092V99.592H209.708ZM231.82 110.344C232.268 110.12 232.972 109.928 235.948 109.608C234.956 111.176 234.028 112.36 233.58 112.904C232.652 114.088 231.948 114.888 231.276 115.048C231.5 115.656 231.884 116.776 232.044 117.384V117.608C232.652 117.256 233.676 117.032 240.556 115.912C240.652 116.328 240.716 116.68 240.78 117L242.892 116.136C242.572 114.568 241.676 112.04 240.748 110.12L238.796 110.824C239.212 111.752 239.596 112.808 239.948 113.832L235.116 114.504C237.612 111.528 240.076 107.816 241.996 104.136L239.756 102.728C239.084 104.232 238.252 105.768 237.452 107.208L234.54 107.432C236.204 105.096 237.836 102.088 239.084 99.24L236.652 98.184C235.468 101.608 233.388 105.192 232.716 106.12C232.108 107.048 231.532 107.688 231.02 107.848C231.308 108.456 231.628 109.608 231.82 110.184V110.344ZM232.3 118.728C232.076 121.288 231.66 124.136 230.924 126.024C231.5 126.184 232.556 126.568 233.1 126.856C233.708 124.872 234.252 121.896 234.572 119.144L232.3 118.728ZM235.724 119.048C236.076 121.192 236.396 123.976 236.46 125.8L238.636 125.256C238.508 123.432 238.156 120.712 237.772 118.568L235.724 119.048ZM247.884 104.328C248.076 103.656 248.268 102.92 248.492 102.184H254.732C254.604 102.824 254.444 103.592 254.316 104.328H247.884ZM258.284 111.656C256.78 112.776 254.476 114.152 252.46 115.176C251.852 114.184 251.02 113.192 250.06 112.328C250.828 111.72 251.532 111.112 252.172 110.44H260.62V108.072H256.204C256.748 105.544 257.324 102.664 257.708 100.264L255.756 99.944L255.276 100.072H249.004C249.164 99.464 249.292 98.92 249.388 98.376L246.668 98.056C246.156 100.744 245.324 104.232 244.652 106.44H253.9L253.58 108.072H242.796V110.44H248.908C247.084 111.848 244.748 113.032 242.54 113.864C243.02 114.344 243.788 115.368 244.108 115.88C245.452 115.272 246.86 114.504 248.172 113.64C248.588 114.024 248.972 114.44 249.292 114.824C247.628 116.264 244.908 117.736 242.828 118.408C243.34 118.92 244.012 119.816 244.364 120.424C246.284 119.528 248.684 118.024 250.444 116.584C250.732 117.128 250.924 117.672 251.084 118.152C249.196 120.264 245.804 122.408 242.86 123.56C242.508 121.928 241.74 119.56 241.068 117.736L239.148 118.344C239.852 120.296 240.588 122.824 240.876 124.52L242.284 124.008C242.86 124.52 243.404 125.288 243.724 125.832C246.348 124.712 249.388 122.76 251.628 120.744C251.788 122.504 251.404 123.944 250.86 124.488C250.444 125.032 249.932 125.128 249.292 125.128C248.684 125.128 248.044 125.064 247.212 124.968C247.692 125.736 247.852 126.792 247.852 127.464C248.556 127.496 249.26 127.528 249.836 127.528C251.052 127.496 251.82 127.304 252.62 126.536C254.284 125.192 254.988 121.096 253.484 117.192C253.964 116.968 254.476 116.712 255.02 116.424C255.692 120.296 256.876 123.752 258.988 125.672C259.404 124.968 260.204 123.976 260.844 123.496C258.86 121.928 257.708 118.76 257.1 115.368C258.22 114.728 259.276 114.12 260.204 113.48L258.284 111.656ZM143.884 156.424C143.564 154.76 142.668 152.04 141.772 149.96L139.34 150.568C139.66 151.432 140.012 152.392 140.3 153.352L135.564 153.992C138.252 151.272 140.908 147.912 143.116 144.52L140.46 142.856C139.66 144.296 138.764 145.672 137.836 146.984L134.636 147.24C136.524 144.936 138.476 142.088 140.012 139.304L137.164 138.088C135.66 141.448 133.228 144.936 132.428 145.864C131.66 146.792 131.052 147.4 130.412 147.56C130.764 148.328 131.244 149.704 131.404 150.312C131.852 150.088 132.62 149.896 135.948 149.512C134.764 151.016 133.74 152.136 133.228 152.648C132.108 153.8 131.34 154.536 130.54 154.696C130.892 155.496 131.372 156.968 131.532 157.544C132.236 157.16 133.388 156.936 141.004 155.656C141.132 156.232 141.228 156.776 141.292 157.192L143.884 156.424ZM132.46 158.728C132.012 161.256 131.308 164.104 130.412 165.992C131.148 166.216 132.396 166.632 133.036 166.92C133.804 165 134.668 161.992 135.116 159.272L132.46 158.728ZM136.268 159.112C136.684 161.192 137.1 163.944 137.164 165.768L139.724 165.096C139.564 163.304 139.116 160.584 138.668 158.504L136.268 159.112ZM139.852 158.28C140.46 159.752 141.164 161.704 141.42 162.952L143.82 162.056C143.5 160.808 142.828 158.92 142.156 157.448L139.852 158.28ZM153.036 162.952V143.432H159.276V140.52H143.884V143.432H149.964V162.952H142.668V165.864H159.82V162.952H153.036ZM192.908 147.656C192.62 146.664 191.756 145.192 191.02 144.104L189.42 144.648C189.612 145 189.868 145.416 190.092 145.832L186.892 146.12C188.588 144.808 190.348 143.176 192.012 141.416L190.092 140.552C189.644 141.096 189.196 141.608 188.684 142.12L186.028 142.312C186.988 141.416 188.012 140.264 188.844 139.048L186.892 138.344C185.996 139.88 184.492 141.416 184.044 141.768C183.628 142.184 183.212 142.376 182.796 142.472C183.052 142.984 183.34 143.912 183.468 144.328C183.82 144.168 184.396 144.072 186.892 143.848C186.028 144.616 185.26 145.224 184.908 145.48C184.172 145.992 183.532 146.344 182.956 146.44C183.212 146.952 183.5 147.88 183.596 148.328C184.044 148.072 184.972 147.912 190.86 147.24C191.02 147.624 191.18 147.976 191.244 148.296L192.908 147.656ZM192.78 151.464C192.588 150.632 192.044 149.256 191.5 148.232L189.932 148.68C190.412 149.704 190.956 151.08 191.148 152.008L192.78 151.464ZM189.26 152.072C189.196 151.144 188.908 149.768 188.492 148.744L186.764 149C187.116 150.056 187.404 151.496 187.436 152.392L189.26 152.072ZM183.916 148.68C183.788 149.768 183.532 150.952 183.052 151.912C183.5 152.104 184.332 152.52 184.716 152.776C185.196 151.848 185.58 150.376 185.804 149.096L183.916 148.68ZM183.084 140.488H179.724C179.436 139.784 178.956 138.92 178.54 138.248L176.652 138.824C176.972 139.336 177.292 139.912 177.484 140.488H173.74V142.152H183.084V140.488ZM182.156 143.048H174.732V144.456H182.156V143.048ZM174.732 146.792H182.156V145.384H174.732V146.792ZM174.252 147.464C173.932 146.568 173.196 145.16 172.492 144.136L170.924 144.616C171.148 144.968 171.372 145.352 171.564 145.768L168.46 146.056C170.092 144.808 171.788 143.24 173.324 141.544L171.34 140.776C170.988 141.224 170.572 141.64 170.188 142.056L167.724 142.216C168.684 141.32 169.708 140.136 170.572 138.92L168.524 138.248C167.66 139.784 166.156 141.288 165.708 141.64C165.26 141.992 164.908 142.216 164.492 142.28C164.716 142.824 165.004 143.752 165.132 144.232C165.452 144.072 166.06 143.944 168.46 143.72C167.596 144.52 166.828 145.128 166.476 145.384C165.772 145.928 165.164 146.248 164.652 146.312C164.876 146.824 165.132 147.784 165.26 148.232C165.772 147.976 166.604 147.816 172.268 147.176C172.396 147.528 172.524 147.816 172.62 148.072L174.252 147.464ZM173.996 151.016C173.772 150.248 173.26 149.032 172.78 148.104L171.212 148.552C171.692 149.48 172.172 150.728 172.332 151.56L173.996 151.016ZM170.7 152.008C170.604 151.112 170.252 149.672 169.868 148.584L168.14 148.936C168.492 150.056 168.812 151.496 168.844 152.424L170.7 152.008ZM165.42 148.616C165.196 149.896 164.876 151.272 164.3 152.36C164.78 152.584 165.58 153.032 165.932 153.288C166.476 152.168 166.988 150.504 167.276 149.032L165.42 148.616ZM167.308 167.56C168.364 166.632 169.356 165.32 170.028 164.168L167.884 163.112C167.276 164.2 166.188 165.544 165.068 166.312L167.308 167.56ZM171.916 164.232C172.46 165.256 172.972 166.6 173.068 167.496L175.468 166.728C175.308 165.896 174.732 164.552 174.188 163.592L171.916 164.232ZM176.972 164.296C177.612 165.16 178.316 166.376 178.572 167.176L180.652 166.216C180.396 165.48 179.66 164.328 178.988 163.496L176.972 164.296ZM185.996 154.312V155.24H171.66V154.312H185.996ZM171.66 157.448V156.52H185.996V157.448H171.66ZM185.708 165.256C185.356 164.712 184.684 163.976 184.012 163.368H188.14C187.884 164.744 187.596 165.448 187.244 165.736C187.02 165.928 186.796 165.96 186.348 165.96C186.028 165.96 185.356 165.96 184.588 165.928L185.708 165.256ZM176.492 149.128H180.236V150.312H176.492V149.128ZM171.66 158.792H188.812V152.968H179.148C179.372 152.68 179.596 152.36 179.788 152.04L177.932 151.688H182.188V147.72H174.604V151.688H176.652C176.492 152.072 176.3 152.52 176.108 152.968H168.876V163.368H183.148L181.868 164.04C182.54 164.648 183.244 165.448 183.692 166.088C183.884 166.568 184.044 167.08 184.076 167.464C185.548 167.56 186.924 167.592 187.66 167.56C188.364 167.528 189.068 167.4 189.612 166.984C190.252 166.44 190.7 165.32 191.116 162.888C191.18 162.568 191.18 161.992 191.18 161.992H171.66V161.128H192.876V159.688H171.66V158.792ZM204.556 146.184H219.916V148.552H204.556V146.184ZM204.556 141.704H219.916V143.976H204.556V141.704ZM213.9 164.136V161.192H222.828V158.856H213.9V156.328H224.204V153.832H213.9V151.528H210.828V153.832H205.228C205.644 153.096 206.092 152.36 206.444 151.624L203.948 150.888H222.988V139.368H201.644V150.888H203.468C202.252 153.544 200.14 156.136 197.868 157.832C198.604 158.216 199.82 159.144 200.396 159.656C201.42 158.76 202.476 157.608 203.5 156.328H210.828V158.856H202.252V161.192H210.828V164.136H198.444V166.696H226.22V164.136H213.9ZM240.652 160.904H246.668V158.728H240.652V157.096H246.604V147.464H240.652V145.8H246.988V148.2H250.38C250.124 154.024 249.324 158.856 246.7 162.472C244.684 162.696 242.636 162.888 240.652 163.08V160.904ZM234.636 155.144V153.192H237.932V155.144H234.636ZM244.076 153.192V155.144H240.652V153.192H244.076ZM240.652 151.368V149.416H244.076V151.368H240.652ZM234.636 149.416H237.932V151.368H234.636V149.416ZM253.292 145.448C253.324 143.272 253.356 140.968 253.356 138.6H250.508C250.508 141 250.508 143.272 250.476 145.448H247.116V143.592H240.652V141.544C242.86 141.32 244.972 141 246.668 140.648L245.26 138.408C241.932 139.144 236.268 139.72 231.532 139.976C231.82 140.552 232.14 141.512 232.236 142.12C234.028 142.056 235.98 141.96 237.932 141.8V143.592H231.34V145.8H237.932V147.464H232.204V157.096H237.932V158.728H232.108V160.904H237.932V163.336C235.404 163.56 233.1 163.752 231.244 163.88L231.628 166.408C235.052 166.088 239.66 165.608 244.268 165.064C244.076 165.224 243.884 165.384 243.692 165.512C244.396 165.992 245.388 167.048 245.836 167.72C251.34 163.496 252.78 156.712 253.196 148.2H256.972C256.716 159.208 256.396 163.272 255.692 164.168C255.372 164.584 255.084 164.68 254.54 164.68C253.964 164.68 252.652 164.68 251.18 164.552C251.628 165.352 251.948 166.568 252.012 167.368C253.516 167.464 254.988 167.464 255.948 167.336C256.94 167.176 257.612 166.92 258.22 165.96C259.244 164.584 259.532 160.04 259.884 146.824C259.884 146.472 259.916 145.448 259.916 145.448H253.292Z" fill="white"/>
<rect x="149" y="32" width="92.5" height="26" fill="#FDBF52"/>
<path d="M166.268 38.078C164.522 38.636 161.588 39.032 159.122 39.212C159.23 39.554 159.374 40.058 159.41 40.436C161.93 40.292 164.936 39.914 166.934 39.302L166.268 38.078ZM165.854 42.722C166.25 42.11 166.7 41.21 167.132 40.328L165.98 39.878C165.728 40.634 165.242 41.66 164.846 42.326L165.854 42.722ZM161.3 42.398C161.174 41.858 160.868 41.084 160.526 40.508L159.41 40.958C159.716 41.552 160.04 42.38 160.13 42.938L161.3 42.398ZM162.452 48.014C162.434 48.464 162.398 48.896 162.344 49.274H159.068V50.534H162.056C161.642 51.83 160.742 52.676 158.78 53.234C159.086 53.504 159.482 54.062 159.626 54.422C161.372 53.882 162.398 53.09 163.01 52.01C164.162 52.73 165.404 53.648 166.034 54.296L167.006 53.27C166.25 52.532 164.738 51.56 163.514 50.84L163.568 50.534H167.06V49.274H163.802C163.856 48.878 163.892 48.446 163.91 48.014H162.452ZM164.558 45.602C164.774 45.89 164.972 46.214 165.17 46.556L162.038 46.808C163.352 45.962 164.684 44.936 165.944 43.73L164.9 42.938C164.414 43.442 163.874 43.946 163.352 44.396L161.462 44.432C162.074 43.946 162.704 43.334 163.262 42.722L162.92 42.488L164.036 42.002C163.928 41.48 163.622 40.706 163.334 40.13L162.2 40.562C162.47 41.156 162.758 41.912 162.848 42.434L162.2 41.984C161.534 42.938 160.544 43.784 160.238 44.018C159.95 44.234 159.698 44.396 159.446 44.45C159.572 44.81 159.752 45.512 159.806 45.8C160.04 45.71 160.364 45.638 161.912 45.566C161.372 45.944 160.94 46.25 160.688 46.394C160.112 46.772 159.68 47.006 159.284 47.078C159.392 47.438 159.572 48.158 159.626 48.428C160.04 48.212 160.652 48.158 165.746 47.636C165.908 47.96 166.034 48.266 166.124 48.518L167.348 47.996C167.06 47.186 166.394 45.998 165.71 45.116L164.558 45.602ZM169.508 49.958H171.416V52.082H169.508V49.958ZM171.416 44.99H169.508V42.974H171.416V44.99ZM171.416 48.536H169.508V46.412H171.416V48.536ZM175.376 52.082H172.91V49.958H174.908V48.536H172.91V46.412H174.908V44.99H172.91V42.974H175.16V41.462H172.91L173.756 41.156C173.486 40.418 172.946 39.266 172.46 38.402L171.056 38.834C171.506 39.626 171.974 40.724 172.244 41.462H169.58C169.994 40.436 170.318 39.356 170.606 38.276L169.04 37.898C168.428 40.418 167.402 42.92 166.07 44.504C166.412 44.81 166.988 45.494 167.222 45.818C167.492 45.476 167.744 45.116 167.996 44.702V54.404H169.508V53.594H175.376V52.082ZM191.216 40.85H185.726V39.698H191.216V40.85ZM191.216 43.154H185.726V41.984H191.216V43.154ZM192.872 38.474H184.142V44.378H192.872V38.474ZM182.684 39.842C182.036 39.212 180.668 38.456 179.606 38.006L178.67 39.248C179.732 39.752 181.082 40.598 181.694 41.21L182.684 39.842ZM181.766 44.504C181.1 43.928 179.732 43.208 178.67 42.794L177.734 44.054C178.832 44.522 180.164 45.314 180.794 45.908L181.766 44.504ZM180.974 47.456C180.092 49.508 178.904 51.812 178.076 53.198L179.57 54.188C180.47 52.496 181.496 50.354 182.27 48.464L180.974 47.456ZM194.312 46.682V45.314H182.522V46.682H184.826C184.052 47.96 182.918 49.148 181.73 49.94C182.072 50.192 182.648 50.678 182.9 50.948C183.566 50.444 184.25 49.796 184.862 49.076H186.302C185.402 50.606 184.052 51.992 182.63 52.91C182.954 53.162 183.53 53.684 183.782 53.954C185.366 52.784 186.932 51.02 187.976 49.076H189.416C188.732 50.876 187.616 52.46 186.248 53.504C186.59 53.702 187.202 54.17 187.454 54.422C188.912 53.162 190.19 51.254 190.982 49.076H192.134C191.954 51.524 191.738 52.496 191.468 52.784C191.324 52.964 191.18 53 190.946 52.982C190.712 52.982 190.172 52.982 189.578 52.928C189.812 53.306 189.956 53.936 189.992 54.368C190.694 54.404 191.378 54.404 191.756 54.35C192.188 54.296 192.512 54.17 192.8 53.828C193.286 53.288 193.538 51.884 193.772 48.41C193.79 48.194 193.808 47.762 193.808 47.762H185.87C186.104 47.402 186.32 47.042 186.518 46.682H194.312ZM204.104 38.15V52.208C204.104 52.568 203.978 52.676 203.6 52.694C203.222 52.712 201.908 52.712 200.684 52.658C200.954 53.144 201.242 53.936 201.35 54.404C203.06 54.422 204.212 54.368 204.932 54.098C205.634 53.81 205.922 53.324 205.922 52.208V38.15H204.104ZM208.406 42.74C209.864 45.332 211.286 48.68 211.664 50.804L213.482 50.084C213.032 47.906 211.556 44.63 210.026 42.128L208.406 42.74ZM199.442 42.272C199.028 44.648 198.074 47.744 196.562 49.616C197.012 49.778 197.75 50.192 198.164 50.498C199.73 48.5 200.738 45.242 201.332 42.614L199.442 42.272ZM231.14 50.156C229.754 49.49 227.036 48.392 225.218 47.708L224.354 49.004C226.226 49.778 228.908 50.948 230.204 51.668L231.14 50.156ZM231.896 45.998V44.342H224.3V41.858H230.15V40.256H224.3V37.916H222.536V44.342H215.858V45.998H222.59V54.404H224.354V45.998H231.896Z" fill="#573605"/>
<path d="M180.069 289.533C179.897 291.09 179.557 292.903 178.734 294.674C178.323 294.204 177.913 293.735 177.515 293.321C177.885 292.196 178.271 290.875 178.627 289.497L180.069 289.533ZM181.776 286.954L180.324 286.827L180.213 288.1L178.969 288.063C179.26 286.806 179.532 285.547 179.74 284.409L178.206 284.184C178.031 285.361 177.752 286.692 177.438 288.002C176.881 287.971 176.359 287.943 175.874 287.919L175.903 289.439L177.093 289.471C176.685 291.043 176.21 292.538 175.823 293.66C176.481 294.404 177.219 295.264 177.904 296.101C177.172 297.248 176.173 298.335 174.828 299.247C175.149 299.51 175.626 300.039 175.846 300.42C177.137 299.503 178.113 298.468 178.895 297.38C179.431 298.06 179.864 298.694 180.179 299.227L181.382 298.068C181.018 297.476 180.452 296.721 179.801 295.906C180.892 293.76 181.326 291.486 181.547 289.572L182.269 289.581L182.393 288.164L181.673 288.137L181.776 286.954ZM183.323 298.599L183.441 297.254C183.743 297.515 184.121 297.946 184.297 298.214C185.585 297.116 186.407 295.779 186.906 294.413C187.543 295.806 188.103 297.246 188.362 298.209L189.55 297.644C189.173 296.382 188.248 294.35 187.42 292.669C187.474 292.457 187.514 292.208 187.553 291.976L189.776 292.171L189.895 290.808L187.744 290.62L187.784 290.153L187.99 287.804L186.681 287.69L186.478 290.003L186.435 290.505L184.39 290.326L184.271 291.689L186.244 291.862C185.904 293.675 185.213 295.584 183.453 297.111L184.341 286.961L190.528 287.503L189.51 299.14L183.323 298.599ZM183.003 285.326L181.63 301.016L183.101 301.145L183.193 300.087L189.379 300.628L189.299 301.543L190.824 301.676L192.184 286.13L183.003 285.326Z" fill="#927858"/>
<path d="M198.641 292.169C198.881 292.021 199.266 291.879 200.918 291.554C200.439 292.481 199.977 293.19 199.752 293.517C199.29 294.226 198.935 294.709 198.567 294.831C198.722 295.161 198.992 295.77 199.111 296.103L199.122 296.228C199.446 296.001 200.009 295.825 203.809 294.861C203.883 295.089 203.936 295.283 203.988 295.459L205.129 294.872C204.873 294.009 204.247 292.636 203.633 291.606L202.573 292.096C202.852 292.595 203.119 293.168 203.366 293.725L200.692 294.338C201.944 292.548 203.143 290.347 204.039 288.191L202.714 287.512C202.412 288.388 202.021 289.289 201.643 290.135L200.022 290.404C200.84 289.013 201.607 287.247 202.167 285.59L200.752 285.118C200.257 287.095 199.267 289.205 198.936 289.758C198.641 290.308 198.349 290.695 198.07 290.809C198.261 291.136 198.497 291.766 198.633 292.079L198.641 292.169ZM199.321 296.843C199.321 298.289 199.227 299.905 198.907 300.999C199.238 301.061 199.849 301.224 200.167 301.359C200.411 300.217 200.57 298.523 200.614 296.965L199.321 296.843ZM201.255 296.855C201.557 298.039 201.873 299.583 201.999 300.602L203.191 300.191C203.03 299.175 202.699 297.668 202.379 296.485L201.255 296.855ZM207.347 288.01C207.422 287.624 207.494 287.202 207.583 286.779L211.08 286.473C211.039 286.838 210.987 287.276 210.952 287.695L207.347 288.01ZM213.534 291.607C212.747 292.308 211.523 293.192 210.443 293.865C210.054 293.338 209.539 292.823 208.959 292.386C209.36 292.008 209.724 291.633 210.05 291.225L214.784 290.811L214.668 289.484L212.193 289.7C212.374 288.257 212.556 286.615 212.653 285.251L211.544 285.168L211.281 285.263L207.766 285.57C207.826 285.222 207.871 284.911 207.898 284.601L206.359 284.555C206.203 286.086 205.908 288.082 205.64 289.352L210.822 288.899L210.723 289.829L204.68 290.358L204.796 291.684L208.221 291.385C207.268 292.263 206.017 293.041 204.82 293.616C205.113 293.861 205.593 294.397 205.798 294.668C206.521 294.262 207.272 293.762 207.965 293.214C208.217 293.409 208.453 293.623 208.651 293.823C207.789 294.711 206.337 295.669 205.205 296.148C205.517 296.41 205.937 296.879 206.164 297.202C207.196 296.606 208.467 295.646 209.383 294.752C209.571 295.043 209.705 295.338 209.818 295.6C208.864 296.876 207.068 298.243 205.475 299.033C205.198 298.136 204.651 296.847 204.185 295.858L203.139 296.292C203.629 297.352 204.166 298.732 204.41 299.668L205.174 299.312C205.522 299.571 205.865 299.975 206.071 300.264C207.486 299.508 209.094 298.265 210.25 297.025C210.426 298.004 210.282 298.83 210.003 299.161C209.797 299.486 209.515 299.565 209.156 299.597C208.815 299.626 208.454 299.622 207.983 299.609C208.289 300.016 208.431 300.6 208.464 300.976C208.86 300.96 209.256 300.943 209.579 300.915C210.258 300.837 210.679 300.692 211.09 300.222C211.957 299.388 212.15 297.058 211.116 294.944C211.374 294.795 211.648 294.626 211.939 294.438C212.506 296.575 213.338 298.454 214.616 299.426C214.815 299.011 215.214 298.416 215.549 298.116C214.361 297.334 213.56 295.616 213.053 293.745C213.649 293.331 214.211 292.939 214.7 292.535L213.534 291.607Z" fill="#927858"/>
</g>
<defs>
<filter id="filter0_i_114_12847" x="-4" y="1" width="400" height="203" filterUnits="userSpaceOnUse" color-interpolation-filters="sRGB">
<feFlood flood-opacity="0" result="BackgroundImageFix"/>
<feBlend mode="normal" in="SourceGraphic" in2="BackgroundImageFix" result="shape"/>
<feColorMatrix in="SourceAlpha" type="matrix" values="0 0 0 0 0 0 0 0 0 0 0 0 0 0 0 0 0 0 127 0" result="hardAlpha"/>
<feOffset dy="4"/>
<feGaussianBlur stdDeviation="2"/>
<feComposite in2="hardAlpha" operator="arithmetic" k2="-1" k3="1"/>
<feColorMatrix type="matrix" values="0 0 0 0 0 0 0 0 0 0 0 0 0 0 0 0 0 0 0.35 0"/>
<feBlend mode="normal" in2="shape" result="effect1_innerShadow_114_12847"/>
</filter>
<filter id="filter1_i_114_12847" x="-4" y="198" width="400" height="202" filterUnits="userSpaceOnUse" color-interpolation-filters="sRGB">
<feFlood flood-opacity="0" result="BackgroundImageFix"/>
<feBlend mode="normal" in="SourceGraphic" in2="BackgroundImageFix" result="shape"/>
<feColorMatrix in="SourceAlpha" type="matrix" values="0 0 0 0 0 0 0 0 0 0 0 0 0 0 0 0 0 0 127 0" result="hardAlpha"/>
<feOffset dy="-2"/>
<feGaussianBlur stdDeviation="2"/>
<feComposite in2="hardAlpha" operator="arithmetic" k2="-1" k3="1"/>
<feColorMatrix type="matrix" values="0 0 0 0 0 0 0 0 0 0 0 0 0 0 0 0 0 0 0.25 0"/>
<feBlend mode="normal" in2="shape" result="effect1_innerShadow_114_12847"/>
</filter>
<filter id="filter2_di_114_12847" x="-12" y="200" width="416" height="158" filterUnits="userSpaceOnUse" color-interpolation-filters="sRGB">
<feFlood flood-opacity="0" result="BackgroundImageFix"/>
<feColorMatrix in="SourceAlpha" type="matrix" values="0 0 0 0 0 0 0 0 0 0 0 0 0 0 0 0 0 0 127 0" result="hardAlpha"/>
<feOffset dy="10"/>
<feGaussianBlur stdDeviation="4"/>
<feComposite in2="hardAlpha" operator="out"/>
<feColorMatrix type="matrix" values="0 0 0 0 0 0 0 0 0 0 0 0 0 0 0 0 0 0 0.25 0"/>
<feBlend mode="normal" in2="BackgroundImageFix" result="effect1_dropShadow_114_12847"/>
<feBlend mode="normal" in="SourceGraphic" in2="effect1_dropShadow_114_12847" result="shape"/>
<feColorMatrix in="SourceAlpha" type="matrix" values="0 0 0 0 0 0 0 0 0 0 0 0 0 0 0 0 0 0 127 0" result="hardAlpha"/>
<feOffset dy="3"/>
<feGaussianBlur stdDeviation="4"/>
<feComposite in2="hardAlpha" operator="arithmetic" k2="-1" k3="1"/>
<feColorMatrix type="matrix" values="0 0 0 0 0 0 0 0 0 0 0 0 0 0 0 0 0 0 0.25 0"/>
<feBlend mode="normal" in2="shape" result="effect2_innerShadow_114_12847"/>
</filter>
<clipPath id="clip0_114_12847">
<rect width="400" height="400" fill="white"/>
</clipPath>
</defs>
</svg>
