<svg width="425" height="425" viewBox="0 0 425 425" fill="none" xmlns="http://www.w3.org/2000/svg">
<g filter="url(#filter0_i_114_12817)">
<path d="M412 213C412 160.222 390.929 109.605 353.421 72.2858C315.914 34.966 265.043 14 212 14C158.957 14 108.086 34.966 70.5787 72.2857C33.0714 109.605 12 160.222 12 213L412 213Z" fill="#FDBF52"/>
</g>
<path d="M372 214C372 171.565 355.143 130.869 325.137 100.863C295.131 70.8571 254.435 54 212 54C169.565 54 128.869 70.8571 98.8629 100.863C68.8571 130.869 52 171.565 52 214" stroke="#FCDBA3" stroke-width="3"/>
<path d="M12 213C12 266.043 33.0714 316.914 70.5786 354.421C108.086 391.929 158.957 413 212 413C265.043 413 315.914 391.929 353.421 354.421C390.929 316.914 412 266.043 412 213L212 213L12 213Z" fill="#FDBF52"/>
<path d="M12 213C12 266.043 33.0714 316.914 70.5786 354.421C108.086 391.929 158.957 413 212 413C265.043 413 315.914 391.929 353.421 354.421C390.929 316.914 412 266.043 412 213L212 213L12 213Z" fill="black" fill-opacity="0.2"/>
<g filter="url(#filter1_di_114_12817)">
<path d="M12 213C12 250.13 33.0714 285.74 70.5786 311.995C108.086 338.25 158.957 353 212 353C265.043 353 315.914 338.25 353.421 311.995C390.929 285.74 412 250.13 412 213L212 213L12 213Z" fill="#FCDBA3"/>
</g>
<path d="M52 213C52 242.704 68.8571 271.192 98.8629 292.196C128.869 313.2 169.565 325 212 325C254.435 325 295.131 313.2 325.137 292.196C355.143 271.192 372 242.704 372 213" stroke="#FDBF52" stroke-width="3"/>
<path d="M160.3 121.264V125.04C160.3 125.424 160.172 125.52 159.692 125.552C159.276 125.584 157.644 125.616 156.044 125.52C156.396 126.192 156.78 127.056 156.94 127.792C159.212 127.792 160.78 127.792 161.9 127.44C162.988 127.12 163.308 126.576 163.308 125.168V121.264H170.412C169.42 122.64 168.268 123.984 167.244 124.912L169.9 125.936C171.628 124.336 173.484 121.872 175.052 119.504L172.78 118.736L172.204 118.896H166.572L166.764 118.672C166.092 118.384 165.356 118.064 164.492 117.808C167.084 116.688 169.58 115.248 171.468 113.712L169.548 112.208L168.908 112.368H150.348V114.736H165.516C164.172 115.504 162.668 116.176 161.228 116.752C159.532 116.24 157.74 115.792 156.14 115.536L154.444 117.232C156.492 117.616 158.796 118.192 160.908 118.896H147.596V121.264H156.364C153.74 123.216 150.188 124.88 146.988 125.84C147.628 126.416 148.46 127.44 148.844 128.144C152.812 126.768 157.164 124.208 160.012 121.264H160.3ZM156.204 132.752C154.092 134.928 150.06 136.976 146.38 137.904C147.02 138.512 147.916 139.6 148.364 140.336C152.108 139.12 156.3 136.592 158.636 133.808L156.204 132.752ZM175.212 132.08V129.488H162.636V127.952H159.628V129.488H147.052V132.08H159.628V140.528H162.636V132.08H175.212ZM163.5 134.032C166.956 135.856 171.276 138.576 173.42 140.368L175.788 138.736C173.484 136.912 169.068 134.32 165.708 132.624L163.5 134.032ZM182.092 126.352C182.828 123.984 183.404 120.272 183.596 117.648L181.26 117.36C181.036 119.92 180.46 123.408 179.692 125.584L182.092 126.352ZM191.116 120.368C190.732 119.152 189.836 117.072 189.036 115.536L187.276 116.336V111.088H184.524V140.464H187.276V116.912C187.98 118.448 188.684 120.272 189.036 121.456L191.116 120.368ZM194.412 133.52C194.476 132.848 194.508 132.144 194.54 131.536H204.588V133.52H194.412ZM204.588 127.248V129.328H194.54V127.248H204.588ZM207.372 125.104H191.724V130.896C191.724 133.36 191.564 136.528 189.772 138.8C190.38 139.184 191.532 140.272 191.916 140.848C193.1 139.376 193.772 137.52 194.124 135.664H204.588V137.456C204.588 137.84 204.428 137.968 203.98 138C203.596 138 202.028 138.032 200.556 137.968C200.94 138.64 201.292 139.76 201.42 140.496C203.66 140.496 205.132 140.464 206.124 140.016C207.116 139.664 207.372 138.896 207.372 137.488V125.104ZM200.876 121.328V119.472H207.34V117.392H200.876V115.728H208.236V113.52H200.876V111.152H197.932V113.52H190.604V115.728H197.932V117.392H191.564V119.472H197.932V121.328H189.836V123.536H209.26V121.328H200.876ZM235.532 122.608C234.956 120.592 233.292 117.52 231.724 115.184L229.196 116.24C230.7 118.64 232.268 121.808 232.876 123.824L235.532 122.608ZM220.492 111.28C218.764 115.952 215.916 120.624 212.908 123.6C213.388 124.304 214.252 125.904 214.54 126.608C215.468 125.616 216.396 124.496 217.292 123.28V140.464H220.108V118.864C221.324 116.688 222.412 114.384 223.276 112.112L220.492 111.28ZM232.46 128.592C230.796 129.2 229.1 129.84 227.468 130.416L227.276 112.944L224.364 112.976L224.556 131.44C223.34 131.856 222.22 132.24 221.26 132.528L222.508 135.44C225.548 134.288 229.388 132.688 233.036 131.184L232.46 128.592ZM243.532 138.416C242.412 136.56 240.108 133.744 238.124 131.408C240.492 126.832 241.356 120.752 241.676 112.56L238.668 112.464C238.22 127.152 236.044 134.576 224.78 138.16C225.42 138.768 226.38 140.112 226.7 140.752C231.148 139.088 234.284 136.912 236.524 133.968C238.284 136.24 240.236 138.832 241.196 140.56L243.532 138.416ZM257.068 118.992L256.524 119.12H248.14V122.128H255.436C253.964 128.08 250.956 132.688 247.084 135.248C247.82 135.728 248.972 136.88 249.484 137.584C253.964 134.32 257.548 128.176 259.052 119.76L257.068 118.992ZM271.724 116.912C270.22 119.024 267.852 121.648 265.804 123.6C264.908 122.064 264.172 120.464 263.564 118.832V111.184H260.428V136.624C260.428 137.168 260.204 137.328 259.692 137.328C259.148 137.36 257.484 137.36 255.692 137.264C256.172 138.16 256.652 139.696 256.812 140.592C259.308 140.592 261.004 140.464 262.092 139.92C263.18 139.408 263.564 138.448 263.564 136.624V124.944C266.284 130.352 270.06 134.864 274.828 137.392C275.308 136.496 276.332 135.28 277.036 134.672C273.164 132.88 269.772 129.712 267.212 125.904C269.452 124.016 272.236 121.264 274.444 118.864L271.724 116.912ZM163.852 161.872H155.66V164.688H175.18V161.872H166.86V157.84H173.74V155.056H166.86V151.152H163.852V155.056H157.164V157.84H163.852V161.872ZM153.42 151.28C151.82 155.952 149.164 160.624 146.284 163.632C146.796 164.304 147.628 165.904 147.884 166.608C148.716 165.712 149.484 164.752 150.252 163.696V180.496H153.196V158.864C154.348 156.72 155.404 154.384 156.204 152.144L153.42 151.28ZM166.86 176.528V171.856H174.316V169.04H166.86V165.776H163.852V169.04H156.556V171.856H163.852V176.528H154.668V179.408H175.756V176.528H166.86ZM185.676 167.504H190.668V170.256H185.676V167.504ZM190.668 157.776V160.176H185.676V157.776H190.668ZM185.676 162.512H190.668V165.168H185.676V162.512ZM195.596 170.256H193.42V157.776H195.724V155.184H193.42V151.504H190.668V155.184H185.676V151.504H182.988V155.184H180.396V157.776H182.988V170.256H180.012V172.848H195.596V170.256ZM184.204 173.36C183.276 175.376 181.644 177.424 179.916 178.8C180.62 179.216 181.772 180.048 182.284 180.56C184.012 178.992 185.868 176.528 187.02 174.128L184.204 173.36ZM188.812 174.512C190.028 176.016 191.5 178.096 192.14 179.376L194.54 177.936C193.868 176.656 192.332 174.704 191.084 173.264L188.812 174.512ZM199.788 167.184C199.852 166.16 199.852 165.136 199.852 164.208V162.512H205.484V167.184H199.788ZM205.484 155.376V159.888H199.852V155.376H205.484ZM208.364 152.688H197.036V164.208C197.036 168.784 196.812 174.768 194.284 178.928C194.924 179.248 196.172 180.112 196.652 180.656C198.476 177.744 199.244 173.68 199.596 169.872H205.484V176.976C205.484 177.488 205.292 177.616 204.812 177.648C204.396 177.648 202.796 177.68 201.292 177.616C201.676 178.352 202.06 179.664 202.156 180.432C204.524 180.464 206.06 180.4 207.02 179.888C208.012 179.44 208.364 178.576 208.364 177.008V152.688ZM221.644 170.608C220.396 169.584 219.148 168.56 217.964 167.664C218.572 165.392 219.148 162.672 219.692 159.92C221.164 159.824 222.668 159.728 224.236 159.632C224.204 162.8 223.82 166.768 221.644 170.608ZM227.148 155.248H224.236V156.784L220.236 157.008C220.524 155.088 220.812 153.232 221.004 151.472L217.868 151.312C217.708 153.136 217.452 155.12 217.132 157.168L213.42 157.328L213.74 160.272L216.62 160.112C215.98 163.248 215.308 166.256 214.604 168.496C216.268 169.808 218.156 171.408 219.98 173.008C218.444 174.928 216.3 176.688 213.452 178.224C214.124 178.736 215.116 179.792 215.596 180.496C218.444 178.896 220.588 177.04 222.22 175.088C223.628 176.432 224.876 177.68 225.74 178.736L227.916 176.464C226.956 175.344 225.548 174 223.98 172.624C226.7 168.112 227.116 163.248 227.148 159.44L228.396 159.344L228.428 156.56L227.148 156.624V155.248ZM232.204 174.512V157.328H238.348V174.512H232.204ZM229.42 154.512V179.696H232.204V177.328H238.348V179.248H241.292V154.512H229.42ZM256.78 157.04H259.692V151.152H256.78V153.04H247.852V155.568H256.78V157.04ZM253.356 159.728H257.388V162.48H253.356V159.728ZM259.884 159.728H264.076V162.48H259.884V159.728ZM266.572 159.728H270.796V162.48H266.572V159.728ZM250.7 164.496H273.58V157.712H250.7V164.496ZM266.732 171.888C265.452 173.104 263.756 174.128 261.804 174.96C260.844 174.032 259.244 172.848 257.772 172.016L257.964 171.888H266.732ZM248.108 171.28H250.892V168.176H258.764C257.388 169.648 254.828 171.056 251.212 172.016C251.756 172.464 252.62 173.424 252.972 174.096C253.868 173.776 254.732 173.456 255.5 173.136C256.748 173.936 258.156 174.96 259.212 175.888C256.012 176.912 252.396 177.52 248.812 177.808C249.292 178.48 249.836 179.664 250.06 180.432C258.636 179.408 267.34 176.848 271.148 170.8L269.228 169.648L268.716 169.776H260.78C261.1 169.424 261.42 169.104 261.74 168.72L259.116 168.176H272.844V171.28H275.756V165.872H248.108V171.28ZM267.052 153.04V151.152H264.108V157.04H267.052V155.568H275.884V153.04H267.052Z" fill="white"/>
<rect x="165" y="45" width="92.5" height="26" fill="#FDBF52"/>
<path d="M182.268 51.078C180.522 51.636 177.588 52.032 175.122 52.212C175.23 52.554 175.374 53.058 175.41 53.436C177.93 53.292 180.936 52.914 182.934 52.302L182.268 51.078ZM181.854 55.722C182.25 55.11 182.7 54.21 183.132 53.328L181.98 52.878C181.728 53.634 181.242 54.66 180.846 55.326L181.854 55.722ZM177.3 55.398C177.174 54.858 176.868 54.084 176.526 53.508L175.41 53.958C175.716 54.552 176.04 55.38 176.13 55.938L177.3 55.398ZM178.452 61.014C178.434 61.464 178.398 61.896 178.344 62.274H175.068V63.534H178.056C177.642 64.83 176.742 65.676 174.78 66.234C175.086 66.504 175.482 67.062 175.626 67.422C177.372 66.882 178.398 66.09 179.01 65.01C180.162 65.73 181.404 66.648 182.034 67.296L183.006 66.27C182.25 65.532 180.738 64.56 179.514 63.84L179.568 63.534H183.06V62.274H179.802C179.856 61.878 179.892 61.446 179.91 61.014H178.452ZM180.558 58.602C180.774 58.89 180.972 59.214 181.17 59.556L178.038 59.808C179.352 58.962 180.684 57.936 181.944 56.73L180.9 55.938C180.414 56.442 179.874 56.946 179.352 57.396L177.462 57.432C178.074 56.946 178.704 56.334 179.262 55.722L178.92 55.488L180.036 55.002C179.928 54.48 179.622 53.706 179.334 53.13L178.2 53.562C178.47 54.156 178.758 54.912 178.848 55.434L178.2 54.984C177.534 55.938 176.544 56.784 176.238 57.018C175.95 57.234 175.698 57.396 175.446 57.45C175.572 57.81 175.752 58.512 175.806 58.8C176.04 58.71 176.364 58.638 177.912 58.566C177.372 58.944 176.94 59.25 176.688 59.394C176.112 59.772 175.68 60.006 175.284 60.078C175.392 60.438 175.572 61.158 175.626 61.428C176.04 61.212 176.652 61.158 181.746 60.636C181.908 60.96 182.034 61.266 182.124 61.518L183.348 60.996C183.06 60.186 182.394 58.998 181.71 58.116L180.558 58.602ZM185.508 62.958H187.416V65.082H185.508V62.958ZM187.416 57.99H185.508V55.974H187.416V57.99ZM187.416 61.536H185.508V59.412H187.416V61.536ZM191.376 65.082H188.91V62.958H190.908V61.536H188.91V59.412H190.908V57.99H188.91V55.974H191.16V54.462H188.91L189.756 54.156C189.486 53.418 188.946 52.266 188.46 51.402L187.056 51.834C187.506 52.626 187.974 53.724 188.244 54.462H185.58C185.994 53.436 186.318 52.356 186.606 51.276L185.04 50.898C184.428 53.418 183.402 55.92 182.07 57.504C182.412 57.81 182.988 58.494 183.222 58.818C183.492 58.476 183.744 58.116 183.996 57.702V67.404H185.508V66.594H191.376V65.082ZM207.216 53.85H201.726V52.698H207.216V53.85ZM207.216 56.154H201.726V54.984H207.216V56.154ZM208.872 51.474H200.142V57.378H208.872V51.474ZM198.684 52.842C198.036 52.212 196.668 51.456 195.606 51.006L194.67 52.248C195.732 52.752 197.082 53.598 197.694 54.21L198.684 52.842ZM197.766 57.504C197.1 56.928 195.732 56.208 194.67 55.794L193.734 57.054C194.832 57.522 196.164 58.314 196.794 58.908L197.766 57.504ZM196.974 60.456C196.092 62.508 194.904 64.812 194.076 66.198L195.57 67.188C196.47 65.496 197.496 63.354 198.27 61.464L196.974 60.456ZM210.312 59.682V58.314H198.522V59.682H200.826C200.052 60.96 198.918 62.148 197.73 62.94C198.072 63.192 198.648 63.678 198.9 63.948C199.566 63.444 200.25 62.796 200.862 62.076H202.302C201.402 63.606 200.052 64.992 198.63 65.91C198.954 66.162 199.53 66.684 199.782 66.954C201.366 65.784 202.932 64.02 203.976 62.076H205.416C204.732 63.876 203.616 65.46 202.248 66.504C202.59 66.702 203.202 67.17 203.454 67.422C204.912 66.162 206.19 64.254 206.982 62.076H208.134C207.954 64.524 207.738 65.496 207.468 65.784C207.324 65.964 207.18 66 206.946 65.982C206.712 65.982 206.172 65.982 205.578 65.928C205.812 66.306 205.956 66.936 205.992 67.368C206.694 67.404 207.378 67.404 207.756 67.35C208.188 67.296 208.512 67.17 208.8 66.828C209.286 66.288 209.538 64.884 209.772 61.41C209.79 61.194 209.808 60.762 209.808 60.762H201.87C202.104 60.402 202.32 60.042 202.518 59.682H210.312ZM220.104 51.15V65.208C220.104 65.568 219.978 65.676 219.6 65.694C219.222 65.712 217.908 65.712 216.684 65.658C216.954 66.144 217.242 66.936 217.35 67.404C219.06 67.422 220.212 67.368 220.932 67.098C221.634 66.81 221.922 66.324 221.922 65.208V51.15H220.104ZM224.406 55.74C225.864 58.332 227.286 61.68 227.664 63.804L229.482 63.084C229.032 60.906 227.556 57.63 226.026 55.128L224.406 55.74ZM215.442 55.272C215.028 57.648 214.074 60.744 212.562 62.616C213.012 62.778 213.75 63.192 214.164 63.498C215.73 61.5 216.738 58.242 217.332 55.614L215.442 55.272ZM247.14 63.156C245.754 62.49 243.036 61.392 241.218 60.708L240.354 62.004C242.226 62.778 244.908 63.948 246.204 64.668L247.14 63.156ZM247.896 58.998V57.342H240.3V54.858H246.15V53.256H240.3V50.916H238.536V57.342H231.858V58.998H238.59V67.404H240.354V58.998H247.896Z" fill="#573605"/>
<path d="M196.069 302.533C195.897 304.09 195.557 305.903 194.734 307.674C194.323 307.204 193.913 306.735 193.515 306.321C193.885 305.196 194.271 303.875 194.627 302.497L196.069 302.533ZM197.776 299.954L196.324 299.827L196.213 301.1L194.969 301.063C195.26 299.806 195.532 298.547 195.74 297.409L194.206 297.184C194.031 298.361 193.752 299.692 193.438 301.002C192.881 300.971 192.359 300.943 191.874 300.919L191.903 302.439L193.093 302.471C192.685 304.043 192.21 305.538 191.823 306.66C192.481 307.404 193.219 308.264 193.904 309.101C193.172 310.248 192.173 311.335 190.828 312.247C191.149 312.51 191.626 313.039 191.846 313.42C193.137 312.503 194.113 311.468 194.895 310.38C195.431 311.06 195.864 311.694 196.179 312.227L197.382 311.068C197.018 310.476 196.452 309.721 195.801 308.906C196.892 306.76 197.326 304.486 197.547 302.572L198.269 302.581L198.393 301.164L197.673 301.137L197.776 299.954ZM199.323 311.599L199.441 310.254C199.743 310.515 200.121 310.946 200.297 311.214C201.585 310.116 202.407 308.779 202.906 307.413C203.543 308.806 204.103 310.246 204.362 311.209L205.55 310.644C205.173 309.382 204.248 307.35 203.42 305.669C203.474 305.457 203.514 305.208 203.553 304.976L205.776 305.171L205.895 303.808L203.744 303.62L203.784 303.153L203.99 300.804L202.681 300.69L202.478 303.003L202.435 303.505L200.39 303.326L200.271 304.689L202.244 304.862C201.904 306.675 201.213 308.584 199.453 310.111L200.341 299.961L206.528 300.503L205.51 312.14L199.323 311.599ZM199.003 298.326L197.63 314.016L199.101 314.145L199.193 313.087L205.379 313.628L205.299 314.543L206.824 314.676L208.184 299.13L199.003 298.326Z" fill="#927858"/>
<path d="M214.641 305.169C214.881 305.021 215.266 304.879 216.918 304.554C216.439 305.481 215.977 306.19 215.752 306.517C215.29 307.226 214.935 307.709 214.567 307.831C214.722 308.161 214.992 308.77 215.111 309.103L215.122 309.228C215.446 309.001 216.009 308.825 219.809 307.861C219.883 308.089 219.936 308.283 219.988 308.459L221.129 307.872C220.873 307.009 220.247 305.636 219.633 304.606L218.573 305.096C218.852 305.595 219.119 306.168 219.366 306.725L216.692 307.338C217.944 305.548 219.143 303.347 220.039 301.191L218.714 300.512C218.412 301.388 218.021 302.289 217.643 303.135L216.022 303.404C216.84 302.013 217.607 300.247 218.167 298.59L216.752 298.118C216.257 300.095 215.267 302.205 214.936 302.758C214.641 303.308 214.349 303.695 214.07 303.809C214.261 304.136 214.497 304.766 214.633 305.079L214.641 305.169ZM215.321 309.843C215.321 311.289 215.227 312.905 214.907 313.999C215.238 314.061 215.849 314.224 216.167 314.359C216.411 313.217 216.57 311.523 216.614 309.965L215.321 309.843ZM217.255 309.855C217.557 311.039 217.873 312.583 217.999 313.602L219.191 313.191C219.03 312.175 218.699 310.668 218.379 309.485L217.255 309.855ZM223.347 301.01C223.422 300.624 223.494 300.202 223.583 299.779L227.08 299.473C227.039 299.838 226.987 300.276 226.952 300.695L223.347 301.01ZM229.534 304.607C228.747 305.308 227.523 306.192 226.443 306.865C226.054 306.338 225.539 305.823 224.959 305.386C225.36 305.008 225.724 304.633 226.05 304.225L230.784 303.811L230.668 302.484L228.193 302.7C228.374 301.257 228.556 299.615 228.653 298.251L227.544 298.168L227.281 298.263L223.766 298.57C223.826 298.222 223.871 297.911 223.898 297.601L222.359 297.555C222.203 299.086 221.908 301.082 221.64 302.352L226.822 301.899L226.723 302.829L220.68 303.358L220.796 304.684L224.221 304.385C223.268 305.263 222.017 306.041 220.82 306.616C221.113 306.861 221.593 307.397 221.798 307.668C222.521 307.262 223.272 306.762 223.965 306.214C224.217 306.409 224.453 306.623 224.651 306.823C223.789 307.711 222.337 308.669 221.205 309.148C221.517 309.41 221.937 309.879 222.164 310.202C223.196 309.606 224.467 308.646 225.383 307.752C225.571 308.043 225.705 308.338 225.818 308.6C224.864 309.876 223.068 311.243 221.475 312.033C221.198 311.136 220.651 309.847 220.185 308.858L219.139 309.292C219.629 310.352 220.166 311.732 220.41 312.668L221.174 312.312C221.522 312.571 221.865 312.975 222.071 313.264C223.486 312.508 225.094 311.265 226.25 310.025C226.426 311.004 226.282 311.83 226.003 312.161C225.797 312.486 225.515 312.565 225.156 312.597C224.815 312.626 224.454 312.622 223.983 312.609C224.289 313.016 224.431 313.6 224.464 313.976C224.86 313.96 225.256 313.943 225.579 313.915C226.258 313.837 226.679 313.692 227.09 313.222C227.957 312.388 228.15 310.058 227.116 307.944C227.374 307.795 227.648 307.626 227.939 307.438C228.506 309.575 229.338 311.454 230.616 312.426C230.815 312.011 231.214 311.416 231.549 311.116C230.361 310.334 229.56 308.616 229.053 306.745C229.649 306.331 230.211 305.939 230.7 305.535L229.534 304.607Z" fill="#927858"/>
<defs>
<filter id="filter0_i_114_12817" x="12" y="14" width="400" height="203" filterUnits="userSpaceOnUse" color-interpolation-filters="sRGB">
<feFlood flood-opacity="0" result="BackgroundImageFix"/>
<feBlend mode="normal" in="SourceGraphic" in2="BackgroundImageFix" result="shape"/>
<feColorMatrix in="SourceAlpha" type="matrix" values="0 0 0 0 0 0 0 0 0 0 0 0 0 0 0 0 0 0 127 0" result="hardAlpha"/>
<feOffset dy="4"/>
<feGaussianBlur stdDeviation="2"/>
<feComposite in2="hardAlpha" operator="arithmetic" k2="-1" k3="1"/>
<feColorMatrix type="matrix" values="0 0 0 0 0 0 0 0 0 0 0 0 0 0 0 0 0 0 0.35 0"/>
<feBlend mode="normal" in2="shape" result="effect1_innerShadow_114_12817"/>
</filter>
<filter id="filter1_di_114_12817" x="8" y="213" width="408" height="148" filterUnits="userSpaceOnUse" color-interpolation-filters="sRGB">
<feFlood flood-opacity="0" result="BackgroundImageFix"/>
<feColorMatrix in="SourceAlpha" type="matrix" values="0 0 0 0 0 0 0 0 0 0 0 0 0 0 0 0 0 0 127 0" result="hardAlpha"/>
<feOffset dy="4"/>
<feGaussianBlur stdDeviation="2"/>
<feComposite in2="hardAlpha" operator="out"/>
<feColorMatrix type="matrix" values="0 0 0 0 0 0 0 0 0 0 0 0 0 0 0 0 0 0 0.25 0"/>
<feBlend mode="normal" in2="BackgroundImageFix" result="effect1_dropShadow_114_12817"/>
<feBlend mode="normal" in="SourceGraphic" in2="effect1_dropShadow_114_12817" result="shape"/>
<feColorMatrix in="SourceAlpha" type="matrix" values="0 0 0 0 0 0 0 0 0 0 0 0 0 0 0 0 0 0 127 0" result="hardAlpha"/>
<feOffset dy="3"/>
<feGaussianBlur stdDeviation="4"/>
<feComposite in2="hardAlpha" operator="arithmetic" k2="-1" k3="1"/>
<feColorMatrix type="matrix" values="0 0 0 0 0 0 0 0 0 0 0 0 0 0 0 0 0 0 0.25 0"/>
<feBlend mode="normal" in2="shape" result="effect2_innerShadow_114_12817"/>
</filter>
</defs>
</svg>
