<svg width="400" height="400" viewBox="0 0 400 400" fill="none" xmlns="http://www.w3.org/2000/svg">
<g clip-path="url(#clip0_114_13267)">
<g filter="url(#filter0_d_114_13267)">
<g filter="url(#filter1_i_114_13267)">
<path d="M400 200C400 147.222 378.929 96.6055 341.421 59.2858C303.914 21.966 253.043 1 200 1C146.957 0.999996 96.0859 21.966 58.5787 59.2857C21.0714 96.6055 8.00932e-06 147.222 0 200L400 200Z" fill="#FDBF52"/>
</g>
<path d="M360 201C360 158.565 343.143 117.869 313.137 87.8629C283.131 57.8571 242.435 41 200 41C157.565 41 116.869 57.8571 86.8629 87.8629C56.8571 117.869 40 158.565 40 201" stroke="#FCDBA3" stroke-width="3"/>
<g filter="url(#filter2_i_114_13267)">
<path d="M1.74846e-05 200C1.28474e-05 253.043 21.0714 303.914 58.5786 341.421C96.0859 378.929 146.957 400 200 400C253.043 400 303.914 378.929 341.421 341.421C378.929 303.914 400 253.043 400 200L200 200L1.74846e-05 200Z" fill="#FDBF52"/>
<path d="M1.74846e-05 200C1.28474e-05 253.043 21.0714 303.914 58.5786 341.421C96.0859 378.929 146.957 400 200 400C253.043 400 303.914 378.929 341.421 341.421C378.929 303.914 400 253.043 400 200L200 200L1.74846e-05 200Z" fill="black" fill-opacity="0.2"/>
</g>
<g filter="url(#filter3_di_114_13267)">
<path d="M1.22392e-05 200C8.99315e-06 237.13 21.0714 272.74 58.5786 298.995C96.0859 325.25 146.957 340 200 340C253.043 340 303.914 325.25 341.421 298.995C378.929 272.74 400 237.13 400 200L200 200L1.22392e-05 200Z" fill="#FCDBA3"/>
</g>
<path d="M40 200C40 229.704 56.8571 258.192 86.8629 279.196C116.869 300.2 157.565 312 200 312C242.435 312 283.131 300.2 313.137 279.196C343.143 258.192 360 229.704 360 200" stroke="#FDBF52" stroke-width="3"/>
<path d="M134.604 110.888V114.152H163.724V110.888H134.604ZM184.588 115.912C186.156 114.984 187.66 113.832 189.004 112.52C190.284 113.768 191.756 114.952 193.42 115.912H184.588ZM185.388 123.752V118.44H192.524V123.752H185.388ZM180.428 113.704H176.684V109.48H180.14V108.04C180.812 108.552 181.74 109.32 182.188 109.8C183.02 108.936 183.884 107.912 184.652 106.792C185.356 108.008 186.156 109.256 187.18 110.472C185.164 112.456 182.828 113.992 180.428 115.016V113.704ZM172.172 101.992H177.388V106.92H172.172V101.992ZM191.756 103.848C191.02 105.544 190.06 107.112 188.908 108.52C187.756 107.176 186.86 105.8 186.124 104.424L186.412 103.848H191.756ZM193.548 101.192L193.036 101.32H187.596C187.948 100.52 188.268 99.688 188.556 98.856L185.676 98.152C184.556 101.832 182.54 105.288 180.14 107.624V99.432H169.58V109.48H174.028V121.96L171.916 122.44V112.168H169.484V122.952C168.94 123.048 168.428 123.144 167.948 123.24L168.46 126.12C171.916 125.32 176.556 124.2 180.94 123.08L180.652 120.456L176.684 121.384V116.328H180.428V116.296C180.748 116.744 181.068 117.224 181.26 117.608C181.74 117.416 182.188 117.192 182.668 116.968V127.432H185.388V126.312H192.524V127.336H195.372V116.936L196.012 117.192C196.396 116.456 197.26 115.272 197.836 114.728C195.116 113.768 192.812 112.296 190.86 110.536C192.844 108.168 194.444 105.32 195.436 101.992L193.548 101.192ZM209.26 102.824C208.748 101.608 207.66 99.784 206.764 98.344L204.396 99.368C205.26 100.808 206.348 102.76 206.86 104.008L209.26 102.824ZM220.364 115.752V118.536H216.268V115.752H220.364ZM227.34 118.536H223.052V115.752H227.34V118.536ZM223.052 123.688V120.808H227.34V123.688H223.052ZM216.268 120.808H220.364V123.688H216.268V120.808ZM213.516 114.888C212.62 114.056 210.796 112.424 209.868 111.656C211.276 109.608 212.492 107.336 213.356 105L211.692 103.976L211.18 104.072H202.156V106.76H209.676C207.724 110.728 204.332 114.472 200.972 116.584C201.42 117.096 202.188 118.536 202.412 119.336C203.724 118.408 205.004 117.32 206.252 116.04V127.528H209.164V114.248C210.252 115.368 211.468 116.776 212.108 117.608L213.516 115.656V127.496H216.268V126.088H227.34V127.432H230.188V113.32H213.516V114.888ZM226.028 109.224H217.804V106.248H226.028V109.224ZM215.148 103.912V111.56H228.78V103.912H215.148ZM213.356 99.624V102.152H230.348V99.624H213.356ZM242.156 106.184H257.516V108.552H242.156V106.184ZM242.156 101.704H257.516V103.976H242.156V101.704ZM251.5 124.136V121.192H260.428V118.856H251.5V116.328H261.804V113.832H251.5V111.528H248.428V113.832H242.828C243.244 113.096 243.692 112.36 244.044 111.624L241.548 110.888H260.588V99.368H239.244V110.888H241.068C239.852 113.544 237.74 116.136 235.468 117.832C236.204 118.216 237.42 119.144 237.996 119.656C239.02 118.76 240.076 117.608 241.1 116.328H248.428V118.856H239.852V121.192H248.428V124.136H236.044V126.696H263.82V124.136H251.5ZM163.084 144.232V141.576H148.94C149.324 140.68 149.676 139.752 149.996 138.856L147.116 138.12C145.996 141.768 144.044 145.448 141.9 147.752C142.572 148.136 143.884 148.936 144.46 149.416C145.612 148.04 146.732 146.216 147.724 144.232H163.084ZM143.5 141.832C142.252 140.808 139.788 139.432 137.9 138.6L136.236 140.648C138.124 141.576 140.556 143.048 141.74 144.104L143.5 141.832ZM141.388 150.888C140.268 149.896 137.932 148.584 136.172 147.752L134.54 149.768C136.3 150.664 138.604 152.136 139.692 153.16L141.388 150.888ZM137.996 166.984C139.372 163.976 140.908 160.104 142.124 156.744L139.788 155.112C138.508 158.76 136.684 162.888 135.436 165.416L137.996 166.984ZM154.284 160.264L155.532 159.4C154.828 158.408 153.388 157.032 152.108 156.04H158.572C158.476 157.736 158.348 159.144 158.22 160.264H154.284ZM151.596 156.04L150.22 156.904C151.372 157.864 152.748 159.24 153.516 160.264H147.372C147.596 158.984 147.788 157.544 148.012 156.04H151.596ZM152.236 149.48L151.02 150.28C152.076 151.144 153.324 152.36 154.06 153.32H148.364C148.524 152.04 148.716 150.728 148.812 149.48H152.236ZM158.924 149.48C158.86 150.856 158.796 152.168 158.732 153.32H154.86L155.98 152.52C155.372 151.656 154.092 150.408 152.94 149.48H158.924ZM163.916 156.04V153.32H161.484C161.548 151.816 161.644 150.12 161.708 148.232C161.74 147.848 161.772 146.92 161.772 146.92H146.316C146.124 148.84 145.9 151.08 145.612 153.32H142.348V156.04H145.228C144.876 158.568 144.46 160.968 144.108 162.824H157.804C157.644 163.624 157.42 164.136 157.196 164.392C156.876 164.808 156.588 164.872 156.012 164.872C155.404 164.872 154.028 164.872 152.492 164.712C152.94 165.416 153.196 166.504 153.26 167.208C154.796 167.304 156.364 167.336 157.26 167.208C158.252 167.08 158.988 166.824 159.628 165.928C160.044 165.448 160.364 164.488 160.62 162.824H163.052V160.264H160.972C161.1 159.08 161.196 157.704 161.292 156.04H163.916ZM196.396 143.368V140.328H169.004V143.368H182.508C179.436 148.584 174.188 153.704 168.108 156.68C168.748 157.32 169.676 158.536 170.156 159.336C174.284 157.16 177.996 154.12 181.068 150.696V167.496H184.3V146.664C185.068 145.576 185.74 144.456 186.412 143.368H196.396ZM184.428 150.152C188.076 152.744 192.812 156.552 194.956 159.016L197.452 156.712C195.116 154.248 190.252 150.632 186.668 148.232L184.428 150.152ZM210.572 141.736C209.324 140.744 206.796 139.336 205.004 138.44L203.308 140.584C205.164 141.576 207.66 143.144 208.812 144.136L210.572 141.736ZM208.908 150.056C207.628 149.128 205.036 147.784 203.18 146.952L201.516 149.16C203.404 150.088 205.996 151.528 207.18 152.52L208.908 150.056ZM207.468 155.176C205.868 158.792 203.756 162.92 202.252 165.352L204.876 167.144C206.508 164.136 208.332 160.296 209.74 156.968L207.468 155.176ZM225.196 153.064C224.332 155.496 223.084 157.576 221.548 159.304C219.884 157.512 218.54 155.4 217.58 153.064H225.196ZM219.148 145.352V150.44H214.476V145.352H219.148ZM226.956 150.312L226.38 150.44H222.06V145.352H227.084C226.636 146.632 226.156 147.912 225.74 148.84L228.268 149.576C229.164 147.944 230.156 145.352 230.924 143.016L228.78 142.472L228.268 142.568H222.06V138.152H219.148V142.568H211.628V150.632C211.628 155.24 211.308 161.576 207.948 166.024C208.684 166.28 209.932 167.016 210.476 167.496C213.42 163.528 214.252 157.768 214.444 153.064H214.764C215.916 156.2 217.516 158.952 219.564 161.288C217.484 162.984 215.084 164.232 212.428 165.096C213.036 165.64 213.932 166.888 214.316 167.592C216.972 166.6 219.468 165.192 221.58 163.304C223.756 165.128 226.252 166.568 229.228 167.528C229.612 166.728 230.476 165.576 231.148 164.968C228.268 164.2 225.772 162.92 223.66 161.256C225.964 158.6 227.756 155.304 228.812 151.144L226.956 150.312ZM254.796 149.896C257.388 151.304 260.908 153.512 262.604 154.888L264.044 152.68C262.156 151.304 258.636 149.256 256.108 147.976L254.796 149.896ZM242.828 147.432H263.916V144.776H242.828V147.432ZM258.252 138.216C257.612 139.816 256.428 142.088 255.5 143.496L257.868 144.52C258.892 143.24 260.14 141.224 261.228 139.368L258.252 138.216ZM251.148 143.272C250.476 141.864 249.164 139.72 248.012 138.12L245.548 139.272C246.636 140.904 248.012 143.176 248.588 144.616L251.148 143.272ZM243.052 142.92C241.996 141.704 239.756 139.912 237.996 138.76L236.172 140.52C237.9 141.8 240.076 143.688 241.068 144.904L243.052 142.92ZM242.252 150.984C241.132 149.768 238.828 148.104 236.972 146.952L235.148 148.84C237.004 150.088 239.276 151.88 240.3 153.128L242.252 150.984ZM239.692 155.016C238.636 158.6 237.164 162.664 236.108 165.128L238.572 166.472C239.724 163.528 240.972 159.688 241.932 156.424L239.692 155.016ZM247.244 156.968H249.932V163.592H247.244V156.968ZM254.732 156.968V163.592H252.044V156.968H254.732ZM259.564 156.968V163.592H256.876V156.968H259.564ZM262.06 163.592V154.536H245.132C247.468 153.192 250.188 151.144 251.724 149.448L249.612 148.072C248.044 149.704 244.876 151.72 242.476 152.68C243.084 153.256 243.852 154.344 244.204 155.048C244.428 154.952 244.62 154.824 244.844 154.696V163.592H241.9V166.248H264.556V163.592H262.06Z" fill="white"/>
<rect x="153" y="32" width="92.5" height="26" fill="#FDBF52"/>
<path d="M170.268 38.078C168.522 38.636 165.588 39.032 163.122 39.212C163.23 39.554 163.374 40.058 163.41 40.436C165.93 40.292 168.936 39.914 170.934 39.302L170.268 38.078ZM169.854 42.722C170.25 42.11 170.7 41.21 171.132 40.328L169.98 39.878C169.728 40.634 169.242 41.66 168.846 42.326L169.854 42.722ZM165.3 42.398C165.174 41.858 164.868 41.084 164.526 40.508L163.41 40.958C163.716 41.552 164.04 42.38 164.13 42.938L165.3 42.398ZM166.452 48.014C166.434 48.464 166.398 48.896 166.344 49.274H163.068V50.534H166.056C165.642 51.83 164.742 52.676 162.78 53.234C163.086 53.504 163.482 54.062 163.626 54.422C165.372 53.882 166.398 53.09 167.01 52.01C168.162 52.73 169.404 53.648 170.034 54.296L171.006 53.27C170.25 52.532 168.738 51.56 167.514 50.84L167.568 50.534H171.06V49.274H167.802C167.856 48.878 167.892 48.446 167.91 48.014H166.452ZM168.558 45.602C168.774 45.89 168.972 46.214 169.17 46.556L166.038 46.808C167.352 45.962 168.684 44.936 169.944 43.73L168.9 42.938C168.414 43.442 167.874 43.946 167.352 44.396L165.462 44.432C166.074 43.946 166.704 43.334 167.262 42.722L166.92 42.488L168.036 42.002C167.928 41.48 167.622 40.706 167.334 40.13L166.2 40.562C166.47 41.156 166.758 41.912 166.848 42.434L166.2 41.984C165.534 42.938 164.544 43.784 164.238 44.018C163.95 44.234 163.698 44.396 163.446 44.45C163.572 44.81 163.752 45.512 163.806 45.8C164.04 45.71 164.364 45.638 165.912 45.566C165.372 45.944 164.94 46.25 164.688 46.394C164.112 46.772 163.68 47.006 163.284 47.078C163.392 47.438 163.572 48.158 163.626 48.428C164.04 48.212 164.652 48.158 169.746 47.636C169.908 47.96 170.034 48.266 170.124 48.518L171.348 47.996C171.06 47.186 170.394 45.998 169.71 45.116L168.558 45.602ZM173.508 49.958H175.416V52.082H173.508V49.958ZM175.416 44.99H173.508V42.974H175.416V44.99ZM175.416 48.536H173.508V46.412H175.416V48.536ZM179.376 52.082H176.91V49.958H178.908V48.536H176.91V46.412H178.908V44.99H176.91V42.974H179.16V41.462H176.91L177.756 41.156C177.486 40.418 176.946 39.266 176.46 38.402L175.056 38.834C175.506 39.626 175.974 40.724 176.244 41.462H173.58C173.994 40.436 174.318 39.356 174.606 38.276L173.04 37.898C172.428 40.418 171.402 42.92 170.07 44.504C170.412 44.81 170.988 45.494 171.222 45.818C171.492 45.476 171.744 45.116 171.996 44.702V54.404H173.508V53.594H179.376V52.082ZM195.216 40.85H189.726V39.698H195.216V40.85ZM195.216 43.154H189.726V41.984H195.216V43.154ZM196.872 38.474H188.142V44.378H196.872V38.474ZM186.684 39.842C186.036 39.212 184.668 38.456 183.606 38.006L182.67 39.248C183.732 39.752 185.082 40.598 185.694 41.21L186.684 39.842ZM185.766 44.504C185.1 43.928 183.732 43.208 182.67 42.794L181.734 44.054C182.832 44.522 184.164 45.314 184.794 45.908L185.766 44.504ZM184.974 47.456C184.092 49.508 182.904 51.812 182.076 53.198L183.57 54.188C184.47 52.496 185.496 50.354 186.27 48.464L184.974 47.456ZM198.312 46.682V45.314H186.522V46.682H188.826C188.052 47.96 186.918 49.148 185.73 49.94C186.072 50.192 186.648 50.678 186.9 50.948C187.566 50.444 188.25 49.796 188.862 49.076H190.302C189.402 50.606 188.052 51.992 186.63 52.91C186.954 53.162 187.53 53.684 187.782 53.954C189.366 52.784 190.932 51.02 191.976 49.076H193.416C192.732 50.876 191.616 52.46 190.248 53.504C190.59 53.702 191.202 54.17 191.454 54.422C192.912 53.162 194.19 51.254 194.982 49.076H196.134C195.954 51.524 195.738 52.496 195.468 52.784C195.324 52.964 195.18 53 194.946 52.982C194.712 52.982 194.172 52.982 193.578 52.928C193.812 53.306 193.956 53.936 193.992 54.368C194.694 54.404 195.378 54.404 195.756 54.35C196.188 54.296 196.512 54.17 196.8 53.828C197.286 53.288 197.538 51.884 197.772 48.41C197.79 48.194 197.808 47.762 197.808 47.762H189.87C190.104 47.402 190.32 47.042 190.518 46.682H198.312ZM208.104 38.15V52.208C208.104 52.568 207.978 52.676 207.6 52.694C207.222 52.712 205.908 52.712 204.684 52.658C204.954 53.144 205.242 53.936 205.35 54.404C207.06 54.422 208.212 54.368 208.932 54.098C209.634 53.81 209.922 53.324 209.922 52.208V38.15H208.104ZM212.406 42.74C213.864 45.332 215.286 48.68 215.664 50.804L217.482 50.084C217.032 47.906 215.556 44.63 214.026 42.128L212.406 42.74ZM203.442 42.272C203.028 44.648 202.074 47.744 200.562 49.616C201.012 49.778 201.75 50.192 202.164 50.498C203.73 48.5 204.738 45.242 205.332 42.614L203.442 42.272ZM235.14 50.156C233.754 49.49 231.036 48.392 229.218 47.708L228.354 49.004C230.226 49.778 232.908 50.948 234.204 51.668L235.14 50.156ZM235.896 45.998V44.342H228.3V41.858H234.15V40.256H228.3V37.916H226.536V44.342H219.858V45.998H226.59V54.404H228.354V45.998H235.896Z" fill="#573605"/>
<path d="M195.799 294.028L188.609 293.399L189.123 287.518L195.292 288.057L195.435 286.425L181.376 285.196L181.234 286.827L187.402 287.367L186.887 293.249L179.787 292.627L179.639 294.313L186.74 294.934L186.207 301.031L187.928 301.181L188.461 295.085L195.652 295.714L195.799 294.028ZM182.294 288.131C182.83 289.442 183.294 291.163 183.437 292.206L185.08 291.808C184.938 290.747 184.396 289.092 183.841 287.796L182.294 288.131ZM191.828 292.958C192.579 292.012 193.509 290.467 194.277 289.125L192.544 288.485C192.04 289.706 191.138 291.344 190.434 292.366L191.828 292.958Z" fill="#927858"/>
<path d="M204.595 288.691L215.838 287.708L216.031 289.913L217.806 289.758L217.476 285.992L211.398 286.524C211.074 285.92 210.57 285.115 210.171 284.481L208.381 285.089C208.658 285.571 209.002 286.192 209.282 286.709L202.773 287.279L203.102 291.044L204.788 290.897L204.595 288.691ZM213.006 293.141C212.715 294.359 212.262 295.374 211.578 296.229C210.354 295.867 209.097 295.543 207.897 295.25C208.176 294.72 208.45 294.136 208.739 293.514L213.006 293.141ZM218.493 292.661L218.355 291.083L215.289 291.351C215.354 290.858 215.399 290.33 215.441 289.784L213.401 289.8C213.382 290.416 213.343 290.997 213.281 291.527L209.461 291.861C209.833 290.943 210.167 290.011 210.416 289.14L208.485 288.965C208.226 289.927 207.849 290.99 207.399 292.041L202.809 292.443L202.947 294.021L206.641 293.698C206.199 294.64 205.715 295.513 205.291 296.237C206.84 296.59 208.559 297.035 210.249 297.556C208.692 298.758 206.502 299.546 203.573 300.146C203.969 300.545 204.56 301.306 204.759 301.722C208.085 300.907 210.521 299.845 212.222 298.215C214.419 298.962 216.408 299.8 217.738 300.551L218.865 298.971C217.484 298.26 215.519 297.493 213.418 296.809C214.155 295.733 214.659 294.478 214.997 292.967L218.493 292.661Z" fill="#927858"/>
</g>
</g>
<defs>
<filter id="filter0_d_114_13267" x="-4" y="1" width="408" height="407" filterUnits="userSpaceOnUse" color-interpolation-filters="sRGB">
<feFlood flood-opacity="0" result="BackgroundImageFix"/>
<feColorMatrix in="SourceAlpha" type="matrix" values="0 0 0 0 0 0 0 0 0 0 0 0 0 0 0 0 0 0 127 0" result="hardAlpha"/>
<feOffset dy="4"/>
<feGaussianBlur stdDeviation="2"/>
<feComposite in2="hardAlpha" operator="out"/>
<feColorMatrix type="matrix" values="0 0 0 0 0 0 0 0 0 0 0 0 0 0 0 0 0 0 0.25 0"/>
<feBlend mode="normal" in2="BackgroundImageFix" result="effect1_dropShadow_114_13267"/>
<feBlend mode="normal" in="SourceGraphic" in2="effect1_dropShadow_114_13267" result="shape"/>
</filter>
<filter id="filter1_i_114_13267" x="0" y="1" width="400" height="203" filterUnits="userSpaceOnUse" color-interpolation-filters="sRGB">
<feFlood flood-opacity="0" result="BackgroundImageFix"/>
<feBlend mode="normal" in="SourceGraphic" in2="BackgroundImageFix" result="shape"/>
<feColorMatrix in="SourceAlpha" type="matrix" values="0 0 0 0 0 0 0 0 0 0 0 0 0 0 0 0 0 0 127 0" result="hardAlpha"/>
<feOffset dy="4"/>
<feGaussianBlur stdDeviation="2"/>
<feComposite in2="hardAlpha" operator="arithmetic" k2="-1" k3="1"/>
<feColorMatrix type="matrix" values="0 0 0 0 0 0 0 0 0 0 0 0 0 0 0 0 0 0 0.35 0"/>
<feBlend mode="normal" in2="shape" result="effect1_innerShadow_114_13267"/>
</filter>
<filter id="filter2_i_114_13267" x="0" y="198" width="400" height="202" filterUnits="userSpaceOnUse" color-interpolation-filters="sRGB">
<feFlood flood-opacity="0" result="BackgroundImageFix"/>
<feBlend mode="normal" in="SourceGraphic" in2="BackgroundImageFix" result="shape"/>
<feColorMatrix in="SourceAlpha" type="matrix" values="0 0 0 0 0 0 0 0 0 0 0 0 0 0 0 0 0 0 127 0" result="hardAlpha"/>
<feOffset dy="-2"/>
<feGaussianBlur stdDeviation="2"/>
<feComposite in2="hardAlpha" operator="arithmetic" k2="-1" k3="1"/>
<feColorMatrix type="matrix" values="0 0 0 0 0 0 0 0 0 0 0 0 0 0 0 0 0 0 0.25 0"/>
<feBlend mode="normal" in2="shape" result="effect1_innerShadow_114_13267"/>
</filter>
<filter id="filter3_di_114_13267" x="-8" y="200" width="416" height="158" filterUnits="userSpaceOnUse" color-interpolation-filters="sRGB">
<feFlood flood-opacity="0" result="BackgroundImageFix"/>
<feColorMatrix in="SourceAlpha" type="matrix" values="0 0 0 0 0 0 0 0 0 0 0 0 0 0 0 0 0 0 127 0" result="hardAlpha"/>
<feOffset dy="10"/>
<feGaussianBlur stdDeviation="4"/>
<feComposite in2="hardAlpha" operator="out"/>
<feColorMatrix type="matrix" values="0 0 0 0 0 0 0 0 0 0 0 0 0 0 0 0 0 0 0.25 0"/>
<feBlend mode="normal" in2="BackgroundImageFix" result="effect1_dropShadow_114_13267"/>
<feBlend mode="normal" in="SourceGraphic" in2="effect1_dropShadow_114_13267" result="shape"/>
<feColorMatrix in="SourceAlpha" type="matrix" values="0 0 0 0 0 0 0 0 0 0 0 0 0 0 0 0 0 0 127 0" result="hardAlpha"/>
<feOffset dy="3"/>
<feGaussianBlur stdDeviation="4"/>
<feComposite in2="hardAlpha" operator="arithmetic" k2="-1" k3="1"/>
<feColorMatrix type="matrix" values="0 0 0 0 0 0 0 0 0 0 0 0 0 0 0 0 0 0 0.25 0"/>
<feBlend mode="normal" in2="shape" result="effect2_innerShadow_114_13267"/>
</filter>
<clipPath id="clip0_114_13267">
<rect width="400" height="400" fill="white"/>
</clipPath>
</defs>
</svg>
