<svg width="400" height="400" viewBox="0 0 400 400" fill="none" xmlns="http://www.w3.org/2000/svg">
<g clip-path="url(#clip0_114_13327)">
<g filter="url(#filter0_d_114_13327)">
<g filter="url(#filter1_i_114_13327)">
<path d="M400 200C400 147.222 378.929 96.6055 341.421 59.2858C303.914 21.966 253.043 1 200 1C146.957 0.999996 96.0859 21.966 58.5787 59.2857C21.0714 96.6055 8.00932e-06 147.222 0 200L400 200Z" fill="#FDBF52"/>
</g>
<path d="M360 201C360 158.565 343.143 117.869 313.137 87.8629C283.131 57.8571 242.435 41 200 41C157.565 41 116.869 57.8571 86.8629 87.8629C56.8571 117.869 40 158.565 40 201" stroke="#FCDBA3" stroke-width="3"/>
<g filter="url(#filter2_i_114_13327)">
<path d="M1.74846e-05 200C1.28474e-05 253.043 21.0714 303.914 58.5786 341.421C96.0859 378.929 146.957 400 200 400C253.043 400 303.914 378.929 341.421 341.421C378.929 303.914 400 253.043 400 200L200 200L1.74846e-05 200Z" fill="#FDBF52"/>
<path d="M1.74846e-05 200C1.28474e-05 253.043 21.0714 303.914 58.5786 341.421C96.0859 378.929 146.957 400 200 400C253.043 400 303.914 378.929 341.421 341.421C378.929 303.914 400 253.043 400 200L200 200L1.74846e-05 200Z" fill="black" fill-opacity="0.2"/>
</g>
<g filter="url(#filter3_di_114_13327)">
<path d="M1.22392e-05 200C8.99315e-06 237.13 21.0714 272.74 58.5786 298.995C96.0859 325.25 146.957 340 200 340C253.043 340 303.914 325.25 341.421 298.995C378.929 272.74 400 237.13 400 200L200 200L1.22392e-05 200Z" fill="#FCDBA3"/>
</g>
<path d="M40 200C40 229.704 56.8571 258.192 86.8629 279.196C116.869 300.2 157.565 312 200 312C242.435 312 283.131 300.2 313.137 279.196C343.143 258.192 360 229.704 360 200" stroke="#FDBF52" stroke-width="3"/>
<path d="M153.068 119.688V122.152H144.876V119.688H153.068ZM155.692 124.296V117.544H142.124V125.768H144.876V124.296H155.692ZM162.124 113.512H136.108V127.528H139.02V115.976H159.116V124.584C159.116 124.968 158.956 125.096 158.54 125.096C158.188 125.128 156.588 125.128 155.244 125.064C155.596 125.704 156.012 126.6 156.172 127.272C158.316 127.304 159.788 127.272 160.78 126.92C161.772 126.536 162.124 125.992 162.124 124.584V113.512ZM155.724 109.864H142.604V107.496H155.724V109.864ZM139.66 105.416V111.976H158.86V105.416H139.66ZM151.148 101.352C150.828 100.328 150.316 99.048 149.9 98.024L146.892 98.728C147.18 99.528 147.5 100.488 147.788 101.352H135.084V103.88H162.988V101.352H151.148ZM179.34 113.768C178.796 112.808 176.172 109.064 175.308 107.976V106.952H179.052V104.2H175.308V98.184H172.524V104.2H168.268V106.952H172.3C171.404 111.08 169.612 115.88 167.66 118.44C168.204 119.208 168.876 120.552 169.164 121.384C170.412 119.528 171.596 116.68 172.524 113.608V127.528H175.308V111.688C176.14 113.192 177.036 114.92 177.484 115.944L179.34 113.768ZM191.532 124.552C190.764 124.552 190.636 124.424 190.636 123.4V110.536H188.3C188.492 109.256 188.62 108.04 188.716 106.856H193.804V111.24H196.556V104.232H188.844V103.144V98.184H185.964V103.144V104.232H179.724V111.24H182.38V106.856H185.836C185.356 112.616 183.468 119.944 176.492 125.8C177.388 126.28 178.444 126.952 179.052 127.56C184.236 123.112 186.732 117.768 187.884 112.68V123.4C187.884 126.312 188.556 127.176 191.116 127.176H194.284C196.556 127.176 197.26 125.864 197.516 121.256C196.78 121.064 195.66 120.584 195.052 120.136C194.956 123.912 194.828 124.552 194.028 124.552H191.532ZM206.22 104.488H226.284V108.424H229.452V101.704H218.604C218.124 100.584 217.356 99.08 216.748 97.896L213.484 98.696C213.9 99.592 214.412 100.744 214.828 101.704H203.212V108.424H206.22V104.488ZM220.428 113.672C219.724 115.784 218.764 117.512 217.42 118.92C215.308 118.088 213.132 117.32 211.052 116.616C211.628 115.72 212.204 114.728 212.812 113.672H220.428ZM230.22 113.672V110.856H224.748C224.94 109.992 225.1 109.064 225.26 108.104L221.644 107.816C221.516 108.904 221.356 109.928 221.164 110.856H214.348C215.148 109.288 215.884 107.688 216.46 106.184L213.068 105.576C212.46 107.24 211.628 109.064 210.668 110.856H202.476V113.672H209.068C208.14 115.272 207.148 116.744 206.284 117.96C208.972 118.824 211.948 119.88 214.86 121.064C211.916 122.952 207.916 124.008 202.636 124.616C203.276 125.384 204.204 126.824 204.492 127.592C210.508 126.664 214.988 125.16 218.252 122.536C222.028 124.2 225.42 125.992 227.66 127.528L229.9 124.904C227.564 123.432 224.204 121.768 220.588 120.232C222.06 118.44 223.148 116.296 223.98 113.672H230.22ZM239.852 117.192H243.436V122.856H239.852V117.192ZM243.436 102.408V107.56H239.852V102.408H243.436ZM247.5 114.44H239.852V110.312H247.5V114.44ZM257.708 98.728H255.02V102.504C255.02 107.624 254.924 115.944 250.476 123.272V122.856H246.06V117.192H250.156V107.56H246.028V102.408H250.444V99.816H237.004V125.416H249.004L248.684 125.832C249.484 126.216 250.54 126.952 251.02 127.496C254.124 123.368 255.756 118.696 256.684 114.344C258.092 119.72 260.14 124.296 263.116 127.24C263.564 126.504 264.492 125.544 265.1 125.064C261.196 121.576 258.764 114.6 257.58 107.208C257.676 105.48 257.708 103.88 257.708 102.504V98.728ZM139.02 144.488H159.084V148.424H162.252V141.704H151.404C150.924 140.584 150.156 139.08 149.548 137.896L146.284 138.696C146.7 139.592 147.212 140.744 147.628 141.704H136.012V148.424H139.02V144.488ZM153.228 153.672C152.524 155.784 151.564 157.512 150.22 158.92C148.108 158.088 145.932 157.32 143.852 156.616C144.428 155.72 145.004 154.728 145.612 153.672H153.228ZM163.02 153.672V150.856H157.548C157.74 149.992 157.9 149.064 158.06 148.104L154.444 147.816C154.316 148.904 154.156 149.928 153.964 150.856H147.148C147.948 149.288 148.684 147.688 149.26 146.184L145.868 145.576C145.26 147.24 144.428 149.064 143.468 150.856H135.276V153.672H141.868C140.94 155.272 139.948 156.744 139.084 157.96C141.772 158.824 144.748 159.88 147.66 161.064C144.716 162.952 140.716 164.008 135.436 164.616C136.076 165.384 137.004 166.824 137.292 167.592C143.308 166.664 147.788 165.16 151.052 162.536C154.828 164.2 158.22 165.992 160.46 167.528L162.7 164.904C160.364 163.432 157.004 161.768 153.388 160.232C154.86 158.44 155.948 156.296 156.78 153.672H163.02ZM196.492 142.888C195.884 141.704 194.476 139.976 193.26 138.728L191.116 139.912C192.3 141.256 193.644 143.08 194.252 144.232L196.492 142.888ZM170.796 167.56C172.204 165.864 173.772 163.24 174.828 161L172.044 160.264C171.02 162.44 169.388 164.936 168.012 166.408L170.796 167.56ZM180.3 143.304C179.916 144.744 179.436 146.056 178.892 147.272C177.708 146.248 176.044 145.032 174.604 144.072C174.764 143.816 174.924 143.56 175.084 143.304H180.3ZM181.836 140.808L181.26 140.936H176.332C176.684 140.168 177.036 139.4 177.324 138.664L174.508 137.832C173.388 141.288 170.988 145.352 168.044 147.784C168.428 148.392 169.036 149.672 169.292 150.344C170.796 149.128 172.204 147.56 173.42 145.832C174.988 146.92 176.684 148.296 177.772 149.416C175.564 153.064 172.364 155.624 168.588 157.192C169.228 157.64 170.252 158.792 170.668 159.432C176.876 156.648 181.74 150.984 183.628 141.512L181.836 140.808ZM175.244 149.576C172.78 150.184 170.476 150.824 168.748 151.208L169.42 153.512C171.308 152.904 173.388 152.2 175.564 151.432L175.244 149.576ZM177.516 161.288C177.9 163.24 178.156 165.736 178.188 167.24L181.068 166.856C181.036 165.384 180.684 162.888 180.3 161L177.516 161.288ZM197.388 157.992C196.236 155.208 193.74 150.952 191.372 147.464H197.1V144.648H190.476C190.508 143.88 190.54 143.08 190.54 142.376V138.568H187.724V142.344C187.724 143.048 187.692 143.848 187.628 144.648H182.892V147.464H187.18C186.38 150.952 184.396 154.76 179.692 157.928C180.428 158.44 181.42 159.24 181.932 159.848C186.412 156.84 188.556 153.16 189.612 149.608C191.692 152.936 193.772 156.744 194.668 159.24L197.388 157.992ZM184.012 161.224C184.812 163.144 185.58 165.64 185.836 167.176L188.748 166.6C188.428 165.064 187.628 162.6 186.796 160.776L184.012 161.224ZM190.54 161.128C192.044 163.144 193.804 165.864 194.54 167.592L197.356 166.312C196.524 164.584 194.668 161.928 193.164 160.008L190.54 161.128ZM229.452 144.296V141.672H209.1C209.772 140.712 210.348 139.72 210.86 138.728L208.204 137.864C206.732 140.904 204.172 143.816 201.548 145.704C202.092 146.28 202.956 147.56 203.308 148.104C204.62 147.08 205.964 145.736 207.148 144.296H229.452ZM205.26 167.592C206.412 165.896 207.756 163.208 208.62 161.032L205.772 160.296C204.908 162.408 203.5 164.904 202.38 166.44L205.26 167.592ZM211.116 161.384C211.5 163.304 211.724 165.8 211.756 167.304L214.668 166.888C214.636 165.416 214.284 162.952 213.9 161.064L211.116 161.384ZM217.612 161.32C218.412 163.208 219.148 165.704 219.404 167.24L222.348 166.664C222.06 165.128 221.228 162.664 220.396 160.808L217.612 161.32ZM224.108 161.192C225.324 163.208 226.796 165.928 227.436 167.56L230.348 166.28C229.612 164.648 228.076 161.992 226.828 160.136L224.108 161.192ZM209.516 151.816H212.364V156.616H209.516V151.816ZM218.028 151.816V156.616H214.892V151.816H218.028ZM223.564 151.816V156.616H220.556V151.816H223.564ZM226.316 156.616V151.816H229.74V149.128H226.316V145.896H223.564V149.128H220.556V145.896H218.028V149.128H214.892V145.896H212.364V149.128H209.516V145.896H206.86V149.128H203.212V151.816H206.86V156.616H202.22V159.304H230.412V156.616H226.316ZM246.732 156.872C248.748 158.12 251.084 159.944 252.204 161.256L254.38 159.368C253.292 158.088 251.02 156.488 249.1 155.368H264.044V152.776H251.308V150.056H260.876V147.528H251.308V144.936H262.732V142.408H256.748C257.484 141.448 258.348 140.232 259.084 139.048L255.82 138.184C255.276 139.432 254.252 141.192 253.42 142.408H245.452L246.54 141.832C245.996 140.776 244.812 139.208 243.66 138.056L241.1 139.208C241.964 140.136 242.828 141.384 243.436 142.408H237.132V144.936H248.332V147.528H238.924V150.056H248.332V152.776H235.788V155.368H248.588L246.732 156.872ZM237.804 166.376C239.564 164.488 240.908 161.576 241.804 159.08L239.18 158.056C238.348 160.424 236.94 163.176 235.148 164.872L237.804 166.376ZM248.204 164.36C246.604 164.36 246.316 164.232 246.316 163.336V157.768H243.372V163.368C243.372 166.216 244.268 167.016 247.884 167.016H253.612C256.492 167.016 257.324 166.088 257.708 162.184C256.908 161.992 255.692 161.608 255.02 161.128C254.892 163.944 254.668 164.36 253.324 164.36H248.204ZM257.068 158.856C258.796 161.032 260.716 164.04 261.484 165.928L264.3 164.712C263.436 162.792 261.484 159.88 259.692 157.8L257.068 158.856Z" fill="white"/>
<rect x="153" y="32" width="92.5" height="26" fill="#FDBF52"/>
<path d="M170.268 38.078C168.522 38.636 165.588 39.032 163.122 39.212C163.23 39.554 163.374 40.058 163.41 40.436C165.93 40.292 168.936 39.914 170.934 39.302L170.268 38.078ZM169.854 42.722C170.25 42.11 170.7 41.21 171.132 40.328L169.98 39.878C169.728 40.634 169.242 41.66 168.846 42.326L169.854 42.722ZM165.3 42.398C165.174 41.858 164.868 41.084 164.526 40.508L163.41 40.958C163.716 41.552 164.04 42.38 164.13 42.938L165.3 42.398ZM166.452 48.014C166.434 48.464 166.398 48.896 166.344 49.274H163.068V50.534H166.056C165.642 51.83 164.742 52.676 162.78 53.234C163.086 53.504 163.482 54.062 163.626 54.422C165.372 53.882 166.398 53.09 167.01 52.01C168.162 52.73 169.404 53.648 170.034 54.296L171.006 53.27C170.25 52.532 168.738 51.56 167.514 50.84L167.568 50.534H171.06V49.274H167.802C167.856 48.878 167.892 48.446 167.91 48.014H166.452ZM168.558 45.602C168.774 45.89 168.972 46.214 169.17 46.556L166.038 46.808C167.352 45.962 168.684 44.936 169.944 43.73L168.9 42.938C168.414 43.442 167.874 43.946 167.352 44.396L165.462 44.432C166.074 43.946 166.704 43.334 167.262 42.722L166.92 42.488L168.036 42.002C167.928 41.48 167.622 40.706 167.334 40.13L166.2 40.562C166.47 41.156 166.758 41.912 166.848 42.434L166.2 41.984C165.534 42.938 164.544 43.784 164.238 44.018C163.95 44.234 163.698 44.396 163.446 44.45C163.572 44.81 163.752 45.512 163.806 45.8C164.04 45.71 164.364 45.638 165.912 45.566C165.372 45.944 164.94 46.25 164.688 46.394C164.112 46.772 163.68 47.006 163.284 47.078C163.392 47.438 163.572 48.158 163.626 48.428C164.04 48.212 164.652 48.158 169.746 47.636C169.908 47.96 170.034 48.266 170.124 48.518L171.348 47.996C171.06 47.186 170.394 45.998 169.71 45.116L168.558 45.602ZM173.508 49.958H175.416V52.082H173.508V49.958ZM175.416 44.99H173.508V42.974H175.416V44.99ZM175.416 48.536H173.508V46.412H175.416V48.536ZM179.376 52.082H176.91V49.958H178.908V48.536H176.91V46.412H178.908V44.99H176.91V42.974H179.16V41.462H176.91L177.756 41.156C177.486 40.418 176.946 39.266 176.46 38.402L175.056 38.834C175.506 39.626 175.974 40.724 176.244 41.462H173.58C173.994 40.436 174.318 39.356 174.606 38.276L173.04 37.898C172.428 40.418 171.402 42.92 170.07 44.504C170.412 44.81 170.988 45.494 171.222 45.818C171.492 45.476 171.744 45.116 171.996 44.702V54.404H173.508V53.594H179.376V52.082ZM195.216 40.85H189.726V39.698H195.216V40.85ZM195.216 43.154H189.726V41.984H195.216V43.154ZM196.872 38.474H188.142V44.378H196.872V38.474ZM186.684 39.842C186.036 39.212 184.668 38.456 183.606 38.006L182.67 39.248C183.732 39.752 185.082 40.598 185.694 41.21L186.684 39.842ZM185.766 44.504C185.1 43.928 183.732 43.208 182.67 42.794L181.734 44.054C182.832 44.522 184.164 45.314 184.794 45.908L185.766 44.504ZM184.974 47.456C184.092 49.508 182.904 51.812 182.076 53.198L183.57 54.188C184.47 52.496 185.496 50.354 186.27 48.464L184.974 47.456ZM198.312 46.682V45.314H186.522V46.682H188.826C188.052 47.96 186.918 49.148 185.73 49.94C186.072 50.192 186.648 50.678 186.9 50.948C187.566 50.444 188.25 49.796 188.862 49.076H190.302C189.402 50.606 188.052 51.992 186.63 52.91C186.954 53.162 187.53 53.684 187.782 53.954C189.366 52.784 190.932 51.02 191.976 49.076H193.416C192.732 50.876 191.616 52.46 190.248 53.504C190.59 53.702 191.202 54.17 191.454 54.422C192.912 53.162 194.19 51.254 194.982 49.076H196.134C195.954 51.524 195.738 52.496 195.468 52.784C195.324 52.964 195.18 53 194.946 52.982C194.712 52.982 194.172 52.982 193.578 52.928C193.812 53.306 193.956 53.936 193.992 54.368C194.694 54.404 195.378 54.404 195.756 54.35C196.188 54.296 196.512 54.17 196.8 53.828C197.286 53.288 197.538 51.884 197.772 48.41C197.79 48.194 197.808 47.762 197.808 47.762H189.87C190.104 47.402 190.32 47.042 190.518 46.682H198.312ZM208.104 38.15V52.208C208.104 52.568 207.978 52.676 207.6 52.694C207.222 52.712 205.908 52.712 204.684 52.658C204.954 53.144 205.242 53.936 205.35 54.404C207.06 54.422 208.212 54.368 208.932 54.098C209.634 53.81 209.922 53.324 209.922 52.208V38.15H208.104ZM212.406 42.74C213.864 45.332 215.286 48.68 215.664 50.804L217.482 50.084C217.032 47.906 215.556 44.63 214.026 42.128L212.406 42.74ZM203.442 42.272C203.028 44.648 202.074 47.744 200.562 49.616C201.012 49.778 201.75 50.192 202.164 50.498C203.73 48.5 204.738 45.242 205.332 42.614L203.442 42.272ZM235.14 50.156C233.754 49.49 231.036 48.392 229.218 47.708L228.354 49.004C230.226 49.778 232.908 50.948 234.204 51.668L235.14 50.156ZM235.896 45.998V44.342H228.3V41.858H234.15V40.256H228.3V37.916H226.536V44.342H219.858V45.998H226.59V54.404H228.354V45.998H235.896Z" fill="#573605"/>
<path d="M195.799 294.028L188.609 293.399L189.123 287.518L195.292 288.057L195.435 286.425L181.376 285.196L181.234 286.827L187.402 287.367L186.887 293.249L179.787 292.627L179.639 294.313L186.74 294.934L186.207 301.031L187.928 301.181L188.461 295.085L195.652 295.714L195.799 294.028ZM182.294 288.131C182.83 289.442 183.294 291.163 183.437 292.206L185.08 291.808C184.938 290.747 184.396 289.092 183.841 287.796L182.294 288.131ZM191.828 292.958C192.579 292.012 193.509 290.467 194.277 289.125L192.544 288.485C192.04 289.706 191.138 291.344 190.434 292.366L191.828 292.958Z" fill="#927858"/>
<path d="M204.595 288.691L215.838 287.708L216.031 289.913L217.806 289.758L217.476 285.992L211.398 286.524C211.074 285.92 210.57 285.115 210.171 284.481L208.381 285.089C208.658 285.571 209.002 286.192 209.282 286.709L202.773 287.279L203.102 291.044L204.788 290.897L204.595 288.691ZM213.006 293.141C212.715 294.359 212.262 295.374 211.578 296.229C210.354 295.867 209.097 295.543 207.897 295.25C208.176 294.72 208.45 294.136 208.739 293.514L213.006 293.141ZM218.493 292.661L218.355 291.083L215.289 291.351C215.354 290.858 215.399 290.33 215.441 289.784L213.401 289.8C213.382 290.416 213.343 290.997 213.281 291.527L209.461 291.861C209.833 290.943 210.167 290.011 210.416 289.14L208.485 288.965C208.226 289.927 207.849 290.99 207.399 292.041L202.809 292.443L202.947 294.021L206.641 293.698C206.199 294.64 205.715 295.513 205.291 296.237C206.84 296.59 208.559 297.035 210.249 297.556C208.692 298.758 206.502 299.546 203.573 300.146C203.969 300.545 204.56 301.306 204.759 301.722C208.085 300.907 210.521 299.845 212.222 298.215C214.419 298.962 216.408 299.8 217.738 300.551L218.865 298.971C217.484 298.26 215.519 297.493 213.418 296.809C214.155 295.733 214.659 294.478 214.997 292.967L218.493 292.661Z" fill="#927858"/>
</g>
</g>
<defs>
<filter id="filter0_d_114_13327" x="-4" y="1" width="408" height="407" filterUnits="userSpaceOnUse" color-interpolation-filters="sRGB">
<feFlood flood-opacity="0" result="BackgroundImageFix"/>
<feColorMatrix in="SourceAlpha" type="matrix" values="0 0 0 0 0 0 0 0 0 0 0 0 0 0 0 0 0 0 127 0" result="hardAlpha"/>
<feOffset dy="4"/>
<feGaussianBlur stdDeviation="2"/>
<feComposite in2="hardAlpha" operator="out"/>
<feColorMatrix type="matrix" values="0 0 0 0 0 0 0 0 0 0 0 0 0 0 0 0 0 0 0.25 0"/>
<feBlend mode="normal" in2="BackgroundImageFix" result="effect1_dropShadow_114_13327"/>
<feBlend mode="normal" in="SourceGraphic" in2="effect1_dropShadow_114_13327" result="shape"/>
</filter>
<filter id="filter1_i_114_13327" x="0" y="1" width="400" height="203" filterUnits="userSpaceOnUse" color-interpolation-filters="sRGB">
<feFlood flood-opacity="0" result="BackgroundImageFix"/>
<feBlend mode="normal" in="SourceGraphic" in2="BackgroundImageFix" result="shape"/>
<feColorMatrix in="SourceAlpha" type="matrix" values="0 0 0 0 0 0 0 0 0 0 0 0 0 0 0 0 0 0 127 0" result="hardAlpha"/>
<feOffset dy="4"/>
<feGaussianBlur stdDeviation="2"/>
<feComposite in2="hardAlpha" operator="arithmetic" k2="-1" k3="1"/>
<feColorMatrix type="matrix" values="0 0 0 0 0 0 0 0 0 0 0 0 0 0 0 0 0 0 0.35 0"/>
<feBlend mode="normal" in2="shape" result="effect1_innerShadow_114_13327"/>
</filter>
<filter id="filter2_i_114_13327" x="0" y="198" width="400" height="202" filterUnits="userSpaceOnUse" color-interpolation-filters="sRGB">
<feFlood flood-opacity="0" result="BackgroundImageFix"/>
<feBlend mode="normal" in="SourceGraphic" in2="BackgroundImageFix" result="shape"/>
<feColorMatrix in="SourceAlpha" type="matrix" values="0 0 0 0 0 0 0 0 0 0 0 0 0 0 0 0 0 0 127 0" result="hardAlpha"/>
<feOffset dy="-2"/>
<feGaussianBlur stdDeviation="2"/>
<feComposite in2="hardAlpha" operator="arithmetic" k2="-1" k3="1"/>
<feColorMatrix type="matrix" values="0 0 0 0 0 0 0 0 0 0 0 0 0 0 0 0 0 0 0.25 0"/>
<feBlend mode="normal" in2="shape" result="effect1_innerShadow_114_13327"/>
</filter>
<filter id="filter3_di_114_13327" x="-8" y="200" width="416" height="158" filterUnits="userSpaceOnUse" color-interpolation-filters="sRGB">
<feFlood flood-opacity="0" result="BackgroundImageFix"/>
<feColorMatrix in="SourceAlpha" type="matrix" values="0 0 0 0 0 0 0 0 0 0 0 0 0 0 0 0 0 0 127 0" result="hardAlpha"/>
<feOffset dy="10"/>
<feGaussianBlur stdDeviation="4"/>
<feComposite in2="hardAlpha" operator="out"/>
<feColorMatrix type="matrix" values="0 0 0 0 0 0 0 0 0 0 0 0 0 0 0 0 0 0 0.25 0"/>
<feBlend mode="normal" in2="BackgroundImageFix" result="effect1_dropShadow_114_13327"/>
<feBlend mode="normal" in="SourceGraphic" in2="effect1_dropShadow_114_13327" result="shape"/>
<feColorMatrix in="SourceAlpha" type="matrix" values="0 0 0 0 0 0 0 0 0 0 0 0 0 0 0 0 0 0 127 0" result="hardAlpha"/>
<feOffset dy="3"/>
<feGaussianBlur stdDeviation="4"/>
<feComposite in2="hardAlpha" operator="arithmetic" k2="-1" k3="1"/>
<feColorMatrix type="matrix" values="0 0 0 0 0 0 0 0 0 0 0 0 0 0 0 0 0 0 0.25 0"/>
<feBlend mode="normal" in2="shape" result="effect2_innerShadow_114_13327"/>
</filter>
<clipPath id="clip0_114_13327">
<rect width="400" height="400" fill="white"/>
</clipPath>
</defs>
</svg>
