<svg width="425" height="425" viewBox="0 0 425 425" fill="none" xmlns="http://www.w3.org/2000/svg">
<g filter="url(#filter0_i_114_13327)">
<path d="M412 213C412 160.222 390.929 109.605 353.421 72.2858C315.914 34.966 265.043 14 212 14C158.957 14 108.086 34.966 70.5787 72.2857C33.0714 109.605 12 160.222 12 213L412 213Z" fill="#FDBF52"/>
</g>
<path d="M372 214C372 171.565 355.143 130.869 325.137 100.863C295.131 70.8571 254.435 54 212 54C169.565 54 128.869 70.8571 98.8629 100.863C68.8571 130.869 52 171.565 52 214" stroke="#FCDBA3" stroke-width="3"/>
<path d="M12 213C12 266.043 33.0714 316.914 70.5786 354.421C108.086 391.929 158.957 413 212 413C265.043 413 315.914 391.929 353.421 354.421C390.929 316.914 412 266.043 412 213L212 213L12 213Z" fill="#FDBF52"/>
<path d="M12 213C12 266.043 33.0714 316.914 70.5786 354.421C108.086 391.929 158.957 413 212 413C265.043 413 315.914 391.929 353.421 354.421C390.929 316.914 412 266.043 412 213L212 213L12 213Z" fill="black" fill-opacity="0.2"/>
<g filter="url(#filter1_di_114_13327)">
<path d="M12 213C12 250.13 33.0714 285.74 70.5786 311.995C108.086 338.25 158.957 353 212 353C265.043 353 315.914 338.25 353.421 311.995C390.929 285.74 412 250.13 412 213L212 213L12 213Z" fill="#FCDBA3"/>
</g>
<path d="M52 213C52 242.704 68.8571 271.192 98.8629 292.196C128.869 313.2 169.565 325 212 325C254.435 325 295.131 313.2 325.137 292.196C355.143 271.192 372 242.704 372 213" stroke="#FDBF52" stroke-width="3"/>
<path d="M165.068 132.688V135.152H156.876V132.688H165.068ZM167.692 137.296V130.544H154.124V138.768H156.876V137.296H167.692ZM174.124 126.512H148.108V140.528H151.02V128.976H171.116V137.584C171.116 137.968 170.956 138.096 170.54 138.096C170.188 138.128 168.588 138.128 167.244 138.064C167.596 138.704 168.012 139.6 168.172 140.272C170.316 140.304 171.788 140.272 172.78 139.92C173.772 139.536 174.124 138.992 174.124 137.584V126.512ZM167.724 122.864H154.604V120.496H167.724V122.864ZM151.66 118.416V124.976H170.86V118.416H151.66ZM163.148 114.352C162.828 113.328 162.316 112.048 161.9 111.024L158.892 111.728C159.18 112.528 159.5 113.488 159.788 114.352H147.084V116.88H174.988V114.352H163.148ZM191.34 126.768C190.796 125.808 188.172 122.064 187.308 120.976V119.952H191.052V117.2H187.308V111.184H184.524V117.2H180.268V119.952H184.3C183.404 124.08 181.612 128.88 179.66 131.44C180.204 132.208 180.876 133.552 181.164 134.384C182.412 132.528 183.596 129.68 184.524 126.608V140.528H187.308V124.688C188.14 126.192 189.036 127.92 189.484 128.944L191.34 126.768ZM203.532 137.552C202.764 137.552 202.636 137.424 202.636 136.4V123.536H200.3C200.492 122.256 200.62 121.04 200.716 119.856H205.804V124.24H208.556V117.232H200.844V116.144V111.184H197.964V116.144V117.232H191.724V124.24H194.38V119.856H197.836C197.356 125.616 195.468 132.944 188.492 138.8C189.388 139.28 190.444 139.952 191.052 140.56C196.236 136.112 198.732 130.768 199.884 125.68V136.4C199.884 139.312 200.556 140.176 203.116 140.176H206.284C208.556 140.176 209.26 138.864 209.516 134.256C208.78 134.064 207.66 133.584 207.052 133.136C206.956 136.912 206.828 137.552 206.028 137.552H203.532ZM218.22 117.488H238.284V121.424H241.452V114.704H230.604C230.124 113.584 229.356 112.08 228.748 110.896L225.484 111.696C225.9 112.592 226.412 113.744 226.828 114.704H215.212V121.424H218.22V117.488ZM232.428 126.672C231.724 128.784 230.764 130.512 229.42 131.92C227.308 131.088 225.132 130.32 223.052 129.616C223.628 128.72 224.204 127.728 224.812 126.672H232.428ZM242.22 126.672V123.856H236.748C236.94 122.992 237.1 122.064 237.26 121.104L233.644 120.816C233.516 121.904 233.356 122.928 233.164 123.856H226.348C227.148 122.288 227.884 120.688 228.46 119.184L225.068 118.576C224.46 120.24 223.628 122.064 222.668 123.856H214.476V126.672H221.068C220.14 128.272 219.148 129.744 218.284 130.96C220.972 131.824 223.948 132.88 226.86 134.064C223.916 135.952 219.916 137.008 214.636 137.616C215.276 138.384 216.204 139.824 216.492 140.592C222.508 139.664 226.988 138.16 230.252 135.536C234.028 137.2 237.42 138.992 239.66 140.528L241.9 137.904C239.564 136.432 236.204 134.768 232.588 133.232C234.06 131.44 235.148 129.296 235.98 126.672H242.22ZM251.852 130.192H255.436V135.856H251.852V130.192ZM255.436 115.408V120.56H251.852V115.408H255.436ZM259.5 127.44H251.852V123.312H259.5V127.44ZM269.708 111.728H267.02V115.504C267.02 120.624 266.924 128.944 262.476 136.272V135.856H258.06V130.192H262.156V120.56H258.028V115.408H262.444V112.816H249.004V138.416H261.004L260.684 138.832C261.484 139.216 262.54 139.952 263.02 140.496C266.124 136.368 267.756 131.696 268.684 127.344C270.092 132.72 272.14 137.296 275.116 140.24C275.564 139.504 276.492 138.544 277.1 138.064C273.196 134.576 270.764 127.6 269.58 120.208C269.676 118.48 269.708 116.88 269.708 115.504V111.728ZM151.02 157.488H171.084V161.424H174.252V154.704H163.404C162.924 153.584 162.156 152.08 161.548 150.896L158.284 151.696C158.7 152.592 159.212 153.744 159.628 154.704H148.012V161.424H151.02V157.488ZM165.228 166.672C164.524 168.784 163.564 170.512 162.22 171.92C160.108 171.088 157.932 170.32 155.852 169.616C156.428 168.72 157.004 167.728 157.612 166.672H165.228ZM175.02 166.672V163.856H169.548C169.74 162.992 169.9 162.064 170.06 161.104L166.444 160.816C166.316 161.904 166.156 162.928 165.964 163.856H159.148C159.948 162.288 160.684 160.688 161.26 159.184L157.868 158.576C157.26 160.24 156.428 162.064 155.468 163.856H147.276V166.672H153.868C152.94 168.272 151.948 169.744 151.084 170.96C153.772 171.824 156.748 172.88 159.66 174.064C156.716 175.952 152.716 177.008 147.436 177.616C148.076 178.384 149.004 179.824 149.292 180.592C155.308 179.664 159.788 178.16 163.052 175.536C166.828 177.2 170.22 178.992 172.46 180.528L174.7 177.904C172.364 176.432 169.004 174.768 165.388 173.232C166.86 171.44 167.948 169.296 168.78 166.672H175.02ZM208.492 155.888C207.884 154.704 206.476 152.976 205.26 151.728L203.116 152.912C204.3 154.256 205.644 156.08 206.252 157.232L208.492 155.888ZM182.796 180.56C184.204 178.864 185.772 176.24 186.828 174L184.044 173.264C183.02 175.44 181.388 177.936 180.012 179.408L182.796 180.56ZM192.3 156.304C191.916 157.744 191.436 159.056 190.892 160.272C189.708 159.248 188.044 158.032 186.604 157.072C186.764 156.816 186.924 156.56 187.084 156.304H192.3ZM193.836 153.808L193.26 153.936H188.332C188.684 153.168 189.036 152.4 189.324 151.664L186.508 150.832C185.388 154.288 182.988 158.352 180.044 160.784C180.428 161.392 181.036 162.672 181.292 163.344C182.796 162.128 184.204 160.56 185.42 158.832C186.988 159.92 188.684 161.296 189.772 162.416C187.564 166.064 184.364 168.624 180.588 170.192C181.228 170.64 182.252 171.792 182.668 172.432C188.876 169.648 193.74 163.984 195.628 154.512L193.836 153.808ZM187.244 162.576C184.78 163.184 182.476 163.824 180.748 164.208L181.42 166.512C183.308 165.904 185.388 165.2 187.564 164.432L187.244 162.576ZM189.516 174.288C189.9 176.24 190.156 178.736 190.188 180.24L193.068 179.856C193.036 178.384 192.684 175.888 192.3 174L189.516 174.288ZM209.388 170.992C208.236 168.208 205.74 163.952 203.372 160.464H209.1V157.648H202.476C202.508 156.88 202.54 156.08 202.54 155.376V151.568H199.724V155.344C199.724 156.048 199.692 156.848 199.628 157.648H194.892V160.464H199.18C198.38 163.952 196.396 167.76 191.692 170.928C192.428 171.44 193.42 172.24 193.932 172.848C198.412 169.84 200.556 166.16 201.612 162.608C203.692 165.936 205.772 169.744 206.668 172.24L209.388 170.992ZM196.012 174.224C196.812 176.144 197.58 178.64 197.836 180.176L200.748 179.6C200.428 178.064 199.628 175.6 198.796 173.776L196.012 174.224ZM202.54 174.128C204.044 176.144 205.804 178.864 206.54 180.592L209.356 179.312C208.524 177.584 206.668 174.928 205.164 173.008L202.54 174.128ZM241.452 157.296V154.672H221.1C221.772 153.712 222.348 152.72 222.86 151.728L220.204 150.864C218.732 153.904 216.172 156.816 213.548 158.704C214.092 159.28 214.956 160.56 215.308 161.104C216.62 160.08 217.964 158.736 219.148 157.296H241.452ZM217.26 180.592C218.412 178.896 219.756 176.208 220.62 174.032L217.772 173.296C216.908 175.408 215.5 177.904 214.38 179.44L217.26 180.592ZM223.116 174.384C223.5 176.304 223.724 178.8 223.756 180.304L226.668 179.888C226.636 178.416 226.284 175.952 225.9 174.064L223.116 174.384ZM229.612 174.32C230.412 176.208 231.148 178.704 231.404 180.24L234.348 179.664C234.06 178.128 233.228 175.664 232.396 173.808L229.612 174.32ZM236.108 174.192C237.324 176.208 238.796 178.928 239.436 180.56L242.348 179.28C241.612 177.648 240.076 174.992 238.828 173.136L236.108 174.192ZM221.516 164.816H224.364V169.616H221.516V164.816ZM230.028 164.816V169.616H226.892V164.816H230.028ZM235.564 164.816V169.616H232.556V164.816H235.564ZM238.316 169.616V164.816H241.74V162.128H238.316V158.896H235.564V162.128H232.556V158.896H230.028V162.128H226.892V158.896H224.364V162.128H221.516V158.896H218.86V162.128H215.212V164.816H218.86V169.616H214.22V172.304H242.412V169.616H238.316ZM258.732 169.872C260.748 171.12 263.084 172.944 264.204 174.256L266.38 172.368C265.292 171.088 263.02 169.488 261.1 168.368H276.044V165.776H263.308V163.056H272.876V160.528H263.308V157.936H274.732V155.408H268.748C269.484 154.448 270.348 153.232 271.084 152.048L267.82 151.184C267.276 152.432 266.252 154.192 265.42 155.408H257.452L258.54 154.832C257.996 153.776 256.812 152.208 255.66 151.056L253.1 152.208C253.964 153.136 254.828 154.384 255.436 155.408H249.132V157.936H260.332V160.528H250.924V163.056H260.332V165.776H247.788V168.368H260.588L258.732 169.872ZM249.804 179.376C251.564 177.488 252.908 174.576 253.804 172.08L251.18 171.056C250.348 173.424 248.94 176.176 247.148 177.872L249.804 179.376ZM260.204 177.36C258.604 177.36 258.316 177.232 258.316 176.336V170.768H255.372V176.368C255.372 179.216 256.268 180.016 259.884 180.016H265.612C268.492 180.016 269.324 179.088 269.708 175.184C268.908 174.992 267.692 174.608 267.02 174.128C266.892 176.944 266.668 177.36 265.324 177.36H260.204ZM269.068 171.856C270.796 174.032 272.716 177.04 273.484 178.928L276.3 177.712C275.436 175.792 273.484 172.88 271.692 170.8L269.068 171.856Z" fill="white"/>
<rect x="165" y="45" width="92.5" height="26" fill="#FDBF52"/>
<path d="M182.268 51.078C180.522 51.636 177.588 52.032 175.122 52.212C175.23 52.554 175.374 53.058 175.41 53.436C177.93 53.292 180.936 52.914 182.934 52.302L182.268 51.078ZM181.854 55.722C182.25 55.11 182.7 54.21 183.132 53.328L181.98 52.878C181.728 53.634 181.242 54.66 180.846 55.326L181.854 55.722ZM177.3 55.398C177.174 54.858 176.868 54.084 176.526 53.508L175.41 53.958C175.716 54.552 176.04 55.38 176.13 55.938L177.3 55.398ZM178.452 61.014C178.434 61.464 178.398 61.896 178.344 62.274H175.068V63.534H178.056C177.642 64.83 176.742 65.676 174.78 66.234C175.086 66.504 175.482 67.062 175.626 67.422C177.372 66.882 178.398 66.09 179.01 65.01C180.162 65.73 181.404 66.648 182.034 67.296L183.006 66.27C182.25 65.532 180.738 64.56 179.514 63.84L179.568 63.534H183.06V62.274H179.802C179.856 61.878 179.892 61.446 179.91 61.014H178.452ZM180.558 58.602C180.774 58.89 180.972 59.214 181.17 59.556L178.038 59.808C179.352 58.962 180.684 57.936 181.944 56.73L180.9 55.938C180.414 56.442 179.874 56.946 179.352 57.396L177.462 57.432C178.074 56.946 178.704 56.334 179.262 55.722L178.92 55.488L180.036 55.002C179.928 54.48 179.622 53.706 179.334 53.13L178.2 53.562C178.47 54.156 178.758 54.912 178.848 55.434L178.2 54.984C177.534 55.938 176.544 56.784 176.238 57.018C175.95 57.234 175.698 57.396 175.446 57.45C175.572 57.81 175.752 58.512 175.806 58.8C176.04 58.71 176.364 58.638 177.912 58.566C177.372 58.944 176.94 59.25 176.688 59.394C176.112 59.772 175.68 60.006 175.284 60.078C175.392 60.438 175.572 61.158 175.626 61.428C176.04 61.212 176.652 61.158 181.746 60.636C181.908 60.96 182.034 61.266 182.124 61.518L183.348 60.996C183.06 60.186 182.394 58.998 181.71 58.116L180.558 58.602ZM185.508 62.958H187.416V65.082H185.508V62.958ZM187.416 57.99H185.508V55.974H187.416V57.99ZM187.416 61.536H185.508V59.412H187.416V61.536ZM191.376 65.082H188.91V62.958H190.908V61.536H188.91V59.412H190.908V57.99H188.91V55.974H191.16V54.462H188.91L189.756 54.156C189.486 53.418 188.946 52.266 188.46 51.402L187.056 51.834C187.506 52.626 187.974 53.724 188.244 54.462H185.58C185.994 53.436 186.318 52.356 186.606 51.276L185.04 50.898C184.428 53.418 183.402 55.92 182.07 57.504C182.412 57.81 182.988 58.494 183.222 58.818C183.492 58.476 183.744 58.116 183.996 57.702V67.404H185.508V66.594H191.376V65.082ZM207.216 53.85H201.726V52.698H207.216V53.85ZM207.216 56.154H201.726V54.984H207.216V56.154ZM208.872 51.474H200.142V57.378H208.872V51.474ZM198.684 52.842C198.036 52.212 196.668 51.456 195.606 51.006L194.67 52.248C195.732 52.752 197.082 53.598 197.694 54.21L198.684 52.842ZM197.766 57.504C197.1 56.928 195.732 56.208 194.67 55.794L193.734 57.054C194.832 57.522 196.164 58.314 196.794 58.908L197.766 57.504ZM196.974 60.456C196.092 62.508 194.904 64.812 194.076 66.198L195.57 67.188C196.47 65.496 197.496 63.354 198.27 61.464L196.974 60.456ZM210.312 59.682V58.314H198.522V59.682H200.826C200.052 60.96 198.918 62.148 197.73 62.94C198.072 63.192 198.648 63.678 198.9 63.948C199.566 63.444 200.25 62.796 200.862 62.076H202.302C201.402 63.606 200.052 64.992 198.63 65.91C198.954 66.162 199.53 66.684 199.782 66.954C201.366 65.784 202.932 64.02 203.976 62.076H205.416C204.732 63.876 203.616 65.46 202.248 66.504C202.59 66.702 203.202 67.17 203.454 67.422C204.912 66.162 206.19 64.254 206.982 62.076H208.134C207.954 64.524 207.738 65.496 207.468 65.784C207.324 65.964 207.18 66 206.946 65.982C206.712 65.982 206.172 65.982 205.578 65.928C205.812 66.306 205.956 66.936 205.992 67.368C206.694 67.404 207.378 67.404 207.756 67.35C208.188 67.296 208.512 67.17 208.8 66.828C209.286 66.288 209.538 64.884 209.772 61.41C209.79 61.194 209.808 60.762 209.808 60.762H201.87C202.104 60.402 202.32 60.042 202.518 59.682H210.312ZM220.104 51.15V65.208C220.104 65.568 219.978 65.676 219.6 65.694C219.222 65.712 217.908 65.712 216.684 65.658C216.954 66.144 217.242 66.936 217.35 67.404C219.06 67.422 220.212 67.368 220.932 67.098C221.634 66.81 221.922 66.324 221.922 65.208V51.15H220.104ZM224.406 55.74C225.864 58.332 227.286 61.68 227.664 63.804L229.482 63.084C229.032 60.906 227.556 57.63 226.026 55.128L224.406 55.74ZM215.442 55.272C215.028 57.648 214.074 60.744 212.562 62.616C213.012 62.778 213.75 63.192 214.164 63.498C215.73 61.5 216.738 58.242 217.332 55.614L215.442 55.272ZM247.14 63.156C245.754 62.49 243.036 61.392 241.218 60.708L240.354 62.004C242.226 62.778 244.908 63.948 246.204 64.668L247.14 63.156ZM247.896 58.998V57.342H240.3V54.858H246.15V53.256H240.3V50.916H238.536V57.342H231.858V58.998H238.59V67.404H240.354V58.998H247.896Z" fill="#573605"/>
<path d="M207.799 307.028L200.609 306.399L201.123 300.518L207.292 301.057L207.435 299.425L193.376 298.196L193.234 299.827L199.402 300.367L198.887 306.249L191.787 305.627L191.639 307.313L198.74 307.934L198.207 314.031L199.928 314.181L200.461 308.085L207.652 308.714L207.799 307.028ZM194.294 301.131C194.83 302.442 195.294 304.163 195.437 305.206L197.08 304.808C196.938 303.747 196.396 302.092 195.841 300.796L194.294 301.131ZM203.828 305.958C204.579 305.012 205.509 303.467 206.277 302.125L204.544 301.485C204.04 302.706 203.138 304.344 202.434 305.366L203.828 305.958Z" fill="#927858"/>
<path d="M216.595 301.691L227.838 300.708L228.031 302.913L229.806 302.758L229.476 298.992L223.398 299.524C223.074 298.92 222.57 298.115 222.171 297.481L220.381 298.089C220.658 298.571 221.002 299.192 221.282 299.709L214.773 300.279L215.102 304.044L216.788 303.897L216.595 301.691ZM225.006 306.141C224.715 307.359 224.262 308.374 223.578 309.229C222.354 308.867 221.097 308.543 219.897 308.25C220.176 307.72 220.45 307.136 220.739 306.514L225.006 306.141ZM230.493 305.661L230.355 304.083L227.289 304.351C227.354 303.858 227.399 303.33 227.441 302.784L225.401 302.8C225.382 303.416 225.343 303.997 225.281 304.527L221.461 304.861C221.833 303.943 222.167 303.011 222.416 302.14L220.485 301.965C220.226 302.927 219.849 303.99 219.399 305.041L214.809 305.443L214.947 307.021L218.641 306.698C218.199 307.64 217.715 308.513 217.291 309.237C218.84 309.59 220.559 310.035 222.249 310.556C220.692 311.758 218.502 312.546 215.573 313.146C215.969 313.545 216.56 314.306 216.759 314.722C220.085 313.907 222.521 312.845 224.222 311.215C226.419 311.962 228.408 312.8 229.738 313.551L230.865 311.971C229.484 311.26 227.519 310.493 225.418 309.809C226.155 308.733 226.659 307.478 226.997 305.967L230.493 305.661Z" fill="#927858"/>
<defs>
<filter id="filter0_i_114_13327" x="12" y="14" width="400" height="203" filterUnits="userSpaceOnUse" color-interpolation-filters="sRGB">
<feFlood flood-opacity="0" result="BackgroundImageFix"/>
<feBlend mode="normal" in="SourceGraphic" in2="BackgroundImageFix" result="shape"/>
<feColorMatrix in="SourceAlpha" type="matrix" values="0 0 0 0 0 0 0 0 0 0 0 0 0 0 0 0 0 0 127 0" result="hardAlpha"/>
<feOffset dy="4"/>
<feGaussianBlur stdDeviation="2"/>
<feComposite in2="hardAlpha" operator="arithmetic" k2="-1" k3="1"/>
<feColorMatrix type="matrix" values="0 0 0 0 0 0 0 0 0 0 0 0 0 0 0 0 0 0 0.35 0"/>
<feBlend mode="normal" in2="shape" result="effect1_innerShadow_114_13327"/>
</filter>
<filter id="filter1_di_114_13327" x="8" y="213" width="408" height="148" filterUnits="userSpaceOnUse" color-interpolation-filters="sRGB">
<feFlood flood-opacity="0" result="BackgroundImageFix"/>
<feColorMatrix in="SourceAlpha" type="matrix" values="0 0 0 0 0 0 0 0 0 0 0 0 0 0 0 0 0 0 127 0" result="hardAlpha"/>
<feOffset dy="4"/>
<feGaussianBlur stdDeviation="2"/>
<feComposite in2="hardAlpha" operator="out"/>
<feColorMatrix type="matrix" values="0 0 0 0 0 0 0 0 0 0 0 0 0 0 0 0 0 0 0.25 0"/>
<feBlend mode="normal" in2="BackgroundImageFix" result="effect1_dropShadow_114_13327"/>
<feBlend mode="normal" in="SourceGraphic" in2="effect1_dropShadow_114_13327" result="shape"/>
<feColorMatrix in="SourceAlpha" type="matrix" values="0 0 0 0 0 0 0 0 0 0 0 0 0 0 0 0 0 0 127 0" result="hardAlpha"/>
<feOffset dy="3"/>
<feGaussianBlur stdDeviation="4"/>
<feComposite in2="hardAlpha" operator="arithmetic" k2="-1" k3="1"/>
<feColorMatrix type="matrix" values="0 0 0 0 0 0 0 0 0 0 0 0 0 0 0 0 0 0 0.25 0"/>
<feBlend mode="normal" in2="shape" result="effect2_innerShadow_114_13327"/>
</filter>
</defs>
</svg>
