<svg width="425" height="425" viewBox="0 0 425 425" fill="none" xmlns="http://www.w3.org/2000/svg">
<path d="M12 213C12 266.043 33.0714 316.914 70.5786 354.421C108.086 391.929 158.957 413 212 413C265.043 413 315.914 391.929 353.421 354.421C390.929 316.914 412 266.043 412 213L212 213L12 213Z" fill="#FDBF52"/>
<path d="M12 213C12 266.043 33.0714 316.914 70.5786 354.421C108.086 391.929 158.957 413 212 413C265.043 413 315.914 391.929 353.421 354.421C390.929 316.914 412 266.043 412 213L212 213L12 213Z" fill="black" fill-opacity="0.2"/>
<g filter="url(#filter0_d_114_13387)">
<g filter="url(#filter1_i_114_13387)">
<path d="M412 212C412 159.222 390.929 108.605 353.421 71.2858C315.914 33.966 265.043 13 212 13C158.957 13 108.086 33.966 70.5787 71.2857C33.0714 108.605 12 159.222 12 212L412 212Z" fill="#FDBF52"/>
</g>
<path d="M372 213C372 170.565 355.143 129.869 325.137 99.8629C295.131 69.8571 254.435 53 212 53C169.565 53 128.869 69.8571 98.8629 99.8629C68.8571 129.869 52 170.565 52 213" stroke="#FCDBA3" stroke-width="3"/>
<g filter="url(#filter2_i_114_13387)">
<path d="M12 212.001C12 249.131 33.0714 284.741 70.5786 310.996C108.086 337.251 158.957 352.001 212 352.001C265.043 352.001 315.914 337.251 353.421 310.996C390.929 284.741 412 249.131 412 212.001L212 212.001L12 212.001Z" fill="#FCDBA3"/>
</g>
<path d="M52 212.001C52 241.705 68.8571 270.193 98.8629 291.197C128.869 312.201 169.565 324.001 212 324.001C254.435 324.001 295.131 312.201 325.137 291.197C355.143 270.193 372 241.705 372 212.001" stroke="#FDBF52" stroke-width="3"/>
<path d="M168.812 126.856H153.676V121.768H168.812V126.856ZM153.676 134.792V129.576H168.812V134.792H153.676ZM174.988 114.728V111.816H147.244V114.728H159.116C158.956 116.136 158.668 117.704 158.38 118.984H150.668V139.56H153.676V137.544H168.812V139.56H171.98V118.984H161.452C161.836 117.704 162.188 116.168 162.604 114.728H174.988ZM202.892 132.552H196.076V130.568H202.892V132.552ZM196.076 126.408H202.892V128.232H196.076V126.408ZM187.052 120.424V118.504H193.068V120.424H187.052ZM202.38 118.504V120.424H196.076V118.504H202.38ZM209.228 128.232H205.9V124.296H196.076V122.408H205.388V116.52H196.076V114.888H208.556V112.488H196.076V110.152H193.068V112.488H180.94V114.888H193.068V116.52H184.204V122.408H193.068V124.296H183.372V126.408H193.068V128.232H180.268V130.568H193.068V132.552H183.084V134.792H193.068V136.488C193.068 137.032 192.876 137.192 192.3 137.224C191.788 137.256 189.868 137.256 188.108 137.192C188.524 137.832 188.972 138.92 189.132 139.592C191.82 139.592 193.484 139.56 194.572 139.176C195.66 138.76 196.076 138.088 196.076 136.456V134.792H202.892V136.168H205.9V130.568H209.228V128.232ZM242.348 122.088V119.016H229.452C229.836 115.848 229.868 112.776 229.9 110.184H226.668C226.636 112.744 226.668 115.816 226.284 119.016H214.38V122.088H225.74C224.46 127.88 221.356 133.64 213.74 136.968C214.572 137.608 215.532 138.664 216.012 139.464C223.276 136.04 226.732 130.504 228.364 124.712C230.86 131.496 234.732 136.68 240.716 139.464C241.196 138.568 242.188 137.32 242.924 136.68C236.876 134.152 232.844 128.744 230.668 122.088H242.348ZM269.388 130.024V135.592H254.572V130.024H269.388ZM251.5 139.688H254.572V138.344H269.388V139.688H272.62V127.336H251.5V139.688ZM275.788 117.192V114.376H263.404V110.184H260.3V114.376H248.012V117.192H260.3V121.32H250.028V124.136H274.06V121.32H263.404V117.192H275.788ZM151.02 156.488H171.084V160.424H174.252V153.704H163.404C162.924 152.584 162.156 151.08 161.548 149.896L158.284 150.696C158.7 151.592 159.212 152.744 159.628 153.704H148.012V160.424H151.02V156.488ZM165.228 165.672C164.524 167.784 163.564 169.512 162.22 170.92C160.108 170.088 157.932 169.32 155.852 168.616C156.428 167.72 157.004 166.728 157.612 165.672H165.228ZM175.02 165.672V162.856H169.548C169.74 161.992 169.9 161.064 170.06 160.104L166.444 159.816C166.316 160.904 166.156 161.928 165.964 162.856H159.148C159.948 161.288 160.684 159.688 161.26 158.184L157.868 157.576C157.26 159.24 156.428 161.064 155.468 162.856H147.276V165.672H153.868C152.94 167.272 151.948 168.744 151.084 169.96C153.772 170.824 156.748 171.88 159.66 173.064C156.716 174.952 152.716 176.008 147.436 176.616C148.076 177.384 149.004 178.824 149.292 179.592C155.308 178.664 159.788 177.16 163.052 174.536C166.828 176.2 170.22 177.992 172.46 179.528L174.7 176.904C172.364 175.432 169.004 173.768 165.388 172.232C166.86 170.44 167.948 168.296 168.78 165.672H175.02ZM200.204 158.632H203.212V155.528H208.876V152.84H203.212V150.152H200.204V152.84H195.308V155.528H200.204V158.632ZM186.156 158.6H189.164V155.528H194.092V152.84H189.164V150.152H186.156V152.84H180.684V155.528H186.156V158.6ZM203.372 175.336H189.932V170.12H203.372V175.336ZM208.908 163.656V160.872H194.06C194.476 159.976 194.828 159.048 195.148 158.088L192.14 157.32C191.756 158.536 191.308 159.752 190.764 160.872H180.524V163.656H189.324C186.988 167.528 183.788 170.568 179.756 172.616C180.396 173.16 181.484 174.408 181.932 175.016C183.756 173.96 185.42 172.744 186.956 171.272V179.496H189.932V178.024H203.372V179.464H206.508V167.464H190.348C191.212 166.28 192.044 165 192.748 163.656H208.908ZM225.036 172.072C221.708 173.576 218.252 175.112 215.98 176.008L217.516 178.344C219.884 177.224 222.892 175.752 225.676 174.344L225.036 172.072ZM226.956 176.424C226.956 176.84 226.796 176.936 226.348 176.968C225.932 176.968 224.332 176.968 222.796 176.904C223.148 177.608 223.532 178.664 223.692 179.368C225.932 179.368 227.436 179.368 228.428 178.984C229.42 178.568 229.708 177.896 229.708 176.488V165.384H226.956V176.424ZM230.668 174.024C233.164 175.24 236.396 177.192 238.124 178.44L239.884 176.328C238.156 175.176 234.956 173.352 232.428 172.168L230.668 174.024ZM242.572 164.456V161.992H226.156C226.508 161.256 226.892 160.552 227.244 159.784H239.788V157.448H228.172C228.396 156.776 228.62 156.104 228.812 155.4H241.036V153H229.356C229.516 152.136 229.676 151.208 229.772 150.344L226.668 150.152C226.604 151.08 226.476 152.072 226.284 153H215.756V155.4H225.74C225.548 156.104 225.324 156.776 225.068 157.448H217.356V159.784H224.076C223.692 160.552 223.244 161.256 222.764 161.992H213.996V164.456H220.876C218.988 166.6 216.524 168.456 213.42 169.928C214.188 170.312 215.18 171.304 215.596 172.04C217.324 171.176 218.86 170.12 220.236 169C221.388 169.928 222.764 171.336 223.404 172.264L225.58 170.696C224.908 169.768 223.5 168.424 222.316 167.56L220.332 168.936C221.964 167.592 223.372 166.088 224.524 164.456H232.236C233.228 165.864 234.444 167.176 235.788 168.328L234.252 167.336C233.452 168.392 231.948 169.96 230.86 170.888L232.908 172.232C233.964 171.432 235.372 170.184 236.556 168.904C238.06 170.056 239.692 171.016 241.42 171.656C241.868 170.92 242.732 169.8 243.372 169.256C240.428 168.328 237.58 166.568 235.564 164.456H242.572ZM271.5 156.776V174.088H263.436V150.472H260.3V174.088H252.364V156.872H249.292V177.128H271.5V179.432H274.572V156.776H271.5Z" fill="white"/>
<rect x="165" y="44" width="92.5" height="26" fill="#FDBF52"/>
<path d="M182.268 50.078C180.522 50.636 177.588 51.032 175.122 51.212C175.23 51.554 175.374 52.058 175.41 52.436C177.93 52.292 180.936 51.914 182.934 51.302L182.268 50.078ZM181.854 54.722C182.25 54.11 182.7 53.21 183.132 52.328L181.98 51.878C181.728 52.634 181.242 53.66 180.846 54.326L181.854 54.722ZM177.3 54.398C177.174 53.858 176.868 53.084 176.526 52.508L175.41 52.958C175.716 53.552 176.04 54.38 176.13 54.938L177.3 54.398ZM178.452 60.014C178.434 60.464 178.398 60.896 178.344 61.274H175.068V62.534H178.056C177.642 63.83 176.742 64.676 174.78 65.234C175.086 65.504 175.482 66.062 175.626 66.422C177.372 65.882 178.398 65.09 179.01 64.01C180.162 64.73 181.404 65.648 182.034 66.296L183.006 65.27C182.25 64.532 180.738 63.56 179.514 62.84L179.568 62.534H183.06V61.274H179.802C179.856 60.878 179.892 60.446 179.91 60.014H178.452ZM180.558 57.602C180.774 57.89 180.972 58.214 181.17 58.556L178.038 58.808C179.352 57.962 180.684 56.936 181.944 55.73L180.9 54.938C180.414 55.442 179.874 55.946 179.352 56.396L177.462 56.432C178.074 55.946 178.704 55.334 179.262 54.722L178.92 54.488L180.036 54.002C179.928 53.48 179.622 52.706 179.334 52.13L178.2 52.562C178.47 53.156 178.758 53.912 178.848 54.434L178.2 53.984C177.534 54.938 176.544 55.784 176.238 56.018C175.95 56.234 175.698 56.396 175.446 56.45C175.572 56.81 175.752 57.512 175.806 57.8C176.04 57.71 176.364 57.638 177.912 57.566C177.372 57.944 176.94 58.25 176.688 58.394C176.112 58.772 175.68 59.006 175.284 59.078C175.392 59.438 175.572 60.158 175.626 60.428C176.04 60.212 176.652 60.158 181.746 59.636C181.908 59.96 182.034 60.266 182.124 60.518L183.348 59.996C183.06 59.186 182.394 57.998 181.71 57.116L180.558 57.602ZM185.508 61.958H187.416V64.082H185.508V61.958ZM187.416 56.99H185.508V54.974H187.416V56.99ZM187.416 60.536H185.508V58.412H187.416V60.536ZM191.376 64.082H188.91V61.958H190.908V60.536H188.91V58.412H190.908V56.99H188.91V54.974H191.16V53.462H188.91L189.756 53.156C189.486 52.418 188.946 51.266 188.46 50.402L187.056 50.834C187.506 51.626 187.974 52.724 188.244 53.462H185.58C185.994 52.436 186.318 51.356 186.606 50.276L185.04 49.898C184.428 52.418 183.402 54.92 182.07 56.504C182.412 56.81 182.988 57.494 183.222 57.818C183.492 57.476 183.744 57.116 183.996 56.702V66.404H185.508V65.594H191.376V64.082ZM207.216 52.85H201.726V51.698H207.216V52.85ZM207.216 55.154H201.726V53.984H207.216V55.154ZM208.872 50.474H200.142V56.378H208.872V50.474ZM198.684 51.842C198.036 51.212 196.668 50.456 195.606 50.006L194.67 51.248C195.732 51.752 197.082 52.598 197.694 53.21L198.684 51.842ZM197.766 56.504C197.1 55.928 195.732 55.208 194.67 54.794L193.734 56.054C194.832 56.522 196.164 57.314 196.794 57.908L197.766 56.504ZM196.974 59.456C196.092 61.508 194.904 63.812 194.076 65.198L195.57 66.188C196.47 64.496 197.496 62.354 198.27 60.464L196.974 59.456ZM210.312 58.682V57.314H198.522V58.682H200.826C200.052 59.96 198.918 61.148 197.73 61.94C198.072 62.192 198.648 62.678 198.9 62.948C199.566 62.444 200.25 61.796 200.862 61.076H202.302C201.402 62.606 200.052 63.992 198.63 64.91C198.954 65.162 199.53 65.684 199.782 65.954C201.366 64.784 202.932 63.02 203.976 61.076H205.416C204.732 62.876 203.616 64.46 202.248 65.504C202.59 65.702 203.202 66.17 203.454 66.422C204.912 65.162 206.19 63.254 206.982 61.076H208.134C207.954 63.524 207.738 64.496 207.468 64.784C207.324 64.964 207.18 65 206.946 64.982C206.712 64.982 206.172 64.982 205.578 64.928C205.812 65.306 205.956 65.936 205.992 66.368C206.694 66.404 207.378 66.404 207.756 66.35C208.188 66.296 208.512 66.17 208.8 65.828C209.286 65.288 209.538 63.884 209.772 60.41C209.79 60.194 209.808 59.762 209.808 59.762H201.87C202.104 59.402 202.32 59.042 202.518 58.682H210.312ZM220.104 50.15V64.208C220.104 64.568 219.978 64.676 219.6 64.694C219.222 64.712 217.908 64.712 216.684 64.658C216.954 65.144 217.242 65.936 217.35 66.404C219.06 66.422 220.212 66.368 220.932 66.098C221.634 65.81 221.922 65.324 221.922 64.208V50.15H220.104ZM224.406 54.74C225.864 57.332 227.286 60.68 227.664 62.804L229.482 62.084C229.032 59.906 227.556 56.63 226.026 54.128L224.406 54.74ZM215.442 54.272C215.028 56.648 214.074 59.744 212.562 61.616C213.012 61.778 213.75 62.192 214.164 62.498C215.73 60.5 216.738 57.242 217.332 54.614L215.442 54.272ZM247.14 62.156C245.754 61.49 243.036 60.392 241.218 59.708L240.354 61.004C242.226 61.778 244.908 62.948 246.204 63.668L247.14 62.156ZM247.896 57.998V56.342H240.3V53.858H246.15V52.256H240.3V49.916H238.536V56.342H231.858V57.998H238.59V66.404H240.354V57.998H247.896Z" fill="#573605"/>
<path d="M207.799 306.029L200.609 305.4L201.123 299.519L207.292 300.058L207.435 298.426L193.376 297.197L193.234 298.828L199.402 299.368L198.887 305.249L191.787 304.628L191.639 306.314L198.74 306.935L198.207 313.032L199.928 313.182L200.461 307.086L207.652 307.715L207.799 306.029ZM194.294 300.132C194.83 301.443 195.294 303.164 195.437 304.207L197.08 303.808C196.938 302.748 196.396 301.093 195.841 299.797L194.294 300.132ZM203.828 304.959C204.579 304.013 205.509 302.468 206.277 301.126L204.544 300.486C204.04 301.707 203.138 303.345 202.434 304.367L203.828 304.959Z" fill="#927858"/>
<path d="M216.595 300.692L227.838 299.709L228.031 301.914L229.806 301.759L229.476 297.993L223.398 298.525C223.074 297.921 222.57 297.116 222.171 296.482L220.381 297.09C220.658 297.572 221.002 298.193 221.282 298.71L214.773 299.28L215.102 303.045L216.788 302.898L216.595 300.692ZM225.006 305.142C224.715 306.36 224.262 307.375 223.578 308.23C222.354 307.868 221.097 307.544 219.897 307.251C220.176 306.721 220.45 306.137 220.739 305.515L225.006 305.142ZM230.493 304.662L230.355 303.084L227.289 303.352C227.354 302.859 227.399 302.331 227.441 301.785L225.401 301.801C225.382 302.417 225.343 302.998 225.281 303.528L221.461 303.862C221.833 302.944 222.167 302.012 222.416 301.141L220.485 300.966C220.226 301.928 219.849 302.991 219.399 304.042L214.809 304.444L214.947 306.022L218.641 305.699C218.199 306.641 217.715 307.514 217.291 308.238C218.84 308.591 220.559 309.036 222.249 309.557C220.692 310.759 218.502 311.547 215.573 312.147C215.969 312.546 216.56 313.307 216.759 313.723C220.085 312.908 222.521 311.846 224.222 310.216C226.419 310.963 228.408 311.801 229.738 312.552L230.865 310.972C229.484 310.261 227.519 309.493 225.418 308.81C226.155 307.734 226.659 306.479 226.997 304.968L230.493 304.662Z" fill="#927858"/>
</g>
<defs>
<filter id="filter0_d_114_13387" x="8" y="13" width="408" height="347.001" filterUnits="userSpaceOnUse" color-interpolation-filters="sRGB">
<feFlood flood-opacity="0" result="BackgroundImageFix"/>
<feColorMatrix in="SourceAlpha" type="matrix" values="0 0 0 0 0 0 0 0 0 0 0 0 0 0 0 0 0 0 127 0" result="hardAlpha"/>
<feOffset dy="4"/>
<feGaussianBlur stdDeviation="2"/>
<feComposite in2="hardAlpha" operator="out"/>
<feColorMatrix type="matrix" values="0 0 0 0 0 0 0 0 0 0 0 0 0 0 0 0 0 0 0.25 0"/>
<feBlend mode="normal" in2="BackgroundImageFix" result="effect1_dropShadow_114_13387"/>
<feBlend mode="normal" in="SourceGraphic" in2="effect1_dropShadow_114_13387" result="shape"/>
</filter>
<filter id="filter1_i_114_13387" x="12" y="13" width="400" height="203" filterUnits="userSpaceOnUse" color-interpolation-filters="sRGB">
<feFlood flood-opacity="0" result="BackgroundImageFix"/>
<feBlend mode="normal" in="SourceGraphic" in2="BackgroundImageFix" result="shape"/>
<feColorMatrix in="SourceAlpha" type="matrix" values="0 0 0 0 0 0 0 0 0 0 0 0 0 0 0 0 0 0 127 0" result="hardAlpha"/>
<feOffset dy="4"/>
<feGaussianBlur stdDeviation="2"/>
<feComposite in2="hardAlpha" operator="arithmetic" k2="-1" k3="1"/>
<feColorMatrix type="matrix" values="0 0 0 0 0 0 0 0 0 0 0 0 0 0 0 0 0 0 0.35 0"/>
<feBlend mode="normal" in2="shape" result="effect1_innerShadow_114_13387"/>
</filter>
<filter id="filter2_i_114_13387" x="12" y="212.001" width="400" height="143" filterUnits="userSpaceOnUse" color-interpolation-filters="sRGB">
<feFlood flood-opacity="0" result="BackgroundImageFix"/>
<feBlend mode="normal" in="SourceGraphic" in2="BackgroundImageFix" result="shape"/>
<feColorMatrix in="SourceAlpha" type="matrix" values="0 0 0 0 0 0 0 0 0 0 0 0 0 0 0 0 0 0 127 0" result="hardAlpha"/>
<feOffset dy="3"/>
<feGaussianBlur stdDeviation="4"/>
<feComposite in2="hardAlpha" operator="arithmetic" k2="-1" k3="1"/>
<feColorMatrix type="matrix" values="0 0 0 0 0 0 0 0 0 0 0 0 0 0 0 0 0 0 0.25 0"/>
<feBlend mode="normal" in2="shape" result="effect1_innerShadow_114_13387"/>
</filter>
</defs>
</svg>
