<svg width="400" height="400" viewBox="0 0 400 400" fill="none" xmlns="http://www.w3.org/2000/svg">
<g clip-path="url(#clip0_114_13387)">
<g filter="url(#filter0_d_114_13387)">
<g filter="url(#filter1_i_114_13387)">
<path d="M400 200C400 147.222 378.929 96.6055 341.421 59.2858C303.914 21.966 253.043 1 200 1C146.957 0.999996 96.0859 21.966 58.5787 59.2857C21.0714 96.6055 8.00932e-06 147.222 0 200L400 200Z" fill="#FDBF52"/>
</g>
<path d="M360 201C360 158.565 343.143 117.869 313.137 87.8629C283.131 57.8571 242.435 41 200 41C157.565 41 116.869 57.8571 86.8629 87.8629C56.8571 117.869 40 158.565 40 201" stroke="#FCDBA3" stroke-width="3"/>
<g filter="url(#filter2_i_114_13387)">
<path d="M1.74846e-05 200C1.28474e-05 253.043 21.0714 303.914 58.5786 341.421C96.0859 378.929 146.957 400 200 400C253.043 400 303.914 378.929 341.421 341.421C378.929 303.914 400 253.043 400 200L200 200L1.74846e-05 200Z" fill="#FDBF52"/>
<path d="M1.74846e-05 200C1.28474e-05 253.043 21.0714 303.914 58.5786 341.421C96.0859 378.929 146.957 400 200 400C253.043 400 303.914 378.929 341.421 341.421C378.929 303.914 400 253.043 400 200L200 200L1.74846e-05 200Z" fill="black" fill-opacity="0.2"/>
</g>
<g filter="url(#filter3_di_114_13387)">
<path d="M1.22392e-05 200C8.99315e-06 237.13 21.0714 272.74 58.5786 298.995C96.0859 325.25 146.957 340 200 340C253.043 340 303.914 325.25 341.421 298.995C378.929 272.74 400 237.13 400 200L200 200L1.22392e-05 200Z" fill="#FCDBA3"/>
</g>
<path d="M40 200C40 229.704 56.8571 258.192 86.8629 279.196C116.869 300.2 157.565 312 200 312C242.435 312 283.131 300.2 313.137 279.196C343.143 258.192 360 229.704 360 200" stroke="#FDBF52" stroke-width="3"/>
<path d="M156.812 114.856H141.676V109.768H156.812V114.856ZM141.676 122.792V117.576H156.812V122.792H141.676ZM162.988 102.728V99.816H135.244V102.728H147.116C146.956 104.136 146.668 105.704 146.38 106.984H138.668V127.56H141.676V125.544H156.812V127.56H159.98V106.984H149.452C149.836 105.704 150.188 104.168 150.604 102.728H162.988ZM190.892 120.552H184.076V118.568H190.892V120.552ZM184.076 114.408H190.892V116.232H184.076V114.408ZM175.052 108.424V106.504H181.068V108.424H175.052ZM190.38 106.504V108.424H184.076V106.504H190.38ZM197.228 116.232H193.9V112.296H184.076V110.408H193.388V104.52H184.076V102.888H196.556V100.488H184.076V98.152H181.068V100.488H168.94V102.888H181.068V104.52H172.204V110.408H181.068V112.296H171.372V114.408H181.068V116.232H168.268V118.568H181.068V120.552H171.084V122.792H181.068V124.488C181.068 125.032 180.876 125.192 180.3 125.224C179.788 125.256 177.868 125.256 176.108 125.192C176.524 125.832 176.972 126.92 177.132 127.592C179.82 127.592 181.484 127.56 182.572 127.176C183.66 126.76 184.076 126.088 184.076 124.456V122.792H190.892V124.168H193.9V118.568H197.228V116.232ZM230.348 110.088V107.016H217.452C217.836 103.848 217.868 100.776 217.9 98.184H214.668C214.636 100.744 214.668 103.816 214.284 107.016H202.38V110.088H213.74C212.46 115.88 209.356 121.64 201.74 124.968C202.572 125.608 203.532 126.664 204.012 127.464C211.276 124.04 214.732 118.504 216.364 112.712C218.86 119.496 222.732 124.68 228.716 127.464C229.196 126.568 230.188 125.32 230.924 124.68C224.876 122.152 220.844 116.744 218.668 110.088H230.348ZM257.388 118.024V123.592H242.572V118.024H257.388ZM239.5 127.688H242.572V126.344H257.388V127.688H260.62V115.336H239.5V127.688ZM263.788 105.192V102.376H251.404V98.184H248.3V102.376H236.012V105.192H248.3V109.32H238.028V112.136H262.06V109.32H251.404V105.192H263.788ZM139.02 144.488H159.084V148.424H162.252V141.704H151.404C150.924 140.584 150.156 139.08 149.548 137.896L146.284 138.696C146.7 139.592 147.212 140.744 147.628 141.704H136.012V148.424H139.02V144.488ZM153.228 153.672C152.524 155.784 151.564 157.512 150.22 158.92C148.108 158.088 145.932 157.32 143.852 156.616C144.428 155.72 145.004 154.728 145.612 153.672H153.228ZM163.02 153.672V150.856H157.548C157.74 149.992 157.9 149.064 158.06 148.104L154.444 147.816C154.316 148.904 154.156 149.928 153.964 150.856H147.148C147.948 149.288 148.684 147.688 149.26 146.184L145.868 145.576C145.26 147.24 144.428 149.064 143.468 150.856H135.276V153.672H141.868C140.94 155.272 139.948 156.744 139.084 157.96C141.772 158.824 144.748 159.88 147.66 161.064C144.716 162.952 140.716 164.008 135.436 164.616C136.076 165.384 137.004 166.824 137.292 167.592C143.308 166.664 147.788 165.16 151.052 162.536C154.828 164.2 158.22 165.992 160.46 167.528L162.7 164.904C160.364 163.432 157.004 161.768 153.388 160.232C154.86 158.44 155.948 156.296 156.78 153.672H163.02ZM188.204 146.632H191.212V143.528H196.876V140.84H191.212V138.152H188.204V140.84H183.308V143.528H188.204V146.632ZM174.156 146.6H177.164V143.528H182.092V140.84H177.164V138.152H174.156V140.84H168.684V143.528H174.156V146.6ZM191.372 163.336H177.932V158.12H191.372V163.336ZM196.908 151.656V148.872H182.06C182.476 147.976 182.828 147.048 183.148 146.088L180.14 145.32C179.756 146.536 179.308 147.752 178.764 148.872H168.524V151.656H177.324C174.988 155.528 171.788 158.568 167.756 160.616C168.396 161.16 169.484 162.408 169.932 163.016C171.756 161.96 173.42 160.744 174.956 159.272V167.496H177.932V166.024H191.372V167.464H194.508V155.464H178.348C179.212 154.28 180.044 153 180.748 151.656H196.908ZM213.036 160.072C209.708 161.576 206.252 163.112 203.98 164.008L205.516 166.344C207.884 165.224 210.892 163.752 213.676 162.344L213.036 160.072ZM214.956 164.424C214.956 164.84 214.796 164.936 214.348 164.968C213.932 164.968 212.332 164.968 210.796 164.904C211.148 165.608 211.532 166.664 211.692 167.368C213.932 167.368 215.436 167.368 216.428 166.984C217.42 166.568 217.708 165.896 217.708 164.488V153.384H214.956V164.424ZM218.668 162.024C221.164 163.24 224.396 165.192 226.124 166.44L227.884 164.328C226.156 163.176 222.956 161.352 220.428 160.168L218.668 162.024ZM230.572 152.456V149.992H214.156C214.508 149.256 214.892 148.552 215.244 147.784H227.788V145.448H216.172C216.396 144.776 216.62 144.104 216.812 143.4H229.036V141H217.356C217.516 140.136 217.676 139.208 217.772 138.344L214.668 138.152C214.604 139.08 214.476 140.072 214.284 141H203.756V143.4H213.74C213.548 144.104 213.324 144.776 213.068 145.448H205.356V147.784H212.076C211.692 148.552 211.244 149.256 210.764 149.992H201.996V152.456H208.876C206.988 154.6 204.524 156.456 201.42 157.928C202.188 158.312 203.18 159.304 203.596 160.04C205.324 159.176 206.86 158.12 208.236 157C209.388 157.928 210.764 159.336 211.404 160.264L213.58 158.696C212.908 157.768 211.5 156.424 210.316 155.56L208.332 156.936C209.964 155.592 211.372 154.088 212.524 152.456H220.236C221.228 153.864 222.444 155.176 223.788 156.328L222.252 155.336C221.452 156.392 219.948 157.96 218.86 158.888L220.908 160.232C221.964 159.432 223.372 158.184 224.556 156.904C226.06 158.056 227.692 159.016 229.42 159.656C229.868 158.92 230.732 157.8 231.372 157.256C228.428 156.328 225.58 154.568 223.564 152.456H230.572ZM259.5 144.776V162.088H251.436V138.472H248.3V162.088H240.364V144.872H237.292V165.128H259.5V167.432H262.572V144.776H259.5Z" fill="white"/>
<rect x="153" y="32" width="92.5" height="26" fill="#FDBF52"/>
<path d="M170.268 38.078C168.522 38.636 165.588 39.032 163.122 39.212C163.23 39.554 163.374 40.058 163.41 40.436C165.93 40.292 168.936 39.914 170.934 39.302L170.268 38.078ZM169.854 42.722C170.25 42.11 170.7 41.21 171.132 40.328L169.98 39.878C169.728 40.634 169.242 41.66 168.846 42.326L169.854 42.722ZM165.3 42.398C165.174 41.858 164.868 41.084 164.526 40.508L163.41 40.958C163.716 41.552 164.04 42.38 164.13 42.938L165.3 42.398ZM166.452 48.014C166.434 48.464 166.398 48.896 166.344 49.274H163.068V50.534H166.056C165.642 51.83 164.742 52.676 162.78 53.234C163.086 53.504 163.482 54.062 163.626 54.422C165.372 53.882 166.398 53.09 167.01 52.01C168.162 52.73 169.404 53.648 170.034 54.296L171.006 53.27C170.25 52.532 168.738 51.56 167.514 50.84L167.568 50.534H171.06V49.274H167.802C167.856 48.878 167.892 48.446 167.91 48.014H166.452ZM168.558 45.602C168.774 45.89 168.972 46.214 169.17 46.556L166.038 46.808C167.352 45.962 168.684 44.936 169.944 43.73L168.9 42.938C168.414 43.442 167.874 43.946 167.352 44.396L165.462 44.432C166.074 43.946 166.704 43.334 167.262 42.722L166.92 42.488L168.036 42.002C167.928 41.48 167.622 40.706 167.334 40.13L166.2 40.562C166.47 41.156 166.758 41.912 166.848 42.434L166.2 41.984C165.534 42.938 164.544 43.784 164.238 44.018C163.95 44.234 163.698 44.396 163.446 44.45C163.572 44.81 163.752 45.512 163.806 45.8C164.04 45.71 164.364 45.638 165.912 45.566C165.372 45.944 164.94 46.25 164.688 46.394C164.112 46.772 163.68 47.006 163.284 47.078C163.392 47.438 163.572 48.158 163.626 48.428C164.04 48.212 164.652 48.158 169.746 47.636C169.908 47.96 170.034 48.266 170.124 48.518L171.348 47.996C171.06 47.186 170.394 45.998 169.71 45.116L168.558 45.602ZM173.508 49.958H175.416V52.082H173.508V49.958ZM175.416 44.99H173.508V42.974H175.416V44.99ZM175.416 48.536H173.508V46.412H175.416V48.536ZM179.376 52.082H176.91V49.958H178.908V48.536H176.91V46.412H178.908V44.99H176.91V42.974H179.16V41.462H176.91L177.756 41.156C177.486 40.418 176.946 39.266 176.46 38.402L175.056 38.834C175.506 39.626 175.974 40.724 176.244 41.462H173.58C173.994 40.436 174.318 39.356 174.606 38.276L173.04 37.898C172.428 40.418 171.402 42.92 170.07 44.504C170.412 44.81 170.988 45.494 171.222 45.818C171.492 45.476 171.744 45.116 171.996 44.702V54.404H173.508V53.594H179.376V52.082ZM195.216 40.85H189.726V39.698H195.216V40.85ZM195.216 43.154H189.726V41.984H195.216V43.154ZM196.872 38.474H188.142V44.378H196.872V38.474ZM186.684 39.842C186.036 39.212 184.668 38.456 183.606 38.006L182.67 39.248C183.732 39.752 185.082 40.598 185.694 41.21L186.684 39.842ZM185.766 44.504C185.1 43.928 183.732 43.208 182.67 42.794L181.734 44.054C182.832 44.522 184.164 45.314 184.794 45.908L185.766 44.504ZM184.974 47.456C184.092 49.508 182.904 51.812 182.076 53.198L183.57 54.188C184.47 52.496 185.496 50.354 186.27 48.464L184.974 47.456ZM198.312 46.682V45.314H186.522V46.682H188.826C188.052 47.96 186.918 49.148 185.73 49.94C186.072 50.192 186.648 50.678 186.9 50.948C187.566 50.444 188.25 49.796 188.862 49.076H190.302C189.402 50.606 188.052 51.992 186.63 52.91C186.954 53.162 187.53 53.684 187.782 53.954C189.366 52.784 190.932 51.02 191.976 49.076H193.416C192.732 50.876 191.616 52.46 190.248 53.504C190.59 53.702 191.202 54.17 191.454 54.422C192.912 53.162 194.19 51.254 194.982 49.076H196.134C195.954 51.524 195.738 52.496 195.468 52.784C195.324 52.964 195.18 53 194.946 52.982C194.712 52.982 194.172 52.982 193.578 52.928C193.812 53.306 193.956 53.936 193.992 54.368C194.694 54.404 195.378 54.404 195.756 54.35C196.188 54.296 196.512 54.17 196.8 53.828C197.286 53.288 197.538 51.884 197.772 48.41C197.79 48.194 197.808 47.762 197.808 47.762H189.87C190.104 47.402 190.32 47.042 190.518 46.682H198.312ZM208.104 38.15V52.208C208.104 52.568 207.978 52.676 207.6 52.694C207.222 52.712 205.908 52.712 204.684 52.658C204.954 53.144 205.242 53.936 205.35 54.404C207.06 54.422 208.212 54.368 208.932 54.098C209.634 53.81 209.922 53.324 209.922 52.208V38.15H208.104ZM212.406 42.74C213.864 45.332 215.286 48.68 215.664 50.804L217.482 50.084C217.032 47.906 215.556 44.63 214.026 42.128L212.406 42.74ZM203.442 42.272C203.028 44.648 202.074 47.744 200.562 49.616C201.012 49.778 201.75 50.192 202.164 50.498C203.73 48.5 204.738 45.242 205.332 42.614L203.442 42.272ZM235.14 50.156C233.754 49.49 231.036 48.392 229.218 47.708L228.354 49.004C230.226 49.778 232.908 50.948 234.204 51.668L235.14 50.156ZM235.896 45.998V44.342H228.3V41.858H234.15V40.256H228.3V37.916H226.536V44.342H219.858V45.998H226.59V54.404H228.354V45.998H235.896Z" fill="#573605"/>
<path d="M195.799 294.028L188.609 293.399L189.123 287.518L195.292 288.057L195.435 286.425L181.376 285.196L181.234 286.827L187.402 287.367L186.887 293.249L179.787 292.627L179.639 294.313L186.74 294.934L186.207 301.031L187.928 301.181L188.461 295.085L195.652 295.714L195.799 294.028ZM182.294 288.131C182.83 289.442 183.294 291.163 183.437 292.206L185.08 291.808C184.938 290.747 184.396 289.092 183.841 287.796L182.294 288.131ZM191.828 292.958C192.579 292.012 193.509 290.467 194.277 289.125L192.544 288.485C192.04 289.706 191.138 291.344 190.434 292.366L191.828 292.958Z" fill="#927858"/>
<path d="M204.595 288.691L215.838 287.708L216.031 289.913L217.806 289.758L217.476 285.992L211.398 286.524C211.074 285.92 210.57 285.115 210.171 284.481L208.381 285.089C208.658 285.571 209.002 286.192 209.282 286.709L202.773 287.279L203.102 291.044L204.788 290.897L204.595 288.691ZM213.006 293.141C212.715 294.359 212.262 295.374 211.578 296.229C210.354 295.867 209.097 295.543 207.897 295.25C208.176 294.72 208.45 294.136 208.739 293.514L213.006 293.141ZM218.493 292.661L218.355 291.083L215.289 291.351C215.354 290.858 215.399 290.33 215.441 289.784L213.401 289.8C213.382 290.416 213.343 290.997 213.281 291.527L209.461 291.861C209.833 290.943 210.167 290.011 210.416 289.14L208.485 288.965C208.226 289.927 207.849 290.99 207.399 292.041L202.809 292.443L202.947 294.021L206.641 293.698C206.199 294.64 205.715 295.513 205.291 296.237C206.84 296.59 208.559 297.035 210.249 297.556C208.692 298.758 206.502 299.546 203.573 300.146C203.969 300.545 204.56 301.306 204.759 301.722C208.085 300.907 210.521 299.845 212.222 298.215C214.419 298.962 216.408 299.8 217.738 300.551L218.865 298.971C217.484 298.26 215.519 297.493 213.418 296.809C214.155 295.733 214.659 294.478 214.997 292.967L218.493 292.661Z" fill="#927858"/>
</g>
</g>
<defs>
<filter id="filter0_d_114_13387" x="-4" y="1" width="408" height="407" filterUnits="userSpaceOnUse" color-interpolation-filters="sRGB">
<feFlood flood-opacity="0" result="BackgroundImageFix"/>
<feColorMatrix in="SourceAlpha" type="matrix" values="0 0 0 0 0 0 0 0 0 0 0 0 0 0 0 0 0 0 127 0" result="hardAlpha"/>
<feOffset dy="4"/>
<feGaussianBlur stdDeviation="2"/>
<feComposite in2="hardAlpha" operator="out"/>
<feColorMatrix type="matrix" values="0 0 0 0 0 0 0 0 0 0 0 0 0 0 0 0 0 0 0.25 0"/>
<feBlend mode="normal" in2="BackgroundImageFix" result="effect1_dropShadow_114_13387"/>
<feBlend mode="normal" in="SourceGraphic" in2="effect1_dropShadow_114_13387" result="shape"/>
</filter>
<filter id="filter1_i_114_13387" x="0" y="1" width="400" height="203" filterUnits="userSpaceOnUse" color-interpolation-filters="sRGB">
<feFlood flood-opacity="0" result="BackgroundImageFix"/>
<feBlend mode="normal" in="SourceGraphic" in2="BackgroundImageFix" result="shape"/>
<feColorMatrix in="SourceAlpha" type="matrix" values="0 0 0 0 0 0 0 0 0 0 0 0 0 0 0 0 0 0 127 0" result="hardAlpha"/>
<feOffset dy="4"/>
<feGaussianBlur stdDeviation="2"/>
<feComposite in2="hardAlpha" operator="arithmetic" k2="-1" k3="1"/>
<feColorMatrix type="matrix" values="0 0 0 0 0 0 0 0 0 0 0 0 0 0 0 0 0 0 0.35 0"/>
<feBlend mode="normal" in2="shape" result="effect1_innerShadow_114_13387"/>
</filter>
<filter id="filter2_i_114_13387" x="0" y="198" width="400" height="202" filterUnits="userSpaceOnUse" color-interpolation-filters="sRGB">
<feFlood flood-opacity="0" result="BackgroundImageFix"/>
<feBlend mode="normal" in="SourceGraphic" in2="BackgroundImageFix" result="shape"/>
<feColorMatrix in="SourceAlpha" type="matrix" values="0 0 0 0 0 0 0 0 0 0 0 0 0 0 0 0 0 0 127 0" result="hardAlpha"/>
<feOffset dy="-2"/>
<feGaussianBlur stdDeviation="2"/>
<feComposite in2="hardAlpha" operator="arithmetic" k2="-1" k3="1"/>
<feColorMatrix type="matrix" values="0 0 0 0 0 0 0 0 0 0 0 0 0 0 0 0 0 0 0.25 0"/>
<feBlend mode="normal" in2="shape" result="effect1_innerShadow_114_13387"/>
</filter>
<filter id="filter3_di_114_13387" x="-8" y="200" width="416" height="158" filterUnits="userSpaceOnUse" color-interpolation-filters="sRGB">
<feFlood flood-opacity="0" result="BackgroundImageFix"/>
<feColorMatrix in="SourceAlpha" type="matrix" values="0 0 0 0 0 0 0 0 0 0 0 0 0 0 0 0 0 0 127 0" result="hardAlpha"/>
<feOffset dy="10"/>
<feGaussianBlur stdDeviation="4"/>
<feComposite in2="hardAlpha" operator="out"/>
<feColorMatrix type="matrix" values="0 0 0 0 0 0 0 0 0 0 0 0 0 0 0 0 0 0 0.25 0"/>
<feBlend mode="normal" in2="BackgroundImageFix" result="effect1_dropShadow_114_13387"/>
<feBlend mode="normal" in="SourceGraphic" in2="effect1_dropShadow_114_13387" result="shape"/>
<feColorMatrix in="SourceAlpha" type="matrix" values="0 0 0 0 0 0 0 0 0 0 0 0 0 0 0 0 0 0 127 0" result="hardAlpha"/>
<feOffset dy="3"/>
<feGaussianBlur stdDeviation="4"/>
<feComposite in2="hardAlpha" operator="arithmetic" k2="-1" k3="1"/>
<feColorMatrix type="matrix" values="0 0 0 0 0 0 0 0 0 0 0 0 0 0 0 0 0 0 0.25 0"/>
<feBlend mode="normal" in2="shape" result="effect2_innerShadow_114_13387"/>
</filter>
<clipPath id="clip0_114_13387">
<rect width="400" height="400" fill="white"/>
</clipPath>
</defs>
</svg>
