<svg width="425" height="425" viewBox="0 0 425 425" fill="none" xmlns="http://www.w3.org/2000/svg">
<g filter="url(#filter0_i_114_13267)">
<path d="M412 213C412 160.222 390.929 109.605 353.421 72.2858C315.914 34.966 265.043 14 212 14C158.957 14 108.086 34.966 70.5787 72.2857C33.0714 109.605 12 160.222 12 213L412 213Z" fill="#FDBF52"/>
</g>
<path d="M372 214C372 171.565 355.143 130.869 325.137 100.863C295.131 70.8571 254.435 54 212 54C169.565 54 128.869 70.8571 98.8629 100.863C68.8571 130.869 52 171.565 52 214" stroke="#FCDBA3" stroke-width="3"/>
<path d="M12 213C12 266.043 33.0714 316.914 70.5786 354.421C108.086 391.929 158.957 413 212 413C265.043 413 315.914 391.929 353.421 354.421C390.929 316.914 412 266.043 412 213L212 213L12 213Z" fill="#FDBF52"/>
<path d="M12 213C12 266.043 33.0714 316.914 70.5786 354.421C108.086 391.929 158.957 413 212 413C265.043 413 315.914 391.929 353.421 354.421C390.929 316.914 412 266.043 412 213L212 213L12 213Z" fill="black" fill-opacity="0.2"/>
<g filter="url(#filter1_di_114_13267)">
<path d="M12 213C12 250.13 33.0714 285.74 70.5786 311.995C108.086 338.25 158.957 353 212 353C265.043 353 315.914 338.25 353.421 311.995C390.929 285.74 412 250.13 412 213L212 213L12 213Z" fill="#FCDBA3"/>
</g>
<path d="M52 213C52 242.704 68.8571 271.192 98.8629 292.196C128.869 313.2 169.565 325 212 325C254.435 325 295.131 313.2 325.137 292.196C355.143 271.192 372 242.704 372 213" stroke="#FDBF52" stroke-width="3"/>
<path d="M146.604 123.888V127.152H175.724V123.888H146.604ZM196.588 128.912C198.156 127.984 199.66 126.832 201.004 125.52C202.284 126.768 203.756 127.952 205.42 128.912H196.588ZM197.388 136.752V131.44H204.524V136.752H197.388ZM192.428 126.704H188.684V122.48H192.14V121.04C192.812 121.552 193.74 122.32 194.188 122.8C195.02 121.936 195.884 120.912 196.652 119.792C197.356 121.008 198.156 122.256 199.18 123.472C197.164 125.456 194.828 126.992 192.428 128.016V126.704ZM184.172 114.992H189.388V119.92H184.172V114.992ZM203.756 116.848C203.02 118.544 202.06 120.112 200.908 121.52C199.756 120.176 198.86 118.8 198.124 117.424L198.412 116.848H203.756ZM205.548 114.192L205.036 114.32H199.596C199.948 113.52 200.268 112.688 200.556 111.856L197.676 111.152C196.556 114.832 194.54 118.288 192.14 120.624V112.432H181.58V122.48H186.028V134.96L183.916 135.44V125.168H181.484V135.952C180.94 136.048 180.428 136.144 179.948 136.24L180.46 139.12C183.916 138.32 188.556 137.2 192.94 136.08L192.652 133.456L188.684 134.384V129.328H192.428V129.296C192.748 129.744 193.068 130.224 193.26 130.608C193.74 130.416 194.188 130.192 194.668 129.968V140.432H197.388V139.312H204.524V140.336H207.372V129.936L208.012 130.192C208.396 129.456 209.26 128.272 209.836 127.728C207.116 126.768 204.812 125.296 202.86 123.536C204.844 121.168 206.444 118.32 207.436 114.992L205.548 114.192ZM221.26 115.824C220.748 114.608 219.66 112.784 218.764 111.344L216.396 112.368C217.26 113.808 218.348 115.76 218.86 117.008L221.26 115.824ZM232.364 128.752V131.536H228.268V128.752H232.364ZM239.34 131.536H235.052V128.752H239.34V131.536ZM235.052 136.688V133.808H239.34V136.688H235.052ZM228.268 133.808H232.364V136.688H228.268V133.808ZM225.516 127.888C224.62 127.056 222.796 125.424 221.868 124.656C223.276 122.608 224.492 120.336 225.356 118L223.692 116.976L223.18 117.072H214.156V119.76H221.676C219.724 123.728 216.332 127.472 212.972 129.584C213.42 130.096 214.188 131.536 214.412 132.336C215.724 131.408 217.004 130.32 218.252 129.04V140.528H221.164V127.248C222.252 128.368 223.468 129.776 224.108 130.608L225.516 128.656V140.496H228.268V139.088H239.34V140.432H242.188V126.32H225.516V127.888ZM238.028 122.224H229.804V119.248H238.028V122.224ZM227.148 116.912V124.56H240.78V116.912H227.148ZM225.356 112.624V115.152H242.348V112.624H225.356ZM254.156 119.184H269.516V121.552H254.156V119.184ZM254.156 114.704H269.516V116.976H254.156V114.704ZM263.5 137.136V134.192H272.428V131.856H263.5V129.328H273.804V126.832H263.5V124.528H260.428V126.832H254.828C255.244 126.096 255.692 125.36 256.044 124.624L253.548 123.888H272.588V112.368H251.244V123.888H253.068C251.852 126.544 249.74 129.136 247.468 130.832C248.204 131.216 249.42 132.144 249.996 132.656C251.02 131.76 252.076 130.608 253.1 129.328H260.428V131.856H251.852V134.192H260.428V137.136H248.044V139.696H275.82V137.136H263.5ZM175.084 157.232V154.576H160.94C161.324 153.68 161.676 152.752 161.996 151.856L159.116 151.12C157.996 154.768 156.044 158.448 153.9 160.752C154.572 161.136 155.884 161.936 156.46 162.416C157.612 161.04 158.732 159.216 159.724 157.232H175.084ZM155.5 154.832C154.252 153.808 151.788 152.432 149.9 151.6L148.236 153.648C150.124 154.576 152.556 156.048 153.74 157.104L155.5 154.832ZM153.388 163.888C152.268 162.896 149.932 161.584 148.172 160.752L146.54 162.768C148.3 163.664 150.604 165.136 151.692 166.16L153.388 163.888ZM149.996 179.984C151.372 176.976 152.908 173.104 154.124 169.744L151.788 168.112C150.508 171.76 148.684 175.888 147.436 178.416L149.996 179.984ZM166.284 173.264L167.532 172.4C166.828 171.408 165.388 170.032 164.108 169.04H170.572C170.476 170.736 170.348 172.144 170.22 173.264H166.284ZM163.596 169.04L162.22 169.904C163.372 170.864 164.748 172.24 165.516 173.264H159.372C159.596 171.984 159.788 170.544 160.012 169.04H163.596ZM164.236 162.48L163.02 163.28C164.076 164.144 165.324 165.36 166.06 166.32H160.364C160.524 165.04 160.716 163.728 160.812 162.48H164.236ZM170.924 162.48C170.86 163.856 170.796 165.168 170.732 166.32H166.86L167.98 165.52C167.372 164.656 166.092 163.408 164.94 162.48H170.924ZM175.916 169.04V166.32H173.484C173.548 164.816 173.644 163.12 173.708 161.232C173.74 160.848 173.772 159.92 173.772 159.92H158.316C158.124 161.84 157.9 164.08 157.612 166.32H154.348V169.04H157.228C156.876 171.568 156.46 173.968 156.108 175.824H169.804C169.644 176.624 169.42 177.136 169.196 177.392C168.876 177.808 168.588 177.872 168.012 177.872C167.404 177.872 166.028 177.872 164.492 177.712C164.94 178.416 165.196 179.504 165.26 180.208C166.796 180.304 168.364 180.336 169.26 180.208C170.252 180.08 170.988 179.824 171.628 178.928C172.044 178.448 172.364 177.488 172.62 175.824H175.052V173.264H172.972C173.1 172.08 173.196 170.704 173.292 169.04H175.916ZM208.396 156.368V153.328H181.004V156.368H194.508C191.436 161.584 186.188 166.704 180.108 169.68C180.748 170.32 181.676 171.536 182.156 172.336C186.284 170.16 189.996 167.12 193.068 163.696V180.496H196.3V159.664C197.068 158.576 197.74 157.456 198.412 156.368H208.396ZM196.428 163.152C200.076 165.744 204.812 169.552 206.956 172.016L209.452 169.712C207.116 167.248 202.252 163.632 198.668 161.232L196.428 163.152ZM222.572 154.736C221.324 153.744 218.796 152.336 217.004 151.44L215.308 153.584C217.164 154.576 219.66 156.144 220.812 157.136L222.572 154.736ZM220.908 163.056C219.628 162.128 217.036 160.784 215.18 159.952L213.516 162.16C215.404 163.088 217.996 164.528 219.18 165.52L220.908 163.056ZM219.468 168.176C217.868 171.792 215.756 175.92 214.252 178.352L216.876 180.144C218.508 177.136 220.332 173.296 221.74 169.968L219.468 168.176ZM237.196 166.064C236.332 168.496 235.084 170.576 233.548 172.304C231.884 170.512 230.54 168.4 229.58 166.064H237.196ZM231.148 158.352V163.44H226.476V158.352H231.148ZM238.956 163.312L238.38 163.44H234.06V158.352H239.084C238.636 159.632 238.156 160.912 237.74 161.84L240.268 162.576C241.164 160.944 242.156 158.352 242.924 156.016L240.78 155.472L240.268 155.568H234.06V151.152H231.148V155.568H223.628V163.632C223.628 168.24 223.308 174.576 219.948 179.024C220.684 179.28 221.932 180.016 222.476 180.496C225.42 176.528 226.252 170.768 226.444 166.064H226.764C227.916 169.2 229.516 171.952 231.564 174.288C229.484 175.984 227.084 177.232 224.428 178.096C225.036 178.64 225.932 179.888 226.316 180.592C228.972 179.6 231.468 178.192 233.58 176.304C235.756 178.128 238.252 179.568 241.228 180.528C241.612 179.728 242.476 178.576 243.148 177.968C240.268 177.2 237.772 175.92 235.66 174.256C237.964 171.6 239.756 168.304 240.812 164.144L238.956 163.312ZM266.796 162.896C269.388 164.304 272.908 166.512 274.604 167.888L276.044 165.68C274.156 164.304 270.636 162.256 268.108 160.976L266.796 162.896ZM254.828 160.432H275.916V157.776H254.828V160.432ZM270.252 151.216C269.612 152.816 268.428 155.088 267.5 156.496L269.868 157.52C270.892 156.24 272.14 154.224 273.228 152.368L270.252 151.216ZM263.148 156.272C262.476 154.864 261.164 152.72 260.012 151.12L257.548 152.272C258.636 153.904 260.012 156.176 260.588 157.616L263.148 156.272ZM255.052 155.92C253.996 154.704 251.756 152.912 249.996 151.76L248.172 153.52C249.9 154.8 252.076 156.688 253.068 157.904L255.052 155.92ZM254.252 163.984C253.132 162.768 250.828 161.104 248.972 159.952L247.148 161.84C249.004 163.088 251.276 164.88 252.3 166.128L254.252 163.984ZM251.692 168.016C250.636 171.6 249.164 175.664 248.108 178.128L250.572 179.472C251.724 176.528 252.972 172.688 253.932 169.424L251.692 168.016ZM259.244 169.968H261.932V176.592H259.244V169.968ZM266.732 169.968V176.592H264.044V169.968H266.732ZM271.564 169.968V176.592H268.876V169.968H271.564ZM274.06 176.592V167.536H257.132C259.468 166.192 262.188 164.144 263.724 162.448L261.612 161.072C260.044 162.704 256.876 164.72 254.476 165.68C255.084 166.256 255.852 167.344 256.204 168.048C256.428 167.952 256.62 167.824 256.844 167.696V176.592H253.9V179.248H276.556V176.592H274.06Z" fill="white"/>
<rect x="165" y="45" width="92.5" height="26" fill="#FDBF52"/>
<path d="M182.268 51.078C180.522 51.636 177.588 52.032 175.122 52.212C175.23 52.554 175.374 53.058 175.41 53.436C177.93 53.292 180.936 52.914 182.934 52.302L182.268 51.078ZM181.854 55.722C182.25 55.11 182.7 54.21 183.132 53.328L181.98 52.878C181.728 53.634 181.242 54.66 180.846 55.326L181.854 55.722ZM177.3 55.398C177.174 54.858 176.868 54.084 176.526 53.508L175.41 53.958C175.716 54.552 176.04 55.38 176.13 55.938L177.3 55.398ZM178.452 61.014C178.434 61.464 178.398 61.896 178.344 62.274H175.068V63.534H178.056C177.642 64.83 176.742 65.676 174.78 66.234C175.086 66.504 175.482 67.062 175.626 67.422C177.372 66.882 178.398 66.09 179.01 65.01C180.162 65.73 181.404 66.648 182.034 67.296L183.006 66.27C182.25 65.532 180.738 64.56 179.514 63.84L179.568 63.534H183.06V62.274H179.802C179.856 61.878 179.892 61.446 179.91 61.014H178.452ZM180.558 58.602C180.774 58.89 180.972 59.214 181.17 59.556L178.038 59.808C179.352 58.962 180.684 57.936 181.944 56.73L180.9 55.938C180.414 56.442 179.874 56.946 179.352 57.396L177.462 57.432C178.074 56.946 178.704 56.334 179.262 55.722L178.92 55.488L180.036 55.002C179.928 54.48 179.622 53.706 179.334 53.13L178.2 53.562C178.47 54.156 178.758 54.912 178.848 55.434L178.2 54.984C177.534 55.938 176.544 56.784 176.238 57.018C175.95 57.234 175.698 57.396 175.446 57.45C175.572 57.81 175.752 58.512 175.806 58.8C176.04 58.71 176.364 58.638 177.912 58.566C177.372 58.944 176.94 59.25 176.688 59.394C176.112 59.772 175.68 60.006 175.284 60.078C175.392 60.438 175.572 61.158 175.626 61.428C176.04 61.212 176.652 61.158 181.746 60.636C181.908 60.96 182.034 61.266 182.124 61.518L183.348 60.996C183.06 60.186 182.394 58.998 181.71 58.116L180.558 58.602ZM185.508 62.958H187.416V65.082H185.508V62.958ZM187.416 57.99H185.508V55.974H187.416V57.99ZM187.416 61.536H185.508V59.412H187.416V61.536ZM191.376 65.082H188.91V62.958H190.908V61.536H188.91V59.412H190.908V57.99H188.91V55.974H191.16V54.462H188.91L189.756 54.156C189.486 53.418 188.946 52.266 188.46 51.402L187.056 51.834C187.506 52.626 187.974 53.724 188.244 54.462H185.58C185.994 53.436 186.318 52.356 186.606 51.276L185.04 50.898C184.428 53.418 183.402 55.92 182.07 57.504C182.412 57.81 182.988 58.494 183.222 58.818C183.492 58.476 183.744 58.116 183.996 57.702V67.404H185.508V66.594H191.376V65.082ZM207.216 53.85H201.726V52.698H207.216V53.85ZM207.216 56.154H201.726V54.984H207.216V56.154ZM208.872 51.474H200.142V57.378H208.872V51.474ZM198.684 52.842C198.036 52.212 196.668 51.456 195.606 51.006L194.67 52.248C195.732 52.752 197.082 53.598 197.694 54.21L198.684 52.842ZM197.766 57.504C197.1 56.928 195.732 56.208 194.67 55.794L193.734 57.054C194.832 57.522 196.164 58.314 196.794 58.908L197.766 57.504ZM196.974 60.456C196.092 62.508 194.904 64.812 194.076 66.198L195.57 67.188C196.47 65.496 197.496 63.354 198.27 61.464L196.974 60.456ZM210.312 59.682V58.314H198.522V59.682H200.826C200.052 60.96 198.918 62.148 197.73 62.94C198.072 63.192 198.648 63.678 198.9 63.948C199.566 63.444 200.25 62.796 200.862 62.076H202.302C201.402 63.606 200.052 64.992 198.63 65.91C198.954 66.162 199.53 66.684 199.782 66.954C201.366 65.784 202.932 64.02 203.976 62.076H205.416C204.732 63.876 203.616 65.46 202.248 66.504C202.59 66.702 203.202 67.17 203.454 67.422C204.912 66.162 206.19 64.254 206.982 62.076H208.134C207.954 64.524 207.738 65.496 207.468 65.784C207.324 65.964 207.18 66 206.946 65.982C206.712 65.982 206.172 65.982 205.578 65.928C205.812 66.306 205.956 66.936 205.992 67.368C206.694 67.404 207.378 67.404 207.756 67.35C208.188 67.296 208.512 67.17 208.8 66.828C209.286 66.288 209.538 64.884 209.772 61.41C209.79 61.194 209.808 60.762 209.808 60.762H201.87C202.104 60.402 202.32 60.042 202.518 59.682H210.312ZM220.104 51.15V65.208C220.104 65.568 219.978 65.676 219.6 65.694C219.222 65.712 217.908 65.712 216.684 65.658C216.954 66.144 217.242 66.936 217.35 67.404C219.06 67.422 220.212 67.368 220.932 67.098C221.634 66.81 221.922 66.324 221.922 65.208V51.15H220.104ZM224.406 55.74C225.864 58.332 227.286 61.68 227.664 63.804L229.482 63.084C229.032 60.906 227.556 57.63 226.026 55.128L224.406 55.74ZM215.442 55.272C215.028 57.648 214.074 60.744 212.562 62.616C213.012 62.778 213.75 63.192 214.164 63.498C215.73 61.5 216.738 58.242 217.332 55.614L215.442 55.272ZM247.14 63.156C245.754 62.49 243.036 61.392 241.218 60.708L240.354 62.004C242.226 62.778 244.908 63.948 246.204 64.668L247.14 63.156ZM247.896 58.998V57.342H240.3V54.858H246.15V53.256H240.3V50.916H238.536V57.342H231.858V58.998H238.59V67.404H240.354V58.998H247.896Z" fill="#573605"/>
<path d="M207.799 307.028L200.609 306.399L201.123 300.518L207.292 301.057L207.435 299.425L193.376 298.196L193.234 299.827L199.402 300.367L198.887 306.249L191.787 305.627L191.639 307.313L198.74 307.934L198.207 314.031L199.928 314.181L200.461 308.085L207.652 308.714L207.799 307.028ZM194.294 301.131C194.83 302.442 195.294 304.163 195.437 305.206L197.08 304.808C196.938 303.747 196.396 302.092 195.841 300.796L194.294 301.131ZM203.828 305.958C204.579 305.012 205.509 303.467 206.277 302.125L204.544 301.485C204.04 302.706 203.138 304.344 202.434 305.366L203.828 305.958Z" fill="#927858"/>
<path d="M216.595 301.691L227.838 300.708L228.031 302.913L229.806 302.758L229.476 298.992L223.398 299.524C223.074 298.92 222.57 298.115 222.171 297.481L220.381 298.089C220.658 298.571 221.002 299.192 221.282 299.709L214.773 300.279L215.102 304.044L216.788 303.897L216.595 301.691ZM225.006 306.141C224.715 307.359 224.262 308.374 223.578 309.229C222.354 308.867 221.097 308.543 219.897 308.25C220.176 307.72 220.45 307.136 220.739 306.514L225.006 306.141ZM230.493 305.661L230.355 304.083L227.289 304.351C227.354 303.858 227.399 303.33 227.441 302.784L225.401 302.8C225.382 303.416 225.343 303.997 225.281 304.527L221.461 304.861C221.833 303.943 222.167 303.011 222.416 302.14L220.485 301.965C220.226 302.927 219.849 303.99 219.399 305.041L214.809 305.443L214.947 307.021L218.641 306.698C218.199 307.64 217.715 308.513 217.291 309.237C218.84 309.59 220.559 310.035 222.249 310.556C220.692 311.758 218.502 312.546 215.573 313.146C215.969 313.545 216.56 314.306 216.759 314.722C220.085 313.907 222.521 312.845 224.222 311.215C226.419 311.962 228.408 312.8 229.738 313.551L230.865 311.971C229.484 311.26 227.519 310.493 225.418 309.809C226.155 308.733 226.659 307.478 226.997 305.967L230.493 305.661Z" fill="#927858"/>
<defs>
<filter id="filter0_i_114_13267" x="12" y="14" width="400" height="203" filterUnits="userSpaceOnUse" color-interpolation-filters="sRGB">
<feFlood flood-opacity="0" result="BackgroundImageFix"/>
<feBlend mode="normal" in="SourceGraphic" in2="BackgroundImageFix" result="shape"/>
<feColorMatrix in="SourceAlpha" type="matrix" values="0 0 0 0 0 0 0 0 0 0 0 0 0 0 0 0 0 0 127 0" result="hardAlpha"/>
<feOffset dy="4"/>
<feGaussianBlur stdDeviation="2"/>
<feComposite in2="hardAlpha" operator="arithmetic" k2="-1" k3="1"/>
<feColorMatrix type="matrix" values="0 0 0 0 0 0 0 0 0 0 0 0 0 0 0 0 0 0 0.35 0"/>
<feBlend mode="normal" in2="shape" result="effect1_innerShadow_114_13267"/>
</filter>
<filter id="filter1_di_114_13267" x="8" y="213" width="408" height="148" filterUnits="userSpaceOnUse" color-interpolation-filters="sRGB">
<feFlood flood-opacity="0" result="BackgroundImageFix"/>
<feColorMatrix in="SourceAlpha" type="matrix" values="0 0 0 0 0 0 0 0 0 0 0 0 0 0 0 0 0 0 127 0" result="hardAlpha"/>
<feOffset dy="4"/>
<feGaussianBlur stdDeviation="2"/>
<feComposite in2="hardAlpha" operator="out"/>
<feColorMatrix type="matrix" values="0 0 0 0 0 0 0 0 0 0 0 0 0 0 0 0 0 0 0.25 0"/>
<feBlend mode="normal" in2="BackgroundImageFix" result="effect1_dropShadow_114_13267"/>
<feBlend mode="normal" in="SourceGraphic" in2="effect1_dropShadow_114_13267" result="shape"/>
<feColorMatrix in="SourceAlpha" type="matrix" values="0 0 0 0 0 0 0 0 0 0 0 0 0 0 0 0 0 0 127 0" result="hardAlpha"/>
<feOffset dy="3"/>
<feGaussianBlur stdDeviation="4"/>
<feComposite in2="hardAlpha" operator="arithmetic" k2="-1" k3="1"/>
<feColorMatrix type="matrix" values="0 0 0 0 0 0 0 0 0 0 0 0 0 0 0 0 0 0 0.25 0"/>
<feBlend mode="normal" in2="shape" result="effect2_innerShadow_114_13267"/>
</filter>
</defs>
</svg>
