<svg width="425" height="425" viewBox="0 0 425 425" fill="none" xmlns="http://www.w3.org/2000/svg">
<g filter="url(#filter0_i_114_13372)">
<path d="M412 213C412 160.222 390.929 109.605 353.421 72.2858C315.914 34.966 265.043 14 212 14C158.957 14 108.086 34.966 70.5787 72.2857C33.0714 109.605 12 160.222 12 213L412 213Z" fill="#FDBF52"/>
</g>
<path d="M372 214C372 171.565 355.143 130.869 325.137 100.863C295.131 70.8571 254.435 54 212 54C169.565 54 128.869 70.8571 98.8629 100.863C68.8571 130.869 52 171.565 52 214" stroke="#FCDBA3" stroke-width="3"/>
<path d="M12 213C12 266.043 33.0714 316.914 70.5786 354.421C108.086 391.929 158.957 413 212 413C265.043 413 315.914 391.929 353.421 354.421C390.929 316.914 412 266.043 412 213L212 213L12 213Z" fill="#FDBF52"/>
<path d="M12 213C12 266.043 33.0714 316.914 70.5786 354.421C108.086 391.929 158.957 413 212 413C265.043 413 315.914 391.929 353.421 354.421C390.929 316.914 412 266.043 412 213L212 213L12 213Z" fill="black" fill-opacity="0.2"/>
<g filter="url(#filter1_di_114_13372)">
<path d="M12 213C12 250.13 33.0714 285.74 70.5786 311.995C108.086 338.25 158.957 353 212 353C265.043 353 315.914 338.25 353.421 311.995C390.929 285.74 412 250.13 412 213L212 213L12 213Z" fill="#FCDBA3"/>
</g>
<path d="M52 213C52 242.704 68.8571 271.192 98.8629 292.196C128.869 313.2 169.565 325 212 325C254.435 325 295.131 313.2 325.137 292.196C355.143 271.192 372 242.704 372 213" stroke="#FDBF52" stroke-width="3"/>
<path d="M164.78 115.28C164.268 114.832 163.596 114.352 162.828 113.872C163.468 113.264 164.012 112.624 164.492 111.984L162.476 111.44C162.124 111.888 161.676 112.4 161.132 112.848C160.428 112.432 159.66 112.048 158.988 111.728L157.548 112.976C158.22 113.264 158.924 113.648 159.564 114.032C158.764 114.608 157.836 115.12 156.94 115.504C157.452 115.824 158.22 116.56 158.572 116.88C159.468 116.432 160.428 115.792 161.324 115.12C162.124 115.632 162.828 116.144 163.308 116.624L164.78 115.28ZM152.652 121.04H156.684C157.132 121.36 157.868 122.096 158.188 122.512H152.716L152.652 121.04ZM150.316 124.752H171.852V128.624H174.796V122.512H172.364C172.62 119.632 172.908 115.536 173.068 112.304H165.452V114.256H170.156L170.092 115.696H165.612V117.616H169.964L169.836 119.088H165.452V121.04H169.708C169.644 121.552 169.58 122.032 169.548 122.512H158.38C159.308 121.968 160.332 121.36 161.26 120.624C162.156 121.232 162.892 121.808 163.404 122.32L164.908 120.944C164.364 120.432 163.66 119.888 162.796 119.312C163.468 118.672 164.044 118.032 164.556 117.36L162.54 116.72C162.156 117.264 161.676 117.776 161.1 118.288C160.364 117.84 159.564 117.424 158.86 117.072L157.42 118.32C158.092 118.64 158.828 119.056 159.5 119.472C158.668 120.048 157.708 120.56 156.812 120.976V119.088H152.492L152.396 117.616H156.684V115.696H152.3L152.204 114.416C153.804 114.128 155.532 113.68 156.908 113.168L155.628 111.408C153.964 111.92 151.212 112.72 149.356 113.04L149.932 122.512H147.5V128.624H150.316V124.752ZM175.34 132.048H162.892V131.792C165.324 130.736 167.82 129.36 169.676 127.92L167.98 126.384L167.34 126.544H152.844V128.72H164.3C162.956 129.552 161.388 130.32 159.98 130.896V132.048H146.86V134.48H159.98V137.456C159.98 137.872 159.82 138 159.308 138C158.828 138 156.972 138 155.212 137.936C155.596 138.64 156.012 139.696 156.172 140.464C158.668 140.464 160.3 140.464 161.452 140.048C162.572 139.664 162.892 138.96 162.892 137.552V134.48H175.34V132.048ZM202.124 126.512H189.644V123.76H202.124V126.512ZM189.548 131.792C189.612 131.024 189.644 130.256 189.644 129.552V129.008H202.124V131.792H189.548ZM208.716 117.936V115.152H192.78C193.228 114.064 193.58 112.944 193.932 111.856L190.892 111.152C190.54 112.464 190.092 113.808 189.548 115.152H180.78V117.936H188.3C186.316 121.776 183.596 125.328 180.076 127.696C180.684 128.272 181.58 129.328 182.028 130C183.756 128.784 185.292 127.344 186.668 125.712V129.488C186.668 132.464 186.412 135.952 183.724 138.416C184.3 138.832 185.484 140.08 185.868 140.752C187.756 139.024 188.748 136.688 189.228 134.288H202.124V137.04C202.124 137.52 201.964 137.68 201.42 137.68C200.876 137.712 198.956 137.712 197.068 137.616C197.452 138.416 197.9 139.696 197.996 140.496C200.652 140.496 202.444 140.496 203.564 140.016C204.716 139.568 205.036 138.672 205.036 137.072V121.136H189.9C190.508 120.112 191.052 119.024 191.596 117.936H208.716ZM223.884 121.776V126.352H218.348V125.424V121.776H223.884ZM226.732 129.04V119.088H218.348V116.4C221.772 115.984 225.516 115.312 228.14 114.288L226.22 111.792C223.66 112.88 219.212 113.68 215.404 114.16V125.424C215.404 129.584 215.244 134.96 213.196 138.768C213.868 139.088 215.116 140.08 215.628 140.656C217.452 137.52 218.06 133.008 218.252 129.04H226.732ZM242.956 121.84H232.364V116.464C235.884 115.952 239.692 115.184 242.444 114.128L240.46 111.568C237.772 112.72 233.292 113.68 229.356 114.256V124.496C229.356 128.976 228.972 134.672 224.94 138.608C225.612 138.992 226.828 140.048 227.308 140.624C231.628 136.464 232.332 129.68 232.364 124.72H236.62V140.4H239.564V124.72H242.956V121.84ZM271.468 121.328C270.54 124.272 269.356 126.928 267.82 129.296C267.084 126.448 266.572 122.992 266.252 119.184H276.3V116.272H273.036L274.572 114.64C273.324 113.552 270.924 112.08 269.036 111.088L267.244 112.912C268.94 113.84 271.02 115.216 272.268 116.272H266.092C265.996 114.608 265.964 112.912 265.996 111.184H262.86C262.86 112.88 262.924 114.608 263.02 116.272H249.868V125.328C249.868 129.456 249.644 134.96 247.084 138.8C247.756 139.184 249.068 140.24 249.58 140.848C252.396 136.72 252.94 130.32 252.972 125.776H258.092C257.996 130.608 257.804 132.432 257.452 132.88C257.228 133.168 256.908 133.264 256.46 133.264C255.948 133.264 254.7 133.232 253.388 133.104C253.836 133.872 254.124 135.024 254.188 135.888C255.724 135.952 257.164 135.952 257.964 135.824C258.828 135.728 259.436 135.472 260.012 134.8C260.684 133.904 260.844 131.152 261.004 124.208V123.056H252.972V119.184H263.212C263.596 124.176 264.332 128.752 265.484 132.368C263.532 134.64 261.164 136.496 258.508 137.968C259.18 138.512 260.236 139.76 260.684 140.4C262.892 139.056 264.908 137.424 266.732 135.504C268.172 138.512 270.028 140.304 272.364 140.304C274.988 140.304 276.076 138.8 276.556 133.168C275.756 132.88 274.7 132.208 273.996 131.504C273.804 135.632 273.42 137.264 272.588 137.264C271.244 137.264 269.996 135.6 268.908 132.88C271.244 129.808 273.132 126.192 274.476 122.064L271.468 121.328ZM175.02 157.52H167.116V151.152H163.852V157.52H147.34V160.56H160.812C157.356 166.032 151.852 171.44 146.316 174.224C147.18 174.928 148.14 176.08 148.652 176.912C154.38 173.584 160.236 167.504 163.852 161.488V176.272C163.852 176.88 163.596 177.072 162.956 177.104C162.316 177.104 160.076 177.136 157.964 177.04C158.38 177.904 158.86 179.312 158.988 180.176C162.156 180.176 164.14 180.112 165.388 179.6C166.604 179.12 167.116 178.256 167.116 176.272V160.56H175.02V157.52ZM198.668 172.688V175.152H190.476V172.688H198.668ZM201.292 177.296V170.544H187.724V178.768H190.476V177.296H201.292ZM207.724 166.512H181.708V180.528H184.62V168.976H204.716V177.584C204.716 177.968 204.556 178.096 204.14 178.096C203.788 178.128 202.188 178.128 200.844 178.064C201.196 178.704 201.612 179.6 201.772 180.272C203.916 180.304 205.388 180.272 206.38 179.92C207.372 179.536 207.724 178.992 207.724 177.584V166.512ZM201.324 162.864H188.204V160.496H201.324V162.864ZM185.26 158.416V164.976H204.46V158.416H185.26ZM196.748 154.352C196.428 153.328 195.916 152.048 195.5 151.024L192.492 151.728C192.78 152.528 193.1 153.488 193.388 154.352H180.684V156.88H208.588V154.352H196.748ZM221.868 153.488C221.356 162.448 220.076 173.008 213.548 178.576C214.284 178.992 215.468 180.048 215.98 180.624C222.828 174.608 224.332 163.408 225.132 153.68L221.868 153.488ZM227.916 152.848V155.856H230.636C231.948 165.968 234.444 175.408 240.076 180.72C240.812 180.08 242.156 179.088 243.02 178.64C237.164 173.616 234.508 163.568 233.324 152.848H227.916ZM262.7 157.104C261.004 155.824 257.612 154.032 255.18 152.944L253.452 155.184C255.948 156.464 259.244 158.32 260.876 159.664L262.7 157.104ZM259.788 164.592C257.932 163.28 254.188 161.424 251.5 160.304L249.74 162.544C252.492 163.824 256.14 165.808 257.9 167.152L259.788 164.592ZM276.108 170.512L275.692 167.664L268.652 168.688V151.184H265.516V169.104L247.756 171.632L248.204 174.576L265.516 172.048V180.528H268.652V171.6L276.108 170.512Z" fill="white"/>
<rect x="165" y="45" width="92.5" height="26" fill="#FDBF52"/>
<path d="M182.268 51.078C180.522 51.636 177.588 52.032 175.122 52.212C175.23 52.554 175.374 53.058 175.41 53.436C177.93 53.292 180.936 52.914 182.934 52.302L182.268 51.078ZM181.854 55.722C182.25 55.11 182.7 54.21 183.132 53.328L181.98 52.878C181.728 53.634 181.242 54.66 180.846 55.326L181.854 55.722ZM177.3 55.398C177.174 54.858 176.868 54.084 176.526 53.508L175.41 53.958C175.716 54.552 176.04 55.38 176.13 55.938L177.3 55.398ZM178.452 61.014C178.434 61.464 178.398 61.896 178.344 62.274H175.068V63.534H178.056C177.642 64.83 176.742 65.676 174.78 66.234C175.086 66.504 175.482 67.062 175.626 67.422C177.372 66.882 178.398 66.09 179.01 65.01C180.162 65.73 181.404 66.648 182.034 67.296L183.006 66.27C182.25 65.532 180.738 64.56 179.514 63.84L179.568 63.534H183.06V62.274H179.802C179.856 61.878 179.892 61.446 179.91 61.014H178.452ZM180.558 58.602C180.774 58.89 180.972 59.214 181.17 59.556L178.038 59.808C179.352 58.962 180.684 57.936 181.944 56.73L180.9 55.938C180.414 56.442 179.874 56.946 179.352 57.396L177.462 57.432C178.074 56.946 178.704 56.334 179.262 55.722L178.92 55.488L180.036 55.002C179.928 54.48 179.622 53.706 179.334 53.13L178.2 53.562C178.47 54.156 178.758 54.912 178.848 55.434L178.2 54.984C177.534 55.938 176.544 56.784 176.238 57.018C175.95 57.234 175.698 57.396 175.446 57.45C175.572 57.81 175.752 58.512 175.806 58.8C176.04 58.71 176.364 58.638 177.912 58.566C177.372 58.944 176.94 59.25 176.688 59.394C176.112 59.772 175.68 60.006 175.284 60.078C175.392 60.438 175.572 61.158 175.626 61.428C176.04 61.212 176.652 61.158 181.746 60.636C181.908 60.96 182.034 61.266 182.124 61.518L183.348 60.996C183.06 60.186 182.394 58.998 181.71 58.116L180.558 58.602ZM185.508 62.958H187.416V65.082H185.508V62.958ZM187.416 57.99H185.508V55.974H187.416V57.99ZM187.416 61.536H185.508V59.412H187.416V61.536ZM191.376 65.082H188.91V62.958H190.908V61.536H188.91V59.412H190.908V57.99H188.91V55.974H191.16V54.462H188.91L189.756 54.156C189.486 53.418 188.946 52.266 188.46 51.402L187.056 51.834C187.506 52.626 187.974 53.724 188.244 54.462H185.58C185.994 53.436 186.318 52.356 186.606 51.276L185.04 50.898C184.428 53.418 183.402 55.92 182.07 57.504C182.412 57.81 182.988 58.494 183.222 58.818C183.492 58.476 183.744 58.116 183.996 57.702V67.404H185.508V66.594H191.376V65.082ZM207.216 53.85H201.726V52.698H207.216V53.85ZM207.216 56.154H201.726V54.984H207.216V56.154ZM208.872 51.474H200.142V57.378H208.872V51.474ZM198.684 52.842C198.036 52.212 196.668 51.456 195.606 51.006L194.67 52.248C195.732 52.752 197.082 53.598 197.694 54.21L198.684 52.842ZM197.766 57.504C197.1 56.928 195.732 56.208 194.67 55.794L193.734 57.054C194.832 57.522 196.164 58.314 196.794 58.908L197.766 57.504ZM196.974 60.456C196.092 62.508 194.904 64.812 194.076 66.198L195.57 67.188C196.47 65.496 197.496 63.354 198.27 61.464L196.974 60.456ZM210.312 59.682V58.314H198.522V59.682H200.826C200.052 60.96 198.918 62.148 197.73 62.94C198.072 63.192 198.648 63.678 198.9 63.948C199.566 63.444 200.25 62.796 200.862 62.076H202.302C201.402 63.606 200.052 64.992 198.63 65.91C198.954 66.162 199.53 66.684 199.782 66.954C201.366 65.784 202.932 64.02 203.976 62.076H205.416C204.732 63.876 203.616 65.46 202.248 66.504C202.59 66.702 203.202 67.17 203.454 67.422C204.912 66.162 206.19 64.254 206.982 62.076H208.134C207.954 64.524 207.738 65.496 207.468 65.784C207.324 65.964 207.18 66 206.946 65.982C206.712 65.982 206.172 65.982 205.578 65.928C205.812 66.306 205.956 66.936 205.992 67.368C206.694 67.404 207.378 67.404 207.756 67.35C208.188 67.296 208.512 67.17 208.8 66.828C209.286 66.288 209.538 64.884 209.772 61.41C209.79 61.194 209.808 60.762 209.808 60.762H201.87C202.104 60.402 202.32 60.042 202.518 59.682H210.312ZM220.104 51.15V65.208C220.104 65.568 219.978 65.676 219.6 65.694C219.222 65.712 217.908 65.712 216.684 65.658C216.954 66.144 217.242 66.936 217.35 67.404C219.06 67.422 220.212 67.368 220.932 67.098C221.634 66.81 221.922 66.324 221.922 65.208V51.15H220.104ZM224.406 55.74C225.864 58.332 227.286 61.68 227.664 63.804L229.482 63.084C229.032 60.906 227.556 57.63 226.026 55.128L224.406 55.74ZM215.442 55.272C215.028 57.648 214.074 60.744 212.562 62.616C213.012 62.778 213.75 63.192 214.164 63.498C215.73 61.5 216.738 58.242 217.332 55.614L215.442 55.272ZM247.14 63.156C245.754 62.49 243.036 61.392 241.218 60.708L240.354 62.004C242.226 62.778 244.908 63.948 246.204 64.668L247.14 63.156ZM247.896 58.998V57.342H240.3V54.858H246.15V53.256H240.3V50.916H238.536V57.342H231.858V58.998H238.59V67.404H240.354V58.998H247.896Z" fill="#573605"/>
<path d="M202.385 300.14C202.12 299.864 201.767 299.562 201.36 299.255C201.749 298.946 202.085 298.614 202.385 298.279L201.282 297.875C201.063 298.109 200.787 298.374 200.46 298.598C200.086 298.331 199.675 298.078 199.314 297.866L198.446 298.494C198.808 298.689 199.184 298.939 199.523 299.185C199.047 299.469 198.502 299.71 197.981 299.881C198.252 300.086 198.646 300.536 198.828 300.732C199.352 300.525 199.921 300.214 200.456 299.881C200.88 300.207 201.249 300.529 201.494 300.821L202.385 300.14ZM195.307 302.773L197.566 302.971C197.801 303.172 198.178 303.621 198.337 303.869L195.27 303.601L195.307 302.773ZM193.816 304.739L205.884 305.795L205.694 307.964L207.344 308.109L207.643 304.684L206.28 304.564C206.565 302.963 206.927 300.682 207.175 298.879L202.908 298.505L202.812 299.599L205.448 299.83L205.341 300.634L202.831 300.414L202.737 301.49L205.176 301.703L205.032 302.522L202.575 302.307L202.479 303.401L204.864 303.609C204.803 303.893 204.744 304.159 204.702 304.426L198.444 303.879C198.991 303.62 199.595 303.329 200.151 302.962C200.623 303.347 201.007 303.706 201.269 304.018L202.179 303.32C201.899 303.007 201.532 302.667 201.076 302.302C201.484 301.977 201.838 301.646 202.158 301.295L201.059 300.837C200.817 301.123 200.523 301.387 200.176 301.645C199.785 301.358 199.357 301.086 198.98 300.854L198.112 301.483C198.473 301.695 198.865 301.964 199.221 302.23C198.726 302.512 198.163 302.752 197.641 302.941L197.734 301.883L195.313 301.672L195.331 300.842L197.734 301.052L197.828 299.976L195.371 299.761L195.38 299.039C196.291 298.956 197.281 298.79 198.078 298.571L197.447 297.522C196.489 297.727 194.908 298.04 193.852 298.129L193.71 303.465L192.348 303.345L192.048 306.77L193.626 306.908L193.816 304.739ZM207.48 310.054L200.505 309.444L200.518 309.3C201.932 308.828 203.398 308.179 204.509 307.463L203.634 306.519L203.267 306.578L195.144 305.867L195.038 307.086L201.457 307.648C200.663 308.048 199.747 308.402 198.93 308.655L198.873 309.301L191.521 308.658L191.402 310.02L198.754 310.664L198.608 312.331C198.588 312.564 198.492 312.628 198.205 312.603C197.936 312.58 196.896 312.489 195.913 312.367C196.094 312.78 196.275 313.392 196.327 313.83C197.726 313.953 198.64 314.033 199.306 313.856C199.952 313.696 200.166 313.317 200.235 312.528L200.386 310.806L207.361 311.417L207.48 310.054Z" fill="#927858"/>
<path d="M220.331 310.941C219.248 311.776 217.136 312.63 215.348 313.057C215.716 313.332 216.195 313.85 216.459 314.189C218.27 313.615 220.43 312.486 221.601 311.408L220.331 310.941ZM224.914 311.281C226.601 311.765 228.871 312.524 230.032 312.983L231.059 311.917C229.807 311.449 227.544 310.779 225.916 310.344L224.914 311.281ZM225.042 301.801C224.832 302.29 224.479 303.007 224.178 303.485L224.841 303.626L219.945 304.054L220.733 303.768C220.554 303.368 220.155 302.735 219.753 302.264L225.042 301.801ZM223.675 308.48L223.581 307.404L229.086 306.922L228.976 305.667L223.471 306.149L223.377 305.073L229.725 304.518L229.61 303.209L225.809 303.541C226.131 303.097 226.502 302.577 226.849 302.005L225.419 301.768L230.117 301.357L230.001 300.03L227.437 300.255C227.845 299.551 228.304 298.607 228.712 297.686L226.951 297.388C226.753 298.219 226.296 299.397 225.928 300.152L226.648 300.324L224.693 300.495L224.423 297.411L222.845 297.549L223.115 300.633L221.34 300.788L221.07 297.704L219.51 297.84L219.78 300.925L217.772 301.1L218.691 300.659C218.378 299.981 217.655 298.942 217.032 298.22L215.623 298.849C216.19 299.54 216.814 300.479 217.144 301.155L214.472 301.389L214.588 302.716L219.161 302.316L218.143 302.658C218.488 303.097 218.848 303.698 219.067 304.131L215.462 304.446L215.577 305.755L221.745 305.216L221.839 306.292L216.55 306.754L216.66 308.01L221.949 307.547L222.043 308.623L215.086 309.231L215.208 310.63L222.166 310.021L222.53 314.181L224.162 314.039L223.798 309.879L230.863 309.26L230.74 307.862L223.675 308.48Z" fill="#927858"/>
<defs>
<filter id="filter0_i_114_13372" x="12" y="14" width="400" height="203" filterUnits="userSpaceOnUse" color-interpolation-filters="sRGB">
<feFlood flood-opacity="0" result="BackgroundImageFix"/>
<feBlend mode="normal" in="SourceGraphic" in2="BackgroundImageFix" result="shape"/>
<feColorMatrix in="SourceAlpha" type="matrix" values="0 0 0 0 0 0 0 0 0 0 0 0 0 0 0 0 0 0 127 0" result="hardAlpha"/>
<feOffset dy="4"/>
<feGaussianBlur stdDeviation="2"/>
<feComposite in2="hardAlpha" operator="arithmetic" k2="-1" k3="1"/>
<feColorMatrix type="matrix" values="0 0 0 0 0 0 0 0 0 0 0 0 0 0 0 0 0 0 0.35 0"/>
<feBlend mode="normal" in2="shape" result="effect1_innerShadow_114_13372"/>
</filter>
<filter id="filter1_di_114_13372" x="8" y="213" width="408" height="148" filterUnits="userSpaceOnUse" color-interpolation-filters="sRGB">
<feFlood flood-opacity="0" result="BackgroundImageFix"/>
<feColorMatrix in="SourceAlpha" type="matrix" values="0 0 0 0 0 0 0 0 0 0 0 0 0 0 0 0 0 0 127 0" result="hardAlpha"/>
<feOffset dy="4"/>
<feGaussianBlur stdDeviation="2"/>
<feComposite in2="hardAlpha" operator="out"/>
<feColorMatrix type="matrix" values="0 0 0 0 0 0 0 0 0 0 0 0 0 0 0 0 0 0 0.25 0"/>
<feBlend mode="normal" in2="BackgroundImageFix" result="effect1_dropShadow_114_13372"/>
<feBlend mode="normal" in="SourceGraphic" in2="effect1_dropShadow_114_13372" result="shape"/>
<feColorMatrix in="SourceAlpha" type="matrix" values="0 0 0 0 0 0 0 0 0 0 0 0 0 0 0 0 0 0 127 0" result="hardAlpha"/>
<feOffset dy="3"/>
<feGaussianBlur stdDeviation="4"/>
<feComposite in2="hardAlpha" operator="arithmetic" k2="-1" k3="1"/>
<feColorMatrix type="matrix" values="0 0 0 0 0 0 0 0 0 0 0 0 0 0 0 0 0 0 0.25 0"/>
<feBlend mode="normal" in2="shape" result="effect2_innerShadow_114_13372"/>
</filter>
</defs>
</svg>
