<svg width="400" height="400" viewBox="0 0 400 400" fill="none" xmlns="http://www.w3.org/2000/svg">
<g clip-path="url(#clip0_114_13312)">
<g filter="url(#filter0_d_114_13312)">
<g filter="url(#filter1_i_114_13312)">
<path d="M400 200C400 147.222 378.929 96.6055 341.421 59.2858C303.914 21.966 253.043 1 200 1C146.957 0.999996 96.0859 21.966 58.5787 59.2857C21.0714 96.6055 8.00932e-06 147.222 0 200L400 200Z" fill="#FDBF52"/>
</g>
<path d="M360 201C360 158.565 343.143 117.869 313.137 87.8629C283.131 57.8571 242.435 41 200 41C157.565 41 116.869 57.8571 86.8629 87.8629C56.8571 117.869 40 158.565 40 201" stroke="#FCDBA3" stroke-width="3"/>
<g filter="url(#filter2_i_114_13312)">
<path d="M1.74846e-05 200C1.28474e-05 253.043 21.0714 303.914 58.5786 341.421C96.0859 378.929 146.957 400 200 400C253.043 400 303.914 378.929 341.421 341.421C378.929 303.914 400 253.043 400 200L200 200L1.74846e-05 200Z" fill="#FDBF52"/>
<path d="M1.74846e-05 200C1.28474e-05 253.043 21.0714 303.914 58.5786 341.421C96.0859 378.929 146.957 400 200 400C253.043 400 303.914 378.929 341.421 341.421C378.929 303.914 400 253.043 400 200L200 200L1.74846e-05 200Z" fill="black" fill-opacity="0.2"/>
</g>
<g filter="url(#filter3_di_114_13312)">
<path d="M1.22392e-05 200C8.99315e-06 237.13 21.0714 272.74 58.5786 298.995C96.0859 325.25 146.957 340 200 340C253.043 340 303.914 325.25 341.421 298.995C378.929 272.74 400 237.13 400 200L200 200L1.22392e-05 200Z" fill="#FCDBA3"/>
</g>
<path d="M40 200C40 229.704 56.8571 258.192 86.8629 279.196C116.869 300.2 157.565 312 200 312C242.435 312 283.131 300.2 313.137 279.196C343.143 258.192 360 229.704 360 200" stroke="#FDBF52" stroke-width="3"/>
<path d="M152.78 102.28C152.268 101.832 151.596 101.352 150.828 100.872C151.468 100.264 152.012 99.624 152.492 98.984L150.476 98.44C150.124 98.888 149.676 99.4 149.132 99.848C148.428 99.432 147.66 99.048 146.988 98.728L145.548 99.976C146.22 100.264 146.924 100.648 147.564 101.032C146.764 101.608 145.836 102.12 144.94 102.504C145.452 102.824 146.22 103.56 146.572 103.88C147.468 103.432 148.428 102.792 149.324 102.12C150.124 102.632 150.828 103.144 151.308 103.624L152.78 102.28ZM140.652 108.04H144.684C145.132 108.36 145.868 109.096 146.188 109.512H140.716L140.652 108.04ZM138.316 111.752H159.852V115.624H162.796V109.512H160.364C160.62 106.632 160.908 102.536 161.068 99.304H153.452V101.256H158.156L158.092 102.696H153.612V104.616H157.964L157.836 106.088H153.452V108.04H157.708C157.644 108.552 157.58 109.032 157.548 109.512H146.38C147.308 108.968 148.332 108.36 149.26 107.624C150.156 108.232 150.892 108.808 151.404 109.32L152.908 107.944C152.364 107.432 151.66 106.888 150.796 106.312C151.468 105.672 152.044 105.032 152.556 104.36L150.54 103.72C150.156 104.264 149.676 104.776 149.1 105.288C148.364 104.84 147.564 104.424 146.86 104.072L145.42 105.32C146.092 105.64 146.828 106.056 147.5 106.472C146.668 107.048 145.708 107.56 144.812 107.976V106.088H140.492L140.396 104.616H144.684V102.696H140.3L140.204 101.416C141.804 101.128 143.532 100.68 144.908 100.168L143.628 98.408C141.964 98.92 139.212 99.72 137.356 100.04L137.932 109.512H135.5V115.624H138.316V111.752ZM163.34 119.048H150.892V118.792C153.324 117.736 155.82 116.36 157.676 114.92L155.98 113.384L155.34 113.544H140.844V115.72H152.3C150.956 116.552 149.388 117.32 147.98 117.896V119.048H134.86V121.48H147.98V124.456C147.98 124.872 147.82 125 147.308 125C146.828 125 144.972 125 143.212 124.936C143.596 125.64 144.012 126.696 144.172 127.464C146.668 127.464 148.3 127.464 149.452 127.048C150.572 126.664 150.892 125.96 150.892 124.552V121.48H163.34V119.048ZM177.804 121.448C175.756 122.76 171.884 123.944 168.652 124.424C169.26 124.968 170.028 125.96 170.444 126.6C173.74 125.864 177.74 124.2 179.98 122.472L177.804 121.448ZM185.868 122.76C188.78 123.88 192.684 125.576 194.668 126.568L196.652 124.84C194.508 123.816 190.604 122.28 187.788 121.256L185.868 122.76ZM187.564 105.992C187.116 106.824 186.38 108.04 185.772 108.84L186.924 109.192H178.188L179.628 108.808C179.372 108.072 178.764 106.888 178.124 105.992H187.564ZM184.108 117.608V115.688H193.932V113.448H184.108V111.528H195.436V109.192H188.652C189.292 108.456 190.028 107.592 190.732 106.632L188.236 105.992H196.62V103.624H192.044C192.876 102.44 193.836 100.84 194.7 99.272L191.628 98.472C191.148 99.912 190.156 101.928 189.388 103.208L190.636 103.624H187.148V98.12H184.332V103.624H181.164V98.12H178.38V103.624H174.796L176.492 102.984C176.044 101.736 174.924 99.784 173.932 98.408L171.34 99.304C172.236 100.616 173.196 102.376 173.676 103.624H168.908V105.992H177.068L175.212 106.44C175.756 107.272 176.3 108.392 176.62 109.192H170.188V111.528H181.196V113.448H171.756V115.688H181.196V117.608H168.78V120.104H181.196V127.528H184.108V120.104H196.716V117.608H184.108ZM223.724 113.512H211.244V110.76H223.724V113.512ZM211.148 118.792C211.212 118.024 211.244 117.256 211.244 116.552V116.008H223.724V118.792H211.148ZM230.316 104.936V102.152H214.38C214.828 101.064 215.18 99.944 215.532 98.856L212.492 98.152C212.14 99.464 211.692 100.808 211.148 102.152H202.38V104.936H209.9C207.916 108.776 205.196 112.328 201.676 114.696C202.284 115.272 203.18 116.328 203.628 117C205.356 115.784 206.892 114.344 208.268 112.712V116.488C208.268 119.464 208.012 122.952 205.324 125.416C205.9 125.832 207.084 127.08 207.468 127.752C209.356 126.024 210.348 123.688 210.828 121.288H223.724V124.04C223.724 124.52 223.564 124.68 223.02 124.68C222.476 124.712 220.556 124.712 218.668 124.616C219.052 125.416 219.5 126.696 219.596 127.496C222.252 127.496 224.044 127.496 225.164 127.016C226.316 126.568 226.636 125.672 226.636 124.072V108.136H211.5C212.108 107.112 212.652 106.024 213.196 104.936H230.316ZM259.468 108.328C258.54 111.272 257.356 113.928 255.82 116.296C255.084 113.448 254.572 109.992 254.252 106.184H264.3V103.272H261.036L262.572 101.64C261.324 100.552 258.924 99.08 257.036 98.088L255.244 99.912C256.94 100.84 259.02 102.216 260.268 103.272H254.092C253.996 101.608 253.964 99.912 253.996 98.184H250.86C250.86 99.88 250.924 101.608 251.02 103.272H237.868V112.328C237.868 116.456 237.644 121.96 235.084 125.8C235.756 126.184 237.068 127.24 237.58 127.848C240.396 123.72 240.94 117.32 240.972 112.776H246.092C245.996 117.608 245.804 119.432 245.452 119.88C245.228 120.168 244.908 120.264 244.46 120.264C243.948 120.264 242.7 120.232 241.388 120.104C241.836 120.872 242.124 122.024 242.188 122.888C243.724 122.952 245.164 122.952 245.964 122.824C246.828 122.728 247.436 122.472 248.012 121.8C248.684 120.904 248.844 118.152 249.004 111.208V110.056H240.972V106.184H251.212C251.596 111.176 252.332 115.752 253.484 119.368C251.532 121.64 249.164 123.496 246.508 124.968C247.18 125.512 248.236 126.76 248.684 127.4C250.892 126.056 252.908 124.424 254.732 122.504C256.172 125.512 258.028 127.304 260.364 127.304C262.988 127.304 264.076 125.8 264.556 120.168C263.756 119.88 262.7 119.208 261.996 118.504C261.804 122.632 261.42 124.264 260.588 124.264C259.244 124.264 257.996 122.6 256.908 119.88C259.244 116.808 261.132 113.192 262.476 109.064L259.468 108.328ZM153.58 154.6C153.676 153.352 153.708 152.136 153.708 151.016V149.864H159.596V154.6H153.58ZM159.596 142.312V147.176H153.708V142.312H159.596ZM138.316 152.904H145.676V155.176H138.316V152.904ZM138.316 148.552H145.676V150.792H138.316V148.552ZM162.476 139.624H150.86V151.016C150.86 154.312 150.7 158.216 149.228 161.704V159.592H143.34V157.416H148.428V146.312H143.34V144.136H149.228V141.512H143.34V138.12H140.46V141.512H134.764V144.136H140.46V146.312H135.66V157.416H140.46V159.592H134.444V162.248H140.46V167.464H143.34V162.248H149.004C148.396 163.56 147.564 164.808 146.508 165.896C147.18 166.216 148.396 167.08 148.876 167.56C151.532 164.808 152.748 161.032 153.292 157.32H159.596V163.976C159.596 164.424 159.404 164.584 158.956 164.584C158.508 164.616 156.972 164.616 155.436 164.552C155.852 165.352 156.236 166.696 156.332 167.496C158.7 167.496 160.172 167.464 161.196 166.984C162.188 166.44 162.476 165.576 162.476 163.976V139.624ZM196.204 143.304V140.968H177.004C177.356 140.296 177.676 139.656 177.964 138.984L175.052 138.152C173.548 141.768 170.892 145.16 167.948 147.304C168.588 147.848 169.612 149.064 170.06 149.672C172.076 148.04 174.028 145.832 175.628 143.304H196.204ZM193.644 147.208V144.968H174.828V147.208H193.644ZM174.796 160.2C173.484 162.184 170.924 164.264 168.588 165.288C169.196 165.8 170.06 166.76 170.476 167.432C172.908 166.12 175.532 163.528 177.004 161.032L174.796 160.2ZM188.332 159.432V157.096H183.724C184.684 156.072 185.9 154.536 187.02 153.032L184.364 152.168C183.788 153.384 182.7 155.176 181.772 156.36L183.628 157.096H180.396V151.912H177.612V157.096H169.324V159.432H177.612V167.496H180.396V159.432H188.332ZM171.34 153.032C172.268 154.216 173.228 155.848 173.58 156.936L175.948 155.944C175.564 154.856 174.572 153.256 173.58 152.072L171.34 153.032ZM181.292 161.768C183.308 163.304 185.868 165.48 187.116 166.856L188.972 165.032C187.66 163.656 185.036 161.608 183.02 160.168L181.292 161.768ZM171.404 148.904V151.24H189.164C189.26 161.096 189.868 167.496 194.444 167.496C196.556 167.496 197.164 165.96 197.388 161.864C196.78 161.416 196.012 160.68 195.404 160.008C195.372 162.728 195.212 164.552 194.604 164.552C192.364 164.552 192.076 158.28 192.14 148.904H171.404ZM209.644 157.608C208.396 156.584 207.148 155.56 205.964 154.664C206.572 152.392 207.148 149.672 207.692 146.92C209.164 146.824 210.668 146.728 212.236 146.632C212.204 149.8 211.82 153.768 209.644 157.608ZM215.148 142.248H212.236V143.784L208.236 144.008C208.524 142.088 208.812 140.232 209.004 138.472L205.868 138.312C205.708 140.136 205.452 142.12 205.132 144.168L201.42 144.328L201.74 147.272L204.62 147.112C203.98 150.248 203.308 153.256 202.604 155.496C204.268 156.808 206.156 158.408 207.98 160.008C206.444 161.928 204.3 163.688 201.452 165.224C202.124 165.736 203.116 166.792 203.596 167.496C206.444 165.896 208.588 164.04 210.22 162.088C211.628 163.432 212.876 164.68 213.74 165.736L215.916 163.464C214.956 162.344 213.548 161 211.98 159.624C214.7 155.112 215.116 150.248 215.148 146.44L216.396 146.344L216.428 143.56L215.148 143.624V142.248ZM220.204 161.512V144.328H226.348V161.512H220.204ZM217.42 141.512V166.696H220.204V164.328H226.348V166.248H229.292V141.512H217.42ZM238.7 146.344H241.292V153.224H238.7V146.344ZM246.124 153.224H243.532V146.344H246.124V153.224ZM258.284 163.08V143.848H263.98V141H249.42V143.848H255.148V163.08H249.74C249.324 161.32 248.588 159.08 247.884 157.288L245.58 157.992C245.9 158.792 246.252 159.752 246.54 160.68L243.756 161.16V155.688H248.492V143.912H243.788V138.28H241.1V143.912H236.268V157.064H238.7V155.688H241.1V161.64C238.86 162.024 236.844 162.312 235.244 162.568L235.692 165.416C238.86 164.808 243.116 164.008 247.212 163.24C247.372 163.848 247.5 164.424 247.564 164.936L248.78 164.52V165.928H264.588V163.08H258.284Z" fill="white"/>
<rect x="153" y="32" width="92.5" height="26" fill="#FDBF52"/>
<path d="M170.268 38.078C168.522 38.636 165.588 39.032 163.122 39.212C163.23 39.554 163.374 40.058 163.41 40.436C165.93 40.292 168.936 39.914 170.934 39.302L170.268 38.078ZM169.854 42.722C170.25 42.11 170.7 41.21 171.132 40.328L169.98 39.878C169.728 40.634 169.242 41.66 168.846 42.326L169.854 42.722ZM165.3 42.398C165.174 41.858 164.868 41.084 164.526 40.508L163.41 40.958C163.716 41.552 164.04 42.38 164.13 42.938L165.3 42.398ZM166.452 48.014C166.434 48.464 166.398 48.896 166.344 49.274H163.068V50.534H166.056C165.642 51.83 164.742 52.676 162.78 53.234C163.086 53.504 163.482 54.062 163.626 54.422C165.372 53.882 166.398 53.09 167.01 52.01C168.162 52.73 169.404 53.648 170.034 54.296L171.006 53.27C170.25 52.532 168.738 51.56 167.514 50.84L167.568 50.534H171.06V49.274H167.802C167.856 48.878 167.892 48.446 167.91 48.014H166.452ZM168.558 45.602C168.774 45.89 168.972 46.214 169.17 46.556L166.038 46.808C167.352 45.962 168.684 44.936 169.944 43.73L168.9 42.938C168.414 43.442 167.874 43.946 167.352 44.396L165.462 44.432C166.074 43.946 166.704 43.334 167.262 42.722L166.92 42.488L168.036 42.002C167.928 41.48 167.622 40.706 167.334 40.13L166.2 40.562C166.47 41.156 166.758 41.912 166.848 42.434L166.2 41.984C165.534 42.938 164.544 43.784 164.238 44.018C163.95 44.234 163.698 44.396 163.446 44.45C163.572 44.81 163.752 45.512 163.806 45.8C164.04 45.71 164.364 45.638 165.912 45.566C165.372 45.944 164.94 46.25 164.688 46.394C164.112 46.772 163.68 47.006 163.284 47.078C163.392 47.438 163.572 48.158 163.626 48.428C164.04 48.212 164.652 48.158 169.746 47.636C169.908 47.96 170.034 48.266 170.124 48.518L171.348 47.996C171.06 47.186 170.394 45.998 169.71 45.116L168.558 45.602ZM173.508 49.958H175.416V52.082H173.508V49.958ZM175.416 44.99H173.508V42.974H175.416V44.99ZM175.416 48.536H173.508V46.412H175.416V48.536ZM179.376 52.082H176.91V49.958H178.908V48.536H176.91V46.412H178.908V44.99H176.91V42.974H179.16V41.462H176.91L177.756 41.156C177.486 40.418 176.946 39.266 176.46 38.402L175.056 38.834C175.506 39.626 175.974 40.724 176.244 41.462H173.58C173.994 40.436 174.318 39.356 174.606 38.276L173.04 37.898C172.428 40.418 171.402 42.92 170.07 44.504C170.412 44.81 170.988 45.494 171.222 45.818C171.492 45.476 171.744 45.116 171.996 44.702V54.404H173.508V53.594H179.376V52.082ZM195.216 40.85H189.726V39.698H195.216V40.85ZM195.216 43.154H189.726V41.984H195.216V43.154ZM196.872 38.474H188.142V44.378H196.872V38.474ZM186.684 39.842C186.036 39.212 184.668 38.456 183.606 38.006L182.67 39.248C183.732 39.752 185.082 40.598 185.694 41.21L186.684 39.842ZM185.766 44.504C185.1 43.928 183.732 43.208 182.67 42.794L181.734 44.054C182.832 44.522 184.164 45.314 184.794 45.908L185.766 44.504ZM184.974 47.456C184.092 49.508 182.904 51.812 182.076 53.198L183.57 54.188C184.47 52.496 185.496 50.354 186.27 48.464L184.974 47.456ZM198.312 46.682V45.314H186.522V46.682H188.826C188.052 47.96 186.918 49.148 185.73 49.94C186.072 50.192 186.648 50.678 186.9 50.948C187.566 50.444 188.25 49.796 188.862 49.076H190.302C189.402 50.606 188.052 51.992 186.63 52.91C186.954 53.162 187.53 53.684 187.782 53.954C189.366 52.784 190.932 51.02 191.976 49.076H193.416C192.732 50.876 191.616 52.46 190.248 53.504C190.59 53.702 191.202 54.17 191.454 54.422C192.912 53.162 194.19 51.254 194.982 49.076H196.134C195.954 51.524 195.738 52.496 195.468 52.784C195.324 52.964 195.18 53 194.946 52.982C194.712 52.982 194.172 52.982 193.578 52.928C193.812 53.306 193.956 53.936 193.992 54.368C194.694 54.404 195.378 54.404 195.756 54.35C196.188 54.296 196.512 54.17 196.8 53.828C197.286 53.288 197.538 51.884 197.772 48.41C197.79 48.194 197.808 47.762 197.808 47.762H189.87C190.104 47.402 190.32 47.042 190.518 46.682H198.312ZM208.104 38.15V52.208C208.104 52.568 207.978 52.676 207.6 52.694C207.222 52.712 205.908 52.712 204.684 52.658C204.954 53.144 205.242 53.936 205.35 54.404C207.06 54.422 208.212 54.368 208.932 54.098C209.634 53.81 209.922 53.324 209.922 52.208V38.15H208.104ZM212.406 42.74C213.864 45.332 215.286 48.68 215.664 50.804L217.482 50.084C217.032 47.906 215.556 44.63 214.026 42.128L212.406 42.74ZM203.442 42.272C203.028 44.648 202.074 47.744 200.562 49.616C201.012 49.778 201.75 50.192 202.164 50.498C203.73 48.5 204.738 45.242 205.332 42.614L203.442 42.272ZM235.14 50.156C233.754 49.49 231.036 48.392 229.218 47.708L228.354 49.004C230.226 49.778 232.908 50.948 234.204 51.668L235.14 50.156ZM235.896 45.998V44.342H228.3V41.858H234.15V40.256H228.3V37.916H226.536V44.342H219.858V45.998H226.59V54.404H228.354V45.998H235.896Z" fill="#573605"/>
<path d="M190.385 287.14C190.12 286.864 189.767 286.562 189.36 286.255C189.749 285.946 190.085 285.614 190.385 285.279L189.282 284.875C189.063 285.109 188.787 285.374 188.46 285.598C188.086 285.331 187.675 285.078 187.314 284.866L186.446 285.494C186.808 285.689 187.184 285.939 187.523 286.185C187.047 286.469 186.502 286.71 185.981 286.881C186.252 287.086 186.646 287.536 186.828 287.732C187.352 287.525 187.921 287.214 188.456 286.881C188.88 287.207 189.249 287.529 189.494 287.821L190.385 287.14ZM183.307 289.773L185.566 289.971C185.801 290.172 186.178 290.621 186.337 290.869L183.27 290.601L183.307 289.773ZM181.816 291.739L193.884 292.795L193.694 294.964L195.344 295.109L195.643 291.684L194.28 291.564C194.565 289.963 194.927 287.682 195.175 285.879L190.908 285.505L190.812 286.599L193.448 286.83L193.341 287.634L190.831 287.414L190.737 288.49L193.176 288.703L193.032 289.522L190.575 289.307L190.479 290.401L192.864 290.609C192.803 290.893 192.744 291.159 192.702 291.426L186.444 290.879C186.991 290.62 187.595 290.329 188.151 289.962C188.623 290.347 189.007 290.706 189.269 291.018L190.179 290.32C189.899 290.007 189.532 289.667 189.076 289.302C189.484 288.977 189.838 288.646 190.158 288.295L189.059 287.837C188.817 288.123 188.523 288.387 188.176 288.645C187.785 288.358 187.357 288.086 186.98 287.854L186.112 288.483C186.473 288.695 186.865 288.964 187.221 289.23C186.726 289.512 186.163 289.752 185.641 289.941L185.734 288.883L183.313 288.672L183.331 287.842L185.734 288.052L185.828 286.976L183.371 286.761L183.38 286.039C184.291 285.956 185.281 285.79 186.078 285.571L185.447 284.522C184.489 284.727 182.908 285.04 181.852 285.129L181.71 290.465L180.348 290.345L180.048 293.77L181.626 293.908L181.816 291.739ZM195.48 297.054L188.505 296.444L188.518 296.3C189.932 295.828 191.398 295.179 192.509 294.463L191.634 293.519L191.267 293.578L183.144 292.867L183.038 294.086L189.457 294.648C188.663 295.048 187.747 295.402 186.93 295.655L186.873 296.301L179.521 295.658L179.402 297.02L186.754 297.664L186.608 299.331C186.588 299.564 186.492 299.628 186.205 299.603C185.936 299.58 184.896 299.489 183.913 299.367C184.094 299.78 184.275 300.392 184.327 300.83C185.726 300.953 186.64 301.033 187.306 300.856C187.952 300.696 188.166 300.317 188.235 299.528L188.386 297.806L195.361 298.417L195.48 297.054Z" fill="#927858"/>
<path d="M208.331 297.941C207.248 298.776 205.136 299.63 203.348 300.057C203.716 300.332 204.195 300.85 204.459 301.189C206.27 300.615 208.43 299.486 209.601 298.408L208.331 297.941ZM212.914 298.281C214.601 298.765 216.871 299.524 218.032 299.983L219.059 298.917C217.807 298.449 215.544 297.779 213.916 297.344L212.914 298.281ZM213.042 288.801C212.832 289.29 212.479 290.007 212.178 290.485L212.841 290.626L207.945 291.054L208.733 290.768C208.554 290.368 208.155 289.735 207.753 289.264L213.042 288.801ZM211.675 295.48L211.581 294.404L217.086 293.922L216.976 292.667L211.471 293.149L211.377 292.073L217.725 291.518L217.61 290.209L213.809 290.541C214.131 290.097 214.502 289.577 214.849 289.005L213.419 288.768L218.117 288.357L218.001 287.03L215.437 287.255C215.845 286.551 216.304 285.607 216.712 284.686L214.951 284.388C214.753 285.219 214.296 286.397 213.928 287.152L214.648 287.324L212.693 287.495L212.423 284.411L210.845 284.549L211.115 287.633L209.34 287.788L209.07 284.704L207.51 284.84L207.78 287.925L205.772 288.1L206.691 287.659C206.378 286.981 205.655 285.942 205.032 285.22L203.623 285.849C204.19 286.54 204.814 287.479 205.144 288.155L202.472 288.389L202.588 289.716L207.161 289.316L206.143 289.658C206.488 290.097 206.848 290.698 207.067 291.131L203.462 291.446L203.577 292.755L209.745 292.216L209.839 293.292L204.55 293.754L204.66 295.01L209.949 294.547L210.043 295.623L203.086 296.231L203.208 297.63L210.166 297.021L210.53 301.181L212.162 301.039L211.798 296.879L218.863 296.26L218.74 294.862L211.675 295.48Z" fill="#927858"/>
</g>
</g>
<defs>
<filter id="filter0_d_114_13312" x="-4" y="1" width="408" height="407" filterUnits="userSpaceOnUse" color-interpolation-filters="sRGB">
<feFlood flood-opacity="0" result="BackgroundImageFix"/>
<feColorMatrix in="SourceAlpha" type="matrix" values="0 0 0 0 0 0 0 0 0 0 0 0 0 0 0 0 0 0 127 0" result="hardAlpha"/>
<feOffset dy="4"/>
<feGaussianBlur stdDeviation="2"/>
<feComposite in2="hardAlpha" operator="out"/>
<feColorMatrix type="matrix" values="0 0 0 0 0 0 0 0 0 0 0 0 0 0 0 0 0 0 0.25 0"/>
<feBlend mode="normal" in2="BackgroundImageFix" result="effect1_dropShadow_114_13312"/>
<feBlend mode="normal" in="SourceGraphic" in2="effect1_dropShadow_114_13312" result="shape"/>
</filter>
<filter id="filter1_i_114_13312" x="0" y="1" width="400" height="203" filterUnits="userSpaceOnUse" color-interpolation-filters="sRGB">
<feFlood flood-opacity="0" result="BackgroundImageFix"/>
<feBlend mode="normal" in="SourceGraphic" in2="BackgroundImageFix" result="shape"/>
<feColorMatrix in="SourceAlpha" type="matrix" values="0 0 0 0 0 0 0 0 0 0 0 0 0 0 0 0 0 0 127 0" result="hardAlpha"/>
<feOffset dy="4"/>
<feGaussianBlur stdDeviation="2"/>
<feComposite in2="hardAlpha" operator="arithmetic" k2="-1" k3="1"/>
<feColorMatrix type="matrix" values="0 0 0 0 0 0 0 0 0 0 0 0 0 0 0 0 0 0 0.35 0"/>
<feBlend mode="normal" in2="shape" result="effect1_innerShadow_114_13312"/>
</filter>
<filter id="filter2_i_114_13312" x="0" y="198" width="400" height="202" filterUnits="userSpaceOnUse" color-interpolation-filters="sRGB">
<feFlood flood-opacity="0" result="BackgroundImageFix"/>
<feBlend mode="normal" in="SourceGraphic" in2="BackgroundImageFix" result="shape"/>
<feColorMatrix in="SourceAlpha" type="matrix" values="0 0 0 0 0 0 0 0 0 0 0 0 0 0 0 0 0 0 127 0" result="hardAlpha"/>
<feOffset dy="-2"/>
<feGaussianBlur stdDeviation="2"/>
<feComposite in2="hardAlpha" operator="arithmetic" k2="-1" k3="1"/>
<feColorMatrix type="matrix" values="0 0 0 0 0 0 0 0 0 0 0 0 0 0 0 0 0 0 0.25 0"/>
<feBlend mode="normal" in2="shape" result="effect1_innerShadow_114_13312"/>
</filter>
<filter id="filter3_di_114_13312" x="-8" y="200" width="416" height="158" filterUnits="userSpaceOnUse" color-interpolation-filters="sRGB">
<feFlood flood-opacity="0" result="BackgroundImageFix"/>
<feColorMatrix in="SourceAlpha" type="matrix" values="0 0 0 0 0 0 0 0 0 0 0 0 0 0 0 0 0 0 127 0" result="hardAlpha"/>
<feOffset dy="10"/>
<feGaussianBlur stdDeviation="4"/>
<feComposite in2="hardAlpha" operator="out"/>
<feColorMatrix type="matrix" values="0 0 0 0 0 0 0 0 0 0 0 0 0 0 0 0 0 0 0.25 0"/>
<feBlend mode="normal" in2="BackgroundImageFix" result="effect1_dropShadow_114_13312"/>
<feBlend mode="normal" in="SourceGraphic" in2="effect1_dropShadow_114_13312" result="shape"/>
<feColorMatrix in="SourceAlpha" type="matrix" values="0 0 0 0 0 0 0 0 0 0 0 0 0 0 0 0 0 0 127 0" result="hardAlpha"/>
<feOffset dy="3"/>
<feGaussianBlur stdDeviation="4"/>
<feComposite in2="hardAlpha" operator="arithmetic" k2="-1" k3="1"/>
<feColorMatrix type="matrix" values="0 0 0 0 0 0 0 0 0 0 0 0 0 0 0 0 0 0 0.25 0"/>
<feBlend mode="normal" in2="shape" result="effect2_innerShadow_114_13312"/>
</filter>
<clipPath id="clip0_114_13312">
<rect width="400" height="400" fill="white"/>
</clipPath>
</defs>
</svg>
