<svg width="425" height="425" viewBox="0 0 425 425" fill="none" xmlns="http://www.w3.org/2000/svg">
<g filter="url(#filter0_i_114_13252)">
<path d="M412 213C412 160.222 390.929 109.605 353.421 72.2858C315.914 34.966 265.043 14 212 14C158.957 14 108.086 34.966 70.5787 72.2857C33.0714 109.605 12 160.222 12 213L412 213Z" fill="#FDBF52"/>
</g>
<path d="M372 214C372 171.565 355.143 130.869 325.137 100.863C295.131 70.8571 254.435 54 212 54C169.565 54 128.869 70.8571 98.8629 100.863C68.8571 130.869 52 171.565 52 214" stroke="#FCDBA3" stroke-width="3"/>
<path d="M12 213C12 266.043 33.0714 316.914 70.5786 354.421C108.086 391.929 158.957 413 212 413C265.043 413 315.914 391.929 353.421 354.421C390.929 316.914 412 266.043 412 213L212 213L12 213Z" fill="#FDBF52"/>
<path d="M12 213C12 266.043 33.0714 316.914 70.5786 354.421C108.086 391.929 158.957 413 212 413C265.043 413 315.914 391.929 353.421 354.421C390.929 316.914 412 266.043 412 213L212 213L12 213Z" fill="black" fill-opacity="0.2"/>
<g filter="url(#filter1_di_114_13252)">
<path d="M12 213C12 250.13 33.0714 285.74 70.5786 311.995C108.086 338.25 158.957 353 212 353C265.043 353 315.914 338.25 353.421 311.995C390.929 285.74 412 250.13 412 213L212 213L12 213Z" fill="#FCDBA3"/>
</g>
<path d="M52 213C52 242.704 68.8571 271.192 98.8629 292.196C128.869 313.2 169.565 325 212 325C254.435 325 295.131 313.2 325.137 292.196C355.143 271.192 372 242.704 372 213" stroke="#FDBF52" stroke-width="3"/>
<path d="M172.108 121.424C170.604 123.216 168.332 125.392 166.252 127.088C165.1 124.688 164.364 122.032 163.82 119.024H175.116V116.176H161.612L163.66 115.472C163.34 114.256 162.444 112.368 161.644 110.928L158.604 111.856C159.308 113.2 160.044 114.928 160.364 116.176H147.148V119.024H158.22C155.404 122.608 150.892 126.032 146.22 128.016C146.764 128.656 147.564 129.872 147.916 130.64C149.772 129.744 151.564 128.72 153.26 127.568V135.056C153.26 136.656 152.044 137.712 151.34 138.192C151.852 138.672 152.652 139.824 152.908 140.432C153.836 139.824 155.18 139.344 164.908 136.272C164.716 135.6 164.396 134.384 164.268 133.552L156.268 135.92V125.232C158.092 123.696 159.724 122 161.132 120.24C162.732 128.56 165.708 134.48 173.964 139.696C174.316 138.768 175.276 137.648 176.044 137.04C172.172 134.864 169.516 132.4 167.628 129.552C169.9 127.76 172.588 125.424 174.636 123.248L172.108 121.424ZM193.132 116.848C192.044 115.696 189.804 114.064 187.948 112.912C188.14 112.528 188.332 112.176 188.492 111.792L186.028 110.96C184.588 114.064 182.156 117.072 179.692 119.024C180.076 119.696 180.748 121.264 180.908 121.872C181.356 121.52 181.74 121.104 182.188 120.72V121.52H185.42V124.464H180.844V126.992H185.42V136.208C183.468 136.528 181.708 136.816 180.3 137.008L180.94 139.696C184.236 139.088 188.716 138.32 192.908 137.488L192.748 134.96L188.012 135.76V126.992H192.396V124.464H188.012V121.52H191.66V119.024H183.82C184.876 117.776 185.9 116.4 186.764 114.992C188.524 116.176 190.476 117.776 191.468 118.864L193.132 116.848ZM190.828 134.384C191.34 132.944 191.948 130.736 192.556 128.816L190.252 128.208C189.996 129.872 189.452 132.304 189.004 133.808L190.828 134.384ZM181.036 129.072C181.612 130.896 182.124 133.232 182.22 134.8L184.364 134.224C184.204 132.72 183.66 130.352 183.052 128.56L181.036 129.072ZM196.684 120.624H205.452V122.896H196.684V120.624ZM196.684 116.368H205.452V118.544H196.684V116.368ZM208.844 127.248H202.316V125.136H208.268V114.128H201.772C202.156 113.328 202.54 112.4 202.924 111.504L199.724 111.056C199.564 111.92 199.276 113.104 198.956 114.128H193.996V125.136H199.564V127.248H193.516V138.064H196.172V129.84H199.564V140.528H202.316V129.84H206.156V135.248C206.156 135.568 206.06 135.632 205.772 135.632C205.452 135.664 204.588 135.664 203.596 135.632C203.916 136.336 204.332 137.424 204.428 138.16C205.996 138.16 207.052 138.128 207.852 137.68C208.652 137.296 208.844 136.528 208.844 135.312V127.248ZM237.1 126.736H227.212V124.56H237.1V126.736ZM232.044 130.512C234.764 132.304 238.38 134.832 240.204 136.336L242.06 134.768C241.1 134.032 239.756 133.072 238.316 132.112C239.5 131.408 240.876 130.512 241.996 129.584L240.108 128.176L239.884 128.368V122.8H224.556V128.496H229.58C227.308 129.84 224.332 131.056 221.9 131.76C222.348 132.176 223.02 132.976 223.34 133.52C224.492 133.136 225.74 132.624 227.02 132.048V133.488C227.02 134.64 226.38 135.024 225.9 135.216C226.22 135.632 226.604 136.624 226.732 137.168C227.308 136.752 228.268 136.368 234.38 134.352C234.252 133.872 234.06 132.88 234.028 132.24L229.388 133.648V130.832C230.668 130.096 231.916 129.296 232.876 128.496H239.756C238.86 129.264 237.612 130.224 236.556 130.896C235.628 130.32 234.668 129.712 233.868 129.2L232.044 130.512ZM242.572 119.44H221.932V121.456H242.572V119.44ZM238.412 116.336H235.724V113.84H238.412V116.336ZM233.42 116.336H230.796V113.84H233.42V116.336ZM228.492 116.336H225.932V113.84H228.492V116.336ZM240.972 112.08H223.468V118.096H240.972V112.08ZM221.004 116.016C220.172 114.736 218.54 112.72 217.132 111.184L214.86 112.496C216.236 114.064 217.9 116.272 218.636 117.616L221.004 116.016ZM220.46 126.256L219.948 126.32H217.388C218.924 124.144 220.876 120.848 221.964 119.056L220.076 118.288L219.564 118.512H213.836V120.912H218.028C216.94 122.8 215.564 125.008 214.956 125.648C214.476 126.256 213.996 126.48 213.484 126.64C213.804 127.152 214.38 128.464 214.508 129.136C214.796 128.88 215.628 128.656 216.428 128.656H218.796C217.9 133.264 216.012 136.656 213.324 138.576C213.964 138.992 214.892 139.984 215.308 140.592C216.748 139.472 217.996 137.968 219.052 135.984C221.548 139.376 225.388 140.016 231.596 140.016C235.212 140.016 239.244 139.92 242.412 139.728C242.54 138.96 242.924 137.616 243.372 136.976C239.948 137.296 235.02 137.456 231.628 137.456C225.964 137.456 222.156 136.976 220.108 133.584C220.844 131.6 221.388 129.36 221.74 126.768L220.46 126.256ZM254.796 124.592C254.668 125.552 254.508 126.48 254.316 127.376L251.148 127.76C253.292 124.976 255.404 121.392 257.068 117.968L254.636 116.976C254.22 117.936 253.74 118.928 253.292 119.888L250.796 120.08C252.14 117.84 253.516 115.024 254.508 112.24L251.724 111.568C250.924 114.704 249.292 118 248.78 118.864C248.3 119.728 247.852 120.368 247.34 120.464C247.66 121.136 248.076 122.448 248.236 122.992C248.652 122.8 249.324 122.608 251.98 122.32C250.86 124.272 249.868 125.84 249.388 126.448C248.588 127.568 247.948 128.336 247.276 128.464C247.564 129.136 247.98 130.352 248.108 130.864C248.652 130.576 249.452 130.416 253.676 129.744C252.46 133.488 250.412 136.304 247.244 138.128C247.756 138.608 248.556 139.632 248.812 140.144C253.676 137.008 256.204 132.048 257.228 124.88L254.796 124.592ZM263.564 116.912V120.432H259.98V116.912H263.564ZM259.98 126.192V122.832H263.564V126.192H259.98ZM261.708 130.608C262.22 131.792 262.732 133.136 263.18 134.448L259.98 135.44V128.72H265.964V114.384H263.532C263.084 113.392 262.348 112.144 261.58 111.184L259.276 112.048C259.724 112.752 260.236 113.584 260.652 114.384H257.388V135.056C257.388 136.336 256.556 136.944 255.948 137.2C256.332 137.68 256.78 138.704 256.94 139.28C257.484 138.896 258.38 138.544 263.884 136.688C264.172 137.584 264.332 138.416 264.46 139.088L266.988 138.128C266.54 135.984 265.26 132.496 264.044 129.808L261.708 130.608ZM274.732 112.624L274.284 112.752H267.34V140.464H269.836V115.376H273.356C272.684 117.872 271.756 121.2 270.86 123.728C273.068 126.512 273.644 128.816 273.644 130.704C273.644 131.824 273.484 132.752 272.972 133.104C272.716 133.328 272.364 133.424 271.98 133.456C271.5 133.456 270.892 133.456 270.22 133.392C270.636 134.128 270.828 135.312 270.828 136.048C271.628 136.08 272.428 136.08 273.036 136.016C273.74 135.92 274.348 135.696 274.86 135.344C275.756 134.608 276.204 133.072 276.172 131.056C276.172 128.88 275.628 126.384 273.388 123.44C274.444 120.592 275.66 116.848 276.62 113.84L274.732 112.624ZM164.78 155.28C164.268 154.832 163.596 154.352 162.828 153.872C163.468 153.264 164.012 152.624 164.492 151.984L162.476 151.44C162.124 151.888 161.676 152.4 161.132 152.848C160.428 152.432 159.66 152.048 158.988 151.728L157.548 152.976C158.22 153.264 158.924 153.648 159.564 154.032C158.764 154.608 157.836 155.12 156.94 155.504C157.452 155.824 158.22 156.56 158.572 156.88C159.468 156.432 160.428 155.792 161.324 155.12C162.124 155.632 162.828 156.144 163.308 156.624L164.78 155.28ZM152.652 161.04H156.684C157.132 161.36 157.868 162.096 158.188 162.512H152.716L152.652 161.04ZM150.316 164.752H171.852V168.624H174.796V162.512H172.364C172.62 159.632 172.908 155.536 173.068 152.304H165.452V154.256H170.156L170.092 155.696H165.612V157.616H169.964L169.836 159.088H165.452V161.04H169.708C169.644 161.552 169.58 162.032 169.548 162.512H158.38C159.308 161.968 160.332 161.36 161.26 160.624C162.156 161.232 162.892 161.808 163.404 162.32L164.908 160.944C164.364 160.432 163.66 159.888 162.796 159.312C163.468 158.672 164.044 158.032 164.556 157.36L162.54 156.72C162.156 157.264 161.676 157.776 161.1 158.288C160.364 157.84 159.564 157.424 158.86 157.072L157.42 158.32C158.092 158.64 158.828 159.056 159.5 159.472C158.668 160.048 157.708 160.56 156.812 160.976V159.088H152.492L152.396 157.616H156.684V155.696H152.3L152.204 154.416C153.804 154.128 155.532 153.68 156.908 153.168L155.628 151.408C153.964 151.92 151.212 152.72 149.356 153.04L149.932 162.512H147.5V168.624H150.316V164.752ZM175.34 172.048H162.892V171.792C165.324 170.736 167.82 169.36 169.676 167.92L167.98 166.384L167.34 166.544H152.844V168.72H164.3C162.956 169.552 161.388 170.32 159.98 170.896V172.048H146.86V174.48H159.98V177.456C159.98 177.872 159.82 178 159.308 178C158.828 178 156.972 178 155.212 177.936C155.596 178.64 156.012 179.696 156.172 180.464C158.668 180.464 160.3 180.464 161.452 180.048C162.572 179.664 162.892 178.96 162.892 177.552V174.48H175.34V172.048ZM193.1 171.216V173.264H186.06V171.216H193.1ZM203.404 173.264H196.012V171.216H203.404V173.264ZM196.012 177.36V175.216H203.404V177.36H196.012ZM186.06 175.216H193.1V177.36H186.06V175.216ZM183.244 180.56H186.06V179.6H203.404V180.464H206.348V168.976H183.244V180.56ZM188.172 163.376H200.94V165.392H188.172V163.376ZM185.452 167.408H203.82V161.328H185.452V167.408ZM185.772 157.744V159.856H203.596V157.744H185.772ZM196.78 153.584C196.396 152.752 195.82 151.632 195.34 150.8L192.14 151.472C192.46 152.112 192.844 152.848 193.164 153.584H181.356V159.984H184.204V156.112H205.164V159.984H208.14V153.584H196.78ZM233.9 166.288C233.708 169.104 233.388 172.784 233.004 175.952H225.1C225.644 173.2 226.252 169.808 226.828 166.288H233.9ZM236.14 175.952C236.62 171.824 237.036 167.024 237.26 163.44L234.956 163.248L234.38 163.376H227.34C227.66 161.232 227.98 159.12 228.268 157.104H240.3V154.192H216.172V157.104H225.004C224.716 159.12 224.428 161.232 224.108 163.376H217.932V166.288H223.628C223.02 169.776 222.412 173.168 221.836 175.952H214.22V178.896H242.476V175.952H236.14ZM253.772 168.72V166H260.268V168.72H253.772ZM253.772 161.072H260.268V163.728H253.772V161.072ZM269.964 161.072V163.728H263.34V161.072H269.964ZM269.964 168.72H263.34V166H269.964V168.72ZM276.3 173.36H263.34V171.152H272.94V158.608H263.34V156.624H275.244V153.904H263.34V151.152H260.268V153.904H248.556V156.624H260.268V158.608H250.892V171.152H260.268V173.36H247.628V176.048H260.268V180.592H263.34V176.048H276.3V173.36Z" fill="white"/>
<rect x="165" y="45" width="92.5" height="26" fill="#FDBF52"/>
<path d="M182.268 51.078C180.522 51.636 177.588 52.032 175.122 52.212C175.23 52.554 175.374 53.058 175.41 53.436C177.93 53.292 180.936 52.914 182.934 52.302L182.268 51.078ZM181.854 55.722C182.25 55.11 182.7 54.21 183.132 53.328L181.98 52.878C181.728 53.634 181.242 54.66 180.846 55.326L181.854 55.722ZM177.3 55.398C177.174 54.858 176.868 54.084 176.526 53.508L175.41 53.958C175.716 54.552 176.04 55.38 176.13 55.938L177.3 55.398ZM178.452 61.014C178.434 61.464 178.398 61.896 178.344 62.274H175.068V63.534H178.056C177.642 64.83 176.742 65.676 174.78 66.234C175.086 66.504 175.482 67.062 175.626 67.422C177.372 66.882 178.398 66.09 179.01 65.01C180.162 65.73 181.404 66.648 182.034 67.296L183.006 66.27C182.25 65.532 180.738 64.56 179.514 63.84L179.568 63.534H183.06V62.274H179.802C179.856 61.878 179.892 61.446 179.91 61.014H178.452ZM180.558 58.602C180.774 58.89 180.972 59.214 181.17 59.556L178.038 59.808C179.352 58.962 180.684 57.936 181.944 56.73L180.9 55.938C180.414 56.442 179.874 56.946 179.352 57.396L177.462 57.432C178.074 56.946 178.704 56.334 179.262 55.722L178.92 55.488L180.036 55.002C179.928 54.48 179.622 53.706 179.334 53.13L178.2 53.562C178.47 54.156 178.758 54.912 178.848 55.434L178.2 54.984C177.534 55.938 176.544 56.784 176.238 57.018C175.95 57.234 175.698 57.396 175.446 57.45C175.572 57.81 175.752 58.512 175.806 58.8C176.04 58.71 176.364 58.638 177.912 58.566C177.372 58.944 176.94 59.25 176.688 59.394C176.112 59.772 175.68 60.006 175.284 60.078C175.392 60.438 175.572 61.158 175.626 61.428C176.04 61.212 176.652 61.158 181.746 60.636C181.908 60.96 182.034 61.266 182.124 61.518L183.348 60.996C183.06 60.186 182.394 58.998 181.71 58.116L180.558 58.602ZM185.508 62.958H187.416V65.082H185.508V62.958ZM187.416 57.99H185.508V55.974H187.416V57.99ZM187.416 61.536H185.508V59.412H187.416V61.536ZM191.376 65.082H188.91V62.958H190.908V61.536H188.91V59.412H190.908V57.99H188.91V55.974H191.16V54.462H188.91L189.756 54.156C189.486 53.418 188.946 52.266 188.46 51.402L187.056 51.834C187.506 52.626 187.974 53.724 188.244 54.462H185.58C185.994 53.436 186.318 52.356 186.606 51.276L185.04 50.898C184.428 53.418 183.402 55.92 182.07 57.504C182.412 57.81 182.988 58.494 183.222 58.818C183.492 58.476 183.744 58.116 183.996 57.702V67.404H185.508V66.594H191.376V65.082ZM207.216 53.85H201.726V52.698H207.216V53.85ZM207.216 56.154H201.726V54.984H207.216V56.154ZM208.872 51.474H200.142V57.378H208.872V51.474ZM198.684 52.842C198.036 52.212 196.668 51.456 195.606 51.006L194.67 52.248C195.732 52.752 197.082 53.598 197.694 54.21L198.684 52.842ZM197.766 57.504C197.1 56.928 195.732 56.208 194.67 55.794L193.734 57.054C194.832 57.522 196.164 58.314 196.794 58.908L197.766 57.504ZM196.974 60.456C196.092 62.508 194.904 64.812 194.076 66.198L195.57 67.188C196.47 65.496 197.496 63.354 198.27 61.464L196.974 60.456ZM210.312 59.682V58.314H198.522V59.682H200.826C200.052 60.96 198.918 62.148 197.73 62.94C198.072 63.192 198.648 63.678 198.9 63.948C199.566 63.444 200.25 62.796 200.862 62.076H202.302C201.402 63.606 200.052 64.992 198.63 65.91C198.954 66.162 199.53 66.684 199.782 66.954C201.366 65.784 202.932 64.02 203.976 62.076H205.416C204.732 63.876 203.616 65.46 202.248 66.504C202.59 66.702 203.202 67.17 203.454 67.422C204.912 66.162 206.19 64.254 206.982 62.076H208.134C207.954 64.524 207.738 65.496 207.468 65.784C207.324 65.964 207.18 66 206.946 65.982C206.712 65.982 206.172 65.982 205.578 65.928C205.812 66.306 205.956 66.936 205.992 67.368C206.694 67.404 207.378 67.404 207.756 67.35C208.188 67.296 208.512 67.17 208.8 66.828C209.286 66.288 209.538 64.884 209.772 61.41C209.79 61.194 209.808 60.762 209.808 60.762H201.87C202.104 60.402 202.32 60.042 202.518 59.682H210.312ZM220.104 51.15V65.208C220.104 65.568 219.978 65.676 219.6 65.694C219.222 65.712 217.908 65.712 216.684 65.658C216.954 66.144 217.242 66.936 217.35 67.404C219.06 67.422 220.212 67.368 220.932 67.098C221.634 66.81 221.922 66.324 221.922 65.208V51.15H220.104ZM224.406 55.74C225.864 58.332 227.286 61.68 227.664 63.804L229.482 63.084C229.032 60.906 227.556 57.63 226.026 55.128L224.406 55.74ZM215.442 55.272C215.028 57.648 214.074 60.744 212.562 62.616C213.012 62.778 213.75 63.192 214.164 63.498C215.73 61.5 216.738 58.242 217.332 55.614L215.442 55.272ZM247.14 63.156C245.754 62.49 243.036 61.392 241.218 60.708L240.354 62.004C242.226 62.778 244.908 63.948 246.204 64.668L247.14 63.156ZM247.896 58.998V57.342H240.3V54.858H246.15V53.256H240.3V50.916H238.536V57.342H231.858V58.998H238.59V67.404H240.354V58.998H247.896Z" fill="#573605"/>
<path d="M202.385 300.14C202.12 299.864 201.767 299.562 201.36 299.255C201.749 298.946 202.085 298.614 202.385 298.279L201.282 297.875C201.063 298.109 200.787 298.374 200.46 298.598C200.086 298.331 199.675 298.078 199.314 297.866L198.446 298.494C198.808 298.689 199.184 298.939 199.523 299.185C199.047 299.469 198.502 299.71 197.981 299.881C198.252 300.086 198.646 300.536 198.828 300.732C199.352 300.525 199.921 300.214 200.456 299.881C200.88 300.207 201.249 300.529 201.494 300.821L202.385 300.14ZM195.307 302.773L197.566 302.971C197.801 303.172 198.178 303.621 198.337 303.869L195.27 303.601L195.307 302.773ZM193.816 304.739L205.884 305.795L205.694 307.964L207.344 308.109L207.643 304.684L206.28 304.564C206.565 302.963 206.927 300.682 207.175 298.879L202.908 298.505L202.812 299.599L205.448 299.83L205.341 300.634L202.831 300.414L202.737 301.49L205.176 301.703L205.032 302.522L202.575 302.307L202.479 303.401L204.864 303.609C204.803 303.893 204.744 304.159 204.702 304.426L198.444 303.879C198.991 303.62 199.595 303.329 200.151 302.962C200.623 303.347 201.007 303.706 201.269 304.018L202.179 303.32C201.899 303.007 201.532 302.667 201.076 302.302C201.484 301.977 201.838 301.646 202.158 301.295L201.059 300.837C200.817 301.123 200.523 301.387 200.176 301.645C199.785 301.358 199.357 301.086 198.98 300.854L198.112 301.483C198.473 301.695 198.865 301.964 199.221 302.23C198.726 302.512 198.163 302.752 197.641 302.941L197.734 301.883L195.313 301.672L195.331 300.842L197.734 301.052L197.828 299.976L195.371 299.761L195.38 299.039C196.291 298.956 197.281 298.79 198.078 298.571L197.447 297.522C196.489 297.727 194.908 298.04 193.852 298.129L193.71 303.465L192.348 303.345L192.048 306.77L193.626 306.908L193.816 304.739ZM207.48 310.054L200.505 309.444L200.518 309.3C201.932 308.828 203.398 308.179 204.509 307.463L203.634 306.519L203.267 306.578L195.144 305.867L195.038 307.086L201.457 307.648C200.663 308.048 199.747 308.402 198.93 308.655L198.873 309.301L191.521 308.658L191.402 310.02L198.754 310.664L198.608 312.331C198.588 312.564 198.492 312.628 198.205 312.603C197.936 312.58 196.896 312.489 195.913 312.367C196.094 312.78 196.275 313.392 196.327 313.83C197.726 313.953 198.64 314.033 199.306 313.856C199.952 313.696 200.166 313.317 200.235 312.528L200.386 310.806L207.361 311.417L207.48 310.054Z" fill="#927858"/>
<path d="M220.331 310.941C219.248 311.776 217.136 312.63 215.348 313.057C215.716 313.332 216.195 313.85 216.459 314.189C218.27 313.615 220.43 312.486 221.601 311.408L220.331 310.941ZM224.914 311.281C226.601 311.765 228.871 312.524 230.032 312.983L231.059 311.917C229.807 311.449 227.544 310.779 225.916 310.344L224.914 311.281ZM225.042 301.801C224.832 302.29 224.479 303.007 224.178 303.485L224.841 303.626L219.945 304.054L220.733 303.768C220.554 303.368 220.155 302.735 219.753 302.264L225.042 301.801ZM223.675 308.48L223.581 307.404L229.086 306.922L228.976 305.667L223.471 306.149L223.377 305.073L229.725 304.518L229.61 303.209L225.809 303.541C226.131 303.097 226.502 302.577 226.849 302.005L225.419 301.768L230.117 301.357L230.001 300.03L227.437 300.255C227.845 299.551 228.304 298.607 228.712 297.686L226.951 297.388C226.753 298.219 226.296 299.397 225.928 300.152L226.648 300.324L224.693 300.495L224.423 297.411L222.845 297.549L223.115 300.633L221.34 300.788L221.07 297.704L219.51 297.84L219.78 300.925L217.772 301.1L218.691 300.659C218.378 299.981 217.655 298.942 217.032 298.22L215.623 298.849C216.19 299.54 216.814 300.479 217.144 301.155L214.472 301.389L214.588 302.716L219.161 302.316L218.143 302.658C218.488 303.097 218.848 303.698 219.067 304.131L215.462 304.446L215.577 305.755L221.745 305.216L221.839 306.292L216.55 306.754L216.66 308.01L221.949 307.547L222.043 308.623L215.086 309.231L215.208 310.63L222.166 310.021L222.53 314.181L224.162 314.039L223.798 309.879L230.863 309.26L230.74 307.862L223.675 308.48Z" fill="#927858"/>
<defs>
<filter id="filter0_i_114_13252" x="12" y="14" width="400" height="203" filterUnits="userSpaceOnUse" color-interpolation-filters="sRGB">
<feFlood flood-opacity="0" result="BackgroundImageFix"/>
<feBlend mode="normal" in="SourceGraphic" in2="BackgroundImageFix" result="shape"/>
<feColorMatrix in="SourceAlpha" type="matrix" values="0 0 0 0 0 0 0 0 0 0 0 0 0 0 0 0 0 0 127 0" result="hardAlpha"/>
<feOffset dy="4"/>
<feGaussianBlur stdDeviation="2"/>
<feComposite in2="hardAlpha" operator="arithmetic" k2="-1" k3="1"/>
<feColorMatrix type="matrix" values="0 0 0 0 0 0 0 0 0 0 0 0 0 0 0 0 0 0 0.35 0"/>
<feBlend mode="normal" in2="shape" result="effect1_innerShadow_114_13252"/>
</filter>
<filter id="filter1_di_114_13252" x="8" y="213" width="408" height="148" filterUnits="userSpaceOnUse" color-interpolation-filters="sRGB">
<feFlood flood-opacity="0" result="BackgroundImageFix"/>
<feColorMatrix in="SourceAlpha" type="matrix" values="0 0 0 0 0 0 0 0 0 0 0 0 0 0 0 0 0 0 127 0" result="hardAlpha"/>
<feOffset dy="4"/>
<feGaussianBlur stdDeviation="2"/>
<feComposite in2="hardAlpha" operator="out"/>
<feColorMatrix type="matrix" values="0 0 0 0 0 0 0 0 0 0 0 0 0 0 0 0 0 0 0.25 0"/>
<feBlend mode="normal" in2="BackgroundImageFix" result="effect1_dropShadow_114_13252"/>
<feBlend mode="normal" in="SourceGraphic" in2="effect1_dropShadow_114_13252" result="shape"/>
<feColorMatrix in="SourceAlpha" type="matrix" values="0 0 0 0 0 0 0 0 0 0 0 0 0 0 0 0 0 0 127 0" result="hardAlpha"/>
<feOffset dy="3"/>
<feGaussianBlur stdDeviation="4"/>
<feComposite in2="hardAlpha" operator="arithmetic" k2="-1" k3="1"/>
<feColorMatrix type="matrix" values="0 0 0 0 0 0 0 0 0 0 0 0 0 0 0 0 0 0 0.25 0"/>
<feBlend mode="normal" in2="shape" result="effect2_innerShadow_114_13252"/>
</filter>
</defs>
</svg>
