<svg width="400" height="400" viewBox="0 0 400 400" fill="none" xmlns="http://www.w3.org/2000/svg">
<g clip-path="url(#clip0_114_13252)">
<g filter="url(#filter0_d_114_13252)">
<g filter="url(#filter1_i_114_13252)">
<path d="M400 200C400 147.222 378.929 96.6055 341.421 59.2858C303.914 21.966 253.043 1 200 1C146.957 0.999996 96.0859 21.966 58.5787 59.2857C21.0714 96.6055 8.00932e-06 147.222 0 200L400 200Z" fill="#FDBF52"/>
</g>
<path d="M360 201C360 158.565 343.143 117.869 313.137 87.8629C283.131 57.8571 242.435 41 200 41C157.565 41 116.869 57.8571 86.8629 87.8629C56.8571 117.869 40 158.565 40 201" stroke="#FCDBA3" stroke-width="3"/>
<g filter="url(#filter2_i_114_13252)">
<path d="M1.74846e-05 200C1.28474e-05 253.043 21.0714 303.914 58.5786 341.421C96.0859 378.929 146.957 400 200 400C253.043 400 303.914 378.929 341.421 341.421C378.929 303.914 400 253.043 400 200L200 200L1.74846e-05 200Z" fill="#FDBF52"/>
<path d="M1.74846e-05 200C1.28474e-05 253.043 21.0714 303.914 58.5786 341.421C96.0859 378.929 146.957 400 200 400C253.043 400 303.914 378.929 341.421 341.421C378.929 303.914 400 253.043 400 200L200 200L1.74846e-05 200Z" fill="black" fill-opacity="0.2"/>
</g>
<g filter="url(#filter3_di_114_13252)">
<path d="M1.22392e-05 200C8.99315e-06 237.13 21.0714 272.74 58.5786 298.995C96.0859 325.25 146.957 340 200 340C253.043 340 303.914 325.25 341.421 298.995C378.929 272.74 400 237.13 400 200L200 200L1.22392e-05 200Z" fill="#FCDBA3"/>
</g>
<path d="M40 200C40 229.704 56.8571 258.192 86.8629 279.196C116.869 300.2 157.565 312 200 312C242.435 312 283.131 300.2 313.137 279.196C343.143 258.192 360 229.704 360 200" stroke="#FDBF52" stroke-width="3"/>
<path d="M160.108 108.424C158.604 110.216 156.332 112.392 154.252 114.088C153.1 111.688 152.364 109.032 151.82 106.024H163.116V103.176H149.612L151.66 102.472C151.34 101.256 150.444 99.368 149.644 97.928L146.604 98.856C147.308 100.2 148.044 101.928 148.364 103.176H135.148V106.024H146.22C143.404 109.608 138.892 113.032 134.22 115.016C134.764 115.656 135.564 116.872 135.916 117.64C137.772 116.744 139.564 115.72 141.26 114.568V122.056C141.26 123.656 140.044 124.712 139.34 125.192C139.852 125.672 140.652 126.824 140.908 127.432C141.836 126.824 143.18 126.344 152.908 123.272C152.716 122.6 152.396 121.384 152.268 120.552L144.268 122.92V112.232C146.092 110.696 147.724 109 149.132 107.24C150.732 115.56 153.708 121.48 161.964 126.696C162.316 125.768 163.276 124.648 164.044 124.04C160.172 121.864 157.516 119.4 155.628 116.552C157.9 114.76 160.588 112.424 162.636 110.248L160.108 108.424ZM181.132 103.848C180.044 102.696 177.804 101.064 175.948 99.912C176.14 99.528 176.332 99.176 176.492 98.792L174.028 97.96C172.588 101.064 170.156 104.072 167.692 106.024C168.076 106.696 168.748 108.264 168.908 108.872C169.356 108.52 169.74 108.104 170.188 107.72V108.52H173.42V111.464H168.844V113.992H173.42V123.208C171.468 123.528 169.708 123.816 168.3 124.008L168.94 126.696C172.236 126.088 176.716 125.32 180.908 124.488L180.748 121.96L176.012 122.76V113.992H180.396V111.464H176.012V108.52H179.66V106.024H171.82C172.876 104.776 173.9 103.4 174.764 101.992C176.524 103.176 178.476 104.776 179.468 105.864L181.132 103.848ZM178.828 121.384C179.34 119.944 179.948 117.736 180.556 115.816L178.252 115.208C177.996 116.872 177.452 119.304 177.004 120.808L178.828 121.384ZM169.036 116.072C169.612 117.896 170.124 120.232 170.22 121.8L172.364 121.224C172.204 119.72 171.66 117.352 171.052 115.56L169.036 116.072ZM184.684 107.624H193.452V109.896H184.684V107.624ZM184.684 103.368H193.452V105.544H184.684V103.368ZM196.844 114.248H190.316V112.136H196.268V101.128H189.772C190.156 100.328 190.54 99.4 190.924 98.504L187.724 98.056C187.564 98.92 187.276 100.104 186.956 101.128H181.996V112.136H187.564V114.248H181.516V125.064H184.172V116.84H187.564V127.528H190.316V116.84H194.156V122.248C194.156 122.568 194.06 122.632 193.772 122.632C193.452 122.664 192.588 122.664 191.596 122.632C191.916 123.336 192.332 124.424 192.428 125.16C193.996 125.16 195.052 125.128 195.852 124.68C196.652 124.296 196.844 123.528 196.844 122.312V114.248ZM225.1 113.736H215.212V111.56H225.1V113.736ZM220.044 117.512C222.764 119.304 226.38 121.832 228.204 123.336L230.06 121.768C229.1 121.032 227.756 120.072 226.316 119.112C227.5 118.408 228.876 117.512 229.996 116.584L228.108 115.176L227.884 115.368V109.8H212.556V115.496H217.58C215.308 116.84 212.332 118.056 209.9 118.76C210.348 119.176 211.02 119.976 211.34 120.52C212.492 120.136 213.74 119.624 215.02 119.048V120.488C215.02 121.64 214.38 122.024 213.9 122.216C214.22 122.632 214.604 123.624 214.732 124.168C215.308 123.752 216.268 123.368 222.38 121.352C222.252 120.872 222.06 119.88 222.028 119.24L217.388 120.648V117.832C218.668 117.096 219.916 116.296 220.876 115.496H227.756C226.86 116.264 225.612 117.224 224.556 117.896C223.628 117.32 222.668 116.712 221.868 116.2L220.044 117.512ZM230.572 106.44H209.932V108.456H230.572V106.44ZM226.412 103.336H223.724V100.84H226.412V103.336ZM221.42 103.336H218.796V100.84H221.42V103.336ZM216.492 103.336H213.932V100.84H216.492V103.336ZM228.972 99.08H211.468V105.096H228.972V99.08ZM209.004 103.016C208.172 101.736 206.54 99.72 205.132 98.184L202.86 99.496C204.236 101.064 205.9 103.272 206.636 104.616L209.004 103.016ZM208.46 113.256L207.948 113.32H205.388C206.924 111.144 208.876 107.848 209.964 106.056L208.076 105.288L207.564 105.512H201.836V107.912H206.028C204.94 109.8 203.564 112.008 202.956 112.648C202.476 113.256 201.996 113.48 201.484 113.64C201.804 114.152 202.38 115.464 202.508 116.136C202.796 115.88 203.628 115.656 204.428 115.656H206.796C205.9 120.264 204.012 123.656 201.324 125.576C201.964 125.992 202.892 126.984 203.308 127.592C204.748 126.472 205.996 124.968 207.052 122.984C209.548 126.376 213.388 127.016 219.596 127.016C223.212 127.016 227.244 126.92 230.412 126.728C230.54 125.96 230.924 124.616 231.372 123.976C227.948 124.296 223.02 124.456 219.628 124.456C213.964 124.456 210.156 123.976 208.108 120.584C208.844 118.6 209.388 116.36 209.74 113.768L208.46 113.256ZM242.796 111.592C242.668 112.552 242.508 113.48 242.316 114.376L239.148 114.76C241.292 111.976 243.404 108.392 245.068 104.968L242.636 103.976C242.22 104.936 241.74 105.928 241.292 106.888L238.796 107.08C240.14 104.84 241.516 102.024 242.508 99.24L239.724 98.568C238.924 101.704 237.292 105 236.78 105.864C236.3 106.728 235.852 107.368 235.34 107.464C235.66 108.136 236.076 109.448 236.236 109.992C236.652 109.8 237.324 109.608 239.98 109.32C238.86 111.272 237.868 112.84 237.388 113.448C236.588 114.568 235.948 115.336 235.276 115.464C235.564 116.136 235.98 117.352 236.108 117.864C236.652 117.576 237.452 117.416 241.676 116.744C240.46 120.488 238.412 123.304 235.244 125.128C235.756 125.608 236.556 126.632 236.812 127.144C241.676 124.008 244.204 119.048 245.228 111.88L242.796 111.592ZM251.564 103.912V107.432H247.98V103.912H251.564ZM247.98 113.192V109.832H251.564V113.192H247.98ZM249.708 117.608C250.22 118.792 250.732 120.136 251.18 121.448L247.98 122.44V115.72H253.964V101.384H251.532C251.084 100.392 250.348 99.144 249.58 98.184L247.276 99.048C247.724 99.752 248.236 100.584 248.652 101.384H245.388V122.056C245.388 123.336 244.556 123.944 243.948 124.2C244.332 124.68 244.78 125.704 244.94 126.28C245.484 125.896 246.38 125.544 251.884 123.688C252.172 124.584 252.332 125.416 252.46 126.088L254.988 125.128C254.54 122.984 253.26 119.496 252.044 116.808L249.708 117.608ZM262.732 99.624L262.284 99.752H255.34V127.464H257.836V102.376H261.356C260.684 104.872 259.756 108.2 258.86 110.728C261.068 113.512 261.644 115.816 261.644 117.704C261.644 118.824 261.484 119.752 260.972 120.104C260.716 120.328 260.364 120.424 259.98 120.456C259.5 120.456 258.892 120.456 258.22 120.392C258.636 121.128 258.828 122.312 258.828 123.048C259.628 123.08 260.428 123.08 261.036 123.016C261.74 122.92 262.348 122.696 262.86 122.344C263.756 121.608 264.204 120.072 264.172 118.056C264.172 115.88 263.628 113.384 261.388 110.44C262.444 107.592 263.66 103.848 264.62 100.84L262.732 99.624ZM152.78 142.28C152.268 141.832 151.596 141.352 150.828 140.872C151.468 140.264 152.012 139.624 152.492 138.984L150.476 138.44C150.124 138.888 149.676 139.4 149.132 139.848C148.428 139.432 147.66 139.048 146.988 138.728L145.548 139.976C146.22 140.264 146.924 140.648 147.564 141.032C146.764 141.608 145.836 142.12 144.94 142.504C145.452 142.824 146.22 143.56 146.572 143.88C147.468 143.432 148.428 142.792 149.324 142.12C150.124 142.632 150.828 143.144 151.308 143.624L152.78 142.28ZM140.652 148.04H144.684C145.132 148.36 145.868 149.096 146.188 149.512H140.716L140.652 148.04ZM138.316 151.752H159.852V155.624H162.796V149.512H160.364C160.62 146.632 160.908 142.536 161.068 139.304H153.452V141.256H158.156L158.092 142.696H153.612V144.616H157.964L157.836 146.088H153.452V148.04H157.708C157.644 148.552 157.58 149.032 157.548 149.512H146.38C147.308 148.968 148.332 148.36 149.26 147.624C150.156 148.232 150.892 148.808 151.404 149.32L152.908 147.944C152.364 147.432 151.66 146.888 150.796 146.312C151.468 145.672 152.044 145.032 152.556 144.36L150.54 143.72C150.156 144.264 149.676 144.776 149.1 145.288C148.364 144.84 147.564 144.424 146.86 144.072L145.42 145.32C146.092 145.64 146.828 146.056 147.5 146.472C146.668 147.048 145.708 147.56 144.812 147.976V146.088H140.492L140.396 144.616H144.684V142.696H140.3L140.204 141.416C141.804 141.128 143.532 140.68 144.908 140.168L143.628 138.408C141.964 138.92 139.212 139.72 137.356 140.04L137.932 149.512H135.5V155.624H138.316V151.752ZM163.34 159.048H150.892V158.792C153.324 157.736 155.82 156.36 157.676 154.92L155.98 153.384L155.34 153.544H140.844V155.72H152.3C150.956 156.552 149.388 157.32 147.98 157.896V159.048H134.86V161.48H147.98V164.456C147.98 164.872 147.82 165 147.308 165C146.828 165 144.972 165 143.212 164.936C143.596 165.64 144.012 166.696 144.172 167.464C146.668 167.464 148.3 167.464 149.452 167.048C150.572 166.664 150.892 165.96 150.892 164.552V161.48H163.34V159.048ZM181.1 158.216V160.264H174.06V158.216H181.1ZM191.404 160.264H184.012V158.216H191.404V160.264ZM184.012 164.36V162.216H191.404V164.36H184.012ZM174.06 162.216H181.1V164.36H174.06V162.216ZM171.244 167.56H174.06V166.6H191.404V167.464H194.348V155.976H171.244V167.56ZM176.172 150.376H188.94V152.392H176.172V150.376ZM173.452 154.408H191.82V148.328H173.452V154.408ZM173.772 144.744V146.856H191.596V144.744H173.772ZM184.78 140.584C184.396 139.752 183.82 138.632 183.34 137.8L180.14 138.472C180.46 139.112 180.844 139.848 181.164 140.584H169.356V146.984H172.204V143.112H193.164V146.984H196.14V140.584H184.78ZM221.9 153.288C221.708 156.104 221.388 159.784 221.004 162.952H213.1C213.644 160.2 214.252 156.808 214.828 153.288H221.9ZM224.14 162.952C224.62 158.824 225.036 154.024 225.26 150.44L222.956 150.248L222.38 150.376H215.34C215.66 148.232 215.98 146.12 216.268 144.104H228.3V141.192H204.172V144.104H213.004C212.716 146.12 212.428 148.232 212.108 150.376H205.932V153.288H211.628C211.02 156.776 210.412 160.168 209.836 162.952H202.22V165.896H230.476V162.952H224.14ZM241.772 155.72V153H248.268V155.72H241.772ZM241.772 148.072H248.268V150.728H241.772V148.072ZM257.964 148.072V150.728H251.34V148.072H257.964ZM257.964 155.72H251.34V153H257.964V155.72ZM264.3 160.36H251.34V158.152H260.94V145.608H251.34V143.624H263.244V140.904H251.34V138.152H248.268V140.904H236.556V143.624H248.268V145.608H238.892V158.152H248.268V160.36H235.628V163.048H248.268V167.592H251.34V163.048H264.3V160.36Z" fill="white"/>
<rect x="153" y="32" width="92.5" height="26" fill="#FDBF52"/>
<path d="M170.268 38.078C168.522 38.636 165.588 39.032 163.122 39.212C163.23 39.554 163.374 40.058 163.41 40.436C165.93 40.292 168.936 39.914 170.934 39.302L170.268 38.078ZM169.854 42.722C170.25 42.11 170.7 41.21 171.132 40.328L169.98 39.878C169.728 40.634 169.242 41.66 168.846 42.326L169.854 42.722ZM165.3 42.398C165.174 41.858 164.868 41.084 164.526 40.508L163.41 40.958C163.716 41.552 164.04 42.38 164.13 42.938L165.3 42.398ZM166.452 48.014C166.434 48.464 166.398 48.896 166.344 49.274H163.068V50.534H166.056C165.642 51.83 164.742 52.676 162.78 53.234C163.086 53.504 163.482 54.062 163.626 54.422C165.372 53.882 166.398 53.09 167.01 52.01C168.162 52.73 169.404 53.648 170.034 54.296L171.006 53.27C170.25 52.532 168.738 51.56 167.514 50.84L167.568 50.534H171.06V49.274H167.802C167.856 48.878 167.892 48.446 167.91 48.014H166.452ZM168.558 45.602C168.774 45.89 168.972 46.214 169.17 46.556L166.038 46.808C167.352 45.962 168.684 44.936 169.944 43.73L168.9 42.938C168.414 43.442 167.874 43.946 167.352 44.396L165.462 44.432C166.074 43.946 166.704 43.334 167.262 42.722L166.92 42.488L168.036 42.002C167.928 41.48 167.622 40.706 167.334 40.13L166.2 40.562C166.47 41.156 166.758 41.912 166.848 42.434L166.2 41.984C165.534 42.938 164.544 43.784 164.238 44.018C163.95 44.234 163.698 44.396 163.446 44.45C163.572 44.81 163.752 45.512 163.806 45.8C164.04 45.71 164.364 45.638 165.912 45.566C165.372 45.944 164.94 46.25 164.688 46.394C164.112 46.772 163.68 47.006 163.284 47.078C163.392 47.438 163.572 48.158 163.626 48.428C164.04 48.212 164.652 48.158 169.746 47.636C169.908 47.96 170.034 48.266 170.124 48.518L171.348 47.996C171.06 47.186 170.394 45.998 169.71 45.116L168.558 45.602ZM173.508 49.958H175.416V52.082H173.508V49.958ZM175.416 44.99H173.508V42.974H175.416V44.99ZM175.416 48.536H173.508V46.412H175.416V48.536ZM179.376 52.082H176.91V49.958H178.908V48.536H176.91V46.412H178.908V44.99H176.91V42.974H179.16V41.462H176.91L177.756 41.156C177.486 40.418 176.946 39.266 176.46 38.402L175.056 38.834C175.506 39.626 175.974 40.724 176.244 41.462H173.58C173.994 40.436 174.318 39.356 174.606 38.276L173.04 37.898C172.428 40.418 171.402 42.92 170.07 44.504C170.412 44.81 170.988 45.494 171.222 45.818C171.492 45.476 171.744 45.116 171.996 44.702V54.404H173.508V53.594H179.376V52.082ZM195.216 40.85H189.726V39.698H195.216V40.85ZM195.216 43.154H189.726V41.984H195.216V43.154ZM196.872 38.474H188.142V44.378H196.872V38.474ZM186.684 39.842C186.036 39.212 184.668 38.456 183.606 38.006L182.67 39.248C183.732 39.752 185.082 40.598 185.694 41.21L186.684 39.842ZM185.766 44.504C185.1 43.928 183.732 43.208 182.67 42.794L181.734 44.054C182.832 44.522 184.164 45.314 184.794 45.908L185.766 44.504ZM184.974 47.456C184.092 49.508 182.904 51.812 182.076 53.198L183.57 54.188C184.47 52.496 185.496 50.354 186.27 48.464L184.974 47.456ZM198.312 46.682V45.314H186.522V46.682H188.826C188.052 47.96 186.918 49.148 185.73 49.94C186.072 50.192 186.648 50.678 186.9 50.948C187.566 50.444 188.25 49.796 188.862 49.076H190.302C189.402 50.606 188.052 51.992 186.63 52.91C186.954 53.162 187.53 53.684 187.782 53.954C189.366 52.784 190.932 51.02 191.976 49.076H193.416C192.732 50.876 191.616 52.46 190.248 53.504C190.59 53.702 191.202 54.17 191.454 54.422C192.912 53.162 194.19 51.254 194.982 49.076H196.134C195.954 51.524 195.738 52.496 195.468 52.784C195.324 52.964 195.18 53 194.946 52.982C194.712 52.982 194.172 52.982 193.578 52.928C193.812 53.306 193.956 53.936 193.992 54.368C194.694 54.404 195.378 54.404 195.756 54.35C196.188 54.296 196.512 54.17 196.8 53.828C197.286 53.288 197.538 51.884 197.772 48.41C197.79 48.194 197.808 47.762 197.808 47.762H189.87C190.104 47.402 190.32 47.042 190.518 46.682H198.312ZM208.104 38.15V52.208C208.104 52.568 207.978 52.676 207.6 52.694C207.222 52.712 205.908 52.712 204.684 52.658C204.954 53.144 205.242 53.936 205.35 54.404C207.06 54.422 208.212 54.368 208.932 54.098C209.634 53.81 209.922 53.324 209.922 52.208V38.15H208.104ZM212.406 42.74C213.864 45.332 215.286 48.68 215.664 50.804L217.482 50.084C217.032 47.906 215.556 44.63 214.026 42.128L212.406 42.74ZM203.442 42.272C203.028 44.648 202.074 47.744 200.562 49.616C201.012 49.778 201.75 50.192 202.164 50.498C203.73 48.5 204.738 45.242 205.332 42.614L203.442 42.272ZM235.14 50.156C233.754 49.49 231.036 48.392 229.218 47.708L228.354 49.004C230.226 49.778 232.908 50.948 234.204 51.668L235.14 50.156ZM235.896 45.998V44.342H228.3V41.858H234.15V40.256H228.3V37.916H226.536V44.342H219.858V45.998H226.59V54.404H228.354V45.998H235.896Z" fill="#573605"/>
<path d="M190.385 287.14C190.12 286.864 189.767 286.562 189.36 286.255C189.749 285.946 190.085 285.614 190.385 285.279L189.282 284.875C189.063 285.109 188.787 285.374 188.46 285.598C188.086 285.331 187.675 285.078 187.314 284.866L186.446 285.494C186.808 285.689 187.184 285.939 187.523 286.185C187.047 286.469 186.502 286.71 185.981 286.881C186.252 287.086 186.646 287.536 186.828 287.732C187.352 287.525 187.921 287.214 188.456 286.881C188.88 287.207 189.249 287.529 189.494 287.821L190.385 287.14ZM183.307 289.773L185.566 289.971C185.801 290.172 186.178 290.621 186.337 290.869L183.27 290.601L183.307 289.773ZM181.816 291.739L193.884 292.795L193.694 294.964L195.344 295.109L195.643 291.684L194.28 291.564C194.565 289.963 194.927 287.682 195.175 285.879L190.908 285.505L190.812 286.599L193.448 286.83L193.341 287.634L190.831 287.414L190.737 288.49L193.176 288.703L193.032 289.522L190.575 289.307L190.479 290.401L192.864 290.609C192.803 290.893 192.744 291.159 192.702 291.426L186.444 290.879C186.991 290.62 187.595 290.329 188.151 289.962C188.623 290.347 189.007 290.706 189.269 291.018L190.179 290.32C189.899 290.007 189.532 289.667 189.076 289.302C189.484 288.977 189.838 288.646 190.158 288.295L189.059 287.837C188.817 288.123 188.523 288.387 188.176 288.645C187.785 288.358 187.357 288.086 186.98 287.854L186.112 288.483C186.473 288.695 186.865 288.964 187.221 289.23C186.726 289.512 186.163 289.752 185.641 289.941L185.734 288.883L183.313 288.672L183.331 287.842L185.734 288.052L185.828 286.976L183.371 286.761L183.38 286.039C184.291 285.956 185.281 285.79 186.078 285.571L185.447 284.522C184.489 284.727 182.908 285.04 181.852 285.129L181.71 290.465L180.348 290.345L180.048 293.77L181.626 293.908L181.816 291.739ZM195.48 297.054L188.505 296.444L188.518 296.3C189.932 295.828 191.398 295.179 192.509 294.463L191.634 293.519L191.267 293.578L183.144 292.867L183.038 294.086L189.457 294.648C188.663 295.048 187.747 295.402 186.93 295.655L186.873 296.301L179.521 295.658L179.402 297.02L186.754 297.664L186.608 299.331C186.588 299.564 186.492 299.628 186.205 299.603C185.936 299.58 184.896 299.489 183.913 299.367C184.094 299.78 184.275 300.392 184.327 300.83C185.726 300.953 186.64 301.033 187.306 300.856C187.952 300.696 188.166 300.317 188.235 299.528L188.386 297.806L195.361 298.417L195.48 297.054Z" fill="#927858"/>
<path d="M208.331 297.941C207.248 298.776 205.136 299.63 203.348 300.057C203.716 300.332 204.195 300.85 204.459 301.189C206.27 300.615 208.43 299.486 209.601 298.408L208.331 297.941ZM212.914 298.281C214.601 298.765 216.871 299.524 218.032 299.983L219.059 298.917C217.807 298.449 215.544 297.779 213.916 297.344L212.914 298.281ZM213.042 288.801C212.832 289.29 212.479 290.007 212.178 290.485L212.841 290.626L207.945 291.054L208.733 290.768C208.554 290.368 208.155 289.735 207.753 289.264L213.042 288.801ZM211.675 295.48L211.581 294.404L217.086 293.922L216.976 292.667L211.471 293.149L211.377 292.073L217.725 291.518L217.61 290.209L213.809 290.541C214.131 290.097 214.502 289.577 214.849 289.005L213.419 288.768L218.117 288.357L218.001 287.03L215.437 287.255C215.845 286.551 216.304 285.607 216.712 284.686L214.951 284.388C214.753 285.219 214.296 286.397 213.928 287.152L214.648 287.324L212.693 287.495L212.423 284.411L210.845 284.549L211.115 287.633L209.34 287.788L209.07 284.704L207.51 284.84L207.78 287.925L205.772 288.1L206.691 287.659C206.378 286.981 205.655 285.942 205.032 285.22L203.623 285.849C204.19 286.54 204.814 287.479 205.144 288.155L202.472 288.389L202.588 289.716L207.161 289.316L206.143 289.658C206.488 290.097 206.848 290.698 207.067 291.131L203.462 291.446L203.577 292.755L209.745 292.216L209.839 293.292L204.55 293.754L204.66 295.01L209.949 294.547L210.043 295.623L203.086 296.231L203.208 297.63L210.166 297.021L210.53 301.181L212.162 301.039L211.798 296.879L218.863 296.26L218.74 294.862L211.675 295.48Z" fill="#927858"/>
</g>
</g>
<defs>
<filter id="filter0_d_114_13252" x="-4" y="1" width="408" height="407" filterUnits="userSpaceOnUse" color-interpolation-filters="sRGB">
<feFlood flood-opacity="0" result="BackgroundImageFix"/>
<feColorMatrix in="SourceAlpha" type="matrix" values="0 0 0 0 0 0 0 0 0 0 0 0 0 0 0 0 0 0 127 0" result="hardAlpha"/>
<feOffset dy="4"/>
<feGaussianBlur stdDeviation="2"/>
<feComposite in2="hardAlpha" operator="out"/>
<feColorMatrix type="matrix" values="0 0 0 0 0 0 0 0 0 0 0 0 0 0 0 0 0 0 0.25 0"/>
<feBlend mode="normal" in2="BackgroundImageFix" result="effect1_dropShadow_114_13252"/>
<feBlend mode="normal" in="SourceGraphic" in2="effect1_dropShadow_114_13252" result="shape"/>
</filter>
<filter id="filter1_i_114_13252" x="0" y="1" width="400" height="203" filterUnits="userSpaceOnUse" color-interpolation-filters="sRGB">
<feFlood flood-opacity="0" result="BackgroundImageFix"/>
<feBlend mode="normal" in="SourceGraphic" in2="BackgroundImageFix" result="shape"/>
<feColorMatrix in="SourceAlpha" type="matrix" values="0 0 0 0 0 0 0 0 0 0 0 0 0 0 0 0 0 0 127 0" result="hardAlpha"/>
<feOffset dy="4"/>
<feGaussianBlur stdDeviation="2"/>
<feComposite in2="hardAlpha" operator="arithmetic" k2="-1" k3="1"/>
<feColorMatrix type="matrix" values="0 0 0 0 0 0 0 0 0 0 0 0 0 0 0 0 0 0 0.35 0"/>
<feBlend mode="normal" in2="shape" result="effect1_innerShadow_114_13252"/>
</filter>
<filter id="filter2_i_114_13252" x="0" y="198" width="400" height="202" filterUnits="userSpaceOnUse" color-interpolation-filters="sRGB">
<feFlood flood-opacity="0" result="BackgroundImageFix"/>
<feBlend mode="normal" in="SourceGraphic" in2="BackgroundImageFix" result="shape"/>
<feColorMatrix in="SourceAlpha" type="matrix" values="0 0 0 0 0 0 0 0 0 0 0 0 0 0 0 0 0 0 127 0" result="hardAlpha"/>
<feOffset dy="-2"/>
<feGaussianBlur stdDeviation="2"/>
<feComposite in2="hardAlpha" operator="arithmetic" k2="-1" k3="1"/>
<feColorMatrix type="matrix" values="0 0 0 0 0 0 0 0 0 0 0 0 0 0 0 0 0 0 0.25 0"/>
<feBlend mode="normal" in2="shape" result="effect1_innerShadow_114_13252"/>
</filter>
<filter id="filter3_di_114_13252" x="-8" y="200" width="416" height="158" filterUnits="userSpaceOnUse" color-interpolation-filters="sRGB">
<feFlood flood-opacity="0" result="BackgroundImageFix"/>
<feColorMatrix in="SourceAlpha" type="matrix" values="0 0 0 0 0 0 0 0 0 0 0 0 0 0 0 0 0 0 127 0" result="hardAlpha"/>
<feOffset dy="10"/>
<feGaussianBlur stdDeviation="4"/>
<feComposite in2="hardAlpha" operator="out"/>
<feColorMatrix type="matrix" values="0 0 0 0 0 0 0 0 0 0 0 0 0 0 0 0 0 0 0.25 0"/>
<feBlend mode="normal" in2="BackgroundImageFix" result="effect1_dropShadow_114_13252"/>
<feBlend mode="normal" in="SourceGraphic" in2="effect1_dropShadow_114_13252" result="shape"/>
<feColorMatrix in="SourceAlpha" type="matrix" values="0 0 0 0 0 0 0 0 0 0 0 0 0 0 0 0 0 0 127 0" result="hardAlpha"/>
<feOffset dy="3"/>
<feGaussianBlur stdDeviation="4"/>
<feComposite in2="hardAlpha" operator="arithmetic" k2="-1" k3="1"/>
<feColorMatrix type="matrix" values="0 0 0 0 0 0 0 0 0 0 0 0 0 0 0 0 0 0 0.25 0"/>
<feBlend mode="normal" in2="shape" result="effect2_innerShadow_114_13252"/>
</filter>
<clipPath id="clip0_114_13252">
<rect width="400" height="400" fill="white"/>
</clipPath>
</defs>
</svg>
