<svg width="400" height="400" viewBox="0 0 400 400" fill="none" xmlns="http://www.w3.org/2000/svg">
<g clip-path="url(#clip0_114_13372)">
<g filter="url(#filter0_d_114_13372)">
<g filter="url(#filter1_i_114_13372)">
<path d="M400 200C400 147.222 378.929 96.6055 341.421 59.2858C303.914 21.966 253.043 1 200 1C146.957 0.999996 96.0859 21.966 58.5787 59.2857C21.0714 96.6055 8.00932e-06 147.222 0 200L400 200Z" fill="#FDBF52"/>
</g>
<path d="M360 201C360 158.565 343.143 117.869 313.137 87.8629C283.131 57.8571 242.435 41 200 41C157.565 41 116.869 57.8571 86.8629 87.8629C56.8571 117.869 40 158.565 40 201" stroke="#FCDBA3" stroke-width="3"/>
<g filter="url(#filter2_i_114_13372)">
<path d="M1.74846e-05 200C1.28474e-05 253.043 21.0714 303.914 58.5786 341.421C96.0859 378.929 146.957 400 200 400C253.043 400 303.914 378.929 341.421 341.421C378.929 303.914 400 253.043 400 200L200 200L1.74846e-05 200Z" fill="#FDBF52"/>
<path d="M1.74846e-05 200C1.28474e-05 253.043 21.0714 303.914 58.5786 341.421C96.0859 378.929 146.957 400 200 400C253.043 400 303.914 378.929 341.421 341.421C378.929 303.914 400 253.043 400 200L200 200L1.74846e-05 200Z" fill="black" fill-opacity="0.2"/>
</g>
<g filter="url(#filter3_di_114_13372)">
<path d="M1.22392e-05 200C8.99315e-06 237.13 21.0714 272.74 58.5786 298.995C96.0859 325.25 146.957 340 200 340C253.043 340 303.914 325.25 341.421 298.995C378.929 272.74 400 237.13 400 200L200 200L1.22392e-05 200Z" fill="#FCDBA3"/>
</g>
<path d="M40 200C40 229.704 56.8571 258.192 86.8629 279.196C116.869 300.2 157.565 312 200 312C242.435 312 283.131 300.2 313.137 279.196C343.143 258.192 360 229.704 360 200" stroke="#FDBF52" stroke-width="3"/>
<path d="M152.78 102.28C152.268 101.832 151.596 101.352 150.828 100.872C151.468 100.264 152.012 99.624 152.492 98.984L150.476 98.44C150.124 98.888 149.676 99.4 149.132 99.848C148.428 99.432 147.66 99.048 146.988 98.728L145.548 99.976C146.22 100.264 146.924 100.648 147.564 101.032C146.764 101.608 145.836 102.12 144.94 102.504C145.452 102.824 146.22 103.56 146.572 103.88C147.468 103.432 148.428 102.792 149.324 102.12C150.124 102.632 150.828 103.144 151.308 103.624L152.78 102.28ZM140.652 108.04H144.684C145.132 108.36 145.868 109.096 146.188 109.512H140.716L140.652 108.04ZM138.316 111.752H159.852V115.624H162.796V109.512H160.364C160.62 106.632 160.908 102.536 161.068 99.304H153.452V101.256H158.156L158.092 102.696H153.612V104.616H157.964L157.836 106.088H153.452V108.04H157.708C157.644 108.552 157.58 109.032 157.548 109.512H146.38C147.308 108.968 148.332 108.36 149.26 107.624C150.156 108.232 150.892 108.808 151.404 109.32L152.908 107.944C152.364 107.432 151.66 106.888 150.796 106.312C151.468 105.672 152.044 105.032 152.556 104.36L150.54 103.72C150.156 104.264 149.676 104.776 149.1 105.288C148.364 104.84 147.564 104.424 146.86 104.072L145.42 105.32C146.092 105.64 146.828 106.056 147.5 106.472C146.668 107.048 145.708 107.56 144.812 107.976V106.088H140.492L140.396 104.616H144.684V102.696H140.3L140.204 101.416C141.804 101.128 143.532 100.68 144.908 100.168L143.628 98.408C141.964 98.92 139.212 99.72 137.356 100.04L137.932 109.512H135.5V115.624H138.316V111.752ZM163.34 119.048H150.892V118.792C153.324 117.736 155.82 116.36 157.676 114.92L155.98 113.384L155.34 113.544H140.844V115.72H152.3C150.956 116.552 149.388 117.32 147.98 117.896V119.048H134.86V121.48H147.98V124.456C147.98 124.872 147.82 125 147.308 125C146.828 125 144.972 125 143.212 124.936C143.596 125.64 144.012 126.696 144.172 127.464C146.668 127.464 148.3 127.464 149.452 127.048C150.572 126.664 150.892 125.96 150.892 124.552V121.48H163.34V119.048ZM190.124 113.512H177.644V110.76H190.124V113.512ZM177.548 118.792C177.612 118.024 177.644 117.256 177.644 116.552V116.008H190.124V118.792H177.548ZM196.716 104.936V102.152H180.78C181.228 101.064 181.58 99.944 181.932 98.856L178.892 98.152C178.54 99.464 178.092 100.808 177.548 102.152H168.78V104.936H176.3C174.316 108.776 171.596 112.328 168.076 114.696C168.684 115.272 169.58 116.328 170.028 117C171.756 115.784 173.292 114.344 174.668 112.712V116.488C174.668 119.464 174.412 122.952 171.724 125.416C172.3 125.832 173.484 127.08 173.868 127.752C175.756 126.024 176.748 123.688 177.228 121.288H190.124V124.04C190.124 124.52 189.964 124.68 189.42 124.68C188.876 124.712 186.956 124.712 185.068 124.616C185.452 125.416 185.9 126.696 185.996 127.496C188.652 127.496 190.444 127.496 191.564 127.016C192.716 126.568 193.036 125.672 193.036 124.072V108.136H177.9C178.508 107.112 179.052 106.024 179.596 104.936H196.716ZM211.884 108.776V113.352H206.348V112.424V108.776H211.884ZM214.732 116.04V106.088H206.348V103.4C209.772 102.984 213.516 102.312 216.14 101.288L214.22 98.792C211.66 99.88 207.212 100.68 203.404 101.16V112.424C203.404 116.584 203.244 121.96 201.196 125.768C201.868 126.088 203.116 127.08 203.628 127.656C205.452 124.52 206.06 120.008 206.252 116.04H214.732ZM230.956 108.84H220.364V103.464C223.884 102.952 227.692 102.184 230.444 101.128L228.46 98.568C225.772 99.72 221.292 100.68 217.356 101.256V111.496C217.356 115.976 216.972 121.672 212.94 125.608C213.612 125.992 214.828 127.048 215.308 127.624C219.628 123.464 220.332 116.68 220.364 111.72H224.62V127.4H227.564V111.72H230.956V108.84ZM259.468 108.328C258.54 111.272 257.356 113.928 255.82 116.296C255.084 113.448 254.572 109.992 254.252 106.184H264.3V103.272H261.036L262.572 101.64C261.324 100.552 258.924 99.08 257.036 98.088L255.244 99.912C256.94 100.84 259.02 102.216 260.268 103.272H254.092C253.996 101.608 253.964 99.912 253.996 98.184H250.86C250.86 99.88 250.924 101.608 251.02 103.272H237.868V112.328C237.868 116.456 237.644 121.96 235.084 125.8C235.756 126.184 237.068 127.24 237.58 127.848C240.396 123.72 240.94 117.32 240.972 112.776H246.092C245.996 117.608 245.804 119.432 245.452 119.88C245.228 120.168 244.908 120.264 244.46 120.264C243.948 120.264 242.7 120.232 241.388 120.104C241.836 120.872 242.124 122.024 242.188 122.888C243.724 122.952 245.164 122.952 245.964 122.824C246.828 122.728 247.436 122.472 248.012 121.8C248.684 120.904 248.844 118.152 249.004 111.208V110.056H240.972V106.184H251.212C251.596 111.176 252.332 115.752 253.484 119.368C251.532 121.64 249.164 123.496 246.508 124.968C247.18 125.512 248.236 126.76 248.684 127.4C250.892 126.056 252.908 124.424 254.732 122.504C256.172 125.512 258.028 127.304 260.364 127.304C262.988 127.304 264.076 125.8 264.556 120.168C263.756 119.88 262.7 119.208 261.996 118.504C261.804 122.632 261.42 124.264 260.588 124.264C259.244 124.264 257.996 122.6 256.908 119.88C259.244 116.808 261.132 113.192 262.476 109.064L259.468 108.328ZM163.02 144.52H155.116V138.152H151.852V144.52H135.34V147.56H148.812C145.356 153.032 139.852 158.44 134.316 161.224C135.18 161.928 136.14 163.08 136.652 163.912C142.38 160.584 148.236 154.504 151.852 148.488V163.272C151.852 163.88 151.596 164.072 150.956 164.104C150.316 164.104 148.076 164.136 145.964 164.04C146.38 164.904 146.86 166.312 146.988 167.176C150.156 167.176 152.14 167.112 153.388 166.6C154.604 166.12 155.116 165.256 155.116 163.272V147.56H163.02V144.52ZM186.668 159.688V162.152H178.476V159.688H186.668ZM189.292 164.296V157.544H175.724V165.768H178.476V164.296H189.292ZM195.724 153.512H169.708V167.528H172.62V155.976H192.716V164.584C192.716 164.968 192.556 165.096 192.14 165.096C191.788 165.128 190.188 165.128 188.844 165.064C189.196 165.704 189.612 166.6 189.772 167.272C191.916 167.304 193.388 167.272 194.38 166.92C195.372 166.536 195.724 165.992 195.724 164.584V153.512ZM189.324 149.864H176.204V147.496H189.324V149.864ZM173.26 145.416V151.976H192.46V145.416H173.26ZM184.748 141.352C184.428 140.328 183.916 139.048 183.5 138.024L180.492 138.728C180.78 139.528 181.1 140.488 181.388 141.352H168.684V143.88H196.588V141.352H184.748ZM209.868 140.488C209.356 149.448 208.076 160.008 201.548 165.576C202.284 165.992 203.468 167.048 203.98 167.624C210.828 161.608 212.332 150.408 213.132 140.68L209.868 140.488ZM215.916 139.848V142.856H218.636C219.948 152.968 222.444 162.408 228.076 167.72C228.812 167.08 230.156 166.088 231.02 165.64C225.164 160.616 222.508 150.568 221.324 139.848H215.916ZM250.7 144.104C249.004 142.824 245.612 141.032 243.18 139.944L241.452 142.184C243.948 143.464 247.244 145.32 248.876 146.664L250.7 144.104ZM247.788 151.592C245.932 150.28 242.188 148.424 239.5 147.304L237.74 149.544C240.492 150.824 244.14 152.808 245.9 154.152L247.788 151.592ZM264.108 157.512L263.692 154.664L256.652 155.688V138.184H253.516V156.104L235.756 158.632L236.204 161.576L253.516 159.048V167.528H256.652V158.6L264.108 157.512Z" fill="white"/>
<rect x="153" y="32" width="92.5" height="26" fill="#FDBF52"/>
<path d="M170.268 38.078C168.522 38.636 165.588 39.032 163.122 39.212C163.23 39.554 163.374 40.058 163.41 40.436C165.93 40.292 168.936 39.914 170.934 39.302L170.268 38.078ZM169.854 42.722C170.25 42.11 170.7 41.21 171.132 40.328L169.98 39.878C169.728 40.634 169.242 41.66 168.846 42.326L169.854 42.722ZM165.3 42.398C165.174 41.858 164.868 41.084 164.526 40.508L163.41 40.958C163.716 41.552 164.04 42.38 164.13 42.938L165.3 42.398ZM166.452 48.014C166.434 48.464 166.398 48.896 166.344 49.274H163.068V50.534H166.056C165.642 51.83 164.742 52.676 162.78 53.234C163.086 53.504 163.482 54.062 163.626 54.422C165.372 53.882 166.398 53.09 167.01 52.01C168.162 52.73 169.404 53.648 170.034 54.296L171.006 53.27C170.25 52.532 168.738 51.56 167.514 50.84L167.568 50.534H171.06V49.274H167.802C167.856 48.878 167.892 48.446 167.91 48.014H166.452ZM168.558 45.602C168.774 45.89 168.972 46.214 169.17 46.556L166.038 46.808C167.352 45.962 168.684 44.936 169.944 43.73L168.9 42.938C168.414 43.442 167.874 43.946 167.352 44.396L165.462 44.432C166.074 43.946 166.704 43.334 167.262 42.722L166.92 42.488L168.036 42.002C167.928 41.48 167.622 40.706 167.334 40.13L166.2 40.562C166.47 41.156 166.758 41.912 166.848 42.434L166.2 41.984C165.534 42.938 164.544 43.784 164.238 44.018C163.95 44.234 163.698 44.396 163.446 44.45C163.572 44.81 163.752 45.512 163.806 45.8C164.04 45.71 164.364 45.638 165.912 45.566C165.372 45.944 164.94 46.25 164.688 46.394C164.112 46.772 163.68 47.006 163.284 47.078C163.392 47.438 163.572 48.158 163.626 48.428C164.04 48.212 164.652 48.158 169.746 47.636C169.908 47.96 170.034 48.266 170.124 48.518L171.348 47.996C171.06 47.186 170.394 45.998 169.71 45.116L168.558 45.602ZM173.508 49.958H175.416V52.082H173.508V49.958ZM175.416 44.99H173.508V42.974H175.416V44.99ZM175.416 48.536H173.508V46.412H175.416V48.536ZM179.376 52.082H176.91V49.958H178.908V48.536H176.91V46.412H178.908V44.99H176.91V42.974H179.16V41.462H176.91L177.756 41.156C177.486 40.418 176.946 39.266 176.46 38.402L175.056 38.834C175.506 39.626 175.974 40.724 176.244 41.462H173.58C173.994 40.436 174.318 39.356 174.606 38.276L173.04 37.898C172.428 40.418 171.402 42.92 170.07 44.504C170.412 44.81 170.988 45.494 171.222 45.818C171.492 45.476 171.744 45.116 171.996 44.702V54.404H173.508V53.594H179.376V52.082ZM195.216 40.85H189.726V39.698H195.216V40.85ZM195.216 43.154H189.726V41.984H195.216V43.154ZM196.872 38.474H188.142V44.378H196.872V38.474ZM186.684 39.842C186.036 39.212 184.668 38.456 183.606 38.006L182.67 39.248C183.732 39.752 185.082 40.598 185.694 41.21L186.684 39.842ZM185.766 44.504C185.1 43.928 183.732 43.208 182.67 42.794L181.734 44.054C182.832 44.522 184.164 45.314 184.794 45.908L185.766 44.504ZM184.974 47.456C184.092 49.508 182.904 51.812 182.076 53.198L183.57 54.188C184.47 52.496 185.496 50.354 186.27 48.464L184.974 47.456ZM198.312 46.682V45.314H186.522V46.682H188.826C188.052 47.96 186.918 49.148 185.73 49.94C186.072 50.192 186.648 50.678 186.9 50.948C187.566 50.444 188.25 49.796 188.862 49.076H190.302C189.402 50.606 188.052 51.992 186.63 52.91C186.954 53.162 187.53 53.684 187.782 53.954C189.366 52.784 190.932 51.02 191.976 49.076H193.416C192.732 50.876 191.616 52.46 190.248 53.504C190.59 53.702 191.202 54.17 191.454 54.422C192.912 53.162 194.19 51.254 194.982 49.076H196.134C195.954 51.524 195.738 52.496 195.468 52.784C195.324 52.964 195.18 53 194.946 52.982C194.712 52.982 194.172 52.982 193.578 52.928C193.812 53.306 193.956 53.936 193.992 54.368C194.694 54.404 195.378 54.404 195.756 54.35C196.188 54.296 196.512 54.17 196.8 53.828C197.286 53.288 197.538 51.884 197.772 48.41C197.79 48.194 197.808 47.762 197.808 47.762H189.87C190.104 47.402 190.32 47.042 190.518 46.682H198.312ZM208.104 38.15V52.208C208.104 52.568 207.978 52.676 207.6 52.694C207.222 52.712 205.908 52.712 204.684 52.658C204.954 53.144 205.242 53.936 205.35 54.404C207.06 54.422 208.212 54.368 208.932 54.098C209.634 53.81 209.922 53.324 209.922 52.208V38.15H208.104ZM212.406 42.74C213.864 45.332 215.286 48.68 215.664 50.804L217.482 50.084C217.032 47.906 215.556 44.63 214.026 42.128L212.406 42.74ZM203.442 42.272C203.028 44.648 202.074 47.744 200.562 49.616C201.012 49.778 201.75 50.192 202.164 50.498C203.73 48.5 204.738 45.242 205.332 42.614L203.442 42.272ZM235.14 50.156C233.754 49.49 231.036 48.392 229.218 47.708L228.354 49.004C230.226 49.778 232.908 50.948 234.204 51.668L235.14 50.156ZM235.896 45.998V44.342H228.3V41.858H234.15V40.256H228.3V37.916H226.536V44.342H219.858V45.998H226.59V54.404H228.354V45.998H235.896Z" fill="#573605"/>
<path d="M190.385 287.14C190.12 286.864 189.767 286.562 189.36 286.255C189.749 285.946 190.085 285.614 190.385 285.279L189.282 284.875C189.063 285.109 188.787 285.374 188.46 285.598C188.086 285.331 187.675 285.078 187.314 284.866L186.446 285.494C186.808 285.689 187.184 285.939 187.523 286.185C187.047 286.469 186.502 286.71 185.981 286.881C186.252 287.086 186.646 287.536 186.828 287.732C187.352 287.525 187.921 287.214 188.456 286.881C188.88 287.207 189.249 287.529 189.494 287.821L190.385 287.14ZM183.307 289.773L185.566 289.971C185.801 290.172 186.178 290.621 186.337 290.869L183.27 290.601L183.307 289.773ZM181.816 291.739L193.884 292.795L193.694 294.964L195.344 295.109L195.643 291.684L194.28 291.564C194.565 289.963 194.927 287.682 195.175 285.879L190.908 285.505L190.812 286.599L193.448 286.83L193.341 287.634L190.831 287.414L190.737 288.49L193.176 288.703L193.032 289.522L190.575 289.307L190.479 290.401L192.864 290.609C192.803 290.893 192.744 291.159 192.702 291.426L186.444 290.879C186.991 290.62 187.595 290.329 188.151 289.962C188.623 290.347 189.007 290.706 189.269 291.018L190.179 290.32C189.899 290.007 189.532 289.667 189.076 289.302C189.484 288.977 189.838 288.646 190.158 288.295L189.059 287.837C188.817 288.123 188.523 288.387 188.176 288.645C187.785 288.358 187.357 288.086 186.98 287.854L186.112 288.483C186.473 288.695 186.865 288.964 187.221 289.23C186.726 289.512 186.163 289.752 185.641 289.941L185.734 288.883L183.313 288.672L183.331 287.842L185.734 288.052L185.828 286.976L183.371 286.761L183.38 286.039C184.291 285.956 185.281 285.79 186.078 285.571L185.447 284.522C184.489 284.727 182.908 285.04 181.852 285.129L181.71 290.465L180.348 290.345L180.048 293.77L181.626 293.908L181.816 291.739ZM195.48 297.054L188.505 296.444L188.518 296.3C189.932 295.828 191.398 295.179 192.509 294.463L191.634 293.519L191.267 293.578L183.144 292.867L183.038 294.086L189.457 294.648C188.663 295.048 187.747 295.402 186.93 295.655L186.873 296.301L179.521 295.658L179.402 297.02L186.754 297.664L186.608 299.331C186.588 299.564 186.492 299.628 186.205 299.603C185.936 299.58 184.896 299.489 183.913 299.367C184.094 299.78 184.275 300.392 184.327 300.83C185.726 300.953 186.64 301.033 187.306 300.856C187.952 300.696 188.166 300.317 188.235 299.528L188.386 297.806L195.361 298.417L195.48 297.054Z" fill="#927858"/>
<path d="M208.331 297.941C207.248 298.776 205.136 299.63 203.348 300.057C203.716 300.332 204.195 300.85 204.459 301.189C206.27 300.615 208.43 299.486 209.601 298.408L208.331 297.941ZM212.914 298.281C214.601 298.765 216.871 299.524 218.032 299.983L219.059 298.917C217.807 298.449 215.544 297.779 213.916 297.344L212.914 298.281ZM213.042 288.801C212.832 289.29 212.479 290.007 212.178 290.485L212.841 290.626L207.945 291.054L208.733 290.768C208.554 290.368 208.155 289.735 207.753 289.264L213.042 288.801ZM211.675 295.48L211.581 294.404L217.086 293.922L216.976 292.667L211.471 293.149L211.377 292.073L217.725 291.518L217.61 290.209L213.809 290.541C214.131 290.097 214.502 289.577 214.849 289.005L213.419 288.768L218.117 288.357L218.001 287.03L215.437 287.255C215.845 286.551 216.304 285.607 216.712 284.686L214.951 284.388C214.753 285.219 214.296 286.397 213.928 287.152L214.648 287.324L212.693 287.495L212.423 284.411L210.845 284.549L211.115 287.633L209.34 287.788L209.07 284.704L207.51 284.84L207.78 287.925L205.772 288.1L206.691 287.659C206.378 286.981 205.655 285.942 205.032 285.22L203.623 285.849C204.19 286.54 204.814 287.479 205.144 288.155L202.472 288.389L202.588 289.716L207.161 289.316L206.143 289.658C206.488 290.097 206.848 290.698 207.067 291.131L203.462 291.446L203.577 292.755L209.745 292.216L209.839 293.292L204.55 293.754L204.66 295.01L209.949 294.547L210.043 295.623L203.086 296.231L203.208 297.63L210.166 297.021L210.53 301.181L212.162 301.039L211.798 296.879L218.863 296.26L218.74 294.862L211.675 295.48Z" fill="#927858"/>
</g>
</g>
<defs>
<filter id="filter0_d_114_13372" x="-4" y="1" width="408" height="407" filterUnits="userSpaceOnUse" color-interpolation-filters="sRGB">
<feFlood flood-opacity="0" result="BackgroundImageFix"/>
<feColorMatrix in="SourceAlpha" type="matrix" values="0 0 0 0 0 0 0 0 0 0 0 0 0 0 0 0 0 0 127 0" result="hardAlpha"/>
<feOffset dy="4"/>
<feGaussianBlur stdDeviation="2"/>
<feComposite in2="hardAlpha" operator="out"/>
<feColorMatrix type="matrix" values="0 0 0 0 0 0 0 0 0 0 0 0 0 0 0 0 0 0 0.25 0"/>
<feBlend mode="normal" in2="BackgroundImageFix" result="effect1_dropShadow_114_13372"/>
<feBlend mode="normal" in="SourceGraphic" in2="effect1_dropShadow_114_13372" result="shape"/>
</filter>
<filter id="filter1_i_114_13372" x="0" y="1" width="400" height="203" filterUnits="userSpaceOnUse" color-interpolation-filters="sRGB">
<feFlood flood-opacity="0" result="BackgroundImageFix"/>
<feBlend mode="normal" in="SourceGraphic" in2="BackgroundImageFix" result="shape"/>
<feColorMatrix in="SourceAlpha" type="matrix" values="0 0 0 0 0 0 0 0 0 0 0 0 0 0 0 0 0 0 127 0" result="hardAlpha"/>
<feOffset dy="4"/>
<feGaussianBlur stdDeviation="2"/>
<feComposite in2="hardAlpha" operator="arithmetic" k2="-1" k3="1"/>
<feColorMatrix type="matrix" values="0 0 0 0 0 0 0 0 0 0 0 0 0 0 0 0 0 0 0.35 0"/>
<feBlend mode="normal" in2="shape" result="effect1_innerShadow_114_13372"/>
</filter>
<filter id="filter2_i_114_13372" x="0" y="198" width="400" height="202" filterUnits="userSpaceOnUse" color-interpolation-filters="sRGB">
<feFlood flood-opacity="0" result="BackgroundImageFix"/>
<feBlend mode="normal" in="SourceGraphic" in2="BackgroundImageFix" result="shape"/>
<feColorMatrix in="SourceAlpha" type="matrix" values="0 0 0 0 0 0 0 0 0 0 0 0 0 0 0 0 0 0 127 0" result="hardAlpha"/>
<feOffset dy="-2"/>
<feGaussianBlur stdDeviation="2"/>
<feComposite in2="hardAlpha" operator="arithmetic" k2="-1" k3="1"/>
<feColorMatrix type="matrix" values="0 0 0 0 0 0 0 0 0 0 0 0 0 0 0 0 0 0 0.25 0"/>
<feBlend mode="normal" in2="shape" result="effect1_innerShadow_114_13372"/>
</filter>
<filter id="filter3_di_114_13372" x="-8" y="200" width="416" height="158" filterUnits="userSpaceOnUse" color-interpolation-filters="sRGB">
<feFlood flood-opacity="0" result="BackgroundImageFix"/>
<feColorMatrix in="SourceAlpha" type="matrix" values="0 0 0 0 0 0 0 0 0 0 0 0 0 0 0 0 0 0 127 0" result="hardAlpha"/>
<feOffset dy="10"/>
<feGaussianBlur stdDeviation="4"/>
<feComposite in2="hardAlpha" operator="out"/>
<feColorMatrix type="matrix" values="0 0 0 0 0 0 0 0 0 0 0 0 0 0 0 0 0 0 0.25 0"/>
<feBlend mode="normal" in2="BackgroundImageFix" result="effect1_dropShadow_114_13372"/>
<feBlend mode="normal" in="SourceGraphic" in2="effect1_dropShadow_114_13372" result="shape"/>
<feColorMatrix in="SourceAlpha" type="matrix" values="0 0 0 0 0 0 0 0 0 0 0 0 0 0 0 0 0 0 127 0" result="hardAlpha"/>
<feOffset dy="3"/>
<feGaussianBlur stdDeviation="4"/>
<feComposite in2="hardAlpha" operator="arithmetic" k2="-1" k3="1"/>
<feColorMatrix type="matrix" values="0 0 0 0 0 0 0 0 0 0 0 0 0 0 0 0 0 0 0.25 0"/>
<feBlend mode="normal" in2="shape" result="effect2_innerShadow_114_13372"/>
</filter>
<clipPath id="clip0_114_13372">
<rect width="400" height="400" fill="white"/>
</clipPath>
</defs>
</svg>
