<svg width="425" height="425" viewBox="0 0 425 425" fill="none" xmlns="http://www.w3.org/2000/svg">
<g filter="url(#filter0_i_114_13312)">
<path d="M412 213C412 160.222 390.929 109.605 353.421 72.2858C315.914 34.966 265.043 14 212 14C158.957 14 108.086 34.966 70.5787 72.2857C33.0714 109.605 12 160.222 12 213L412 213Z" fill="#FDBF52"/>
</g>
<path d="M372 214C372 171.565 355.143 130.869 325.137 100.863C295.131 70.8571 254.435 54 212 54C169.565 54 128.869 70.8571 98.8629 100.863C68.8571 130.869 52 171.565 52 214" stroke="#FCDBA3" stroke-width="3"/>
<path d="M12 213C12 266.043 33.0714 316.914 70.5786 354.421C108.086 391.929 158.957 413 212 413C265.043 413 315.914 391.929 353.421 354.421C390.929 316.914 412 266.043 412 213L212 213L12 213Z" fill="#FDBF52"/>
<path d="M12 213C12 266.043 33.0714 316.914 70.5786 354.421C108.086 391.929 158.957 413 212 413C265.043 413 315.914 391.929 353.421 354.421C390.929 316.914 412 266.043 412 213L212 213L12 213Z" fill="black" fill-opacity="0.2"/>
<g filter="url(#filter1_di_114_13312)">
<path d="M12 213C12 250.13 33.0714 285.74 70.5786 311.995C108.086 338.25 158.957 353 212 353C265.043 353 315.914 338.25 353.421 311.995C390.929 285.74 412 250.13 412 213L212 213L12 213Z" fill="#FCDBA3"/>
</g>
<path d="M52 213C52 242.704 68.8571 271.192 98.8629 292.196C128.869 313.2 169.565 325 212 325C254.435 325 295.131 313.2 325.137 292.196C355.143 271.192 372 242.704 372 213" stroke="#FDBF52" stroke-width="3"/>
<path d="M164.78 115.28C164.268 114.832 163.596 114.352 162.828 113.872C163.468 113.264 164.012 112.624 164.492 111.984L162.476 111.44C162.124 111.888 161.676 112.4 161.132 112.848C160.428 112.432 159.66 112.048 158.988 111.728L157.548 112.976C158.22 113.264 158.924 113.648 159.564 114.032C158.764 114.608 157.836 115.12 156.94 115.504C157.452 115.824 158.22 116.56 158.572 116.88C159.468 116.432 160.428 115.792 161.324 115.12C162.124 115.632 162.828 116.144 163.308 116.624L164.78 115.28ZM152.652 121.04H156.684C157.132 121.36 157.868 122.096 158.188 122.512H152.716L152.652 121.04ZM150.316 124.752H171.852V128.624H174.796V122.512H172.364C172.62 119.632 172.908 115.536 173.068 112.304H165.452V114.256H170.156L170.092 115.696H165.612V117.616H169.964L169.836 119.088H165.452V121.04H169.708C169.644 121.552 169.58 122.032 169.548 122.512H158.38C159.308 121.968 160.332 121.36 161.26 120.624C162.156 121.232 162.892 121.808 163.404 122.32L164.908 120.944C164.364 120.432 163.66 119.888 162.796 119.312C163.468 118.672 164.044 118.032 164.556 117.36L162.54 116.72C162.156 117.264 161.676 117.776 161.1 118.288C160.364 117.84 159.564 117.424 158.86 117.072L157.42 118.32C158.092 118.64 158.828 119.056 159.5 119.472C158.668 120.048 157.708 120.56 156.812 120.976V119.088H152.492L152.396 117.616H156.684V115.696H152.3L152.204 114.416C153.804 114.128 155.532 113.68 156.908 113.168L155.628 111.408C153.964 111.92 151.212 112.72 149.356 113.04L149.932 122.512H147.5V128.624H150.316V124.752ZM175.34 132.048H162.892V131.792C165.324 130.736 167.82 129.36 169.676 127.92L167.98 126.384L167.34 126.544H152.844V128.72H164.3C162.956 129.552 161.388 130.32 159.98 130.896V132.048H146.86V134.48H159.98V137.456C159.98 137.872 159.82 138 159.308 138C158.828 138 156.972 138 155.212 137.936C155.596 138.64 156.012 139.696 156.172 140.464C158.668 140.464 160.3 140.464 161.452 140.048C162.572 139.664 162.892 138.96 162.892 137.552V134.48H175.34V132.048ZM189.804 134.448C187.756 135.76 183.884 136.944 180.652 137.424C181.26 137.968 182.028 138.96 182.444 139.6C185.74 138.864 189.74 137.2 191.98 135.472L189.804 134.448ZM197.868 135.76C200.78 136.88 204.684 138.576 206.668 139.568L208.652 137.84C206.508 136.816 202.604 135.28 199.788 134.256L197.868 135.76ZM199.564 118.992C199.116 119.824 198.38 121.04 197.772 121.84L198.924 122.192H190.188L191.628 121.808C191.372 121.072 190.764 119.888 190.124 118.992H199.564ZM196.108 130.608V128.688H205.932V126.448H196.108V124.528H207.436V122.192H200.652C201.292 121.456 202.028 120.592 202.732 119.632L200.236 118.992H208.62V116.624H204.044C204.876 115.44 205.836 113.84 206.7 112.272L203.628 111.472C203.148 112.912 202.156 114.928 201.388 116.208L202.636 116.624H199.148V111.12H196.332V116.624H193.164V111.12H190.38V116.624H186.796L188.492 115.984C188.044 114.736 186.924 112.784 185.932 111.408L183.34 112.304C184.236 113.616 185.196 115.376 185.676 116.624H180.908V118.992H189.068L187.212 119.44C187.756 120.272 188.3 121.392 188.62 122.192H182.188V124.528H193.196V126.448H183.756V128.688H193.196V130.608H180.78V133.104H193.196V140.528H196.108V133.104H208.716V130.608H196.108ZM235.724 126.512H223.244V123.76H235.724V126.512ZM223.148 131.792C223.212 131.024 223.244 130.256 223.244 129.552V129.008H235.724V131.792H223.148ZM242.316 117.936V115.152H226.38C226.828 114.064 227.18 112.944 227.532 111.856L224.492 111.152C224.14 112.464 223.692 113.808 223.148 115.152H214.38V117.936H221.9C219.916 121.776 217.196 125.328 213.676 127.696C214.284 128.272 215.18 129.328 215.628 130C217.356 128.784 218.892 127.344 220.268 125.712V129.488C220.268 132.464 220.012 135.952 217.324 138.416C217.9 138.832 219.084 140.08 219.468 140.752C221.356 139.024 222.348 136.688 222.828 134.288H235.724V137.04C235.724 137.52 235.564 137.68 235.02 137.68C234.476 137.712 232.556 137.712 230.668 137.616C231.052 138.416 231.5 139.696 231.596 140.496C234.252 140.496 236.044 140.496 237.164 140.016C238.316 139.568 238.636 138.672 238.636 137.072V121.136H223.5C224.108 120.112 224.652 119.024 225.196 117.936H242.316ZM271.468 121.328C270.54 124.272 269.356 126.928 267.82 129.296C267.084 126.448 266.572 122.992 266.252 119.184H276.3V116.272H273.036L274.572 114.64C273.324 113.552 270.924 112.08 269.036 111.088L267.244 112.912C268.94 113.84 271.02 115.216 272.268 116.272H266.092C265.996 114.608 265.964 112.912 265.996 111.184H262.86C262.86 112.88 262.924 114.608 263.02 116.272H249.868V125.328C249.868 129.456 249.644 134.96 247.084 138.8C247.756 139.184 249.068 140.24 249.58 140.848C252.396 136.72 252.94 130.32 252.972 125.776H258.092C257.996 130.608 257.804 132.432 257.452 132.88C257.228 133.168 256.908 133.264 256.46 133.264C255.948 133.264 254.7 133.232 253.388 133.104C253.836 133.872 254.124 135.024 254.188 135.888C255.724 135.952 257.164 135.952 257.964 135.824C258.828 135.728 259.436 135.472 260.012 134.8C260.684 133.904 260.844 131.152 261.004 124.208V123.056H252.972V119.184H263.212C263.596 124.176 264.332 128.752 265.484 132.368C263.532 134.64 261.164 136.496 258.508 137.968C259.18 138.512 260.236 139.76 260.684 140.4C262.892 139.056 264.908 137.424 266.732 135.504C268.172 138.512 270.028 140.304 272.364 140.304C274.988 140.304 276.076 138.8 276.556 133.168C275.756 132.88 274.7 132.208 273.996 131.504C273.804 135.632 273.42 137.264 272.588 137.264C271.244 137.264 269.996 135.6 268.908 132.88C271.244 129.808 273.132 126.192 274.476 122.064L271.468 121.328ZM165.58 167.6C165.676 166.352 165.708 165.136 165.708 164.016V162.864H171.596V167.6H165.58ZM171.596 155.312V160.176H165.708V155.312H171.596ZM150.316 165.904H157.676V168.176H150.316V165.904ZM150.316 161.552H157.676V163.792H150.316V161.552ZM174.476 152.624H162.86V164.016C162.86 167.312 162.7 171.216 161.228 174.704V172.592H155.34V170.416H160.428V159.312H155.34V157.136H161.228V154.512H155.34V151.12H152.46V154.512H146.764V157.136H152.46V159.312H147.66V170.416H152.46V172.592H146.444V175.248H152.46V180.464H155.34V175.248H161.004C160.396 176.56 159.564 177.808 158.508 178.896C159.18 179.216 160.396 180.08 160.876 180.56C163.532 177.808 164.748 174.032 165.292 170.32H171.596V176.976C171.596 177.424 171.404 177.584 170.956 177.584C170.508 177.616 168.972 177.616 167.436 177.552C167.852 178.352 168.236 179.696 168.332 180.496C170.7 180.496 172.172 180.464 173.196 179.984C174.188 179.44 174.476 178.576 174.476 176.976V152.624ZM208.204 156.304V153.968H189.004C189.356 153.296 189.676 152.656 189.964 151.984L187.052 151.152C185.548 154.768 182.892 158.16 179.948 160.304C180.588 160.848 181.612 162.064 182.06 162.672C184.076 161.04 186.028 158.832 187.628 156.304H208.204ZM205.644 160.208V157.968H186.828V160.208H205.644ZM186.796 173.2C185.484 175.184 182.924 177.264 180.588 178.288C181.196 178.8 182.06 179.76 182.476 180.432C184.908 179.12 187.532 176.528 189.004 174.032L186.796 173.2ZM200.332 172.432V170.096H195.724C196.684 169.072 197.9 167.536 199.02 166.032L196.364 165.168C195.788 166.384 194.7 168.176 193.772 169.36L195.628 170.096H192.396V164.912H189.612V170.096H181.324V172.432H189.612V180.496H192.396V172.432H200.332ZM183.34 166.032C184.268 167.216 185.228 168.848 185.58 169.936L187.948 168.944C187.564 167.856 186.572 166.256 185.58 165.072L183.34 166.032ZM193.292 174.768C195.308 176.304 197.868 178.48 199.116 179.856L200.972 178.032C199.66 176.656 197.036 174.608 195.02 173.168L193.292 174.768ZM183.404 161.904V164.24H201.164C201.26 174.096 201.868 180.496 206.444 180.496C208.556 180.496 209.164 178.96 209.388 174.864C208.78 174.416 208.012 173.68 207.404 173.008C207.372 175.728 207.212 177.552 206.604 177.552C204.364 177.552 204.076 171.28 204.14 161.904H183.404ZM221.644 170.608C220.396 169.584 219.148 168.56 217.964 167.664C218.572 165.392 219.148 162.672 219.692 159.92C221.164 159.824 222.668 159.728 224.236 159.632C224.204 162.8 223.82 166.768 221.644 170.608ZM227.148 155.248H224.236V156.784L220.236 157.008C220.524 155.088 220.812 153.232 221.004 151.472L217.868 151.312C217.708 153.136 217.452 155.12 217.132 157.168L213.42 157.328L213.74 160.272L216.62 160.112C215.98 163.248 215.308 166.256 214.604 168.496C216.268 169.808 218.156 171.408 219.98 173.008C218.444 174.928 216.3 176.688 213.452 178.224C214.124 178.736 215.116 179.792 215.596 180.496C218.444 178.896 220.588 177.04 222.22 175.088C223.628 176.432 224.876 177.68 225.74 178.736L227.916 176.464C226.956 175.344 225.548 174 223.98 172.624C226.7 168.112 227.116 163.248 227.148 159.44L228.396 159.344L228.428 156.56L227.148 156.624V155.248ZM232.204 174.512V157.328H238.348V174.512H232.204ZM229.42 154.512V179.696H232.204V177.328H238.348V179.248H241.292V154.512H229.42ZM250.7 159.344H253.292V166.224H250.7V159.344ZM258.124 166.224H255.532V159.344H258.124V166.224ZM270.284 176.08V156.848H275.98V154H261.42V156.848H267.148V176.08H261.74C261.324 174.32 260.588 172.08 259.884 170.288L257.58 170.992C257.9 171.792 258.252 172.752 258.54 173.68L255.756 174.16V168.688H260.492V156.912H255.788V151.28H253.1V156.912H248.268V170.064H250.7V168.688H253.1V174.64C250.86 175.024 248.844 175.312 247.244 175.568L247.692 178.416C250.86 177.808 255.116 177.008 259.212 176.24C259.372 176.848 259.5 177.424 259.564 177.936L260.78 177.52V178.928H276.588V176.08H270.284Z" fill="white"/>
<rect x="165" y="45" width="92.5" height="26" fill="#FDBF52"/>
<path d="M182.268 51.078C180.522 51.636 177.588 52.032 175.122 52.212C175.23 52.554 175.374 53.058 175.41 53.436C177.93 53.292 180.936 52.914 182.934 52.302L182.268 51.078ZM181.854 55.722C182.25 55.11 182.7 54.21 183.132 53.328L181.98 52.878C181.728 53.634 181.242 54.66 180.846 55.326L181.854 55.722ZM177.3 55.398C177.174 54.858 176.868 54.084 176.526 53.508L175.41 53.958C175.716 54.552 176.04 55.38 176.13 55.938L177.3 55.398ZM178.452 61.014C178.434 61.464 178.398 61.896 178.344 62.274H175.068V63.534H178.056C177.642 64.83 176.742 65.676 174.78 66.234C175.086 66.504 175.482 67.062 175.626 67.422C177.372 66.882 178.398 66.09 179.01 65.01C180.162 65.73 181.404 66.648 182.034 67.296L183.006 66.27C182.25 65.532 180.738 64.56 179.514 63.84L179.568 63.534H183.06V62.274H179.802C179.856 61.878 179.892 61.446 179.91 61.014H178.452ZM180.558 58.602C180.774 58.89 180.972 59.214 181.17 59.556L178.038 59.808C179.352 58.962 180.684 57.936 181.944 56.73L180.9 55.938C180.414 56.442 179.874 56.946 179.352 57.396L177.462 57.432C178.074 56.946 178.704 56.334 179.262 55.722L178.92 55.488L180.036 55.002C179.928 54.48 179.622 53.706 179.334 53.13L178.2 53.562C178.47 54.156 178.758 54.912 178.848 55.434L178.2 54.984C177.534 55.938 176.544 56.784 176.238 57.018C175.95 57.234 175.698 57.396 175.446 57.45C175.572 57.81 175.752 58.512 175.806 58.8C176.04 58.71 176.364 58.638 177.912 58.566C177.372 58.944 176.94 59.25 176.688 59.394C176.112 59.772 175.68 60.006 175.284 60.078C175.392 60.438 175.572 61.158 175.626 61.428C176.04 61.212 176.652 61.158 181.746 60.636C181.908 60.96 182.034 61.266 182.124 61.518L183.348 60.996C183.06 60.186 182.394 58.998 181.71 58.116L180.558 58.602ZM185.508 62.958H187.416V65.082H185.508V62.958ZM187.416 57.99H185.508V55.974H187.416V57.99ZM187.416 61.536H185.508V59.412H187.416V61.536ZM191.376 65.082H188.91V62.958H190.908V61.536H188.91V59.412H190.908V57.99H188.91V55.974H191.16V54.462H188.91L189.756 54.156C189.486 53.418 188.946 52.266 188.46 51.402L187.056 51.834C187.506 52.626 187.974 53.724 188.244 54.462H185.58C185.994 53.436 186.318 52.356 186.606 51.276L185.04 50.898C184.428 53.418 183.402 55.92 182.07 57.504C182.412 57.81 182.988 58.494 183.222 58.818C183.492 58.476 183.744 58.116 183.996 57.702V67.404H185.508V66.594H191.376V65.082ZM207.216 53.85H201.726V52.698H207.216V53.85ZM207.216 56.154H201.726V54.984H207.216V56.154ZM208.872 51.474H200.142V57.378H208.872V51.474ZM198.684 52.842C198.036 52.212 196.668 51.456 195.606 51.006L194.67 52.248C195.732 52.752 197.082 53.598 197.694 54.21L198.684 52.842ZM197.766 57.504C197.1 56.928 195.732 56.208 194.67 55.794L193.734 57.054C194.832 57.522 196.164 58.314 196.794 58.908L197.766 57.504ZM196.974 60.456C196.092 62.508 194.904 64.812 194.076 66.198L195.57 67.188C196.47 65.496 197.496 63.354 198.27 61.464L196.974 60.456ZM210.312 59.682V58.314H198.522V59.682H200.826C200.052 60.96 198.918 62.148 197.73 62.94C198.072 63.192 198.648 63.678 198.9 63.948C199.566 63.444 200.25 62.796 200.862 62.076H202.302C201.402 63.606 200.052 64.992 198.63 65.91C198.954 66.162 199.53 66.684 199.782 66.954C201.366 65.784 202.932 64.02 203.976 62.076H205.416C204.732 63.876 203.616 65.46 202.248 66.504C202.59 66.702 203.202 67.17 203.454 67.422C204.912 66.162 206.19 64.254 206.982 62.076H208.134C207.954 64.524 207.738 65.496 207.468 65.784C207.324 65.964 207.18 66 206.946 65.982C206.712 65.982 206.172 65.982 205.578 65.928C205.812 66.306 205.956 66.936 205.992 67.368C206.694 67.404 207.378 67.404 207.756 67.35C208.188 67.296 208.512 67.17 208.8 66.828C209.286 66.288 209.538 64.884 209.772 61.41C209.79 61.194 209.808 60.762 209.808 60.762H201.87C202.104 60.402 202.32 60.042 202.518 59.682H210.312ZM220.104 51.15V65.208C220.104 65.568 219.978 65.676 219.6 65.694C219.222 65.712 217.908 65.712 216.684 65.658C216.954 66.144 217.242 66.936 217.35 67.404C219.06 67.422 220.212 67.368 220.932 67.098C221.634 66.81 221.922 66.324 221.922 65.208V51.15H220.104ZM224.406 55.74C225.864 58.332 227.286 61.68 227.664 63.804L229.482 63.084C229.032 60.906 227.556 57.63 226.026 55.128L224.406 55.74ZM215.442 55.272C215.028 57.648 214.074 60.744 212.562 62.616C213.012 62.778 213.75 63.192 214.164 63.498C215.73 61.5 216.738 58.242 217.332 55.614L215.442 55.272ZM247.14 63.156C245.754 62.49 243.036 61.392 241.218 60.708L240.354 62.004C242.226 62.778 244.908 63.948 246.204 64.668L247.14 63.156ZM247.896 58.998V57.342H240.3V54.858H246.15V53.256H240.3V50.916H238.536V57.342H231.858V58.998H238.59V67.404H240.354V58.998H247.896Z" fill="#573605"/>
<path d="M202.385 300.14C202.12 299.864 201.767 299.562 201.36 299.255C201.749 298.946 202.085 298.614 202.385 298.279L201.282 297.875C201.063 298.109 200.787 298.374 200.46 298.598C200.086 298.331 199.675 298.078 199.314 297.866L198.446 298.494C198.808 298.689 199.184 298.939 199.523 299.185C199.047 299.469 198.502 299.71 197.981 299.881C198.252 300.086 198.646 300.536 198.828 300.732C199.352 300.525 199.921 300.214 200.456 299.881C200.88 300.207 201.249 300.529 201.494 300.821L202.385 300.14ZM195.307 302.773L197.566 302.971C197.801 303.172 198.178 303.621 198.337 303.869L195.27 303.601L195.307 302.773ZM193.816 304.739L205.884 305.795L205.694 307.964L207.344 308.109L207.643 304.684L206.28 304.564C206.565 302.963 206.927 300.682 207.175 298.879L202.908 298.505L202.812 299.599L205.448 299.83L205.341 300.634L202.831 300.414L202.737 301.49L205.176 301.703L205.032 302.522L202.575 302.307L202.479 303.401L204.864 303.609C204.803 303.893 204.744 304.159 204.702 304.426L198.444 303.879C198.991 303.62 199.595 303.329 200.151 302.962C200.623 303.347 201.007 303.706 201.269 304.018L202.179 303.32C201.899 303.007 201.532 302.667 201.076 302.302C201.484 301.977 201.838 301.646 202.158 301.295L201.059 300.837C200.817 301.123 200.523 301.387 200.176 301.645C199.785 301.358 199.357 301.086 198.98 300.854L198.112 301.483C198.473 301.695 198.865 301.964 199.221 302.23C198.726 302.512 198.163 302.752 197.641 302.941L197.734 301.883L195.313 301.672L195.331 300.842L197.734 301.052L197.828 299.976L195.371 299.761L195.38 299.039C196.291 298.956 197.281 298.79 198.078 298.571L197.447 297.522C196.489 297.727 194.908 298.04 193.852 298.129L193.71 303.465L192.348 303.345L192.048 306.77L193.626 306.908L193.816 304.739ZM207.48 310.054L200.505 309.444L200.518 309.3C201.932 308.828 203.398 308.179 204.509 307.463L203.634 306.519L203.267 306.578L195.144 305.867L195.038 307.086L201.457 307.648C200.663 308.048 199.747 308.402 198.93 308.655L198.873 309.301L191.521 308.658L191.402 310.02L198.754 310.664L198.608 312.331C198.588 312.564 198.492 312.628 198.205 312.603C197.936 312.58 196.896 312.489 195.913 312.367C196.094 312.78 196.275 313.392 196.327 313.83C197.726 313.953 198.64 314.033 199.306 313.856C199.952 313.696 200.166 313.317 200.235 312.528L200.386 310.806L207.361 311.417L207.48 310.054Z" fill="#927858"/>
<path d="M220.331 310.941C219.248 311.776 217.136 312.63 215.348 313.057C215.716 313.332 216.195 313.85 216.459 314.189C218.27 313.615 220.43 312.486 221.601 311.408L220.331 310.941ZM224.914 311.281C226.601 311.765 228.871 312.524 230.032 312.983L231.059 311.917C229.807 311.449 227.544 310.779 225.916 310.344L224.914 311.281ZM225.042 301.801C224.832 302.29 224.479 303.007 224.178 303.485L224.841 303.626L219.945 304.054L220.733 303.768C220.554 303.368 220.155 302.735 219.753 302.264L225.042 301.801ZM223.675 308.48L223.581 307.404L229.086 306.922L228.976 305.667L223.471 306.149L223.377 305.073L229.725 304.518L229.61 303.209L225.809 303.541C226.131 303.097 226.502 302.577 226.849 302.005L225.419 301.768L230.117 301.357L230.001 300.03L227.437 300.255C227.845 299.551 228.304 298.607 228.712 297.686L226.951 297.388C226.753 298.219 226.296 299.397 225.928 300.152L226.648 300.324L224.693 300.495L224.423 297.411L222.845 297.549L223.115 300.633L221.34 300.788L221.07 297.704L219.51 297.84L219.78 300.925L217.772 301.1L218.691 300.659C218.378 299.981 217.655 298.942 217.032 298.22L215.623 298.849C216.19 299.54 216.814 300.479 217.144 301.155L214.472 301.389L214.588 302.716L219.161 302.316L218.143 302.658C218.488 303.097 218.848 303.698 219.067 304.131L215.462 304.446L215.577 305.755L221.745 305.216L221.839 306.292L216.55 306.754L216.66 308.01L221.949 307.547L222.043 308.623L215.086 309.231L215.208 310.63L222.166 310.021L222.53 314.181L224.162 314.039L223.798 309.879L230.863 309.26L230.74 307.862L223.675 308.48Z" fill="#927858"/>
<defs>
<filter id="filter0_i_114_13312" x="12" y="14" width="400" height="203" filterUnits="userSpaceOnUse" color-interpolation-filters="sRGB">
<feFlood flood-opacity="0" result="BackgroundImageFix"/>
<feBlend mode="normal" in="SourceGraphic" in2="BackgroundImageFix" result="shape"/>
<feColorMatrix in="SourceAlpha" type="matrix" values="0 0 0 0 0 0 0 0 0 0 0 0 0 0 0 0 0 0 127 0" result="hardAlpha"/>
<feOffset dy="4"/>
<feGaussianBlur stdDeviation="2"/>
<feComposite in2="hardAlpha" operator="arithmetic" k2="-1" k3="1"/>
<feColorMatrix type="matrix" values="0 0 0 0 0 0 0 0 0 0 0 0 0 0 0 0 0 0 0.35 0"/>
<feBlend mode="normal" in2="shape" result="effect1_innerShadow_114_13312"/>
</filter>
<filter id="filter1_di_114_13312" x="8" y="213" width="408" height="148" filterUnits="userSpaceOnUse" color-interpolation-filters="sRGB">
<feFlood flood-opacity="0" result="BackgroundImageFix"/>
<feColorMatrix in="SourceAlpha" type="matrix" values="0 0 0 0 0 0 0 0 0 0 0 0 0 0 0 0 0 0 127 0" result="hardAlpha"/>
<feOffset dy="4"/>
<feGaussianBlur stdDeviation="2"/>
<feComposite in2="hardAlpha" operator="out"/>
<feColorMatrix type="matrix" values="0 0 0 0 0 0 0 0 0 0 0 0 0 0 0 0 0 0 0.25 0"/>
<feBlend mode="normal" in2="BackgroundImageFix" result="effect1_dropShadow_114_13312"/>
<feBlend mode="normal" in="SourceGraphic" in2="effect1_dropShadow_114_13312" result="shape"/>
<feColorMatrix in="SourceAlpha" type="matrix" values="0 0 0 0 0 0 0 0 0 0 0 0 0 0 0 0 0 0 127 0" result="hardAlpha"/>
<feOffset dy="3"/>
<feGaussianBlur stdDeviation="4"/>
<feComposite in2="hardAlpha" operator="arithmetic" k2="-1" k3="1"/>
<feColorMatrix type="matrix" values="0 0 0 0 0 0 0 0 0 0 0 0 0 0 0 0 0 0 0.25 0"/>
<feBlend mode="normal" in2="shape" result="effect2_innerShadow_114_13312"/>
</filter>
</defs>
</svg>
