<svg width="425" height="425" viewBox="0 0 425 425" fill="none" xmlns="http://www.w3.org/2000/svg">
<g filter="url(#filter0_i_114_13297)">
<path d="M412 213C412 160.222 390.929 109.605 353.421 72.2858C315.914 34.966 265.043 14 212 14C158.957 14 108.086 34.966 70.5787 72.2857C33.0714 109.605 12 160.222 12 213L412 213Z" fill="#FDBF52"/>
</g>
<path d="M372 214C372 171.565 355.143 130.869 325.137 100.863C295.131 70.8571 254.435 54 212 54C169.565 54 128.869 70.8571 98.8629 100.863C68.8571 130.869 52 171.565 52 214" stroke="#FCDBA3" stroke-width="3"/>
<path d="M12 213C12 266.043 33.0714 316.914 70.5786 354.421C108.086 391.929 158.957 413 212 413C265.043 413 315.914 391.929 353.421 354.421C390.929 316.914 412 266.043 412 213L212 213L12 213Z" fill="#FDBF52"/>
<path d="M12 213C12 266.043 33.0714 316.914 70.5786 354.421C108.086 391.929 158.957 413 212 413C265.043 413 315.914 391.929 353.421 354.421C390.929 316.914 412 266.043 412 213L212 213L12 213Z" fill="black" fill-opacity="0.2"/>
<g filter="url(#filter1_di_114_13297)">
<path d="M12 213C12 250.13 33.0714 285.74 70.5786 311.995C108.086 338.25 158.957 353 212 353C265.043 353 315.914 338.25 353.421 311.995C390.929 285.74 412 250.13 412 213L212 213L12 213Z" fill="#FCDBA3"/>
</g>
<path d="M52 213C52 242.704 68.8571 271.192 98.8629 292.196C128.869 313.2 169.565 325 212 325C254.435 325 295.131 313.2 325.137 292.196C355.143 271.192 372 242.704 372 213" stroke="#FDBF52" stroke-width="3"/>
<path d="M156.492 118.32H150.796V114.8H156.492V118.32ZM156.492 124.208H150.796V120.624H156.492V124.208ZM156.492 130.096H150.796V126.448H156.492V130.096ZM159.404 112.368H147.98V132.496H159.404V112.368ZM150.06 133.008C149.292 135.216 147.82 137.392 146.188 138.8C146.828 139.216 148.012 140.08 148.556 140.56C150.252 138.928 151.916 136.304 152.908 133.712L150.06 133.008ZM154.476 134.064C155.788 135.664 157.196 137.904 157.836 139.376L160.364 138.064C159.724 136.624 158.252 134.512 156.908 132.976L154.476 134.064ZM175.852 118.64H172.044V111.248H169.1V118.64H160.3V121.424H168.012C166.06 126.192 162.892 130.864 159.468 133.328C160.14 133.84 161.036 134.832 161.516 135.472C164.396 133.136 167.052 129.392 169.1 125.232V136.976C169.1 137.488 168.908 137.648 168.396 137.648C167.948 137.68 166.444 137.68 164.78 137.616C165.228 138.416 165.708 139.728 165.836 140.528C168.172 140.528 169.708 140.4 170.7 139.952C171.66 139.44 172.044 138.576 172.044 136.976V121.424H175.852V118.64ZM188.524 114.704C187.276 113.808 184.844 112.4 183.212 111.472L181.452 113.584C183.148 114.64 185.516 116.144 186.7 117.072L188.524 114.704ZM186.988 123.056C185.708 122.192 183.308 120.848 181.644 119.984L179.916 122.096C181.644 123.088 184.012 124.56 185.196 125.424L186.988 123.056ZM185.164 128.208C183.756 131.888 181.836 135.984 180.492 138.48L183.18 140.112C184.652 137.072 186.284 133.232 187.532 129.872L185.164 128.208ZM192.364 115.44H209.036V112.752H189.452V121.488C189.452 126.672 189.132 133.872 185.548 138.864C186.252 139.184 187.532 139.952 188.044 140.432C191.788 135.152 192.364 127.056 192.364 121.488V115.44ZM194.764 131.44C193.932 133.488 192.556 135.728 191.18 137.232C191.852 137.584 193.004 138.288 193.548 138.672C194.86 137.072 196.396 134.48 197.42 132.176L194.764 131.44ZM196.556 125.328H205.196V127.664H196.556V125.328ZM196.556 120.912H205.196V123.216H196.556V120.912ZM207.98 129.872V118.672H201.42C201.804 117.904 202.252 117.104 202.668 116.24L199.34 115.632C199.148 116.496 198.796 117.68 198.476 118.672H193.9V129.872H199.308V137.488C199.308 137.84 199.18 137.968 198.796 137.968C198.412 137.968 197.1 138 195.756 137.936C196.044 138.672 196.428 139.76 196.524 140.496C198.604 140.528 200.012 140.496 200.94 140.048C201.9 139.664 202.124 138.928 202.124 137.584V129.872H207.98ZM203.724 132.112C204.876 134.128 206.284 136.816 206.956 138.416L209.676 137.232C208.972 135.664 207.468 133.072 206.284 131.152L203.724 132.112ZM232.236 119.536H235.18V116.528H242.348V113.776H235.18V111.184H232.236V113.776H228.844V116.528H232.236V119.536ZM221.26 119.696H224.204V116.528H227.724V113.776H224.204V111.184H221.26V113.776H214.252V116.528H221.26V119.696ZM236.908 125.68C235.948 127.792 234.572 129.584 232.972 131.184C232.204 129.424 231.564 127.344 231.148 125.104H242.54V122.352H239.82L241.1 121.168C240.172 120.272 238.316 118.992 236.972 118.096L235.116 119.696C236.204 120.464 237.58 121.52 238.54 122.352H230.7C230.54 121.136 230.444 119.92 230.412 118.64H227.436C227.5 119.888 227.596 121.136 227.724 122.352H217.036V126.96C217.036 130.48 216.652 135.312 213.452 138.768C214.156 139.12 215.404 140.016 215.948 140.56C219.308 136.784 219.98 131.056 219.98 127.024V125.104H228.172C228.684 128.048 229.548 130.832 230.604 133.168C227.692 135.216 224.172 136.752 220.204 137.808C220.812 138.416 221.74 139.76 222.092 140.4C225.74 139.248 229.1 137.712 231.98 135.664C233.9 138.64 236.332 140.496 239.116 140.496C241.708 140.496 242.796 139.376 243.276 134.8C242.508 134.512 241.484 133.968 240.844 133.328C240.652 136.56 240.268 137.648 239.276 137.648C237.548 137.648 235.788 136.24 234.316 133.84C236.556 131.824 238.444 129.488 239.82 126.64L236.908 125.68ZM257.868 122C257.74 124.24 257.58 125.168 257.292 125.488C257.068 125.744 256.844 125.776 256.428 125.776C255.98 125.776 254.988 125.744 253.836 125.648C254.156 126.256 254.412 127.216 254.476 127.92C255.82 127.984 257.1 127.984 257.804 127.888C258.572 127.824 259.18 127.632 259.66 127.056C260.268 126.384 260.492 124.656 260.684 120.624C260.716 120.272 260.716 119.632 260.716 119.632H253.068C253.1 119.12 253.1 118.64 253.1 118.224V117.104H262.508C263.116 119.728 264.076 122.096 265.228 124.016C263.692 125.168 261.964 126.064 260.204 126.832C260.812 127.344 261.772 128.496 262.156 129.04C263.756 128.272 265.324 127.312 266.796 126.224C268.428 128.176 270.38 129.296 272.428 129.296C274.828 129.328 275.82 128.304 276.3 124.208C275.5 123.952 274.54 123.44 273.9 122.896C273.708 125.488 273.42 126.48 272.588 126.48C271.436 126.48 270.22 125.712 269.036 124.336C270.86 122.672 272.46 120.72 273.644 118.544L270.956 117.744C270.092 119.344 268.908 120.816 267.532 122.128C266.764 120.688 266.06 118.992 265.516 117.104H275.66V114.512H271.084L272.204 113.776C271.436 112.976 269.964 111.792 268.716 111.024L266.668 112.208C267.564 112.816 268.684 113.712 269.452 114.512H264.972C264.78 113.392 264.652 112.304 264.588 111.152H261.612C261.676 112.272 261.804 113.424 261.964 114.512H250.124V118.16C250.124 121.136 249.804 125.296 247.276 128.432C247.916 128.752 249.26 129.712 249.74 130.256C251.628 127.92 252.492 124.816 252.876 122H257.868ZM254.188 132.176H257.516V137.232H254.188V132.176ZM263.596 132.176V137.232H260.236V132.176H263.596ZM269.74 132.176V137.232H266.316V132.176H269.74ZM272.62 129.808H251.436V137.232H247.532V139.888H276.236V137.232H272.62V129.808ZM154.7 160.528C157.1 159.088 159.276 157.36 161.132 155.344C163.052 157.264 165.42 159.024 167.916 160.528H154.7ZM169.356 163.28V161.328C170.956 162.192 172.556 162.96 174.124 163.504C174.572 162.736 175.5 161.552 176.172 160.912C171.372 159.504 165.996 156.464 162.86 153.328C163.148 152.944 163.404 152.528 163.692 152.112L160.908 150.864C157.868 155.568 152.076 159.088 146.124 160.912C146.86 161.648 147.692 162.8 148.108 163.664C149.708 163.088 151.244 162.384 152.748 161.616V163.28H159.436V167.152H148.876V169.84H159.436V176.976H147.404V179.696H174.86V176.976H162.604V169.84H173.324V167.152H162.604V163.28H169.356ZM167.308 176.848C168.396 175.408 169.804 173.232 171.02 171.216L168.14 170.16C167.468 171.92 166.124 174.352 165.036 175.888L167.308 176.848ZM151.308 171.12C152.46 172.912 153.708 175.312 154.156 176.816L156.748 175.696C156.236 174.192 154.956 171.856 153.74 170.16L151.308 171.12ZM196.108 176.432V166.928H206.22V164.016H196.108V156.08H207.532V153.168H181.932V156.08H192.876V164.016H183.372V166.928H192.876V176.432H180.46V179.312H209.036V176.432H196.108ZM198.604 169.648C200.46 171.504 203.02 174.032 204.236 175.568L206.444 173.584C205.164 172.08 202.604 169.68 200.748 167.92L198.604 169.648ZM216.812 180.112C218.156 177.136 219.66 173.36 220.844 170L218.412 168.432C217.132 172.08 215.404 176.112 214.124 178.576L216.812 180.112ZM220.364 162.8C219.276 161.808 217.004 160.624 215.18 159.92L213.516 162.096C215.34 162.896 217.58 164.24 218.636 165.2L220.364 162.8ZM228.876 156.464H235.116V158.768H228.876V156.464ZM239.34 165.744V174.64C238.06 173.232 237.388 170.544 237.26 167.248H234.188V169.136H235.82C235.852 169.488 235.884 169.84 235.916 170.16H235.34C235.18 171.888 234.54 173.776 233.196 174.928V165.744H239.34ZM225.676 167.248V169.136H227.34C227.372 169.488 227.404 169.84 227.436 170.192H226.828C226.636 172.048 225.996 174.064 224.62 175.28V165.744H230.604V174.608C229.452 173.136 228.876 170.448 228.78 167.248H225.676ZM238.028 161.296V156.464H242.828V153.808H238.028V151.12H235.116V153.808H228.876V151.12H226.028V153.808H221.484V154.48C220.364 153.456 218.22 152.208 216.524 151.472L214.86 153.584C216.588 154.48 218.796 155.92 219.788 156.944L221.484 154.704V156.464H226.028V161.296H230.604V163.216H222.092V180.464H224.62V175.44C225.004 175.696 225.516 176.208 225.74 176.592C226.828 175.632 227.532 174.352 227.948 172.944C228.364 174.352 228.908 175.472 229.644 176.272C229.868 175.984 230.252 175.6 230.604 175.312V180.208H233.196V175.216C233.58 175.504 233.996 175.984 234.22 176.304C235.34 175.408 236.044 174.192 236.492 172.816C236.94 174.224 237.548 175.376 238.316 176.208C238.508 175.888 238.956 175.472 239.34 175.184V177.808C239.34 178.128 239.244 178.256 238.86 178.256C238.508 178.256 237.356 178.256 236.172 178.224C236.492 178.832 236.78 179.792 236.908 180.432C238.764 180.432 240.044 180.432 240.908 180.08C241.74 179.664 241.996 179.024 241.996 177.808V163.216H233.196V161.296H238.028ZM250.892 158.672H272.876V163.248H275.724V156.08H270.124C271.084 155.088 272.172 153.712 273.164 152.304L270.06 151.312C269.388 152.592 268.236 154.384 267.308 155.536L268.812 156.08H263.34V151.12H260.332V156.08H255.244L256.428 155.536C255.916 154.384 254.764 152.688 253.676 151.44L251.02 152.496C251.884 153.552 252.78 154.96 253.356 156.08H248.172V163.248H250.892V158.672ZM255.884 163.184H267.852V166.224H255.884V163.184ZM263.34 177.072V173.84H273.42V171.248H263.34V168.56H270.796V160.848H253.132V168.56H260.332V171.248H250.86V173.84H260.332V177.072H248.044V179.664H275.852V177.072H263.34Z" fill="white"/>
<rect x="165" y="45" width="92.5" height="26" fill="#FDBF52"/>
<path d="M182.268 51.078C180.522 51.636 177.588 52.032 175.122 52.212C175.23 52.554 175.374 53.058 175.41 53.436C177.93 53.292 180.936 52.914 182.934 52.302L182.268 51.078ZM181.854 55.722C182.25 55.11 182.7 54.21 183.132 53.328L181.98 52.878C181.728 53.634 181.242 54.66 180.846 55.326L181.854 55.722ZM177.3 55.398C177.174 54.858 176.868 54.084 176.526 53.508L175.41 53.958C175.716 54.552 176.04 55.38 176.13 55.938L177.3 55.398ZM178.452 61.014C178.434 61.464 178.398 61.896 178.344 62.274H175.068V63.534H178.056C177.642 64.83 176.742 65.676 174.78 66.234C175.086 66.504 175.482 67.062 175.626 67.422C177.372 66.882 178.398 66.09 179.01 65.01C180.162 65.73 181.404 66.648 182.034 67.296L183.006 66.27C182.25 65.532 180.738 64.56 179.514 63.84L179.568 63.534H183.06V62.274H179.802C179.856 61.878 179.892 61.446 179.91 61.014H178.452ZM180.558 58.602C180.774 58.89 180.972 59.214 181.17 59.556L178.038 59.808C179.352 58.962 180.684 57.936 181.944 56.73L180.9 55.938C180.414 56.442 179.874 56.946 179.352 57.396L177.462 57.432C178.074 56.946 178.704 56.334 179.262 55.722L178.92 55.488L180.036 55.002C179.928 54.48 179.622 53.706 179.334 53.13L178.2 53.562C178.47 54.156 178.758 54.912 178.848 55.434L178.2 54.984C177.534 55.938 176.544 56.784 176.238 57.018C175.95 57.234 175.698 57.396 175.446 57.45C175.572 57.81 175.752 58.512 175.806 58.8C176.04 58.71 176.364 58.638 177.912 58.566C177.372 58.944 176.94 59.25 176.688 59.394C176.112 59.772 175.68 60.006 175.284 60.078C175.392 60.438 175.572 61.158 175.626 61.428C176.04 61.212 176.652 61.158 181.746 60.636C181.908 60.96 182.034 61.266 182.124 61.518L183.348 60.996C183.06 60.186 182.394 58.998 181.71 58.116L180.558 58.602ZM185.508 62.958H187.416V65.082H185.508V62.958ZM187.416 57.99H185.508V55.974H187.416V57.99ZM187.416 61.536H185.508V59.412H187.416V61.536ZM191.376 65.082H188.91V62.958H190.908V61.536H188.91V59.412H190.908V57.99H188.91V55.974H191.16V54.462H188.91L189.756 54.156C189.486 53.418 188.946 52.266 188.46 51.402L187.056 51.834C187.506 52.626 187.974 53.724 188.244 54.462H185.58C185.994 53.436 186.318 52.356 186.606 51.276L185.04 50.898C184.428 53.418 183.402 55.92 182.07 57.504C182.412 57.81 182.988 58.494 183.222 58.818C183.492 58.476 183.744 58.116 183.996 57.702V67.404H185.508V66.594H191.376V65.082ZM207.216 53.85H201.726V52.698H207.216V53.85ZM207.216 56.154H201.726V54.984H207.216V56.154ZM208.872 51.474H200.142V57.378H208.872V51.474ZM198.684 52.842C198.036 52.212 196.668 51.456 195.606 51.006L194.67 52.248C195.732 52.752 197.082 53.598 197.694 54.21L198.684 52.842ZM197.766 57.504C197.1 56.928 195.732 56.208 194.67 55.794L193.734 57.054C194.832 57.522 196.164 58.314 196.794 58.908L197.766 57.504ZM196.974 60.456C196.092 62.508 194.904 64.812 194.076 66.198L195.57 67.188C196.47 65.496 197.496 63.354 198.27 61.464L196.974 60.456ZM210.312 59.682V58.314H198.522V59.682H200.826C200.052 60.96 198.918 62.148 197.73 62.94C198.072 63.192 198.648 63.678 198.9 63.948C199.566 63.444 200.25 62.796 200.862 62.076H202.302C201.402 63.606 200.052 64.992 198.63 65.91C198.954 66.162 199.53 66.684 199.782 66.954C201.366 65.784 202.932 64.02 203.976 62.076H205.416C204.732 63.876 203.616 65.46 202.248 66.504C202.59 66.702 203.202 67.17 203.454 67.422C204.912 66.162 206.19 64.254 206.982 62.076H208.134C207.954 64.524 207.738 65.496 207.468 65.784C207.324 65.964 207.18 66 206.946 65.982C206.712 65.982 206.172 65.982 205.578 65.928C205.812 66.306 205.956 66.936 205.992 67.368C206.694 67.404 207.378 67.404 207.756 67.35C208.188 67.296 208.512 67.17 208.8 66.828C209.286 66.288 209.538 64.884 209.772 61.41C209.79 61.194 209.808 60.762 209.808 60.762H201.87C202.104 60.402 202.32 60.042 202.518 59.682H210.312ZM220.104 51.15V65.208C220.104 65.568 219.978 65.676 219.6 65.694C219.222 65.712 217.908 65.712 216.684 65.658C216.954 66.144 217.242 66.936 217.35 67.404C219.06 67.422 220.212 67.368 220.932 67.098C221.634 66.81 221.922 66.324 221.922 65.208V51.15H220.104ZM224.406 55.74C225.864 58.332 227.286 61.68 227.664 63.804L229.482 63.084C229.032 60.906 227.556 57.63 226.026 55.128L224.406 55.74ZM215.442 55.272C215.028 57.648 214.074 60.744 212.562 62.616C213.012 62.778 213.75 63.192 214.164 63.498C215.73 61.5 216.738 58.242 217.332 55.614L215.442 55.272ZM247.14 63.156C245.754 62.49 243.036 61.392 241.218 60.708L240.354 62.004C242.226 62.778 244.908 63.948 246.204 64.668L247.14 63.156ZM247.896 58.998V57.342H240.3V54.858H246.15V53.256H240.3V50.916H238.536V57.342H231.858V58.998H238.59V67.404H240.354V58.998H247.896Z" fill="#573605"/>
<path d="M197.592 301.437L194.4 301.158L194.573 299.186L197.764 299.465L197.592 301.437ZM197.303 304.737L194.111 304.457L194.287 302.449L197.479 302.728L197.303 304.737ZM197.015 308.036L193.823 307.757L194.002 305.713L197.193 305.992L197.015 308.036ZM199.515 298.245L193.114 297.685L192.127 308.964L198.529 309.524L199.515 298.245ZM193.268 309.353C192.729 310.552 191.797 311.699 190.814 312.408C191.152 312.673 191.773 313.215 192.055 313.511C193.085 312.679 194.146 311.29 194.829 309.887L193.268 309.353ZM195.69 310.161C196.347 311.122 197.026 312.446 197.313 313.302L198.794 312.691C198.506 311.853 197.784 310.597 197.106 309.67L195.69 310.161ZM208.425 302.566L206.291 302.379L206.653 298.237L205.004 298.093L204.641 302.235L199.71 301.803L199.574 303.363L203.895 303.741C202.567 306.318 200.563 308.78 198.524 309.993C198.875 310.313 199.329 310.913 199.566 311.295C201.295 310.127 202.966 308.159 204.318 305.929L203.742 312.509C203.717 312.796 203.602 312.877 203.315 312.852C203.062 312.847 202.219 312.774 201.29 312.656C201.502 313.127 201.707 313.885 201.739 314.34C203.048 314.454 203.915 314.458 204.493 314.256C205.056 314.016 205.314 313.55 205.392 312.654L206.154 303.939L208.288 304.126L208.425 302.566Z" fill="#927858"/>
<path d="M222.019 308.968L222.12 310.116L218.175 310.461L218.075 309.313L222.019 308.968ZM227.894 309.611L223.752 309.973L223.651 308.825L227.793 308.463L227.894 309.611ZM223.952 312.268L223.847 311.067L227.989 310.704L228.095 311.906L223.952 312.268ZM218.271 311.555L222.216 311.209L222.321 312.411L218.376 312.756L218.271 311.555ZM216.955 314.687L218.533 314.549L218.486 314.011L228.204 313.161L228.247 313.645L229.896 313.501L229.333 307.063L216.387 308.196L216.955 314.687ZM218.874 304.816L226.028 304.19L226.127 305.32L218.972 305.946L218.874 304.816ZM217.547 307.209L227.84 306.309L227.542 302.902L217.249 303.802L217.547 307.209ZM217.253 301.778L217.356 302.962L227.344 302.088L227.241 300.904L217.253 301.778ZM223.217 298.907C222.961 298.46 222.584 297.861 222.274 297.418L220.514 297.951C220.724 298.294 220.976 298.688 221.191 299.085L214.574 299.664L214.888 303.25L216.484 303.11L216.294 300.941L228.039 299.913L228.229 302.083L229.897 301.937L229.583 298.35L223.217 298.907Z" fill="#927858"/>
<defs>
<filter id="filter0_i_114_13297" x="12" y="14" width="400" height="203" filterUnits="userSpaceOnUse" color-interpolation-filters="sRGB">
<feFlood flood-opacity="0" result="BackgroundImageFix"/>
<feBlend mode="normal" in="SourceGraphic" in2="BackgroundImageFix" result="shape"/>
<feColorMatrix in="SourceAlpha" type="matrix" values="0 0 0 0 0 0 0 0 0 0 0 0 0 0 0 0 0 0 127 0" result="hardAlpha"/>
<feOffset dy="4"/>
<feGaussianBlur stdDeviation="2"/>
<feComposite in2="hardAlpha" operator="arithmetic" k2="-1" k3="1"/>
<feColorMatrix type="matrix" values="0 0 0 0 0 0 0 0 0 0 0 0 0 0 0 0 0 0 0.35 0"/>
<feBlend mode="normal" in2="shape" result="effect1_innerShadow_114_13297"/>
</filter>
<filter id="filter1_di_114_13297" x="8" y="213" width="408" height="148" filterUnits="userSpaceOnUse" color-interpolation-filters="sRGB">
<feFlood flood-opacity="0" result="BackgroundImageFix"/>
<feColorMatrix in="SourceAlpha" type="matrix" values="0 0 0 0 0 0 0 0 0 0 0 0 0 0 0 0 0 0 127 0" result="hardAlpha"/>
<feOffset dy="4"/>
<feGaussianBlur stdDeviation="2"/>
<feComposite in2="hardAlpha" operator="out"/>
<feColorMatrix type="matrix" values="0 0 0 0 0 0 0 0 0 0 0 0 0 0 0 0 0 0 0.25 0"/>
<feBlend mode="normal" in2="BackgroundImageFix" result="effect1_dropShadow_114_13297"/>
<feBlend mode="normal" in="SourceGraphic" in2="effect1_dropShadow_114_13297" result="shape"/>
<feColorMatrix in="SourceAlpha" type="matrix" values="0 0 0 0 0 0 0 0 0 0 0 0 0 0 0 0 0 0 127 0" result="hardAlpha"/>
<feOffset dy="3"/>
<feGaussianBlur stdDeviation="4"/>
<feComposite in2="hardAlpha" operator="arithmetic" k2="-1" k3="1"/>
<feColorMatrix type="matrix" values="0 0 0 0 0 0 0 0 0 0 0 0 0 0 0 0 0 0 0.25 0"/>
<feBlend mode="normal" in2="shape" result="effect2_innerShadow_114_13297"/>
</filter>
</defs>
</svg>
