<svg width="425" height="425" viewBox="0 0 425 425" fill="none" xmlns="http://www.w3.org/2000/svg">
<g filter="url(#filter0_i_114_13237)">
<path d="M412 213C412 160.222 390.929 109.605 353.421 72.2858C315.914 34.966 265.043 14 212 14C158.957 14 108.086 34.966 70.5787 72.2857C33.0714 109.605 12 160.222 12 213L412 213Z" fill="#FDBF52"/>
</g>
<path d="M372 214C372 171.565 355.143 130.869 325.137 100.863C295.131 70.8571 254.435 54 212 54C169.565 54 128.869 70.8571 98.8629 100.863C68.8571 130.869 52 171.565 52 214" stroke="#FCDBA3" stroke-width="3"/>
<path d="M12 213C12 266.043 33.0714 316.914 70.5786 354.421C108.086 391.929 158.957 413 212 413C265.043 413 315.914 391.929 353.421 354.421C390.929 316.914 412 266.043 412 213L212 213L12 213Z" fill="#FDBF52"/>
<path d="M12 213C12 266.043 33.0714 316.914 70.5786 354.421C108.086 391.929 158.957 413 212 413C265.043 413 315.914 391.929 353.421 354.421C390.929 316.914 412 266.043 412 213L212 213L12 213Z" fill="black" fill-opacity="0.2"/>
<g filter="url(#filter1_di_114_13237)">
<path d="M12 213C12 250.13 33.0714 285.74 70.5786 311.995C108.086 338.25 158.957 353 212 353C265.043 353 315.914 338.25 353.421 311.995C390.929 285.74 412 250.13 412 213L212 213L12 213Z" fill="#FCDBA3"/>
</g>
<path d="M52 213C52 242.704 68.8571 271.192 98.8629 292.196C128.869 313.2 169.565 325 212 325C254.435 325 295.131 313.2 325.137 292.196C355.143 271.192 372 242.704 372 213" stroke="#FDBF52" stroke-width="3"/>
<path d="M157.492 118.32H151.796V114.8H157.492V118.32ZM157.492 124.208H151.796V120.624H157.492V124.208ZM157.492 130.096H151.796V126.448H157.492V130.096ZM160.404 112.368H148.98V132.496H160.404V112.368ZM151.06 133.008C150.292 135.216 148.82 137.392 147.188 138.8C147.828 139.216 149.012 140.08 149.556 140.56C151.252 138.928 152.916 136.304 153.908 133.712L151.06 133.008ZM155.476 134.064C156.788 135.664 158.196 137.904 158.836 139.376L161.364 138.064C160.724 136.624 159.252 134.512 157.908 132.976L155.476 134.064ZM176.852 118.64H173.044V111.248H170.1V118.64H161.3V121.424H169.012C167.06 126.192 163.892 130.864 160.468 133.328C161.14 133.84 162.036 134.832 162.516 135.472C165.396 133.136 168.052 129.392 170.1 125.232V136.976C170.1 137.488 169.908 137.648 169.396 137.648C168.948 137.68 167.444 137.68 165.78 137.616C166.228 138.416 166.708 139.728 166.836 140.528C169.172 140.528 170.708 140.4 171.7 139.952C172.66 139.44 173.044 138.576 173.044 136.976V121.424H176.852V118.64ZM194.1 131.216V133.264H187.06V131.216H194.1ZM204.404 133.264H197.012V131.216H204.404V133.264ZM197.012 137.36V135.216H204.404V137.36H197.012ZM187.06 135.216H194.1V137.36H187.06V135.216ZM184.244 140.56H187.06V139.6H204.404V140.464H207.348V128.976H184.244V140.56ZM189.172 123.376H201.94V125.392H189.172V123.376ZM186.452 127.408H204.82V121.328H186.452V127.408ZM186.772 117.744V119.856H204.596V117.744H186.772ZM197.78 113.584C197.396 112.752 196.82 111.632 196.34 110.8L193.14 111.472C193.46 112.112 193.844 112.848 194.164 113.584H182.356V119.984H185.204V116.112H206.164V119.984H209.14V113.584H197.78ZM234.9 126.288C234.708 129.104 234.388 132.784 234.004 135.952H226.1C226.644 133.2 227.252 129.808 227.828 126.288H234.9ZM237.14 135.952C237.62 131.824 238.036 127.024 238.26 123.44L235.956 123.248L235.38 123.376H228.34C228.66 121.232 228.98 119.12 229.268 117.104H241.3V114.192H217.172V117.104H226.004C225.716 119.12 225.428 121.232 225.108 123.376H218.932V126.288H224.628C224.02 129.776 223.412 133.168 222.836 135.952H215.22V138.896H243.476V135.952H237.14ZM254.772 128.72V126H261.268V128.72H254.772ZM254.772 121.072H261.268V123.728H254.772V121.072ZM270.964 121.072V123.728H264.34V121.072H270.964ZM270.964 128.72H264.34V126H270.964V128.72ZM277.3 133.36H264.34V131.152H273.94V118.608H264.34V116.624H276.244V113.904H264.34V111.152H261.268V113.904H249.556V116.624H261.268V118.608H251.892V131.152H261.268V133.36H248.628V136.048H261.268V140.592H264.34V136.048H277.3V133.36ZM155.7 160.528C158.1 159.088 160.276 157.36 162.132 155.344C164.052 157.264 166.42 159.024 168.916 160.528H155.7ZM170.356 163.28V161.328C171.956 162.192 173.556 162.96 175.124 163.504C175.572 162.736 176.5 161.552 177.172 160.912C172.372 159.504 166.996 156.464 163.86 153.328C164.148 152.944 164.404 152.528 164.692 152.112L161.908 150.864C158.868 155.568 153.076 159.088 147.124 160.912C147.86 161.648 148.692 162.8 149.108 163.664C150.708 163.088 152.244 162.384 153.748 161.616V163.28H160.436V167.152H149.876V169.84H160.436V176.976H148.404V179.696H175.86V176.976H163.604V169.84H174.324V167.152H163.604V163.28H170.356ZM168.308 176.848C169.396 175.408 170.804 173.232 172.02 171.216L169.14 170.16C168.468 171.92 167.124 174.352 166.036 175.888L168.308 176.848ZM152.308 171.12C153.46 172.912 154.708 175.312 155.156 176.816L157.748 175.696C157.236 174.192 155.956 171.856 154.74 170.16L152.308 171.12ZM188.98 175.248V167.312H193.3V164.72H188.98V161.712H192.052V159.184H184.628C185.844 158 187.028 156.656 188.084 155.248C189.748 156.688 191.54 158.384 192.66 159.6L194.452 157.488C193.3 156.24 191.38 154.544 189.492 153.104C189.716 152.752 189.908 152.368 190.1 152.048L187.636 151.12C186.068 154 183.38 156.752 180.82 158.48C181.204 159.184 181.908 160.72 182.1 161.328C182.516 161.04 182.964 160.656 183.412 160.272V161.712H186.388V164.72H181.748V167.312H186.388V175.792C184.436 176.176 182.676 176.528 181.268 176.784L182.004 179.664C185.268 178.896 189.588 177.808 193.652 176.816L193.396 174.32L188.98 175.248ZM182.388 169.168C182.932 171.024 183.508 173.456 183.636 175.024L185.78 174.416C185.588 172.848 185.012 170.512 184.404 168.688L182.388 169.168ZM191.284 174.416C191.86 172.976 192.532 170.736 193.14 168.88L190.9 168.24C190.612 169.904 190.004 172.304 189.524 173.84L191.284 174.416ZM197.972 160.784H206.164V164.112H197.972V160.784ZM206.164 155.088V158.352H197.972V155.088H206.164ZM208.244 167.44C207.22 168.432 205.652 169.68 204.276 170.64C203.7 169.392 203.22 168.08 202.804 166.704H209.044V152.528H195.092V176.08C195.092 177.264 194.42 177.776 193.812 178.032C194.228 178.64 194.676 179.888 194.836 180.592C195.476 180.08 196.532 179.664 203.028 177.68C202.9 177.008 202.772 175.856 202.772 175.056L197.972 176.368V166.704H200.212C201.716 172.688 204.276 177.616 208.596 180.144C209.044 179.344 209.94 178.192 210.644 177.616C208.564 176.592 206.868 174.896 205.492 172.816C206.996 171.888 208.756 170.64 210.164 169.488L208.244 167.44ZM225.364 171.504C224.084 171.888 222.804 172.208 221.556 172.56V165.072H225.012V162.32H221.556V155.92H225.588V153.168H214.836V155.92H218.708V162.32H215.092V165.072H218.708V173.36C217.204 173.744 215.828 174.096 214.708 174.384L215.284 177.232C218.228 176.4 222.1 175.248 225.716 174.192L225.364 171.504ZM243.988 167.408V164.688H236.212V159.632H242.516V156.912H236.212V151.152H233.364V156.912H230.388C230.676 155.664 230.9 154.384 231.124 153.104L228.404 152.624C227.86 156.368 226.9 160.048 225.268 162.416C225.908 162.736 227.124 163.504 227.604 163.888C228.372 162.736 229.044 161.264 229.556 159.632H233.364V164.688H225.588V167.408H232.116C230.196 171.28 226.964 174.928 223.668 176.848C224.276 177.392 225.204 178.416 225.652 179.152C228.596 177.2 231.348 173.968 233.364 170.288V180.528H236.212V170.16C237.972 173.584 240.244 176.816 242.58 178.768C243.092 178.032 244.02 176.976 244.692 176.464C241.94 174.512 239.124 170.992 237.364 167.408H243.988ZM264.308 176.432V166.928H274.42V164.016H264.308V156.08H275.732V153.168H250.132V156.08H261.076V164.016H251.572V166.928H261.076V176.432H248.66V179.312H277.236V176.432H264.308ZM266.804 169.648C268.66 171.504 271.22 174.032 272.436 175.568L274.644 173.584C273.364 172.08 270.804 169.68 268.948 167.92L266.804 169.648Z" fill="white"/>
<rect x="165" y="45" width="92.5" height="26" fill="#FDBF52"/>
<path d="M182.268 51.078C180.522 51.636 177.588 52.032 175.122 52.212C175.23 52.554 175.374 53.058 175.41 53.436C177.93 53.292 180.936 52.914 182.934 52.302L182.268 51.078ZM181.854 55.722C182.25 55.11 182.7 54.21 183.132 53.328L181.98 52.878C181.728 53.634 181.242 54.66 180.846 55.326L181.854 55.722ZM177.3 55.398C177.174 54.858 176.868 54.084 176.526 53.508L175.41 53.958C175.716 54.552 176.04 55.38 176.13 55.938L177.3 55.398ZM178.452 61.014C178.434 61.464 178.398 61.896 178.344 62.274H175.068V63.534H178.056C177.642 64.83 176.742 65.676 174.78 66.234C175.086 66.504 175.482 67.062 175.626 67.422C177.372 66.882 178.398 66.09 179.01 65.01C180.162 65.73 181.404 66.648 182.034 67.296L183.006 66.27C182.25 65.532 180.738 64.56 179.514 63.84L179.568 63.534H183.06V62.274H179.802C179.856 61.878 179.892 61.446 179.91 61.014H178.452ZM180.558 58.602C180.774 58.89 180.972 59.214 181.17 59.556L178.038 59.808C179.352 58.962 180.684 57.936 181.944 56.73L180.9 55.938C180.414 56.442 179.874 56.946 179.352 57.396L177.462 57.432C178.074 56.946 178.704 56.334 179.262 55.722L178.92 55.488L180.036 55.002C179.928 54.48 179.622 53.706 179.334 53.13L178.2 53.562C178.47 54.156 178.758 54.912 178.848 55.434L178.2 54.984C177.534 55.938 176.544 56.784 176.238 57.018C175.95 57.234 175.698 57.396 175.446 57.45C175.572 57.81 175.752 58.512 175.806 58.8C176.04 58.71 176.364 58.638 177.912 58.566C177.372 58.944 176.94 59.25 176.688 59.394C176.112 59.772 175.68 60.006 175.284 60.078C175.392 60.438 175.572 61.158 175.626 61.428C176.04 61.212 176.652 61.158 181.746 60.636C181.908 60.96 182.034 61.266 182.124 61.518L183.348 60.996C183.06 60.186 182.394 58.998 181.71 58.116L180.558 58.602ZM185.508 62.958H187.416V65.082H185.508V62.958ZM187.416 57.99H185.508V55.974H187.416V57.99ZM187.416 61.536H185.508V59.412H187.416V61.536ZM191.376 65.082H188.91V62.958H190.908V61.536H188.91V59.412H190.908V57.99H188.91V55.974H191.16V54.462H188.91L189.756 54.156C189.486 53.418 188.946 52.266 188.46 51.402L187.056 51.834C187.506 52.626 187.974 53.724 188.244 54.462H185.58C185.994 53.436 186.318 52.356 186.606 51.276L185.04 50.898C184.428 53.418 183.402 55.92 182.07 57.504C182.412 57.81 182.988 58.494 183.222 58.818C183.492 58.476 183.744 58.116 183.996 57.702V67.404H185.508V66.594H191.376V65.082ZM207.216 53.85H201.726V52.698H207.216V53.85ZM207.216 56.154H201.726V54.984H207.216V56.154ZM208.872 51.474H200.142V57.378H208.872V51.474ZM198.684 52.842C198.036 52.212 196.668 51.456 195.606 51.006L194.67 52.248C195.732 52.752 197.082 53.598 197.694 54.21L198.684 52.842ZM197.766 57.504C197.1 56.928 195.732 56.208 194.67 55.794L193.734 57.054C194.832 57.522 196.164 58.314 196.794 58.908L197.766 57.504ZM196.974 60.456C196.092 62.508 194.904 64.812 194.076 66.198L195.57 67.188C196.47 65.496 197.496 63.354 198.27 61.464L196.974 60.456ZM210.312 59.682V58.314H198.522V59.682H200.826C200.052 60.96 198.918 62.148 197.73 62.94C198.072 63.192 198.648 63.678 198.9 63.948C199.566 63.444 200.25 62.796 200.862 62.076H202.302C201.402 63.606 200.052 64.992 198.63 65.91C198.954 66.162 199.53 66.684 199.782 66.954C201.366 65.784 202.932 64.02 203.976 62.076H205.416C204.732 63.876 203.616 65.46 202.248 66.504C202.59 66.702 203.202 67.17 203.454 67.422C204.912 66.162 206.19 64.254 206.982 62.076H208.134C207.954 64.524 207.738 65.496 207.468 65.784C207.324 65.964 207.18 66 206.946 65.982C206.712 65.982 206.172 65.982 205.578 65.928C205.812 66.306 205.956 66.936 205.992 67.368C206.694 67.404 207.378 67.404 207.756 67.35C208.188 67.296 208.512 67.17 208.8 66.828C209.286 66.288 209.538 64.884 209.772 61.41C209.79 61.194 209.808 60.762 209.808 60.762H201.87C202.104 60.402 202.32 60.042 202.518 59.682H210.312ZM220.104 51.15V65.208C220.104 65.568 219.978 65.676 219.6 65.694C219.222 65.712 217.908 65.712 216.684 65.658C216.954 66.144 217.242 66.936 217.35 67.404C219.06 67.422 220.212 67.368 220.932 67.098C221.634 66.81 221.922 66.324 221.922 65.208V51.15H220.104ZM224.406 55.74C225.864 58.332 227.286 61.68 227.664 63.804L229.482 63.084C229.032 60.906 227.556 57.63 226.026 55.128L224.406 55.74ZM215.442 55.272C215.028 57.648 214.074 60.744 212.562 62.616C213.012 62.778 213.75 63.192 214.164 63.498C215.73 61.5 216.738 58.242 217.332 55.614L215.442 55.272ZM247.14 63.156C245.754 62.49 243.036 61.392 241.218 60.708L240.354 62.004C242.226 62.778 244.908 63.948 246.204 64.668L247.14 63.156ZM247.896 58.998V57.342H240.3V54.858H246.15V53.256H240.3V50.916H238.536V57.342H231.858V58.998H238.59V67.404H240.354V58.998H247.896Z" fill="#573605"/>
<path d="M197.592 301.437L194.4 301.158L194.573 299.186L197.764 299.465L197.592 301.437ZM197.303 304.737L194.111 304.457L194.287 302.449L197.479 302.728L197.303 304.737ZM197.015 308.036L193.823 307.757L194.002 305.713L197.193 305.992L197.015 308.036ZM199.515 298.245L193.114 297.685L192.127 308.964L198.529 309.524L199.515 298.245ZM193.268 309.353C192.729 310.552 191.797 311.699 190.814 312.408C191.152 312.673 191.773 313.215 192.055 313.511C193.085 312.679 194.146 311.29 194.829 309.887L193.268 309.353ZM195.69 310.161C196.347 311.122 197.026 312.446 197.313 313.302L198.794 312.691C198.506 311.853 197.784 310.597 197.106 309.67L195.69 310.161ZM208.425 302.566L206.291 302.379L206.653 298.237L205.004 298.093L204.641 302.235L199.71 301.803L199.574 303.363L203.895 303.741C202.567 306.318 200.563 308.78 198.524 309.993C198.875 310.313 199.329 310.913 199.566 311.295C201.295 310.127 202.966 308.159 204.318 305.929L203.742 312.509C203.717 312.796 203.602 312.877 203.315 312.852C203.062 312.847 202.219 312.774 201.29 312.656C201.502 313.127 201.707 313.885 201.739 314.34C203.048 314.454 203.915 314.458 204.493 314.256C205.056 314.016 205.314 313.55 205.392 312.654L206.154 303.939L208.288 304.126L208.425 302.566Z" fill="#927858"/>
<path d="M222.019 308.968L222.12 310.116L218.175 310.461L218.075 309.313L222.019 308.968ZM227.894 309.611L223.752 309.973L223.651 308.825L227.793 308.463L227.894 309.611ZM223.952 312.268L223.847 311.067L227.989 310.704L228.095 311.906L223.952 312.268ZM218.271 311.555L222.216 311.209L222.321 312.411L218.376 312.756L218.271 311.555ZM216.955 314.687L218.533 314.549L218.486 314.011L228.204 313.161L228.247 313.645L229.896 313.501L229.333 307.063L216.387 308.196L216.955 314.687ZM218.874 304.816L226.028 304.19L226.127 305.32L218.972 305.946L218.874 304.816ZM217.547 307.209L227.84 306.309L227.542 302.902L217.249 303.802L217.547 307.209ZM217.253 301.778L217.356 302.962L227.344 302.088L227.241 300.904L217.253 301.778ZM223.217 298.907C222.961 298.46 222.584 297.861 222.274 297.418L220.514 297.951C220.724 298.294 220.976 298.688 221.191 299.085L214.574 299.664L214.888 303.25L216.484 303.11L216.294 300.941L228.039 299.913L228.229 302.083L229.897 301.937L229.583 298.35L223.217 298.907Z" fill="#927858"/>
<defs>
<filter id="filter0_i_114_13237" x="12" y="14" width="400" height="203" filterUnits="userSpaceOnUse" color-interpolation-filters="sRGB">
<feFlood flood-opacity="0" result="BackgroundImageFix"/>
<feBlend mode="normal" in="SourceGraphic" in2="BackgroundImageFix" result="shape"/>
<feColorMatrix in="SourceAlpha" type="matrix" values="0 0 0 0 0 0 0 0 0 0 0 0 0 0 0 0 0 0 127 0" result="hardAlpha"/>
<feOffset dy="4"/>
<feGaussianBlur stdDeviation="2"/>
<feComposite in2="hardAlpha" operator="arithmetic" k2="-1" k3="1"/>
<feColorMatrix type="matrix" values="0 0 0 0 0 0 0 0 0 0 0 0 0 0 0 0 0 0 0.35 0"/>
<feBlend mode="normal" in2="shape" result="effect1_innerShadow_114_13237"/>
</filter>
<filter id="filter1_di_114_13237" x="8" y="213" width="408" height="148" filterUnits="userSpaceOnUse" color-interpolation-filters="sRGB">
<feFlood flood-opacity="0" result="BackgroundImageFix"/>
<feColorMatrix in="SourceAlpha" type="matrix" values="0 0 0 0 0 0 0 0 0 0 0 0 0 0 0 0 0 0 127 0" result="hardAlpha"/>
<feOffset dy="4"/>
<feGaussianBlur stdDeviation="2"/>
<feComposite in2="hardAlpha" operator="out"/>
<feColorMatrix type="matrix" values="0 0 0 0 0 0 0 0 0 0 0 0 0 0 0 0 0 0 0.25 0"/>
<feBlend mode="normal" in2="BackgroundImageFix" result="effect1_dropShadow_114_13237"/>
<feBlend mode="normal" in="SourceGraphic" in2="effect1_dropShadow_114_13237" result="shape"/>
<feColorMatrix in="SourceAlpha" type="matrix" values="0 0 0 0 0 0 0 0 0 0 0 0 0 0 0 0 0 0 127 0" result="hardAlpha"/>
<feOffset dy="3"/>
<feGaussianBlur stdDeviation="4"/>
<feComposite in2="hardAlpha" operator="arithmetic" k2="-1" k3="1"/>
<feColorMatrix type="matrix" values="0 0 0 0 0 0 0 0 0 0 0 0 0 0 0 0 0 0 0.25 0"/>
<feBlend mode="normal" in2="shape" result="effect2_innerShadow_114_13237"/>
</filter>
</defs>
</svg>
