<svg width="400" height="400" viewBox="0 0 400 400" fill="none" xmlns="http://www.w3.org/2000/svg">
<g clip-path="url(#clip0_114_13237)">
<g filter="url(#filter0_d_114_13237)">
<g filter="url(#filter1_i_114_13237)">
<path d="M400 200C400 147.222 378.929 96.6055 341.421 59.2858C303.914 21.966 253.043 1 200 1C146.957 0.999996 96.0859 21.966 58.5787 59.2857C21.0714 96.6055 8.00932e-06 147.222 0 200L400 200Z" fill="#FDBF52"/>
</g>
<path d="M360 201C360 158.565 343.143 117.869 313.137 87.8629C283.131 57.8571 242.435 41 200 41C157.565 41 116.869 57.8571 86.8629 87.8629C56.8571 117.869 40 158.565 40 201" stroke="#FCDBA3" stroke-width="3"/>
<g filter="url(#filter2_i_114_13237)">
<path d="M1.74846e-05 200C1.28474e-05 253.043 21.0714 303.914 58.5786 341.421C96.0859 378.929 146.957 400 200 400C253.043 400 303.914 378.929 341.421 341.421C378.929 303.914 400 253.043 400 200L200 200L1.74846e-05 200Z" fill="#FDBF52"/>
<path d="M1.74846e-05 200C1.28474e-05 253.043 21.0714 303.914 58.5786 341.421C96.0859 378.929 146.957 400 200 400C253.043 400 303.914 378.929 341.421 341.421C378.929 303.914 400 253.043 400 200L200 200L1.74846e-05 200Z" fill="black" fill-opacity="0.2"/>
</g>
<g filter="url(#filter3_di_114_13237)">
<path d="M1.22392e-05 200C8.99315e-06 237.13 21.0714 272.74 58.5786 298.995C96.0859 325.25 146.957 340 200 340C253.043 340 303.914 325.25 341.421 298.995C378.929 272.74 400 237.13 400 200L200 200L1.22392e-05 200Z" fill="#FCDBA3"/>
</g>
<path d="M40 200C40 229.704 56.8571 258.192 86.8629 279.196C116.869 300.2 157.565 312 200 312C242.435 312 283.131 300.2 313.137 279.196C343.143 258.192 360 229.704 360 200" stroke="#FDBF52" stroke-width="3"/>
<path d="M145.492 105.32H139.796V101.8H145.492V105.32ZM145.492 111.208H139.796V107.624H145.492V111.208ZM145.492 117.096H139.796V113.448H145.492V117.096ZM148.404 99.368H136.98V119.496H148.404V99.368ZM139.06 120.008C138.292 122.216 136.82 124.392 135.188 125.8C135.828 126.216 137.012 127.08 137.556 127.56C139.252 125.928 140.916 123.304 141.908 120.712L139.06 120.008ZM143.476 121.064C144.788 122.664 146.196 124.904 146.836 126.376L149.364 125.064C148.724 123.624 147.252 121.512 145.908 119.976L143.476 121.064ZM164.852 105.64H161.044V98.248H158.1V105.64H149.3V108.424H157.012C155.06 113.192 151.892 117.864 148.468 120.328C149.14 120.84 150.036 121.832 150.516 122.472C153.396 120.136 156.052 116.392 158.1 112.232V123.976C158.1 124.488 157.908 124.648 157.396 124.648C156.948 124.68 155.444 124.68 153.78 124.616C154.228 125.416 154.708 126.728 154.836 127.528C157.172 127.528 158.708 127.4 159.7 126.952C160.66 126.44 161.044 125.576 161.044 123.976V108.424H164.852V105.64ZM182.1 118.216V120.264H175.06V118.216H182.1ZM192.404 120.264H185.012V118.216H192.404V120.264ZM185.012 124.36V122.216H192.404V124.36H185.012ZM175.06 122.216H182.1V124.36H175.06V122.216ZM172.244 127.56H175.06V126.6H192.404V127.464H195.348V115.976H172.244V127.56ZM177.172 110.376H189.94V112.392H177.172V110.376ZM174.452 114.408H192.82V108.328H174.452V114.408ZM174.772 104.744V106.856H192.596V104.744H174.772ZM185.78 100.584C185.396 99.752 184.82 98.632 184.34 97.8L181.14 98.472C181.46 99.112 181.844 99.848 182.164 100.584H170.356V106.984H173.204V103.112H194.164V106.984H197.14V100.584H185.78ZM222.9 113.288C222.708 116.104 222.388 119.784 222.004 122.952H214.1C214.644 120.2 215.252 116.808 215.828 113.288H222.9ZM225.14 122.952C225.62 118.824 226.036 114.024 226.26 110.44L223.956 110.248L223.38 110.376H216.34C216.66 108.232 216.98 106.12 217.268 104.104H229.3V101.192H205.172V104.104H214.004C213.716 106.12 213.428 108.232 213.108 110.376H206.932V113.288H212.628C212.02 116.776 211.412 120.168 210.836 122.952H203.22V125.896H231.476V122.952H225.14ZM242.772 115.72V113H249.268V115.72H242.772ZM242.772 108.072H249.268V110.728H242.772V108.072ZM258.964 108.072V110.728H252.34V108.072H258.964ZM258.964 115.72H252.34V113H258.964V115.72ZM265.3 120.36H252.34V118.152H261.94V105.608H252.34V103.624H264.244V100.904H252.34V98.152H249.268V100.904H237.556V103.624H249.268V105.608H239.892V118.152H249.268V120.36H236.628V123.048H249.268V127.592H252.34V123.048H265.3V120.36ZM143.7 147.528C146.1 146.088 148.276 144.36 150.132 142.344C152.052 144.264 154.42 146.024 156.916 147.528H143.7ZM158.356 150.28V148.328C159.956 149.192 161.556 149.96 163.124 150.504C163.572 149.736 164.5 148.552 165.172 147.912C160.372 146.504 154.996 143.464 151.86 140.328C152.148 139.944 152.404 139.528 152.692 139.112L149.908 137.864C146.868 142.568 141.076 146.088 135.124 147.912C135.86 148.648 136.692 149.8 137.108 150.664C138.708 150.088 140.244 149.384 141.748 148.616V150.28H148.436V154.152H137.876V156.84H148.436V163.976H136.404V166.696H163.86V163.976H151.604V156.84H162.324V154.152H151.604V150.28H158.356ZM156.308 163.848C157.396 162.408 158.804 160.232 160.02 158.216L157.14 157.16C156.468 158.92 155.124 161.352 154.036 162.888L156.308 163.848ZM140.308 158.12C141.46 159.912 142.708 162.312 143.156 163.816L145.748 162.696C145.236 161.192 143.956 158.856 142.74 157.16L140.308 158.12ZM176.98 162.248V154.312H181.3V151.72H176.98V148.712H180.052V146.184H172.628C173.844 145 175.028 143.656 176.084 142.248C177.748 143.688 179.54 145.384 180.66 146.6L182.452 144.488C181.3 143.24 179.38 141.544 177.492 140.104C177.716 139.752 177.908 139.368 178.1 139.048L175.636 138.12C174.068 141 171.38 143.752 168.82 145.48C169.204 146.184 169.908 147.72 170.1 148.328C170.516 148.04 170.964 147.656 171.412 147.272V148.712H174.388V151.72H169.748V154.312H174.388V162.792C172.436 163.176 170.676 163.528 169.268 163.784L170.004 166.664C173.268 165.896 177.588 164.808 181.652 163.816L181.396 161.32L176.98 162.248ZM170.388 156.168C170.932 158.024 171.508 160.456 171.636 162.024L173.78 161.416C173.588 159.848 173.012 157.512 172.404 155.688L170.388 156.168ZM179.284 161.416C179.86 159.976 180.532 157.736 181.14 155.88L178.9 155.24C178.612 156.904 178.004 159.304 177.524 160.84L179.284 161.416ZM185.972 147.784H194.164V151.112H185.972V147.784ZM194.164 142.088V145.352H185.972V142.088H194.164ZM196.244 154.44C195.22 155.432 193.652 156.68 192.276 157.64C191.7 156.392 191.22 155.08 190.804 153.704H197.044V139.528H183.092V163.08C183.092 164.264 182.42 164.776 181.812 165.032C182.228 165.64 182.676 166.888 182.836 167.592C183.476 167.08 184.532 166.664 191.028 164.68C190.9 164.008 190.772 162.856 190.772 162.056L185.972 163.368V153.704H188.212C189.716 159.688 192.276 164.616 196.596 167.144C197.044 166.344 197.94 165.192 198.644 164.616C196.564 163.592 194.868 161.896 193.492 159.816C194.996 158.888 196.756 157.64 198.164 156.488L196.244 154.44ZM213.364 158.504C212.084 158.888 210.804 159.208 209.556 159.56V152.072H213.012V149.32H209.556V142.92H213.588V140.168H202.836V142.92H206.708V149.32H203.092V152.072H206.708V160.36C205.204 160.744 203.828 161.096 202.708 161.384L203.284 164.232C206.228 163.4 210.1 162.248 213.716 161.192L213.364 158.504ZM231.988 154.408V151.688H224.212V146.632H230.516V143.912H224.212V138.152H221.364V143.912H218.388C218.676 142.664 218.9 141.384 219.124 140.104L216.404 139.624C215.86 143.368 214.9 147.048 213.268 149.416C213.908 149.736 215.124 150.504 215.604 150.888C216.372 149.736 217.044 148.264 217.556 146.632H221.364V151.688H213.588V154.408H220.116C218.196 158.28 214.964 161.928 211.668 163.848C212.276 164.392 213.204 165.416 213.652 166.152C216.596 164.2 219.348 160.968 221.364 157.288V167.528H224.212V157.16C225.972 160.584 228.244 163.816 230.58 165.768C231.092 165.032 232.02 163.976 232.692 163.464C229.94 161.512 227.124 157.992 225.364 154.408H231.988ZM252.308 163.432V153.928H262.42V151.016H252.308V143.08H263.732V140.168H238.132V143.08H249.076V151.016H239.572V153.928H249.076V163.432H236.66V166.312H265.236V163.432H252.308ZM254.804 156.648C256.66 158.504 259.22 161.032 260.436 162.568L262.644 160.584C261.364 159.08 258.804 156.68 256.948 154.92L254.804 156.648Z" fill="white"/>
<rect x="153" y="32" width="92.5" height="26" fill="#FDBF52"/>
<path d="M170.268 38.078C168.522 38.636 165.588 39.032 163.122 39.212C163.23 39.554 163.374 40.058 163.41 40.436C165.93 40.292 168.936 39.914 170.934 39.302L170.268 38.078ZM169.854 42.722C170.25 42.11 170.7 41.21 171.132 40.328L169.98 39.878C169.728 40.634 169.242 41.66 168.846 42.326L169.854 42.722ZM165.3 42.398C165.174 41.858 164.868 41.084 164.526 40.508L163.41 40.958C163.716 41.552 164.04 42.38 164.13 42.938L165.3 42.398ZM166.452 48.014C166.434 48.464 166.398 48.896 166.344 49.274H163.068V50.534H166.056C165.642 51.83 164.742 52.676 162.78 53.234C163.086 53.504 163.482 54.062 163.626 54.422C165.372 53.882 166.398 53.09 167.01 52.01C168.162 52.73 169.404 53.648 170.034 54.296L171.006 53.27C170.25 52.532 168.738 51.56 167.514 50.84L167.568 50.534H171.06V49.274H167.802C167.856 48.878 167.892 48.446 167.91 48.014H166.452ZM168.558 45.602C168.774 45.89 168.972 46.214 169.17 46.556L166.038 46.808C167.352 45.962 168.684 44.936 169.944 43.73L168.9 42.938C168.414 43.442 167.874 43.946 167.352 44.396L165.462 44.432C166.074 43.946 166.704 43.334 167.262 42.722L166.92 42.488L168.036 42.002C167.928 41.48 167.622 40.706 167.334 40.13L166.2 40.562C166.47 41.156 166.758 41.912 166.848 42.434L166.2 41.984C165.534 42.938 164.544 43.784 164.238 44.018C163.95 44.234 163.698 44.396 163.446 44.45C163.572 44.81 163.752 45.512 163.806 45.8C164.04 45.71 164.364 45.638 165.912 45.566C165.372 45.944 164.94 46.25 164.688 46.394C164.112 46.772 163.68 47.006 163.284 47.078C163.392 47.438 163.572 48.158 163.626 48.428C164.04 48.212 164.652 48.158 169.746 47.636C169.908 47.96 170.034 48.266 170.124 48.518L171.348 47.996C171.06 47.186 170.394 45.998 169.71 45.116L168.558 45.602ZM173.508 49.958H175.416V52.082H173.508V49.958ZM175.416 44.99H173.508V42.974H175.416V44.99ZM175.416 48.536H173.508V46.412H175.416V48.536ZM179.376 52.082H176.91V49.958H178.908V48.536H176.91V46.412H178.908V44.99H176.91V42.974H179.16V41.462H176.91L177.756 41.156C177.486 40.418 176.946 39.266 176.46 38.402L175.056 38.834C175.506 39.626 175.974 40.724 176.244 41.462H173.58C173.994 40.436 174.318 39.356 174.606 38.276L173.04 37.898C172.428 40.418 171.402 42.92 170.07 44.504C170.412 44.81 170.988 45.494 171.222 45.818C171.492 45.476 171.744 45.116 171.996 44.702V54.404H173.508V53.594H179.376V52.082ZM195.216 40.85H189.726V39.698H195.216V40.85ZM195.216 43.154H189.726V41.984H195.216V43.154ZM196.872 38.474H188.142V44.378H196.872V38.474ZM186.684 39.842C186.036 39.212 184.668 38.456 183.606 38.006L182.67 39.248C183.732 39.752 185.082 40.598 185.694 41.21L186.684 39.842ZM185.766 44.504C185.1 43.928 183.732 43.208 182.67 42.794L181.734 44.054C182.832 44.522 184.164 45.314 184.794 45.908L185.766 44.504ZM184.974 47.456C184.092 49.508 182.904 51.812 182.076 53.198L183.57 54.188C184.47 52.496 185.496 50.354 186.27 48.464L184.974 47.456ZM198.312 46.682V45.314H186.522V46.682H188.826C188.052 47.96 186.918 49.148 185.73 49.94C186.072 50.192 186.648 50.678 186.9 50.948C187.566 50.444 188.25 49.796 188.862 49.076H190.302C189.402 50.606 188.052 51.992 186.63 52.91C186.954 53.162 187.53 53.684 187.782 53.954C189.366 52.784 190.932 51.02 191.976 49.076H193.416C192.732 50.876 191.616 52.46 190.248 53.504C190.59 53.702 191.202 54.17 191.454 54.422C192.912 53.162 194.19 51.254 194.982 49.076H196.134C195.954 51.524 195.738 52.496 195.468 52.784C195.324 52.964 195.18 53 194.946 52.982C194.712 52.982 194.172 52.982 193.578 52.928C193.812 53.306 193.956 53.936 193.992 54.368C194.694 54.404 195.378 54.404 195.756 54.35C196.188 54.296 196.512 54.17 196.8 53.828C197.286 53.288 197.538 51.884 197.772 48.41C197.79 48.194 197.808 47.762 197.808 47.762H189.87C190.104 47.402 190.32 47.042 190.518 46.682H198.312ZM208.104 38.15V52.208C208.104 52.568 207.978 52.676 207.6 52.694C207.222 52.712 205.908 52.712 204.684 52.658C204.954 53.144 205.242 53.936 205.35 54.404C207.06 54.422 208.212 54.368 208.932 54.098C209.634 53.81 209.922 53.324 209.922 52.208V38.15H208.104ZM212.406 42.74C213.864 45.332 215.286 48.68 215.664 50.804L217.482 50.084C217.032 47.906 215.556 44.63 214.026 42.128L212.406 42.74ZM203.442 42.272C203.028 44.648 202.074 47.744 200.562 49.616C201.012 49.778 201.75 50.192 202.164 50.498C203.73 48.5 204.738 45.242 205.332 42.614L203.442 42.272ZM235.14 50.156C233.754 49.49 231.036 48.392 229.218 47.708L228.354 49.004C230.226 49.778 232.908 50.948 234.204 51.668L235.14 50.156ZM235.896 45.998V44.342H228.3V41.858H234.15V40.256H228.3V37.916H226.536V44.342H219.858V45.998H226.59V54.404H228.354V45.998H235.896Z" fill="#573605"/>
<path d="M185.592 288.437L182.4 288.158L182.573 286.186L185.764 286.465L185.592 288.437ZM185.303 291.737L182.111 291.457L182.287 289.449L185.479 289.728L185.303 291.737ZM185.015 295.036L181.823 294.757L182.002 292.713L185.193 292.992L185.015 295.036ZM187.515 285.245L181.114 284.685L180.127 295.964L186.529 296.524L187.515 285.245ZM181.268 296.353C180.729 297.552 179.797 298.699 178.814 299.408C179.152 299.673 179.773 300.215 180.055 300.511C181.085 299.679 182.146 298.29 182.829 296.887L181.268 296.353ZM183.69 297.161C184.347 298.122 185.026 299.446 185.313 300.302L186.794 299.691C186.506 298.853 185.784 297.597 185.106 296.67L183.69 297.161ZM196.425 289.566L194.291 289.379L194.653 285.237L193.004 285.093L192.641 289.235L187.71 288.803L187.574 290.363L191.895 290.741C190.567 293.318 188.563 295.78 186.524 296.993C186.875 297.313 187.329 297.913 187.566 298.295C189.295 297.127 190.966 295.159 192.318 292.929L191.742 299.509C191.717 299.796 191.602 299.877 191.315 299.852C191.062 299.847 190.219 299.774 189.29 299.656C189.502 300.127 189.707 300.885 189.739 301.34C191.048 301.454 191.915 301.458 192.493 301.256C193.056 301.016 193.314 300.55 193.392 299.654L194.154 290.939L196.288 291.126L196.425 289.566Z" fill="#927858"/>
<path d="M210.019 295.968L210.12 297.116L206.175 297.461L206.075 296.313L210.019 295.968ZM215.894 296.611L211.752 296.973L211.651 295.825L215.793 295.463L215.894 296.611ZM211.952 299.268L211.847 298.067L215.989 297.704L216.095 298.906L211.952 299.268ZM206.271 298.555L210.216 298.209L210.321 299.411L206.376 299.756L206.271 298.555ZM204.955 301.687L206.533 301.549L206.486 301.011L216.204 300.161L216.247 300.645L217.896 300.501L217.333 294.063L204.387 295.196L204.955 301.687ZM206.874 291.816L214.028 291.19L214.127 292.32L206.972 292.946L206.874 291.816ZM205.547 294.209L215.84 293.309L215.542 289.902L205.249 290.802L205.547 294.209ZM205.253 288.778L205.356 289.962L215.344 289.088L215.241 287.904L205.253 288.778ZM211.217 285.907C210.961 285.46 210.584 284.861 210.274 284.418L208.514 284.951C208.724 285.294 208.976 285.688 209.191 286.085L202.574 286.664L202.888 290.25L204.484 290.11L204.294 287.941L216.039 286.913L216.229 289.083L217.897 288.937L217.583 285.35L211.217 285.907Z" fill="#927858"/>
</g>
</g>
<defs>
<filter id="filter0_d_114_13237" x="-4" y="1" width="408" height="407" filterUnits="userSpaceOnUse" color-interpolation-filters="sRGB">
<feFlood flood-opacity="0" result="BackgroundImageFix"/>
<feColorMatrix in="SourceAlpha" type="matrix" values="0 0 0 0 0 0 0 0 0 0 0 0 0 0 0 0 0 0 127 0" result="hardAlpha"/>
<feOffset dy="4"/>
<feGaussianBlur stdDeviation="2"/>
<feComposite in2="hardAlpha" operator="out"/>
<feColorMatrix type="matrix" values="0 0 0 0 0 0 0 0 0 0 0 0 0 0 0 0 0 0 0.25 0"/>
<feBlend mode="normal" in2="BackgroundImageFix" result="effect1_dropShadow_114_13237"/>
<feBlend mode="normal" in="SourceGraphic" in2="effect1_dropShadow_114_13237" result="shape"/>
</filter>
<filter id="filter1_i_114_13237" x="0" y="1" width="400" height="203" filterUnits="userSpaceOnUse" color-interpolation-filters="sRGB">
<feFlood flood-opacity="0" result="BackgroundImageFix"/>
<feBlend mode="normal" in="SourceGraphic" in2="BackgroundImageFix" result="shape"/>
<feColorMatrix in="SourceAlpha" type="matrix" values="0 0 0 0 0 0 0 0 0 0 0 0 0 0 0 0 0 0 127 0" result="hardAlpha"/>
<feOffset dy="4"/>
<feGaussianBlur stdDeviation="2"/>
<feComposite in2="hardAlpha" operator="arithmetic" k2="-1" k3="1"/>
<feColorMatrix type="matrix" values="0 0 0 0 0 0 0 0 0 0 0 0 0 0 0 0 0 0 0.35 0"/>
<feBlend mode="normal" in2="shape" result="effect1_innerShadow_114_13237"/>
</filter>
<filter id="filter2_i_114_13237" x="0" y="198" width="400" height="202" filterUnits="userSpaceOnUse" color-interpolation-filters="sRGB">
<feFlood flood-opacity="0" result="BackgroundImageFix"/>
<feBlend mode="normal" in="SourceGraphic" in2="BackgroundImageFix" result="shape"/>
<feColorMatrix in="SourceAlpha" type="matrix" values="0 0 0 0 0 0 0 0 0 0 0 0 0 0 0 0 0 0 127 0" result="hardAlpha"/>
<feOffset dy="-2"/>
<feGaussianBlur stdDeviation="2"/>
<feComposite in2="hardAlpha" operator="arithmetic" k2="-1" k3="1"/>
<feColorMatrix type="matrix" values="0 0 0 0 0 0 0 0 0 0 0 0 0 0 0 0 0 0 0.25 0"/>
<feBlend mode="normal" in2="shape" result="effect1_innerShadow_114_13237"/>
</filter>
<filter id="filter3_di_114_13237" x="-8" y="200" width="416" height="158" filterUnits="userSpaceOnUse" color-interpolation-filters="sRGB">
<feFlood flood-opacity="0" result="BackgroundImageFix"/>
<feColorMatrix in="SourceAlpha" type="matrix" values="0 0 0 0 0 0 0 0 0 0 0 0 0 0 0 0 0 0 127 0" result="hardAlpha"/>
<feOffset dy="10"/>
<feGaussianBlur stdDeviation="4"/>
<feComposite in2="hardAlpha" operator="out"/>
<feColorMatrix type="matrix" values="0 0 0 0 0 0 0 0 0 0 0 0 0 0 0 0 0 0 0.25 0"/>
<feBlend mode="normal" in2="BackgroundImageFix" result="effect1_dropShadow_114_13237"/>
<feBlend mode="normal" in="SourceGraphic" in2="effect1_dropShadow_114_13237" result="shape"/>
<feColorMatrix in="SourceAlpha" type="matrix" values="0 0 0 0 0 0 0 0 0 0 0 0 0 0 0 0 0 0 127 0" result="hardAlpha"/>
<feOffset dy="3"/>
<feGaussianBlur stdDeviation="4"/>
<feComposite in2="hardAlpha" operator="arithmetic" k2="-1" k3="1"/>
<feColorMatrix type="matrix" values="0 0 0 0 0 0 0 0 0 0 0 0 0 0 0 0 0 0 0.25 0"/>
<feBlend mode="normal" in2="shape" result="effect2_innerShadow_114_13237"/>
</filter>
<clipPath id="clip0_114_13237">
<rect width="400" height="400" fill="white"/>
</clipPath>
</defs>
</svg>
