<svg width="400" height="400" viewBox="0 0 400 400" fill="none" xmlns="http://www.w3.org/2000/svg">
<g clip-path="url(#clip0_114_13357)">
<g filter="url(#filter0_d_114_13357)">
<g filter="url(#filter1_i_114_13357)">
<path d="M400 200C400 147.222 378.929 96.6055 341.421 59.2858C303.914 21.966 253.043 1 200 1C146.957 0.999996 96.0859 21.966 58.5787 59.2857C21.0714 96.6055 8.00932e-06 147.222 0 200L400 200Z" fill="#FDBF52"/>
</g>
<path d="M360 201C360 158.565 343.143 117.869 313.137 87.8629C283.131 57.8571 242.435 41 200 41C157.565 41 116.869 57.8571 86.8629 87.8629C56.8571 117.869 40 158.565 40 201" stroke="#FCDBA3" stroke-width="3"/>
<g filter="url(#filter2_i_114_13357)">
<path d="M1.74846e-05 200C1.28474e-05 253.043 21.0714 303.914 58.5786 341.421C96.0859 378.929 146.957 400 200 400C253.043 400 303.914 378.929 341.421 341.421C378.929 303.914 400 253.043 400 200L200 200L1.74846e-05 200Z" fill="#FDBF52"/>
<path d="M1.74846e-05 200C1.28474e-05 253.043 21.0714 303.914 58.5786 341.421C96.0859 378.929 146.957 400 200 400C253.043 400 303.914 378.929 341.421 341.421C378.929 303.914 400 253.043 400 200L200 200L1.74846e-05 200Z" fill="black" fill-opacity="0.2"/>
</g>
<g filter="url(#filter3_di_114_13357)">
<path d="M1.22392e-05 200C8.99315e-06 237.13 21.0714 272.74 58.5786 298.995C96.0859 325.25 146.957 340 200 340C253.043 340 303.914 325.25 341.421 298.995C378.929 272.74 400 237.13 400 200L200 200L1.22392e-05 200Z" fill="#FCDBA3"/>
</g>
<path d="M40 200C40 229.704 56.8571 258.192 86.8629 279.196C116.869 300.2 157.565 312 200 312C242.435 312 283.131 300.2 313.137 279.196C343.143 258.192 360 229.704 360 200" stroke="#FDBF52" stroke-width="3"/>
<path d="M150.028 118.856H154.764V122.6H150.028V118.856ZM154.764 110.024H150.028V106.568H154.764V110.024ZM154.764 116.2H150.028V112.712H154.764V116.2ZM163.564 122.6H157.516V118.856H162.348V116.2H157.516V112.712H162.348V110.024H157.516V106.568H163.18V103.88H156.716L158.732 102.952C158.316 101.672 157.388 99.848 156.46 98.376L153.964 99.464C154.764 100.808 155.596 102.6 156.012 103.88H150.7C151.468 102.28 152.14 100.648 152.684 99.112L149.772 98.312C148.844 101.512 147.02 105.448 144.844 108.328V105.672H141.228V98.568H138.38V105.672H134.508V108.488H138.38V118.088C136.812 118.696 135.372 119.272 134.22 119.688L135.404 122.664C138.284 121.384 141.964 119.688 145.42 118.056L144.78 115.4C143.596 115.912 142.38 116.424 141.228 116.872V108.488H144.716C144.396 108.872 144.108 109.224 143.788 109.544C144.364 110.12 145.132 111.208 145.58 111.848C146.156 111.208 146.7 110.536 147.244 109.8V127.592H150.028V125.352H163.564V122.6ZM176.3 107.528C178.7 106.088 180.876 104.36 182.732 102.344C184.652 104.264 187.02 106.024 189.516 107.528H176.3ZM190.956 110.28V108.328C192.556 109.192 194.156 109.96 195.724 110.504C196.172 109.736 197.1 108.552 197.772 107.912C192.972 106.504 187.596 103.464 184.46 100.328C184.748 99.944 185.004 99.528 185.292 99.112L182.508 97.864C179.468 102.568 173.676 106.088 167.724 107.912C168.46 108.648 169.292 109.8 169.708 110.664C171.308 110.088 172.844 109.384 174.348 108.616V110.28H181.036V114.152H170.476V116.84H181.036V123.976H169.004V126.696H196.46V123.976H184.204V116.84H194.924V114.152H184.204V110.28H190.956ZM188.908 123.848C189.996 122.408 191.404 120.232 192.62 118.216L189.74 117.16C189.068 118.92 187.724 121.352 186.636 122.888L188.908 123.848ZM172.908 118.12C174.06 119.912 175.308 122.312 175.756 123.816L178.348 122.696C177.836 121.192 176.556 118.856 175.34 117.16L172.908 118.12ZM213.548 115.4C212.972 114.696 210.54 112.168 209.484 111.24V109.672H212.908V108.296H230.892V106.344H223.212V104.936H229.388V103.08H223.212V101.704H230.156V99.784H223.212V98.152H220.236V99.784H213.708V101.704H220.236V103.08H214.348V104.936H220.236V106.344H212.716V106.888H209.484V102.024C210.924 101.672 212.268 101.288 213.42 100.84L211.372 98.568C209.1 99.528 205.132 100.424 201.708 100.904C202.06 101.544 202.444 102.536 202.572 103.208C203.852 103.048 205.228 102.856 206.604 102.6V106.888H201.996V109.672H206.38C205.164 113.096 203.116 117 201.164 119.24C201.644 119.944 202.316 121.16 202.636 121.992C204.012 120.232 205.42 117.576 206.604 114.76V127.464H209.484V114.28C210.412 115.528 211.372 116.904 211.82 117.736L213.548 115.4ZM226.412 113.32H217.484V111.592H226.412V113.32ZM226.412 116.904H217.484V115.144H226.412V116.904ZM226.412 120.488H217.484V118.728H226.412V120.488ZM229.196 109.672H214.796V122.408H218.188C216.652 123.656 213.74 125.032 211.244 125.736C211.852 126.248 212.684 127.08 213.132 127.656C215.692 126.856 218.828 125.32 220.748 123.816L218.54 122.408H229.196V109.672ZM223.212 123.848C225.164 125.064 227.404 126.6 228.652 127.56L231.244 126.12C229.772 125.128 227.308 123.624 225.196 122.408L223.212 123.848ZM251.308 123.432V113.928H261.42V111.016H251.308V103.08H262.732V100.168H237.132V103.08H248.076V111.016H238.572V113.928H248.076V123.432H235.66V126.312H264.236V123.432H251.308ZM253.804 116.648C255.66 118.504 258.22 121.032 259.436 122.568L261.644 120.584C260.364 119.08 257.804 116.68 255.948 114.92L253.804 116.648ZM143.308 161.832H141.676V152.072H146.476V149.448H141.676V144.168H145.868V141.544H138.7C138.956 140.456 139.244 139.304 139.468 138.216L137.068 137.672C136.46 141.064 135.436 144.584 134.028 146.856C134.668 147.144 135.724 147.848 136.204 148.232C136.812 147.112 137.388 145.704 137.932 144.168H139.34V149.448H134.476V152.072H139.34V161.832H137.612V154.248H135.436V164.392H143.308V165.256H145.516V154.216H143.308V161.832ZM149.484 158.824C151.116 156.296 152.524 153.032 153.58 149.608V158.824H149.484ZM163.372 147.048V144.264H156.396V138.184H153.58V144.264H147.052V147.048H152.012C150.604 151.688 148.268 156.392 145.644 158.888C146.284 159.432 147.212 160.456 147.692 161.192C148.236 160.584 148.716 159.944 149.228 159.208V161.512H153.58V167.496H156.396V161.512H160.3V158.824H156.396V149.96C157.772 154.312 159.724 158.408 161.996 160.904C162.476 160.136 163.468 159.112 164.14 158.568C161.58 156.104 159.244 151.56 157.932 147.048H163.372ZM171.212 167.112C172.556 164.136 174.06 160.36 175.244 157L172.812 155.432C171.532 159.08 169.804 163.112 168.524 165.576L171.212 167.112ZM174.764 149.8C173.676 148.808 171.404 147.624 169.58 146.92L167.916 149.096C169.74 149.896 171.98 151.24 173.036 152.2L174.764 149.8ZM183.276 143.464H189.516V145.768H183.276V143.464ZM193.74 152.744V161.64C192.46 160.232 191.788 157.544 191.66 154.248H188.588V156.136H190.22C190.252 156.488 190.284 156.84 190.316 157.16H189.74C189.58 158.888 188.94 160.776 187.596 161.928V152.744H193.74ZM180.076 154.248V156.136H181.74C181.772 156.488 181.804 156.84 181.836 157.192H181.228C181.036 159.048 180.396 161.064 179.02 162.28V152.744H185.004V161.608C183.852 160.136 183.276 157.448 183.18 154.248H180.076ZM192.428 148.296V143.464H197.228V140.808H192.428V138.12H189.516V140.808H183.276V138.12H180.428V140.808H175.884V141.48C174.764 140.456 172.62 139.208 170.924 138.472L169.26 140.584C170.988 141.48 173.196 142.92 174.188 143.944L175.884 141.704V143.464H180.428V148.296H185.004V150.216H176.492V167.464H179.02V162.44C179.404 162.696 179.916 163.208 180.14 163.592C181.228 162.632 181.932 161.352 182.348 159.944C182.764 161.352 183.308 162.472 184.044 163.272C184.268 162.984 184.652 162.6 185.004 162.312V167.208H187.596V162.216C187.98 162.504 188.396 162.984 188.62 163.304C189.74 162.408 190.444 161.192 190.892 159.816C191.34 161.224 191.948 162.376 192.716 163.208C192.908 162.888 193.356 162.472 193.74 162.184V164.808C193.74 165.128 193.644 165.256 193.26 165.256C192.908 165.256 191.756 165.256 190.572 165.224C190.892 165.832 191.18 166.792 191.308 167.432C193.164 167.432 194.444 167.432 195.308 167.08C196.14 166.664 196.396 166.024 196.396 164.808V150.216H187.596V148.296H192.428ZM208.204 147.4H212.364C211.5 150.248 209.516 152.168 203.98 153.224C204.556 153.768 205.228 154.92 205.516 155.592C212.012 154.12 214.316 151.432 215.34 147.4H221.772C221.516 150.344 221.164 151.656 220.716 152.104C220.396 152.36 220.044 152.392 219.532 152.392C218.892 152.392 217.292 152.36 215.692 152.232C216.172 152.936 216.492 153.992 216.556 154.76C218.284 154.856 219.916 154.856 220.812 154.76C221.804 154.696 222.54 154.504 223.18 153.864C224.012 153.032 224.46 150.952 224.876 146.024L224.94 145.096C226.444 145.896 228.076 146.536 229.772 147.048C230.092 146.216 230.732 144.968 231.212 144.328C227.052 143.464 223.116 141.416 221.58 138.728H214.988V141.352H220.076C221.228 142.664 222.764 143.88 224.556 144.872H208.332C210.252 143.624 211.98 142.056 213.132 140.264L210.572 138.76C208.716 141.8 205.004 144.04 201.42 145.256C202.028 145.832 202.796 146.824 203.148 147.432C204.844 146.824 206.604 145.992 208.204 144.968V147.4ZM208.236 158.376H211.724V164.04H208.236V158.376ZM217.996 158.376V164.04H214.444V158.376H217.996ZM224.3 158.376V164.04H220.716V158.376H224.3ZM227.212 156.04H205.452V164.04H201.868V166.632H230.764V164.04H227.212V156.04ZM249.74 146.856C249.324 147.912 248.844 148.872 248.204 149.704C247.116 149.064 245.964 148.456 244.908 147.976L243.18 149.576C244.3 150.088 245.452 150.696 246.572 151.4C245.324 152.456 243.788 153.256 242.06 153.768C242.572 154.184 243.404 155.208 243.756 155.784C245.644 155.08 247.34 154.152 248.716 152.84C249.932 153.672 250.988 154.536 251.788 155.336L253.548 153.512C252.716 152.776 251.596 151.912 250.284 151.016C251.436 149.416 252.268 147.432 252.844 144.968L251.308 144.488L250.86 144.52H244.236C244.396 143.72 244.556 142.952 244.684 142.088H254.828C254.38 144.104 253.868 146.184 253.452 147.688H259.98C259.628 150.696 259.276 152.04 258.796 152.488C258.508 152.744 258.188 152.744 257.676 152.744C257.068 152.744 255.596 152.744 254.092 152.616C254.572 153.32 254.892 154.376 254.988 155.144C256.556 155.208 258.06 155.24 258.924 155.144C259.884 155.08 260.556 154.888 261.164 154.248C262.06 153.416 262.476 151.304 262.956 146.344C263.02 145.96 263.052 145.224 263.052 145.224H256.908C257.324 143.432 257.804 141.416 258.188 139.624H236.492V142.088H241.804C240.94 147.624 238.956 151.816 235.084 154.344C235.724 154.76 236.876 155.848 237.292 156.36C240.3 154.088 242.348 150.952 243.596 146.856H249.74ZM241.74 158.856H245.292V164.04H241.74V158.856ZM251.596 158.856V164.04H248.012V158.856H251.596ZM257.964 158.856V164.04H254.316V158.856H257.964ZM260.876 164.04V156.488H238.956V164.04H235.468V166.632H264.364V164.04H260.876Z" fill="white"/>
<rect x="153" y="32" width="92.5" height="26" fill="#FDBF52"/>
<path d="M170.268 38.078C168.522 38.636 165.588 39.032 163.122 39.212C163.23 39.554 163.374 40.058 163.41 40.436C165.93 40.292 168.936 39.914 170.934 39.302L170.268 38.078ZM169.854 42.722C170.25 42.11 170.7 41.21 171.132 40.328L169.98 39.878C169.728 40.634 169.242 41.66 168.846 42.326L169.854 42.722ZM165.3 42.398C165.174 41.858 164.868 41.084 164.526 40.508L163.41 40.958C163.716 41.552 164.04 42.38 164.13 42.938L165.3 42.398ZM166.452 48.014C166.434 48.464 166.398 48.896 166.344 49.274H163.068V50.534H166.056C165.642 51.83 164.742 52.676 162.78 53.234C163.086 53.504 163.482 54.062 163.626 54.422C165.372 53.882 166.398 53.09 167.01 52.01C168.162 52.73 169.404 53.648 170.034 54.296L171.006 53.27C170.25 52.532 168.738 51.56 167.514 50.84L167.568 50.534H171.06V49.274H167.802C167.856 48.878 167.892 48.446 167.91 48.014H166.452ZM168.558 45.602C168.774 45.89 168.972 46.214 169.17 46.556L166.038 46.808C167.352 45.962 168.684 44.936 169.944 43.73L168.9 42.938C168.414 43.442 167.874 43.946 167.352 44.396L165.462 44.432C166.074 43.946 166.704 43.334 167.262 42.722L166.92 42.488L168.036 42.002C167.928 41.48 167.622 40.706 167.334 40.13L166.2 40.562C166.47 41.156 166.758 41.912 166.848 42.434L166.2 41.984C165.534 42.938 164.544 43.784 164.238 44.018C163.95 44.234 163.698 44.396 163.446 44.45C163.572 44.81 163.752 45.512 163.806 45.8C164.04 45.71 164.364 45.638 165.912 45.566C165.372 45.944 164.94 46.25 164.688 46.394C164.112 46.772 163.68 47.006 163.284 47.078C163.392 47.438 163.572 48.158 163.626 48.428C164.04 48.212 164.652 48.158 169.746 47.636C169.908 47.96 170.034 48.266 170.124 48.518L171.348 47.996C171.06 47.186 170.394 45.998 169.71 45.116L168.558 45.602ZM173.508 49.958H175.416V52.082H173.508V49.958ZM175.416 44.99H173.508V42.974H175.416V44.99ZM175.416 48.536H173.508V46.412H175.416V48.536ZM179.376 52.082H176.91V49.958H178.908V48.536H176.91V46.412H178.908V44.99H176.91V42.974H179.16V41.462H176.91L177.756 41.156C177.486 40.418 176.946 39.266 176.46 38.402L175.056 38.834C175.506 39.626 175.974 40.724 176.244 41.462H173.58C173.994 40.436 174.318 39.356 174.606 38.276L173.04 37.898C172.428 40.418 171.402 42.92 170.07 44.504C170.412 44.81 170.988 45.494 171.222 45.818C171.492 45.476 171.744 45.116 171.996 44.702V54.404H173.508V53.594H179.376V52.082ZM195.216 40.85H189.726V39.698H195.216V40.85ZM195.216 43.154H189.726V41.984H195.216V43.154ZM196.872 38.474H188.142V44.378H196.872V38.474ZM186.684 39.842C186.036 39.212 184.668 38.456 183.606 38.006L182.67 39.248C183.732 39.752 185.082 40.598 185.694 41.21L186.684 39.842ZM185.766 44.504C185.1 43.928 183.732 43.208 182.67 42.794L181.734 44.054C182.832 44.522 184.164 45.314 184.794 45.908L185.766 44.504ZM184.974 47.456C184.092 49.508 182.904 51.812 182.076 53.198L183.57 54.188C184.47 52.496 185.496 50.354 186.27 48.464L184.974 47.456ZM198.312 46.682V45.314H186.522V46.682H188.826C188.052 47.96 186.918 49.148 185.73 49.94C186.072 50.192 186.648 50.678 186.9 50.948C187.566 50.444 188.25 49.796 188.862 49.076H190.302C189.402 50.606 188.052 51.992 186.63 52.91C186.954 53.162 187.53 53.684 187.782 53.954C189.366 52.784 190.932 51.02 191.976 49.076H193.416C192.732 50.876 191.616 52.46 190.248 53.504C190.59 53.702 191.202 54.17 191.454 54.422C192.912 53.162 194.19 51.254 194.982 49.076H196.134C195.954 51.524 195.738 52.496 195.468 52.784C195.324 52.964 195.18 53 194.946 52.982C194.712 52.982 194.172 52.982 193.578 52.928C193.812 53.306 193.956 53.936 193.992 54.368C194.694 54.404 195.378 54.404 195.756 54.35C196.188 54.296 196.512 54.17 196.8 53.828C197.286 53.288 197.538 51.884 197.772 48.41C197.79 48.194 197.808 47.762 197.808 47.762H189.87C190.104 47.402 190.32 47.042 190.518 46.682H198.312ZM208.104 38.15V52.208C208.104 52.568 207.978 52.676 207.6 52.694C207.222 52.712 205.908 52.712 204.684 52.658C204.954 53.144 205.242 53.936 205.35 54.404C207.06 54.422 208.212 54.368 208.932 54.098C209.634 53.81 209.922 53.324 209.922 52.208V38.15H208.104ZM212.406 42.74C213.864 45.332 215.286 48.68 215.664 50.804L217.482 50.084C217.032 47.906 215.556 44.63 214.026 42.128L212.406 42.74ZM203.442 42.272C203.028 44.648 202.074 47.744 200.562 49.616C201.012 49.778 201.75 50.192 202.164 50.498C203.73 48.5 204.738 45.242 205.332 42.614L203.442 42.272ZM235.14 50.156C233.754 49.49 231.036 48.392 229.218 47.708L228.354 49.004C230.226 49.778 232.908 50.948 234.204 51.668L235.14 50.156ZM235.896 45.998V44.342H228.3V41.858H234.15V40.256H228.3V37.916H226.536V44.342H219.858V45.998H226.59V54.404H228.354V45.998H235.896Z" fill="#573605"/>
<path d="M185.592 288.437L182.4 288.158L182.573 286.186L185.764 286.465L185.592 288.437ZM185.303 291.737L182.111 291.457L182.287 289.449L185.479 289.728L185.303 291.737ZM185.015 295.036L181.823 294.757L182.002 292.713L185.193 292.992L185.015 295.036ZM187.515 285.245L181.114 284.685L180.127 295.964L186.529 296.524L187.515 285.245ZM181.268 296.353C180.729 297.552 179.797 298.699 178.814 299.408C179.152 299.673 179.773 300.215 180.055 300.511C181.085 299.679 182.146 298.29 182.829 296.887L181.268 296.353ZM183.69 297.161C184.347 298.122 185.026 299.446 185.313 300.302L186.794 299.691C186.506 298.853 185.784 297.597 185.106 296.67L183.69 297.161ZM196.425 289.566L194.291 289.379L194.653 285.237L193.004 285.093L192.641 289.235L187.71 288.803L187.574 290.363L191.895 290.741C190.567 293.318 188.563 295.78 186.524 296.993C186.875 297.313 187.329 297.913 187.566 298.295C189.295 297.127 190.966 295.159 192.318 292.929L191.742 299.509C191.717 299.796 191.602 299.877 191.315 299.852C191.062 299.847 190.219 299.774 189.29 299.656C189.502 300.127 189.707 300.885 189.739 301.34C191.048 301.454 191.915 301.458 192.493 301.256C193.056 301.016 193.314 300.55 193.392 299.654L194.154 290.939L196.288 291.126L196.425 289.566Z" fill="#927858"/>
<path d="M210.019 295.968L210.12 297.116L206.175 297.461L206.075 296.313L210.019 295.968ZM215.894 296.611L211.752 296.973L211.651 295.825L215.793 295.463L215.894 296.611ZM211.952 299.268L211.847 298.067L215.989 297.704L216.095 298.906L211.952 299.268ZM206.271 298.555L210.216 298.209L210.321 299.411L206.376 299.756L206.271 298.555ZM204.955 301.687L206.533 301.549L206.486 301.011L216.204 300.161L216.247 300.645L217.896 300.501L217.333 294.063L204.387 295.196L204.955 301.687ZM206.874 291.816L214.028 291.19L214.127 292.32L206.972 292.946L206.874 291.816ZM205.547 294.209L215.84 293.309L215.542 289.902L205.249 290.802L205.547 294.209ZM205.253 288.778L205.356 289.962L215.344 289.088L215.241 287.904L205.253 288.778ZM211.217 285.907C210.961 285.46 210.584 284.861 210.274 284.418L208.514 284.951C208.724 285.294 208.976 285.688 209.191 286.085L202.574 286.664L202.888 290.25L204.484 290.11L204.294 287.941L216.039 286.913L216.229 289.083L217.897 288.937L217.583 285.35L211.217 285.907Z" fill="#927858"/>
</g>
</g>
<defs>
<filter id="filter0_d_114_13357" x="-4" y="1" width="408" height="407" filterUnits="userSpaceOnUse" color-interpolation-filters="sRGB">
<feFlood flood-opacity="0" result="BackgroundImageFix"/>
<feColorMatrix in="SourceAlpha" type="matrix" values="0 0 0 0 0 0 0 0 0 0 0 0 0 0 0 0 0 0 127 0" result="hardAlpha"/>
<feOffset dy="4"/>
<feGaussianBlur stdDeviation="2"/>
<feComposite in2="hardAlpha" operator="out"/>
<feColorMatrix type="matrix" values="0 0 0 0 0 0 0 0 0 0 0 0 0 0 0 0 0 0 0.25 0"/>
<feBlend mode="normal" in2="BackgroundImageFix" result="effect1_dropShadow_114_13357"/>
<feBlend mode="normal" in="SourceGraphic" in2="effect1_dropShadow_114_13357" result="shape"/>
</filter>
<filter id="filter1_i_114_13357" x="0" y="1" width="400" height="203" filterUnits="userSpaceOnUse" color-interpolation-filters="sRGB">
<feFlood flood-opacity="0" result="BackgroundImageFix"/>
<feBlend mode="normal" in="SourceGraphic" in2="BackgroundImageFix" result="shape"/>
<feColorMatrix in="SourceAlpha" type="matrix" values="0 0 0 0 0 0 0 0 0 0 0 0 0 0 0 0 0 0 127 0" result="hardAlpha"/>
<feOffset dy="4"/>
<feGaussianBlur stdDeviation="2"/>
<feComposite in2="hardAlpha" operator="arithmetic" k2="-1" k3="1"/>
<feColorMatrix type="matrix" values="0 0 0 0 0 0 0 0 0 0 0 0 0 0 0 0 0 0 0.35 0"/>
<feBlend mode="normal" in2="shape" result="effect1_innerShadow_114_13357"/>
</filter>
<filter id="filter2_i_114_13357" x="0" y="198" width="400" height="202" filterUnits="userSpaceOnUse" color-interpolation-filters="sRGB">
<feFlood flood-opacity="0" result="BackgroundImageFix"/>
<feBlend mode="normal" in="SourceGraphic" in2="BackgroundImageFix" result="shape"/>
<feColorMatrix in="SourceAlpha" type="matrix" values="0 0 0 0 0 0 0 0 0 0 0 0 0 0 0 0 0 0 127 0" result="hardAlpha"/>
<feOffset dy="-2"/>
<feGaussianBlur stdDeviation="2"/>
<feComposite in2="hardAlpha" operator="arithmetic" k2="-1" k3="1"/>
<feColorMatrix type="matrix" values="0 0 0 0 0 0 0 0 0 0 0 0 0 0 0 0 0 0 0.25 0"/>
<feBlend mode="normal" in2="shape" result="effect1_innerShadow_114_13357"/>
</filter>
<filter id="filter3_di_114_13357" x="-8" y="200" width="416" height="158" filterUnits="userSpaceOnUse" color-interpolation-filters="sRGB">
<feFlood flood-opacity="0" result="BackgroundImageFix"/>
<feColorMatrix in="SourceAlpha" type="matrix" values="0 0 0 0 0 0 0 0 0 0 0 0 0 0 0 0 0 0 127 0" result="hardAlpha"/>
<feOffset dy="10"/>
<feGaussianBlur stdDeviation="4"/>
<feComposite in2="hardAlpha" operator="out"/>
<feColorMatrix type="matrix" values="0 0 0 0 0 0 0 0 0 0 0 0 0 0 0 0 0 0 0.25 0"/>
<feBlend mode="normal" in2="BackgroundImageFix" result="effect1_dropShadow_114_13357"/>
<feBlend mode="normal" in="SourceGraphic" in2="effect1_dropShadow_114_13357" result="shape"/>
<feColorMatrix in="SourceAlpha" type="matrix" values="0 0 0 0 0 0 0 0 0 0 0 0 0 0 0 0 0 0 127 0" result="hardAlpha"/>
<feOffset dy="3"/>
<feGaussianBlur stdDeviation="4"/>
<feComposite in2="hardAlpha" operator="arithmetic" k2="-1" k3="1"/>
<feColorMatrix type="matrix" values="0 0 0 0 0 0 0 0 0 0 0 0 0 0 0 0 0 0 0.25 0"/>
<feBlend mode="normal" in2="shape" result="effect2_innerShadow_114_13357"/>
</filter>
<clipPath id="clip0_114_13357">
<rect width="400" height="400" fill="white"/>
</clipPath>
</defs>
</svg>
