<svg width="400" height="400" viewBox="0 0 400 400" fill="none" xmlns="http://www.w3.org/2000/svg">
<g clip-path="url(#clip0_114_13297)">
<g filter="url(#filter0_d_114_13297)">
<g filter="url(#filter1_i_114_13297)">
<path d="M400 200C400 147.222 378.929 96.6055 341.421 59.2858C303.914 21.966 253.043 1 200 1C146.957 0.999996 96.0859 21.966 58.5787 59.2857C21.0714 96.6055 8.00932e-06 147.222 0 200L400 200Z" fill="#FDBF52"/>
</g>
<path d="M360 201C360 158.565 343.143 117.869 313.137 87.8629C283.131 57.8571 242.435 41 200 41C157.565 41 116.869 57.8571 86.8629 87.8629C56.8571 117.869 40 158.565 40 201" stroke="#FCDBA3" stroke-width="3"/>
<g filter="url(#filter2_i_114_13297)">
<path d="M1.74846e-05 200C1.28474e-05 253.043 21.0714 303.914 58.5786 341.421C96.0859 378.929 146.957 400 200 400C253.043 400 303.914 378.929 341.421 341.421C378.929 303.914 400 253.043 400 200L200 200L1.74846e-05 200Z" fill="#FDBF52"/>
<path d="M1.74846e-05 200C1.28474e-05 253.043 21.0714 303.914 58.5786 341.421C96.0859 378.929 146.957 400 200 400C253.043 400 303.914 378.929 341.421 341.421C378.929 303.914 400 253.043 400 200L200 200L1.74846e-05 200Z" fill="black" fill-opacity="0.2"/>
</g>
<g filter="url(#filter3_di_114_13297)">
<path d="M1.22392e-05 200C8.99315e-06 237.13 21.0714 272.74 58.5786 298.995C96.0859 325.25 146.957 340 200 340C253.043 340 303.914 325.25 341.421 298.995C378.929 272.74 400 237.13 400 200L200 200L1.22392e-05 200Z" fill="#FCDBA3"/>
</g>
<path d="M40 200C40 229.704 56.8571 258.192 86.8629 279.196C116.869 300.2 157.565 312 200 312C242.435 312 283.131 300.2 313.137 279.196C343.143 258.192 360 229.704 360 200" stroke="#FDBF52" stroke-width="3"/>
<path d="M144.492 105.32H138.796V101.8H144.492V105.32ZM144.492 111.208H138.796V107.624H144.492V111.208ZM144.492 117.096H138.796V113.448H144.492V117.096ZM147.404 99.368H135.98V119.496H147.404V99.368ZM138.06 120.008C137.292 122.216 135.82 124.392 134.188 125.8C134.828 126.216 136.012 127.08 136.556 127.56C138.252 125.928 139.916 123.304 140.908 120.712L138.06 120.008ZM142.476 121.064C143.788 122.664 145.196 124.904 145.836 126.376L148.364 125.064C147.724 123.624 146.252 121.512 144.908 119.976L142.476 121.064ZM163.852 105.64H160.044V98.248H157.1V105.64H148.3V108.424H156.012C154.06 113.192 150.892 117.864 147.468 120.328C148.14 120.84 149.036 121.832 149.516 122.472C152.396 120.136 155.052 116.392 157.1 112.232V123.976C157.1 124.488 156.908 124.648 156.396 124.648C155.948 124.68 154.444 124.68 152.78 124.616C153.228 125.416 153.708 126.728 153.836 127.528C156.172 127.528 157.708 127.4 158.7 126.952C159.66 126.44 160.044 125.576 160.044 123.976V108.424H163.852V105.64ZM176.524 101.704C175.276 100.808 172.844 99.4 171.212 98.472L169.452 100.584C171.148 101.64 173.516 103.144 174.7 104.072L176.524 101.704ZM174.988 110.056C173.708 109.192 171.308 107.848 169.644 106.984L167.916 109.096C169.644 110.088 172.012 111.56 173.196 112.424L174.988 110.056ZM173.164 115.208C171.756 118.888 169.836 122.984 168.492 125.48L171.18 127.112C172.652 124.072 174.284 120.232 175.532 116.872L173.164 115.208ZM180.364 102.44H197.036V99.752H177.452V108.488C177.452 113.672 177.132 120.872 173.548 125.864C174.252 126.184 175.532 126.952 176.044 127.432C179.788 122.152 180.364 114.056 180.364 108.488V102.44ZM182.764 118.44C181.932 120.488 180.556 122.728 179.18 124.232C179.852 124.584 181.004 125.288 181.548 125.672C182.86 124.072 184.396 121.48 185.42 119.176L182.764 118.44ZM184.556 112.328H193.196V114.664H184.556V112.328ZM184.556 107.912H193.196V110.216H184.556V107.912ZM195.98 116.872V105.672H189.42C189.804 104.904 190.252 104.104 190.668 103.24L187.34 102.632C187.148 103.496 186.796 104.68 186.476 105.672H181.9V116.872H187.308V124.488C187.308 124.84 187.18 124.968 186.796 124.968C186.412 124.968 185.1 125 183.756 124.936C184.044 125.672 184.428 126.76 184.524 127.496C186.604 127.528 188.012 127.496 188.94 127.048C189.9 126.664 190.124 125.928 190.124 124.584V116.872H195.98ZM191.724 119.112C192.876 121.128 194.284 123.816 194.956 125.416L197.676 124.232C196.972 122.664 195.468 120.072 194.284 118.152L191.724 119.112ZM220.236 106.536H223.18V103.528H230.348V100.776H223.18V98.184H220.236V100.776H216.844V103.528H220.236V106.536ZM209.26 106.696H212.204V103.528H215.724V100.776H212.204V98.184H209.26V100.776H202.252V103.528H209.26V106.696ZM224.908 112.68C223.948 114.792 222.572 116.584 220.972 118.184C220.204 116.424 219.564 114.344 219.148 112.104H230.54V109.352H227.82L229.1 108.168C228.172 107.272 226.316 105.992 224.972 105.096L223.116 106.696C224.204 107.464 225.58 108.52 226.54 109.352H218.7C218.54 108.136 218.444 106.92 218.412 105.64H215.436C215.5 106.888 215.596 108.136 215.724 109.352H205.036V113.96C205.036 117.48 204.652 122.312 201.452 125.768C202.156 126.12 203.404 127.016 203.948 127.56C207.308 123.784 207.98 118.056 207.98 114.024V112.104H216.172C216.684 115.048 217.548 117.832 218.604 120.168C215.692 122.216 212.172 123.752 208.204 124.808C208.812 125.416 209.74 126.76 210.092 127.4C213.74 126.248 217.1 124.712 219.98 122.664C221.9 125.64 224.332 127.496 227.116 127.496C229.708 127.496 230.796 126.376 231.276 121.8C230.508 121.512 229.484 120.968 228.844 120.328C228.652 123.56 228.268 124.648 227.276 124.648C225.548 124.648 223.788 123.24 222.316 120.84C224.556 118.824 226.444 116.488 227.82 113.64L224.908 112.68ZM245.868 109C245.74 111.24 245.58 112.168 245.292 112.488C245.068 112.744 244.844 112.776 244.428 112.776C243.98 112.776 242.988 112.744 241.836 112.648C242.156 113.256 242.412 114.216 242.476 114.92C243.82 114.984 245.1 114.984 245.804 114.888C246.572 114.824 247.18 114.632 247.66 114.056C248.268 113.384 248.492 111.656 248.684 107.624C248.716 107.272 248.716 106.632 248.716 106.632H241.068C241.1 106.12 241.1 105.64 241.1 105.224V104.104H250.508C251.116 106.728 252.076 109.096 253.228 111.016C251.692 112.168 249.964 113.064 248.204 113.832C248.812 114.344 249.772 115.496 250.156 116.04C251.756 115.272 253.324 114.312 254.796 113.224C256.428 115.176 258.38 116.296 260.428 116.296C262.828 116.328 263.82 115.304 264.3 111.208C263.5 110.952 262.54 110.44 261.9 109.896C261.708 112.488 261.42 113.48 260.588 113.48C259.436 113.48 258.22 112.712 257.036 111.336C258.86 109.672 260.46 107.72 261.644 105.544L258.956 104.744C258.092 106.344 256.908 107.816 255.532 109.128C254.764 107.688 254.06 105.992 253.516 104.104H263.66V101.512H259.084L260.204 100.776C259.436 99.976 257.964 98.792 256.716 98.024L254.668 99.208C255.564 99.816 256.684 100.712 257.452 101.512H252.972C252.78 100.392 252.652 99.304 252.588 98.152H249.612C249.676 99.272 249.804 100.424 249.964 101.512H238.124V105.16C238.124 108.136 237.804 112.296 235.276 115.432C235.916 115.752 237.26 116.712 237.74 117.256C239.628 114.92 240.492 111.816 240.876 109H245.868ZM242.188 119.176H245.516V124.232H242.188V119.176ZM251.596 119.176V124.232H248.236V119.176H251.596ZM257.74 119.176V124.232H254.316V119.176H257.74ZM260.62 116.808H239.436V124.232H235.532V126.888H264.236V124.232H260.62V116.808ZM142.7 147.528C145.1 146.088 147.276 144.36 149.132 142.344C151.052 144.264 153.42 146.024 155.916 147.528H142.7ZM157.356 150.28V148.328C158.956 149.192 160.556 149.96 162.124 150.504C162.572 149.736 163.5 148.552 164.172 147.912C159.372 146.504 153.996 143.464 150.86 140.328C151.148 139.944 151.404 139.528 151.692 139.112L148.908 137.864C145.868 142.568 140.076 146.088 134.124 147.912C134.86 148.648 135.692 149.8 136.108 150.664C137.708 150.088 139.244 149.384 140.748 148.616V150.28H147.436V154.152H136.876V156.84H147.436V163.976H135.404V166.696H162.86V163.976H150.604V156.84H161.324V154.152H150.604V150.28H157.356ZM155.308 163.848C156.396 162.408 157.804 160.232 159.02 158.216L156.14 157.16C155.468 158.92 154.124 161.352 153.036 162.888L155.308 163.848ZM139.308 158.12C140.46 159.912 141.708 162.312 142.156 163.816L144.748 162.696C144.236 161.192 142.956 158.856 141.74 157.16L139.308 158.12ZM184.108 163.432V153.928H194.22V151.016H184.108V143.08H195.532V140.168H169.932V143.08H180.876V151.016H171.372V153.928H180.876V163.432H168.46V166.312H197.036V163.432H184.108ZM186.604 156.648C188.46 158.504 191.02 161.032 192.236 162.568L194.444 160.584C193.164 159.08 190.604 156.68 188.748 154.92L186.604 156.648ZM204.812 167.112C206.156 164.136 207.66 160.36 208.844 157L206.412 155.432C205.132 159.08 203.404 163.112 202.124 165.576L204.812 167.112ZM208.364 149.8C207.276 148.808 205.004 147.624 203.18 146.92L201.516 149.096C203.34 149.896 205.58 151.24 206.636 152.2L208.364 149.8ZM216.876 143.464H223.116V145.768H216.876V143.464ZM227.34 152.744V161.64C226.06 160.232 225.388 157.544 225.26 154.248H222.188V156.136H223.82C223.852 156.488 223.884 156.84 223.916 157.16H223.34C223.18 158.888 222.54 160.776 221.196 161.928V152.744H227.34ZM213.676 154.248V156.136H215.34C215.372 156.488 215.404 156.84 215.436 157.192H214.828C214.636 159.048 213.996 161.064 212.62 162.28V152.744H218.604V161.608C217.452 160.136 216.876 157.448 216.78 154.248H213.676ZM226.028 148.296V143.464H230.828V140.808H226.028V138.12H223.116V140.808H216.876V138.12H214.028V140.808H209.484V141.48C208.364 140.456 206.22 139.208 204.524 138.472L202.86 140.584C204.588 141.48 206.796 142.92 207.788 143.944L209.484 141.704V143.464H214.028V148.296H218.604V150.216H210.092V167.464H212.62V162.44C213.004 162.696 213.516 163.208 213.74 163.592C214.828 162.632 215.532 161.352 215.948 159.944C216.364 161.352 216.908 162.472 217.644 163.272C217.868 162.984 218.252 162.6 218.604 162.312V167.208H221.196V162.216C221.58 162.504 221.996 162.984 222.22 163.304C223.34 162.408 224.044 161.192 224.492 159.816C224.94 161.224 225.548 162.376 226.316 163.208C226.508 162.888 226.956 162.472 227.34 162.184V164.808C227.34 165.128 227.244 165.256 226.86 165.256C226.508 165.256 225.356 165.256 224.172 165.224C224.492 165.832 224.78 166.792 224.908 167.432C226.764 167.432 228.044 167.432 228.908 167.08C229.74 166.664 229.996 166.024 229.996 164.808V150.216H221.196V148.296H226.028ZM238.892 145.672H260.876V150.248H263.724V143.08H258.124C259.084 142.088 260.172 140.712 261.164 139.304L258.06 138.312C257.388 139.592 256.236 141.384 255.308 142.536L256.812 143.08H251.34V138.12H248.332V143.08H243.244L244.428 142.536C243.916 141.384 242.764 139.688 241.676 138.44L239.02 139.496C239.884 140.552 240.78 141.96 241.356 143.08H236.172V150.248H238.892V145.672ZM243.884 150.184H255.852V153.224H243.884V150.184ZM251.34 164.072V160.84H261.42V158.248H251.34V155.56H258.796V147.848H241.132V155.56H248.332V158.248H238.86V160.84H248.332V164.072H236.044V166.664H263.852V164.072H251.34Z" fill="white"/>
<rect x="153" y="32" width="92.5" height="26" fill="#FDBF52"/>
<path d="M170.268 38.078C168.522 38.636 165.588 39.032 163.122 39.212C163.23 39.554 163.374 40.058 163.41 40.436C165.93 40.292 168.936 39.914 170.934 39.302L170.268 38.078ZM169.854 42.722C170.25 42.11 170.7 41.21 171.132 40.328L169.98 39.878C169.728 40.634 169.242 41.66 168.846 42.326L169.854 42.722ZM165.3 42.398C165.174 41.858 164.868 41.084 164.526 40.508L163.41 40.958C163.716 41.552 164.04 42.38 164.13 42.938L165.3 42.398ZM166.452 48.014C166.434 48.464 166.398 48.896 166.344 49.274H163.068V50.534H166.056C165.642 51.83 164.742 52.676 162.78 53.234C163.086 53.504 163.482 54.062 163.626 54.422C165.372 53.882 166.398 53.09 167.01 52.01C168.162 52.73 169.404 53.648 170.034 54.296L171.006 53.27C170.25 52.532 168.738 51.56 167.514 50.84L167.568 50.534H171.06V49.274H167.802C167.856 48.878 167.892 48.446 167.91 48.014H166.452ZM168.558 45.602C168.774 45.89 168.972 46.214 169.17 46.556L166.038 46.808C167.352 45.962 168.684 44.936 169.944 43.73L168.9 42.938C168.414 43.442 167.874 43.946 167.352 44.396L165.462 44.432C166.074 43.946 166.704 43.334 167.262 42.722L166.92 42.488L168.036 42.002C167.928 41.48 167.622 40.706 167.334 40.13L166.2 40.562C166.47 41.156 166.758 41.912 166.848 42.434L166.2 41.984C165.534 42.938 164.544 43.784 164.238 44.018C163.95 44.234 163.698 44.396 163.446 44.45C163.572 44.81 163.752 45.512 163.806 45.8C164.04 45.71 164.364 45.638 165.912 45.566C165.372 45.944 164.94 46.25 164.688 46.394C164.112 46.772 163.68 47.006 163.284 47.078C163.392 47.438 163.572 48.158 163.626 48.428C164.04 48.212 164.652 48.158 169.746 47.636C169.908 47.96 170.034 48.266 170.124 48.518L171.348 47.996C171.06 47.186 170.394 45.998 169.71 45.116L168.558 45.602ZM173.508 49.958H175.416V52.082H173.508V49.958ZM175.416 44.99H173.508V42.974H175.416V44.99ZM175.416 48.536H173.508V46.412H175.416V48.536ZM179.376 52.082H176.91V49.958H178.908V48.536H176.91V46.412H178.908V44.99H176.91V42.974H179.16V41.462H176.91L177.756 41.156C177.486 40.418 176.946 39.266 176.46 38.402L175.056 38.834C175.506 39.626 175.974 40.724 176.244 41.462H173.58C173.994 40.436 174.318 39.356 174.606 38.276L173.04 37.898C172.428 40.418 171.402 42.92 170.07 44.504C170.412 44.81 170.988 45.494 171.222 45.818C171.492 45.476 171.744 45.116 171.996 44.702V54.404H173.508V53.594H179.376V52.082ZM195.216 40.85H189.726V39.698H195.216V40.85ZM195.216 43.154H189.726V41.984H195.216V43.154ZM196.872 38.474H188.142V44.378H196.872V38.474ZM186.684 39.842C186.036 39.212 184.668 38.456 183.606 38.006L182.67 39.248C183.732 39.752 185.082 40.598 185.694 41.21L186.684 39.842ZM185.766 44.504C185.1 43.928 183.732 43.208 182.67 42.794L181.734 44.054C182.832 44.522 184.164 45.314 184.794 45.908L185.766 44.504ZM184.974 47.456C184.092 49.508 182.904 51.812 182.076 53.198L183.57 54.188C184.47 52.496 185.496 50.354 186.27 48.464L184.974 47.456ZM198.312 46.682V45.314H186.522V46.682H188.826C188.052 47.96 186.918 49.148 185.73 49.94C186.072 50.192 186.648 50.678 186.9 50.948C187.566 50.444 188.25 49.796 188.862 49.076H190.302C189.402 50.606 188.052 51.992 186.63 52.91C186.954 53.162 187.53 53.684 187.782 53.954C189.366 52.784 190.932 51.02 191.976 49.076H193.416C192.732 50.876 191.616 52.46 190.248 53.504C190.59 53.702 191.202 54.17 191.454 54.422C192.912 53.162 194.19 51.254 194.982 49.076H196.134C195.954 51.524 195.738 52.496 195.468 52.784C195.324 52.964 195.18 53 194.946 52.982C194.712 52.982 194.172 52.982 193.578 52.928C193.812 53.306 193.956 53.936 193.992 54.368C194.694 54.404 195.378 54.404 195.756 54.35C196.188 54.296 196.512 54.17 196.8 53.828C197.286 53.288 197.538 51.884 197.772 48.41C197.79 48.194 197.808 47.762 197.808 47.762H189.87C190.104 47.402 190.32 47.042 190.518 46.682H198.312ZM208.104 38.15V52.208C208.104 52.568 207.978 52.676 207.6 52.694C207.222 52.712 205.908 52.712 204.684 52.658C204.954 53.144 205.242 53.936 205.35 54.404C207.06 54.422 208.212 54.368 208.932 54.098C209.634 53.81 209.922 53.324 209.922 52.208V38.15H208.104ZM212.406 42.74C213.864 45.332 215.286 48.68 215.664 50.804L217.482 50.084C217.032 47.906 215.556 44.63 214.026 42.128L212.406 42.74ZM203.442 42.272C203.028 44.648 202.074 47.744 200.562 49.616C201.012 49.778 201.75 50.192 202.164 50.498C203.73 48.5 204.738 45.242 205.332 42.614L203.442 42.272ZM235.14 50.156C233.754 49.49 231.036 48.392 229.218 47.708L228.354 49.004C230.226 49.778 232.908 50.948 234.204 51.668L235.14 50.156ZM235.896 45.998V44.342H228.3V41.858H234.15V40.256H228.3V37.916H226.536V44.342H219.858V45.998H226.59V54.404H228.354V45.998H235.896Z" fill="#573605"/>
<path d="M185.592 288.437L182.4 288.158L182.573 286.186L185.764 286.465L185.592 288.437ZM185.303 291.737L182.111 291.457L182.287 289.449L185.479 289.728L185.303 291.737ZM185.015 295.036L181.823 294.757L182.002 292.713L185.193 292.992L185.015 295.036ZM187.515 285.245L181.114 284.685L180.127 295.964L186.529 296.524L187.515 285.245ZM181.268 296.353C180.729 297.552 179.797 298.699 178.814 299.408C179.152 299.673 179.773 300.215 180.055 300.511C181.085 299.679 182.146 298.29 182.829 296.887L181.268 296.353ZM183.69 297.161C184.347 298.122 185.026 299.446 185.313 300.302L186.794 299.691C186.506 298.853 185.784 297.597 185.106 296.67L183.69 297.161ZM196.425 289.566L194.291 289.379L194.653 285.237L193.004 285.093L192.641 289.235L187.71 288.803L187.574 290.363L191.895 290.741C190.567 293.318 188.563 295.78 186.524 296.993C186.875 297.313 187.329 297.913 187.566 298.295C189.295 297.127 190.966 295.159 192.318 292.929L191.742 299.509C191.717 299.796 191.602 299.877 191.315 299.852C191.062 299.847 190.219 299.774 189.29 299.656C189.502 300.127 189.707 300.885 189.739 301.34C191.048 301.454 191.915 301.458 192.493 301.256C193.056 301.016 193.314 300.55 193.392 299.654L194.154 290.939L196.288 291.126L196.425 289.566Z" fill="#927858"/>
<path d="M210.019 295.968L210.12 297.116L206.175 297.461L206.075 296.313L210.019 295.968ZM215.894 296.611L211.752 296.973L211.651 295.825L215.793 295.463L215.894 296.611ZM211.952 299.268L211.847 298.067L215.989 297.704L216.095 298.906L211.952 299.268ZM206.271 298.555L210.216 298.209L210.321 299.411L206.376 299.756L206.271 298.555ZM204.955 301.687L206.533 301.549L206.486 301.011L216.204 300.161L216.247 300.645L217.896 300.501L217.333 294.063L204.387 295.196L204.955 301.687ZM206.874 291.816L214.028 291.19L214.127 292.32L206.972 292.946L206.874 291.816ZM205.547 294.209L215.84 293.309L215.542 289.902L205.249 290.802L205.547 294.209ZM205.253 288.778L205.356 289.962L215.344 289.088L215.241 287.904L205.253 288.778ZM211.217 285.907C210.961 285.46 210.584 284.861 210.274 284.418L208.514 284.951C208.724 285.294 208.976 285.688 209.191 286.085L202.574 286.664L202.888 290.25L204.484 290.11L204.294 287.941L216.039 286.913L216.229 289.083L217.897 288.937L217.583 285.35L211.217 285.907Z" fill="#927858"/>
</g>
</g>
<defs>
<filter id="filter0_d_114_13297" x="-4" y="1" width="408" height="407" filterUnits="userSpaceOnUse" color-interpolation-filters="sRGB">
<feFlood flood-opacity="0" result="BackgroundImageFix"/>
<feColorMatrix in="SourceAlpha" type="matrix" values="0 0 0 0 0 0 0 0 0 0 0 0 0 0 0 0 0 0 127 0" result="hardAlpha"/>
<feOffset dy="4"/>
<feGaussianBlur stdDeviation="2"/>
<feComposite in2="hardAlpha" operator="out"/>
<feColorMatrix type="matrix" values="0 0 0 0 0 0 0 0 0 0 0 0 0 0 0 0 0 0 0.25 0"/>
<feBlend mode="normal" in2="BackgroundImageFix" result="effect1_dropShadow_114_13297"/>
<feBlend mode="normal" in="SourceGraphic" in2="effect1_dropShadow_114_13297" result="shape"/>
</filter>
<filter id="filter1_i_114_13297" x="0" y="1" width="400" height="203" filterUnits="userSpaceOnUse" color-interpolation-filters="sRGB">
<feFlood flood-opacity="0" result="BackgroundImageFix"/>
<feBlend mode="normal" in="SourceGraphic" in2="BackgroundImageFix" result="shape"/>
<feColorMatrix in="SourceAlpha" type="matrix" values="0 0 0 0 0 0 0 0 0 0 0 0 0 0 0 0 0 0 127 0" result="hardAlpha"/>
<feOffset dy="4"/>
<feGaussianBlur stdDeviation="2"/>
<feComposite in2="hardAlpha" operator="arithmetic" k2="-1" k3="1"/>
<feColorMatrix type="matrix" values="0 0 0 0 0 0 0 0 0 0 0 0 0 0 0 0 0 0 0.35 0"/>
<feBlend mode="normal" in2="shape" result="effect1_innerShadow_114_13297"/>
</filter>
<filter id="filter2_i_114_13297" x="0" y="198" width="400" height="202" filterUnits="userSpaceOnUse" color-interpolation-filters="sRGB">
<feFlood flood-opacity="0" result="BackgroundImageFix"/>
<feBlend mode="normal" in="SourceGraphic" in2="BackgroundImageFix" result="shape"/>
<feColorMatrix in="SourceAlpha" type="matrix" values="0 0 0 0 0 0 0 0 0 0 0 0 0 0 0 0 0 0 127 0" result="hardAlpha"/>
<feOffset dy="-2"/>
<feGaussianBlur stdDeviation="2"/>
<feComposite in2="hardAlpha" operator="arithmetic" k2="-1" k3="1"/>
<feColorMatrix type="matrix" values="0 0 0 0 0 0 0 0 0 0 0 0 0 0 0 0 0 0 0.25 0"/>
<feBlend mode="normal" in2="shape" result="effect1_innerShadow_114_13297"/>
</filter>
<filter id="filter3_di_114_13297" x="-8" y="200" width="416" height="158" filterUnits="userSpaceOnUse" color-interpolation-filters="sRGB">
<feFlood flood-opacity="0" result="BackgroundImageFix"/>
<feColorMatrix in="SourceAlpha" type="matrix" values="0 0 0 0 0 0 0 0 0 0 0 0 0 0 0 0 0 0 127 0" result="hardAlpha"/>
<feOffset dy="10"/>
<feGaussianBlur stdDeviation="4"/>
<feComposite in2="hardAlpha" operator="out"/>
<feColorMatrix type="matrix" values="0 0 0 0 0 0 0 0 0 0 0 0 0 0 0 0 0 0 0.25 0"/>
<feBlend mode="normal" in2="BackgroundImageFix" result="effect1_dropShadow_114_13297"/>
<feBlend mode="normal" in="SourceGraphic" in2="effect1_dropShadow_114_13297" result="shape"/>
<feColorMatrix in="SourceAlpha" type="matrix" values="0 0 0 0 0 0 0 0 0 0 0 0 0 0 0 0 0 0 127 0" result="hardAlpha"/>
<feOffset dy="3"/>
<feGaussianBlur stdDeviation="4"/>
<feComposite in2="hardAlpha" operator="arithmetic" k2="-1" k3="1"/>
<feColorMatrix type="matrix" values="0 0 0 0 0 0 0 0 0 0 0 0 0 0 0 0 0 0 0.25 0"/>
<feBlend mode="normal" in2="shape" result="effect2_innerShadow_114_13297"/>
</filter>
<clipPath id="clip0_114_13297">
<rect width="400" height="400" fill="white"/>
</clipPath>
</defs>
</svg>
