<svg width="425" height="425" viewBox="0 0 425 425" fill="none" xmlns="http://www.w3.org/2000/svg">
<g filter="url(#filter0_i_114_13357)">
<path d="M412 213C412 160.222 390.929 109.605 353.421 72.2858C315.914 34.966 265.043 14 212 14C158.957 14 108.086 34.966 70.5787 72.2857C33.0714 109.605 12 160.222 12 213L412 213Z" fill="#FDBF52"/>
</g>
<path d="M372 214C372 171.565 355.143 130.869 325.137 100.863C295.131 70.8571 254.435 54 212 54C169.565 54 128.869 70.8571 98.8629 100.863C68.8571 130.869 52 171.565 52 214" stroke="#FCDBA3" stroke-width="3"/>
<path d="M12 213C12 266.043 33.0714 316.914 70.5786 354.421C108.086 391.929 158.957 413 212 413C265.043 413 315.914 391.929 353.421 354.421C390.929 316.914 412 266.043 412 213L212 213L12 213Z" fill="#FDBF52"/>
<path d="M12 213C12 266.043 33.0714 316.914 70.5786 354.421C108.086 391.929 158.957 413 212 413C265.043 413 315.914 391.929 353.421 354.421C390.929 316.914 412 266.043 412 213L212 213L12 213Z" fill="black" fill-opacity="0.2"/>
<g filter="url(#filter1_di_114_13357)">
<path d="M12 213C12 250.13 33.0714 285.74 70.5786 311.995C108.086 338.25 158.957 353 212 353C265.043 353 315.914 338.25 353.421 311.995C390.929 285.74 412 250.13 412 213L212 213L12 213Z" fill="#FCDBA3"/>
</g>
<path d="M52 213C52 242.704 68.8571 271.192 98.8629 292.196C128.869 313.2 169.565 325 212 325C254.435 325 295.131 313.2 325.137 292.196C355.143 271.192 372 242.704 372 213" stroke="#FDBF52" stroke-width="3"/>
<path d="M162.028 131.856H166.764V135.6H162.028V131.856ZM166.764 123.024H162.028V119.568H166.764V123.024ZM166.764 129.2H162.028V125.712H166.764V129.2ZM175.564 135.6H169.516V131.856H174.348V129.2H169.516V125.712H174.348V123.024H169.516V119.568H175.18V116.88H168.716L170.732 115.952C170.316 114.672 169.388 112.848 168.46 111.376L165.964 112.464C166.764 113.808 167.596 115.6 168.012 116.88H162.7C163.468 115.28 164.14 113.648 164.684 112.112L161.772 111.312C160.844 114.512 159.02 118.448 156.844 121.328V118.672H153.228V111.568H150.38V118.672H146.508V121.488H150.38V131.088C148.812 131.696 147.372 132.272 146.22 132.688L147.404 135.664C150.284 134.384 153.964 132.688 157.42 131.056L156.78 128.4C155.596 128.912 154.38 129.424 153.228 129.872V121.488H156.716C156.396 121.872 156.108 122.224 155.788 122.544C156.364 123.12 157.132 124.208 157.58 124.848C158.156 124.208 158.7 123.536 159.244 122.8V140.592H162.028V138.352H175.564V135.6ZM188.3 120.528C190.7 119.088 192.876 117.36 194.732 115.344C196.652 117.264 199.02 119.024 201.516 120.528H188.3ZM202.956 123.28V121.328C204.556 122.192 206.156 122.96 207.724 123.504C208.172 122.736 209.1 121.552 209.772 120.912C204.972 119.504 199.596 116.464 196.46 113.328C196.748 112.944 197.004 112.528 197.292 112.112L194.508 110.864C191.468 115.568 185.676 119.088 179.724 120.912C180.46 121.648 181.292 122.8 181.708 123.664C183.308 123.088 184.844 122.384 186.348 121.616V123.28H193.036V127.152H182.476V129.84H193.036V136.976H181.004V139.696H208.46V136.976H196.204V129.84H206.924V127.152H196.204V123.28H202.956ZM200.908 136.848C201.996 135.408 203.404 133.232 204.62 131.216L201.74 130.16C201.068 131.92 199.724 134.352 198.636 135.888L200.908 136.848ZM184.908 131.12C186.06 132.912 187.308 135.312 187.756 136.816L190.348 135.696C189.836 134.192 188.556 131.856 187.34 130.16L184.908 131.12ZM225.548 128.4C224.972 127.696 222.54 125.168 221.484 124.24V122.672H224.908V121.296H242.892V119.344H235.212V117.936H241.388V116.08H235.212V114.704H242.156V112.784H235.212V111.152H232.236V112.784H225.708V114.704H232.236V116.08H226.348V117.936H232.236V119.344H224.716V119.888H221.484V115.024C222.924 114.672 224.268 114.288 225.42 113.84L223.372 111.568C221.1 112.528 217.132 113.424 213.708 113.904C214.06 114.544 214.444 115.536 214.572 116.208C215.852 116.048 217.228 115.856 218.604 115.6V119.888H213.996V122.672H218.38C217.164 126.096 215.116 130 213.164 132.24C213.644 132.944 214.316 134.16 214.636 134.992C216.012 133.232 217.42 130.576 218.604 127.76V140.464H221.484V127.28C222.412 128.528 223.372 129.904 223.82 130.736L225.548 128.4ZM238.412 126.32H229.484V124.592H238.412V126.32ZM238.412 129.904H229.484V128.144H238.412V129.904ZM238.412 133.488H229.484V131.728H238.412V133.488ZM241.196 122.672H226.796V135.408H230.188C228.652 136.656 225.74 138.032 223.244 138.736C223.852 139.248 224.684 140.08 225.132 140.656C227.692 139.856 230.828 138.32 232.748 136.816L230.54 135.408H241.196V122.672ZM235.212 136.848C237.164 138.064 239.404 139.6 240.652 140.56L243.244 139.12C241.772 138.128 239.308 136.624 237.196 135.408L235.212 136.848ZM263.308 136.432V126.928H273.42V124.016H263.308V116.08H274.732V113.168H249.132V116.08H260.076V124.016H250.572V126.928H260.076V136.432H247.66V139.312H276.236V136.432H263.308ZM265.804 129.648C267.66 131.504 270.22 134.032 271.436 135.568L273.644 133.584C272.364 132.08 269.804 129.68 267.948 127.92L265.804 129.648ZM155.308 174.832H153.676V165.072H158.476V162.448H153.676V157.168H157.868V154.544H150.7C150.956 153.456 151.244 152.304 151.468 151.216L149.068 150.672C148.46 154.064 147.436 157.584 146.028 159.856C146.668 160.144 147.724 160.848 148.204 161.232C148.812 160.112 149.388 158.704 149.932 157.168H151.34V162.448H146.476V165.072H151.34V174.832H149.612V167.248H147.436V177.392H155.308V178.256H157.516V167.216H155.308V174.832ZM161.484 171.824C163.116 169.296 164.524 166.032 165.58 162.608V171.824H161.484ZM175.372 160.048V157.264H168.396V151.184H165.58V157.264H159.052V160.048H164.012C162.604 164.688 160.268 169.392 157.644 171.888C158.284 172.432 159.212 173.456 159.692 174.192C160.236 173.584 160.716 172.944 161.228 172.208V174.512H165.58V180.496H168.396V174.512H172.3V171.824H168.396V162.96C169.772 167.312 171.724 171.408 173.996 173.904C174.476 173.136 175.468 172.112 176.14 171.568C173.58 169.104 171.244 164.56 169.932 160.048H175.372ZM183.212 180.112C184.556 177.136 186.06 173.36 187.244 170L184.812 168.432C183.532 172.08 181.804 176.112 180.524 178.576L183.212 180.112ZM186.764 162.8C185.676 161.808 183.404 160.624 181.58 159.92L179.916 162.096C181.74 162.896 183.98 164.24 185.036 165.2L186.764 162.8ZM195.276 156.464H201.516V158.768H195.276V156.464ZM205.74 165.744V174.64C204.46 173.232 203.788 170.544 203.66 167.248H200.588V169.136H202.22C202.252 169.488 202.284 169.84 202.316 170.16H201.74C201.58 171.888 200.94 173.776 199.596 174.928V165.744H205.74ZM192.076 167.248V169.136H193.74C193.772 169.488 193.804 169.84 193.836 170.192H193.228C193.036 172.048 192.396 174.064 191.02 175.28V165.744H197.004V174.608C195.852 173.136 195.276 170.448 195.18 167.248H192.076ZM204.428 161.296V156.464H209.228V153.808H204.428V151.12H201.516V153.808H195.276V151.12H192.428V153.808H187.884V154.48C186.764 153.456 184.62 152.208 182.924 151.472L181.26 153.584C182.988 154.48 185.196 155.92 186.188 156.944L187.884 154.704V156.464H192.428V161.296H197.004V163.216H188.492V180.464H191.02V175.44C191.404 175.696 191.916 176.208 192.14 176.592C193.228 175.632 193.932 174.352 194.348 172.944C194.764 174.352 195.308 175.472 196.044 176.272C196.268 175.984 196.652 175.6 197.004 175.312V180.208H199.596V175.216C199.98 175.504 200.396 175.984 200.62 176.304C201.74 175.408 202.444 174.192 202.892 172.816C203.34 174.224 203.948 175.376 204.716 176.208C204.908 175.888 205.356 175.472 205.74 175.184V177.808C205.74 178.128 205.644 178.256 205.26 178.256C204.908 178.256 203.756 178.256 202.572 178.224C202.892 178.832 203.18 179.792 203.308 180.432C205.164 180.432 206.444 180.432 207.308 180.08C208.14 179.664 208.396 179.024 208.396 177.808V163.216H199.596V161.296H204.428ZM220.204 160.4H224.364C223.5 163.248 221.516 165.168 215.98 166.224C216.556 166.768 217.228 167.92 217.516 168.592C224.012 167.12 226.316 164.432 227.34 160.4H233.772C233.516 163.344 233.164 164.656 232.716 165.104C232.396 165.36 232.044 165.392 231.532 165.392C230.892 165.392 229.292 165.36 227.692 165.232C228.172 165.936 228.492 166.992 228.556 167.76C230.284 167.856 231.916 167.856 232.812 167.76C233.804 167.696 234.54 167.504 235.18 166.864C236.012 166.032 236.46 163.952 236.876 159.024L236.94 158.096C238.444 158.896 240.076 159.536 241.772 160.048C242.092 159.216 242.732 157.968 243.212 157.328C239.052 156.464 235.116 154.416 233.58 151.728H226.988V154.352H232.076C233.228 155.664 234.764 156.88 236.556 157.872H220.332C222.252 156.624 223.98 155.056 225.132 153.264L222.572 151.76C220.716 154.8 217.004 157.04 213.42 158.256C214.028 158.832 214.796 159.824 215.148 160.432C216.844 159.824 218.604 158.992 220.204 157.968V160.4ZM220.236 171.376H223.724V177.04H220.236V171.376ZM229.996 171.376V177.04H226.444V171.376H229.996ZM236.3 171.376V177.04H232.716V171.376H236.3ZM239.212 169.04H217.452V177.04H213.868V179.632H242.764V177.04H239.212V169.04ZM261.74 159.856C261.324 160.912 260.844 161.872 260.204 162.704C259.116 162.064 257.964 161.456 256.908 160.976L255.18 162.576C256.3 163.088 257.452 163.696 258.572 164.4C257.324 165.456 255.788 166.256 254.06 166.768C254.572 167.184 255.404 168.208 255.756 168.784C257.644 168.08 259.34 167.152 260.716 165.84C261.932 166.672 262.988 167.536 263.788 168.336L265.548 166.512C264.716 165.776 263.596 164.912 262.284 164.016C263.436 162.416 264.268 160.432 264.844 157.968L263.308 157.488L262.86 157.52H256.236C256.396 156.72 256.556 155.952 256.684 155.088H266.828C266.38 157.104 265.868 159.184 265.452 160.688H271.98C271.628 163.696 271.276 165.04 270.796 165.488C270.508 165.744 270.188 165.744 269.676 165.744C269.068 165.744 267.596 165.744 266.092 165.616C266.572 166.32 266.892 167.376 266.988 168.144C268.556 168.208 270.06 168.24 270.924 168.144C271.884 168.08 272.556 167.888 273.164 167.248C274.06 166.416 274.476 164.304 274.956 159.344C275.02 158.96 275.052 158.224 275.052 158.224H268.908C269.324 156.432 269.804 154.416 270.188 152.624H248.492V155.088H253.804C252.94 160.624 250.956 164.816 247.084 167.344C247.724 167.76 248.876 168.848 249.292 169.36C252.3 167.088 254.348 163.952 255.596 159.856H261.74ZM253.74 171.856H257.292V177.04H253.74V171.856ZM263.596 171.856V177.04H260.012V171.856H263.596ZM269.964 171.856V177.04H266.316V171.856H269.964ZM272.876 177.04V169.488H250.956V177.04H247.468V179.632H276.364V177.04H272.876Z" fill="white"/>
<rect x="165" y="45" width="92.5" height="26" fill="#FDBF52"/>
<path d="M182.268 51.078C180.522 51.636 177.588 52.032 175.122 52.212C175.23 52.554 175.374 53.058 175.41 53.436C177.93 53.292 180.936 52.914 182.934 52.302L182.268 51.078ZM181.854 55.722C182.25 55.11 182.7 54.21 183.132 53.328L181.98 52.878C181.728 53.634 181.242 54.66 180.846 55.326L181.854 55.722ZM177.3 55.398C177.174 54.858 176.868 54.084 176.526 53.508L175.41 53.958C175.716 54.552 176.04 55.38 176.13 55.938L177.3 55.398ZM178.452 61.014C178.434 61.464 178.398 61.896 178.344 62.274H175.068V63.534H178.056C177.642 64.83 176.742 65.676 174.78 66.234C175.086 66.504 175.482 67.062 175.626 67.422C177.372 66.882 178.398 66.09 179.01 65.01C180.162 65.73 181.404 66.648 182.034 67.296L183.006 66.27C182.25 65.532 180.738 64.56 179.514 63.84L179.568 63.534H183.06V62.274H179.802C179.856 61.878 179.892 61.446 179.91 61.014H178.452ZM180.558 58.602C180.774 58.89 180.972 59.214 181.17 59.556L178.038 59.808C179.352 58.962 180.684 57.936 181.944 56.73L180.9 55.938C180.414 56.442 179.874 56.946 179.352 57.396L177.462 57.432C178.074 56.946 178.704 56.334 179.262 55.722L178.92 55.488L180.036 55.002C179.928 54.48 179.622 53.706 179.334 53.13L178.2 53.562C178.47 54.156 178.758 54.912 178.848 55.434L178.2 54.984C177.534 55.938 176.544 56.784 176.238 57.018C175.95 57.234 175.698 57.396 175.446 57.45C175.572 57.81 175.752 58.512 175.806 58.8C176.04 58.71 176.364 58.638 177.912 58.566C177.372 58.944 176.94 59.25 176.688 59.394C176.112 59.772 175.68 60.006 175.284 60.078C175.392 60.438 175.572 61.158 175.626 61.428C176.04 61.212 176.652 61.158 181.746 60.636C181.908 60.96 182.034 61.266 182.124 61.518L183.348 60.996C183.06 60.186 182.394 58.998 181.71 58.116L180.558 58.602ZM185.508 62.958H187.416V65.082H185.508V62.958ZM187.416 57.99H185.508V55.974H187.416V57.99ZM187.416 61.536H185.508V59.412H187.416V61.536ZM191.376 65.082H188.91V62.958H190.908V61.536H188.91V59.412H190.908V57.99H188.91V55.974H191.16V54.462H188.91L189.756 54.156C189.486 53.418 188.946 52.266 188.46 51.402L187.056 51.834C187.506 52.626 187.974 53.724 188.244 54.462H185.58C185.994 53.436 186.318 52.356 186.606 51.276L185.04 50.898C184.428 53.418 183.402 55.92 182.07 57.504C182.412 57.81 182.988 58.494 183.222 58.818C183.492 58.476 183.744 58.116 183.996 57.702V67.404H185.508V66.594H191.376V65.082ZM207.216 53.85H201.726V52.698H207.216V53.85ZM207.216 56.154H201.726V54.984H207.216V56.154ZM208.872 51.474H200.142V57.378H208.872V51.474ZM198.684 52.842C198.036 52.212 196.668 51.456 195.606 51.006L194.67 52.248C195.732 52.752 197.082 53.598 197.694 54.21L198.684 52.842ZM197.766 57.504C197.1 56.928 195.732 56.208 194.67 55.794L193.734 57.054C194.832 57.522 196.164 58.314 196.794 58.908L197.766 57.504ZM196.974 60.456C196.092 62.508 194.904 64.812 194.076 66.198L195.57 67.188C196.47 65.496 197.496 63.354 198.27 61.464L196.974 60.456ZM210.312 59.682V58.314H198.522V59.682H200.826C200.052 60.96 198.918 62.148 197.73 62.94C198.072 63.192 198.648 63.678 198.9 63.948C199.566 63.444 200.25 62.796 200.862 62.076H202.302C201.402 63.606 200.052 64.992 198.63 65.91C198.954 66.162 199.53 66.684 199.782 66.954C201.366 65.784 202.932 64.02 203.976 62.076H205.416C204.732 63.876 203.616 65.46 202.248 66.504C202.59 66.702 203.202 67.17 203.454 67.422C204.912 66.162 206.19 64.254 206.982 62.076H208.134C207.954 64.524 207.738 65.496 207.468 65.784C207.324 65.964 207.18 66 206.946 65.982C206.712 65.982 206.172 65.982 205.578 65.928C205.812 66.306 205.956 66.936 205.992 67.368C206.694 67.404 207.378 67.404 207.756 67.35C208.188 67.296 208.512 67.17 208.8 66.828C209.286 66.288 209.538 64.884 209.772 61.41C209.79 61.194 209.808 60.762 209.808 60.762H201.87C202.104 60.402 202.32 60.042 202.518 59.682H210.312ZM220.104 51.15V65.208C220.104 65.568 219.978 65.676 219.6 65.694C219.222 65.712 217.908 65.712 216.684 65.658C216.954 66.144 217.242 66.936 217.35 67.404C219.06 67.422 220.212 67.368 220.932 67.098C221.634 66.81 221.922 66.324 221.922 65.208V51.15H220.104ZM224.406 55.74C225.864 58.332 227.286 61.68 227.664 63.804L229.482 63.084C229.032 60.906 227.556 57.63 226.026 55.128L224.406 55.74ZM215.442 55.272C215.028 57.648 214.074 60.744 212.562 62.616C213.012 62.778 213.75 63.192 214.164 63.498C215.73 61.5 216.738 58.242 217.332 55.614L215.442 55.272ZM247.14 63.156C245.754 62.49 243.036 61.392 241.218 60.708L240.354 62.004C242.226 62.778 244.908 63.948 246.204 64.668L247.14 63.156ZM247.896 58.998V57.342H240.3V54.858H246.15V53.256H240.3V50.916H238.536V57.342H231.858V58.998H238.59V67.404H240.354V58.998H247.896Z" fill="#573605"/>
<path d="M197.592 301.437L194.4 301.158L194.573 299.186L197.764 299.465L197.592 301.437ZM197.303 304.737L194.111 304.457L194.287 302.449L197.479 302.728L197.303 304.737ZM197.015 308.036L193.823 307.757L194.002 305.713L197.193 305.992L197.015 308.036ZM199.515 298.245L193.114 297.685L192.127 308.964L198.529 309.524L199.515 298.245ZM193.268 309.353C192.729 310.552 191.797 311.699 190.814 312.408C191.152 312.673 191.773 313.215 192.055 313.511C193.085 312.679 194.146 311.29 194.829 309.887L193.268 309.353ZM195.69 310.161C196.347 311.122 197.026 312.446 197.313 313.302L198.794 312.691C198.506 311.853 197.784 310.597 197.106 309.67L195.69 310.161ZM208.425 302.566L206.291 302.379L206.653 298.237L205.004 298.093L204.641 302.235L199.71 301.803L199.574 303.363L203.895 303.741C202.567 306.318 200.563 308.78 198.524 309.993C198.875 310.313 199.329 310.913 199.566 311.295C201.295 310.127 202.966 308.159 204.318 305.929L203.742 312.509C203.717 312.796 203.602 312.877 203.315 312.852C203.062 312.847 202.219 312.774 201.29 312.656C201.502 313.127 201.707 313.885 201.739 314.34C203.048 314.454 203.915 314.458 204.493 314.256C205.056 314.016 205.314 313.55 205.392 312.654L206.154 303.939L208.288 304.126L208.425 302.566Z" fill="#927858"/>
<path d="M222.019 308.968L222.12 310.116L218.175 310.461L218.075 309.313L222.019 308.968ZM227.894 309.611L223.752 309.973L223.651 308.825L227.793 308.463L227.894 309.611ZM223.952 312.268L223.847 311.067L227.989 310.704L228.095 311.906L223.952 312.268ZM218.271 311.555L222.216 311.209L222.321 312.411L218.376 312.756L218.271 311.555ZM216.955 314.687L218.533 314.549L218.486 314.011L228.204 313.161L228.247 313.645L229.896 313.501L229.333 307.063L216.387 308.196L216.955 314.687ZM218.874 304.816L226.028 304.19L226.127 305.32L218.972 305.946L218.874 304.816ZM217.547 307.209L227.84 306.309L227.542 302.902L217.249 303.802L217.547 307.209ZM217.253 301.778L217.356 302.962L227.344 302.088L227.241 300.904L217.253 301.778ZM223.217 298.907C222.961 298.46 222.584 297.861 222.274 297.418L220.514 297.951C220.724 298.294 220.976 298.688 221.191 299.085L214.574 299.664L214.888 303.25L216.484 303.11L216.294 300.941L228.039 299.913L228.229 302.083L229.897 301.937L229.583 298.35L223.217 298.907Z" fill="#927858"/>
<defs>
<filter id="filter0_i_114_13357" x="12" y="14" width="400" height="203" filterUnits="userSpaceOnUse" color-interpolation-filters="sRGB">
<feFlood flood-opacity="0" result="BackgroundImageFix"/>
<feBlend mode="normal" in="SourceGraphic" in2="BackgroundImageFix" result="shape"/>
<feColorMatrix in="SourceAlpha" type="matrix" values="0 0 0 0 0 0 0 0 0 0 0 0 0 0 0 0 0 0 127 0" result="hardAlpha"/>
<feOffset dy="4"/>
<feGaussianBlur stdDeviation="2"/>
<feComposite in2="hardAlpha" operator="arithmetic" k2="-1" k3="1"/>
<feColorMatrix type="matrix" values="0 0 0 0 0 0 0 0 0 0 0 0 0 0 0 0 0 0 0.35 0"/>
<feBlend mode="normal" in2="shape" result="effect1_innerShadow_114_13357"/>
</filter>
<filter id="filter1_di_114_13357" x="8" y="213" width="408" height="148" filterUnits="userSpaceOnUse" color-interpolation-filters="sRGB">
<feFlood flood-opacity="0" result="BackgroundImageFix"/>
<feColorMatrix in="SourceAlpha" type="matrix" values="0 0 0 0 0 0 0 0 0 0 0 0 0 0 0 0 0 0 127 0" result="hardAlpha"/>
<feOffset dy="4"/>
<feGaussianBlur stdDeviation="2"/>
<feComposite in2="hardAlpha" operator="out"/>
<feColorMatrix type="matrix" values="0 0 0 0 0 0 0 0 0 0 0 0 0 0 0 0 0 0 0.25 0"/>
<feBlend mode="normal" in2="BackgroundImageFix" result="effect1_dropShadow_114_13357"/>
<feBlend mode="normal" in="SourceGraphic" in2="effect1_dropShadow_114_13357" result="shape"/>
<feColorMatrix in="SourceAlpha" type="matrix" values="0 0 0 0 0 0 0 0 0 0 0 0 0 0 0 0 0 0 127 0" result="hardAlpha"/>
<feOffset dy="3"/>
<feGaussianBlur stdDeviation="4"/>
<feComposite in2="hardAlpha" operator="arithmetic" k2="-1" k3="1"/>
<feColorMatrix type="matrix" values="0 0 0 0 0 0 0 0 0 0 0 0 0 0 0 0 0 0 0.25 0"/>
<feBlend mode="normal" in2="shape" result="effect2_innerShadow_114_13357"/>
</filter>
</defs>
</svg>
