<svg width="425" height="425" viewBox="0 0 425 425" fill="none" xmlns="http://www.w3.org/2000/svg">
<g filter="url(#filter0_i_114_12904)">
<path d="M412 213C412 160.222 390.929 109.605 353.421 72.2858C315.914 34.966 265.043 14 212 14C158.957 14 108.086 34.966 70.5787 72.2857C33.0714 109.605 12 160.222 12 213L412 213Z" fill="#FDBF52"/>
</g>
<path d="M372 214C372 171.565 355.143 130.869 325.137 100.863C295.131 70.8571 254.435 54 212 54C169.565 54 128.869 70.8571 98.8629 100.863C68.8571 130.869 52 171.565 52 214" stroke="#FCDBA3" stroke-width="3"/>
<path d="M12 213C12 266.043 33.0714 316.914 70.5786 354.421C108.086 391.929 158.957 413 212 413C265.043 413 315.914 391.929 353.421 354.421C390.929 316.914 412 266.043 412 213L212 213L12 213Z" fill="#FDBF52"/>
<path d="M12 213C12 266.043 33.0714 316.914 70.5786 354.421C108.086 391.929 158.957 413 212 413C265.043 413 315.914 391.929 353.421 354.421C390.929 316.914 412 266.043 412 213L212 213L12 213Z" fill="black" fill-opacity="0.2"/>
<g filter="url(#filter1_di_114_12904)">
<path d="M12 213C12 250.13 33.0714 285.74 70.5786 311.995C108.086 338.25 158.957 353 212 353C265.043 353 315.914 338.25 353.421 311.995C390.929 285.74 412 250.13 412 213L212 213L12 213Z" fill="#FCDBA3"/>
</g>
<path d="M52 213C52 242.704 68.8571 271.192 98.8629 292.196C128.869 313.2 169.565 325 212 325C254.435 325 295.131 313.2 325.137 292.196C355.143 271.192 372 242.704 372 213" stroke="#FDBF52" stroke-width="3"/>
<path d="M169.292 133.552H162.476V131.568H169.292V133.552ZM162.476 127.408H169.292V129.232H162.476V127.408ZM153.452 121.424V119.504H159.468V121.424H153.452ZM168.78 119.504V121.424H162.476V119.504H168.78ZM175.628 129.232H172.3V125.296H162.476V123.408H171.788V117.52H162.476V115.888H174.956V113.488H162.476V111.152H159.468V113.488H147.34V115.888H159.468V117.52H150.604V123.408H159.468V125.296H149.772V127.408H159.468V129.232H146.668V131.568H159.468V133.552H149.484V135.792H159.468V137.488C159.468 138.032 159.276 138.192 158.7 138.224C158.188 138.256 156.268 138.256 154.508 138.192C154.924 138.832 155.372 139.92 155.532 140.592C158.22 140.592 159.884 140.56 160.972 140.176C162.06 139.76 162.476 139.088 162.476 137.456V135.792H169.292V137.168H172.3V131.568H175.628V129.232ZM189.804 134.448C187.756 135.76 183.884 136.944 180.652 137.424C181.26 137.968 182.028 138.96 182.444 139.6C185.74 138.864 189.74 137.2 191.98 135.472L189.804 134.448ZM197.868 135.76C200.78 136.88 204.684 138.576 206.668 139.568L208.652 137.84C206.508 136.816 202.604 135.28 199.788 134.256L197.868 135.76ZM199.564 118.992C199.116 119.824 198.38 121.04 197.772 121.84L198.924 122.192H190.188L191.628 121.808C191.372 121.072 190.764 119.888 190.124 118.992H199.564ZM196.108 130.608V128.688H205.932V126.448H196.108V124.528H207.436V122.192H200.652C201.292 121.456 202.028 120.592 202.732 119.632L200.236 118.992H208.62V116.624H204.044C204.876 115.44 205.836 113.84 206.7 112.272L203.628 111.472C203.148 112.912 202.156 114.928 201.388 116.208L202.636 116.624H199.148V111.12H196.332V116.624H193.164V111.12H190.38V116.624H186.796L188.492 115.984C188.044 114.736 186.924 112.784 185.932 111.408L183.34 112.304C184.236 113.616 185.196 115.376 185.676 116.624H180.908V118.992H189.068L187.212 119.44C187.756 120.272 188.3 121.392 188.62 122.192H182.188V124.528H193.196V126.448H183.756V128.688H193.196V130.608H180.78V133.104H193.196V140.528H196.108V133.104H208.716V130.608H196.108ZM235.724 126.512H223.244V123.76H235.724V126.512ZM223.148 131.792C223.212 131.024 223.244 130.256 223.244 129.552V129.008H235.724V131.792H223.148ZM242.316 117.936V115.152H226.38C226.828 114.064 227.18 112.944 227.532 111.856L224.492 111.152C224.14 112.464 223.692 113.808 223.148 115.152H214.38V117.936H221.9C219.916 121.776 217.196 125.328 213.676 127.696C214.284 128.272 215.18 129.328 215.628 130C217.356 128.784 218.892 127.344 220.268 125.712V129.488C220.268 132.464 220.012 135.952 217.324 138.416C217.9 138.832 219.084 140.08 219.468 140.752C221.356 139.024 222.348 136.688 222.828 134.288H235.724V137.04C235.724 137.52 235.564 137.68 235.02 137.68C234.476 137.712 232.556 137.712 230.668 137.616C231.052 138.416 231.5 139.696 231.596 140.496C234.252 140.496 236.044 140.496 237.164 140.016C238.316 139.568 238.636 138.672 238.636 137.072V121.136H223.5C224.108 120.112 224.652 119.024 225.196 117.936H242.316ZM271.468 121.328C270.54 124.272 269.356 126.928 267.82 129.296C267.084 126.448 266.572 122.992 266.252 119.184H276.3V116.272H273.036L274.572 114.64C273.324 113.552 270.924 112.08 269.036 111.088L267.244 112.912C268.94 113.84 271.02 115.216 272.268 116.272H266.092C265.996 114.608 265.964 112.912 265.996 111.184H262.86C262.86 112.88 262.924 114.608 263.02 116.272H249.868V125.328C249.868 129.456 249.644 134.96 247.084 138.8C247.756 139.184 249.068 140.24 249.58 140.848C252.396 136.72 252.94 130.32 252.972 125.776H258.092C257.996 130.608 257.804 132.432 257.452 132.88C257.228 133.168 256.908 133.264 256.46 133.264C255.948 133.264 254.7 133.232 253.388 133.104C253.836 133.872 254.124 135.024 254.188 135.888C255.724 135.952 257.164 135.952 257.964 135.824C258.828 135.728 259.436 135.472 260.012 134.8C260.684 133.904 260.844 131.152 261.004 124.208V123.056H252.972V119.184H263.212C263.596 124.176 264.332 128.752 265.484 132.368C263.532 134.64 261.164 136.496 258.508 137.968C259.18 138.512 260.236 139.76 260.684 140.4C262.892 139.056 264.908 137.424 266.732 135.504C268.172 138.512 270.028 140.304 272.364 140.304C274.988 140.304 276.076 138.8 276.556 133.168C275.756 132.88 274.7 132.208 273.996 131.504C273.804 135.632 273.42 137.264 272.588 137.264C271.244 137.264 269.996 135.6 268.908 132.88C271.244 129.808 273.132 126.192 274.476 122.064L271.468 121.328ZM154.22 173.424C154.284 172.784 154.316 172.112 154.316 171.504H168.012V173.424H154.22ZM168.012 167.568V169.456H154.316V167.568H168.012ZM171.052 165.328H151.404V171.024C151.404 173.456 151.212 176.528 149.42 178.736C150.06 179.152 151.276 180.304 151.692 180.912C152.94 179.408 153.612 177.424 153.964 175.44H168.012V177.456C168.012 177.936 167.852 178.064 167.308 178.096C166.828 178.096 164.844 178.096 163.084 178.032C163.436 178.704 163.852 179.728 163.98 180.432C166.604 180.432 168.396 180.432 169.548 180.048C170.668 179.664 171.052 178.96 171.052 177.488V165.328ZM162.508 161.328V159.344H172.076V157.168H162.508V155.376H173.42V153.072H162.508V151.152H159.5V153.072H149.068V155.376H159.5V157.168H150.22V159.344H159.5V161.328H147.116V163.632H175.084V161.328H162.508ZM183.724 157.68H193.196V166.352H196.108V157.68H205.612V162.384H208.364V155.696H196.108V154.256H206.316V152.048H183.052V154.256H193.196V155.696H181.068V162.384H183.724V157.68ZM184.524 167.152C186.764 166.32 189.484 165.232 192.108 164.176L191.756 162.16C188.716 163.184 185.612 164.176 183.5 164.784L184.524 167.152ZM184.684 159.76C186.732 160.368 189.452 161.456 190.86 162.128L191.948 160.272C190.508 159.632 187.756 158.64 185.772 158.096L184.684 159.76ZM205.292 167.728H184.14V169.936H205.292V167.728ZM197.196 164.016C199.788 164.848 203.276 166.16 205.068 167.024L206.028 165.008C204.172 164.112 200.652 162.928 198.156 162.192L197.196 164.016ZM203.596 158.16C201.932 158.896 199.02 160.016 197.068 160.496L198.22 162.16C200.172 161.68 202.956 160.912 204.972 159.984L203.596 158.16ZM188.364 177.328C189.644 176.368 190.924 175.248 192.14 174.096H199.788L198.38 174.736C199.244 175.344 200.172 176.112 201.068 176.88L188.364 177.328ZM208.972 171.792H180.46V174.096H188.14C186.956 175.216 185.804 176.144 185.292 176.432C184.588 176.976 184.012 177.328 183.436 177.424C183.788 178.192 184.236 179.632 184.396 180.24C185.58 179.824 187.308 179.792 203.436 179.056C204.044 179.664 204.588 180.208 204.94 180.688L207.628 179.408C206.252 177.904 203.66 175.728 201.484 174.096H208.972V171.792ZM221.132 174.384H235.532V176.752H221.132V174.384ZM235.532 160.976V163.216H221.132V160.976H235.532ZM235.532 167.6H221.132V165.456H235.532V167.6ZM221.132 169.84H235.532V172.144H221.132V169.84ZM238.54 176.752V158.512H228.588C228.748 157.808 228.908 157.104 229.036 156.336H241.868V153.712H229.516L229.932 151.408L226.636 151.12C226.572 151.888 226.508 152.816 226.38 153.712H214.764V156.336H226.06C225.964 157.104 225.836 157.84 225.708 158.512H218.252V176.752H213.9V179.472H242.764V176.752H238.54ZM262.476 175.984V164.08H274.028V161.104H262.476V151.6H259.276V175.984H247.596V178.992H276.236V175.984H262.476Z" fill="white"/>
<rect x="165" y="45" width="92.5" height="26" fill="#FDBF52"/>
<path d="M182.268 51.078C180.522 51.636 177.588 52.032 175.122 52.212C175.23 52.554 175.374 53.058 175.41 53.436C177.93 53.292 180.936 52.914 182.934 52.302L182.268 51.078ZM181.854 55.722C182.25 55.11 182.7 54.21 183.132 53.328L181.98 52.878C181.728 53.634 181.242 54.66 180.846 55.326L181.854 55.722ZM177.3 55.398C177.174 54.858 176.868 54.084 176.526 53.508L175.41 53.958C175.716 54.552 176.04 55.38 176.13 55.938L177.3 55.398ZM178.452 61.014C178.434 61.464 178.398 61.896 178.344 62.274H175.068V63.534H178.056C177.642 64.83 176.742 65.676 174.78 66.234C175.086 66.504 175.482 67.062 175.626 67.422C177.372 66.882 178.398 66.09 179.01 65.01C180.162 65.73 181.404 66.648 182.034 67.296L183.006 66.27C182.25 65.532 180.738 64.56 179.514 63.84L179.568 63.534H183.06V62.274H179.802C179.856 61.878 179.892 61.446 179.91 61.014H178.452ZM180.558 58.602C180.774 58.89 180.972 59.214 181.17 59.556L178.038 59.808C179.352 58.962 180.684 57.936 181.944 56.73L180.9 55.938C180.414 56.442 179.874 56.946 179.352 57.396L177.462 57.432C178.074 56.946 178.704 56.334 179.262 55.722L178.92 55.488L180.036 55.002C179.928 54.48 179.622 53.706 179.334 53.13L178.2 53.562C178.47 54.156 178.758 54.912 178.848 55.434L178.2 54.984C177.534 55.938 176.544 56.784 176.238 57.018C175.95 57.234 175.698 57.396 175.446 57.45C175.572 57.81 175.752 58.512 175.806 58.8C176.04 58.71 176.364 58.638 177.912 58.566C177.372 58.944 176.94 59.25 176.688 59.394C176.112 59.772 175.68 60.006 175.284 60.078C175.392 60.438 175.572 61.158 175.626 61.428C176.04 61.212 176.652 61.158 181.746 60.636C181.908 60.96 182.034 61.266 182.124 61.518L183.348 60.996C183.06 60.186 182.394 58.998 181.71 58.116L180.558 58.602ZM185.508 62.958H187.416V65.082H185.508V62.958ZM187.416 57.99H185.508V55.974H187.416V57.99ZM187.416 61.536H185.508V59.412H187.416V61.536ZM191.376 65.082H188.91V62.958H190.908V61.536H188.91V59.412H190.908V57.99H188.91V55.974H191.16V54.462H188.91L189.756 54.156C189.486 53.418 188.946 52.266 188.46 51.402L187.056 51.834C187.506 52.626 187.974 53.724 188.244 54.462H185.58C185.994 53.436 186.318 52.356 186.606 51.276L185.04 50.898C184.428 53.418 183.402 55.92 182.07 57.504C182.412 57.81 182.988 58.494 183.222 58.818C183.492 58.476 183.744 58.116 183.996 57.702V67.404H185.508V66.594H191.376V65.082ZM207.216 53.85H201.726V52.698H207.216V53.85ZM207.216 56.154H201.726V54.984H207.216V56.154ZM208.872 51.474H200.142V57.378H208.872V51.474ZM198.684 52.842C198.036 52.212 196.668 51.456 195.606 51.006L194.67 52.248C195.732 52.752 197.082 53.598 197.694 54.21L198.684 52.842ZM197.766 57.504C197.1 56.928 195.732 56.208 194.67 55.794L193.734 57.054C194.832 57.522 196.164 58.314 196.794 58.908L197.766 57.504ZM196.974 60.456C196.092 62.508 194.904 64.812 194.076 66.198L195.57 67.188C196.47 65.496 197.496 63.354 198.27 61.464L196.974 60.456ZM210.312 59.682V58.314H198.522V59.682H200.826C200.052 60.96 198.918 62.148 197.73 62.94C198.072 63.192 198.648 63.678 198.9 63.948C199.566 63.444 200.25 62.796 200.862 62.076H202.302C201.402 63.606 200.052 64.992 198.63 65.91C198.954 66.162 199.53 66.684 199.782 66.954C201.366 65.784 202.932 64.02 203.976 62.076H205.416C204.732 63.876 203.616 65.46 202.248 66.504C202.59 66.702 203.202 67.17 203.454 67.422C204.912 66.162 206.19 64.254 206.982 62.076H208.134C207.954 64.524 207.738 65.496 207.468 65.784C207.324 65.964 207.18 66 206.946 65.982C206.712 65.982 206.172 65.982 205.578 65.928C205.812 66.306 205.956 66.936 205.992 67.368C206.694 67.404 207.378 67.404 207.756 67.35C208.188 67.296 208.512 67.17 208.8 66.828C209.286 66.288 209.538 64.884 209.772 61.41C209.79 61.194 209.808 60.762 209.808 60.762H201.87C202.104 60.402 202.32 60.042 202.518 59.682H210.312ZM220.104 51.15V65.208C220.104 65.568 219.978 65.676 219.6 65.694C219.222 65.712 217.908 65.712 216.684 65.658C216.954 66.144 217.242 66.936 217.35 67.404C219.06 67.422 220.212 67.368 220.932 67.098C221.634 66.81 221.922 66.324 221.922 65.208V51.15H220.104ZM224.406 55.74C225.864 58.332 227.286 61.68 227.664 63.804L229.482 63.084C229.032 60.906 227.556 57.63 226.026 55.128L224.406 55.74ZM215.442 55.272C215.028 57.648 214.074 60.744 212.562 62.616C213.012 62.778 213.75 63.192 214.164 63.498C215.73 61.5 216.738 58.242 217.332 55.614L215.442 55.272ZM247.14 63.156C245.754 62.49 243.036 61.392 241.218 60.708L240.354 62.004C242.226 62.778 244.908 63.948 246.204 64.668L247.14 63.156ZM247.896 58.998V57.342H240.3V54.858H246.15V53.256H240.3V50.916H238.536V57.342H231.858V58.998H238.59V67.404H240.354V58.998H247.896Z" fill="#573605"/>
<path d="M204.018 310.6L200.199 310.266L200.296 309.154L204.115 309.488L204.018 310.6ZM200.5 306.823L204.319 307.157L204.23 308.179L200.411 307.845L200.5 306.823ZM195.737 303.028L195.831 301.952L199.202 302.247L199.108 303.323L195.737 303.028ZM204.42 302.703L204.326 303.779L200.793 303.47L200.887 302.394L204.42 302.703ZM207.78 308.49L205.916 308.327L206.108 306.121L200.604 305.64L200.696 304.582L205.914 305.038L206.203 301.739L200.985 301.282L201.065 300.368L208.058 300.98L208.176 299.635L201.182 299.023L201.297 297.714L199.611 297.567L199.497 298.876L192.701 298.281L192.583 299.626L199.379 300.22L199.299 301.135L194.332 300.7L194.043 304L199.011 304.434L198.918 305.492L193.485 305.017L193.381 306.2L198.814 306.676L198.725 307.698L191.552 307.07L191.438 308.379L198.61 309.007L198.513 310.119L192.919 309.629L192.809 310.884L198.403 311.374L198.32 312.324C198.294 312.629 198.178 312.709 197.854 312.699C197.565 312.692 196.489 312.598 195.506 312.475C195.708 312.855 195.906 313.486 195.963 313.871C197.469 314.002 198.403 314.066 199.031 313.904C199.661 313.724 199.927 313.368 200.007 312.454L200.089 311.521L203.908 311.855L203.841 312.626L205.526 312.774L205.801 309.636L207.666 309.799L207.78 308.49Z" fill="#927858"/>
<path d="M220.331 310.941C219.248 311.776 217.136 312.63 215.349 313.057C215.716 313.332 216.195 313.85 216.46 314.189C218.271 313.615 220.43 312.486 221.601 311.408L220.331 310.941ZM224.915 311.281C226.601 311.765 228.872 312.524 230.032 312.983L231.059 311.917C229.808 311.449 227.545 310.779 225.917 310.344L224.915 311.281ZM225.043 301.801C224.833 302.29 224.48 303.007 224.178 303.485L224.841 303.626L219.946 304.054L220.734 303.768C220.554 303.368 220.156 302.735 219.753 302.264L225.043 301.801ZM223.676 308.48L223.582 307.404L229.087 306.922L228.977 305.667L223.472 306.149L223.378 305.073L229.725 304.518L229.611 303.209L225.809 303.541C226.132 303.097 226.502 302.577 226.849 302.005L225.419 301.768L230.117 301.357L230.001 300.03L227.437 300.255C227.845 299.551 228.305 298.607 228.712 297.686L226.951 297.388C226.753 298.219 226.296 299.397 225.928 300.152L226.648 300.324L224.694 300.495L224.424 297.411L222.846 297.549L223.116 300.633L221.34 300.788L221.071 297.704L219.511 297.84L219.78 300.925L217.772 301.1L218.691 300.659C218.379 299.981 217.656 298.942 217.032 298.22L215.624 298.849C216.19 299.54 216.814 300.479 217.144 301.155L214.473 301.389L214.589 302.716L219.161 302.316L218.143 302.658C218.489 303.097 218.849 303.698 219.067 304.131L215.463 304.446L215.577 305.755L221.746 305.216L221.84 306.292L216.55 306.754L216.66 308.01L221.95 307.547L222.044 308.623L215.087 309.231L215.209 310.63L222.166 310.021L222.53 314.181L224.162 314.039L223.798 309.879L230.863 309.26L230.741 307.862L223.676 308.48Z" fill="#927858"/>
<defs>
<filter id="filter0_i_114_12904" x="12" y="14" width="400" height="203" filterUnits="userSpaceOnUse" color-interpolation-filters="sRGB">
<feFlood flood-opacity="0" result="BackgroundImageFix"/>
<feBlend mode="normal" in="SourceGraphic" in2="BackgroundImageFix" result="shape"/>
<feColorMatrix in="SourceAlpha" type="matrix" values="0 0 0 0 0 0 0 0 0 0 0 0 0 0 0 0 0 0 127 0" result="hardAlpha"/>
<feOffset dy="4"/>
<feGaussianBlur stdDeviation="2"/>
<feComposite in2="hardAlpha" operator="arithmetic" k2="-1" k3="1"/>
<feColorMatrix type="matrix" values="0 0 0 0 0 0 0 0 0 0 0 0 0 0 0 0 0 0 0.35 0"/>
<feBlend mode="normal" in2="shape" result="effect1_innerShadow_114_12904"/>
</filter>
<filter id="filter1_di_114_12904" x="8" y="213" width="408" height="148" filterUnits="userSpaceOnUse" color-interpolation-filters="sRGB">
<feFlood flood-opacity="0" result="BackgroundImageFix"/>
<feColorMatrix in="SourceAlpha" type="matrix" values="0 0 0 0 0 0 0 0 0 0 0 0 0 0 0 0 0 0 127 0" result="hardAlpha"/>
<feOffset dy="4"/>
<feGaussianBlur stdDeviation="2"/>
<feComposite in2="hardAlpha" operator="out"/>
<feColorMatrix type="matrix" values="0 0 0 0 0 0 0 0 0 0 0 0 0 0 0 0 0 0 0.25 0"/>
<feBlend mode="normal" in2="BackgroundImageFix" result="effect1_dropShadow_114_12904"/>
<feBlend mode="normal" in="SourceGraphic" in2="effect1_dropShadow_114_12904" result="shape"/>
<feColorMatrix in="SourceAlpha" type="matrix" values="0 0 0 0 0 0 0 0 0 0 0 0 0 0 0 0 0 0 127 0" result="hardAlpha"/>
<feOffset dy="3"/>
<feGaussianBlur stdDeviation="4"/>
<feComposite in2="hardAlpha" operator="arithmetic" k2="-1" k3="1"/>
<feColorMatrix type="matrix" values="0 0 0 0 0 0 0 0 0 0 0 0 0 0 0 0 0 0 0.25 0"/>
<feBlend mode="normal" in2="shape" result="effect2_innerShadow_114_12904"/>
</filter>
</defs>
</svg>
