<svg width="425" height="425" viewBox="0 0 425 425" fill="none" xmlns="http://www.w3.org/2000/svg">
<g filter="url(#filter0_i_114_12919)">
<path d="M412 213C412 160.222 390.929 109.605 353.421 72.2858C315.914 34.966 265.043 14 212 14C158.957 14 108.086 34.966 70.5787 72.2857C33.0714 109.605 12 160.222 12 213L412 213Z" fill="#FDBF52"/>
</g>
<path d="M372 214C372 171.565 355.143 130.869 325.137 100.863C295.131 70.8571 254.435 54 212 54C169.565 54 128.869 70.8571 98.8629 100.863C68.8571 130.869 52 171.565 52 214" stroke="#FCDBA3" stroke-width="3"/>
<path d="M12 213C12 266.043 33.0714 316.914 70.5786 354.421C108.086 391.929 158.957 413 212 413C265.043 413 315.914 391.929 353.421 354.421C390.929 316.914 412 266.043 412 213L212 213L12 213Z" fill="#FDBF52"/>
<path d="M12 213C12 266.043 33.0714 316.914 70.5786 354.421C108.086 391.929 158.957 413 212 413C265.043 413 315.914 391.929 353.421 354.421C390.929 316.914 412 266.043 412 213L212 213L12 213Z" fill="black" fill-opacity="0.2"/>
<g filter="url(#filter1_di_114_12919)">
<path d="M12 213C12 250.13 33.0714 285.74 70.5786 311.995C108.086 338.25 158.957 353 212 353C265.043 353 315.914 338.25 353.421 311.995C390.929 285.74 412 250.13 412 213L212 213L12 213Z" fill="#FCDBA3"/>
</g>
<path d="M52 213C52 242.704 68.8571 271.192 98.8629 292.196C128.869 313.2 169.565 325 212 325C254.435 325 295.131 313.2 325.137 292.196C355.143 271.192 372 242.704 372 213" stroke="#FDBF52" stroke-width="3"/>
<path d="M151.532 131.44C151.596 130.512 151.628 129.584 151.628 128.784V128.72H157.868V131.44H151.532ZM157.868 123.696V126.448H151.628V123.696H157.868ZM160.716 121.296H148.94V128.752C148.94 131.888 148.716 135.984 146.636 138.896C147.276 139.216 148.428 140.112 148.908 140.592C150.284 138.704 150.956 136.208 151.308 133.712H157.868V137.328C157.868 137.744 157.74 137.872 157.292 137.904C156.908 137.936 155.5 137.936 154.092 137.872C154.476 138.544 154.892 139.696 155.084 140.432C157.1 140.432 158.54 140.4 159.5 139.92C160.428 139.504 160.716 138.768 160.716 137.392V121.296ZM170.476 137.04C170.476 137.488 170.316 137.616 169.804 137.648C169.324 137.68 167.596 137.68 165.804 137.616C166.22 138.352 166.732 139.632 166.86 140.432C169.26 140.464 170.924 140.368 171.98 139.888C173.068 139.44 173.42 138.64 173.42 137.072V120.688H170.476V137.04ZM166.86 121.584H164.108V134.608H166.86V121.584ZM168.364 116.016C169.26 114.8 170.156 113.392 171.02 112.016L167.788 111.024C167.148 112.528 166.028 114.512 164.972 116.016H155.756L157.388 115.408C156.844 114.192 155.5 112.4 154.316 111.12L151.532 112.08C152.524 113.264 153.644 114.864 154.188 116.016H146.86V118.736H175.372V116.016H168.364ZM204.748 120.56H195.916V115.184H204.748V120.56ZM207.628 112.656H193.164V123.088H207.628V112.656ZM192.332 128.656C191.756 127.92 189.036 125.136 188.108 124.336V122.864H191.852V120.048H188.108V115.088C189.58 114.736 190.988 114.32 192.204 113.84L190.156 111.568C187.724 112.624 183.628 113.552 180.044 114.128C180.364 114.768 180.78 115.792 180.908 116.432C182.284 116.24 183.756 116.016 185.228 115.728V120.048H180.3V122.864H184.844C183.628 126.256 181.58 130.064 179.692 132.24C180.14 132.944 180.844 134.16 181.132 134.992C182.572 133.2 184.044 130.448 185.228 127.536V140.464H188.108V127.28C189.068 128.592 190.124 130.096 190.604 130.992L192.332 128.656ZM201.772 137.136V133.456H207.884V130.896H201.772V127.312C204.14 127.024 206.412 126.64 208.236 126.16L206.412 123.952C203.02 124.848 197.1 125.456 192.14 125.776C192.428 126.384 192.78 127.408 192.844 128.016C194.732 127.952 196.78 127.824 198.828 127.632V130.896H192.876V133.456H198.828V137.136H191.18V139.792H209.196V137.136H201.772ZM235.532 122.608C234.956 120.592 233.292 117.52 231.724 115.184L229.196 116.24C230.7 118.64 232.268 121.808 232.876 123.824L235.532 122.608ZM220.492 111.28C218.764 115.952 215.916 120.624 212.908 123.6C213.388 124.304 214.252 125.904 214.54 126.608C215.468 125.616 216.396 124.496 217.292 123.28V140.464H220.108V118.864C221.324 116.688 222.412 114.384 223.276 112.112L220.492 111.28ZM232.46 128.592C230.796 129.2 229.1 129.84 227.468 130.416L227.276 112.944L224.364 112.976L224.556 131.44C223.34 131.856 222.22 132.24 221.26 132.528L222.508 135.44C225.548 134.288 229.388 132.688 233.036 131.184L232.46 128.592ZM243.532 138.416C242.412 136.56 240.108 133.744 238.124 131.408C240.492 126.832 241.356 120.752 241.676 112.56L238.668 112.464C238.22 127.152 236.044 134.576 224.78 138.16C225.42 138.768 226.38 140.112 226.7 140.752C231.148 139.088 234.284 136.912 236.524 133.968C238.284 136.24 240.236 138.832 241.196 140.56L243.532 138.416ZM260.332 116.848C259.244 115.696 257.004 114.064 255.148 112.912C255.34 112.528 255.532 112.176 255.692 111.792L253.228 110.96C251.788 114.064 249.356 117.072 246.892 119.024C247.276 119.696 247.948 121.264 248.108 121.872C248.556 121.52 248.94 121.104 249.388 120.72V121.52H252.62V124.464H248.044V126.992H252.62V136.208C250.668 136.528 248.908 136.816 247.5 137.008L248.14 139.696C251.436 139.088 255.916 138.32 260.108 137.488L259.948 134.96L255.212 135.76V126.992H259.596V124.464H255.212V121.52H258.86V119.024H251.02C252.076 117.776 253.1 116.4 253.964 114.992C255.724 116.176 257.676 117.776 258.668 118.864L260.332 116.848ZM258.028 134.384C258.54 132.944 259.148 130.736 259.756 128.816L257.452 128.208C257.196 129.872 256.652 132.304 256.204 133.808L258.028 134.384ZM248.236 129.072C248.812 130.896 249.324 133.232 249.42 134.8L251.564 134.224C251.404 132.72 250.86 130.352 250.252 128.56L248.236 129.072ZM263.884 120.624H272.652V122.896H263.884V120.624ZM263.884 116.368H272.652V118.544H263.884V116.368ZM276.044 127.248H269.516V125.136H275.468V114.128H268.972C269.356 113.328 269.74 112.4 270.124 111.504L266.924 111.056C266.764 111.92 266.476 113.104 266.156 114.128H261.196V125.136H266.764V127.248H260.716V138.064H263.372V129.84H266.764V140.528H269.516V129.84H273.356V135.248C273.356 135.568 273.26 135.632 272.972 135.632C272.652 135.664 271.788 135.664 270.796 135.632C271.116 136.336 271.532 137.424 271.628 138.16C273.196 138.16 274.252 138.128 275.052 137.68C275.852 137.296 276.044 136.528 276.044 135.312V127.248ZM166.348 159.6H169.356V156.688H174.86V154.16H169.356V151.184H166.348V154.16H161.804V156.688H166.348V159.6ZM153.132 159.664H156.108V156.72H160.3V154.192H156.108V151.184H153.132V154.192H147.468V156.72H153.132V159.664ZM153.004 168.656V163.568H159.404V167.056C159.404 167.6 159.372 168.112 159.308 168.656H153.004ZM169.26 163.568V168.656H162.38C162.412 168.112 162.444 167.632 162.444 167.088V163.568H169.26ZM175.436 171.408V168.656H172.268V160.976H162.444V158.064H159.404V160.976H150.156V168.656H146.764V171.408H158.572C157.228 174.096 154.028 176.496 146.316 178.096C146.988 178.704 147.788 179.92 148.108 180.528C157.036 178.448 160.556 175.184 161.804 171.408H175.436ZM161.58 174C165.772 175.76 171.34 178.608 174.06 180.528L175.564 178.096C172.78 176.176 167.116 173.52 162.988 171.888L161.58 174ZM208.62 157.52H200.716V151.152H197.452V157.52H180.94V160.56H194.412C190.956 166.032 185.452 171.44 179.916 174.224C180.78 174.928 181.74 176.08 182.252 176.912C187.98 173.584 193.836 167.504 197.452 161.488V176.272C197.452 176.88 197.196 177.072 196.556 177.104C195.916 177.104 193.676 177.136 191.564 177.04C191.98 177.904 192.46 179.312 192.588 180.176C195.756 180.176 197.74 180.112 198.988 179.6C200.204 179.12 200.716 178.256 200.716 176.272V160.56H208.62V157.52ZM237.772 156.432H228.236V154.288H237.772V156.432ZM237.772 160.624H228.236V158.48H237.772V160.624ZM240.78 152.112H225.356V162.832H240.78V152.112ZM220.14 151.248C218.796 153.424 215.98 156.016 213.484 157.616C213.964 158.224 214.7 159.408 215.02 160.08C217.9 158.192 221.036 155.184 223.02 152.368L220.14 151.248ZM220.844 158.192C218.956 161.392 215.884 164.592 213.036 166.608C213.516 167.344 214.284 168.944 214.54 169.616C215.628 168.72 216.812 167.696 217.9 166.512V180.496H220.78V163.216C221.772 161.904 222.732 160.56 223.468 159.248L220.844 158.192ZM225.26 173.616C226.668 174.992 228.332 176.912 229.068 178.128L231.308 176.528C230.508 175.312 228.78 173.488 227.372 172.208L225.26 173.616ZM242.668 169.456H238.092V167.12H242.06V164.656H223.564V167.12H235.116V169.456H222.796V172.016H235.116V177.36C235.116 177.744 234.988 177.84 234.508 177.872C234.06 177.904 232.524 177.904 230.924 177.84C231.308 178.608 231.724 179.728 231.884 180.528C234.156 180.528 235.692 180.496 236.748 180.048C237.804 179.632 238.092 178.896 238.092 177.424V172.016H242.668V169.456ZM271.436 155.184V157.904H253.356V155.184H271.436ZM274.412 160.432V152.624H250.38V161.936C250.38 167.024 250.092 174.096 246.924 179.024C247.692 179.312 249.004 180.08 249.58 180.56C252.876 175.344 253.356 167.408 253.356 161.936V160.432H274.412ZM272.492 171.12C271.404 172.016 269.74 173.136 268.268 173.968C267.404 173.136 266.668 172.176 266.092 171.12H272.492ZM261.42 165.776H267.116V168.624H261.42V165.776ZM272.652 171.12H276.236V168.624H269.9V165.776H274.924V163.248H269.9V160.464H267.116V163.248H261.42V160.464H258.7V163.248H254.252V165.776H258.7V168.624H253.452V171.12H256.62V175.504C256.62 176.976 255.628 177.808 254.988 178.16C255.436 178.704 255.98 179.888 256.172 180.624V180.592C256.812 180.176 257.836 179.888 265.388 178.16C265.356 177.552 265.452 176.432 265.58 175.664L259.372 176.976V171.12H263.244C265.42 175.92 269.196 179.12 274.828 180.528C275.212 179.728 275.98 178.64 276.62 178.064C274.092 177.552 271.948 176.688 270.156 175.472C271.66 174.704 273.388 173.648 274.796 172.592L272.652 171.12Z" fill="white"/>
<rect x="165" y="45" width="92.5" height="26" fill="#FDBF52"/>
<path d="M182.268 51.078C180.522 51.636 177.588 52.032 175.122 52.212C175.23 52.554 175.374 53.058 175.41 53.436C177.93 53.292 180.936 52.914 182.934 52.302L182.268 51.078ZM181.854 55.722C182.25 55.11 182.7 54.21 183.132 53.328L181.98 52.878C181.728 53.634 181.242 54.66 180.846 55.326L181.854 55.722ZM177.3 55.398C177.174 54.858 176.868 54.084 176.526 53.508L175.41 53.958C175.716 54.552 176.04 55.38 176.13 55.938L177.3 55.398ZM178.452 61.014C178.434 61.464 178.398 61.896 178.344 62.274H175.068V63.534H178.056C177.642 64.83 176.742 65.676 174.78 66.234C175.086 66.504 175.482 67.062 175.626 67.422C177.372 66.882 178.398 66.09 179.01 65.01C180.162 65.73 181.404 66.648 182.034 67.296L183.006 66.27C182.25 65.532 180.738 64.56 179.514 63.84L179.568 63.534H183.06V62.274H179.802C179.856 61.878 179.892 61.446 179.91 61.014H178.452ZM180.558 58.602C180.774 58.89 180.972 59.214 181.17 59.556L178.038 59.808C179.352 58.962 180.684 57.936 181.944 56.73L180.9 55.938C180.414 56.442 179.874 56.946 179.352 57.396L177.462 57.432C178.074 56.946 178.704 56.334 179.262 55.722L178.92 55.488L180.036 55.002C179.928 54.48 179.622 53.706 179.334 53.13L178.2 53.562C178.47 54.156 178.758 54.912 178.848 55.434L178.2 54.984C177.534 55.938 176.544 56.784 176.238 57.018C175.95 57.234 175.698 57.396 175.446 57.45C175.572 57.81 175.752 58.512 175.806 58.8C176.04 58.71 176.364 58.638 177.912 58.566C177.372 58.944 176.94 59.25 176.688 59.394C176.112 59.772 175.68 60.006 175.284 60.078C175.392 60.438 175.572 61.158 175.626 61.428C176.04 61.212 176.652 61.158 181.746 60.636C181.908 60.96 182.034 61.266 182.124 61.518L183.348 60.996C183.06 60.186 182.394 58.998 181.71 58.116L180.558 58.602ZM185.508 62.958H187.416V65.082H185.508V62.958ZM187.416 57.99H185.508V55.974H187.416V57.99ZM187.416 61.536H185.508V59.412H187.416V61.536ZM191.376 65.082H188.91V62.958H190.908V61.536H188.91V59.412H190.908V57.99H188.91V55.974H191.16V54.462H188.91L189.756 54.156C189.486 53.418 188.946 52.266 188.46 51.402L187.056 51.834C187.506 52.626 187.974 53.724 188.244 54.462H185.58C185.994 53.436 186.318 52.356 186.606 51.276L185.04 50.898C184.428 53.418 183.402 55.92 182.07 57.504C182.412 57.81 182.988 58.494 183.222 58.818C183.492 58.476 183.744 58.116 183.996 57.702V67.404H185.508V66.594H191.376V65.082ZM207.216 53.85H201.726V52.698H207.216V53.85ZM207.216 56.154H201.726V54.984H207.216V56.154ZM208.872 51.474H200.142V57.378H208.872V51.474ZM198.684 52.842C198.036 52.212 196.668 51.456 195.606 51.006L194.67 52.248C195.732 52.752 197.082 53.598 197.694 54.21L198.684 52.842ZM197.766 57.504C197.1 56.928 195.732 56.208 194.67 55.794L193.734 57.054C194.832 57.522 196.164 58.314 196.794 58.908L197.766 57.504ZM196.974 60.456C196.092 62.508 194.904 64.812 194.076 66.198L195.57 67.188C196.47 65.496 197.496 63.354 198.27 61.464L196.974 60.456ZM210.312 59.682V58.314H198.522V59.682H200.826C200.052 60.96 198.918 62.148 197.73 62.94C198.072 63.192 198.648 63.678 198.9 63.948C199.566 63.444 200.25 62.796 200.862 62.076H202.302C201.402 63.606 200.052 64.992 198.63 65.91C198.954 66.162 199.53 66.684 199.782 66.954C201.366 65.784 202.932 64.02 203.976 62.076H205.416C204.732 63.876 203.616 65.46 202.248 66.504C202.59 66.702 203.202 67.17 203.454 67.422C204.912 66.162 206.19 64.254 206.982 62.076H208.134C207.954 64.524 207.738 65.496 207.468 65.784C207.324 65.964 207.18 66 206.946 65.982C206.712 65.982 206.172 65.982 205.578 65.928C205.812 66.306 205.956 66.936 205.992 67.368C206.694 67.404 207.378 67.404 207.756 67.35C208.188 67.296 208.512 67.17 208.8 66.828C209.286 66.288 209.538 64.884 209.772 61.41C209.79 61.194 209.808 60.762 209.808 60.762H201.87C202.104 60.402 202.32 60.042 202.518 59.682H210.312ZM220.104 51.15V65.208C220.104 65.568 219.978 65.676 219.6 65.694C219.222 65.712 217.908 65.712 216.684 65.658C216.954 66.144 217.242 66.936 217.35 67.404C219.06 67.422 220.212 67.368 220.932 67.098C221.634 66.81 221.922 66.324 221.922 65.208V51.15H220.104ZM224.406 55.74C225.864 58.332 227.286 61.68 227.664 63.804L229.482 63.084C229.032 60.906 227.556 57.63 226.026 55.128L224.406 55.74ZM215.442 55.272C215.028 57.648 214.074 60.744 212.562 62.616C213.012 62.778 213.75 63.192 214.164 63.498C215.73 61.5 216.738 58.242 217.332 55.614L215.442 55.272ZM247.14 63.156C245.754 62.49 243.036 61.392 241.218 60.708L240.354 62.004C242.226 62.778 244.908 63.948 246.204 64.668L247.14 63.156ZM247.896 58.998V57.342H240.3V54.858H246.15V53.256H240.3V50.916H238.536V57.342H231.858V58.998H238.59V67.404H240.354V58.998H247.896Z" fill="#573605"/>
<path d="M204.018 310.6L200.199 310.266L200.296 309.154L204.115 309.488L204.018 310.6ZM200.5 306.823L204.319 307.157L204.23 308.179L200.411 307.845L200.5 306.823ZM195.737 303.028L195.831 301.952L199.202 302.247L199.108 303.323L195.737 303.028ZM204.42 302.703L204.326 303.779L200.793 303.47L200.887 302.394L204.42 302.703ZM207.78 308.49L205.916 308.327L206.108 306.121L200.604 305.64L200.696 304.582L205.914 305.038L206.203 301.739L200.985 301.282L201.065 300.368L208.058 300.98L208.176 299.635L201.182 299.023L201.297 297.714L199.611 297.567L199.497 298.876L192.701 298.281L192.583 299.626L199.379 300.22L199.299 301.135L194.332 300.7L194.043 304L199.011 304.434L198.918 305.492L193.485 305.017L193.381 306.2L198.814 306.676L198.725 307.698L191.552 307.07L191.438 308.379L198.61 309.007L198.513 310.119L192.919 309.629L192.809 310.884L198.403 311.374L198.32 312.324C198.294 312.629 198.178 312.709 197.854 312.699C197.565 312.692 196.489 312.598 195.506 312.475C195.708 312.855 195.906 313.486 195.963 313.871C197.469 314.002 198.403 314.066 199.031 313.904C199.661 313.724 199.927 313.368 200.007 312.454L200.089 311.521L203.908 311.855L203.841 312.626L205.526 312.774L205.801 309.636L207.666 309.799L207.78 308.49Z" fill="#927858"/>
<path d="M220.331 310.941C219.248 311.776 217.136 312.63 215.349 313.057C215.716 313.332 216.195 313.85 216.46 314.189C218.271 313.615 220.43 312.486 221.601 311.408L220.331 310.941ZM224.915 311.281C226.601 311.765 228.872 312.524 230.032 312.983L231.059 311.917C229.808 311.449 227.545 310.779 225.917 310.344L224.915 311.281ZM225.043 301.801C224.833 302.29 224.48 303.007 224.178 303.485L224.841 303.626L219.946 304.054L220.734 303.768C220.554 303.368 220.156 302.735 219.753 302.264L225.043 301.801ZM223.676 308.48L223.582 307.404L229.087 306.922L228.977 305.667L223.472 306.149L223.378 305.073L229.725 304.518L229.611 303.209L225.809 303.541C226.132 303.097 226.502 302.577 226.849 302.005L225.419 301.768L230.117 301.357L230.001 300.03L227.437 300.255C227.845 299.551 228.305 298.607 228.712 297.686L226.951 297.388C226.753 298.219 226.296 299.397 225.928 300.152L226.648 300.324L224.694 300.495L224.424 297.411L222.846 297.549L223.116 300.633L221.34 300.788L221.071 297.704L219.511 297.84L219.78 300.925L217.772 301.1L218.691 300.659C218.379 299.981 217.656 298.942 217.032 298.22L215.624 298.849C216.19 299.54 216.814 300.479 217.144 301.155L214.473 301.389L214.589 302.716L219.161 302.316L218.143 302.658C218.489 303.097 218.849 303.698 219.067 304.131L215.463 304.446L215.577 305.755L221.746 305.216L221.84 306.292L216.55 306.754L216.66 308.01L221.95 307.547L222.044 308.623L215.087 309.231L215.209 310.63L222.166 310.021L222.53 314.181L224.162 314.039L223.798 309.879L230.863 309.26L230.741 307.862L223.676 308.48Z" fill="#927858"/>
<defs>
<filter id="filter0_i_114_12919" x="12" y="14" width="400" height="203" filterUnits="userSpaceOnUse" color-interpolation-filters="sRGB">
<feFlood flood-opacity="0" result="BackgroundImageFix"/>
<feBlend mode="normal" in="SourceGraphic" in2="BackgroundImageFix" result="shape"/>
<feColorMatrix in="SourceAlpha" type="matrix" values="0 0 0 0 0 0 0 0 0 0 0 0 0 0 0 0 0 0 127 0" result="hardAlpha"/>
<feOffset dy="4"/>
<feGaussianBlur stdDeviation="2"/>
<feComposite in2="hardAlpha" operator="arithmetic" k2="-1" k3="1"/>
<feColorMatrix type="matrix" values="0 0 0 0 0 0 0 0 0 0 0 0 0 0 0 0 0 0 0.35 0"/>
<feBlend mode="normal" in2="shape" result="effect1_innerShadow_114_12919"/>
</filter>
<filter id="filter1_di_114_12919" x="8" y="213" width="408" height="148" filterUnits="userSpaceOnUse" color-interpolation-filters="sRGB">
<feFlood flood-opacity="0" result="BackgroundImageFix"/>
<feColorMatrix in="SourceAlpha" type="matrix" values="0 0 0 0 0 0 0 0 0 0 0 0 0 0 0 0 0 0 127 0" result="hardAlpha"/>
<feOffset dy="4"/>
<feGaussianBlur stdDeviation="2"/>
<feComposite in2="hardAlpha" operator="out"/>
<feColorMatrix type="matrix" values="0 0 0 0 0 0 0 0 0 0 0 0 0 0 0 0 0 0 0.25 0"/>
<feBlend mode="normal" in2="BackgroundImageFix" result="effect1_dropShadow_114_12919"/>
<feBlend mode="normal" in="SourceGraphic" in2="effect1_dropShadow_114_12919" result="shape"/>
<feColorMatrix in="SourceAlpha" type="matrix" values="0 0 0 0 0 0 0 0 0 0 0 0 0 0 0 0 0 0 127 0" result="hardAlpha"/>
<feOffset dy="3"/>
<feGaussianBlur stdDeviation="4"/>
<feComposite in2="hardAlpha" operator="arithmetic" k2="-1" k3="1"/>
<feColorMatrix type="matrix" values="0 0 0 0 0 0 0 0 0 0 0 0 0 0 0 0 0 0 0.25 0"/>
<feBlend mode="normal" in2="shape" result="effect2_innerShadow_114_12919"/>
</filter>
</defs>
</svg>
