<svg width="400" height="400" viewBox="0 0 400 400" fill="none" xmlns="http://www.w3.org/2000/svg">
<g clip-path="url(#clip0_114_12919)">
<g filter="url(#filter0_d_114_12919)">
<g filter="url(#filter1_i_114_12919)">
<path d="M400 200C400 147.222 378.929 96.6055 341.421 59.2858C303.914 21.966 253.043 1 200 1C146.957 0.999996 96.0859 21.966 58.5787 59.2857C21.0714 96.6055 8.00932e-06 147.222 0 200L400 200Z" fill="#FDBF52"/>
</g>
<path d="M360 201C360 158.565 343.143 117.869 313.137 87.8629C283.131 57.8571 242.435 41 200 41C157.565 41 116.869 57.8571 86.8629 87.8629C56.8571 117.869 40 158.565 40 201" stroke="#FCDBA3" stroke-width="3"/>
<g filter="url(#filter2_i_114_12919)">
<path d="M1.74846e-05 200C1.28474e-05 253.043 21.0714 303.914 58.5786 341.421C96.0859 378.929 146.957 400 200 400C253.043 400 303.914 378.929 341.421 341.421C378.929 303.914 400 253.043 400 200L200 200L1.74846e-05 200Z" fill="#FDBF52"/>
<path d="M1.74846e-05 200C1.28474e-05 253.043 21.0714 303.914 58.5786 341.421C96.0859 378.929 146.957 400 200 400C253.043 400 303.914 378.929 341.421 341.421C378.929 303.914 400 253.043 400 200L200 200L1.74846e-05 200Z" fill="black" fill-opacity="0.2"/>
</g>
<g filter="url(#filter3_di_114_12919)">
<path d="M1.22392e-05 200C8.99315e-06 237.13 21.0714 272.74 58.5786 298.995C96.0859 325.25 146.957 340 200 340C253.043 340 303.914 325.25 341.421 298.995C378.929 272.74 400 237.13 400 200L200 200L1.22392e-05 200Z" fill="#FCDBA3"/>
</g>
<path d="M40 200C40 229.704 56.8571 258.192 86.8629 279.196C116.869 300.2 157.565 312 200 312C242.435 312 283.131 300.2 313.137 279.196C343.143 258.192 360 229.704 360 200" stroke="#FDBF52" stroke-width="3"/>
<path d="M139.532 118.44C139.596 117.512 139.628 116.584 139.628 115.784V115.72H145.868V118.44H139.532ZM145.868 110.696V113.448H139.628V110.696H145.868ZM148.716 108.296H136.94V115.752C136.94 118.888 136.716 122.984 134.636 125.896C135.276 126.216 136.428 127.112 136.908 127.592C138.284 125.704 138.956 123.208 139.308 120.712H145.868V124.328C145.868 124.744 145.74 124.872 145.292 124.904C144.908 124.936 143.5 124.936 142.092 124.872C142.476 125.544 142.892 126.696 143.084 127.432C145.1 127.432 146.54 127.4 147.5 126.92C148.428 126.504 148.716 125.768 148.716 124.392V108.296ZM158.476 124.04C158.476 124.488 158.316 124.616 157.804 124.648C157.324 124.68 155.596 124.68 153.804 124.616C154.22 125.352 154.732 126.632 154.86 127.432C157.26 127.464 158.924 127.368 159.98 126.888C161.068 126.44 161.42 125.64 161.42 124.072V107.688H158.476V124.04ZM154.86 108.584H152.108V121.608H154.86V108.584ZM156.364 103.016C157.26 101.8 158.156 100.392 159.02 99.016L155.788 98.024C155.148 99.528 154.028 101.512 152.972 103.016H143.756L145.388 102.408C144.844 101.192 143.5 99.4 142.316 98.12L139.532 99.08C140.524 100.264 141.644 101.864 142.188 103.016H134.86V105.736H163.372V103.016H156.364ZM192.748 107.56H183.916V102.184H192.748V107.56ZM195.628 99.656H181.164V110.088H195.628V99.656ZM180.332 115.656C179.756 114.92 177.036 112.136 176.108 111.336V109.864H179.852V107.048H176.108V102.088C177.58 101.736 178.988 101.32 180.204 100.84L178.156 98.568C175.724 99.624 171.628 100.552 168.044 101.128C168.364 101.768 168.78 102.792 168.908 103.432C170.284 103.24 171.756 103.016 173.228 102.728V107.048H168.3V109.864H172.844C171.628 113.256 169.58 117.064 167.692 119.24C168.14 119.944 168.844 121.16 169.132 121.992C170.572 120.2 172.044 117.448 173.228 114.536V127.464H176.108V114.28C177.068 115.592 178.124 117.096 178.604 117.992L180.332 115.656ZM189.772 124.136V120.456H195.884V117.896H189.772V114.312C192.14 114.024 194.412 113.64 196.236 113.16L194.412 110.952C191.02 111.848 185.1 112.456 180.14 112.776C180.428 113.384 180.78 114.408 180.844 115.016C182.732 114.952 184.78 114.824 186.828 114.632V117.896H180.876V120.456H186.828V124.136H179.18V126.792H197.196V124.136H189.772ZM223.532 109.608C222.956 107.592 221.292 104.52 219.724 102.184L217.196 103.24C218.7 105.64 220.268 108.808 220.876 110.824L223.532 109.608ZM208.492 98.28C206.764 102.952 203.916 107.624 200.908 110.6C201.388 111.304 202.252 112.904 202.54 113.608C203.468 112.616 204.396 111.496 205.292 110.28V127.464H208.108V105.864C209.324 103.688 210.412 101.384 211.276 99.112L208.492 98.28ZM220.46 115.592C218.796 116.2 217.1 116.84 215.468 117.416L215.276 99.944L212.364 99.976L212.556 118.44C211.34 118.856 210.22 119.24 209.26 119.528L210.508 122.44C213.548 121.288 217.388 119.688 221.036 118.184L220.46 115.592ZM231.532 125.416C230.412 123.56 228.108 120.744 226.124 118.408C228.492 113.832 229.356 107.752 229.676 99.56L226.668 99.464C226.22 114.152 224.044 121.576 212.78 125.16C213.42 125.768 214.38 127.112 214.7 127.752C219.148 126.088 222.284 123.912 224.524 120.968C226.284 123.24 228.236 125.832 229.196 127.56L231.532 125.416ZM248.332 103.848C247.244 102.696 245.004 101.064 243.148 99.912C243.34 99.528 243.532 99.176 243.692 98.792L241.228 97.96C239.788 101.064 237.356 104.072 234.892 106.024C235.276 106.696 235.948 108.264 236.108 108.872C236.556 108.52 236.94 108.104 237.388 107.72V108.52H240.62V111.464H236.044V113.992H240.62V123.208C238.668 123.528 236.908 123.816 235.5 124.008L236.14 126.696C239.436 126.088 243.916 125.32 248.108 124.488L247.948 121.96L243.212 122.76V113.992H247.596V111.464H243.212V108.52H246.86V106.024H239.02C240.076 104.776 241.1 103.4 241.964 101.992C243.724 103.176 245.676 104.776 246.668 105.864L248.332 103.848ZM246.028 121.384C246.54 119.944 247.148 117.736 247.756 115.816L245.452 115.208C245.196 116.872 244.652 119.304 244.204 120.808L246.028 121.384ZM236.236 116.072C236.812 117.896 237.324 120.232 237.42 121.8L239.564 121.224C239.404 119.72 238.86 117.352 238.252 115.56L236.236 116.072ZM251.884 107.624H260.652V109.896H251.884V107.624ZM251.884 103.368H260.652V105.544H251.884V103.368ZM264.044 114.248H257.516V112.136H263.468V101.128H256.972C257.356 100.328 257.74 99.4 258.124 98.504L254.924 98.056C254.764 98.92 254.476 100.104 254.156 101.128H249.196V112.136H254.764V114.248H248.716V125.064H251.372V116.84H254.764V127.528H257.516V116.84H261.356V122.248C261.356 122.568 261.26 122.632 260.972 122.632C260.652 122.664 259.788 122.664 258.796 122.632C259.116 123.336 259.532 124.424 259.628 125.16C261.196 125.16 262.252 125.128 263.052 124.68C263.852 124.296 264.044 123.528 264.044 122.312V114.248ZM154.348 146.6H157.356V143.688H162.86V141.16H157.356V138.184H154.348V141.16H149.804V143.688H154.348V146.6ZM141.132 146.664H144.108V143.72H148.3V141.192H144.108V138.184H141.132V141.192H135.468V143.72H141.132V146.664ZM141.004 155.656V150.568H147.404V154.056C147.404 154.6 147.372 155.112 147.308 155.656H141.004ZM157.26 150.568V155.656H150.38C150.412 155.112 150.444 154.632 150.444 154.088V150.568H157.26ZM163.436 158.408V155.656H160.268V147.976H150.444V145.064H147.404V147.976H138.156V155.656H134.764V158.408H146.572C145.228 161.096 142.028 163.496 134.316 165.096C134.988 165.704 135.788 166.92 136.108 167.528C145.036 165.448 148.556 162.184 149.804 158.408H163.436ZM149.58 161C153.772 162.76 159.34 165.608 162.06 167.528L163.564 165.096C160.78 163.176 155.116 160.52 150.988 158.888L149.58 161ZM196.62 144.52H188.716V138.152H185.452V144.52H168.94V147.56H182.412C178.956 153.032 173.452 158.44 167.916 161.224C168.78 161.928 169.74 163.08 170.252 163.912C175.98 160.584 181.836 154.504 185.452 148.488V163.272C185.452 163.88 185.196 164.072 184.556 164.104C183.916 164.104 181.676 164.136 179.564 164.04C179.98 164.904 180.46 166.312 180.588 167.176C183.756 167.176 185.74 167.112 186.988 166.6C188.204 166.12 188.716 165.256 188.716 163.272V147.56H196.62V144.52ZM225.772 143.432H216.236V141.288H225.772V143.432ZM225.772 147.624H216.236V145.48H225.772V147.624ZM228.78 139.112H213.356V149.832H228.78V139.112ZM208.14 138.248C206.796 140.424 203.98 143.016 201.484 144.616C201.964 145.224 202.7 146.408 203.02 147.08C205.9 145.192 209.036 142.184 211.02 139.368L208.14 138.248ZM208.844 145.192C206.956 148.392 203.884 151.592 201.036 153.608C201.516 154.344 202.284 155.944 202.54 156.616C203.628 155.72 204.812 154.696 205.9 153.512V167.496H208.78V150.216C209.772 148.904 210.732 147.56 211.468 146.248L208.844 145.192ZM213.26 160.616C214.668 161.992 216.332 163.912 217.068 165.128L219.308 163.528C218.508 162.312 216.78 160.488 215.372 159.208L213.26 160.616ZM230.668 156.456H226.092V154.12H230.06V151.656H211.564V154.12H223.116V156.456H210.796V159.016H223.116V164.36C223.116 164.744 222.988 164.84 222.508 164.872C222.06 164.904 220.524 164.904 218.924 164.84C219.308 165.608 219.724 166.728 219.884 167.528C222.156 167.528 223.692 167.496 224.748 167.048C225.804 166.632 226.092 165.896 226.092 164.424V159.016H230.668V156.456ZM259.436 142.184V144.904H241.356V142.184H259.436ZM262.412 147.432V139.624H238.38V148.936C238.38 154.024 238.092 161.096 234.924 166.024C235.692 166.312 237.004 167.08 237.58 167.56C240.876 162.344 241.356 154.408 241.356 148.936V147.432H262.412ZM260.492 158.12C259.404 159.016 257.74 160.136 256.268 160.968C255.404 160.136 254.668 159.176 254.092 158.12H260.492ZM249.42 152.776H255.116V155.624H249.42V152.776ZM260.652 158.12H264.236V155.624H257.9V152.776H262.924V150.248H257.9V147.464H255.116V150.248H249.42V147.464H246.7V150.248H242.252V152.776H246.7V155.624H241.452V158.12H244.62V162.504C244.62 163.976 243.628 164.808 242.988 165.16C243.436 165.704 243.98 166.888 244.172 167.624V167.592C244.812 167.176 245.836 166.888 253.388 165.16C253.356 164.552 253.452 163.432 253.58 162.664L247.372 163.976V158.12H251.244C253.42 162.92 257.196 166.12 262.828 167.528C263.212 166.728 263.98 165.64 264.62 165.064C262.092 164.552 259.948 163.688 258.156 162.472C259.66 161.704 261.388 160.648 262.796 159.592L260.652 158.12Z" fill="white"/>
<rect x="153" y="32" width="92.5" height="26" fill="#FDBF52"/>
<path d="M170.268 38.078C168.522 38.636 165.588 39.032 163.122 39.212C163.23 39.554 163.374 40.058 163.41 40.436C165.93 40.292 168.936 39.914 170.934 39.302L170.268 38.078ZM169.854 42.722C170.25 42.11 170.7 41.21 171.132 40.328L169.98 39.878C169.728 40.634 169.242 41.66 168.846 42.326L169.854 42.722ZM165.3 42.398C165.174 41.858 164.868 41.084 164.526 40.508L163.41 40.958C163.716 41.552 164.04 42.38 164.13 42.938L165.3 42.398ZM166.452 48.014C166.434 48.464 166.398 48.896 166.344 49.274H163.068V50.534H166.056C165.642 51.83 164.742 52.676 162.78 53.234C163.086 53.504 163.482 54.062 163.626 54.422C165.372 53.882 166.398 53.09 167.01 52.01C168.162 52.73 169.404 53.648 170.034 54.296L171.006 53.27C170.25 52.532 168.738 51.56 167.514 50.84L167.568 50.534H171.06V49.274H167.802C167.856 48.878 167.892 48.446 167.91 48.014H166.452ZM168.558 45.602C168.774 45.89 168.972 46.214 169.17 46.556L166.038 46.808C167.352 45.962 168.684 44.936 169.944 43.73L168.9 42.938C168.414 43.442 167.874 43.946 167.352 44.396L165.462 44.432C166.074 43.946 166.704 43.334 167.262 42.722L166.92 42.488L168.036 42.002C167.928 41.48 167.622 40.706 167.334 40.13L166.2 40.562C166.47 41.156 166.758 41.912 166.848 42.434L166.2 41.984C165.534 42.938 164.544 43.784 164.238 44.018C163.95 44.234 163.698 44.396 163.446 44.45C163.572 44.81 163.752 45.512 163.806 45.8C164.04 45.71 164.364 45.638 165.912 45.566C165.372 45.944 164.94 46.25 164.688 46.394C164.112 46.772 163.68 47.006 163.284 47.078C163.392 47.438 163.572 48.158 163.626 48.428C164.04 48.212 164.652 48.158 169.746 47.636C169.908 47.96 170.034 48.266 170.124 48.518L171.348 47.996C171.06 47.186 170.394 45.998 169.71 45.116L168.558 45.602ZM173.508 49.958H175.416V52.082H173.508V49.958ZM175.416 44.99H173.508V42.974H175.416V44.99ZM175.416 48.536H173.508V46.412H175.416V48.536ZM179.376 52.082H176.91V49.958H178.908V48.536H176.91V46.412H178.908V44.99H176.91V42.974H179.16V41.462H176.91L177.756 41.156C177.486 40.418 176.946 39.266 176.46 38.402L175.056 38.834C175.506 39.626 175.974 40.724 176.244 41.462H173.58C173.994 40.436 174.318 39.356 174.606 38.276L173.04 37.898C172.428 40.418 171.402 42.92 170.07 44.504C170.412 44.81 170.988 45.494 171.222 45.818C171.492 45.476 171.744 45.116 171.996 44.702V54.404H173.508V53.594H179.376V52.082ZM195.216 40.85H189.726V39.698H195.216V40.85ZM195.216 43.154H189.726V41.984H195.216V43.154ZM196.872 38.474H188.142V44.378H196.872V38.474ZM186.684 39.842C186.036 39.212 184.668 38.456 183.606 38.006L182.67 39.248C183.732 39.752 185.082 40.598 185.694 41.21L186.684 39.842ZM185.766 44.504C185.1 43.928 183.732 43.208 182.67 42.794L181.734 44.054C182.832 44.522 184.164 45.314 184.794 45.908L185.766 44.504ZM184.974 47.456C184.092 49.508 182.904 51.812 182.076 53.198L183.57 54.188C184.47 52.496 185.496 50.354 186.27 48.464L184.974 47.456ZM198.312 46.682V45.314H186.522V46.682H188.826C188.052 47.96 186.918 49.148 185.73 49.94C186.072 50.192 186.648 50.678 186.9 50.948C187.566 50.444 188.25 49.796 188.862 49.076H190.302C189.402 50.606 188.052 51.992 186.63 52.91C186.954 53.162 187.53 53.684 187.782 53.954C189.366 52.784 190.932 51.02 191.976 49.076H193.416C192.732 50.876 191.616 52.46 190.248 53.504C190.59 53.702 191.202 54.17 191.454 54.422C192.912 53.162 194.19 51.254 194.982 49.076H196.134C195.954 51.524 195.738 52.496 195.468 52.784C195.324 52.964 195.18 53 194.946 52.982C194.712 52.982 194.172 52.982 193.578 52.928C193.812 53.306 193.956 53.936 193.992 54.368C194.694 54.404 195.378 54.404 195.756 54.35C196.188 54.296 196.512 54.17 196.8 53.828C197.286 53.288 197.538 51.884 197.772 48.41C197.79 48.194 197.808 47.762 197.808 47.762H189.87C190.104 47.402 190.32 47.042 190.518 46.682H198.312ZM208.104 38.15V52.208C208.104 52.568 207.978 52.676 207.6 52.694C207.222 52.712 205.908 52.712 204.684 52.658C204.954 53.144 205.242 53.936 205.35 54.404C207.06 54.422 208.212 54.368 208.932 54.098C209.634 53.81 209.922 53.324 209.922 52.208V38.15H208.104ZM212.406 42.74C213.864 45.332 215.286 48.68 215.664 50.804L217.482 50.084C217.032 47.906 215.556 44.63 214.026 42.128L212.406 42.74ZM203.442 42.272C203.028 44.648 202.074 47.744 200.562 49.616C201.012 49.778 201.75 50.192 202.164 50.498C203.73 48.5 204.738 45.242 205.332 42.614L203.442 42.272ZM235.14 50.156C233.754 49.49 231.036 48.392 229.218 47.708L228.354 49.004C230.226 49.778 232.908 50.948 234.204 51.668L235.14 50.156ZM235.896 45.998V44.342H228.3V41.858H234.15V40.256H228.3V37.916H226.536V44.342H219.858V45.998H226.59V54.404H228.354V45.998H235.896Z" fill="#573605"/>
<path d="M192.018 297.6L188.199 297.266L188.296 296.154L192.115 296.488L192.018 297.6ZM188.5 293.823L192.319 294.157L192.23 295.179L188.411 294.845L188.5 293.823ZM183.737 290.028L183.831 288.952L187.202 289.247L187.108 290.323L183.737 290.028ZM192.42 289.703L192.326 290.779L188.793 290.47L188.887 289.394L192.42 289.703ZM195.78 295.49L193.916 295.327L194.108 293.121L188.604 292.64L188.696 291.582L193.914 292.038L194.203 288.739L188.985 288.282L189.065 287.368L196.058 287.98L196.176 286.635L189.182 286.023L189.297 284.714L187.611 284.567L187.497 285.876L180.701 285.281L180.583 286.626L187.379 287.22L187.299 288.135L182.332 287.7L182.043 291L187.011 291.434L186.918 292.492L181.485 292.017L181.381 293.2L186.814 293.676L186.725 294.698L179.552 294.07L179.438 295.379L186.61 296.007L186.513 297.119L180.919 296.629L180.809 297.884L186.403 298.374L186.32 299.324C186.294 299.629 186.178 299.709 185.854 299.699C185.565 299.692 184.489 299.598 183.506 299.475C183.708 299.855 183.906 300.486 183.963 300.871C185.469 301.002 186.403 301.066 187.031 300.904C187.661 300.724 187.927 300.368 188.007 299.454L188.089 298.521L191.908 298.855L191.841 299.626L193.526 299.774L193.801 296.636L195.666 296.799L195.78 295.49Z" fill="#927858"/>
<path d="M208.331 297.941C207.248 298.776 205.136 299.63 203.349 300.057C203.716 300.332 204.195 300.85 204.46 301.189C206.271 300.615 208.43 299.486 209.601 298.408L208.331 297.941ZM212.915 298.281C214.601 298.765 216.872 299.524 218.032 299.983L219.059 298.917C217.808 298.449 215.545 297.779 213.917 297.344L212.915 298.281ZM213.043 288.801C212.833 289.29 212.48 290.007 212.178 290.485L212.841 290.626L207.946 291.054L208.734 290.768C208.554 290.368 208.156 289.735 207.753 289.264L213.043 288.801ZM211.676 295.48L211.582 294.404L217.087 293.922L216.977 292.667L211.472 293.149L211.378 292.073L217.725 291.518L217.611 290.209L213.809 290.541C214.132 290.097 214.502 289.577 214.849 289.005L213.419 288.768L218.117 288.357L218.001 287.03L215.437 287.255C215.845 286.551 216.305 285.607 216.712 284.686L214.951 284.388C214.753 285.219 214.296 286.397 213.928 287.152L214.648 287.324L212.694 287.495L212.424 284.411L210.846 284.549L211.116 287.633L209.34 287.788L209.071 284.704L207.511 284.84L207.78 287.925L205.772 288.1L206.691 287.659C206.379 286.981 205.656 285.942 205.032 285.22L203.624 285.849C204.19 286.54 204.814 287.479 205.144 288.155L202.473 288.389L202.589 289.716L207.161 289.316L206.143 289.658C206.489 290.097 206.849 290.698 207.067 291.131L203.463 291.446L203.577 292.755L209.746 292.216L209.84 293.292L204.55 293.754L204.66 295.01L209.95 294.547L210.044 295.623L203.087 296.231L203.209 297.63L210.166 297.021L210.53 301.181L212.162 301.039L211.798 296.879L218.863 296.26L218.741 294.862L211.676 295.48Z" fill="#927858"/>
</g>
</g>
<defs>
<filter id="filter0_d_114_12919" x="-4" y="1" width="408" height="407" filterUnits="userSpaceOnUse" color-interpolation-filters="sRGB">
<feFlood flood-opacity="0" result="BackgroundImageFix"/>
<feColorMatrix in="SourceAlpha" type="matrix" values="0 0 0 0 0 0 0 0 0 0 0 0 0 0 0 0 0 0 127 0" result="hardAlpha"/>
<feOffset dy="4"/>
<feGaussianBlur stdDeviation="2"/>
<feComposite in2="hardAlpha" operator="out"/>
<feColorMatrix type="matrix" values="0 0 0 0 0 0 0 0 0 0 0 0 0 0 0 0 0 0 0.25 0"/>
<feBlend mode="normal" in2="BackgroundImageFix" result="effect1_dropShadow_114_12919"/>
<feBlend mode="normal" in="SourceGraphic" in2="effect1_dropShadow_114_12919" result="shape"/>
</filter>
<filter id="filter1_i_114_12919" x="0" y="1" width="400" height="203" filterUnits="userSpaceOnUse" color-interpolation-filters="sRGB">
<feFlood flood-opacity="0" result="BackgroundImageFix"/>
<feBlend mode="normal" in="SourceGraphic" in2="BackgroundImageFix" result="shape"/>
<feColorMatrix in="SourceAlpha" type="matrix" values="0 0 0 0 0 0 0 0 0 0 0 0 0 0 0 0 0 0 127 0" result="hardAlpha"/>
<feOffset dy="4"/>
<feGaussianBlur stdDeviation="2"/>
<feComposite in2="hardAlpha" operator="arithmetic" k2="-1" k3="1"/>
<feColorMatrix type="matrix" values="0 0 0 0 0 0 0 0 0 0 0 0 0 0 0 0 0 0 0.35 0"/>
<feBlend mode="normal" in2="shape" result="effect1_innerShadow_114_12919"/>
</filter>
<filter id="filter2_i_114_12919" x="0" y="198" width="400" height="202" filterUnits="userSpaceOnUse" color-interpolation-filters="sRGB">
<feFlood flood-opacity="0" result="BackgroundImageFix"/>
<feBlend mode="normal" in="SourceGraphic" in2="BackgroundImageFix" result="shape"/>
<feColorMatrix in="SourceAlpha" type="matrix" values="0 0 0 0 0 0 0 0 0 0 0 0 0 0 0 0 0 0 127 0" result="hardAlpha"/>
<feOffset dy="-2"/>
<feGaussianBlur stdDeviation="2"/>
<feComposite in2="hardAlpha" operator="arithmetic" k2="-1" k3="1"/>
<feColorMatrix type="matrix" values="0 0 0 0 0 0 0 0 0 0 0 0 0 0 0 0 0 0 0.25 0"/>
<feBlend mode="normal" in2="shape" result="effect1_innerShadow_114_12919"/>
</filter>
<filter id="filter3_di_114_12919" x="-8" y="200" width="416" height="158" filterUnits="userSpaceOnUse" color-interpolation-filters="sRGB">
<feFlood flood-opacity="0" result="BackgroundImageFix"/>
<feColorMatrix in="SourceAlpha" type="matrix" values="0 0 0 0 0 0 0 0 0 0 0 0 0 0 0 0 0 0 127 0" result="hardAlpha"/>
<feOffset dy="10"/>
<feGaussianBlur stdDeviation="4"/>
<feComposite in2="hardAlpha" operator="out"/>
<feColorMatrix type="matrix" values="0 0 0 0 0 0 0 0 0 0 0 0 0 0 0 0 0 0 0.25 0"/>
<feBlend mode="normal" in2="BackgroundImageFix" result="effect1_dropShadow_114_12919"/>
<feBlend mode="normal" in="SourceGraphic" in2="effect1_dropShadow_114_12919" result="shape"/>
<feColorMatrix in="SourceAlpha" type="matrix" values="0 0 0 0 0 0 0 0 0 0 0 0 0 0 0 0 0 0 127 0" result="hardAlpha"/>
<feOffset dy="3"/>
<feGaussianBlur stdDeviation="4"/>
<feComposite in2="hardAlpha" operator="arithmetic" k2="-1" k3="1"/>
<feColorMatrix type="matrix" values="0 0 0 0 0 0 0 0 0 0 0 0 0 0 0 0 0 0 0.25 0"/>
<feBlend mode="normal" in2="shape" result="effect2_innerShadow_114_12919"/>
</filter>
<clipPath id="clip0_114_12919">
<rect width="400" height="400" fill="white"/>
</clipPath>
</defs>
</svg>
