<svg width="425" height="425" viewBox="0 0 425 425" fill="none" xmlns="http://www.w3.org/2000/svg">
<g filter="url(#filter0_i_114_12934)">
<path d="M412 213C412 160.222 390.929 109.605 353.421 72.2858C315.914 34.966 265.043 14 212 14C158.957 14 108.086 34.966 70.5787 72.2857C33.0714 109.605 12 160.222 12 213L412 213Z" fill="#FDBF52"/>
</g>
<path d="M372 214C372 171.565 355.143 130.869 325.137 100.863C295.131 70.8571 254.435 54 212 54C169.565 54 128.869 70.8571 98.8629 100.863C68.8571 130.869 52 171.565 52 214" stroke="#FCDBA3" stroke-width="3"/>
<path d="M12 213C12 266.043 33.0714 316.914 70.5786 354.421C108.086 391.929 158.957 413 212 413C265.043 413 315.914 391.929 353.421 354.421C390.929 316.914 412 266.043 412 213L212 213L12 213Z" fill="#FDBF52"/>
<path d="M12 213C12 266.043 33.0714 316.914 70.5786 354.421C108.086 391.929 158.957 413 212 413C265.043 413 315.914 391.929 353.421 354.421C390.929 316.914 412 266.043 412 213L212 213L12 213Z" fill="black" fill-opacity="0.2"/>
<g filter="url(#filter1_di_114_12934)">
<path d="M12 213C12 250.13 33.0714 285.74 70.5786 311.995C108.086 338.25 158.957 353 212 353C265.043 353 315.914 338.25 353.421 311.995C390.929 285.74 412 250.13 412 213L212 213L12 213Z" fill="#FCDBA3"/>
</g>
<path d="M52 213C52 242.704 68.8571 271.192 98.8629 292.196C128.869 313.2 169.565 325 212 325C254.435 325 295.131 313.2 325.137 292.196C355.143 271.192 372 242.704 372 213" stroke="#FDBF52" stroke-width="3"/>
<path d="M154.06 115.824C153.548 114.608 152.46 112.784 151.564 111.344L149.196 112.368C150.06 113.808 151.148 115.76 151.66 117.008L154.06 115.824ZM165.164 128.752V131.536H161.068V128.752H165.164ZM172.14 131.536H167.852V128.752H172.14V131.536ZM167.852 136.688V133.808H172.14V136.688H167.852ZM161.068 133.808H165.164V136.688H161.068V133.808ZM158.316 127.888C157.42 127.056 155.596 125.424 154.668 124.656C156.076 122.608 157.292 120.336 158.156 118L156.492 116.976L155.98 117.072H146.956V119.76H154.476C152.524 123.728 149.132 127.472 145.772 129.584C146.22 130.096 146.988 131.536 147.212 132.336C148.524 131.408 149.804 130.32 151.052 129.04V140.528H153.964V127.248C155.052 128.368 156.268 129.776 156.908 130.608L158.316 128.656V140.496H161.068V139.088H172.14V140.432H174.988V126.32H158.316V127.888ZM170.828 122.224H162.604V119.248H170.828V122.224ZM159.948 116.912V124.56H173.58V116.912H159.948ZM158.156 112.624V115.152H175.148V112.624H158.156ZM184.14 116.624H205.164V120.336H208.172V113.936H196.94C196.46 112.944 195.756 111.76 195.212 110.864L192.268 111.568C192.652 112.304 193.1 113.136 193.516 113.936H181.228V120.336H184.14V116.624ZM188.556 130.704C190.732 129.968 192.78 129.104 194.7 128.08C196.748 129.136 198.924 130 201.324 130.704H188.556ZM188.876 137.008V133.168H200.62V137.008H188.876ZM190.604 121.456H199.18C197.996 122.736 196.492 123.856 194.764 124.912C193.036 123.92 191.564 122.832 190.412 121.616L190.604 121.456ZM201.676 119.024L201.196 119.152H192.748C193.196 118.608 193.644 118.096 194.028 117.52L190.86 116.912C189.26 119.312 186.22 121.968 181.836 123.76C182.476 124.24 183.404 125.296 183.788 125.968C185.484 125.168 186.988 124.272 188.3 123.312C189.388 124.432 190.604 125.456 191.916 126.384C188.268 128.112 184.012 129.296 179.916 129.968C180.428 130.64 181.068 131.824 181.324 132.592C182.86 132.304 184.428 131.952 185.964 131.504V140.496H188.876V139.472H200.62V140.432H203.692V131.312C204.972 131.632 206.284 131.888 207.628 132.08C208.044 131.248 208.908 129.936 209.548 129.232C205.196 128.72 201.132 127.76 197.644 126.32C200.108 124.624 202.22 122.608 203.724 120.272L201.676 119.024ZM228.14 119.856C227.724 120.912 227.244 121.872 226.604 122.704C225.516 122.064 224.364 121.456 223.308 120.976L221.58 122.576C222.7 123.088 223.852 123.696 224.972 124.4C223.724 125.456 222.188 126.256 220.46 126.768C220.972 127.184 221.804 128.208 222.156 128.784C224.044 128.08 225.74 127.152 227.116 125.84C228.332 126.672 229.388 127.536 230.188 128.336L231.948 126.512C231.116 125.776 229.996 124.912 228.684 124.016C229.836 122.416 230.668 120.432 231.244 117.968L229.708 117.488L229.26 117.52H222.636C222.796 116.72 222.956 115.952 223.084 115.088H233.228C232.78 117.104 232.268 119.184 231.852 120.688H238.38C238.028 123.696 237.676 125.04 237.196 125.488C236.908 125.744 236.588 125.744 236.076 125.744C235.468 125.744 233.996 125.744 232.492 125.616C232.972 126.32 233.292 127.376 233.388 128.144C234.956 128.208 236.46 128.24 237.324 128.144C238.284 128.08 238.956 127.888 239.564 127.248C240.46 126.416 240.876 124.304 241.356 119.344C241.42 118.96 241.452 118.224 241.452 118.224H235.308C235.724 116.432 236.204 114.416 236.588 112.624H214.892V115.088H220.204C219.34 120.624 217.356 124.816 213.484 127.344C214.124 127.76 215.276 128.848 215.692 129.36C218.7 127.088 220.748 123.952 221.996 119.856H228.14ZM220.14 131.856H223.692V137.04H220.14V131.856ZM229.996 131.856V137.04H226.412V131.856H229.996ZM236.364 131.856V137.04H232.716V131.856H236.364ZM239.276 137.04V129.488H217.356V137.04H213.868V139.632H242.764V137.04H239.276ZM257.708 115.024V117.296H251.756V115.024H257.708ZM251.756 122V119.504H257.708V122H251.756ZM260.492 112.528H248.812V140.496H251.756V124.432H260.492V112.528ZM265.964 122.064V119.504H272.14V122.064H265.964ZM272.14 115.024V117.296H265.964V115.024H272.14ZM275.18 112.528H263.116V124.464H272.14V136.688C272.14 137.264 271.948 137.456 271.308 137.488C270.668 137.488 268.428 137.52 266.316 137.424C266.764 138.256 267.276 139.664 267.372 140.496C270.348 140.496 272.3 140.432 273.548 139.952C274.764 139.44 275.18 138.544 275.18 136.688V112.528ZM175.02 158.544C174.028 157.936 172.588 157.296 171.084 156.656C172.172 155.856 173.388 154.8 174.508 153.84L172.012 152.56C171.276 153.52 169.996 154.832 168.94 155.856L168.172 155.568C168.012 154.672 167.948 153.68 167.884 152.72H148.492V155.408H165.452C166.124 160.656 167.692 165.072 172.652 165.68C174.38 165.968 175.404 164.976 175.82 162.288C175.276 161.936 174.604 161.264 174.06 160.688C173.9 162.256 173.676 163.152 173.26 163.088C170.828 162.896 169.452 160.912 168.716 158.224C170.572 158.992 172.396 159.888 173.484 160.592L175.02 158.544ZM175.276 172.144C174.316 171.536 172.908 170.832 171.404 170.16C172.492 169.392 173.74 168.432 174.892 167.536L172.332 166.256C171.596 167.088 170.316 168.336 169.196 169.264L168.588 169.008C168.46 167.6 168.396 166.096 168.364 164.592H161.452V156.336H158.572V164.592H153.932V160.048C155.5 159.6 157.036 159.12 158.348 158.576L156.108 156.304C153.868 157.488 150.316 158.544 147.084 159.216C147.468 159.824 147.948 160.752 148.108 161.392C149.068 161.2 150.124 160.976 151.116 160.752V164.592H146.732V167.312H151.052C150.828 171.12 149.9 175.12 146.156 178.384C146.892 178.832 147.916 179.76 148.428 180.4C152.652 176.624 153.676 171.792 153.9 167.312H158.572V180.176H161.452V167.312H165.708C166.092 174.16 167.276 179.856 172.716 180.528C174.604 180.88 175.596 179.696 176.012 176.4C175.468 176.048 174.764 175.344 174.252 174.704C174.06 176.656 173.836 177.872 173.388 177.808C170.828 177.616 169.548 175.12 168.94 171.6C170.764 172.464 172.62 173.424 173.708 174.192L175.276 172.144ZM198.86 155.664V157.552H190.668V155.664H198.86ZM187.756 159.632H201.868V155.664H207.596V153.36H201.868V151.12H198.86V153.36H190.668V151.12H187.756V153.36H182.06V155.664H187.756V159.632ZM209.036 160.976H180.46V163.504H209.036V160.976ZM186.924 170.992H193.132V173.136H186.924V170.992ZM186.924 166.896H193.132V169.04H186.924V166.896ZM202.668 169.04H196.076V166.896H202.668V169.04ZM202.668 173.136H196.076V170.992H202.668V173.136ZM205.676 175.216V164.816H184.044V175.216H189.132C186.988 176.432 183.18 177.808 180.012 178.576C180.652 179.12 181.612 180.016 182.092 180.592C185.292 179.76 189.324 178.256 191.916 176.752L189.612 175.216H199.34L197.516 176.88C201.036 178.032 204.684 179.472 206.764 180.528L209.42 178.608C207.116 177.616 203.436 176.24 200.012 175.216H205.676ZM225.42 180.336C226.54 179.088 227.308 177.04 227.66 175.28L225.58 174.928C225.228 176.528 224.428 178.32 223.468 179.344L225.42 180.336ZM228.588 175.792C228.876 177.104 229.1 178.8 229.132 179.92L231.052 179.568C230.956 178.48 230.7 176.816 230.38 175.504L228.588 175.792ZM231.66 175.6C232.108 176.752 232.652 178.256 232.844 179.216L234.54 178.64C234.316 177.744 233.74 176.272 233.26 175.184L231.66 175.6ZM232.46 166.672H228.972V165.36H232.46V166.672ZM232.46 169.616H228.972V168.208H232.46V169.616ZM232.46 172.592H228.972V171.152H232.46V172.592ZM235.628 161.68C235.98 162.288 236.396 162.928 236.876 163.504H229.26C229.74 162.928 230.124 162.32 230.54 161.68H235.628ZM217.58 167.152C217.644 165.936 217.644 164.784 217.644 163.728V162.352H220.62V167.152H217.58ZM220.62 155.024V159.632H217.644V155.024H220.62ZM238.572 165.36C239.468 166.16 240.428 166.832 241.484 167.312C241.9 166.64 242.668 165.712 243.276 165.2C241.388 164.496 239.692 163.184 238.476 161.68H242.7V159.44H231.724C232.012 158.8 232.268 158.192 232.524 157.52H241.836V155.344H238.604C239.18 154.448 239.788 153.2 240.46 152.016L237.676 151.312C237.324 152.368 236.652 153.904 236.172 154.896L237.612 155.344H233.228C233.548 154.128 233.836 152.816 234.092 151.408L231.5 151.152C231.276 152.656 230.956 154.032 230.54 155.344H227.084L228.876 154.736C228.652 153.808 228.076 152.464 227.404 151.408L225.196 152.112C225.772 153.072 226.284 154.416 226.508 155.344H224.556V157.52H229.804C229.516 158.192 229.228 158.832 228.876 159.44H223.724V161.68H227.404C226.252 163.152 224.812 164.4 223.084 165.392V152.304H215.244V163.728C215.244 168.368 215.148 174.8 213.484 179.28C214.124 179.504 215.18 180.08 215.66 180.464C216.748 177.52 217.26 173.616 217.516 169.904H220.62V177.296C220.62 177.712 220.492 177.808 220.108 177.84C219.82 177.84 218.764 177.872 217.644 177.808C217.964 178.48 218.284 179.664 218.348 180.336C220.14 180.336 221.292 180.272 222.092 179.792C222.828 179.376 223.084 178.608 223.084 177.328V165.936C223.596 166.48 224.204 167.28 224.46 167.728C225.164 167.312 225.804 166.832 226.412 166.384V174.448H239.34C239.116 176.88 238.86 177.904 238.572 178.256C238.38 178.48 238.156 178.512 237.772 178.512C237.42 178.512 236.62 178.512 235.66 178.384C235.948 178.96 236.172 179.824 236.236 180.432C237.324 180.496 238.476 180.496 239.02 180.432C239.724 180.4 240.236 180.176 240.684 179.696C241.324 179.056 241.644 177.392 241.932 173.52C241.996 173.232 242.028 172.592 242.028 172.592H234.796V171.152H239.564V169.616H234.796V168.208H239.532V166.672H234.796V165.36H238.572ZM237.772 177.072C237.42 176.432 236.716 175.376 236.012 174.608L234.636 175.28C235.276 176.08 235.948 177.168 236.268 177.872L237.772 177.072ZM269.26 162.992H261.964L263.5 162.608C263.34 161.84 262.828 160.656 262.22 159.76H269.26C268.908 160.656 268.364 161.808 267.98 162.608L269.26 162.992ZM259.5 160.08C260.044 160.944 260.524 162.128 260.716 162.992H256.684V165.2H264.428V167.024H257.74V169.168H264.428V171.152H256.428V173.36H264.428V176.528H267.372V173.36H275.692V171.152H267.372V169.168H274.252V167.024H267.372V165.2H275.5V162.992H270.572C271.084 162.192 271.66 161.136 272.3 160.112L270.956 159.76H275.884V157.52H267.372V155.504H273.996V153.328H267.372V151.152H264.428V153.328H257.836V155.504H264.428V157.52H255.98V159.76H260.844L259.5 160.08ZM254.54 156.016C253.708 154.736 252.076 152.688 250.7 151.152L248.428 152.496C249.74 154.064 251.404 156.272 252.204 157.616L254.54 156.016ZM254.124 166.256L253.612 166.32H250.956C252.556 164.144 254.572 160.944 255.724 159.12L253.836 158.384L253.516 158.512H247.468V160.912H251.756C250.572 162.8 249.1 165.008 248.492 165.68C247.98 166.256 247.468 166.48 246.988 166.608C247.276 167.152 247.852 168.464 247.98 169.136C248.236 168.88 249.132 168.656 249.868 168.656H252.46C251.5 173.264 249.612 176.656 246.956 178.576C247.564 178.992 248.524 179.984 248.94 180.592C250.412 179.44 251.692 177.904 252.716 175.856C255.212 179.376 259.084 180.016 265.292 180.016C268.876 180.016 272.876 179.92 275.98 179.728C276.14 178.96 276.524 177.616 276.972 176.976C273.58 177.296 268.684 177.456 265.324 177.456C259.628 177.456 255.788 176.944 253.804 173.392C254.508 171.472 255.052 169.264 255.404 166.768L254.124 166.256Z" fill="white"/>
<rect x="165" y="45" width="92.5" height="26" fill="#FDBF52"/>
<path d="M182.268 51.078C180.522 51.636 177.588 52.032 175.122 52.212C175.23 52.554 175.374 53.058 175.41 53.436C177.93 53.292 180.936 52.914 182.934 52.302L182.268 51.078ZM181.854 55.722C182.25 55.11 182.7 54.21 183.132 53.328L181.98 52.878C181.728 53.634 181.242 54.66 180.846 55.326L181.854 55.722ZM177.3 55.398C177.174 54.858 176.868 54.084 176.526 53.508L175.41 53.958C175.716 54.552 176.04 55.38 176.13 55.938L177.3 55.398ZM178.452 61.014C178.434 61.464 178.398 61.896 178.344 62.274H175.068V63.534H178.056C177.642 64.83 176.742 65.676 174.78 66.234C175.086 66.504 175.482 67.062 175.626 67.422C177.372 66.882 178.398 66.09 179.01 65.01C180.162 65.73 181.404 66.648 182.034 67.296L183.006 66.27C182.25 65.532 180.738 64.56 179.514 63.84L179.568 63.534H183.06V62.274H179.802C179.856 61.878 179.892 61.446 179.91 61.014H178.452ZM180.558 58.602C180.774 58.89 180.972 59.214 181.17 59.556L178.038 59.808C179.352 58.962 180.684 57.936 181.944 56.73L180.9 55.938C180.414 56.442 179.874 56.946 179.352 57.396L177.462 57.432C178.074 56.946 178.704 56.334 179.262 55.722L178.92 55.488L180.036 55.002C179.928 54.48 179.622 53.706 179.334 53.13L178.2 53.562C178.47 54.156 178.758 54.912 178.848 55.434L178.2 54.984C177.534 55.938 176.544 56.784 176.238 57.018C175.95 57.234 175.698 57.396 175.446 57.45C175.572 57.81 175.752 58.512 175.806 58.8C176.04 58.71 176.364 58.638 177.912 58.566C177.372 58.944 176.94 59.25 176.688 59.394C176.112 59.772 175.68 60.006 175.284 60.078C175.392 60.438 175.572 61.158 175.626 61.428C176.04 61.212 176.652 61.158 181.746 60.636C181.908 60.96 182.034 61.266 182.124 61.518L183.348 60.996C183.06 60.186 182.394 58.998 181.71 58.116L180.558 58.602ZM185.508 62.958H187.416V65.082H185.508V62.958ZM187.416 57.99H185.508V55.974H187.416V57.99ZM187.416 61.536H185.508V59.412H187.416V61.536ZM191.376 65.082H188.91V62.958H190.908V61.536H188.91V59.412H190.908V57.99H188.91V55.974H191.16V54.462H188.91L189.756 54.156C189.486 53.418 188.946 52.266 188.46 51.402L187.056 51.834C187.506 52.626 187.974 53.724 188.244 54.462H185.58C185.994 53.436 186.318 52.356 186.606 51.276L185.04 50.898C184.428 53.418 183.402 55.92 182.07 57.504C182.412 57.81 182.988 58.494 183.222 58.818C183.492 58.476 183.744 58.116 183.996 57.702V67.404H185.508V66.594H191.376V65.082ZM207.216 53.85H201.726V52.698H207.216V53.85ZM207.216 56.154H201.726V54.984H207.216V56.154ZM208.872 51.474H200.142V57.378H208.872V51.474ZM198.684 52.842C198.036 52.212 196.668 51.456 195.606 51.006L194.67 52.248C195.732 52.752 197.082 53.598 197.694 54.21L198.684 52.842ZM197.766 57.504C197.1 56.928 195.732 56.208 194.67 55.794L193.734 57.054C194.832 57.522 196.164 58.314 196.794 58.908L197.766 57.504ZM196.974 60.456C196.092 62.508 194.904 64.812 194.076 66.198L195.57 67.188C196.47 65.496 197.496 63.354 198.27 61.464L196.974 60.456ZM210.312 59.682V58.314H198.522V59.682H200.826C200.052 60.96 198.918 62.148 197.73 62.94C198.072 63.192 198.648 63.678 198.9 63.948C199.566 63.444 200.25 62.796 200.862 62.076H202.302C201.402 63.606 200.052 64.992 198.63 65.91C198.954 66.162 199.53 66.684 199.782 66.954C201.366 65.784 202.932 64.02 203.976 62.076H205.416C204.732 63.876 203.616 65.46 202.248 66.504C202.59 66.702 203.202 67.17 203.454 67.422C204.912 66.162 206.19 64.254 206.982 62.076H208.134C207.954 64.524 207.738 65.496 207.468 65.784C207.324 65.964 207.18 66 206.946 65.982C206.712 65.982 206.172 65.982 205.578 65.928C205.812 66.306 205.956 66.936 205.992 67.368C206.694 67.404 207.378 67.404 207.756 67.35C208.188 67.296 208.512 67.17 208.8 66.828C209.286 66.288 209.538 64.884 209.772 61.41C209.79 61.194 209.808 60.762 209.808 60.762H201.87C202.104 60.402 202.32 60.042 202.518 59.682H210.312ZM220.104 51.15V65.208C220.104 65.568 219.978 65.676 219.6 65.694C219.222 65.712 217.908 65.712 216.684 65.658C216.954 66.144 217.242 66.936 217.35 67.404C219.06 67.422 220.212 67.368 220.932 67.098C221.634 66.81 221.922 66.324 221.922 65.208V51.15H220.104ZM224.406 55.74C225.864 58.332 227.286 61.68 227.664 63.804L229.482 63.084C229.032 60.906 227.556 57.63 226.026 55.128L224.406 55.74ZM215.442 55.272C215.028 57.648 214.074 60.744 212.562 62.616C213.012 62.778 213.75 63.192 214.164 63.498C215.73 61.5 216.738 58.242 217.332 55.614L215.442 55.272ZM247.14 63.156C245.754 62.49 243.036 61.392 241.218 60.708L240.354 62.004C242.226 62.778 244.908 63.948 246.204 64.668L247.14 63.156ZM247.896 58.998V57.342H240.3V54.858H246.15V53.256H240.3V50.916H238.536V57.342H231.858V58.998H238.59V67.404H240.354V58.998H247.896Z" fill="#573605"/>
<path d="M204.018 310.6L200.199 310.266L200.296 309.154L204.115 309.488L204.018 310.6ZM200.5 306.823L204.319 307.157L204.23 308.179L200.411 307.845L200.5 306.823ZM195.737 303.028L195.831 301.952L199.202 302.247L199.108 303.323L195.737 303.028ZM204.42 302.703L204.326 303.779L200.793 303.47L200.887 302.394L204.42 302.703ZM207.78 308.49L205.916 308.327L206.108 306.121L200.604 305.64L200.696 304.582L205.914 305.038L206.203 301.739L200.985 301.282L201.065 300.368L208.058 300.98L208.176 299.635L201.182 299.023L201.297 297.714L199.611 297.567L199.497 298.876L192.701 298.281L192.583 299.626L199.379 300.22L199.299 301.135L194.332 300.7L194.043 304L199.011 304.434L198.918 305.492L193.485 305.017L193.381 306.2L198.814 306.676L198.725 307.698L191.552 307.07L191.438 308.379L198.61 309.007L198.513 310.119L192.919 309.629L192.809 310.884L198.403 311.374L198.32 312.324C198.294 312.629 198.178 312.709 197.854 312.699C197.565 312.692 196.489 312.598 195.506 312.475C195.708 312.855 195.906 313.486 195.963 313.871C197.469 314.002 198.403 314.066 199.031 313.904C199.661 313.724 199.927 313.368 200.007 312.454L200.089 311.521L203.908 311.855L203.841 312.626L205.526 312.774L205.801 309.636L207.666 309.799L207.78 308.49Z" fill="#927858"/>
<path d="M220.331 310.941C219.248 311.776 217.136 312.63 215.349 313.057C215.716 313.332 216.195 313.85 216.46 314.189C218.271 313.615 220.43 312.486 221.601 311.408L220.331 310.941ZM224.915 311.281C226.601 311.765 228.872 312.524 230.032 312.983L231.059 311.917C229.808 311.449 227.545 310.779 225.917 310.344L224.915 311.281ZM225.043 301.801C224.833 302.29 224.48 303.007 224.178 303.485L224.841 303.626L219.946 304.054L220.734 303.768C220.554 303.368 220.156 302.735 219.753 302.264L225.043 301.801ZM223.676 308.48L223.582 307.404L229.087 306.922L228.977 305.667L223.472 306.149L223.378 305.073L229.725 304.518L229.611 303.209L225.809 303.541C226.132 303.097 226.502 302.577 226.849 302.005L225.419 301.768L230.117 301.357L230.001 300.03L227.437 300.255C227.845 299.551 228.305 298.607 228.712 297.686L226.951 297.388C226.753 298.219 226.296 299.397 225.928 300.152L226.648 300.324L224.694 300.495L224.424 297.411L222.846 297.549L223.116 300.633L221.34 300.788L221.071 297.704L219.511 297.84L219.78 300.925L217.772 301.1L218.691 300.659C218.379 299.981 217.656 298.942 217.032 298.22L215.624 298.849C216.19 299.54 216.814 300.479 217.144 301.155L214.473 301.389L214.589 302.716L219.161 302.316L218.143 302.658C218.489 303.097 218.849 303.698 219.067 304.131L215.463 304.446L215.577 305.755L221.746 305.216L221.84 306.292L216.55 306.754L216.66 308.01L221.95 307.547L222.044 308.623L215.087 309.231L215.209 310.63L222.166 310.021L222.53 314.181L224.162 314.039L223.798 309.879L230.863 309.26L230.741 307.862L223.676 308.48Z" fill="#927858"/>
<defs>
<filter id="filter0_i_114_12934" x="12" y="14" width="400" height="203" filterUnits="userSpaceOnUse" color-interpolation-filters="sRGB">
<feFlood flood-opacity="0" result="BackgroundImageFix"/>
<feBlend mode="normal" in="SourceGraphic" in2="BackgroundImageFix" result="shape"/>
<feColorMatrix in="SourceAlpha" type="matrix" values="0 0 0 0 0 0 0 0 0 0 0 0 0 0 0 0 0 0 127 0" result="hardAlpha"/>
<feOffset dy="4"/>
<feGaussianBlur stdDeviation="2"/>
<feComposite in2="hardAlpha" operator="arithmetic" k2="-1" k3="1"/>
<feColorMatrix type="matrix" values="0 0 0 0 0 0 0 0 0 0 0 0 0 0 0 0 0 0 0.35 0"/>
<feBlend mode="normal" in2="shape" result="effect1_innerShadow_114_12934"/>
</filter>
<filter id="filter1_di_114_12934" x="8" y="213" width="408" height="148" filterUnits="userSpaceOnUse" color-interpolation-filters="sRGB">
<feFlood flood-opacity="0" result="BackgroundImageFix"/>
<feColorMatrix in="SourceAlpha" type="matrix" values="0 0 0 0 0 0 0 0 0 0 0 0 0 0 0 0 0 0 127 0" result="hardAlpha"/>
<feOffset dy="4"/>
<feGaussianBlur stdDeviation="2"/>
<feComposite in2="hardAlpha" operator="out"/>
<feColorMatrix type="matrix" values="0 0 0 0 0 0 0 0 0 0 0 0 0 0 0 0 0 0 0.25 0"/>
<feBlend mode="normal" in2="BackgroundImageFix" result="effect1_dropShadow_114_12934"/>
<feBlend mode="normal" in="SourceGraphic" in2="effect1_dropShadow_114_12934" result="shape"/>
<feColorMatrix in="SourceAlpha" type="matrix" values="0 0 0 0 0 0 0 0 0 0 0 0 0 0 0 0 0 0 127 0" result="hardAlpha"/>
<feOffset dy="3"/>
<feGaussianBlur stdDeviation="4"/>
<feComposite in2="hardAlpha" operator="arithmetic" k2="-1" k3="1"/>
<feColorMatrix type="matrix" values="0 0 0 0 0 0 0 0 0 0 0 0 0 0 0 0 0 0 0.25 0"/>
<feBlend mode="normal" in2="shape" result="effect2_innerShadow_114_12934"/>
</filter>
</defs>
</svg>
