<svg width="400" height="400" viewBox="0 0 400 400" fill="none" xmlns="http://www.w3.org/2000/svg">
<g clip-path="url(#clip0_114_12904)">
<g filter="url(#filter0_d_114_12904)">
<g filter="url(#filter1_i_114_12904)">
<path d="M400 200C400 147.222 378.929 96.6055 341.421 59.2858C303.914 21.966 253.043 1 200 1C146.957 0.999996 96.0859 21.966 58.5787 59.2857C21.0714 96.6055 8.00932e-06 147.222 0 200L400 200Z" fill="#FDBF52"/>
</g>
<path d="M360 201C360 158.565 343.143 117.869 313.137 87.8629C283.131 57.8571 242.435 41 200 41C157.565 41 116.869 57.8571 86.8629 87.8629C56.8571 117.869 40 158.565 40 201" stroke="#FCDBA3" stroke-width="3"/>
<g filter="url(#filter2_i_114_12904)">
<path d="M1.74846e-05 200C1.28474e-05 253.043 21.0714 303.914 58.5786 341.421C96.0859 378.929 146.957 400 200 400C253.043 400 303.914 378.929 341.421 341.421C378.929 303.914 400 253.043 400 200L200 200L1.74846e-05 200Z" fill="#FDBF52"/>
<path d="M1.74846e-05 200C1.28474e-05 253.043 21.0714 303.914 58.5786 341.421C96.0859 378.929 146.957 400 200 400C253.043 400 303.914 378.929 341.421 341.421C378.929 303.914 400 253.043 400 200L200 200L1.74846e-05 200Z" fill="black" fill-opacity="0.2"/>
</g>
<g filter="url(#filter3_di_114_12904)">
<path d="M1.22392e-05 200C8.99315e-06 237.13 21.0714 272.74 58.5786 298.995C96.0859 325.25 146.957 340 200 340C253.043 340 303.914 325.25 341.421 298.995C378.929 272.74 400 237.13 400 200L200 200L1.22392e-05 200Z" fill="#FCDBA3"/>
</g>
<path d="M40 200C40 229.704 56.8571 258.192 86.8629 279.196C116.869 300.2 157.565 312 200 312C242.435 312 283.131 300.2 313.137 279.196C343.143 258.192 360 229.704 360 200" stroke="#FDBF52" stroke-width="3"/>
<path d="M157.292 120.552H150.476V118.568H157.292V120.552ZM150.476 114.408H157.292V116.232H150.476V114.408ZM141.452 108.424V106.504H147.468V108.424H141.452ZM156.78 106.504V108.424H150.476V106.504H156.78ZM163.628 116.232H160.3V112.296H150.476V110.408H159.788V104.52H150.476V102.888H162.956V100.488H150.476V98.152H147.468V100.488H135.34V102.888H147.468V104.52H138.604V110.408H147.468V112.296H137.772V114.408H147.468V116.232H134.668V118.568H147.468V120.552H137.484V122.792H147.468V124.488C147.468 125.032 147.276 125.192 146.7 125.224C146.188 125.256 144.268 125.256 142.508 125.192C142.924 125.832 143.372 126.92 143.532 127.592C146.22 127.592 147.884 127.56 148.972 127.176C150.06 126.76 150.476 126.088 150.476 124.456V122.792H157.292V124.168H160.3V118.568H163.628V116.232ZM177.804 121.448C175.756 122.76 171.884 123.944 168.652 124.424C169.26 124.968 170.028 125.96 170.444 126.6C173.74 125.864 177.74 124.2 179.98 122.472L177.804 121.448ZM185.868 122.76C188.78 123.88 192.684 125.576 194.668 126.568L196.652 124.84C194.508 123.816 190.604 122.28 187.788 121.256L185.868 122.76ZM187.564 105.992C187.116 106.824 186.38 108.04 185.772 108.84L186.924 109.192H178.188L179.628 108.808C179.372 108.072 178.764 106.888 178.124 105.992H187.564ZM184.108 117.608V115.688H193.932V113.448H184.108V111.528H195.436V109.192H188.652C189.292 108.456 190.028 107.592 190.732 106.632L188.236 105.992H196.62V103.624H192.044C192.876 102.44 193.836 100.84 194.7 99.272L191.628 98.472C191.148 99.912 190.156 101.928 189.388 103.208L190.636 103.624H187.148V98.12H184.332V103.624H181.164V98.12H178.38V103.624H174.796L176.492 102.984C176.044 101.736 174.924 99.784 173.932 98.408L171.34 99.304C172.236 100.616 173.196 102.376 173.676 103.624H168.908V105.992H177.068L175.212 106.44C175.756 107.272 176.3 108.392 176.62 109.192H170.188V111.528H181.196V113.448H171.756V115.688H181.196V117.608H168.78V120.104H181.196V127.528H184.108V120.104H196.716V117.608H184.108ZM223.724 113.512H211.244V110.76H223.724V113.512ZM211.148 118.792C211.212 118.024 211.244 117.256 211.244 116.552V116.008H223.724V118.792H211.148ZM230.316 104.936V102.152H214.38C214.828 101.064 215.18 99.944 215.532 98.856L212.492 98.152C212.14 99.464 211.692 100.808 211.148 102.152H202.38V104.936H209.9C207.916 108.776 205.196 112.328 201.676 114.696C202.284 115.272 203.18 116.328 203.628 117C205.356 115.784 206.892 114.344 208.268 112.712V116.488C208.268 119.464 208.012 122.952 205.324 125.416C205.9 125.832 207.084 127.08 207.468 127.752C209.356 126.024 210.348 123.688 210.828 121.288H223.724V124.04C223.724 124.52 223.564 124.68 223.02 124.68C222.476 124.712 220.556 124.712 218.668 124.616C219.052 125.416 219.5 126.696 219.596 127.496C222.252 127.496 224.044 127.496 225.164 127.016C226.316 126.568 226.636 125.672 226.636 124.072V108.136H211.5C212.108 107.112 212.652 106.024 213.196 104.936H230.316ZM259.468 108.328C258.54 111.272 257.356 113.928 255.82 116.296C255.084 113.448 254.572 109.992 254.252 106.184H264.3V103.272H261.036L262.572 101.64C261.324 100.552 258.924 99.08 257.036 98.088L255.244 99.912C256.94 100.84 259.02 102.216 260.268 103.272H254.092C253.996 101.608 253.964 99.912 253.996 98.184H250.86C250.86 99.88 250.924 101.608 251.02 103.272H237.868V112.328C237.868 116.456 237.644 121.96 235.084 125.8C235.756 126.184 237.068 127.24 237.58 127.848C240.396 123.72 240.94 117.32 240.972 112.776H246.092C245.996 117.608 245.804 119.432 245.452 119.88C245.228 120.168 244.908 120.264 244.46 120.264C243.948 120.264 242.7 120.232 241.388 120.104C241.836 120.872 242.124 122.024 242.188 122.888C243.724 122.952 245.164 122.952 245.964 122.824C246.828 122.728 247.436 122.472 248.012 121.8C248.684 120.904 248.844 118.152 249.004 111.208V110.056H240.972V106.184H251.212C251.596 111.176 252.332 115.752 253.484 119.368C251.532 121.64 249.164 123.496 246.508 124.968C247.18 125.512 248.236 126.76 248.684 127.4C250.892 126.056 252.908 124.424 254.732 122.504C256.172 125.512 258.028 127.304 260.364 127.304C262.988 127.304 264.076 125.8 264.556 120.168C263.756 119.88 262.7 119.208 261.996 118.504C261.804 122.632 261.42 124.264 260.588 124.264C259.244 124.264 257.996 122.6 256.908 119.88C259.244 116.808 261.132 113.192 262.476 109.064L259.468 108.328ZM142.22 160.424C142.284 159.784 142.316 159.112 142.316 158.504H156.012V160.424H142.22ZM156.012 154.568V156.456H142.316V154.568H156.012ZM159.052 152.328H139.404V158.024C139.404 160.456 139.212 163.528 137.42 165.736C138.06 166.152 139.276 167.304 139.692 167.912C140.94 166.408 141.612 164.424 141.964 162.44H156.012V164.456C156.012 164.936 155.852 165.064 155.308 165.096C154.828 165.096 152.844 165.096 151.084 165.032C151.436 165.704 151.852 166.728 151.98 167.432C154.604 167.432 156.396 167.432 157.548 167.048C158.668 166.664 159.052 165.96 159.052 164.488V152.328ZM150.508 148.328V146.344H160.076V144.168H150.508V142.376H161.42V140.072H150.508V138.152H147.5V140.072H137.068V142.376H147.5V144.168H138.22V146.344H147.5V148.328H135.116V150.632H163.084V148.328H150.508ZM171.724 144.68H181.196V153.352H184.108V144.68H193.612V149.384H196.364V142.696H184.108V141.256H194.316V139.048H171.052V141.256H181.196V142.696H169.068V149.384H171.724V144.68ZM172.524 154.152C174.764 153.32 177.484 152.232 180.108 151.176L179.756 149.16C176.716 150.184 173.612 151.176 171.5 151.784L172.524 154.152ZM172.684 146.76C174.732 147.368 177.452 148.456 178.86 149.128L179.948 147.272C178.508 146.632 175.756 145.64 173.772 145.096L172.684 146.76ZM193.292 154.728H172.14V156.936H193.292V154.728ZM185.196 151.016C187.788 151.848 191.276 153.16 193.068 154.024L194.028 152.008C192.172 151.112 188.652 149.928 186.156 149.192L185.196 151.016ZM191.596 145.16C189.932 145.896 187.02 147.016 185.068 147.496L186.22 149.16C188.172 148.68 190.956 147.912 192.972 146.984L191.596 145.16ZM176.364 164.328C177.644 163.368 178.924 162.248 180.14 161.096H187.788L186.38 161.736C187.244 162.344 188.172 163.112 189.068 163.88L176.364 164.328ZM196.972 158.792H168.46V161.096H176.14C174.956 162.216 173.804 163.144 173.292 163.432C172.588 163.976 172.012 164.328 171.436 164.424C171.788 165.192 172.236 166.632 172.396 167.24C173.58 166.824 175.308 166.792 191.436 166.056C192.044 166.664 192.588 167.208 192.94 167.688L195.628 166.408C194.252 164.904 191.66 162.728 189.484 161.096H196.972V158.792ZM209.132 161.384H223.532V163.752H209.132V161.384ZM223.532 147.976V150.216H209.132V147.976H223.532ZM223.532 154.6H209.132V152.456H223.532V154.6ZM209.132 156.84H223.532V159.144H209.132V156.84ZM226.54 163.752V145.512H216.588C216.748 144.808 216.908 144.104 217.036 143.336H229.868V140.712H217.516L217.932 138.408L214.636 138.12C214.572 138.888 214.508 139.816 214.38 140.712H202.764V143.336H214.06C213.964 144.104 213.836 144.84 213.708 145.512H206.252V163.752H201.9V166.472H230.764V163.752H226.54ZM250.476 162.984V151.08H262.028V148.104H250.476V138.6H247.276V162.984H235.596V165.992H264.236V162.984H250.476Z" fill="white"/>
<rect x="153" y="32" width="92.5" height="26" fill="#FDBF52"/>
<path d="M170.268 38.078C168.522 38.636 165.588 39.032 163.122 39.212C163.23 39.554 163.374 40.058 163.41 40.436C165.93 40.292 168.936 39.914 170.934 39.302L170.268 38.078ZM169.854 42.722C170.25 42.11 170.7 41.21 171.132 40.328L169.98 39.878C169.728 40.634 169.242 41.66 168.846 42.326L169.854 42.722ZM165.3 42.398C165.174 41.858 164.868 41.084 164.526 40.508L163.41 40.958C163.716 41.552 164.04 42.38 164.13 42.938L165.3 42.398ZM166.452 48.014C166.434 48.464 166.398 48.896 166.344 49.274H163.068V50.534H166.056C165.642 51.83 164.742 52.676 162.78 53.234C163.086 53.504 163.482 54.062 163.626 54.422C165.372 53.882 166.398 53.09 167.01 52.01C168.162 52.73 169.404 53.648 170.034 54.296L171.006 53.27C170.25 52.532 168.738 51.56 167.514 50.84L167.568 50.534H171.06V49.274H167.802C167.856 48.878 167.892 48.446 167.91 48.014H166.452ZM168.558 45.602C168.774 45.89 168.972 46.214 169.17 46.556L166.038 46.808C167.352 45.962 168.684 44.936 169.944 43.73L168.9 42.938C168.414 43.442 167.874 43.946 167.352 44.396L165.462 44.432C166.074 43.946 166.704 43.334 167.262 42.722L166.92 42.488L168.036 42.002C167.928 41.48 167.622 40.706 167.334 40.13L166.2 40.562C166.47 41.156 166.758 41.912 166.848 42.434L166.2 41.984C165.534 42.938 164.544 43.784 164.238 44.018C163.95 44.234 163.698 44.396 163.446 44.45C163.572 44.81 163.752 45.512 163.806 45.8C164.04 45.71 164.364 45.638 165.912 45.566C165.372 45.944 164.94 46.25 164.688 46.394C164.112 46.772 163.68 47.006 163.284 47.078C163.392 47.438 163.572 48.158 163.626 48.428C164.04 48.212 164.652 48.158 169.746 47.636C169.908 47.96 170.034 48.266 170.124 48.518L171.348 47.996C171.06 47.186 170.394 45.998 169.71 45.116L168.558 45.602ZM173.508 49.958H175.416V52.082H173.508V49.958ZM175.416 44.99H173.508V42.974H175.416V44.99ZM175.416 48.536H173.508V46.412H175.416V48.536ZM179.376 52.082H176.91V49.958H178.908V48.536H176.91V46.412H178.908V44.99H176.91V42.974H179.16V41.462H176.91L177.756 41.156C177.486 40.418 176.946 39.266 176.46 38.402L175.056 38.834C175.506 39.626 175.974 40.724 176.244 41.462H173.58C173.994 40.436 174.318 39.356 174.606 38.276L173.04 37.898C172.428 40.418 171.402 42.92 170.07 44.504C170.412 44.81 170.988 45.494 171.222 45.818C171.492 45.476 171.744 45.116 171.996 44.702V54.404H173.508V53.594H179.376V52.082ZM195.216 40.85H189.726V39.698H195.216V40.85ZM195.216 43.154H189.726V41.984H195.216V43.154ZM196.872 38.474H188.142V44.378H196.872V38.474ZM186.684 39.842C186.036 39.212 184.668 38.456 183.606 38.006L182.67 39.248C183.732 39.752 185.082 40.598 185.694 41.21L186.684 39.842ZM185.766 44.504C185.1 43.928 183.732 43.208 182.67 42.794L181.734 44.054C182.832 44.522 184.164 45.314 184.794 45.908L185.766 44.504ZM184.974 47.456C184.092 49.508 182.904 51.812 182.076 53.198L183.57 54.188C184.47 52.496 185.496 50.354 186.27 48.464L184.974 47.456ZM198.312 46.682V45.314H186.522V46.682H188.826C188.052 47.96 186.918 49.148 185.73 49.94C186.072 50.192 186.648 50.678 186.9 50.948C187.566 50.444 188.25 49.796 188.862 49.076H190.302C189.402 50.606 188.052 51.992 186.63 52.91C186.954 53.162 187.53 53.684 187.782 53.954C189.366 52.784 190.932 51.02 191.976 49.076H193.416C192.732 50.876 191.616 52.46 190.248 53.504C190.59 53.702 191.202 54.17 191.454 54.422C192.912 53.162 194.19 51.254 194.982 49.076H196.134C195.954 51.524 195.738 52.496 195.468 52.784C195.324 52.964 195.18 53 194.946 52.982C194.712 52.982 194.172 52.982 193.578 52.928C193.812 53.306 193.956 53.936 193.992 54.368C194.694 54.404 195.378 54.404 195.756 54.35C196.188 54.296 196.512 54.17 196.8 53.828C197.286 53.288 197.538 51.884 197.772 48.41C197.79 48.194 197.808 47.762 197.808 47.762H189.87C190.104 47.402 190.32 47.042 190.518 46.682H198.312ZM208.104 38.15V52.208C208.104 52.568 207.978 52.676 207.6 52.694C207.222 52.712 205.908 52.712 204.684 52.658C204.954 53.144 205.242 53.936 205.35 54.404C207.06 54.422 208.212 54.368 208.932 54.098C209.634 53.81 209.922 53.324 209.922 52.208V38.15H208.104ZM212.406 42.74C213.864 45.332 215.286 48.68 215.664 50.804L217.482 50.084C217.032 47.906 215.556 44.63 214.026 42.128L212.406 42.74ZM203.442 42.272C203.028 44.648 202.074 47.744 200.562 49.616C201.012 49.778 201.75 50.192 202.164 50.498C203.73 48.5 204.738 45.242 205.332 42.614L203.442 42.272ZM235.14 50.156C233.754 49.49 231.036 48.392 229.218 47.708L228.354 49.004C230.226 49.778 232.908 50.948 234.204 51.668L235.14 50.156ZM235.896 45.998V44.342H228.3V41.858H234.15V40.256H228.3V37.916H226.536V44.342H219.858V45.998H226.59V54.404H228.354V45.998H235.896Z" fill="#573605"/>
<path d="M192.018 297.6L188.199 297.266L188.296 296.154L192.115 296.488L192.018 297.6ZM188.5 293.823L192.319 294.157L192.23 295.179L188.411 294.845L188.5 293.823ZM183.737 290.028L183.831 288.952L187.202 289.247L187.108 290.323L183.737 290.028ZM192.42 289.703L192.326 290.779L188.793 290.47L188.887 289.394L192.42 289.703ZM195.78 295.49L193.916 295.327L194.108 293.121L188.604 292.64L188.696 291.582L193.914 292.038L194.203 288.739L188.985 288.282L189.065 287.368L196.058 287.98L196.176 286.635L189.182 286.023L189.297 284.714L187.611 284.567L187.497 285.876L180.701 285.281L180.583 286.626L187.379 287.22L187.299 288.135L182.332 287.7L182.043 291L187.011 291.434L186.918 292.492L181.485 292.017L181.381 293.2L186.814 293.676L186.725 294.698L179.552 294.07L179.438 295.379L186.61 296.007L186.513 297.119L180.919 296.629L180.809 297.884L186.403 298.374L186.32 299.324C186.294 299.629 186.178 299.709 185.854 299.699C185.565 299.692 184.489 299.598 183.506 299.475C183.708 299.855 183.906 300.486 183.963 300.871C185.469 301.002 186.403 301.066 187.031 300.904C187.661 300.724 187.927 300.368 188.007 299.454L188.089 298.521L191.908 298.855L191.841 299.626L193.526 299.774L193.801 296.636L195.666 296.799L195.78 295.49Z" fill="#927858"/>
<path d="M208.331 297.941C207.248 298.776 205.136 299.63 203.349 300.057C203.716 300.332 204.195 300.85 204.46 301.189C206.271 300.615 208.43 299.486 209.601 298.408L208.331 297.941ZM212.915 298.281C214.601 298.765 216.872 299.524 218.032 299.983L219.059 298.917C217.808 298.449 215.545 297.779 213.917 297.344L212.915 298.281ZM213.043 288.801C212.833 289.29 212.48 290.007 212.178 290.485L212.841 290.626L207.946 291.054L208.734 290.768C208.554 290.368 208.156 289.735 207.753 289.264L213.043 288.801ZM211.676 295.48L211.582 294.404L217.087 293.922L216.977 292.667L211.472 293.149L211.378 292.073L217.725 291.518L217.611 290.209L213.809 290.541C214.132 290.097 214.502 289.577 214.849 289.005L213.419 288.768L218.117 288.357L218.001 287.03L215.437 287.255C215.845 286.551 216.305 285.607 216.712 284.686L214.951 284.388C214.753 285.219 214.296 286.397 213.928 287.152L214.648 287.324L212.694 287.495L212.424 284.411L210.846 284.549L211.116 287.633L209.34 287.788L209.071 284.704L207.511 284.84L207.78 287.925L205.772 288.1L206.691 287.659C206.379 286.981 205.656 285.942 205.032 285.22L203.624 285.849C204.19 286.54 204.814 287.479 205.144 288.155L202.473 288.389L202.589 289.716L207.161 289.316L206.143 289.658C206.489 290.097 206.849 290.698 207.067 291.131L203.463 291.446L203.577 292.755L209.746 292.216L209.84 293.292L204.55 293.754L204.66 295.01L209.95 294.547L210.044 295.623L203.087 296.231L203.209 297.63L210.166 297.021L210.53 301.181L212.162 301.039L211.798 296.879L218.863 296.26L218.741 294.862L211.676 295.48Z" fill="#927858"/>
</g>
</g>
<defs>
<filter id="filter0_d_114_12904" x="-4" y="1" width="408" height="407" filterUnits="userSpaceOnUse" color-interpolation-filters="sRGB">
<feFlood flood-opacity="0" result="BackgroundImageFix"/>
<feColorMatrix in="SourceAlpha" type="matrix" values="0 0 0 0 0 0 0 0 0 0 0 0 0 0 0 0 0 0 127 0" result="hardAlpha"/>
<feOffset dy="4"/>
<feGaussianBlur stdDeviation="2"/>
<feComposite in2="hardAlpha" operator="out"/>
<feColorMatrix type="matrix" values="0 0 0 0 0 0 0 0 0 0 0 0 0 0 0 0 0 0 0.25 0"/>
<feBlend mode="normal" in2="BackgroundImageFix" result="effect1_dropShadow_114_12904"/>
<feBlend mode="normal" in="SourceGraphic" in2="effect1_dropShadow_114_12904" result="shape"/>
</filter>
<filter id="filter1_i_114_12904" x="0" y="1" width="400" height="203" filterUnits="userSpaceOnUse" color-interpolation-filters="sRGB">
<feFlood flood-opacity="0" result="BackgroundImageFix"/>
<feBlend mode="normal" in="SourceGraphic" in2="BackgroundImageFix" result="shape"/>
<feColorMatrix in="SourceAlpha" type="matrix" values="0 0 0 0 0 0 0 0 0 0 0 0 0 0 0 0 0 0 127 0" result="hardAlpha"/>
<feOffset dy="4"/>
<feGaussianBlur stdDeviation="2"/>
<feComposite in2="hardAlpha" operator="arithmetic" k2="-1" k3="1"/>
<feColorMatrix type="matrix" values="0 0 0 0 0 0 0 0 0 0 0 0 0 0 0 0 0 0 0.35 0"/>
<feBlend mode="normal" in2="shape" result="effect1_innerShadow_114_12904"/>
</filter>
<filter id="filter2_i_114_12904" x="0" y="198" width="400" height="202" filterUnits="userSpaceOnUse" color-interpolation-filters="sRGB">
<feFlood flood-opacity="0" result="BackgroundImageFix"/>
<feBlend mode="normal" in="SourceGraphic" in2="BackgroundImageFix" result="shape"/>
<feColorMatrix in="SourceAlpha" type="matrix" values="0 0 0 0 0 0 0 0 0 0 0 0 0 0 0 0 0 0 127 0" result="hardAlpha"/>
<feOffset dy="-2"/>
<feGaussianBlur stdDeviation="2"/>
<feComposite in2="hardAlpha" operator="arithmetic" k2="-1" k3="1"/>
<feColorMatrix type="matrix" values="0 0 0 0 0 0 0 0 0 0 0 0 0 0 0 0 0 0 0.25 0"/>
<feBlend mode="normal" in2="shape" result="effect1_innerShadow_114_12904"/>
</filter>
<filter id="filter3_di_114_12904" x="-8" y="200" width="416" height="158" filterUnits="userSpaceOnUse" color-interpolation-filters="sRGB">
<feFlood flood-opacity="0" result="BackgroundImageFix"/>
<feColorMatrix in="SourceAlpha" type="matrix" values="0 0 0 0 0 0 0 0 0 0 0 0 0 0 0 0 0 0 127 0" result="hardAlpha"/>
<feOffset dy="10"/>
<feGaussianBlur stdDeviation="4"/>
<feComposite in2="hardAlpha" operator="out"/>
<feColorMatrix type="matrix" values="0 0 0 0 0 0 0 0 0 0 0 0 0 0 0 0 0 0 0.25 0"/>
<feBlend mode="normal" in2="BackgroundImageFix" result="effect1_dropShadow_114_12904"/>
<feBlend mode="normal" in="SourceGraphic" in2="effect1_dropShadow_114_12904" result="shape"/>
<feColorMatrix in="SourceAlpha" type="matrix" values="0 0 0 0 0 0 0 0 0 0 0 0 0 0 0 0 0 0 127 0" result="hardAlpha"/>
<feOffset dy="3"/>
<feGaussianBlur stdDeviation="4"/>
<feComposite in2="hardAlpha" operator="arithmetic" k2="-1" k3="1"/>
<feColorMatrix type="matrix" values="0 0 0 0 0 0 0 0 0 0 0 0 0 0 0 0 0 0 0.25 0"/>
<feBlend mode="normal" in2="shape" result="effect2_innerShadow_114_12904"/>
</filter>
<clipPath id="clip0_114_12904">
<rect width="400" height="400" fill="white"/>
</clipPath>
</defs>
</svg>
