<svg width="400" height="400" viewBox="0 0 400 400" fill="none" xmlns="http://www.w3.org/2000/svg">
<g clip-path="url(#clip0_114_12934)">
<g filter="url(#filter0_d_114_12934)">
<g filter="url(#filter1_i_114_12934)">
<path d="M400 200C400 147.222 378.929 96.6055 341.421 59.2858C303.914 21.966 253.043 1 200 1C146.957 0.999996 96.0859 21.966 58.5787 59.2857C21.0714 96.6055 8.00932e-06 147.222 0 200L400 200Z" fill="#FDBF52"/>
</g>
<path d="M360 201C360 158.565 343.143 117.869 313.137 87.8629C283.131 57.8571 242.435 41 200 41C157.565 41 116.869 57.8571 86.8629 87.8629C56.8571 117.869 40 158.565 40 201" stroke="#FCDBA3" stroke-width="3"/>
<g filter="url(#filter2_i_114_12934)">
<path d="M1.74846e-05 200C1.28474e-05 253.043 21.0714 303.914 58.5786 341.421C96.0859 378.929 146.957 400 200 400C253.043 400 303.914 378.929 341.421 341.421C378.929 303.914 400 253.043 400 200L200 200L1.74846e-05 200Z" fill="#FDBF52"/>
<path d="M1.74846e-05 200C1.28474e-05 253.043 21.0714 303.914 58.5786 341.421C96.0859 378.929 146.957 400 200 400C253.043 400 303.914 378.929 341.421 341.421C378.929 303.914 400 253.043 400 200L200 200L1.74846e-05 200Z" fill="black" fill-opacity="0.2"/>
</g>
<g filter="url(#filter3_di_114_12934)">
<path d="M1.22392e-05 200C8.99315e-06 237.13 21.0714 272.74 58.5786 298.995C96.0859 325.25 146.957 340 200 340C253.043 340 303.914 325.25 341.421 298.995C378.929 272.74 400 237.13 400 200L200 200L1.22392e-05 200Z" fill="#FCDBA3"/>
</g>
<path d="M40 200C40 229.704 56.8571 258.192 86.8629 279.196C116.869 300.2 157.565 312 200 312C242.435 312 283.131 300.2 313.137 279.196C343.143 258.192 360 229.704 360 200" stroke="#FDBF52" stroke-width="3"/>
<path d="M142.06 102.824C141.548 101.608 140.46 99.784 139.564 98.344L137.196 99.368C138.06 100.808 139.148 102.76 139.66 104.008L142.06 102.824ZM153.164 115.752V118.536H149.068V115.752H153.164ZM160.14 118.536H155.852V115.752H160.14V118.536ZM155.852 123.688V120.808H160.14V123.688H155.852ZM149.068 120.808H153.164V123.688H149.068V120.808ZM146.316 114.888C145.42 114.056 143.596 112.424 142.668 111.656C144.076 109.608 145.292 107.336 146.156 105L144.492 103.976L143.98 104.072H134.956V106.76H142.476C140.524 110.728 137.132 114.472 133.772 116.584C134.22 117.096 134.988 118.536 135.212 119.336C136.524 118.408 137.804 117.32 139.052 116.04V127.528H141.964V114.248C143.052 115.368 144.268 116.776 144.908 117.608L146.316 115.656V127.496H149.068V126.088H160.14V127.432H162.988V113.32H146.316V114.888ZM158.828 109.224H150.604V106.248H158.828V109.224ZM147.948 103.912V111.56H161.58V103.912H147.948ZM146.156 99.624V102.152H163.148V99.624H146.156ZM172.14 103.624H193.164V107.336H196.172V100.936H184.94C184.46 99.944 183.756 98.76 183.212 97.864L180.268 98.568C180.652 99.304 181.1 100.136 181.516 100.936H169.228V107.336H172.14V103.624ZM176.556 117.704C178.732 116.968 180.78 116.104 182.7 115.08C184.748 116.136 186.924 117 189.324 117.704H176.556ZM176.876 124.008V120.168H188.62V124.008H176.876ZM178.604 108.456H187.18C185.996 109.736 184.492 110.856 182.764 111.912C181.036 110.92 179.564 109.832 178.412 108.616L178.604 108.456ZM189.676 106.024L189.196 106.152H180.748C181.196 105.608 181.644 105.096 182.028 104.52L178.86 103.912C177.26 106.312 174.22 108.968 169.836 110.76C170.476 111.24 171.404 112.296 171.788 112.968C173.484 112.168 174.988 111.272 176.3 110.312C177.388 111.432 178.604 112.456 179.916 113.384C176.268 115.112 172.012 116.296 167.916 116.968C168.428 117.64 169.068 118.824 169.324 119.592C170.86 119.304 172.428 118.952 173.964 118.504V127.496H176.876V126.472H188.62V127.432H191.692V118.312C192.972 118.632 194.284 118.888 195.628 119.08C196.044 118.248 196.908 116.936 197.548 116.232C193.196 115.72 189.132 114.76 185.644 113.32C188.108 111.624 190.22 109.608 191.724 107.272L189.676 106.024ZM216.14 106.856C215.724 107.912 215.244 108.872 214.604 109.704C213.516 109.064 212.364 108.456 211.308 107.976L209.58 109.576C210.7 110.088 211.852 110.696 212.972 111.4C211.724 112.456 210.188 113.256 208.46 113.768C208.972 114.184 209.804 115.208 210.156 115.784C212.044 115.08 213.74 114.152 215.116 112.84C216.332 113.672 217.388 114.536 218.188 115.336L219.948 113.512C219.116 112.776 217.996 111.912 216.684 111.016C217.836 109.416 218.668 107.432 219.244 104.968L217.708 104.488L217.26 104.52H210.636C210.796 103.72 210.956 102.952 211.084 102.088H221.228C220.78 104.104 220.268 106.184 219.852 107.688H226.38C226.028 110.696 225.676 112.04 225.196 112.488C224.908 112.744 224.588 112.744 224.076 112.744C223.468 112.744 221.996 112.744 220.492 112.616C220.972 113.32 221.292 114.376 221.388 115.144C222.956 115.208 224.46 115.24 225.324 115.144C226.284 115.08 226.956 114.888 227.564 114.248C228.46 113.416 228.876 111.304 229.356 106.344C229.42 105.96 229.452 105.224 229.452 105.224H223.308C223.724 103.432 224.204 101.416 224.588 99.624H202.892V102.088H208.204C207.34 107.624 205.356 111.816 201.484 114.344C202.124 114.76 203.276 115.848 203.692 116.36C206.7 114.088 208.748 110.952 209.996 106.856H216.14ZM208.14 118.856H211.692V124.04H208.14V118.856ZM217.996 118.856V124.04H214.412V118.856H217.996ZM224.364 118.856V124.04H220.716V118.856H224.364ZM227.276 124.04V116.488H205.356V124.04H201.868V126.632H230.764V124.04H227.276ZM245.708 102.024V104.296H239.756V102.024H245.708ZM239.756 109V106.504H245.708V109H239.756ZM248.492 99.528H236.812V127.496H239.756V111.432H248.492V99.528ZM253.964 109.064V106.504H260.14V109.064H253.964ZM260.14 102.024V104.296H253.964V102.024H260.14ZM263.18 99.528H251.116V111.464H260.14V123.688C260.14 124.264 259.948 124.456 259.308 124.488C258.668 124.488 256.428 124.52 254.316 124.424C254.764 125.256 255.276 126.664 255.372 127.496C258.348 127.496 260.3 127.432 261.548 126.952C262.764 126.44 263.18 125.544 263.18 123.688V99.528ZM163.02 145.544C162.028 144.936 160.588 144.296 159.084 143.656C160.172 142.856 161.388 141.8 162.508 140.84L160.012 139.56C159.276 140.52 157.996 141.832 156.94 142.856L156.172 142.568C156.012 141.672 155.948 140.68 155.884 139.72H136.492V142.408H153.452C154.124 147.656 155.692 152.072 160.652 152.68C162.38 152.968 163.404 151.976 163.82 149.288C163.276 148.936 162.604 148.264 162.06 147.688C161.9 149.256 161.676 150.152 161.26 150.088C158.828 149.896 157.452 147.912 156.716 145.224C158.572 145.992 160.396 146.888 161.484 147.592L163.02 145.544ZM163.276 159.144C162.316 158.536 160.908 157.832 159.404 157.16C160.492 156.392 161.74 155.432 162.892 154.536L160.332 153.256C159.596 154.088 158.316 155.336 157.196 156.264L156.588 156.008C156.46 154.6 156.396 153.096 156.364 151.592H149.452V143.336H146.572V151.592H141.932V147.048C143.5 146.6 145.036 146.12 146.348 145.576L144.108 143.304C141.868 144.488 138.316 145.544 135.084 146.216C135.468 146.824 135.948 147.752 136.108 148.392C137.068 148.2 138.124 147.976 139.116 147.752V151.592H134.732V154.312H139.052C138.828 158.12 137.9 162.12 134.156 165.384C134.892 165.832 135.916 166.76 136.428 167.4C140.652 163.624 141.676 158.792 141.9 154.312H146.572V167.176H149.452V154.312H153.708C154.092 161.16 155.276 166.856 160.716 167.528C162.604 167.88 163.596 166.696 164.012 163.4C163.468 163.048 162.764 162.344 162.252 161.704C162.06 163.656 161.836 164.872 161.388 164.808C158.828 164.616 157.548 162.12 156.94 158.6C158.764 159.464 160.62 160.424 161.708 161.192L163.276 159.144ZM186.86 142.664V144.552H178.668V142.664H186.86ZM175.756 146.632H189.868V142.664H195.596V140.36H189.868V138.12H186.86V140.36H178.668V138.12H175.756V140.36H170.06V142.664H175.756V146.632ZM197.036 147.976H168.46V150.504H197.036V147.976ZM174.924 157.992H181.132V160.136H174.924V157.992ZM174.924 153.896H181.132V156.04H174.924V153.896ZM190.668 156.04H184.076V153.896H190.668V156.04ZM190.668 160.136H184.076V157.992H190.668V160.136ZM193.676 162.216V151.816H172.044V162.216H177.132C174.988 163.432 171.18 164.808 168.012 165.576C168.652 166.12 169.612 167.016 170.092 167.592C173.292 166.76 177.324 165.256 179.916 163.752L177.612 162.216H187.34L185.516 163.88C189.036 165.032 192.684 166.472 194.764 167.528L197.42 165.608C195.116 164.616 191.436 163.24 188.012 162.216H193.676ZM213.42 167.336C214.54 166.088 215.308 164.04 215.66 162.28L213.58 161.928C213.228 163.528 212.428 165.32 211.468 166.344L213.42 167.336ZM216.588 162.792C216.876 164.104 217.1 165.8 217.132 166.92L219.052 166.568C218.956 165.48 218.7 163.816 218.38 162.504L216.588 162.792ZM219.66 162.6C220.108 163.752 220.652 165.256 220.844 166.216L222.54 165.64C222.316 164.744 221.74 163.272 221.26 162.184L219.66 162.6ZM220.46 153.672H216.972V152.36H220.46V153.672ZM220.46 156.616H216.972V155.208H220.46V156.616ZM220.46 159.592H216.972V158.152H220.46V159.592ZM223.628 148.68C223.98 149.288 224.396 149.928 224.876 150.504H217.26C217.74 149.928 218.124 149.32 218.54 148.68H223.628ZM205.58 154.152C205.644 152.936 205.644 151.784 205.644 150.728V149.352H208.62V154.152H205.58ZM208.62 142.024V146.632H205.644V142.024H208.62ZM226.572 152.36C227.468 153.16 228.428 153.832 229.484 154.312C229.9 153.64 230.668 152.712 231.276 152.2C229.388 151.496 227.692 150.184 226.476 148.68H230.7V146.44H219.724C220.012 145.8 220.268 145.192 220.524 144.52H229.836V142.344H226.604C227.18 141.448 227.788 140.2 228.46 139.016L225.676 138.312C225.324 139.368 224.652 140.904 224.172 141.896L225.612 142.344H221.228C221.548 141.128 221.836 139.816 222.092 138.408L219.5 138.152C219.276 139.656 218.956 141.032 218.54 142.344H215.084L216.876 141.736C216.652 140.808 216.076 139.464 215.404 138.408L213.196 139.112C213.772 140.072 214.284 141.416 214.508 142.344H212.556V144.52H217.804C217.516 145.192 217.228 145.832 216.876 146.44H211.724V148.68H215.404C214.252 150.152 212.812 151.4 211.084 152.392V139.304H203.244V150.728C203.244 155.368 203.148 161.8 201.484 166.28C202.124 166.504 203.18 167.08 203.66 167.464C204.748 164.52 205.26 160.616 205.516 156.904H208.62V164.296C208.62 164.712 208.492 164.808 208.108 164.84C207.82 164.84 206.764 164.872 205.644 164.808C205.964 165.48 206.284 166.664 206.348 167.336C208.14 167.336 209.292 167.272 210.092 166.792C210.828 166.376 211.084 165.608 211.084 164.328V152.936C211.596 153.48 212.204 154.28 212.46 154.728C213.164 154.312 213.804 153.832 214.412 153.384V161.448H227.34C227.116 163.88 226.86 164.904 226.572 165.256C226.38 165.48 226.156 165.512 225.772 165.512C225.42 165.512 224.62 165.512 223.66 165.384C223.948 165.96 224.172 166.824 224.236 167.432C225.324 167.496 226.476 167.496 227.02 167.432C227.724 167.4 228.236 167.176 228.684 166.696C229.324 166.056 229.644 164.392 229.932 160.52C229.996 160.232 230.028 159.592 230.028 159.592H222.796V158.152H227.564V156.616H222.796V155.208H227.532V153.672H222.796V152.36H226.572ZM225.772 164.072C225.42 163.432 224.716 162.376 224.012 161.608L222.636 162.28C223.276 163.08 223.948 164.168 224.268 164.872L225.772 164.072ZM257.26 149.992H249.964L251.5 149.608C251.34 148.84 250.828 147.656 250.22 146.76H257.26C256.908 147.656 256.364 148.808 255.98 149.608L257.26 149.992ZM247.5 147.08C248.044 147.944 248.524 149.128 248.716 149.992H244.684V152.2H252.428V154.024H245.74V156.168H252.428V158.152H244.428V160.36H252.428V163.528H255.372V160.36H263.692V158.152H255.372V156.168H262.252V154.024H255.372V152.2H263.5V149.992H258.572C259.084 149.192 259.66 148.136 260.3 147.112L258.956 146.76H263.884V144.52H255.372V142.504H261.996V140.328H255.372V138.152H252.428V140.328H245.836V142.504H252.428V144.52H243.98V146.76H248.844L247.5 147.08ZM242.54 143.016C241.708 141.736 240.076 139.688 238.7 138.152L236.428 139.496C237.74 141.064 239.404 143.272 240.204 144.616L242.54 143.016ZM242.124 153.256L241.612 153.32H238.956C240.556 151.144 242.572 147.944 243.724 146.12L241.836 145.384L241.516 145.512H235.468V147.912H239.756C238.572 149.8 237.1 152.008 236.492 152.68C235.98 153.256 235.468 153.48 234.988 153.608C235.276 154.152 235.852 155.464 235.98 156.136C236.236 155.88 237.132 155.656 237.868 155.656H240.46C239.5 160.264 237.612 163.656 234.956 165.576C235.564 165.992 236.524 166.984 236.94 167.592C238.412 166.44 239.692 164.904 240.716 162.856C243.212 166.376 247.084 167.016 253.292 167.016C256.876 167.016 260.876 166.92 263.98 166.728C264.14 165.96 264.524 164.616 264.972 163.976C261.58 164.296 256.684 164.456 253.324 164.456C247.628 164.456 243.788 163.944 241.804 160.392C242.508 158.472 243.052 156.264 243.404 153.768L242.124 153.256Z" fill="white"/>
<rect x="153" y="32" width="92.5" height="26" fill="#FDBF52"/>
<path d="M170.268 38.078C168.522 38.636 165.588 39.032 163.122 39.212C163.23 39.554 163.374 40.058 163.41 40.436C165.93 40.292 168.936 39.914 170.934 39.302L170.268 38.078ZM169.854 42.722C170.25 42.11 170.7 41.21 171.132 40.328L169.98 39.878C169.728 40.634 169.242 41.66 168.846 42.326L169.854 42.722ZM165.3 42.398C165.174 41.858 164.868 41.084 164.526 40.508L163.41 40.958C163.716 41.552 164.04 42.38 164.13 42.938L165.3 42.398ZM166.452 48.014C166.434 48.464 166.398 48.896 166.344 49.274H163.068V50.534H166.056C165.642 51.83 164.742 52.676 162.78 53.234C163.086 53.504 163.482 54.062 163.626 54.422C165.372 53.882 166.398 53.09 167.01 52.01C168.162 52.73 169.404 53.648 170.034 54.296L171.006 53.27C170.25 52.532 168.738 51.56 167.514 50.84L167.568 50.534H171.06V49.274H167.802C167.856 48.878 167.892 48.446 167.91 48.014H166.452ZM168.558 45.602C168.774 45.89 168.972 46.214 169.17 46.556L166.038 46.808C167.352 45.962 168.684 44.936 169.944 43.73L168.9 42.938C168.414 43.442 167.874 43.946 167.352 44.396L165.462 44.432C166.074 43.946 166.704 43.334 167.262 42.722L166.92 42.488L168.036 42.002C167.928 41.48 167.622 40.706 167.334 40.13L166.2 40.562C166.47 41.156 166.758 41.912 166.848 42.434L166.2 41.984C165.534 42.938 164.544 43.784 164.238 44.018C163.95 44.234 163.698 44.396 163.446 44.45C163.572 44.81 163.752 45.512 163.806 45.8C164.04 45.71 164.364 45.638 165.912 45.566C165.372 45.944 164.94 46.25 164.688 46.394C164.112 46.772 163.68 47.006 163.284 47.078C163.392 47.438 163.572 48.158 163.626 48.428C164.04 48.212 164.652 48.158 169.746 47.636C169.908 47.96 170.034 48.266 170.124 48.518L171.348 47.996C171.06 47.186 170.394 45.998 169.71 45.116L168.558 45.602ZM173.508 49.958H175.416V52.082H173.508V49.958ZM175.416 44.99H173.508V42.974H175.416V44.99ZM175.416 48.536H173.508V46.412H175.416V48.536ZM179.376 52.082H176.91V49.958H178.908V48.536H176.91V46.412H178.908V44.99H176.91V42.974H179.16V41.462H176.91L177.756 41.156C177.486 40.418 176.946 39.266 176.46 38.402L175.056 38.834C175.506 39.626 175.974 40.724 176.244 41.462H173.58C173.994 40.436 174.318 39.356 174.606 38.276L173.04 37.898C172.428 40.418 171.402 42.92 170.07 44.504C170.412 44.81 170.988 45.494 171.222 45.818C171.492 45.476 171.744 45.116 171.996 44.702V54.404H173.508V53.594H179.376V52.082ZM195.216 40.85H189.726V39.698H195.216V40.85ZM195.216 43.154H189.726V41.984H195.216V43.154ZM196.872 38.474H188.142V44.378H196.872V38.474ZM186.684 39.842C186.036 39.212 184.668 38.456 183.606 38.006L182.67 39.248C183.732 39.752 185.082 40.598 185.694 41.21L186.684 39.842ZM185.766 44.504C185.1 43.928 183.732 43.208 182.67 42.794L181.734 44.054C182.832 44.522 184.164 45.314 184.794 45.908L185.766 44.504ZM184.974 47.456C184.092 49.508 182.904 51.812 182.076 53.198L183.57 54.188C184.47 52.496 185.496 50.354 186.27 48.464L184.974 47.456ZM198.312 46.682V45.314H186.522V46.682H188.826C188.052 47.96 186.918 49.148 185.73 49.94C186.072 50.192 186.648 50.678 186.9 50.948C187.566 50.444 188.25 49.796 188.862 49.076H190.302C189.402 50.606 188.052 51.992 186.63 52.91C186.954 53.162 187.53 53.684 187.782 53.954C189.366 52.784 190.932 51.02 191.976 49.076H193.416C192.732 50.876 191.616 52.46 190.248 53.504C190.59 53.702 191.202 54.17 191.454 54.422C192.912 53.162 194.19 51.254 194.982 49.076H196.134C195.954 51.524 195.738 52.496 195.468 52.784C195.324 52.964 195.18 53 194.946 52.982C194.712 52.982 194.172 52.982 193.578 52.928C193.812 53.306 193.956 53.936 193.992 54.368C194.694 54.404 195.378 54.404 195.756 54.35C196.188 54.296 196.512 54.17 196.8 53.828C197.286 53.288 197.538 51.884 197.772 48.41C197.79 48.194 197.808 47.762 197.808 47.762H189.87C190.104 47.402 190.32 47.042 190.518 46.682H198.312ZM208.104 38.15V52.208C208.104 52.568 207.978 52.676 207.6 52.694C207.222 52.712 205.908 52.712 204.684 52.658C204.954 53.144 205.242 53.936 205.35 54.404C207.06 54.422 208.212 54.368 208.932 54.098C209.634 53.81 209.922 53.324 209.922 52.208V38.15H208.104ZM212.406 42.74C213.864 45.332 215.286 48.68 215.664 50.804L217.482 50.084C217.032 47.906 215.556 44.63 214.026 42.128L212.406 42.74ZM203.442 42.272C203.028 44.648 202.074 47.744 200.562 49.616C201.012 49.778 201.75 50.192 202.164 50.498C203.73 48.5 204.738 45.242 205.332 42.614L203.442 42.272ZM235.14 50.156C233.754 49.49 231.036 48.392 229.218 47.708L228.354 49.004C230.226 49.778 232.908 50.948 234.204 51.668L235.14 50.156ZM235.896 45.998V44.342H228.3V41.858H234.15V40.256H228.3V37.916H226.536V44.342H219.858V45.998H226.59V54.404H228.354V45.998H235.896Z" fill="#573605"/>
<path d="M192.018 297.6L188.199 297.266L188.296 296.154L192.115 296.488L192.018 297.6ZM188.5 293.823L192.319 294.157L192.23 295.179L188.411 294.845L188.5 293.823ZM183.737 290.028L183.831 288.952L187.202 289.247L187.108 290.323L183.737 290.028ZM192.42 289.703L192.326 290.779L188.793 290.47L188.887 289.394L192.42 289.703ZM195.78 295.49L193.916 295.327L194.108 293.121L188.604 292.64L188.696 291.582L193.914 292.038L194.203 288.739L188.985 288.282L189.065 287.368L196.058 287.98L196.176 286.635L189.182 286.023L189.297 284.714L187.611 284.567L187.497 285.876L180.701 285.281L180.583 286.626L187.379 287.22L187.299 288.135L182.332 287.7L182.043 291L187.011 291.434L186.918 292.492L181.485 292.017L181.381 293.2L186.814 293.676L186.725 294.698L179.552 294.07L179.438 295.379L186.61 296.007L186.513 297.119L180.919 296.629L180.809 297.884L186.403 298.374L186.32 299.324C186.294 299.629 186.178 299.709 185.854 299.699C185.565 299.692 184.489 299.598 183.506 299.475C183.708 299.855 183.906 300.486 183.963 300.871C185.469 301.002 186.403 301.066 187.031 300.904C187.661 300.724 187.927 300.368 188.007 299.454L188.089 298.521L191.908 298.855L191.841 299.626L193.526 299.774L193.801 296.636L195.666 296.799L195.78 295.49Z" fill="#927858"/>
<path d="M208.331 297.941C207.248 298.776 205.136 299.63 203.349 300.057C203.716 300.332 204.195 300.85 204.46 301.189C206.271 300.615 208.43 299.486 209.601 298.408L208.331 297.941ZM212.915 298.281C214.601 298.765 216.872 299.524 218.032 299.983L219.059 298.917C217.808 298.449 215.545 297.779 213.917 297.344L212.915 298.281ZM213.043 288.801C212.833 289.29 212.48 290.007 212.178 290.485L212.841 290.626L207.946 291.054L208.734 290.768C208.554 290.368 208.156 289.735 207.753 289.264L213.043 288.801ZM211.676 295.48L211.582 294.404L217.087 293.922L216.977 292.667L211.472 293.149L211.378 292.073L217.725 291.518L217.611 290.209L213.809 290.541C214.132 290.097 214.502 289.577 214.849 289.005L213.419 288.768L218.117 288.357L218.001 287.03L215.437 287.255C215.845 286.551 216.305 285.607 216.712 284.686L214.951 284.388C214.753 285.219 214.296 286.397 213.928 287.152L214.648 287.324L212.694 287.495L212.424 284.411L210.846 284.549L211.116 287.633L209.34 287.788L209.071 284.704L207.511 284.84L207.78 287.925L205.772 288.1L206.691 287.659C206.379 286.981 205.656 285.942 205.032 285.22L203.624 285.849C204.19 286.54 204.814 287.479 205.144 288.155L202.473 288.389L202.589 289.716L207.161 289.316L206.143 289.658C206.489 290.097 206.849 290.698 207.067 291.131L203.463 291.446L203.577 292.755L209.746 292.216L209.84 293.292L204.55 293.754L204.66 295.01L209.95 294.547L210.044 295.623L203.087 296.231L203.209 297.63L210.166 297.021L210.53 301.181L212.162 301.039L211.798 296.879L218.863 296.26L218.741 294.862L211.676 295.48Z" fill="#927858"/>
</g>
</g>
<defs>
<filter id="filter0_d_114_12934" x="-4" y="1" width="408" height="407" filterUnits="userSpaceOnUse" color-interpolation-filters="sRGB">
<feFlood flood-opacity="0" result="BackgroundImageFix"/>
<feColorMatrix in="SourceAlpha" type="matrix" values="0 0 0 0 0 0 0 0 0 0 0 0 0 0 0 0 0 0 127 0" result="hardAlpha"/>
<feOffset dy="4"/>
<feGaussianBlur stdDeviation="2"/>
<feComposite in2="hardAlpha" operator="out"/>
<feColorMatrix type="matrix" values="0 0 0 0 0 0 0 0 0 0 0 0 0 0 0 0 0 0 0.25 0"/>
<feBlend mode="normal" in2="BackgroundImageFix" result="effect1_dropShadow_114_12934"/>
<feBlend mode="normal" in="SourceGraphic" in2="effect1_dropShadow_114_12934" result="shape"/>
</filter>
<filter id="filter1_i_114_12934" x="0" y="1" width="400" height="203" filterUnits="userSpaceOnUse" color-interpolation-filters="sRGB">
<feFlood flood-opacity="0" result="BackgroundImageFix"/>
<feBlend mode="normal" in="SourceGraphic" in2="BackgroundImageFix" result="shape"/>
<feColorMatrix in="SourceAlpha" type="matrix" values="0 0 0 0 0 0 0 0 0 0 0 0 0 0 0 0 0 0 127 0" result="hardAlpha"/>
<feOffset dy="4"/>
<feGaussianBlur stdDeviation="2"/>
<feComposite in2="hardAlpha" operator="arithmetic" k2="-1" k3="1"/>
<feColorMatrix type="matrix" values="0 0 0 0 0 0 0 0 0 0 0 0 0 0 0 0 0 0 0.35 0"/>
<feBlend mode="normal" in2="shape" result="effect1_innerShadow_114_12934"/>
</filter>
<filter id="filter2_i_114_12934" x="0" y="198" width="400" height="202" filterUnits="userSpaceOnUse" color-interpolation-filters="sRGB">
<feFlood flood-opacity="0" result="BackgroundImageFix"/>
<feBlend mode="normal" in="SourceGraphic" in2="BackgroundImageFix" result="shape"/>
<feColorMatrix in="SourceAlpha" type="matrix" values="0 0 0 0 0 0 0 0 0 0 0 0 0 0 0 0 0 0 127 0" result="hardAlpha"/>
<feOffset dy="-2"/>
<feGaussianBlur stdDeviation="2"/>
<feComposite in2="hardAlpha" operator="arithmetic" k2="-1" k3="1"/>
<feColorMatrix type="matrix" values="0 0 0 0 0 0 0 0 0 0 0 0 0 0 0 0 0 0 0.25 0"/>
<feBlend mode="normal" in2="shape" result="effect1_innerShadow_114_12934"/>
</filter>
<filter id="filter3_di_114_12934" x="-8" y="200" width="416" height="158" filterUnits="userSpaceOnUse" color-interpolation-filters="sRGB">
<feFlood flood-opacity="0" result="BackgroundImageFix"/>
<feColorMatrix in="SourceAlpha" type="matrix" values="0 0 0 0 0 0 0 0 0 0 0 0 0 0 0 0 0 0 127 0" result="hardAlpha"/>
<feOffset dy="10"/>
<feGaussianBlur stdDeviation="4"/>
<feComposite in2="hardAlpha" operator="out"/>
<feColorMatrix type="matrix" values="0 0 0 0 0 0 0 0 0 0 0 0 0 0 0 0 0 0 0.25 0"/>
<feBlend mode="normal" in2="BackgroundImageFix" result="effect1_dropShadow_114_12934"/>
<feBlend mode="normal" in="SourceGraphic" in2="effect1_dropShadow_114_12934" result="shape"/>
<feColorMatrix in="SourceAlpha" type="matrix" values="0 0 0 0 0 0 0 0 0 0 0 0 0 0 0 0 0 0 127 0" result="hardAlpha"/>
<feOffset dy="3"/>
<feGaussianBlur stdDeviation="4"/>
<feComposite in2="hardAlpha" operator="arithmetic" k2="-1" k3="1"/>
<feColorMatrix type="matrix" values="0 0 0 0 0 0 0 0 0 0 0 0 0 0 0 0 0 0 0.25 0"/>
<feBlend mode="normal" in2="shape" result="effect2_innerShadow_114_12934"/>
</filter>
<clipPath id="clip0_114_12934">
<rect width="400" height="400" fill="white"/>
</clipPath>
</defs>
</svg>
