<svg width="350" height="350" viewBox="0 0 350 350" fill="none" xmlns="http://www.w3.org/2000/svg">
<path d="M82.6 304.7C79.29 304.7 76.6 302.01 76.6 298.7C76.6 296.26 78.07 294.1 80.26 293.17C81.44 290.83 83.5 282.87 83.5 269.59C83.5 253.88 88.38 238.7 97.62 225.55C91.03 220.58 85.69 214.93 81.73 208.72C78.7 203.97 76.45 198.88 75.04 193.55C64.9 191.98 56.45 184.81 53.29 174.94C50.5 166.23 52.31 156.62 58 149.54C57.76 148.95 57.53 148.35 57.34 147.74C55.46 141.89 55.98 135.65 58.79 130.19C61.6 124.73 66.37 120.68 72.23 118.81C74.51 118.08 76.88 117.71 79.26 117.71C80.02 117.71 80.8 117.75 81.59 117.83C85.12 99.42 94.25 83.13 108.07 70.61C109.93 68.93 111.92 67.29 114.17 65.59C114.64 65.23 115.11 64.88 115.59 64.53C117.47 63.16 119.47 61.84 121.51 60.58C137.09 51.05 155.65 46 175.18 46C199.16 46 221.81 53.72 238.94 67.73C240.08 68.66 241.21 69.64 242.31 70.63C256.14 83.14 265.26 99.44 268.79 117.85C269.58 117.77 270.35 117.73 271.12 117.73C273.5 117.73 275.87 118.1 278.15 118.83C284 120.71 288.77 124.75 291.59 130.21C294.4 135.67 294.92 141.91 293.04 147.76C292.84 148.37 292.62 148.97 292.38 149.56C298.07 156.64 299.88 166.25 297.09 174.96C293.93 184.82 285.48 192 275.34 193.57C273.93 198.9 271.68 204 268.65 208.74C264.69 214.95 259.35 220.6 252.76 225.57C262.01 238.72 266.88 253.9 266.88 269.61C266.88 282.89 268.94 290.85 270.12 293.19C272.31 294.12 273.78 296.28 273.78 298.72C273.78 302.03 271.09 304.72 267.78 304.72H82.6V304.7Z" fill="#847058"/>
<path d="M175.179 48.01C198.849 48.01 220.859 55.53 237.669 69.28C238.789 70.2 239.889 71.14 240.959 72.11C254.979 84.8 264.009 101.49 267.159 120.1C268.449 119.86 269.759 119.71 271.109 119.71C273.279 119.71 275.439 120.05 277.529 120.72C282.869 122.43 287.229 126.12 289.799 131.11C292.369 136.1 292.839 141.79 291.129 147.13C290.829 148.07 290.459 148.98 290.039 149.87C295.899 156.48 297.929 165.75 295.179 174.33C292.079 184 283.639 190.73 273.719 191.74C272.399 197.33 270.139 202.66 266.949 207.65C262.769 214.19 257.059 220.04 249.959 225.12C259.649 238.21 264.859 253.55 264.859 269.59C264.859 284.06 267.289 292.81 268.769 294.82C270.489 295.27 271.759 296.83 271.759 298.69C271.759 300.9 269.969 302.69 267.759 302.69H82.5992C80.3892 302.69 78.5992 300.9 78.5992 298.69C78.5992 296.83 79.8692 295.26 81.5892 294.82C83.0692 292.8 85.4992 284.05 85.4992 269.59C85.4992 253.54 90.7092 238.21 100.399 225.12C93.3092 220.04 87.5892 214.19 83.4092 207.65C80.2192 202.66 77.9692 197.34 76.6392 191.74C66.7192 190.73 58.2792 184 55.1792 174.33C52.4292 165.75 54.4592 156.49 60.3192 149.87C59.8892 148.99 59.5292 148.07 59.2292 147.13C57.5192 141.79 57.9892 136.1 60.5592 131.11C63.1292 126.12 67.4792 122.43 72.8292 120.72C74.9092 120.05 77.0692 119.71 79.2492 119.71C80.5992 119.71 81.9092 119.85 83.1992 120.1C86.3492 101.48 95.3692 84.8 109.399 72.11C111.309 70.38 113.299 68.76 115.359 67.2C115.819 66.85 116.279 66.51 116.749 66.17C118.629 64.81 120.559 63.52 122.539 62.31C137.709 53.02 155.889 48 175.179 48M175.179 44C155.279 44 136.359 49.15 120.449 58.9C118.359 60.18 116.329 61.54 114.399 62.93C113.909 63.28 113.429 63.65 112.949 64.01C110.659 65.74 108.619 67.42 106.719 69.14C93.0092 81.55 83.8092 97.6 79.9692 115.73C79.7292 115.73 79.4892 115.72 79.2592 115.72C76.6692 115.72 74.0992 116.12 71.6192 116.92C65.2592 118.96 60.0692 123.35 57.0192 129.29C53.9592 135.23 53.3992 142 55.4392 148.37C55.5292 148.66 55.6292 148.95 55.7292 149.23C50.1792 156.73 48.5092 166.6 51.3892 175.57C54.6492 185.74 63.1392 193.25 73.4592 195.32C74.9292 200.4 77.1492 205.27 80.0492 209.82C83.8292 215.74 88.8192 221.17 94.9092 226C86.1292 239.12 81.5092 254.11 81.5092 269.61C81.5092 281.66 79.7392 289.16 78.7392 291.72C76.2392 293.1 74.6192 295.76 74.6192 298.72C74.6192 303.13 78.2092 306.72 82.6192 306.72H267.769C272.179 306.72 275.769 303.13 275.769 298.72C275.769 295.76 274.139 293.1 271.639 291.71C270.649 289.19 268.869 281.68 268.869 269.61C268.869 254.11 264.249 239.12 255.469 226C261.559 221.17 266.549 215.74 270.329 209.82C273.239 205.27 275.449 200.4 276.919 195.32C287.229 193.25 295.729 185.74 298.989 175.57C301.869 166.6 300.189 156.73 294.649 149.23C294.749 148.94 294.849 148.66 294.939 148.37C296.979 142.01 296.419 135.23 293.359 129.29C290.299 123.35 285.119 118.96 278.759 116.92C276.279 116.13 273.709 115.72 271.119 115.72C270.879 115.72 270.649 115.72 270.409 115.73C266.569 97.6 257.369 81.56 243.659 69.14C242.539 68.13 241.379 67.13 240.219 66.18C222.719 51.89 199.629 44.01 175.179 44.01V44Z" fill="#847058"/>
<path d="M163.504 201.712H181.936C179.776 181.408 204.832 174.496 204.832 154.048C204.832 135.616 192.16 126.688 174.88 126.688C162.352 126.688 152.128 132.592 144.64 141.088L156.304 151.744C160.912 146.992 165.952 143.68 172.288 143.68C179.776 143.68 184.528 148.288 184.528 155.488C184.528 169.168 160.048 178.528 163.504 201.712ZM172.72 240.016C180.352 240.016 185.968 233.968 185.968 226.192C185.968 218.272 180.352 212.368 172.72 212.368C165.232 212.368 159.616 218.272 159.616 226.192C159.616 233.968 165.232 240.016 172.72 240.016Z" fill="#FDBF52"/>
</svg>
