<svg width="350" height="350" viewBox="0 0 350 350" fill="none" xmlns="http://www.w3.org/2000/svg">
<path d="M47.0029 230.93C46.1029 230.93 45.3128 230.32 45.0728 229.45C44.8328 228.58 45.2129 227.66 45.9929 227.2C70.9029 212.65 70.8929 198.35 70.8829 160.13V157.29C70.1629 130.46 80.1828 104.97 99.0728 85.5601C118.713 65.3901 146.503 53.8101 175.313 53.8101C204.123 53.8101 231.903 65.3801 251.553 85.5601C270.453 104.97 280.463 130.46 279.743 157.34V160.14C279.723 198.35 279.723 212.65 304.633 227.21C305.413 227.67 305.793 228.59 305.553 229.46C305.313 230.33 304.523 230.94 303.623 230.94H47.0128L47.0029 230.93Z" fill="#3AAA35"/>
<path d="M175.303 55.8101C232.613 55.8101 279.233 100.92 277.733 157.28C277.733 197.19 277.073 213.41 303.613 228.92H47.0028C73.5428 213.41 72.8828 197.18 72.8828 157.28C71.3828 100.91 118.003 55.8101 175.313 55.8101M175.313 51.8101C160.353 51.8101 145.893 54.7301 132.323 60.4901C119.173 66.0701 107.503 74.0401 97.6427 84.1601C78.3827 103.94 68.1728 129.93 68.8828 157.34V160.13C68.9028 197.51 68.9028 211.5 44.9828 225.47C43.4228 226.38 42.6627 228.23 43.1427 229.97C43.6127 231.71 45.1928 232.92 47.0028 232.92H303.613C305.423 232.92 307.003 231.71 307.473 229.97C307.943 228.23 307.193 226.38 305.633 225.47C281.713 211.5 281.723 197.51 281.733 160.13V157.34C282.453 129.93 272.233 103.94 252.973 84.1601C243.113 74.0301 231.443 66.0701 218.293 60.4901C204.723 54.7301 190.263 51.8101 175.303 51.8101H175.313Z" fill="#543714"/>
<path d="M82.7227 316.85C81.6227 316.85 80.7227 315.95 80.7227 314.85C80.7227 313.75 81.6227 312.85 82.7227 312.85C84.3827 312.19 87.6227 302.29 87.6227 285.74C87.6227 264.79 96.7526 245.07 113.323 230.2C129.403 215.78 150.713 207.51 173.523 206.81C173.663 206.78 173.813 206.76 173.963 206.76H176.663C176.813 206.76 176.963 206.78 177.103 206.81C199.933 207.52 221.233 215.79 237.293 230.2C253.863 245.07 262.993 264.79 262.993 285.74C262.993 302.29 266.233 312.19 267.973 312.86C269.073 312.86 269.933 313.75 269.933 314.85C269.933 315.95 268.993 316.84 267.893 316.84H82.7227V316.85Z" fill="#3AAA35"/>
<path d="M176.653 208.76C176.203 208.76 175.753 208.76 175.303 208.76C174.853 208.76 174.403 208.76 173.953 208.76H176.653M175.303 208.76C222.793 209.39 260.993 243.58 260.993 285.73C260.993 301.82 264.083 314.84 267.893 314.84H82.7227C86.5327 314.84 89.6227 301.82 89.6227 285.73C89.6227 243.58 127.823 209.4 175.313 208.76M176.663 204.75H173.963C173.743 204.75 173.523 204.77 173.303 204.8C150.083 205.54 128.373 213.99 111.983 228.69C94.9827 243.94 85.6227 264.2 85.6227 285.72C85.6227 300.19 83.1926 308.94 81.7126 310.95C79.9926 311.4 78.7227 312.96 78.7227 314.82C78.7227 317.03 80.5127 318.82 82.7227 318.82H267.893C270.103 318.82 271.893 317.03 271.893 314.82C271.893 312.96 270.623 311.39 268.903 310.95C267.423 308.93 264.993 300.18 264.993 285.72C264.993 264.2 255.633 243.94 238.633 228.69C222.243 213.98 200.533 205.54 177.313 204.8C177.103 204.76 176.883 204.75 176.653 204.75H176.663Z" fill="#543714"/>
<path d="M88.4028 293.37H262.213" stroke="#F9B233" stroke-width="4" stroke-linecap="round" stroke-linejoin="round"/>
<path d="M135.333 296.05L150.753 260.32" stroke="#F9B233" stroke-width="4" stroke-linecap="round" stroke-linejoin="round"/>
<path d="M176.653 208.76C176.203 208.76 175.753 208.76 175.303 208.76C174.853 208.76 174.403 208.76 173.953 208.76H176.653M175.303 208.76C222.793 209.39 260.993 243.58 260.993 285.73C260.993 301.82 264.083 314.84 267.893 314.84H82.7227C86.5327 314.84 89.6227 301.82 89.6227 285.73C89.6227 243.58 127.823 209.4 175.313 208.76M176.663 204.75H173.963C173.743 204.75 173.523 204.77 173.303 204.8C150.083 205.54 128.373 213.99 111.983 228.69C94.9827 243.94 85.6227 264.2 85.6227 285.72C85.6227 300.19 83.1926 308.94 81.7126 310.95C79.9926 311.4 78.7227 312.96 78.7227 314.82C78.7227 317.03 80.5127 318.82 82.7227 318.82H267.893C270.103 318.82 271.893 317.03 271.893 314.82C271.893 312.96 270.623 311.39 268.903 310.95C267.423 308.93 264.993 300.18 264.993 285.72C264.993 264.2 255.633 243.94 238.633 228.69C222.243 213.98 200.533 205.54 177.313 204.8C177.103 204.76 176.883 204.75 176.653 204.75H176.663Z" fill="#543714"/>
<path d="M79.3631 206.04C69.2131 206.04 60.3231 199.54 57.2231 189.87C54.5531 181.53 56.783 172.48 62.893 166.35C62.223 165.19 61.683 163.96 61.273 162.67C59.723 157.84 60.1531 152.69 62.4731 148.17C64.7931 143.65 68.7431 140.32 73.5731 138.77C75.4631 138.17 77.4131 137.86 79.3831 137.86C87.6731 137.86 94.9531 143.17 97.4831 151.07C99.1331 156.22 98.5331 161.7 95.8431 166.34C98.4431 168.94 100.393 172.14 101.523 175.67C105.433 187.88 98.6831 201 86.4731 204.92C84.1631 205.66 81.7731 206.04 79.3731 206.04H79.3631Z" fill="#C34B5A"/>
<path d="M79.3731 139.86C86.5731 139.86 93.253 144.46 95.563 151.68C97.253 156.96 96.2131 162.46 93.2431 166.67C96.1131 169.14 98.363 172.41 99.603 176.28C103.183 187.46 97.023 199.43 85.843 203.01C83.683 203.7 81.503 204.03 79.353 204.03C70.363 204.03 62.0031 198.28 59.1131 189.25C56.4331 180.88 59.203 172.07 65.463 166.67C64.493 165.29 63.703 163.74 63.163 162.05C60.293 153.1 65.223 143.53 74.173 140.66C75.903 140.11 77.6531 139.84 79.3731 139.84M79.3731 135.84C77.2031 135.84 75.043 136.18 72.953 136.85C67.613 138.56 63.253 142.25 60.683 147.24C58.113 152.23 57.643 157.92 59.353 163.26C59.653 164.2 60.023 165.12 60.443 166C54.583 172.61 52.553 181.88 55.303 190.46C58.673 200.96 68.333 208.02 79.353 208.02C81.963 208.02 84.563 207.61 87.063 206.81C100.323 202.56 107.663 188.31 103.403 175.05C102.323 171.69 100.573 168.61 98.2531 166C100.613 161.17 101.033 155.66 99.353 150.45C96.553 141.72 88.513 135.85 79.353 135.85L79.3731 135.84Z" fill="#553711"/>
<path d="M271.243 206.04C268.833 206.04 266.453 205.66 264.143 204.92C258.223 203.02 253.403 198.94 250.563 193.41C247.723 187.88 247.203 181.58 249.093 175.67C250.223 172.14 252.173 168.94 254.773 166.34C252.083 161.7 251.483 156.22 253.133 151.07C255.663 143.17 262.933 137.86 271.233 137.86C273.193 137.86 275.153 138.17 277.043 138.77C281.873 140.32 285.823 143.66 288.143 148.17C290.463 152.69 290.893 157.83 289.343 162.67C288.933 163.95 288.383 165.19 287.723 166.35C293.833 172.48 296.063 181.53 293.393 189.87C290.293 199.54 281.393 206.04 271.253 206.04H271.243Z" fill="#C34B5A"/>
<path d="M271.243 139.86C272.963 139.86 274.713 140.12 276.443 140.68C285.393 143.55 290.313 153.12 287.453 162.07C286.913 163.76 286.123 165.31 285.153 166.69C291.403 172.1 294.183 180.9 291.503 189.27C288.613 198.29 280.253 204.05 271.263 204.05C269.113 204.05 266.923 203.72 264.773 203.03C253.593 199.45 247.433 187.48 251.013 176.3C252.253 172.43 254.503 169.16 257.373 166.69C254.403 162.48 253.363 156.99 255.053 151.7C257.363 144.48 264.053 139.88 271.243 139.88M271.243 135.88C262.073 135.88 254.043 141.75 251.243 150.48C249.573 155.7 249.993 161.2 252.343 166.03C250.023 168.64 248.273 171.72 247.193 175.08C242.943 188.34 250.273 202.59 263.533 206.84C266.043 207.64 268.633 208.05 271.243 208.05C282.263 208.05 291.923 200.99 295.293 190.49C298.043 181.91 296.013 172.65 290.153 166.03C290.583 165.15 290.943 164.23 291.243 163.29C292.953 157.95 292.483 152.26 289.913 147.27C287.343 142.28 282.993 138.59 277.643 136.88C275.563 136.21 273.403 135.87 271.223 135.87L271.243 135.88Z" fill="#553711"/>
<path d="M175.302 259.59C117.642 259.59 77.3623 233.33 77.3623 195.74C77.3623 186.67 79.6423 177.83 84.1323 169.46C84.0823 166.22 84.0623 152.01 84.0623 151.25C84.0623 127.22 93.5823 105.37 110.852 89.7301C127.662 74.5201 150.542 66.1401 175.292 66.1401C200.042 66.1401 222.922 74.5201 239.732 89.7301C257.012 105.37 266.522 127.22 266.522 151.25C266.522 152.01 266.492 166.23 266.452 169.46C270.952 177.83 273.222 186.66 273.222 195.74C273.222 233.33 232.952 259.59 175.282 259.59H175.302Z" fill="#D35061"/>
<path d="M175.302 68.1401C224.582 68.1401 264.532 101.96 264.532 151.25C264.532 152.49 264.503 168.72 264.453 169.95C268.833 177.93 271.233 186.63 271.233 195.74C271.233 234.24 228.282 257.59 175.292 257.59C122.302 257.59 79.3525 234.23 79.3525 195.74C79.3525 186.63 81.7626 177.93 86.1326 169.95C86.0826 168.72 86.0525 152.49 86.0525 151.25C86.0525 101.97 126.002 68.1401 175.282 68.1401M175.282 64.1401C150.032 64.1401 126.673 72.7001 109.503 88.2501C91.8026 104.27 82.0525 126.65 82.0525 151.25C82.0525 151.4 82.0726 164.79 82.1226 168.97C77.6326 177.49 75.3525 186.49 75.3525 195.74C75.3525 205.87 78.1025 215.31 83.5225 223.8C88.6225 231.78 95.9625 238.75 105.363 244.51C123.313 255.52 148.152 261.59 175.292 261.59C202.432 261.59 227.273 255.52 245.223 244.51C254.623 238.75 261.963 231.78 267.062 223.8C272.483 215.31 275.233 205.87 275.233 195.74C275.233 186.5 272.953 177.5 268.463 168.97C268.503 164.79 268.532 151.39 268.532 151.25C268.532 126.65 258.783 104.27 241.083 88.2501C223.913 72.7001 200.542 64.1401 175.302 64.1401H175.282Z" fill="#533716"/>
<path d="M127.293 169.93C129.653 162.66 136.413 157.28 145.023 157.28C153.633 157.28 158.473 162.89 158.473 169.93" stroke="#553711" stroke-width="3" stroke-linecap="round" stroke-linejoin="round"/>
<path d="M223.313 169.93C220.953 162.66 214.193 157.28 205.583 157.28C196.973 157.28 192.133 162.89 192.133 169.93" stroke="#553711" stroke-width="3" stroke-linecap="round" stroke-linejoin="round"/>
<path opacity="0.5" d="M82.7228 179.76C82.4528 179.76 82.1827 179.77 81.9127 179.78C80.2627 184.91 79.3628 190.25 79.3628 195.74C79.3628 217.2 92.7128 233.95 113.713 244.58C120.323 237.7 124.353 228.61 124.353 218.63C124.353 197.16 105.713 179.75 82.7128 179.75L82.7228 179.76Z" fill="#C13352"/>
<path opacity="0.5" d="M267.893 179.76C268.163 179.76 268.433 179.77 268.703 179.78C270.353 184.91 271.253 190.25 271.253 195.74C271.253 217.2 257.903 233.95 236.903 244.58C230.293 237.7 226.263 228.61 226.263 218.63C226.263 197.16 244.903 179.75 267.903 179.75L267.893 179.76Z" fill="#C13352"/>
<path d="M175.302 181.63C178.312 181.63 180.753 180.372 180.753 178.82C180.753 177.268 178.312 176.01 175.302 176.01C172.293 176.01 169.853 177.268 169.853 178.82C169.853 180.372 172.293 181.63 175.302 181.63Z" fill="#F9C5AF"/>
<path d="M175.302 181.63C178.312 181.63 180.753 180.372 180.753 178.82C180.753 177.268 178.312 176.01 175.302 176.01C172.293 176.01 169.853 177.268 169.853 178.82C169.853 180.372 172.293 181.63 175.302 181.63Z" fill="#C34B5A"/>
<path d="M175.303 68.1401C224.583 68.1401 264.533 101.96 264.533 151.25C264.533 152.49 264.503 168.72 264.453 169.95C258.093 169.95 252.953 160.96 252.953 149.85C252.953 113.75 227.853 88.4901 196.893 88.4901C189.243 88.4901 181.943 90.2801 175.293 93.5201C168.643 90.2801 161.353 88.4901 153.693 88.4901C122.733 88.4901 97.6328 113.75 97.6328 149.85C97.6328 160.96 92.4928 169.95 86.1328 169.95C86.0828 168.72 86.0527 152.49 86.0527 151.25C86.0527 101.97 126.003 68.1401 175.283 68.1401" fill="#543714"/>
<path d="M175.303 68.1401C224.583 68.1401 264.533 101.96 264.533 151.25C264.533 152.49 264.503 168.72 264.453 169.95C258.093 169.95 252.953 160.96 252.953 149.85C252.953 113.75 227.853 88.4901 196.893 88.4901C189.243 88.4901 181.943 90.2801 175.293 93.5201C168.643 90.2801 161.353 88.4901 153.693 88.4901C122.733 88.4901 97.6328 113.75 97.6328 149.85C97.6328 160.96 92.4928 169.95 86.1328 169.95C86.0828 168.72 86.0527 152.49 86.0527 151.25C86.0527 101.97 126.003 68.1401 175.283 68.1401" stroke="#553711" stroke-width="4" stroke-linecap="round" stroke-linejoin="round"/>
<path d="M88.3729 99.9499C87.8529 99.9499 87.3429 99.7499 86.9629 99.3699C86.4229 98.8299 86.2329 98.0399 86.4729 97.3199C92.1029 80.4699 103.843 65.3299 119.533 54.6799C135.703 43.6999 154.993 37.8999 175.303 37.8999C195.613 37.8999 214.903 43.6999 231.083 54.6799C246.773 65.3199 258.513 80.4699 264.143 97.3199C264.383 98.0399 264.193 98.8399 263.653 99.3699C263.273 99.7499 262.763 99.9499 262.243 99.9499C262.023 99.9499 261.803 99.9099 261.593 99.8399C235.463 90.8699 205.623 86.0299 175.293 85.8399C144.993 86.0299 115.143 90.8699 89.0128 99.8399C88.8028 99.9099 88.5829 99.9499 88.3629 99.9499H88.3729Z" fill="#3AAA35"/>
<path d="M175.303 39.8999C216.353 39.8999 251.013 64.3699 262.243 97.9499C236.623 89.1499 206.963 84.0399 175.303 83.8399C143.643 84.0399 113.983 89.1499 88.3628 97.9499C99.5828 64.3699 134.253 39.8999 175.303 39.8999ZM175.303 35.8999C154.583 35.8999 134.913 41.8199 118.403 53.0199C102.353 63.9099 90.3427 79.4099 84.5727 96.6799C84.0927 98.1199 84.4727 99.7199 85.5527 100.79C86.3127 101.55 87.3328 101.95 88.3728 101.95C88.8028 101.95 89.2427 101.88 89.6727 101.73C115.603 92.8299 145.223 88.0199 175.333 87.8399C205.403 88.0299 235.023 92.8299 260.943 101.73C261.363 101.88 261.803 101.95 262.243 101.95C263.283 101.95 264.303 101.55 265.063 100.79C266.143 99.7199 266.523 98.1299 266.043 96.6799C260.273 79.4199 248.253 63.9099 232.213 53.0199C215.703 41.8199 196.033 35.8999 175.313 35.8999H175.303Z" fill="#543714"/>
<path d="M130.213 130.86C127.683 131.84 125.263 132.14 123.143 131.23C121.963 130.73 120.723 129.6 120.433 128.12C119.713 124.4 125.463 121.1 125.983 120.81C126.803 120.35 128.783 118.98 133.253 119.05C136.483 119.1 145.283 122.04 151.833 127.03C153.253 128.11 153.363 130.24 152.243 131.77C150.983 133.49 147.423 132.83 146.283 132.58C143.823 132.03 141.963 131.39 139.343 130.75C137.463 130.29 132.943 130.09 130.203 130.85L130.213 130.86Z" fill="#543714" stroke="#553711" stroke-linecap="round" stroke-linejoin="round"/>
<path d="M220.403 130.86C222.933 131.84 225.353 132.14 227.473 131.23C228.653 130.73 229.893 129.6 230.183 128.12C230.903 124.4 225.153 121.1 224.633 120.81C223.813 120.35 221.833 118.98 217.363 119.05C214.133 119.1 205.333 122.04 198.783 127.03C197.363 128.11 197.253 130.24 198.373 131.77C199.633 133.49 203.193 132.83 204.333 132.58C206.793 132.03 208.653 131.39 211.273 130.75C213.153 130.29 217.673 130.09 220.413 130.85L220.403 130.86Z" fill="#543714" stroke="#553711" stroke-linecap="round" stroke-linejoin="round"/>
<path d="M213.063 220.26C212.723 200.58 197.363 184.46 175.303 184.5C156.023 184.53 139.183 197.61 138.733 220.26C137.883 263.03 158.733 281.35 183.853 281.35C203.593 281.35 212.723 273.09 226.253 266.37C229.993 264.52 237.233 262.79 243.433 263.9C251.933 265.43 253.593 266.68 260.283 268.5C266.153 270.09 273.043 275.44 276.353 274.23C279.243 273.17 272.373 262.14 267.893 257.6C261.163 250.78 256.723 248.3 249.983 247.31C242.713 246.25 240.273 247.49 233.163 247.61C229.333 247.67 218.653 246.68 214.503 240.44C210.593 234.55 213.173 225.86 213.073 220.27L213.063 220.26Z" fill="#543714" stroke="#553711" stroke-width="1.07" stroke-linecap="round" stroke-linejoin="round"/>
<path d="M255.443 271.8C255.253 271.8 255.053 271.77 254.863 271.72L231.823 264.81C231.243 264.64 230.783 264.22 230.553 263.66C229.013 259.94 228.803 255.78 229.953 251.92C232.163 244.57 239.063 239.43 246.733 239.43C248.433 239.43 250.133 239.68 251.773 240.17C261.023 242.95 266.293 252.73 263.523 261.99C262.363 265.84 259.893 269.21 256.563 271.46C256.233 271.69 255.833 271.8 255.443 271.8V271.8Z" fill="#D35061"/>
<path d="M246.743 241.42C248.223 241.42 249.723 241.63 251.213 242.08C259.423 244.54 264.083 253.2 261.613 261.41C260.543 264.97 258.303 267.86 255.443 269.8L232.403 262.89C231.083 259.7 230.803 256.06 231.873 252.49C233.893 245.77 240.053 241.43 246.733 241.43M246.733 237.43C238.183 237.43 230.503 243.15 228.043 251.34C226.753 255.63 226.993 260.28 228.703 264.42C229.163 265.53 230.093 266.37 231.253 266.72L254.293 273.63C254.673 273.74 255.053 273.8 255.443 273.8C256.233 273.8 257.013 273.57 257.683 273.11C261.393 270.6 264.153 266.85 265.443 262.56C266.943 257.57 266.403 252.29 263.933 247.7C261.463 243.11 257.353 239.76 252.353 238.26C250.523 237.71 248.633 237.43 246.733 237.43V237.43Z" fill="#533716"/>
<path d="M175.303 227C187.994 227 198.283 219.277 198.283 209.75C198.283 200.223 187.994 192.5 175.303 192.5C162.611 192.5 152.323 200.223 152.323 209.75C152.323 219.277 162.611 227 175.303 227Z" fill="#D35061"/>
<path d="M189.873 206.82C189.873 212.28 183.353 216.69 175.303 216.69C167.253 216.69 160.733 212.27 160.733 206.82" stroke="#BE1521" stroke-width="3" stroke-linecap="round" stroke-linejoin="round"/>
<path d="M95.413 307.56C81.353 307.56 71.133 292.51 68.293 277.65C65.183 261.33 70.613 247.84 82.143 243.27C82.353 243.19 82.573 243.14 82.793 243.13C83.333 243.1 83.8631 243.09 84.3831 243.09C99.2831 243.09 103.853 254.99 106.583 262.11C106.683 262.38 106.733 262.67 106.713 262.96L104.593 304.2C104.553 305.01 104.033 305.73 103.273 306.02C100.653 307.04 98.003 307.56 95.403 307.56H95.413Z" fill="#3AAA35"/>
<path d="M84.3829 245.16C97.6929 245.16 101.833 255.52 104.653 262.85L102.533 304.09C100.083 305.05 97.6929 305.49 95.4229 305.49C71.0529 305.49 58.0728 255.04 82.9128 245.2C83.4128 245.17 83.9029 245.16 84.3829 245.16M84.3829 241.02C83.8229 241.02 83.2529 241.04 82.6829 241.07C82.2329 241.09 81.8029 241.19 81.3829 241.35C68.8929 246.3 62.9528 260.7 66.2628 278.04C67.8128 286.17 71.2529 293.78 75.9529 299.46C81.4529 306.11 88.1828 309.63 95.4128 309.63C98.2728 309.63 101.163 309.06 104.033 307.95C105.553 307.36 106.583 305.93 106.663 304.3L108.783 263.06C108.813 262.48 108.723 261.9 108.513 261.36C105.783 254.25 100.693 241.02 84.3729 241.02H84.3829Z" fill="#543714"/>
<path d="M192.213 310.44H233.233C233.233 299.11 224.053 289.93 212.723 289.93C201.393 289.93 192.213 299.11 192.213 310.44Z" fill="#543714" stroke="#553711" stroke-width="4" stroke-linecap="round" stroke-linejoin="round"/>
<path d="M192.193 321.19C188.683 321.19 185.823 318.33 185.823 314.82C185.823 311.31 188.683 308.45 192.193 308.45H233.263C236.773 308.45 239.633 311.31 239.633 314.82C239.633 318.33 236.773 321.19 233.263 321.19H192.193Z" fill="white"/>
<path d="M233.263 310.44C235.663 310.44 237.633 312.41 237.633 314.81C237.633 317.21 235.663 319.18 233.263 319.18H192.193C189.793 319.18 187.823 317.21 187.823 314.81C187.823 312.41 189.793 310.44 192.193 310.44H233.263ZM233.263 306.44H192.193C187.573 306.44 183.823 310.2 183.823 314.81C183.823 319.42 187.583 323.18 192.193 323.18H233.263C237.883 323.18 241.633 319.42 241.633 314.81C241.633 310.2 237.873 306.44 233.263 306.44Z" fill="#543714"/>
<path d="M158.403 310.44H117.383C117.383 299.11 126.563 289.93 137.893 289.93C149.223 289.93 158.403 299.11 158.403 310.44Z" fill="#543714" stroke="#553711" stroke-width="4" stroke-linecap="round" stroke-linejoin="round"/>
<path d="M117.353 321.19C113.843 321.19 110.983 318.33 110.983 314.82C110.983 311.31 113.843 308.45 117.353 308.45H158.423C161.933 308.45 164.793 311.31 164.793 314.82C164.793 318.33 161.933 321.19 158.423 321.19H117.353Z" fill="white"/>
<path d="M158.423 310.44C160.823 310.44 162.793 312.41 162.793 314.81C162.793 317.21 160.823 319.18 158.423 319.18H117.353C114.953 319.18 112.983 317.21 112.983 314.81C112.983 312.41 114.953 310.44 117.353 310.44H158.423ZM158.423 306.44H117.353C112.733 306.44 108.983 310.2 108.983 314.81C108.983 319.42 112.743 323.18 117.353 323.18H158.423C163.043 323.18 166.793 319.42 166.793 314.81C166.793 310.2 163.033 306.44 158.423 306.44Z" fill="#543714"/>
<path d="M98.5928 307.4C90.9528 307.4 82.3727 297.02 78.1727 282.71C73.4727 266.69 76.1128 252.29 84.1828 249.92C84.9328 249.7 85.7227 249.59 86.5227 249.59C94.1627 249.59 102.743 259.97 106.943 274.28C109.113 281.67 109.793 289.05 108.873 295.06C107.873 301.59 105.053 305.86 100.933 307.07C100.183 307.29 99.3928 307.4 98.5828 307.4H98.5928Z" fill="white"/>
<path d="M86.5327 251.6C93.1327 251.6 101.083 261.37 105.033 274.85C109.353 289.57 107.263 303.14 100.373 305.16C99.7927 305.33 99.1927 305.41 98.5927 305.41C91.9927 305.41 84.0427 295.64 80.0927 282.16C75.7827 267.44 77.8628 253.87 84.7528 251.85C85.3328 251.68 85.9327 251.6 86.5327 251.6ZM86.5327 247.6C85.5427 247.6 84.5627 247.74 83.6227 248.01C74.3227 250.74 71.1628 265.9 76.2528 283.28C80.7628 298.66 89.9427 309.4 98.5927 309.4C99.5827 309.4 100.563 309.26 101.503 308.99C106.413 307.55 109.733 302.71 110.863 295.37C111.833 289.08 111.123 281.39 108.873 273.72C104.363 258.34 95.1827 247.6 86.5327 247.6Z" fill="#553711"/>
<path d="M111.793 284.3C108.493 284.3 105.713 282.77 103.953 280L61.2333 212.75C58.0433 207.73 60.0933 201.7 66.3133 197.74C68.9233 196.08 71.6432 195.2 74.1732 195.2C77.4932 195.2 80.2933 196.73 82.0533 199.51L124.773 266.76C126.453 269.41 126.723 272.32 125.543 275.19C124.523 277.67 122.493 279.94 119.663 281.73C117.033 283.4 114.313 284.28 111.783 284.28L111.793 284.3Z" fill="#CA9F70"/>
<path d="M74.1829 197.12C76.6929 197.12 78.943 198.17 80.453 200.55L123.173 267.8C125.993 272.24 123.493 277.06 118.653 280.13C116.383 281.57 113.993 282.38 111.793 282.38C109.303 282.38 107.073 281.33 105.573 278.97L62.853 211.72C60.033 207.28 62.513 202.43 67.343 199.36C69.603 197.93 71.9829 197.12 74.1829 197.12ZM74.1829 193.29C71.2829 193.29 68.2129 194.27 65.2929 196.13C62.1229 198.14 59.8429 200.72 58.6729 203.59C57.2829 207.02 57.623 210.64 59.613 213.78L102.333 281.03C104.453 284.37 107.813 286.22 111.793 286.22C114.683 286.22 117.773 285.23 120.703 283.37C123.873 281.36 126.163 278.79 127.323 275.94C128.723 272.52 128.393 268.9 126.393 265.75L83.6729 198.5C81.5429 195.14 78.1629 193.3 74.1729 193.3L74.1829 193.29Z" fill="#543714"/>
<path d="M74.5354 210.767C78.4236 208.297 80.1569 204.062 78.407 201.306C76.6571 198.551 72.0866 198.319 68.1984 200.789C64.3103 203.258 62.5768 207.494 64.3267 210.249C66.0766 213.004 70.6472 213.236 74.5354 210.767Z" fill="white"/>
<path d="M79.193 223.63C80.843 222.67 82.363 221.47 83.673 220.08C84.083 219.65 83.433 219 83.023 219.43C81.753 220.76 80.3131 221.91 78.7231 222.83C78.2131 223.13 78.673 223.92 79.183 223.62L79.193 223.63Z" fill="#543714"/>
<path d="M81.7831 224.43C82.2931 224.05 82.8031 223.67 83.3131 223.29C83.4131 223.22 83.493 223.14 83.523 223.02C83.553 222.91 83.5431 222.76 83.4731 222.67C83.4031 222.58 83.3131 222.49 83.2031 222.46C83.0931 222.43 82.9431 222.43 82.8531 222.51C82.3431 222.89 81.8331 223.27 81.3231 223.65C81.2231 223.72 81.1431 223.8 81.1131 223.92C81.0831 224.03 81.0931 224.18 81.1631 224.27C81.2331 224.36 81.3231 224.45 81.4331 224.48C81.5431 224.51 81.6931 224.51 81.7831 224.43Z" fill="#543714"/>
<path d="M80.373 228.5C83.153 226.85 85.763 224.94 88.183 222.8C88.623 222.41 87.973 221.76 87.533 222.15C85.173 224.24 82.623 226.1 79.913 227.71C79.403 228.01 79.863 228.81 80.373 228.5V228.5Z" fill="#543714"/>
<path d="M79.3929 219.62C81.9029 223.07 83.5329 227.8 81.0229 231.71C80.7029 232.21 81.4929 232.67 81.8129 232.17C84.4929 227.99 82.8929 222.86 80.1829 219.15C79.8429 218.68 79.0429 219.13 79.3929 219.61V219.62Z" fill="#543714"/>
<path d="M85.6731 225.18C86.4731 225.3 87.2731 225.3 88.0831 225.3C88.8931 225.3 89.7331 225.3 90.5531 225.3C91.1431 225.3 91.1431 224.38 90.5531 224.38C89.7631 224.38 88.9731 224.38 88.1731 224.38C87.4231 224.38 86.6631 224.4 85.9131 224.29C85.6631 224.25 85.4231 224.35 85.3431 224.61C85.2831 224.83 85.4131 225.14 85.6631 225.18H85.6731Z" fill="#543714"/>
<path d="M83.743 229.03C84.643 230.6 85.643 232.1 86.753 233.54C86.903 233.74 87.153 233.84 87.383 233.7C87.573 233.59 87.7029 233.27 87.5429 233.07C86.4429 231.64 85.4329 230.13 84.5329 228.56C84.2429 228.05 83.443 228.51 83.743 229.02V229.03Z" fill="#543714"/>
<path d="M85.1828 228.93C85.1828 228.61 85.4828 228.37 85.6928 228.16C85.9628 227.9 86.2528 227.64 86.5428 227.41C86.6728 227.3 86.8028 227.2 86.9428 227.1C86.9828 227.07 87.1428 226.93 87.1928 226.93C87.1828 226.93 87.1028 226.9 87.1928 226.95C87.3228 227.03 87.4228 227.21 87.5128 227.33C87.6228 227.47 87.7328 227.61 87.8328 227.75C88.6928 228.91 89.4129 230.18 89.9729 231.52C90.0729 231.75 90.2728 231.91 90.5428 231.84C90.7628 231.78 90.9629 231.51 90.8629 231.27C90.1529 229.57 89.2228 227.99 88.0728 226.56C87.8128 226.24 87.4728 225.92 87.0228 226.02C86.5928 226.11 86.1829 226.53 85.8529 226.79C85.2029 227.31 84.2528 228.01 84.2628 228.93C84.2628 229.52 85.1828 229.52 85.1828 228.93V228.93Z" fill="#543714"/>
<path d="M86.5128 231.38C87.1928 230.85 87.8628 230.31 88.5128 229.75C88.6928 229.59 88.6828 229.26 88.5128 229.1C88.3228 228.92 88.0629 228.93 87.8629 229.1C87.2129 229.66 86.5429 230.21 85.8629 230.73C85.7729 230.8 85.7329 230.95 85.7329 231.05C85.7329 231.16 85.7829 231.3 85.8629 231.37C85.9429 231.44 86.0629 231.51 86.1829 231.5C86.3129 231.5 86.4029 231.44 86.5029 231.37L86.5128 231.38Z" fill="#543714"/>
<path d="M86.873 234.49C87.983 233.65 89.103 232.81 90.213 231.97C90.413 231.82 90.513 231.57 90.373 231.34C90.263 231.15 89.943 231.02 89.743 231.18C88.633 232.02 87.5129 232.86 86.4029 233.7C86.2029 233.85 86.103 234.1 86.243 234.33C86.353 234.52 86.673 234.65 86.873 234.49Z" fill="#543714"/>
<path d="M88.8228 237.88C88.7028 238.4 88.5428 238.84 88.3228 239.27C88.0828 239.74 87.8028 240.14 87.4928 240.5C87.3328 240.68 87.3028 240.97 87.4928 241.15C87.6628 241.31 87.9727 241.34 88.1427 241.15C88.9027 240.28 89.4528 239.24 89.7128 238.12C89.7628 237.89 89.6427 237.61 89.3927 237.55C89.1527 237.5 88.8828 237.62 88.8228 237.87V237.88Z" fill="#543714"/>
<path d="M88.6032 244.45C90.0832 243.32 91.5132 242.13 92.8932 240.87C93.3332 240.47 92.6833 239.82 92.2433 240.22C90.9333 241.43 89.5632 242.57 88.1432 243.65C87.9432 243.8 87.8433 244.05 87.9833 244.28C88.0933 244.47 88.4133 244.6 88.6133 244.44L88.6032 244.45Z" fill="#543714"/>
<path d="M88.9331 239.65C89.3531 240.91 90.2431 242.01 90.9631 243.11C91.7531 244.31 92.5431 245.52 93.3331 246.72C93.6531 247.21 94.4531 246.75 94.1231 246.26C93.3631 245.1 92.5931 243.93 91.8331 242.77C91.4531 242.2 91.0831 241.62 90.7031 241.05C90.3631 240.53 90.0131 240.01 89.8131 239.41C89.6231 238.85 88.7431 239.09 88.9231 239.65H88.9331Z" fill="#543714"/>
<path d="M90.563 242.34C90.803 244.06 90.0931 245.76 89.4731 247.32C89.3831 247.55 89.573 247.82 89.793 247.89C90.053 247.96 90.2631 247.8 90.3631 247.57C91.0731 245.82 91.733 244.02 91.453 242.1C91.423 241.85 91.1031 241.72 90.8831 241.78C90.6231 241.85 90.523 242.1 90.563 242.35V242.34Z" fill="#543714"/>
<path d="M91.1527 243.28L94.1127 243.6C94.3527 243.63 94.5827 243.37 94.5727 243.14C94.5627 242.87 94.3727 242.71 94.1127 242.68L91.1527 242.36C90.9127 242.33 90.6827 242.59 90.6927 242.82C90.7027 243.09 90.8927 243.25 91.1527 243.28Z" fill="#543714"/>
<path d="M93.133 238.92C93.543 239.36 94.123 239.68 94.733 239.76C94.863 239.78 94.9729 239.78 95.0829 239.71C95.1829 239.65 95.2729 239.54 95.2929 239.44C95.3229 239.32 95.313 239.19 95.243 239.09C95.183 239 95.083 238.89 94.973 238.88C94.773 238.85 94.573 238.8 94.383 238.72L94.493 238.77C94.303 238.69 94.1329 238.59 93.9629 238.46L94.0529 238.53C93.9529 238.45 93.8529 238.37 93.7729 238.27C93.6129 238.09 93.283 238.09 93.123 238.27C92.953 238.46 92.943 238.73 93.123 238.92H93.133Z" fill="#543714"/>
<path d="M96.3129 235.76C96.3729 235.9 96.4129 236.05 96.4529 236.2C96.4729 236.26 96.483 236.33 96.493 236.39C96.493 236.41 96.493 236.43 96.503 236.45C96.503 236.5 96.503 236.49 96.503 236.42C96.513 236.45 96.5029 236.49 96.5129 236.52C96.5229 236.66 96.5329 236.8 96.5229 236.94C96.5229 237.02 96.513 237.09 96.503 237.17C96.493 237.28 96.523 237.07 96.503 237.17C96.503 237.21 96.493 237.26 96.483 237.3C96.443 237.54 96.5529 237.81 96.8029 237.87C97.0329 237.92 97.323 237.8 97.373 237.55C97.503 236.87 97.4629 236.16 97.2129 235.51C97.1729 235.39 97.113 235.3 97.003 235.24C96.903 235.18 96.7629 235.16 96.6529 235.19C96.4329 235.26 96.2429 235.52 96.3329 235.76H96.3129Z" fill="#543714"/>
<path d="M93.573 235.54C95.393 237.93 96.193 240.94 95.803 243.92C95.723 244.5 96.643 244.5 96.723 243.92C97.123 240.81 96.263 237.58 94.363 235.08C94.013 234.62 93.213 235.08 93.573 235.54V235.54Z" fill="#543714"/>
<path d="M96.3928 240.62C97.9628 241.06 99.5928 241.27 101.213 241.23C101.803 241.22 101.803 240.3 101.213 240.31C99.6628 240.34 98.1329 240.15 96.6329 239.73C96.0629 239.57 95.8228 240.46 96.3928 240.62Z" fill="#543714"/>
<path d="M93.4924 282.33C87.4524 282.33 81.9224 279.29 78.6924 274.2C76.1824 270.25 75.3624 265.56 76.3824 260.99C77.4024 256.42 80.1424 252.53 84.0924 250.02C86.9024 248.23 90.1424 247.29 93.4624 247.29C94.1624 247.29 94.8623 247.33 95.5523 247.41C96.1523 247.48 96.6824 247.82 97.0024 248.32L109.902 268.62C110.222 269.13 110.302 269.75 110.112 270.32C108.842 274.14 106.282 277.43 102.882 279.59C100.072 281.38 96.8224 282.32 93.5024 282.32L93.4924 282.33Z" fill="#D35061"/>
<path d="M93.4626 249.28C94.0826 249.28 94.7026 249.32 95.3126 249.39L108.213 269.69C107.123 272.97 104.953 275.9 101.813 277.9C99.2326 279.54 96.3526 280.32 93.5026 280.32C88.3726 280.32 83.3427 277.77 80.3827 273.12C75.7827 265.88 77.9226 256.29 85.1626 251.7C87.7426 250.06 90.6226 249.28 93.4626 249.28M93.4626 245.28C89.7626 245.28 86.1525 246.33 83.0125 248.32C73.9225 254.09 71.2326 266.18 77.0026 275.26C80.6026 280.93 86.7726 284.32 93.4926 284.32C97.1926 284.32 100.813 283.27 103.943 281.28C107.723 278.88 110.583 275.21 112.003 270.96C112.383 269.82 112.223 268.57 111.583 267.56L98.6826 247.26C98.0426 246.25 96.9726 245.58 95.7826 245.43C95.0126 245.34 94.2326 245.29 93.4626 245.29V245.28Z" fill="#533716"/>
<path d="M149.843 64.0898C140.593 64.0898 133.683 56.1098 133.683 48.9698C133.683 41.8298 140.593 33.8499 149.843 33.8499C151.043 33.8499 152.263 33.9898 153.453 34.2698C162.523 36.3898 172.323 42.6098 172.323 48.9698C172.323 55.3298 162.533 61.5598 153.453 63.6698C152.263 63.9498 151.043 64.0898 149.843 64.0898Z" fill="#FFCE32"/>
<path d="M149.843 35.8399C150.873 35.8399 151.923 35.9599 153.003 36.2099C164.063 38.7899 170.323 45.1799 170.323 48.9699C170.323 52.7599 164.053 59.1499 153.003 61.7299C151.933 61.9799 150.873 62.0999 149.843 62.0999C141.943 62.0999 135.683 55.2099 135.683 48.9799C135.683 42.7499 141.953 35.8599 149.843 35.8599M149.843 31.8599C145.093 31.8599 140.533 33.7699 137.003 37.2299C133.623 40.5399 131.683 44.8299 131.683 48.9899C131.683 53.1499 133.623 57.4299 137.003 60.7499C140.533 64.2099 145.093 66.1199 149.843 66.1199C151.203 66.1199 152.573 65.9599 153.913 65.6499C165.553 62.9299 174.323 55.7799 174.323 48.9999C174.323 42.2199 165.543 35.0599 153.913 32.3499C152.573 32.0399 151.203 31.8799 149.843 31.8799V31.8599Z" fill="#543714"/>
<path d="M144.423 47.02C148.113 50.9 152.703 51.84 161.593 50.27" stroke="#543714" stroke-width="3.87" stroke-linecap="round" stroke-linejoin="round"/>
<path d="M200.773 64.0901C199.573 64.0901 198.353 63.95 197.163 63.67C188.083 61.55 178.293 55.3301 178.293 48.9701C178.293 42.6101 188.083 36.3801 197.163 34.2701C198.353 33.9901 199.573 33.8501 200.773 33.8501C210.023 33.8501 216.933 41.8301 216.933 48.9701C216.933 52.5901 215.213 56.36 212.213 59.3C209.053 62.39 204.993 64.1001 200.773 64.1001V64.0901Z" fill="#FFCE32"/>
<path d="M200.773 35.8401C208.673 35.8401 214.933 42.7301 214.933 48.9601C214.933 55.1901 208.663 62.0801 200.773 62.0801C199.743 62.0801 198.683 61.9601 197.613 61.7101C186.553 59.1301 180.293 52.7401 180.293 48.9501C180.293 45.1601 186.563 38.7701 197.613 36.1901C198.683 35.9401 199.743 35.8201 200.773 35.8201M200.773 31.8201C199.413 31.8201 198.043 31.98 196.703 32.29C185.063 35.01 176.293 42.1601 176.293 48.9401C176.293 55.7201 185.073 62.8801 196.703 65.5901C198.043 65.9001 199.413 66.0601 200.773 66.0601C205.523 66.0601 210.083 64.1501 213.613 60.6901C216.993 57.3801 218.933 53.0901 218.933 48.9301C218.933 44.7701 216.993 40.49 213.613 37.17C210.083 33.71 205.523 31.8 200.773 31.8V31.8201Z" fill="#543714"/>
<path d="M206.193 47.02C202.503 50.9 197.913 51.84 189.023 50.27" stroke="#543714" stroke-width="3.87" stroke-linecap="round" stroke-linejoin="round"/>
<path d="M175.443 64.76C169.353 64.76 162.843 60.96 162.843 50.3C162.843 44.34 165.353 40.59 167.573 37.28C168.943 35.24 170.233 33.31 170.933 30.95C171.723 28.29 173.623 28.01 174.413 28.01C179.923 28.01 187.793 42.42 187.793 50.29C187.793 59.35 183.183 64.75 175.463 64.75L175.443 64.76Z" fill="#E30413"/>
<path d="M174.402 30.01C178.042 30.01 185.782 42.6 185.782 50.29C185.782 59.12 181.233 62.75 175.453 62.75C169.673 62.75 164.853 59.12 164.853 50.29C164.853 41.46 170.853 38.24 172.853 31.52C173.163 30.47 173.712 30.01 174.412 30.01M174.412 26.01C172.432 26.01 169.982 27.16 169.022 30.38C168.402 32.45 167.252 34.17 165.912 36.16C163.652 39.53 160.853 43.72 160.853 50.29C160.853 55.52 162.283 59.66 165.103 62.6C167.703 65.32 171.283 66.75 175.463 66.75C182.393 66.75 189.792 62.42 189.792 50.29C189.792 46.11 187.972 40.49 184.932 35.25C180.492 27.61 176.762 26 174.422 26L174.412 26.01Z" fill="#543714"/>
<path d="M262.243 99.95C262.023 99.95 261.803 99.91 261.593 99.84C235.463 90.87 205.623 86.03 175.293 85.84C144.993 86.03 115.143 90.87 89.0126 99.84C88.8026 99.91 88.5827 99.95 88.3627 99.95C87.8427 99.95 87.3326 99.7499 86.9526 99.3699C86.4126 98.8299 86.2226 98.0399 86.4626 97.3199C87.9226 92.9399 89.8327 88.5999 92.1227 84.4299C92.3727 83.9799 92.7826 83.6399 93.2626 83.4899C116.783 75.9499 145.143 71.97 175.293 71.97C205.443 71.97 233.813 75.9499 257.323 83.4899C257.813 83.6499 258.223 83.9799 258.463 84.4299C260.753 88.5899 262.653 92.9299 264.123 97.3199C264.363 98.0399 264.173 98.8399 263.633 99.3699C263.253 99.7499 262.743 99.95 262.223 99.95H262.243Z" fill="#FFCE32"/>
<path d="M175.302 73.97C206.112 73.97 234.423 78.25 256.723 85.4C258.923 89.41 260.783 93.61 262.243 97.96C236.623 89.16 206.962 84.05 175.302 83.85C143.642 84.05 113.983 89.16 88.3625 97.96C89.8125 93.61 91.6725 89.41 93.8825 85.4C116.183 78.25 144.492 73.97 175.302 73.97ZM175.302 69.97C144.952 69.97 116.372 73.99 92.6624 81.59C91.6924 81.9 90.8725 82.58 90.3825 83.47C88.0325 87.74 86.0825 92.1899 84.5825 96.6899C84.1025 98.1299 84.4825 99.7299 85.5625 100.8C86.3225 101.56 87.3425 101.96 88.3825 101.96C88.8125 101.96 89.2525 101.89 89.6825 101.74C115.612 92.8399 145.232 88.03 175.342 87.85C205.412 88.04 235.032 92.8399 260.952 101.74C261.372 101.89 261.813 101.96 262.253 101.96C263.293 101.96 264.312 101.56 265.072 100.8C266.152 99.7299 266.532 98.1399 266.052 96.6899C264.552 92.1899 262.593 87.74 260.253 83.47C259.763 82.57 258.943 81.9 257.973 81.59C234.263 73.99 205.682 69.97 175.332 69.97H175.302Z" fill="#543714"/>
</svg>
