<svg width="350" height="350" viewBox="0 0 350 350" fill="none" xmlns="http://www.w3.org/2000/svg">
<path d="M82.6201 324.93C81.5201 324.93 80.6201 324.03 80.6201 322.93C80.6201 321.83 81.5201 320.93 82.6201 320.93C84.2801 320.27 87.52 310.37 87.52 293.82C87.52 272.87 96.6501 253.15 113.22 238.28C129.3 223.86 150.62 215.59 173.42 214.89C173.56 214.86 173.71 214.84 173.86 214.84H176.56C176.71 214.84 176.86 214.86 177 214.89C199.83 215.6 221.13 223.87 237.19 238.28C253.76 253.15 262.89 272.88 262.89 293.82C262.89 310.37 266.13 320.27 267.87 320.94C268.97 320.94 269.83 321.83 269.83 322.93C269.83 324.03 268.89 324.92 267.79 324.92H82.6201V324.93Z" fill="#FFCE32"/>
<path d="M176.56 216.84C176.11 216.84 175.66 216.84 175.21 216.84C174.76 216.84 174.31 216.84 173.86 216.84H176.56ZM175.21 216.84C222.7 217.47 260.9 251.66 260.9 293.81C260.9 309.9 263.99 322.92 267.8 322.92H82.6301C86.4401 322.92 89.5302 309.9 89.5302 293.81C89.5302 251.66 127.73 217.48 175.22 216.84M176.57 212.83H173.87C173.65 212.83 173.43 212.85 173.21 212.88C149.99 213.62 128.28 222.07 111.89 236.77C94.8901 252.02 85.5302 272.28 85.5302 293.8C85.5302 308.27 83.1002 317.02 81.6202 319.03C79.9002 319.48 78.6301 321.04 78.6301 322.9C78.6301 325.11 80.4201 326.9 82.6301 326.9H267.8C270.01 326.9 271.8 325.11 271.8 322.9C271.8 321.04 270.53 319.47 268.81 319.03C267.33 317.01 264.9 308.26 264.9 293.8C264.9 272.28 255.54 252.02 238.54 236.77C222.15 222.06 200.44 213.62 177.22 212.88C177.01 212.84 176.79 212.83 176.56 212.83H176.57Z" fill="#543714"/>
<path d="M192.11 320.52C191.01 320.52 190.11 319.62 190.11 318.52C190.11 306.11 200.21 296.01 212.62 296.01C225.03 296.01 235.13 306.11 235.13 318.52C235.13 319.62 234.23 320.52 233.13 320.52H192.11V320.52Z" fill="#E30413"/>
<path d="M212.63 298.01C223.96 298.01 233.14 307.19 233.14 318.52H192.12C192.12 307.19 201.3 298.01 212.63 298.01M212.63 294.01C199.11 294.01 188.12 305.01 188.12 318.52C188.12 320.73 189.91 322.52 192.12 322.52H233.14C235.35 322.52 237.14 320.73 237.14 318.52C237.14 305 226.14 294.01 212.63 294.01V294.01Z" fill="#543714"/>
<path d="M192.09 329.27C188.58 329.27 185.72 326.41 185.72 322.9C185.72 319.39 188.58 316.53 192.09 316.53H233.16C236.67 316.53 239.53 319.39 239.53 322.9C239.53 326.41 236.67 329.27 233.16 329.27H192.09Z" fill="white"/>
<path d="M233.16 318.52C235.56 318.52 237.53 320.49 237.53 322.89C237.53 325.29 235.56 327.26 233.16 327.26H192.09C189.69 327.26 187.72 325.29 187.72 322.89C187.72 320.49 189.69 318.52 192.09 318.52H233.16ZM233.16 314.52H192.09C187.47 314.52 183.72 318.28 183.72 322.89C183.72 327.5 187.48 331.26 192.09 331.26H233.16C237.78 331.26 241.53 327.5 241.53 322.89C241.53 318.28 237.77 314.52 233.16 314.52Z" fill="#543714"/>
<path d="M185.15 329.46C184.6 329.45 184.07 329.21 183.7 328.79C183.33 328.38 183.15 327.83 183.2 327.28L188 274.56C188.02 274.37 188.06 274.19 188.13 274.02C192.52 262.75 216.6 255.37 235.95 249.44C238.01 248.81 240.01 248.2 241.91 247.6C242.1 247.54 242.3 247.51 242.51 247.51C242.53 247.51 242.55 247.51 242.56 247.51C251.29 247.75 256.04 252.34 255.93 260.43C255.62 282.67 216.2 329.47 185.76 329.47C185.76 329.47 185.35 329.47 185.15 329.47V329.46Z" fill="#FFCE32"/>
<path d="M242.51 249.5C277.85 250.47 223.32 327.46 185.76 327.46C185.57 327.46 185.38 327.46 185.19 327.46L189.99 274.74C194.47 263.24 223.2 255.55 242.51 249.51M242.51 245.51C242.11 245.51 241.7 245.57 241.32 245.69C239.42 246.28 237.42 246.9 235.37 247.53C214.58 253.9 191.01 261.12 186.27 273.29C186.13 273.64 186.05 274.01 186.01 274.38L181.21 327.1C181.11 328.2 181.47 329.3 182.21 330.13C182.95 330.96 184 331.44 185.11 331.46C185.33 331.46 185.54 331.46 185.76 331.46C192.46 331.46 210.54 328.86 233.48 304.73C248.18 289.27 257.78 271.89 257.93 260.45C258.05 251.36 252.33 245.77 242.62 245.5C242.58 245.5 242.55 245.5 242.51 245.5V245.51Z" fill="#543714"/>
<path d="M117.28 320.52C116.18 320.52 115.28 319.62 115.28 318.52C115.28 306.11 125.38 296.01 137.79 296.01C150.2 296.01 160.3 306.11 160.3 318.52C160.3 319.62 159.4 320.52 158.3 320.52H117.28V320.52Z" fill="#E30413"/>
<path d="M137.79 298.01C149.12 298.01 158.3 307.19 158.3 318.52H117.28C117.28 307.19 126.46 298.01 137.79 298.01M137.79 294.01C124.27 294.01 113.28 305.01 113.28 318.52C113.28 320.73 115.07 322.52 117.28 322.52H158.3C160.51 322.52 162.3 320.73 162.3 318.52C162.3 305 151.3 294.01 137.79 294.01Z" fill="#543714"/>
<path d="M117.25 329.27C113.74 329.27 110.88 326.41 110.88 322.9C110.88 319.39 113.74 316.53 117.25 316.53H158.32C161.83 316.53 164.69 319.39 164.69 322.9C164.69 326.41 161.83 329.27 158.32 329.27H117.25V329.27Z" fill="white"/>
<path d="M158.33 318.52C160.73 318.52 162.7 320.49 162.7 322.89C162.7 325.29 160.73 327.26 158.33 327.26H117.26C114.86 327.26 112.89 325.29 112.89 322.89C112.89 320.49 114.86 318.52 117.26 318.52H158.33ZM158.33 314.52H117.26C112.64 314.52 108.89 318.28 108.89 322.89C108.89 327.5 112.65 331.26 117.26 331.26H158.33C162.95 331.26 166.7 327.5 166.7 322.89C166.7 318.28 162.94 314.52 158.33 314.52Z" fill="#543714"/>
<path d="M79.2703 214.12C69.1203 214.12 60.2303 207.62 57.1303 197.95C54.4603 189.61 56.6903 180.56 62.8003 174.43C62.1303 173.27 61.5903 172.04 61.1803 170.75C59.6303 165.91 60.0603 160.77 62.3803 156.25C64.7003 151.73 68.6504 148.4 73.4804 146.85C75.3704 146.25 77.3203 145.94 79.2903 145.94C87.5803 145.94 94.8603 151.25 97.3903 159.15C99.0403 164.3 98.4403 169.78 95.7503 174.42C98.3503 177.02 100.3 180.22 101.43 183.75C105.34 195.96 98.5903 209.08 86.3803 213C84.0703 213.74 81.6803 214.12 79.2803 214.12H79.2703Z" fill="#F9C5AF"/>
<path d="M79.2802 147.94C86.4802 147.94 93.1602 152.54 95.4702 159.76C97.1602 165.04 96.1202 170.54 93.1502 174.75C96.0202 177.22 98.2702 180.49 99.5102 184.36C103.09 195.54 96.9301 207.51 85.7501 211.09C83.5901 211.78 81.4101 212.11 79.2601 212.11C70.2701 212.11 61.9102 206.36 59.0202 197.33C56.3402 188.96 59.1103 180.15 65.3703 174.75C64.4003 173.37 63.6102 171.82 63.0702 170.13C60.2002 161.18 65.1302 151.61 74.0802 148.74C75.8102 148.19 77.5602 147.92 79.2802 147.92M79.2802 143.92C77.1102 143.92 74.9502 144.26 72.8602 144.93C67.5202 146.64 63.1602 150.33 60.5902 155.32C58.0202 160.31 57.5501 166 59.2601 171.34C59.5601 172.28 59.9302 173.19 60.3502 174.08C54.4902 180.69 52.4602 189.96 55.2102 198.54C58.5802 209.04 68.2401 216.1 79.2601 216.1C81.8701 216.1 84.4702 215.69 86.9702 214.89C100.23 210.64 107.57 196.39 103.31 183.13C102.23 179.77 100.48 176.69 98.1602 174.08C100.52 169.25 100.94 163.74 99.2602 158.53C96.4602 149.8 88.4201 143.93 79.2601 143.93L79.2802 143.92Z" fill="#553711"/>
<path d="M271.15 214.12C268.74 214.12 266.36 213.74 264.05 213C251.84 209.09 245.09 195.96 249 183.75C250.13 180.22 252.08 177.02 254.68 174.42C251.99 169.78 251.39 164.3 253.04 159.15C255.57 151.25 262.85 145.94 271.14 145.94C273.1 145.94 275.06 146.25 276.95 146.85C281.78 148.4 285.73 151.74 288.05 156.25C290.37 160.77 290.8 165.91 289.25 170.75C288.84 172.03 288.29 173.27 287.63 174.43C293.74 180.56 295.97 189.61 293.3 197.95C290.2 207.62 281.3 214.12 271.16 214.12H271.15Z" fill="#F9C5AF"/>
<path d="M271.14 147.94C272.86 147.94 274.61 148.2 276.34 148.76C285.29 151.63 290.21 161.2 287.35 170.15C286.81 171.84 286.02 173.39 285.05 174.77C291.3 180.18 294.08 188.98 291.4 197.35C288.51 206.37 280.15 212.13 271.16 212.13C269.01 212.13 266.82 211.8 264.67 211.11C253.49 207.53 247.33 195.56 250.91 184.38C252.15 180.51 254.4 177.24 257.27 174.77C254.3 170.56 253.26 165.07 254.95 159.78C257.26 152.56 263.95 147.96 271.14 147.96M271.14 143.96C261.97 143.96 253.94 149.83 251.14 158.56C249.47 163.78 249.89 169.29 252.24 174.11C249.92 176.72 248.17 179.8 247.09 183.16C242.84 196.42 250.17 210.67 263.43 214.92C265.94 215.72 268.53 216.13 271.14 216.13C282.16 216.13 291.82 209.07 295.19 198.57C297.94 189.99 295.91 180.73 290.05 174.11C290.48 173.23 290.84 172.31 291.14 171.37C292.85 166.03 292.38 160.34 289.81 155.35C287.24 150.36 282.89 146.67 277.54 144.96C275.46 144.29 273.3 143.95 271.12 143.95L271.14 143.96Z" fill="#553711"/>
<path d="M164.66 329.46C134.22 329.46 94.7901 282.66 94.4901 260.42C94.3801 252.33 99.1301 247.74 107.86 247.5C107.88 247.5 107.9 247.5 107.91 247.5C108.11 247.5 108.31 247.53 108.51 247.59C110.42 248.19 112.42 248.8 114.47 249.43C133.82 255.36 157.9 262.74 162.29 274.01C162.36 274.18 162.4 274.37 162.42 274.55L167.22 327.27C167.27 327.82 167.09 328.37 166.72 328.78C166.35 329.19 165.83 329.43 165.27 329.45C165.07 329.45 164.86 329.45 164.66 329.45V329.46Z" fill="#FFCE32"/>
<path d="M107.91 249.5C127.22 255.54 155.95 263.23 160.43 274.73L165.23 327.45C165.04 327.45 164.85 327.45 164.66 327.45C127.1 327.45 72.5701 250.46 107.91 249.49M107.91 245.49C107.91 245.49 107.84 245.49 107.8 245.49C98.0901 245.76 92.3701 251.34 92.4901 260.44C92.6501 271.88 102.25 289.26 116.94 304.72C139.88 328.85 157.95 331.45 164.66 331.45C164.88 331.45 165.09 331.45 165.31 331.45C166.42 331.43 167.47 330.94 168.21 330.12C168.95 329.29 169.31 328.2 169.21 327.09L164.41 274.37C164.38 274 164.29 273.63 164.15 273.28C159.41 261.11 135.84 253.89 115.05 247.52C113 246.89 111 246.28 109.1 245.68C108.71 245.56 108.31 245.5 107.91 245.5V245.49Z" fill="#543714"/>
<path d="M175.21 267.67C117.55 267.67 77.2703 241.41 77.2703 203.82C77.2703 194.75 79.5503 185.91 84.0403 177.54C83.9903 174.3 83.9703 160.12 83.9703 159.33C83.9703 135.3 93.4903 113.45 110.76 97.81C127.57 82.6 150.45 74.22 175.2 74.22C199.95 74.22 222.83 82.6 239.64 97.81C256.92 113.45 266.43 135.3 266.43 159.33C266.43 160.09 266.4 174.31 266.36 177.54C270.86 185.91 273.13 194.74 273.13 203.82C273.13 241.41 232.86 267.67 175.19 267.67H175.21Z" fill="#FCD8C1"/>
<path d="M175.21 76.22C224.49 76.22 264.44 110.04 264.44 159.33C264.44 160.57 264.41 176.8 264.36 178.03C268.74 186.01 271.14 194.71 271.14 203.82C271.14 242.32 228.19 265.67 175.2 265.67C122.21 265.67 79.2603 242.31 79.2603 203.82C79.2603 194.71 81.6703 186.01 86.0403 178.03C85.9903 176.8 85.9603 160.57 85.9603 159.33C85.9603 110.05 125.91 76.22 175.19 76.22M175.19 72.22C149.94 72.22 126.58 80.78 109.41 96.33C91.7103 112.35 81.9603 134.73 81.9603 159.33C81.9603 159.48 81.9803 172.87 82.0303 177.05C77.5403 185.57 75.2603 194.57 75.2603 203.82C75.2603 213.95 78.0103 223.39 83.4303 231.88C88.5303 239.86 95.8703 246.83 105.27 252.59C123.22 263.6 148.06 269.67 175.2 269.67C202.34 269.67 227.18 263.6 245.13 252.59C254.53 246.83 261.87 239.86 266.97 231.88C272.39 223.39 275.14 213.95 275.14 203.82C275.14 194.58 272.86 185.58 268.37 177.05C268.41 172.87 268.44 159.47 268.44 159.33C268.44 134.73 258.69 112.35 240.99 96.33C223.82 80.78 200.45 72.22 175.21 72.22H175.19Z" fill="#553711"/>
<path d="M127.2 178.01C129.56 170.74 136.32 165.36 144.93 165.36C153.54 165.36 158.38 170.97 158.38 178.01" stroke="#553711" stroke-width="3" stroke-linecap="round" stroke-linejoin="round"/>
<path d="M223.22 178.01C220.86 170.74 214.1 165.36 205.49 165.36C196.88 165.36 192.04 170.97 192.04 178.01" stroke="#553711" stroke-width="3" stroke-linecap="round" stroke-linejoin="round"/>
<path d="M189.78 214.91C189.78 220.37 183.26 224.78 175.21 224.78C167.16 224.78 160.64 220.36 160.64 214.91" stroke="#F08262" stroke-width="3" stroke-linecap="round" stroke-linejoin="round"/>
<path opacity="0.5" d="M82.6204 187.84C82.3504 187.84 82.0803 187.85 81.8103 187.86C80.1603 192.99 79.2603 198.33 79.2603 203.82C79.2603 225.28 92.6104 242.03 113.61 252.66C120.22 245.78 124.25 236.69 124.25 226.71C124.25 205.24 105.61 187.83 82.6104 187.83L82.6204 187.84Z" fill="#F39B9B"/>
<path opacity="0.5" d="M267.79 187.84C268.06 187.84 268.33 187.85 268.6 187.86C270.25 192.99 271.15 198.33 271.15 203.82C271.15 225.28 257.8 242.03 236.8 252.66C230.19 245.78 226.16 236.69 226.16 226.71C226.16 205.24 244.8 187.83 267.8 187.83L267.79 187.84Z" fill="#F39B9B"/>
<path d="M175.21 189.71C178.22 189.71 180.66 188.452 180.66 186.9C180.66 185.348 178.22 184.09 175.21 184.09C172.2 184.09 169.76 185.348 169.76 186.9C169.76 188.452 172.2 189.71 175.21 189.71Z" fill="#F9C5AF"/>
<path d="M175.21 189.71C178.22 189.71 180.66 188.452 180.66 186.9C180.66 185.348 178.22 184.09 175.21 184.09C172.2 184.09 169.76 185.348 169.76 186.9C169.76 188.452 172.2 189.71 175.21 189.71Z" fill="#F9C5AF"/>
<path d="M220.48 254.24C218.37 254.24 212.04 248.65 212.04 240.41C212.04 219.64 195.52 202.49 175.21 202.18C154.92 202.49 138.39 219.65 138.39 240.41C138.39 248.66 132.05 254.24 129.95 254.24C129.67 254.24 129.45 254.02 129.45 253.74C129.45 253.46 129.67 253.24 129.95 253.24C130.95 253.24 132.82 247.76 132.82 237.3C132.82 213.69 151.4 194.14 174.4 193.34C174.45 193.32 174.5 193.31 174.56 193.31H175.88C175.94 193.31 175.99 193.31 176.04 193.34C199.05 194.15 217.62 213.69 217.62 237.3C217.62 247.77 219.49 253.24 220.49 253.24C220.77 253.24 220.99 253.46 220.99 253.74C220.99 254.02 220.77 254.24 220.49 254.24H220.48Z" fill="#543714"/>
<path d="M175.87 193.82C175.65 193.82 175.43 193.82 175.21 193.82C174.99 193.82 174.77 193.82 174.55 193.82H175.87M175.21 193.82C198.43 194.18 217.1 213.49 217.1 237.3C217.1 246.39 218.61 253.74 220.47 253.74C218.81 253.74 212.53 248.5 212.53 240.41C212.53 219.2 195.89 201.99 175.21 201.68C175.41 201.68 175.6 201.68 175.8 201.68H174.63C174.83 201.68 175.02 201.68 175.22 201.68C154.54 202 137.9 219.2 137.9 240.41C137.9 248.51 131.62 253.74 129.96 253.74C131.82 253.74 133.33 246.39 133.33 237.3C133.33 213.49 152.01 194.18 175.22 193.82M175.88 192.81H174.56C174.48 192.81 174.4 192.81 174.33 192.84C163.16 193.24 152.72 197.91 144.85 206.07C136.78 214.44 132.33 225.53 132.33 237.3C132.33 246.61 130.78 252.17 129.89 252.74C129.37 252.78 128.96 253.21 128.96 253.74C128.96 254.27 129.41 254.74 129.96 254.74C132.19 254.74 138.9 248.95 138.9 240.41C138.9 230.42 142.67 221 149.52 213.9C156.36 206.81 165.48 202.83 175.22 202.67C184.96 202.82 194.08 206.81 200.92 213.9C207.77 221 211.54 230.42 211.54 240.41C211.54 248.96 218.25 254.74 220.48 254.74C221.03 254.74 221.48 254.29 221.48 253.74C221.48 253.19 221.07 252.78 220.55 252.74C219.66 252.16 218.11 246.61 218.11 237.3C218.11 225.53 213.66 214.44 205.59 206.07C197.72 197.92 187.28 193.24 176.11 192.84C176.03 192.82 175.96 192.81 175.88 192.81V192.81Z" fill="#553711"/>
<path d="M175.21 76.22C224.49 76.22 264.44 110.04 264.44 159.33C264.44 160.57 264.41 176.8 264.36 178.03C258 178.03 252.86 169.04 252.86 157.93C252.86 121.83 227.76 96.57 196.8 96.57C189.15 96.57 181.85 98.36 175.2 101.6C168.55 98.36 161.26 96.57 153.6 96.57C122.64 96.57 97.5402 121.83 97.5402 157.93C97.5402 169.04 92.4002 178.03 86.0402 178.03C85.9902 176.8 85.9602 160.57 85.9602 159.33C85.9602 110.05 125.91 76.22 175.19 76.22" fill="#543714"/>
<path d="M175.21 76.22C224.49 76.22 264.44 110.04 264.44 159.33C264.44 160.57 264.41 176.8 264.36 178.03C258 178.03 252.86 169.04 252.86 157.93C252.86 121.83 227.76 96.57 196.8 96.57C189.15 96.57 181.85 98.36 175.2 101.6C168.55 98.36 161.26 96.57 153.6 96.57C122.64 96.57 97.5402 121.83 97.5402 157.93C97.5402 169.04 92.4002 178.03 86.0402 178.03C85.9902 176.8 85.9602 160.57 85.9602 159.33C85.9602 110.05 125.91 76.22 175.19 76.22" stroke="#553711" stroke-width="4" stroke-linecap="round" stroke-linejoin="round"/>
<path d="M112.7 91.5501C111.6 91.5501 110.7 90.6501 110.7 89.5501C110.7 71.0101 118.39 54.3201 129.84 48.0001C141.84 41.7401 157.81 34.5701 175.22 34.5701C192.63 34.5701 208.59 41.7301 220.55 47.9701C232.04 54.3101 239.73 71.0001 239.73 89.5401C239.73 90.6401 238.83 91.5401 237.73 91.5401H112.71L112.7 91.5501Z" fill="#FFCE32"/>
<path d="M175.21 36.5801C191.46 36.5801 206.66 43.0001 219.62 49.7601C230.16 55.5701 237.72 71.2301 237.72 89.5501H112.7C112.7 71.2201 120.27 55.5701 130.8 49.7601C143.76 43.0001 158.96 36.5801 175.21 36.5801M175.21 32.5801C157.36 32.5801 141.11 39.8601 128.95 46.2101C128.92 46.2201 128.9 46.2401 128.87 46.2501C116.81 52.9001 108.7 70.3001 108.7 89.5501C108.7 91.7601 110.49 93.5501 112.7 93.5501H237.72C239.93 93.5501 241.72 91.7601 241.72 89.5501C241.72 70.3101 233.61 52.9101 221.55 46.2501C221.52 46.2301 221.5 46.2201 221.47 46.2101C209.31 39.8601 193.06 32.5801 175.21 32.5801V32.5801Z" fill="#543714"/>
<path d="M175.21 35.44C170.95 35.44 167.49 31.98 167.49 27.72C167.49 23.46 170.95 20 175.21 20C179.47 20 182.93 23.46 182.93 27.72C182.93 31.98 179.47 35.44 175.21 35.44Z" fill="#E30413"/>
<path d="M175.21 22C178.37 22 180.93 24.56 180.93 27.72C180.93 30.88 178.37 33.44 175.21 33.44C172.05 33.44 169.49 30.88 169.49 27.72C169.49 24.56 172.05 22 175.21 22M175.21 18C169.85 18 165.49 22.36 165.49 27.72C165.49 33.08 169.85 37.44 175.21 37.44C180.57 37.44 184.93 33.08 184.93 27.72C184.93 22.36 180.57 18 175.21 18V18Z" fill="#543714"/>
<path d="M150.59 39.22C146.33 39.22 142.87 35.76 142.87 31.5C142.87 27.24 146.33 23.78 150.59 23.78C154.85 23.78 158.31 27.24 158.31 31.5C158.31 35.76 154.85 39.22 150.59 39.22Z" fill="#E30413"/>
<path d="M150.59 25.78C153.75 25.78 156.31 28.34 156.31 31.5C156.31 34.66 153.75 37.22 150.59 37.22C147.43 37.22 144.87 34.66 144.87 31.5C144.87 28.34 147.43 25.78 150.59 25.78ZM150.59 21.78C145.23 21.78 140.87 26.14 140.87 31.5C140.87 36.86 145.23 41.22 150.59 41.22C155.95 41.22 160.31 36.86 160.31 31.5C160.31 26.14 155.95 21.78 150.59 21.78V21.78Z" fill="#543714"/>
<path d="M128.28 48.46C124.02 48.46 120.56 45 120.56 40.74C120.56 36.48 124.02 33.02 128.28 33.02C132.54 33.02 136 36.48 136 40.74C136 45 132.54 48.46 128.28 48.46Z" fill="#E30413"/>
<path d="M128.28 35.02C131.44 35.02 134 37.58 134 40.74C134 43.9 131.44 46.46 128.28 46.46C125.12 46.46 122.56 43.9 122.56 40.74C122.56 37.58 125.12 35.02 128.28 35.02ZM128.28 31.02C122.92 31.02 118.56 35.38 118.56 40.74C118.56 46.1 122.92 50.46 128.28 50.46C133.64 50.46 138 46.1 138 40.74C138 35.38 133.64 31.02 128.28 31.02V31.02Z" fill="#543714"/>
<path d="M175.21 36.5801V89.5601" stroke="#543714" stroke-width="4" stroke-linecap="round" stroke-linejoin="round"/>
<path d="M152.94 40.26L166.15 89.56" stroke="#543714" stroke-width="4" stroke-linecap="round" stroke-linejoin="round"/>
<path d="M132.87 48.6899L156.31 89.2999" stroke="#543714" stroke-width="4" stroke-linecap="round" stroke-linejoin="round"/>
<path d="M199.82 39.22C195.56 39.22 192.1 35.76 192.1 31.5C192.1 27.24 195.56 23.78 199.82 23.78C204.08 23.78 207.54 27.24 207.54 31.5C207.54 35.76 204.08 39.22 199.82 39.22Z" fill="#E30413"/>
<path d="M199.82 25.78C202.98 25.78 205.54 28.34 205.54 31.5C205.54 34.66 202.98 37.22 199.82 37.22C196.66 37.22 194.1 34.66 194.1 31.5C194.1 28.34 196.66 25.78 199.82 25.78ZM199.82 21.78C194.46 21.78 190.1 26.14 190.1 31.5C190.1 36.86 194.46 41.22 199.82 41.22C205.18 41.22 209.54 36.86 209.54 31.5C209.54 26.14 205.18 21.78 199.82 21.78V21.78Z" fill="#543714"/>
<path d="M222.14 48.46C217.88 48.46 214.42 45 214.42 40.74C214.42 36.48 217.88 33.02 222.14 33.02C226.4 33.02 229.86 36.48 229.86 40.74C229.86 45 226.4 48.46 222.14 48.46Z" fill="#E30413"/>
<path d="M222.14 35.02C225.3 35.02 227.86 37.58 227.86 40.74C227.86 43.9 225.3 46.46 222.14 46.46C218.98 46.46 216.42 43.9 216.42 40.74C216.42 37.58 218.98 35.02 222.14 35.02ZM222.14 31.02C216.78 31.02 212.42 35.38 212.42 40.74C212.42 46.1 216.78 50.46 222.14 50.46C227.5 50.46 231.86 46.1 231.86 40.74C231.86 35.38 227.5 31.02 222.14 31.02V31.02Z" fill="#543714"/>
<path d="M197.47 40.26L184.26 89.56" stroke="#543714" stroke-width="4" stroke-linecap="round" stroke-linejoin="round"/>
<path d="M217.55 48.6899L193.95 89.5599" stroke="#543714" stroke-width="4" stroke-linecap="round" stroke-linejoin="round"/>
<path d="M174.55 287.83C173.62 287.83 172.38 287.26 171.8 284.55C170.81 279.99 168.97 277.16 167.19 274.43C164.67 270.56 162.07 266.57 162.07 257.84C162.07 245.05 166.12 239.35 175.21 239.35C184.3 239.35 188.35 245.05 188.35 257.84C188.35 270.63 179.55 287.83 174.56 287.83H174.55Z" fill="#543714"/>
<path d="M175.21 239.85C182.19 239.85 187.85 243.14 187.85 257.84C187.85 270.27 179.07 287.33 174.56 287.33C173.54 287.33 172.73 286.45 172.3 284.45C169.88 273.27 162.58 272.54 162.58 257.84C162.58 243.14 168.24 239.85 175.22 239.85M175.22 238.85C165.91 238.85 161.58 244.88 161.58 257.84C161.58 266.72 164.23 270.78 166.79 274.71C168.63 277.53 170.36 280.19 171.33 284.67C171.99 287.7 173.45 288.34 174.57 288.34C180.18 288.34 188.86 269.82 188.86 257.85C188.86 244.89 184.53 238.86 175.22 238.86V238.85Z" fill="#553711"/>
<path d="M185.1 329.47C184.63 329.47 184.16 329.43 183.69 329.35C179.46 328.62 176.18 324.7 174.44 318.32C172.84 312.46 172.69 305.05 174.01 297.45C176.71 281.87 184.47 270.56 192.46 270.56C192.93 270.56 193.41 270.6 193.87 270.68C198.1 271.41 201.38 275.33 203.12 281.71C204.72 287.57 204.87 294.98 203.55 302.58C200.85 318.16 193.09 329.47 185.1 329.47Z" fill="white"/>
<path d="M192.46 272.56C192.82 272.56 193.17 272.59 193.53 272.65C200.6 273.88 204.21 287.12 201.59 302.23C199.1 316.59 191.89 327.46 185.11 327.46C184.75 327.46 184.4 327.43 184.04 327.37C176.97 326.14 173.36 312.9 175.98 297.79C178.47 283.43 185.68 272.56 192.46 272.56M192.46 268.56C183.49 268.56 174.91 280.57 172.04 297.11C168.95 314.96 173.81 329.66 183.35 331.32C183.92 331.42 184.51 331.47 185.1 331.47C194.07 331.47 202.65 319.46 205.52 302.92C206.89 295.05 206.72 287.33 205.04 281.19C203.09 274.02 199.24 269.59 194.2 268.72C193.63 268.62 193.04 268.57 192.45 268.57L192.46 268.56Z" fill="#553711"/>
<path d="M77.7502 89.5601V170.88" stroke="#553711" stroke-width="4" stroke-linecap="round" stroke-linejoin="round"/>
<path d="M77.7502 183.28C81.1744 183.28 83.9503 180.504 83.9503 177.08C83.9503 173.656 81.1744 170.88 77.7502 170.88C74.3261 170.88 71.5503 173.656 71.5503 177.08C71.5503 180.504 74.3261 183.28 77.7502 183.28Z" fill="#96CDAB" stroke="#553711" stroke-width="4" stroke-linecap="round" stroke-linejoin="round"/>
<path d="M82.6503 184.77H72.8604C70.3198 184.77 68.2603 186.83 68.2603 189.37V256.58C68.2603 259.121 70.3198 261.18 72.8604 261.18H82.6503C85.1908 261.18 87.2502 259.121 87.2502 256.58V189.37C87.2502 186.83 85.1908 184.77 82.6503 184.77Z" fill="#F39200" stroke="#553711" stroke-width="4" stroke-linecap="round" stroke-linejoin="round"/>
<path d="M272.67 89.5601V170.88" stroke="#553711" stroke-width="4" stroke-linecap="round" stroke-linejoin="round"/>
<path d="M272.67 183.29C276.094 183.29 278.87 180.514 278.87 177.09C278.87 173.666 276.094 170.89 272.67 170.89C269.246 170.89 266.47 173.666 266.47 177.09C266.47 180.514 269.246 183.29 272.67 183.29Z" fill="#96CDAB" stroke="#553711" stroke-width="4" stroke-linecap="round" stroke-linejoin="round"/>
<path d="M267.77 261.19H277.56C280.101 261.19 282.16 259.13 282.16 256.59V189.38C282.16 186.839 280.101 184.78 277.56 184.78H267.77C265.23 184.78 263.17 186.839 263.17 189.38V256.59C263.17 259.13 265.23 261.19 267.77 261.19Z" fill="#F39200" stroke="#553711" stroke-width="4" stroke-linecap="round" stroke-linejoin="round"/>
<path d="M174.96 62.8501C217.38 62.8501 254.78 73.6601 272.17 89.3601L250.76 110.24C233.63 100.71 206.05 94.5301 174.96 94.5301C143.86 94.5301 116.29 100.71 99.16 110.23L77.75 89.3501C95.14 73.6601 132.54 62.8401 174.96 62.8401V62.8501Z" fill="#FFCE32" stroke="#543714" stroke-width="4" stroke-linecap="round" stroke-linejoin="round"/>
<path d="M175.21 87.4101C179.921 87.4101 183.74 83.5911 183.74 78.8801C183.74 74.1691 179.921 70.3501 175.21 70.3501C170.499 70.3501 166.68 74.1691 166.68 78.8801C166.68 83.5911 170.499 87.4101 175.21 87.4101Z" fill="#96CDAB" stroke="#553711" stroke-width="4" stroke-linecap="round" stroke-linejoin="round"/>
<path d="M165.32 329.47C157.33 329.47 149.57 318.16 146.87 302.58C145.55 294.99 145.71 287.58 147.3 281.71C149.04 275.33 152.32 271.41 156.55 270.68C157.01 270.6 157.49 270.56 157.96 270.56C165.95 270.56 173.71 281.87 176.41 297.45C179.26 313.9 175.01 327.91 166.72 329.35C166.26 329.43 165.78 329.47 165.31 329.47H165.32Z" fill="white"/>
<path d="M157.96 272.56C164.74 272.56 171.95 283.44 174.44 297.79C177.06 312.9 173.45 326.15 166.38 327.37C166.03 327.43 165.67 327.46 165.31 327.46C158.53 327.46 151.32 316.58 148.83 302.23C146.21 287.12 149.82 273.87 156.89 272.65C157.24 272.59 157.6 272.56 157.96 272.56M157.96 268.56C157.37 268.56 156.79 268.61 156.21 268.71C151.17 269.58 147.32 274.01 145.37 281.18C143.7 287.32 143.53 295.04 144.89 302.91C147.76 319.45 156.35 331.46 165.31 331.46C165.9 331.46 166.48 331.41 167.06 331.31C176.61 329.65 181.47 314.95 178.37 297.1C175.5 280.56 166.91 268.55 157.95 268.55L157.96 268.56Z" fill="#553711"/>
<path d="M163.71 303.54C154.05 303.54 146.19 295.68 146.19 286.02C146.19 276.36 154.05 268.5 163.71 268.5C173.37 268.5 181.23 276.36 181.23 286.02C181.23 295.68 173.37 303.54 163.71 303.54Z" fill="#FCD8C1"/>
<path d="M163.71 270.5C172.28 270.5 179.23 277.45 179.23 286.02C179.23 294.59 172.28 301.54 163.71 301.54C155.14 301.54 148.19 294.59 148.19 286.02C148.19 277.45 155.14 270.5 163.71 270.5M163.71 266.5C152.95 266.5 144.19 275.26 144.19 286.02C144.19 296.78 152.95 305.54 163.71 305.54C174.47 305.54 183.23 296.78 183.23 286.02C183.23 275.26 174.47 266.5 163.71 266.5Z" fill="#553711"/>
<path d="M186.71 303.54C196.386 303.54 204.23 295.696 204.23 286.02C204.23 276.344 196.386 268.5 186.71 268.5C177.034 268.5 169.19 276.344 169.19 286.02C169.19 295.696 177.034 303.54 186.71 303.54Z" fill="#FCD8C1"/>
<path d="M186.71 270.5C195.28 270.5 202.23 277.45 202.23 286.02C202.23 294.59 195.28 301.54 186.71 301.54C178.14 301.54 171.19 294.59 171.19 286.02C171.19 277.45 178.14 270.5 186.71 270.5M186.71 266.5C175.95 266.5 167.19 275.26 167.19 286.02C167.19 296.78 175.95 305.54 186.71 305.54C197.47 305.54 206.23 296.78 206.23 286.02C206.23 275.26 197.47 266.5 186.71 266.5Z" fill="#553711"/>
<path d="M147.87 138.21C144.3 136.96 135.99 136.92 132.13 138.11C128.27 139.3 124.07 141.03 121.35 143.66C120.12 140.46 122.22 136.54 125.77 134.41C129.33 132.28 134.01 131.81 137.99 132.69C141.97 133.57 145.28 135.68 147.88 138.2L147.87 138.21Z" fill="#543714"/>
<path d="M148.16 137.18C144 135.79 138.99 135.92 134.71 136.5C132.29 136.83 130 137.61 127.75 138.55C125.15 139.63 122.67 140.97 120.6 142.91L122.38 143.38C120.42 137.78 127.43 134.02 131.93 133.46C137.63 132.75 143.04 135.06 147.12 138.96C148.11 139.91 149.62 138.4 148.63 137.45C143.76 132.78 137.17 130.26 130.42 131.55C125 132.58 118.1 137.58 120.32 143.94C120.59 144.7 121.49 144.98 122.1 144.41C124.04 142.6 126.44 141.34 128.89 140.36C130.97 139.53 133.09 138.82 135.31 138.55C139.23 138.07 143.79 137.96 147.58 139.23C148.89 139.67 149.45 137.61 148.15 137.17L148.16 137.18Z" fill="#553711"/>
<path d="M202.54 138.21C206.11 136.96 214.42 136.92 218.28 138.11C222.15 139.31 226.34 141.03 229.06 143.66C230.29 140.46 228.19 136.54 224.64 134.41C221.09 132.28 216.4 131.81 212.42 132.69C208.44 133.58 205.13 135.68 202.53 138.2L202.54 138.21Z" fill="#543714"/>
<path d="M202.83 139.24C206.62 137.97 211.18 138.08 215.1 138.56C217.26 138.82 219.31 139.5 221.33 140.29C223.85 141.28 226.33 142.55 228.32 144.41C228.93 144.98 229.84 144.7 230.1 143.94C232.32 137.59 225.42 132.57 220 131.55C213.25 130.28 206.68 132.78 201.79 137.45C200.8 138.4 202.31 139.91 203.3 138.96C207.38 135.05 212.79 132.76 218.49 133.46C222.99 134.01 229.99 137.78 228.04 143.38L229.82 142.91C227.8 141.02 225.39 139.69 222.86 138.63C220.55 137.66 218.19 136.84 215.71 136.5C211.42 135.92 206.41 135.79 202.26 137.18C200.96 137.61 201.52 139.67 202.83 139.24V139.24Z" fill="#553711"/>
</svg>
