<svg width="350" height="350" viewBox="0 0 350 350" fill="none" xmlns="http://www.w3.org/2000/svg">
<path d="M79.2701 198.14C69.1201 198.14 60.2301 191.64 57.1301 181.97C54.4601 173.63 56.68 164.58 62.8 158.45C62.13 157.29 61.59 156.06 61.18 154.77C57.98 144.79 63.5 134.06 73.48 130.87C75.37 130.27 77.32 129.96 79.29 129.96C87.58 129.96 94.8601 135.27 97.3901 143.17C99.0401 148.32 98.4401 153.8 95.7501 158.44C98.3501 161.04 100.3 164.24 101.43 167.77C105.34 179.98 98.5901 193.1 86.3801 197.02C84.0701 197.76 81.6801 198.14 79.2801 198.14H79.2701Z" fill="#F9C5AF"/>
<path d="M79.2803 131.97C86.4803 131.97 93.1602 136.57 95.4702 143.79C97.1602 149.07 96.1203 154.57 93.1503 158.78C96.0203 161.25 98.2703 164.52 99.5103 168.39C103.09 179.57 96.9303 191.54 85.7503 195.12C83.5903 195.81 81.4103 196.14 79.2603 196.14C70.2703 196.14 61.9103 190.39 59.0203 181.36C56.3403 172.99 59.1103 164.18 65.3703 158.78C64.4003 157.4 63.6102 155.85 63.0702 154.16C60.2002 145.21 65.1302 135.64 74.0802 132.77C75.8102 132.22 77.5603 131.95 79.2803 131.95M79.2803 127.95C77.1103 127.95 74.9502 128.29 72.8602 128.96C67.5202 130.67 63.1602 134.36 60.5902 139.35C58.0202 144.34 57.5503 150.03 59.2603 155.37C59.5603 156.31 59.9302 157.22 60.3502 158.11C54.4902 164.72 52.4602 173.99 55.2102 182.57C58.5802 193.07 68.2403 200.13 79.2603 200.13C81.8703 200.13 84.4702 199.72 86.9702 198.92C100.23 194.67 107.57 180.42 103.31 167.16C102.23 163.8 100.48 160.72 98.1602 158.11C100.52 153.28 100.94 147.77 99.2603 142.56C96.4603 133.83 88.4203 127.96 79.2603 127.96L79.2803 127.95Z" fill="#553711"/>
<path d="M271.15 198.14C268.74 198.14 266.36 197.76 264.05 197.02C251.84 193.11 245.09 179.98 249 167.77C250.13 164.24 252.08 161.04 254.68 158.44C252 153.8 251.39 148.33 253.04 143.17C255.57 135.27 262.85 129.96 271.14 129.96C273.1 129.96 275.06 130.27 276.95 130.87C281.78 132.42 285.73 135.76 288.05 140.27C290.37 144.78 290.8 149.93 289.25 154.77C288.84 156.05 288.29 157.29 287.63 158.45C293.74 164.58 295.97 173.63 293.3 181.97C290.2 191.64 281.3 198.14 271.16 198.14H271.15Z" fill="#F9C5AF"/>
<path d="M271.14 131.97C272.86 131.97 274.61 132.23 276.34 132.79C285.29 135.66 290.21 145.23 287.35 154.18C286.81 155.87 286.02 157.42 285.05 158.8C291.3 164.21 294.08 173.01 291.4 181.38C288.51 190.4 280.15 196.16 271.16 196.16C269.01 196.16 266.82 195.83 264.67 195.14C253.49 191.56 247.33 179.59 250.91 168.41C252.15 164.54 254.4 161.27 257.27 158.8C254.3 154.59 253.26 149.1 254.95 143.81C257.26 136.59 263.95 131.99 271.14 131.99M271.14 127.99C261.97 127.99 253.94 133.86 251.14 142.59C249.47 147.81 249.89 153.32 252.24 158.14C249.92 160.75 248.17 163.83 247.09 167.19C242.84 180.45 250.17 194.7 263.43 198.95C265.94 199.75 268.53 200.16 271.14 200.16C282.16 200.16 291.82 193.1 295.19 182.6C297.94 174.02 295.91 164.76 290.05 158.14C290.48 157.26 290.84 156.34 291.14 155.4C292.85 150.06 292.38 144.37 289.81 139.38C287.24 134.39 282.89 130.7 277.54 128.99C275.46 128.32 273.3 127.98 271.12 127.98L271.14 127.99Z" fill="#553711"/>
<path d="M82.6201 308.95C81.5201 308.95 80.6201 308.05 80.6201 306.95C80.6201 305.85 81.5201 304.95 82.6201 304.95C84.2801 304.29 87.5201 294.39 87.5201 277.84C87.5201 256.89 96.6501 237.17 113.22 222.3C129.3 207.88 150.62 199.61 173.42 198.91C173.56 198.88 173.71 198.86 173.86 198.86H176.56C176.71 198.86 176.86 198.88 177 198.91C199.83 199.62 221.13 207.89 237.19 222.3C253.76 237.17 262.89 256.89 262.89 277.84C262.89 294.39 266.13 304.29 267.87 304.96C268.97 304.96 269.83 305.85 269.83 306.95C269.83 308.05 268.89 308.94 267.79 308.94H82.6201V308.95Z" fill="#6D3889"/>
<path d="M176.56 200.87C176.11 200.87 175.66 200.87 175.21 200.87C174.76 200.87 174.31 200.87 173.86 200.87H176.56M175.21 200.87C222.7 201.5 260.9 235.69 260.9 277.84C260.9 293.93 263.99 306.95 267.8 306.95H82.6304C86.4404 306.95 89.5304 293.93 89.5304 277.84C89.5304 235.69 127.73 201.51 175.22 200.87M176.57 196.86H173.87C173.65 196.86 173.43 196.88 173.21 196.91C149.99 197.65 128.28 206.1 111.89 220.8C94.8904 236.05 85.5304 256.31 85.5304 277.83C85.5304 292.3 83.1004 301.05 81.6204 303.06C79.9004 303.51 78.6304 305.07 78.6304 306.93C78.6304 309.14 80.4204 310.93 82.6304 310.93H267.8C270.01 310.93 271.8 309.14 271.8 306.93C271.8 305.07 270.53 303.5 268.81 303.06C267.33 301.04 264.9 292.29 264.9 277.83C264.9 256.31 255.54 236.05 238.54 220.8C222.15 206.09 200.44 197.65 177.22 196.91C177.01 196.87 176.79 196.86 176.56 196.86H176.57Z" fill="#543714"/>
<path d="M88.96 287.38H262.77" stroke="#EB6607" stroke-width="4" stroke-linecap="round" stroke-linejoin="round"/>
<path d="M95.93 292.51C89.14 292.51 83.1 289.14 78.46 282.78C74.44 277.27 71.77 269.87 70.94 261.95C69.43 247.6 74.3 231.77 88.55 228.74C88.69 228.71 88.83 228.7 88.97 228.7C89.05 228.7 89.12 228.7 89.2 228.71C104.69 230.51 107.6 243.12 109.34 250.65C109.4 250.92 109.41 251.2 109.36 251.48L101.89 290.48C101.74 291.27 101.12 291.9 100.33 292.06C98.85 292.36 97.37 292.52 95.94 292.52L95.93 292.51Z" fill="#6D3889"/>
<path d="M88.9602 230.7C102.89 232.32 105.6 243.38 107.39 251.1L99.9202 290.1C98.5502 290.38 97.2202 290.52 95.9302 290.52C70.2002 290.52 62.9102 236.23 88.9602 230.7M88.9602 226.7C88.6802 226.7 88.4003 226.73 88.1303 226.79C80.9203 228.32 75.3403 233 71.9803 240.33C69.1903 246.43 68.1102 254.18 68.9502 262.16C69.8202 270.43 72.6202 278.17 76.8502 283.96C81.8902 290.86 88.4902 294.51 95.9402 294.51C97.5102 294.51 99.1203 294.34 100.74 294.01C102.32 293.68 103.56 292.43 103.86 290.84L111.33 251.84C111.43 251.29 111.42 250.73 111.3 250.19C109.56 242.67 106.33 228.68 89.4402 226.72C89.2902 226.7 89.1303 226.69 88.9803 226.69L88.9602 226.7Z" fill="#543714"/>
<path d="M175.21 251.7C117.55 251.7 77.2705 225.44 77.2705 187.85C77.2705 178.78 79.5504 169.94 84.0404 161.57C83.9904 158.33 83.9705 144.12 83.9705 143.36C83.9705 119.33 93.4905 97.48 110.76 81.84C127.57 66.63 150.45 58.25 175.2 58.25C199.95 58.25 222.831 66.63 239.641 81.84C256.921 97.48 266.43 119.33 266.43 143.36C266.43 144.12 266.4 158.34 266.36 161.57C270.86 169.94 273.13 178.77 273.13 187.85C273.13 225.44 232.86 251.7 175.19 251.7H175.21Z" fill="#FCD8C1"/>
<path d="M175.21 60.25C224.49 60.25 264.44 94.07 264.44 143.36C264.44 144.6 264.41 160.83 264.36 162.06C268.74 170.04 271.14 178.74 271.14 187.85C271.14 226.35 228.19 249.7 175.2 249.7C122.21 249.7 79.2603 226.34 79.2603 187.85C79.2603 178.74 81.6702 170.04 86.0402 162.06C85.9902 160.83 85.9602 144.6 85.9602 143.36C85.9602 94.08 125.91 60.25 175.19 60.25M175.19 56.25C149.94 56.25 126.58 64.81 109.41 80.36C91.7102 96.38 81.9602 118.76 81.9602 143.36C81.9602 143.51 81.9803 156.9 82.0303 161.08C77.5403 169.6 75.2603 178.6 75.2603 187.85C75.2603 197.98 78.0102 207.42 83.4302 215.91C88.5302 223.89 95.8703 230.86 105.27 236.62C123.22 247.63 148.06 253.7 175.2 253.7C202.34 253.7 227.18 247.63 245.13 236.62C254.53 230.86 261.87 223.89 266.97 215.91C272.39 207.42 275.14 197.98 275.14 187.85C275.14 178.61 272.86 169.61 268.37 161.08C268.41 156.9 268.44 143.5 268.44 143.36C268.44 118.76 258.69 96.38 240.99 80.36C223.82 64.81 200.45 56.25 175.21 56.25H175.19Z" fill="#553711"/>
<path d="M127.2 162.04C129.56 154.77 136.32 149.39 144.93 149.39C153.54 149.39 158.38 155 158.38 162.04" stroke="#553711" stroke-width="3" stroke-linecap="round" stroke-linejoin="round"/>
<path d="M223.22 162.04C220.86 154.77 214.1 149.39 205.49 149.39C196.88 149.39 192.04 155 192.04 162.04" stroke="#553711" stroke-width="3" stroke-linecap="round" stroke-linejoin="round"/>
<path d="M189.78 198.93C189.78 204.39 183.26 208.8 175.21 208.8C167.16 208.8 160.64 204.38 160.64 198.93" stroke="#F08262" stroke-width="3" stroke-linecap="round" stroke-linejoin="round"/>
<path d="M264.36 164.06C256.79 164.06 250.86 154.35 250.86 141.96C250.86 108.12 227.62 82.6 196.8 82.6C191.03 82.6 185.39 83.65 179.98 85.73L183.88 87.63H175.67L175.21 87.85L174.75 87.63H160.39L169.09 85.24C164.09 83.49 158.91 82.61 153.61 82.61C122.79 82.61 99.5497 108.13 99.5497 141.97C99.5497 154.37 93.6197 164.07 86.0497 164.07H84.1298L84.0497 162.15C83.9997 160.84 83.9697 144.2 83.9697 143.37C83.9697 119.34 93.4898 97.49 110.76 81.85C127.57 66.64 150.45 58.26 175.2 58.26C199.95 58.26 222.83 66.64 239.64 81.85C256.92 97.49 266.43 119.34 266.43 143.37C266.43 144.2 266.4 160.84 266.35 162.15L266.27 164.07H264.35L264.36 164.06Z" fill="#543714"/>
<path d="M175.21 60.25C224.49 60.25 264.44 94.07 264.44 143.36C264.44 144.6 264.41 160.83 264.36 162.06C258 162.06 252.86 153.07 252.86 141.96C252.86 105.86 227.76 80.6 196.8 80.6C189.15 80.6 181.85 82.39 175.2 85.63C168.55 82.39 161.26 80.6 153.6 80.6C122.64 80.6 97.5399 105.86 97.5399 141.96C97.5399 153.07 92.3999 162.06 86.0399 162.06C85.9899 160.83 85.96 144.6 85.96 143.36C85.96 94.08 125.91 60.25 175.19 60.25M175.19 56.25C149.94 56.25 126.58 64.81 109.41 80.36C91.7099 96.38 81.96 118.76 81.96 143.36C81.96 143.53 81.9899 160.81 82.0499 162.22L82.21 166.06H86.0499C94.7399 166.06 101.55 155.47 101.55 141.96C101.55 125.77 107 111.03 116.89 100.48C126.48 90.24 139.52 84.6 153.61 84.6C160.48 84.6 167.16 86.16 173.45 89.22L175.2 90.07L176.95 89.22C183.25 86.15 189.92 84.6 196.79 84.6C210.88 84.6 223.92 90.24 233.51 100.48C243.4 111.04 248.85 125.77 248.85 141.96C248.85 155.48 255.66 166.06 264.35 166.06H268.19L268.35 162.22C268.41 160.81 268.44 143.52 268.44 143.36C268.44 118.76 258.69 96.38 240.99 80.36C223.82 64.81 200.45 56.25 175.21 56.25H175.19Z" fill="#553711"/>
<path opacity="0.5" d="M82.6202 171.87C82.3502 171.87 82.0802 171.88 81.8102 171.89C80.1602 177.02 79.2603 182.36 79.2603 187.85C79.2603 209.31 92.6102 226.06 113.61 236.69C120.22 229.81 124.25 220.72 124.25 210.74C124.25 189.27 105.61 171.86 82.6102 171.86L82.6202 171.87Z" fill="#F39B9B"/>
<path opacity="0.5" d="M267.79 171.87C268.06 171.87 268.33 171.88 268.6 171.89C270.25 177.02 271.15 182.36 271.15 187.85C271.15 209.31 257.8 226.06 236.8 236.69C230.19 229.81 226.16 220.72 226.16 210.74C226.16 189.27 244.8 171.86 267.8 171.86L267.79 171.87Z" fill="#F39B9B"/>
<path d="M192.11 304.55C191.01 304.55 190.11 303.65 190.11 302.55C190.11 290.14 200.21 280.04 212.62 280.04C225.03 280.04 235.13 290.14 235.13 302.55C235.13 303.65 234.23 304.55 233.13 304.55H192.11Z" fill="#6F6F6F"/>
<path d="M212.63 282.04C223.96 282.04 233.14 291.22 233.14 302.55H192.12C192.12 291.22 201.3 282.04 212.63 282.04ZM212.63 278.04C199.11 278.04 188.12 289.04 188.12 302.55C188.12 304.76 189.91 306.55 192.12 306.55H233.14C235.35 306.55 237.14 304.76 237.14 302.55C237.14 289.03 226.14 278.04 212.63 278.04Z" fill="#543714"/>
<path d="M192.09 313.29C188.58 313.29 185.72 310.43 185.72 306.92C185.72 303.41 188.58 300.55 192.09 300.55H233.16C236.67 300.55 239.53 303.41 239.53 306.92C239.53 310.43 236.67 313.29 233.16 313.29H192.09Z" fill="white"/>
<path d="M233.16 302.55C235.56 302.55 237.53 304.52 237.53 306.92C237.53 309.32 235.56 311.29 233.16 311.29H192.09C189.69 311.29 187.72 309.32 187.72 306.92C187.72 304.52 189.69 302.55 192.09 302.55H233.16ZM233.16 298.55H192.09C187.47 298.55 183.72 302.31 183.72 306.92C183.72 311.53 187.48 315.29 192.09 315.29H233.16C237.78 315.29 241.53 311.53 241.53 306.92C241.53 302.31 237.77 298.55 233.16 298.55Z" fill="#543714"/>
<path d="M175.21 173.74C178.22 173.74 180.66 172.482 180.66 170.93C180.66 169.378 178.22 168.12 175.21 168.12C172.2 168.12 169.76 169.378 169.76 170.93C169.76 172.482 172.2 173.74 175.21 173.74Z" fill="#F9C5AF"/>
<path d="M117.28 304.55C116.18 304.55 115.28 303.65 115.28 302.55C115.28 290.14 125.38 280.04 137.79 280.04C150.2 280.04 160.3 290.14 160.3 302.55C160.3 303.65 159.4 304.55 158.3 304.55H117.28Z" fill="#6F6F6F"/>
<path d="M137.79 282.04C149.12 282.04 158.3 291.22 158.3 302.55H117.28C117.28 291.22 126.46 282.04 137.79 282.04ZM137.79 278.04C124.27 278.04 113.28 289.04 113.28 302.55C113.28 304.76 115.07 306.55 117.28 306.55H158.3C160.51 306.55 162.3 304.76 162.3 302.55C162.3 289.03 151.3 278.04 137.79 278.04Z" fill="#543714"/>
<path d="M117.25 313.29C113.74 313.29 110.88 310.43 110.88 306.92C110.88 303.41 113.74 300.55 117.25 300.55H158.32C161.83 300.55 164.69 303.41 164.69 306.92C164.69 310.43 161.83 313.29 158.32 313.29H117.25Z" fill="white"/>
<path d="M158.33 302.55C160.73 302.55 162.7 304.52 162.7 306.92C162.7 309.32 160.73 311.29 158.33 311.29H117.26C114.86 311.29 112.89 309.32 112.89 306.92C112.89 304.52 114.86 302.55 117.26 302.55H158.33ZM158.33 298.55H117.26C112.64 298.55 108.89 302.31 108.89 306.92C108.89 311.53 112.65 315.29 117.26 315.29H158.33C162.95 315.29 166.7 311.53 166.7 306.92C166.7 302.31 162.94 298.55 158.33 298.55Z" fill="#543714"/>
<path d="M97.7104 293.37C89.7204 293.37 81.9605 282.06 79.2605 266.48C76.4105 250.03 80.6604 236.02 88.9504 234.58C89.4104 234.5 89.8905 234.46 90.3605 234.46C98.3505 234.46 106.11 245.77 108.81 261.35C110.13 268.94 109.97 276.35 108.38 282.22C106.64 288.6 103.36 292.52 99.1305 293.25C98.6705 293.33 98.1905 293.37 97.7205 293.37H97.7104Z" fill="white"/>
<path d="M90.3504 236.46C97.1304 236.46 104.34 247.34 106.83 261.69C109.45 276.8 105.84 290.05 98.7704 291.27C98.4204 291.33 98.0603 291.36 97.7003 291.36C90.9203 291.36 83.7104 280.48 81.2204 266.13C78.6004 251.02 82.2104 237.77 89.2804 236.55C89.6304 236.49 89.9904 236.46 90.3504 236.46M90.3504 232.46C89.7604 232.46 89.1804 232.51 88.6004 232.61C83.5604 233.48 79.7104 237.91 77.7604 245.08C76.0904 251.22 75.9204 258.94 77.2804 266.81C80.1504 283.35 88.7403 295.36 97.7003 295.36C98.2903 295.36 98.8703 295.31 99.4503 295.21C109 293.55 113.86 278.85 110.76 261C107.89 244.46 99.3004 232.45 90.3404 232.45L90.3504 232.46Z" fill="#553711"/>
<path d="M117.87 135.23C122.58 112.73 144.93 112.93 153.5 117.65" stroke="#543714" stroke-width="6" stroke-linecap="round" stroke-linejoin="round"/>
<path d="M232.55 135.23C227.84 112.73 205.49 112.93 196.92 117.65" stroke="#543714" stroke-width="6" stroke-linecap="round" stroke-linejoin="round"/>
<path d="M175.21 244.51C129.19 244.51 80.4403 232.25 87.2003 164.06C57.4003 208.09 108.58 258.13 146.12 258.13C162.85 258.13 175.2 263.96 175.2 272.94C183.22 272.94 187.56 258.13 204.28 258.13C241.83 258.13 293.01 208.09 263.2 164.06C269.96 232.26 221.21 244.51 175.19 244.51H175.21Z" fill="#543714" stroke="#553711" stroke-width="4" stroke-linecap="round" stroke-linejoin="round"/>
<path d="M143.12 249.7C137.21 242.52 133.66 233.33 133.66 223.31C133.66 200.37 152.26 181.77 175.2 181.77C198.14 181.77 216.74 200.37 216.74 223.31C216.74 233.26 213.24 242.39 207.41 249.54" stroke="#553711" stroke-width="8" stroke-miterlimit="10"/>
<path d="M175.05 35C198.7 35 218.25 48.64 221.46 66.37C234.84 70.86 243.22 77.28 243.22 84.4V85.5C240.46 81.68 234.91 77.86 227.03 77.86C219.15 77.86 214.69 81.28 214.69 85.5C214.69 78.75 202.67 73.45 191.77 73.45C180.87 73.45 175.22 78.75 175.22 85.5C175.22 78.75 169.57 73.45 158.67 73.45C147.77 73.45 135.75 78.75 135.75 85.5C135.75 81.28 131.29 77.86 123.41 77.86C115.53 77.86 109.98 81.68 107.22 85.5V84.4C107.22 77.28 115.59 70.86 128.98 66.37C132.18 48.64 151.74 35 175.39 35" fill="#6D3889"/>
<path d="M175.05 35C198.7 35 218.25 48.64 221.46 66.37C234.84 70.86 243.22 77.28 243.22 84.4V85.5C240.46 81.68 234.91 77.86 227.03 77.86C219.15 77.86 214.69 81.28 214.69 85.5C214.69 78.75 202.67 73.45 191.77 73.45C180.87 73.45 175.22 78.75 175.22 85.5C175.22 78.75 169.57 73.45 158.67 73.45C147.77 73.45 135.75 78.75 135.75 85.5C135.75 81.28 131.29 77.86 123.41 77.86C115.53 77.86 109.98 81.68 107.22 85.5V84.4C107.22 77.28 115.59 70.86 128.98 66.37C132.18 48.64 151.74 35 175.39 35" stroke="#543714" stroke-width="4" stroke-linecap="round" stroke-linejoin="round"/>
<path d="M220.76 66.07C208.34 61.94 192.49 59.46 175.21 59.46C157.93 59.46 142.08 61.94 129.66 66.07" stroke="#543714" stroke-width="4" stroke-linecap="round" stroke-linejoin="round"/>
<path d="M265.11 242.02H240.31C232.059 242.02 225.37 248.709 225.37 256.96V298.35C225.37 306.601 232.059 313.29 240.31 313.29H265.11C273.361 313.29 280.05 306.601 280.05 298.35V256.96C280.05 248.709 273.361 242.02 265.11 242.02Z" fill="white"/>
<path d="M265.11 244.02C272.23 244.02 278.05 249.84 278.05 256.96V298.35C278.05 305.47 272.23 311.29 265.11 311.29H240.31C233.19 311.29 227.37 305.47 227.37 298.35V256.96C227.37 249.84 233.19 244.02 240.31 244.02H265.11ZM265.11 240.02H240.31C230.97 240.02 223.37 247.62 223.37 256.96V298.35C223.37 307.69 230.97 315.29 240.31 315.29H265.11C274.45 315.29 282.05 307.69 282.05 298.35V256.96C282.05 247.62 274.45 240.02 265.11 240.02Z" fill="#553711"/>
<path d="M240.68 257.26C240.08 257.26 239.51 256.99 239.13 256.52C236.59 253.4 235.18 249.47 235.18 245.45C235.18 235.79 243.04 227.93 252.7 227.93C262.36 227.93 270.22 235.79 270.22 245.45C270.22 249.47 268.82 253.4 266.27 256.52C265.89 256.99 265.32 257.26 264.72 257.26H240.67H240.68Z" fill="#FCD8C1"/>
<path d="M252.71 229.94C261.28 229.94 268.23 236.89 268.23 245.46C268.23 249.18 266.92 252.59 264.74 255.27H240.69C238.51 252.6 237.2 249.18 237.2 245.46C237.2 236.89 244.15 229.94 252.72 229.94M252.72 225.94C241.96 225.94 233.2 234.7 233.2 245.46C233.2 249.94 234.76 254.32 237.6 257.79C238.36 258.72 239.5 259.26 240.7 259.26H264.75C265.95 259.26 267.09 258.72 267.85 257.79C270.68 254.32 272.25 249.94 272.25 245.46C272.25 234.7 263.49 225.94 252.73 225.94H252.72Z" fill="#553711"/>
<path d="M241.98 269.42V279.46" stroke="#E30413" stroke-linecap="round" stroke-linejoin="round"/>
<path d="M250.66 279.46C252.494 279.46 253.98 277.212 253.98 274.44C253.98 271.667 252.494 269.42 250.66 269.42C248.827 269.42 247.34 271.667 247.34 274.44C247.34 277.212 248.827 279.46 250.66 279.46Z" stroke="#E30413" stroke-linecap="round" stroke-linejoin="round"/>
<path d="M260.12 279.46C261.954 279.46 263.44 277.212 263.44 274.44C263.44 271.667 261.954 269.42 260.12 269.42C258.287 269.42 256.8 271.667 256.8 274.44C256.8 277.212 258.287 279.46 260.12 279.46Z" stroke="#E30413" stroke-linecap="round" stroke-linejoin="round"/>
<path d="M249.731 286.26C247.711 288.05 245.591 289.71 243.361 291.22C242.701 291.67 243.321 292.75 243.991 292.3C246.311 290.73 248.521 289 250.611 287.14C251.211 286.6 250.331 285.72 249.731 286.26V286.26Z" fill="#E30413"/>
<path d="M253.92 287.94C256.31 289.25 258.7 290.56 261.1 291.87C261.81 292.26 262.44 291.18 261.73 290.79C259.34 289.48 256.95 288.17 254.55 286.86C253.84 286.47 253.21 287.55 253.92 287.94Z" fill="#E30413"/>
<path d="M248.79 293.86C250.43 293.86 252.06 293.86 253.7 293.86C254.44 293.86 255.19 293.82 255.92 293.87C256.45 293.91 256.87 294.12 256.96 294.68C257.04 295.19 256.9 295.72 256.73 296.2C256.51 296.84 256.22 297.46 255.9 298.06C255.58 298.66 255.22 299.28 254.81 299.84C254.77 299.91 254.72 299.97 254.67 300.03C254.58 300.1 254.6 300.13 254.75 300.11C254.72 300.03 254.64 299.95 254.6 299.86C254.45 299.5 254.35 299.18 254.09 298.88C253.57 298.27 252.68 299.16 253.21 299.76C253.39 299.97 253.42 300.32 253.56 300.57C253.7 300.83 253.92 301.07 254.18 301.21C254.84 301.55 255.43 301.11 255.81 300.59C256.65 299.44 257.31 298.16 257.82 296.84C258.21 295.85 258.49 294.58 257.88 293.61C257.1 292.38 255.46 292.6 254.21 292.6C252.4 292.6 250.6 292.6 248.79 292.6C247.99 292.6 247.98 293.85 248.79 293.85V293.86Z" fill="#E30413"/>
<path d="M251.43 293.33C250.47 295.93 248.84 298.23 246.73 300.02C246.47 300.24 246.5 300.68 246.73 300.9C246.98 301.15 247.36 301.12 247.61 300.9C249.88 298.97 251.6 296.46 252.63 293.66C252.75 293.34 252.5 292.98 252.19 292.89C251.84 292.79 251.54 293.01 251.42 293.33H251.43Z" fill="#E30413"/>
<path d="M106.811 244.3C104.571 244.3 102.441 243.34 100.961 241.66C98.1106 238.44 98.4207 233.49 101.641 230.65C103.071 229.39 104.901 228.69 106.801 228.69C109.041 228.69 111.171 229.65 112.651 231.33C114.031 232.89 114.721 234.9 114.591 236.98C114.461 239.06 113.531 240.97 111.971 242.35C110.541 243.61 108.711 244.31 106.801 244.31L106.811 244.3Z" fill="#FCD8C1"/>
<path d="M106.801 230.7C108.411 230.7 110.001 231.36 111.151 232.66C113.271 235.06 113.051 238.73 110.641 240.85C109.541 241.83 108.171 242.3 106.801 242.3C105.191 242.3 103.601 241.64 102.451 240.34C100.331 237.94 100.551 234.27 102.961 232.15C104.061 231.17 105.431 230.7 106.801 230.7ZM106.801 226.7C104.411 226.7 102.101 227.57 100.311 229.16C96.2607 232.74 95.8807 238.95 99.4607 243C101.321 245.1 104.001 246.31 106.811 246.31C109.201 246.31 111.511 245.44 113.301 243.85C115.261 242.12 116.431 239.72 116.591 237.11C116.751 234.5 115.891 231.98 114.151 230.01C112.291 227.91 109.611 226.7 106.801 226.7Z" fill="#553711"/>
<path d="M118.841 281.36C117.051 281.36 115.331 280.61 114.131 279.29L68.6506 229.7C66.2706 227.1 66.4405 223.05 69.0405 220.67L74.2306 215.91C75.4106 214.83 76.9405 214.23 78.5505 214.23C80.3405 214.23 82.0606 214.98 83.2606 216.3L128.741 265.89C129.891 267.14 130.481 268.78 130.411 270.49C130.341 272.2 129.601 273.77 128.351 274.93L123.161 279.69C121.981 280.77 120.451 281.37 118.841 281.37V281.36Z" fill="#CA9F70"/>
<path d="M78.5404 216.24C79.7304 216.24 80.9205 216.72 81.7805 217.66L127.261 267.25C128.891 269.03 128.77 271.82 126.99 273.46L121.8 278.22C120.96 278.99 119.9 279.37 118.83 279.37C117.64 279.37 116.45 278.89 115.59 277.95L70.1105 228.36C68.4805 226.58 68.6005 223.79 70.3805 222.15L75.5704 217.39C76.4104 216.62 77.4704 216.24 78.5404 216.24M78.5404 212.24C76.4304 212.24 74.4205 213.02 72.8705 214.44L67.6804 219.2C66.0304 220.71 65.0705 222.78 64.9705 225.02C64.8705 227.26 65.6504 229.41 67.1604 231.05L112.641 280.64C114.221 282.36 116.48 283.35 118.83 283.35C120.94 283.35 122.95 282.57 124.5 281.15L129.69 276.39C131.34 274.88 132.301 272.81 132.401 270.57C132.501 268.33 131.72 266.18 130.21 264.54L84.7305 214.95C83.1505 213.23 80.8904 212.24 78.5404 212.24V212.24Z" fill="#543714"/>
<path d="M136.421 293.58C135.721 293.58 135.001 293.39 134.301 293C132.481 292.02 130.751 291.98 128.751 291.93C125.641 291.86 122.111 291.78 118.531 287.88C115.751 284.85 114.031 281.14 113.681 277.46C113.321 273.57 114.511 270.14 117.051 267.82C119.011 266.02 121.581 265.07 124.471 265.07C128.841 265.07 133.491 267.3 136.911 271.02C141.211 275.71 142.401 285.89 140.321 290.62C139.191 293.19 137.401 293.57 136.431 293.57L136.421 293.58Z" fill="#E30413"/>
<path d="M124.461 267.07C128.141 267.07 132.251 268.92 135.421 272.38C140.331 277.73 140.491 291.58 136.411 291.58C136.051 291.58 135.661 291.47 135.241 291.24C129.851 288.32 125.131 292.13 119.991 286.52C114.841 280.91 114.131 273.19 118.391 269.28C120.031 267.78 122.161 267.06 124.461 267.06M124.461 263.06C121.061 263.06 118.021 264.19 115.691 266.33C109.811 271.72 110.421 281.99 117.051 289.22C121.211 293.75 125.541 293.85 128.701 293.92C130.521 293.96 131.951 293.99 133.351 294.75C134.351 295.29 135.391 295.57 136.421 295.57C137.591 295.57 140.501 295.17 142.141 291.42C144.501 286.05 143.231 274.95 138.371 269.66C134.581 265.53 129.381 263.06 124.461 263.06V263.06Z" fill="#543714"/>
<path d="M120.91 289.43C120.42 289.43 119.95 289.25 119.58 288.92C119.2 288.59 118.861 288.24 118.521 287.88C115.741 284.85 114.02 281.14 113.67 277.46C113.31 273.57 114.5 270.14 117.04 267.82C119 266.02 121.57 265.07 124.46 265.07C128.83 265.07 133.481 267.3 136.901 271.02C137.201 271.34 137.49 271.71 137.8 272.15C138.17 272.68 138.27 273.35 138.06 273.96C137.85 274.57 137.351 275.04 136.731 275.22C133.381 276.2 130.5 277.8 128.16 279.97C125.83 282.13 124.021 284.87 122.781 288.13C122.551 288.74 122.021 289.2 121.391 289.36C121.231 289.4 121.07 289.42 120.92 289.42L120.91 289.43Z" fill="white"/>
<path d="M124.461 267.07C128.141 267.07 132.251 268.92 135.421 272.38C135.681 272.67 135.931 272.99 136.171 273.32C132.601 274.37 129.401 276.11 126.801 278.52C124.211 280.92 122.231 283.97 120.911 287.43C120.611 287.16 120.301 286.86 119.991 286.53C114.841 280.92 114.131 273.2 118.391 269.29C120.031 267.79 122.161 267.07 124.461 267.07ZM124.461 263.07C121.061 263.07 118.021 264.2 115.691 266.34C109.811 271.73 110.421 282 117.051 289.23C117.431 289.65 117.831 290.03 118.251 290.42C118.991 291.08 119.941 291.43 120.911 291.43C121.231 291.43 121.541 291.39 121.861 291.32C123.141 291.01 124.181 290.09 124.651 288.86C125.781 285.89 127.421 283.4 129.521 281.45C131.631 279.49 134.251 278.05 137.301 277.15C138.541 276.79 139.531 275.84 139.951 274.62C140.371 273.4 140.181 272.05 139.431 270.99C139.071 270.48 138.721 270.05 138.371 269.66C134.581 265.53 129.381 263.06 124.461 263.06V263.07Z" fill="#543714"/>
<path d="M99.3205 265.87C94.3005 265.87 89.5105 263.71 86.1905 259.95C79.7905 252.71 80.4805 241.62 87.7205 235.22C90.7305 232.56 94.6105 231 98.6305 230.84C98.6605 230.84 98.6805 230.84 98.7105 230.84C99.2805 230.84 99.8305 231.09 100.21 231.52L116.141 249.54C116.541 249.99 116.711 250.59 116.611 251.19C115.961 255.16 113.94 258.81 110.93 261.48C107.73 264.31 103.61 265.87 99.3405 265.87H99.3205Z" fill="#FCD8C1"/>
<path d="M98.7003 232.84L114.63 250.86C114.07 254.27 112.38 257.51 109.6 259.97C106.65 262.58 102.98 263.86 99.3303 263.86C95.0403 263.86 90.7603 262.09 87.6903 258.62C82.0103 252.2 82.6202 242.39 89.0402 236.71C91.8302 234.25 95.2503 232.97 98.7003 232.83M98.7003 228.83C98.6503 228.83 98.6002 228.83 98.5402 228.83C94.0602 229.01 89.7403 230.74 86.3903 233.7C82.4803 237.15 80.1503 241.92 79.8303 247.12C79.5103 252.32 81.2303 257.34 84.6903 261.25C88.3903 265.44 93.7303 267.84 99.3203 267.84C104.08 267.84 108.67 266.1 112.24 262.95C115.6 259.98 117.85 255.91 118.57 251.49C118.76 250.3 118.42 249.09 117.62 248.19L101.69 230.17C100.93 229.31 99.8403 228.82 98.6903 228.82L98.7003 228.83Z" fill="#553711"/>
<path d="M175.21 173.74C178.22 173.74 180.66 172.482 180.66 170.93C180.66 169.378 178.22 168.12 175.21 168.12C172.2 168.12 169.76 169.378 169.76 170.93C169.76 172.482 172.2 173.74 175.21 173.74Z" fill="#F9C5AF"/>
</svg>
