<svg width="350" height="350" viewBox="0 0 350 350" fill="none" xmlns="http://www.w3.org/2000/svg">
<path d="M82.0898 311.17C80.9898 311.17 80.0898 310.27 80.0898 309.17C80.0898 308.07 80.9898 307.17 82.0898 307.17C83.7498 306.51 86.9898 296.61 86.9898 280.06C86.9898 259.11 96.1198 239.39 112.69 224.52C128.77 210.1 150.09 201.83 172.89 201.13C173.03 201.1 173.18 201.08 173.33 201.08H176.03C176.18 201.08 176.33 201.1 176.47 201.13C199.3 201.84 220.6 210.11 236.66 224.52C253.23 239.39 262.36 259.12 262.36 280.06C262.36 296.61 265.6 306.51 267.34 307.18C268.44 307.18 269.3 308.07 269.3 309.17C269.3 310.27 268.36 311.16 267.26 311.16H82.0898V311.17Z" fill="#BE1521"/>
<path d="M176.02 203.08C175.57 203.08 175.12 203.08 174.67 203.08C174.22 203.08 173.77 203.08 173.32 203.08H176.02ZM174.67 203.08C222.16 203.71 260.36 237.9 260.36 280.05C260.36 296.14 263.45 309.16 267.26 309.16H82.0898C85.8998 309.16 88.9898 296.14 88.9898 280.05C88.9898 237.9 127.19 203.72 174.68 203.08M176.03 199.07H173.33C173.11 199.07 172.89 199.09 172.67 199.12C149.45 199.86 127.74 208.31 111.35 223.01C94.3498 238.26 84.9898 258.52 84.9898 280.04C84.9898 294.51 82.5598 303.26 81.0798 305.27C79.3598 305.72 78.0898 307.28 78.0898 309.14C78.0898 311.35 79.8798 313.14 82.0898 313.14H267.26C269.47 313.14 271.26 311.35 271.26 309.14C271.26 307.28 269.99 305.71 268.27 305.27C266.79 303.25 264.36 294.5 264.36 280.04C264.36 258.52 255 238.26 238 223.01C221.61 208.3 199.9 199.86 176.68 199.12C176.47 199.08 176.25 199.07 176.02 199.07H176.03Z" fill="#543714"/>
<path d="M237.02 314.5C236.86 314.5 236.69 314.48 236.53 314.44C236 314.31 235.55 313.96 235.28 313.49L207.64 264.95C207.35 264.44 207.3 263.83 207.5 263.28C214.57 243.84 222.4 239.77 241.37 233.84C241.56 233.78 241.77 233.75 241.97 233.75C241.99 233.75 242.01 233.75 242.02 233.75C253.36 234.06 261.22 240.15 264.13 250.9C269.64 271.22 256.74 302.58 238.07 314.21C237.75 314.41 237.38 314.51 237.01 314.51L237.02 314.5Z" fill="#543714"/>
<path d="M241.97 235.74C277.48 236.71 263.91 295.75 237.02 312.5L209.38 263.96C216 245.74 222.65 241.78 241.96 235.74M241.96 231.74C241.56 231.74 241.15 231.8 240.77 231.92C230.66 235.08 223.76 237.77 218.38 242.19C212.98 246.62 209.28 252.53 205.62 262.59C205.22 263.69 205.32 264.92 205.9 265.94L233.54 314.48C234.08 315.43 234.98 316.11 236.03 316.38C236.35 316.46 236.68 316.5 237.01 316.5C237.75 316.5 238.49 316.29 239.13 315.89C258.43 303.86 271.77 271.4 266.06 250.36C262.89 238.69 254.37 232.07 242.07 231.74C242.03 231.74 242 231.74 241.96 231.74V231.74Z" fill="#553711"/>
<path d="M191.58 304.76H232.6C232.6 293.43 223.42 284.25 212.09 284.25C200.76 284.25 191.58 293.43 191.58 304.76Z" fill="#543714" stroke="#553711" stroke-width="4" stroke-linecap="round" stroke-linejoin="round"/>
<path d="M191.55 315.51C188.04 315.51 185.18 312.65 185.18 309.14C185.18 305.63 188.04 302.77 191.55 302.77H232.62C236.13 302.77 238.99 305.63 238.99 309.14C238.99 312.65 236.13 315.51 232.62 315.51H191.55Z" fill="white"/>
<path d="M232.63 304.76C235.03 304.76 237 306.73 237 309.13C237 311.53 235.03 313.5 232.63 313.5H191.56C189.16 313.5 187.19 311.53 187.19 309.13C187.19 306.73 189.16 304.76 191.56 304.76H232.63ZM232.63 300.76H191.56C186.94 300.76 183.19 304.52 183.19 309.13C183.19 313.74 186.95 317.5 191.56 317.5H232.63C237.25 317.5 241 313.74 241 309.13C241 304.52 237.24 300.76 232.63 300.76Z" fill="#543714"/>
<path d="M157.77 304.76H116.75C116.75 293.43 125.93 284.25 137.26 284.25C148.59 284.25 157.77 293.43 157.77 304.76Z" fill="#543714" stroke="#553711" stroke-width="4" stroke-linecap="round" stroke-linejoin="round"/>
<path d="M116.72 315.51C113.21 315.51 110.35 312.65 110.35 309.14C110.35 305.63 113.21 302.77 116.72 302.77H157.79C161.3 302.77 164.16 305.63 164.16 309.14C164.16 312.65 161.3 315.51 157.79 315.51H116.72Z" fill="white"/>
<path d="M157.79 304.76C160.19 304.76 162.16 306.73 162.16 309.13C162.16 311.53 160.19 313.5 157.79 313.5H116.72C114.32 313.5 112.35 311.53 112.35 309.13C112.35 306.73 114.32 304.76 116.72 304.76H157.79ZM157.79 300.76H116.72C112.1 300.76 108.35 304.52 108.35 309.13C108.35 313.74 112.11 317.5 116.72 317.5H157.79C162.41 317.5 166.16 313.74 166.16 309.13C166.16 304.52 162.4 300.76 157.79 300.76Z" fill="#543714"/>
<path d="M112.32 314.5C111.95 314.5 111.58 314.4 111.26 314.2C92.6002 302.57 79.6902 271.21 85.2002 250.89C88.1202 240.14 95.9702 234.05 107.31 233.74C107.33 233.74 107.35 233.74 107.36 233.74C107.56 233.74 107.76 233.77 107.96 233.83C126.93 239.76 134.76 243.84 141.83 263.27C142.03 263.82 141.98 264.43 141.69 264.94L114.05 313.48C113.78 313.95 113.33 314.3 112.8 314.43C112.64 314.47 112.47 314.49 112.31 314.49L112.32 314.5Z" fill="#543714"/>
<path d="M107.37 235.74C126.68 241.78 133.33 245.74 139.95 263.96L112.31 312.5C85.4302 295.75 71.8502 236.72 107.36 235.74M107.36 231.74C107.36 231.74 107.29 231.74 107.25 231.74C94.9502 232.08 86.4302 238.69 83.2602 250.36C77.5502 271.4 90.8902 303.86 110.19 315.89C110.83 316.29 111.56 316.5 112.31 316.5C112.64 316.5 112.97 316.46 113.29 316.38C114.35 316.11 115.25 315.43 115.78 314.48L143.42 265.94C144 264.92 144.1 263.7 143.7 262.59C140.04 252.53 136.35 246.62 130.94 242.19C125.56 237.78 118.66 235.09 108.55 231.92C108.16 231.8 107.76 231.74 107.36 231.74V231.74Z" fill="#553711"/>
<path d="M234.03 315.18C226.71 315.18 217.31 306.64 211.16 294.41C203.66 279.49 203.68 264.85 211.19 261.08C212.37 260.49 213.68 260.18 215.09 260.18C222.41 260.18 231.81 268.72 237.96 280.95C245.46 295.87 245.44 310.51 237.93 314.28C236.75 314.87 235.44 315.18 234.04 315.18H234.03Z" fill="white"/>
<path d="M215.08 262.19C221.5 262.19 230.26 270.11 236.16 281.85C243.05 295.55 243.43 309.28 237.02 312.5C236.1 312.96 235.09 313.18 234.02 313.18C227.6 313.18 218.84 305.26 212.94 293.52C206.05 279.82 205.67 266.09 212.08 262.87C213 262.41 214.01 262.19 215.08 262.19ZM215.08 258.19C213.36 258.19 211.75 258.56 210.29 259.3C201.63 263.65 201.24 279.13 209.37 295.32C215.94 308.4 225.85 317.19 234.03 317.19C235.75 317.19 237.36 316.82 238.82 316.08C247.48 311.73 247.87 296.25 239.74 280.06C233.17 266.98 223.26 258.19 215.08 258.19Z" fill="#553711"/>
<path d="M115.32 315.18C113.92 315.18 112.61 314.88 111.42 314.28C103.91 310.5 103.9 295.86 111.39 280.95C117.53 268.72 126.94 260.18 134.26 260.18C135.66 260.18 136.97 260.48 138.16 261.08C145.67 264.85 145.68 279.5 138.19 294.41C132.05 306.64 122.64 315.18 115.32 315.18Z" fill="white"/>
<path d="M134.26 262.19C135.33 262.19 136.34 262.41 137.26 262.87C143.67 266.09 143.29 279.81 136.4 293.52C130.5 305.26 121.74 313.18 115.32 313.18C114.25 313.18 113.24 312.96 112.32 312.5C105.91 309.28 106.29 295.56 113.18 281.85C119.08 270.11 127.84 262.19 134.26 262.19ZM134.26 258.19C126.08 258.19 116.18 266.98 109.6 280.06C106.01 287.2 103.94 294.64 103.76 301C103.55 308.43 105.95 313.78 110.52 316.08C111.98 316.82 113.6 317.19 115.31 317.19C123.48 317.19 133.39 308.4 139.97 295.32C143.56 288.18 145.63 280.74 145.81 274.38C146.02 266.95 143.62 261.6 139.05 259.3C137.59 258.56 135.97 258.19 134.26 258.19Z" fill="#553711"/>
<path d="M99.3001 301.91C98.6701 301.91 98.0701 301.61 97.6801 301.09C84.8301 283.45 80.2701 259.73 87.0601 245.91C90.8401 238.21 97.8501 234.01 107.31 233.75C107.33 233.75 107.35 233.75 107.36 233.75C107.56 233.75 107.76 233.78 107.96 233.84C123.71 238.77 131.24 242.48 137.12 252.76C137.49 253.4 137.47 254.19 137.08 254.82C136.71 255.4 136.07 255.76 135.39 255.76C135.34 255.76 135.29 255.76 135.25 255.76L135 255.74C134.75 255.72 134.51 255.7 134.26 255.7C125.02 255.7 114.46 264.82 107.37 278.95C103.72 286.22 101.62 293.51 101.3 300.03C101.26 300.88 100.69 301.61 99.8801 301.85C99.6901 301.91 99.5001 301.93 99.3101 301.93L99.3001 301.91Z" fill="#BE1521"/>
<path d="M107.37 235.74C122.39 240.44 129.75 243.88 135.39 253.75C135.01 253.72 134.64 253.69 134.26 253.69C124.27 253.69 113.01 263.25 105.58 278.04C101.69 285.78 99.6199 293.32 99.2999 299.92C82.1399 276.37 78.2599 236.55 107.37 235.75M107.37 231.75C107.37 231.75 107.3 231.75 107.26 231.75C94.2999 232.11 88.1499 239.17 85.2699 245.03C81.6999 252.3 80.9898 262.35 83.2798 273.32C85.4298 283.62 89.9699 293.9 96.0699 302.28C96.8399 303.33 98.0499 303.92 99.2999 303.92C99.6799 303.92 100.07 303.87 100.45 303.75C102.07 303.26 103.22 301.81 103.3 300.11C103.6 293.87 105.63 286.86 109.16 279.83C115.82 266.58 125.91 257.68 134.27 257.68C134.42 257.68 134.63 257.7 134.85 257.71L135.12 257.73C135.21 257.73 135.31 257.73 135.4 257.73C136.77 257.73 138.05 257.03 138.79 255.86C139.58 254.61 139.61 253.03 138.87 251.75C132.69 240.95 124.53 236.91 108.57 231.91C108.18 231.79 107.78 231.73 107.38 231.73L107.37 231.75Z" fill="#543714"/>
<path d="M250.04 301.91C249.85 301.91 249.66 301.88 249.47 301.83C248.66 301.59 248.09 300.86 248.05 300.01C247.73 293.49 245.63 286.2 241.98 278.93C234.88 264.81 224.33 255.68 215.09 255.68C214.84 255.68 214.59 255.7 214.35 255.72L214.1 255.74C214.1 255.74 214 255.74 213.96 255.74C213.28 255.74 212.63 255.39 212.27 254.8C211.88 254.17 211.86 253.38 212.23 252.74C218.11 242.46 225.64 238.74 241.39 233.82C241.58 233.76 241.79 233.73 241.99 233.73C242.01 233.73 242.03 233.73 242.04 233.73C251.5 233.99 258.51 238.2 262.29 245.89C269.08 259.71 264.52 283.44 251.67 301.07C251.29 301.6 250.68 301.89 250.05 301.89L250.04 301.91Z" fill="#BE1521"/>
<path d="M241.97 235.74C271.09 236.54 267.2 276.36 250.04 299.91C249.72 293.31 247.64 285.77 243.76 278.03C236.33 263.24 225.07 253.68 215.08 253.68C214.7 253.68 214.32 253.72 213.95 253.74C219.6 243.87 226.95 240.43 241.97 235.73M241.97 231.73C241.57 231.73 241.16 231.79 240.78 231.91C224.82 236.9 216.66 240.95 210.48 251.75C209.75 253.03 209.78 254.61 210.56 255.86C211.29 257.03 212.58 257.73 213.95 257.73C214.04 257.73 214.14 257.73 214.23 257.73L214.5 257.71C214.72 257.69 214.94 257.68 215.08 257.68C223.44 257.68 233.53 266.58 240.19 279.83C243.72 286.85 245.75 293.87 246.05 300.11C246.13 301.8 247.27 303.26 248.9 303.75C249.28 303.86 249.66 303.92 250.05 303.92C251.31 303.92 252.52 303.33 253.28 302.27C259.38 293.9 263.92 283.61 266.07 273.31C268.36 262.34 267.65 252.29 264.08 245.02C261.2 239.16 255.04 232.09 242.09 231.74C242.05 231.74 242.02 231.74 241.98 231.74L241.97 231.73Z" fill="#543714"/>
<path d="M6 150.73L24.43 178.29L42.85 205.86L116.1 135.44L107.6 122.72L99.09 109.99L6 150.73Z" fill="#543714" stroke="#553711" stroke-width="3.25" stroke-linecap="round" stroke-linejoin="round"/>
<path d="M343.34 150.73L324.92 178.29L306.5 205.86L233.25 135.44L241.75 122.72L250.25 109.99L343.34 150.73Z" fill="#543714" stroke="#553711" stroke-width="3.25" stroke-linecap="round" stroke-linejoin="round"/>
<path d="M78.7302 200.36C68.5802 200.36 59.6903 193.86 56.5903 184.19C53.9203 175.85 56.1502 166.8 62.2602 160.67C61.5902 159.51 61.0502 158.28 60.6402 156.99C59.0902 152.16 59.5203 147.01 61.8403 142.49C64.1603 137.97 68.1102 134.64 72.9402 133.09C74.8302 132.49 76.7802 132.18 78.7502 132.18C87.0402 132.18 94.3102 137.49 96.8502 145.39C98.5002 150.54 97.9003 156.02 95.2103 160.66C97.8103 163.26 99.7603 166.46 100.9 169.99C104.81 182.2 98.0602 195.32 85.8502 199.24C83.5402 199.98 81.1502 200.36 78.7502 200.36H78.7302Z" fill="#F9C5AF"/>
<path d="M78.7402 134.18C85.9402 134.18 92.6202 138.78 94.9302 146C96.6202 151.28 95.5802 156.78 92.6102 160.99C95.4802 163.46 97.7302 166.73 98.9702 170.6C102.55 181.78 96.3902 193.75 85.2102 197.33C83.0502 198.02 80.8702 198.35 78.7202 198.35C69.7302 198.35 61.3702 192.6 58.4802 183.57C55.8002 175.2 58.5702 166.39 64.8302 160.99C63.8602 159.61 63.0702 158.06 62.5302 156.37C59.6602 147.42 64.5902 137.85 73.5402 134.98C75.2702 134.43 77.0202 134.16 78.7402 134.16M78.7402 130.16C76.5702 130.16 74.4102 130.5 72.3202 131.17C66.9802 132.88 62.6202 136.57 60.0502 141.56C57.4802 146.55 57.0102 152.24 58.7202 157.58C59.0202 158.52 59.3902 159.44 59.8102 160.32C53.9502 166.93 51.9202 176.2 54.6702 184.78C58.0402 195.28 67.7002 202.34 78.7202 202.34C81.3302 202.34 83.9302 201.93 86.4302 201.13C99.6902 196.88 107.03 182.63 102.77 169.37C101.69 166.01 99.9402 162.93 97.6202 160.32C99.9802 155.49 100.4 149.98 98.7202 144.77C95.9202 136.04 87.8802 130.17 78.7202 130.17L78.7402 130.16Z" fill="#553711"/>
<path d="M270.61 200.36C268.21 200.36 265.82 199.98 263.51 199.24C251.3 195.33 244.55 182.2 248.46 169.99C249.59 166.46 251.54 163.26 254.15 160.66C251.46 156.02 250.86 150.55 252.51 145.39C255.04 137.49 262.32 132.18 270.61 132.18C272.57 132.18 274.53 132.49 276.42 133.09C281.25 134.64 285.2 137.98 287.52 142.49C289.84 147 290.27 152.15 288.72 156.99C288.31 158.28 287.76 159.51 287.1 160.67C293.21 166.8 295.44 175.85 292.77 184.19C289.67 193.86 280.77 200.36 270.63 200.36H270.61Z" fill="#F9C5AF"/>
<path d="M270.6 134.18C272.32 134.18 274.07 134.44 275.8 135C284.75 137.87 289.67 147.44 286.81 156.39C286.27 158.08 285.48 159.63 284.51 161.01C290.76 166.42 293.54 175.22 290.86 183.59C287.97 192.61 279.61 198.37 270.62 198.37C268.47 198.37 266.28 198.04 264.13 197.35C252.95 193.77 246.79 181.8 250.37 170.62C251.61 166.75 253.86 163.48 256.73 161.01C253.76 156.8 252.72 151.31 254.41 146.02C256.72 138.8 263.41 134.2 270.6 134.2M270.6 130.2C261.43 130.2 253.4 136.07 250.6 144.8C248.93 150.02 249.35 155.52 251.7 160.35C249.38 162.96 247.63 166.04 246.55 169.4C242.3 182.66 249.63 196.91 262.89 201.16C265.4 201.96 267.99 202.37 270.6 202.37C281.62 202.37 291.28 195.31 294.65 184.81C297.4 176.23 295.37 166.97 289.51 160.35C289.94 159.47 290.3 158.55 290.6 157.61C292.31 152.27 291.84 146.58 289.27 141.59C286.7 136.6 282.34 132.91 277 131.2C274.92 130.53 272.76 130.19 270.58 130.19L270.6 130.2Z" fill="#553711"/>
<path d="M174.669 253.91C117.009 253.91 76.7295 227.65 76.7295 190.06C76.7295 180.99 79.0095 172.15 83.4995 163.78C83.4495 160.54 83.4295 146.33 83.4295 145.57C83.4295 121.54 92.9495 99.6899 110.219 84.0499C127.029 68.8399 149.909 60.46 174.659 60.46C199.409 60.46 222.289 68.8399 239.099 84.0499C256.379 99.6899 265.89 121.54 265.89 145.57C265.89 146.33 265.86 160.55 265.82 163.78C270.32 172.15 272.59 180.98 272.59 190.06C272.59 227.65 232.32 253.91 174.65 253.91H174.669Z" fill="#FCD8C1"/>
<path d="M174.67 62.46C223.95 62.46 263.9 96.28 263.9 145.57C263.9 146.81 263.87 163.04 263.82 164.27C268.2 172.25 270.6 180.95 270.6 190.06C270.6 228.56 227.65 251.91 174.66 251.91C121.67 251.91 78.7197 228.55 78.7197 190.06C78.7197 180.95 81.1298 172.25 85.4998 164.27C85.4498 163.04 85.4197 146.81 85.4197 145.57C85.4197 96.29 125.37 62.46 174.65 62.46M174.65 58.46C149.4 58.46 126.04 67.0199 108.87 82.5699C91.1698 98.5899 81.4197 120.97 81.4197 145.57C81.4197 145.72 81.4397 159.11 81.4897 163.29C76.9997 171.81 74.7197 180.81 74.7197 190.06C74.7197 200.19 77.4698 209.63 82.8898 218.12C87.9898 226.1 95.3297 233.07 104.73 238.83C122.68 249.84 147.52 255.91 174.66 255.91C201.8 255.91 226.64 249.84 244.59 238.83C253.99 233.07 261.33 226.1 266.43 218.12C271.85 209.63 274.6 200.19 274.6 190.06C274.6 180.82 272.32 171.82 267.83 163.29C267.87 159.11 267.9 145.71 267.9 145.57C267.9 120.97 258.15 98.5899 240.45 82.5699C223.28 67.0199 199.91 58.46 174.67 58.46H174.65Z" fill="#553711"/>
<path d="M126.66 164.25C129.02 156.98 135.78 151.6 144.39 151.6C153 151.6 157.84 157.21 157.84 164.25" stroke="#553711" stroke-width="3" stroke-linecap="round" stroke-linejoin="round"/>
<path d="M222.68 164.25C220.32 156.98 213.56 151.6 204.95 151.6C196.34 151.6 191.5 157.21 191.5 164.25" stroke="#553711" stroke-width="3" stroke-linecap="round" stroke-linejoin="round"/>
<path d="M189.24 201.14C189.24 206.6 182.72 211.01 174.67 211.01C166.62 211.01 160.1 206.59 160.1 201.14" stroke="#F08262" stroke-width="3" stroke-linecap="round" stroke-linejoin="round"/>
<path opacity="0.5" d="M82.09 174.08C81.82 174.08 81.55 174.09 81.28 174.1C79.63 179.23 78.73 184.57 78.73 190.06C78.73 211.52 92.08 228.27 113.08 238.9C119.69 232.02 123.72 222.93 123.72 212.95C123.72 191.48 105.08 174.07 82.08 174.07L82.09 174.08Z" fill="#F39B9B"/>
<path opacity="0.5" d="M267.26 174.08C267.53 174.08 267.8 174.09 268.07 174.1C269.72 179.23 270.62 184.57 270.62 190.06C270.62 211.52 257.27 228.27 236.27 238.9C229.66 232.02 225.63 222.93 225.63 212.95C225.63 191.48 244.27 174.07 267.27 174.07L267.26 174.08Z" fill="#F39B9B"/>
<path d="M174.67 175.95C177.68 175.95 180.12 174.692 180.12 173.14C180.12 171.588 177.68 170.33 174.67 170.33C171.66 170.33 169.22 171.588 169.22 173.14C169.22 174.692 171.66 175.95 174.67 175.95Z" fill="#F9C5AF"/>
<path d="M174.67 175.95C177.68 175.95 180.12 174.692 180.12 173.14C180.12 171.588 177.68 170.33 174.67 170.33C171.66 170.33 169.22 171.588 169.22 173.14C169.22 174.692 171.66 175.95 174.67 175.95Z" fill="#F9C5AF"/>
<path d="M174.67 62.46C223.95 62.46 263.9 96.28 263.9 145.57C263.9 146.81 263.87 163.04 263.82 164.27C257.46 164.27 252.32 155.28 252.32 144.17C252.32 108.07 227.22 82.8099 196.26 82.8099C188.61 82.8099 181.31 84.6 174.66 87.84C168.01 84.6 160.72 82.8099 153.06 82.8099C122.1 82.8099 96.9999 108.07 96.9999 144.17C96.9999 155.28 91.8599 164.27 85.4999 164.27C85.4499 163.04 85.4199 146.81 85.4199 145.57C85.4199 96.29 125.37 62.46 174.65 62.46" fill="#543714"/>
<path d="M174.67 62.46C223.95 62.46 263.9 96.28 263.9 145.57C263.9 146.81 263.87 163.04 263.82 164.27C257.46 164.27 252.32 155.28 252.32 144.17C252.32 108.07 227.22 82.8099 196.26 82.8099C188.61 82.8099 181.31 84.6 174.66 87.84C168.01 84.6 160.72 82.8099 153.06 82.8099C122.1 82.8099 96.9999 108.07 96.9999 144.17C96.9999 155.28 91.8599 164.27 85.4999 164.27C85.4499 163.04 85.4199 146.81 85.4199 145.57C85.4199 96.29 125.37 62.46 174.65 62.46" stroke="#553711" stroke-width="4" stroke-linecap="round" stroke-linejoin="round"/>
<path d="M174.13 248.25C173.39 248.25 172.4 247.9 171.9 246.25C171.08 243.5 169.56 241.79 168.08 240.14C165.97 237.78 163.79 235.34 163.79 230C163.79 219.83 171.4 218.73 174.68 218.73C178.75 218.73 185.57 220.19 185.57 230C185.57 236.45 178.85 248.25 174.14 248.25H174.13Z" fill="#543714"/>
<path d="M174.67 219.09C179.35 219.09 185.2 221.09 185.2 230C185.2 237.54 177.89 247.9 174.12 247.9C173.27 247.9 172.6 247.37 172.23 246.15C170.22 239.37 164.13 238.92 164.13 230C164.13 221.08 170.24 219.09 174.66 219.09M174.66 218.38C172.63 218.38 169.71 218.77 167.3 220.64C164.72 222.64 163.42 225.79 163.42 230C163.42 235.48 165.65 237.97 167.8 240.38C169.32 242.08 170.75 243.68 171.55 246.35C172.13 248.31 173.41 248.61 174.12 248.61C178.39 248.61 185.91 237.85 185.91 230C185.91 226.5 184.81 218.37 174.67 218.37L174.66 218.38Z" fill="#553711"/>
<path d="M212.8 187.53C209.1 187.4 200.02 185.99 195.42 184.88C190.79 183.76 186.17 182.51 182.16 179.18C182.43 175.72 186.56 173.27 191.36 173.14C196.16 173.01 201.32 174.93 205.08 177.69C208.84 180.45 211.3 183.99 212.8 187.52V187.53Z" fill="#543714"/>
<path d="M212.8 186.38C208.14 186.19 203.45 185.34 198.88 184.45C193.33 183.36 187.46 182.01 182.97 178.37L183.31 179.19C183.59 176.64 186.39 175.24 188.59 174.69C191.72 173.9 195.07 174.39 198.09 175.4C204.33 177.48 209.19 182.13 211.79 188.13C212.38 189.49 214.38 188.32 213.79 186.96C211.6 181.9 207.81 177.64 202.96 175C198.11 172.36 192.43 171.02 187.27 172.65C185.2 173.3 183.16 174.48 181.95 176.34C181.46 177.09 181.09 178 181.03 178.9C180.94 180.27 182.67 181.08 183.69 181.72C188.04 184.48 193.27 185.7 198.27 186.68C203.27 187.66 207.94 188.5 212.8 188.69C214.29 188.75 214.29 186.43 212.8 186.37V186.38Z" fill="#553711"/>
<path d="M136.55 187.53C140.25 187.4 149.33 185.99 153.93 184.88C158.56 183.76 163.18 182.51 167.19 179.18C166.92 175.72 162.79 173.27 157.99 173.14C153.19 173.01 148.03 174.93 144.27 177.69C140.51 180.45 138.05 183.99 136.55 187.52V187.53Z" fill="#543714"/>
<path d="M136.55 188.69C140.86 188.52 145.19 187.76 149.43 186.99C154.32 186.1 159.38 185.04 163.84 182.76C165.07 182.13 166.23 181.39 167.33 180.55C167.83 180.17 168.32 179.87 168.36 179.18C168.39 178.68 168.2 178.09 168.04 177.63C167.33 175.62 165.59 174.14 163.69 173.27C158.79 171.02 153.01 171.98 148.23 174.09C142.53 176.61 138.02 181.24 135.55 186.95C134.96 188.3 136.96 189.49 137.55 188.12C140.15 182.12 145.01 177.47 151.25 175.39C154.21 174.4 157.49 173.91 160.57 174.64C162.83 175.18 165.75 176.57 166.04 179.19L166.38 178.37C161.9 182.01 156.02 183.37 150.47 184.45C145.9 185.34 141.21 186.19 136.55 186.38C135.06 186.44 135.06 188.76 136.55 188.7V188.69Z" fill="#553711"/>
<path d="M252.75 97.05C252.51 97.05 252.27 97.01 252.04 96.92C228.61 87.96 201.86 83.13 174.67 82.94C147.5 83.13 120.75 87.96 97.3298 96.92C97.0998 97.01 96.8598 97.05 96.6198 97.05C96.1198 97.05 95.6298 96.86 95.2598 96.52C94.6998 96 94.4898 95.21 94.7098 94.48C99.7698 77.64 110.31 62.5 124.41 51.84C138.99 40.82 156.38 35 174.7 35C193.02 35 210.41 40.82 224.99 51.84C239.09 62.49 249.64 77.64 254.69 94.48C254.91 95.21 254.69 96 254.14 96.52C253.76 96.87 253.27 97.05 252.78 97.05H252.75Z" fill="#BE1521"/>
<path d="M174.67 37C211.53 37 242.66 61.47 252.74 95.05C229.74 86.25 203.1 81.14 174.67 80.94C146.24 81.14 119.6 86.25 96.6 95.05C106.68 61.47 137.81 37 174.67 37M174.67 33C155.91 33 138.11 38.96 123.18 50.24C108.74 61.15 97.94 76.65 92.77 93.9C92.33 95.36 92.77 96.94 93.88 97.98C94.63 98.68 95.61 99.05 96.6 99.05C97.08 99.05 97.56 98.96 98.03 98.79C121.23 89.92 147.73 85.13 174.67 84.94C201.62 85.13 228.12 89.92 251.31 98.79C251.77 98.97 252.26 99.05 252.74 99.05C253.73 99.05 254.71 98.68 255.46 97.98C256.58 96.94 257.01 95.36 256.57 93.9C251.39 76.65 240.59 61.15 226.16 50.24C211.23 38.96 193.43 33 174.67 33Z" fill="#543714"/>
<path d="M174.67 80.9399C205.49 81.1499 234.21 87.14 258.46 97.33C260.54 99.52 265.9 108.09 267.58 118.52C241.55 105.82 209.44 98.2299 174.67 97.9899C139.89 98.2299 107.79 105.82 81.7599 118.52C83.4399 108.09 88.7999 99.52 90.8799 97.33C115.14 87.13 143.86 81.1499 174.68 80.9399M174.68 76.9399C174.68 76.9399 174.66 76.9399 174.65 76.9399C144.34 77.1499 114.84 82.93 89.3299 93.65C88.8199 93.86 88.3599 94.18 87.9799 94.58C85.4599 97.23 79.6599 106.41 77.8099 117.89C77.5699 119.36 78.1799 120.85 79.3799 121.74C80.0799 122.26 80.9199 122.53 81.7599 122.53C82.3599 122.53 82.9599 122.4 83.5099 122.13C110.03 109.2 141.55 102.24 174.67 102.01C207.79 102.24 239.32 109.2 265.83 122.13C266.39 122.4 266.99 122.53 267.58 122.53C268.42 122.53 269.26 122.26 269.96 121.74C271.16 120.85 271.76 119.37 271.53 117.89C269.68 106.41 263.88 97.23 261.36 94.58C260.98 94.18 260.52 93.86 260.01 93.65C234.51 82.93 205 77.1499 174.69 76.9399C174.69 76.9399 174.67 76.9399 174.66 76.9399H174.68Z" fill="#543714"/>
<path d="M174.67 80.9399C205.49 81.1499 234.21 87.14 258.46 97.33C260.54 99.52 265.9 108.09 267.58 118.52C241.55 105.82 209.44 98.2299 174.67 97.9899C139.89 98.2299 107.79 105.82 81.7598 118.52C83.4398 108.09 88.7998 99.52 90.8798 97.33C115.14 87.13 143.86 81.1499 174.67 80.9399Z" fill="#BE1521"/>
<path d="M174.67 97.9899C185.191 97.9899 193.72 94.1709 193.72 89.46C193.72 84.749 185.191 80.9299 174.67 80.9299C164.149 80.9299 155.62 84.749 155.62 89.46C155.62 94.1709 164.149 97.9899 174.67 97.9899Z" fill="#96CDAB" stroke="#553711" stroke-width="4" stroke-linecap="round" stroke-linejoin="round"/>
<path d="M143.96 262.46C143.27 262.46 142.63 262.1 142.26 261.52C141.89 260.93 141.86 260.2 142.16 259.58C148.6 246.53 161.05 238.42 174.67 238.42C188.29 238.42 200.74 246.53 207.18 259.58C207.49 260.2 207.45 260.93 207.08 261.52C206.72 262.11 206.07 262.46 205.38 262.46H143.95H143.96Z" fill="#FFCE32"/>
<path d="M174.67 240.42C187.95 240.42 199.5 248.53 205.38 260.46H143.95C149.83 248.53 161.38 240.42 174.66 240.42M174.66 236.42C160.28 236.42 147.13 244.95 140.36 258.69C139.75 259.93 139.82 261.4 140.55 262.57C141.28 263.74 142.56 264.46 143.95 264.46H205.38C206.76 264.46 208.05 263.75 208.78 262.57C209.51 261.4 209.58 259.93 208.97 258.69C202.19 244.95 189.05 236.42 174.67 236.42H174.66Z" fill="#543714"/>
<path d="M145.62 282.76C144.59 282.76 143.68 282.08 143.39 281.09L133.98 249.03C133.71 248.12 134.02 247.14 134.77 246.56C135.19 246.23 135.7 246.06 136.21 246.06C136.6 246.06 137 246.16 137.36 246.36C148.37 252.64 161.27 255.96 174.67 255.96C188.07 255.96 200.98 252.64 211.98 246.36C212.34 246.16 212.73 246.06 213.13 246.06C213.64 246.06 214.15 246.23 214.57 246.56C215.31 247.15 215.62 248.12 215.36 249.03L205.95 281.09C205.66 282.08 204.75 282.76 203.72 282.76H145.61H145.62Z" fill="#FFCE32"/>
<path d="M213.14 248.38L203.73 280.44H145.62L136.21 248.38C147.16 254.63 160.4 258.28 174.67 258.28C188.94 258.28 202.18 254.62 213.13 248.38M213.13 243.74C213.07 243.74 213.02 243.74 212.96 243.74C212.16 243.77 211.41 244 210.76 244.39C200.12 250.44 187.64 253.64 174.66 253.64C161.68 253.64 149.15 250.43 138.5 244.35C137.78 243.94 136.99 243.74 136.2 243.74C135.18 243.74 134.16 244.08 133.32 244.74C131.84 245.91 131.21 247.87 131.74 249.69L141.15 281.75C141.73 283.73 143.54 285.08 145.6 285.08H203.71C205.77 285.08 207.58 283.72 208.16 281.75L217.52 249.86C217.68 249.4 217.76 248.9 217.76 248.38C217.76 245.82 215.7 243.75 213.14 243.74H213.11H213.13Z" fill="#543714"/>
<path d="M166.3 261.57V272.25C166.3 273.18 167.75 273.18 167.75 272.25V261.57C167.75 260.64 166.3 260.64 166.3 261.57Z" fill="#E30413"/>
<path d="M167.76 263.75C168.58 263.26 169.54 262.62 170.55 262.82C171.67 263.04 171.68 264.1 171.67 265.04C171.66 267.54 171.64 270.05 171.63 272.55C171.63 273.48 173.07 273.48 173.08 272.55C173.08 271.04 173.1 269.53 173.1 268.02C173.1 266.59 173.27 265.07 173.03 263.66C172.82 262.43 171.91 261.56 170.68 261.38C169.34 261.19 168.14 261.83 167.02 262.5C166.22 262.98 166.95 264.23 167.75 263.75H167.76Z" fill="#E30413"/>
<path d="M167.8 266.64C167.97 266.61 168.14 266.57 168.31 266.55C168.4 266.53 168.5 266.52 168.59 266.51C168.48 266.53 168.72 266.49 168.72 266.49C169.05 266.45 169.39 266.42 169.72 266.41C170.4 266.38 171.09 266.41 171.77 266.48C172.15 266.52 172.51 266.12 172.5 265.75C172.48 265.32 172.18 265.07 171.77 265.02C170.31 264.86 168.85 264.94 167.41 265.23C167.04 265.3 166.79 265.77 166.9 266.12C167.03 266.52 167.39 266.71 167.79 266.63L167.8 266.64Z" fill="#E30413"/>
<path d="M167.62 270.31H171.18C171.56 270.31 171.92 269.98 171.91 269.58C171.9 269.18 171.59 268.85 171.18 268.85H167.62C167.24 268.85 166.88 269.18 166.89 269.58C166.9 269.98 167.21 270.31 167.62 270.31Z" fill="#E30413"/>
<path d="M166.73 274.42C168.54 274.17 170.35 273.97 172.17 273.82C172.56 273.79 172.9 273.51 172.9 273.09C172.9 272.72 172.57 272.33 172.17 272.36C170.22 272.52 168.28 272.74 166.35 273.01C165.96 273.06 165.75 273.56 165.84 273.9C165.95 274.32 166.34 274.46 166.73 274.41V274.42Z" fill="#E30413"/>
<path d="M168.15 273.94C168.07 274.4 167.95 274.85 167.8 275.28C167.76 275.39 167.72 275.49 167.68 275.59C167.67 275.62 167.66 275.65 167.64 275.68C167.61 275.75 167.62 275.74 167.66 275.64C167.66 275.68 167.62 275.74 167.6 275.77C167.5 275.99 167.39 276.2 167.28 276.41C167.1 276.74 167.19 277.22 167.54 277.4C167.89 277.58 168.34 277.49 168.53 277.14C169.01 276.26 169.37 275.3 169.55 274.31C169.59 274.11 169.58 273.93 169.48 273.75C169.39 273.6 169.22 273.46 169.05 273.42C168.7 273.34 168.23 273.53 168.16 273.93L168.15 273.94Z" fill="#E30413"/>
<path d="M170.44 274.6C170.61 274.9 170.76 275.21 170.89 275.53L170.82 275.36C170.99 275.76 171.13 276.18 171.25 276.6C171.35 276.97 171.77 277.23 172.14 277.11C172.51 276.99 172.76 276.61 172.65 276.22C172.42 275.41 172.1 274.62 171.69 273.87C171.51 273.54 171.02 273.4 170.7 273.61C170.38 273.82 170.24 274.25 170.44 274.6V274.6Z" fill="#E30413"/>
<path d="M175.22 267.95C177.1 267.73 178.99 267.51 180.87 267.29C181.26 267.24 181.6 266.99 181.6 266.56C181.6 266.2 181.27 265.79 180.87 265.83C178.99 266.05 177.1 266.27 175.22 266.49C174.83 266.54 174.49 266.79 174.49 267.22C174.49 267.58 174.82 267.99 175.22 267.95Z" fill="#E30413"/>
<path d="M178.73 262.96C178.77 265.19 178.81 267.42 178.75 269.65C178.72 270.76 178.66 271.88 178.57 272.99C178.53 273.5 178.48 274.01 178.42 274.52C178.39 274.78 178.3 275.09 178.31 275.35C178.25 275.54 178.27 275.56 178.37 275.41C178.3 275.29 178.23 275.17 178.18 275.04C177.77 274.2 176.52 274.94 176.93 275.77C177.18 276.28 177.54 276.78 178.13 276.92C178.66 277.05 179.22 276.84 179.51 276.37C179.82 275.86 179.81 275.09 179.88 274.52C179.97 273.75 180.04 272.99 180.09 272.22C180.3 269.14 180.24 266.04 180.19 262.96C180.17 262.03 178.72 262.03 178.74 262.96H178.73Z" fill="#E30413"/>
<path d="M178.24 266.88C178.05 267.3 177.83 267.71 177.57 268.1C177.44 268.3 177.31 268.48 177.17 268.67C177.12 268.73 177.22 268.61 177.14 268.71C177.1 268.75 177.07 268.8 177.04 268.84C176.96 268.93 176.88 269.03 176.8 269.12C176.5 269.46 176.17 269.77 175.82 270.07C175.78 270.11 175.73 270.14 175.69 270.18C175.69 270.18 175.51 270.32 175.63 270.23C175.54 270.3 175.45 270.36 175.36 270.43C175.16 270.57 174.96 270.7 174.75 270.83C174.42 271.02 174.28 271.49 174.49 271.82C174.7 272.15 175.13 272.29 175.48 272.08C177.22 271.04 178.65 269.48 179.49 267.63C179.65 267.29 179.6 266.83 179.23 266.64C178.91 266.47 178.41 266.53 178.24 266.9V266.88Z" fill="#E30413"/>
<path d="M213.14 295.86C203.48 295.86 195.62 288 195.62 278.34C195.62 268.68 203.48 260.82 213.14 260.82C222.8 260.82 230.66 268.68 230.66 278.34C230.66 288 222.8 295.86 213.14 295.86Z" fill="#FCD8C1"/>
<path d="M213.14 262.82C221.71 262.82 228.66 269.77 228.66 278.34C228.66 286.91 221.71 293.86 213.14 293.86C204.57 293.86 197.62 286.91 197.62 278.34C197.62 269.77 204.57 262.82 213.14 262.82ZM213.14 258.82C202.38 258.82 193.62 267.58 193.62 278.34C193.62 289.1 202.38 297.86 213.14 297.86C223.9 297.86 232.66 289.1 232.66 278.34C232.66 267.58 223.9 258.82 213.14 258.82Z" fill="#553711"/>
<path d="M133.013 126.595L146.71 130.265C148.977 130.873 151.307 129.527 151.915 127.26C152.522 124.993 151.177 122.662 148.91 122.055L135.213 118.385C132.946 117.777 130.615 119.123 130.008 121.39C129.4 123.657 130.746 125.988 133.013 126.595Z" fill="#543714" stroke="#553711" stroke-width="0.36" stroke-linecap="round" stroke-linejoin="round"/>
<path d="M214.141 118.386L200.444 122.057C198.177 122.664 196.831 124.994 197.439 127.262C198.046 129.529 200.377 130.874 202.644 130.267L216.341 126.597C218.608 125.989 219.954 123.659 219.346 121.392C218.739 119.124 216.408 117.779 214.141 118.386Z" fill="#543714" stroke="#553711" stroke-width="0.36" stroke-linecap="round" stroke-linejoin="round"/>
<path d="M136.21 295.86C126.55 295.86 118.69 288 118.69 278.34C118.69 268.68 126.55 260.82 136.21 260.82C145.87 260.82 153.73 268.68 153.73 278.34C153.73 288 145.87 295.86 136.21 295.86Z" fill="#FCD8C1"/>
<path d="M136.21 262.82C144.78 262.82 151.73 269.77 151.73 278.34C151.73 286.91 144.78 293.86 136.21 293.86C127.64 293.86 120.69 286.91 120.69 278.34C120.69 269.77 127.64 262.82 136.21 262.82ZM136.21 258.82C125.45 258.82 116.69 267.58 116.69 278.34C116.69 289.1 125.45 297.86 136.21 297.86C146.97 297.86 155.73 289.1 155.73 278.34C155.73 267.58 146.97 258.82 136.21 258.82Z" fill="#553711"/>
</svg>
