<svg width="350" height="350" viewBox="0 0 350 350" fill="none" xmlns="http://www.w3.org/2000/svg">
<path d="M79.2703 204.32C69.1203 204.32 60.2303 197.82 57.1303 188.15C54.4603 179.81 56.6903 170.76 62.8003 164.63C62.1303 163.47 61.5903 162.24 61.1803 160.95C59.6303 156.11 60.0603 150.97 62.3803 146.45C64.7003 141.93 68.6503 138.6 73.4803 137.05C75.3703 136.45 77.3203 136.14 79.2903 136.14C87.5803 136.14 94.8502 141.45 97.3902 149.35C99.0402 154.5 98.4403 159.98 95.7503 164.62C98.3503 167.22 100.3 170.42 101.44 173.95C105.35 186.16 98.6002 199.28 86.3902 203.2C84.0802 203.94 81.6903 204.32 79.2903 204.32H79.2703Z" fill="#F9C5AF"/>
<path d="M79.2802 138.14C86.4802 138.14 93.1602 142.74 95.4702 149.96C97.1602 155.24 96.1202 160.74 93.1502 164.95C96.0202 167.42 98.2703 170.69 99.5103 174.56C103.09 185.74 96.9303 197.71 85.7503 201.29C83.5903 201.98 81.4103 202.31 79.2603 202.31C70.2703 202.31 61.9102 196.56 59.0202 187.53C56.3402 179.16 59.1103 170.35 65.3703 164.95C64.4003 163.57 63.6103 162.02 63.0703 160.33C60.2003 151.38 65.1302 141.81 74.0802 138.94C75.8102 138.39 77.5602 138.12 79.2802 138.12M79.2802 134.12C77.1102 134.12 74.9502 134.46 72.8602 135.13C67.5202 136.84 63.1602 140.53 60.5902 145.52C58.0202 150.51 57.5503 156.2 59.2603 161.54C59.5603 162.48 59.9302 163.39 60.3502 164.28C54.4902 170.89 52.4602 180.16 55.2102 188.74C58.5802 199.24 68.2403 206.3 79.2603 206.3C81.8703 206.3 84.4702 205.89 86.9702 205.09C100.23 200.84 107.57 186.59 103.31 173.33C102.23 169.97 100.48 166.89 98.1602 164.28C100.52 159.45 100.94 153.94 99.2603 148.73C96.4603 140 88.4203 134.13 79.2603 134.13L79.2802 134.12Z" fill="#553711"/>
<path d="M271.15 204.32C268.75 204.32 266.36 203.94 264.05 203.2C251.84 199.29 245.09 186.16 249 173.95C250.13 170.42 252.08 167.22 254.69 164.62C252 159.98 251.4 154.5 253.05 149.35C255.58 141.45 262.86 136.14 271.15 136.14C273.12 136.14 275.07 136.45 276.96 137.05C281.8 138.6 285.74 141.94 288.06 146.45C290.38 150.96 290.81 156.11 289.26 160.95C288.85 162.24 288.3 163.47 287.64 164.63C293.75 170.76 295.98 179.81 293.31 188.15C290.21 197.82 281.31 204.32 271.17 204.32H271.15Z" fill="#F9C5AF"/>
<path d="M271.15 138.14C272.87 138.14 274.62 138.4 276.35 138.96C285.3 141.83 290.22 151.4 287.36 160.35C286.82 162.04 286.03 163.59 285.06 164.97C291.31 170.38 294.09 179.18 291.41 187.55C288.52 196.57 280.17 202.33 271.17 202.33C269.02 202.33 266.83 202 264.68 201.31C253.5 197.73 247.34 185.76 250.92 174.58C252.16 170.71 254.41 167.44 257.28 164.97C254.31 160.76 253.27 155.27 254.96 149.98C257.27 142.76 263.96 138.16 271.15 138.16M271.15 134.16C261.98 134.16 253.95 140.03 251.15 148.76C249.48 153.98 249.9 159.49 252.25 164.31C249.93 166.92 248.18 170 247.1 173.36C242.85 186.62 250.18 200.87 263.44 205.12C265.95 205.92 268.54 206.33 271.15 206.33C282.17 206.33 291.83 199.28 295.2 188.77C297.95 180.19 295.92 170.93 290.06 164.31C290.49 163.43 290.85 162.51 291.15 161.57C292.86 156.23 292.39 150.54 289.82 145.55C287.25 140.56 282.9 136.87 277.55 135.16C275.47 134.49 273.31 134.15 271.13 134.15L271.15 134.16Z" fill="#553711"/>
<path d="M78.8403 293.24C78.7003 293.24 78.5503 293.22 78.4103 293.19C77.7903 293.05 77.2703 292.63 77.0103 292.05C68.6403 273.13 72.3303 250.84 80.3003 238.6C84.0703 232.81 88.6603 229.63 93.2403 229.63C93.5403 229.63 93.8503 229.64 94.1503 229.67C110.59 231.19 119.73 246.11 121.63 255.16C121.78 255.87 121.53 256.6 120.99 257.08L80.1603 292.75C79.7903 293.07 79.3203 293.24 78.8403 293.24Z" fill="#F29FC5"/>
<path d="M93.2303 231.63C93.4703 231.63 93.7203 231.64 93.9603 231.66C109.26 233.08 117.9 247.17 119.67 255.57L78.8403 291.24C67.2703 265.09 79.9003 231.63 93.2403 231.63M93.2403 227.63C87.9703 227.63 82.7803 231.14 78.6303 237.52C70.3703 250.21 66.5303 273.3 75.1903 292.87C75.7003 294.03 76.7403 294.88 77.9803 295.16C78.2703 295.22 78.5603 295.25 78.8503 295.25C79.8103 295.25 80.7503 294.91 81.4803 294.26L122.31 258.59C123.4 257.64 123.89 256.17 123.59 254.76C121.57 245.15 111.85 229.31 94.3303 227.69C93.9703 227.66 93.6003 227.64 93.2303 227.64L93.2403 227.63Z" fill="#553711"/>
<path d="M82.6304 315.13C81.5304 315.13 80.6304 314.23 80.6304 313.13C80.6304 312.03 81.5304 311.13 82.6304 311.13C84.2904 310.47 87.5303 300.57 87.5303 284.02C87.5303 263.07 96.6603 243.35 113.23 228.48C129.31 214.06 150.63 205.79 173.43 205.09C173.57 205.06 173.72 205.04 173.87 205.04H176.57C176.72 205.04 176.87 205.06 177.01 205.09C199.84 205.8 221.14 214.07 237.2 228.48C253.77 243.35 262.9 263.07 262.9 284.02C262.9 300.57 266.14 310.47 267.88 311.14C268.98 311.14 269.84 312.03 269.84 313.13C269.84 314.23 268.9 315.12 267.8 315.12H82.6304V315.13Z" fill="#F29FC5"/>
<path d="M176.56 207.04C176.11 207.04 175.66 207.04 175.21 207.04C174.76 207.04 174.31 207.04 173.86 207.04H176.56ZM175.21 207.04C222.7 207.67 260.9 241.86 260.9 284.01C260.9 300.1 263.99 313.12 267.8 313.12H82.6304C86.4404 313.12 89.5303 300.1 89.5303 284.01C89.5303 241.86 127.73 207.68 175.22 207.04M176.57 203.03H173.87C173.65 203.03 173.43 203.05 173.21 203.08C149.99 203.82 128.28 212.27 111.89 226.97C94.8903 242.22 85.5303 262.48 85.5303 284C85.5303 298.47 83.1004 307.22 81.6204 309.23C79.9004 309.68 78.6304 311.24 78.6304 313.1C78.6304 315.31 80.4204 317.1 82.6304 317.1H267.8C270.01 317.1 271.8 315.31 271.8 313.1C271.8 311.24 270.53 309.67 268.81 309.23C267.33 307.21 264.9 298.46 264.9 284C264.9 262.48 255.54 242.22 238.54 226.97C222.15 212.26 200.44 203.82 177.22 203.08C177.01 203.04 176.79 203.03 176.56 203.03H176.57Z" fill="#553711"/>
<path d="M257.05 300.45C250 300.45 240.61 295.44 232.54 287.37C227.09 281.92 222.95 275.77 220.88 270.06C218.71 264.09 219.03 259.15 221.75 256.08C224.82 247.24 235.72 233.69 252.72 233.69C257.7 233.69 262.41 237.14 266 243.4C273.23 256.02 275.17 279.24 264.51 297.42C264.42 297.57 264.32 297.7 264.2 297.82C262.48 299.54 260.01 300.45 257.06 300.45H257.05Z" fill="#F29FC5"/>
<path d="M252.72 235.68C267.06 235.68 277.68 270.97 262.78 296.4C261.39 297.79 259.41 298.45 257.05 298.45C250.79 298.45 241.83 293.83 233.95 285.95C223.1 275.1 218.43 262.2 223.5 257.12C226.16 248.91 236.57 235.68 252.72 235.68M252.72 231.68C234.92 231.68 223.42 245.68 219.99 255.06C214.16 262.2 218.78 276.43 231.13 288.78C239.56 297.21 249.5 302.45 257.05 302.45C260.54 302.45 263.5 301.34 265.61 299.23C265.85 298.99 266.06 298.72 266.23 298.42C277.27 279.59 275.24 255.5 267.73 242.39C263.77 235.48 258.44 231.68 252.72 231.68V231.68Z" fill="#553711"/>
<path d="M191.35 257.3C191.35 269.08 172.82 276.96 153.9 276.96" stroke="white" stroke-width="4" stroke-linecap="round" stroke-linejoin="round"/>
<path d="M159.62 257.3C159.62 267.03 172.06 273.44 175.21 273.44" stroke="white" stroke-width="4" stroke-linecap="round" stroke-linejoin="round"/>
<path d="M142.49 75.1C141.64 75.1 140.88 74.56 140.6 73.75C140.32 72.94 140.59 72.05 141.26 71.52C142.78 70.33 142.71 68 142.61 67.05C142.38 64.89 141.46 63.53 141.07 63.27C128.78 63.24 120.58 58.44 120.58 51.3C120.58 40.67 146.62 30.99 175.21 30.99C203.8 30.99 229.84 40.67 229.84 51.3C229.84 58.45 221.61 63.26 209.35 63.27C208.96 63.54 208.05 64.9 207.82 67.05C207.72 68 207.65 70.33 209.17 71.52C209.84 72.05 210.11 72.94 209.83 73.75C209.55 74.56 208.79 75.1 207.94 75.1H142.5H142.49Z" fill="#F29FC5"/>
<path d="M175.21 33C204.3 33 227.84 42.99 227.84 51.31C227.84 57.45 219.79 61.28 209.29 61.28C209.27 61.28 209.25 61.28 209.23 61.28C206.4 61.28 203.77 69.85 207.93 73.11H142.49C146.65 69.85 144.03 61.28 141.19 61.28C141.17 61.28 141.15 61.28 141.13 61.28C130.64 61.28 122.58 57.45 122.58 51.31C122.58 42.99 146.12 33 175.21 33M175.21 29C161.22 29 147.5 31.23 136.59 35.29C124.97 39.61 118.58 45.3 118.58 51.31C118.58 59.45 127.17 64.98 140.07 65.27C140.38 65.91 140.74 67.08 140.64 68.35C140.61 68.71 140.5 69.59 140.03 69.96C138.69 71.01 138.16 72.8 138.71 74.41C139.27 76.02 140.78 77.11 142.49 77.11H207.93C209.64 77.11 211.16 76.03 211.71 74.41C212.27 72.8 211.74 71.01 210.39 69.96C209.92 69.59 209.8 68.71 209.78 68.35C209.68 67.08 210.04 65.91 210.35 65.27C223.25 64.98 231.84 59.45 231.84 51.31C231.84 45.29 225.44 39.6 213.83 35.29C202.92 31.24 189.21 29 175.21 29V29Z" fill="#553711"/>
<path d="M123.63 48.1699C122.94 49.2299 122.58 50.2799 122.58 51.3099C122.58 57.4499 130.63 61.2799 141.13 61.2799C143.99 61.1499 146.68 69.8299 142.49 73.1099H207.93C203.74 69.8299 206.43 61.1499 209.29 61.2799C219.78 61.2799 227.84 57.4499 227.84 51.3099C227.84 50.2799 227.48 49.2299 226.79 48.1699C215.09 51.1399 196.35 53.0599 175.21 53.0599C154.07 53.0599 135.33 51.1399 123.63 48.1699V48.1699Z" fill="#F087B6"/>
<path d="M175.21 257.87C117.55 257.87 77.2703 231.61 77.2703 194.02C77.2703 184.95 79.5503 176.11 84.0403 167.74C83.9903 164.51 83.9703 150.29 83.9703 149.53C83.9703 125.5 93.4903 103.65 110.76 88.0099C127.57 72.7999 150.45 64.4199 175.2 64.4199C199.95 64.4199 222.83 72.7999 239.64 88.0099C256.92 103.65 266.43 125.5 266.43 149.53C266.43 150.29 266.4 164.51 266.36 167.74C270.86 176.11 273.13 184.95 273.13 194.02C273.13 231.61 232.86 257.87 175.19 257.87H175.21Z" fill="#FCD8C1"/>
<path d="M175.21 66.4199C224.49 66.4199 264.44 100.24 264.44 149.53C264.44 150.77 264.41 167 264.36 168.23C268.74 176.21 271.14 184.91 271.14 194.02C271.14 232.52 228.19 255.87 175.2 255.87C122.21 255.87 79.2603 232.51 79.2603 194.02C79.2603 184.91 81.6702 176.21 86.0402 168.23C85.9902 167 85.9602 150.77 85.9602 149.53C85.9602 100.25 125.91 66.4199 175.19 66.4199M175.19 62.4199C149.94 62.4199 126.58 70.9799 109.41 86.5299C91.7102 102.55 81.9602 124.93 81.9602 149.53C81.9602 149.68 81.9802 163.07 82.0302 167.25C77.5402 175.77 75.2603 184.77 75.2603 194.02C75.2603 204.15 78.0102 213.59 83.4302 222.08C88.5302 230.06 95.8702 237.03 105.27 242.79C123.22 253.8 148.06 259.87 175.2 259.87C202.34 259.87 227.18 253.8 245.13 242.79C254.53 237.03 261.87 230.06 266.97 222.08C272.39 213.59 275.14 204.15 275.14 194.02C275.14 184.78 272.86 175.78 268.37 167.25C268.41 163.07 268.44 149.67 268.44 149.53C268.44 124.93 258.69 102.55 240.99 86.5299C223.82 70.9799 200.45 62.4199 175.21 62.4199H175.19Z" fill="#553711"/>
<path d="M127.2 168.21C129.56 160.94 136.32 155.56 144.93 155.56C153.54 155.56 158.38 161.17 158.38 168.21" stroke="#553711" stroke-width="3" stroke-linecap="round" stroke-linejoin="round"/>
<path d="M223.22 168.21C220.86 160.94 214.1 155.56 205.49 155.56C196.88 155.56 192.04 161.17 192.04 168.21" stroke="#553711" stroke-width="3" stroke-linecap="round" stroke-linejoin="round"/>
<path d="M189.78 205.1C189.78 210.56 183.26 214.97 175.21 214.97C167.16 214.97 160.64 210.55 160.64 205.1" stroke="#F08262" stroke-width="2.76" stroke-linecap="round" stroke-linejoin="round"/>
<path d="M86.0602 170.23C84.9902 170.23 84.1102 169.38 84.0602 168.31C84.0102 167.01 83.9802 150.36 83.9802 149.53C83.9802 125.5 93.5002 103.65 110.77 88.0099C127.58 72.7999 150.46 64.4199 175.21 64.4199C199.96 64.4199 222.84 72.7999 239.65 88.0099C256.93 103.65 266.44 125.5 266.44 149.53C266.44 150.36 266.41 167.01 266.36 168.31C266.32 169.38 265.43 170.23 264.36 170.23C260.54 170.23 257.03 167.78 254.49 163.34C252.15 159.25 250.86 153.84 250.86 148.13C250.86 114.29 227.62 88.7699 196.8 88.7699C189.64 88.7699 182.69 90.3799 176.14 93.5599C175.86 93.7099 175.54 93.7899 175.2 93.7899C174.86 93.7899 174.54 93.7099 174.26 93.5599C167.71 90.3799 160.76 88.7699 153.6 88.7699C122.78 88.7699 99.5402 114.29 99.5402 148.13C99.5402 160.53 93.6102 170.23 86.0402 170.23H86.0602Z" fill="white"/>
<path d="M175.21 66.4199C224.49 66.4199 264.44 100.24 264.44 149.53C264.44 150.77 264.41 167 264.36 168.23C258 168.23 252.86 159.24 252.86 148.13C252.86 112.03 227.76 86.7699 196.8 86.7699C189.15 86.7699 181.85 88.5599 175.2 91.7999C168.55 88.5599 161.26 86.7699 153.6 86.7699C122.64 86.7699 97.5402 112.03 97.5402 148.13C97.5402 159.24 92.4002 168.23 86.0402 168.23C85.9902 167 85.9602 150.77 85.9602 149.53C85.9602 100.25 125.91 66.4199 175.19 66.4199M175.19 62.4199C149.94 62.4199 126.58 70.9799 109.41 86.5299C91.7102 102.55 81.9602 124.93 81.9602 149.53C81.9602 149.7 81.9902 166.98 82.0502 168.39C82.1402 170.53 83.9002 172.23 86.0502 172.23C94.7402 172.23 101.55 161.64 101.55 148.13C101.55 131.94 107 117.2 116.89 106.65C126.48 96.4099 139.52 90.7699 153.61 90.7699C160.48 90.7699 167.16 92.3299 173.45 95.3899C174 95.6599 174.6 95.7899 175.2 95.7899C175.8 95.7899 176.4 95.6599 176.95 95.3899C183.25 92.3199 189.92 90.7699 196.79 90.7699C210.88 90.7699 223.92 96.4099 233.51 106.65C243.4 117.21 248.85 131.94 248.85 148.13C248.85 161.65 255.66 172.23 264.35 172.23C266.5 172.23 268.26 170.54 268.35 168.39C268.41 166.98 268.44 149.69 268.44 149.53C268.44 124.93 258.69 102.55 240.99 86.5299C223.82 70.9799 200.45 62.4199 175.21 62.4199H175.19Z" fill="#553711"/>
<path d="M220.48 244.44C218.38 244.44 212.04 238.85 212.04 230.61C212.04 209.84 195.52 192.69 175.21 192.37C154.92 192.68 138.39 209.84 138.39 230.61C138.39 238.86 132.05 244.44 129.95 244.44V243.44C130.95 243.44 132.82 237.96 132.82 227.5C132.82 203.83 151.48 184.25 174.56 183.54V183.52H175.88V183.54C198.96 184.26 217.61 203.84 217.61 227.5C217.61 237.97 219.48 243.44 220.48 243.44V244.44V244.44Z" fill="white"/>
<path d="M175.87 184.02C175.65 184.02 175.43 184.02 175.21 184.02C174.99 184.02 174.77 184.02 174.55 184.02H175.87M175.21 184.02C198.43 184.38 217.1 203.69 217.1 227.5C217.1 236.59 218.61 243.94 220.47 243.94C218.81 243.94 212.53 238.7 212.53 230.61C212.53 209.4 195.89 192.19 175.21 191.88C175.41 191.88 175.6 191.88 175.8 191.88H174.63C174.83 191.88 175.02 191.88 175.22 191.88C154.54 192.2 137.9 209.4 137.9 230.61C137.9 238.71 131.62 243.94 129.96 243.94C131.82 243.94 133.33 236.59 133.33 227.5C133.33 203.69 152.01 184.38 175.22 184.02M175.88 183.01H174.56V183.03C163.3 183.37 152.77 188.05 144.85 196.27C136.78 204.64 132.33 215.73 132.33 227.5C132.33 236.91 130.75 242.48 129.86 242.96C129.87 242.96 129.91 242.94 129.96 242.94V244.94C132.19 244.94 138.9 239.15 138.9 230.61C138.9 220.62 142.67 211.2 149.52 204.1C156.36 197.01 165.48 193.03 175.22 192.87C184.96 193.02 194.08 197.01 200.92 204.1C207.77 211.2 211.54 220.62 211.54 230.61C211.54 239.16 218.25 244.94 220.48 244.94V242.94C220.53 242.94 220.57 242.95 220.58 242.96C219.69 242.48 218.11 236.91 218.11 227.5C218.11 215.73 213.66 204.64 205.59 196.27C197.67 188.06 187.14 183.37 175.88 183.03V183.01V183.01Z" fill="white"/>
<path opacity="0.5" d="M82.6303 178.04C82.3603 178.04 82.0903 178.05 81.8203 178.06C80.1703 183.19 79.2703 188.53 79.2703 194.02C79.2703 215.48 92.6203 232.23 113.62 242.86C120.23 235.98 124.26 226.89 124.26 216.91C124.26 195.44 105.62 178.03 82.6203 178.03L82.6303 178.04Z" fill="#F39B9B"/>
<path opacity="0.5" d="M267.8 178.04C268.07 178.04 268.34 178.05 268.61 178.06C270.26 183.19 271.16 188.53 271.16 194.02C271.16 215.48 257.81 232.23 236.81 242.86C230.2 235.98 226.17 226.89 226.17 216.91C226.17 195.44 244.81 178.03 267.81 178.03L267.8 178.04Z" fill="#F39B9B"/>
<path d="M75.4602 228.87C91.2202 228.87 103.86 211.51 111.43 168.81C114.11 146.34 121.52 125.11 138.02 125.36C152.17 125.36 154.34 134.8 158.02 135.24C162 135.62 160.87 130.22 158.06 126.19C156.16 123.48 149.17 117.33 137.39 117.33C126.84 117.33 112.23 127.96 108.87 151.67C101.18 202.46 91.2202 228.87 75.4602 228.87V228.87Z" fill="white" stroke="white" stroke-miterlimit="10"/>
<path d="M274.96 228.87C259.2 228.87 246.56 211.51 238.99 168.81C236.31 146.34 228.9 125.11 212.4 125.36C198.25 125.36 196.08 134.8 192.4 135.24C188.42 135.62 189.55 130.22 192.36 126.19C194.26 123.48 201.25 117.33 213.03 117.33C223.58 117.33 238.19 127.96 241.55 151.67C249.24 202.46 259.2 228.87 274.96 228.87V228.87Z" fill="white" stroke="white" stroke-miterlimit="10"/>
<path d="M192.12 310.72C191.02 310.72 190.12 309.82 190.12 308.72C190.12 296.31 200.22 286.21 212.63 286.21C225.04 286.21 235.14 296.31 235.14 308.72C235.14 309.82 234.24 310.72 233.14 310.72H192.12Z" fill="#788885"/>
<path d="M212.63 288.21C223.96 288.21 233.14 297.39 233.14 308.72H192.12C192.12 297.39 201.3 288.21 212.63 288.21ZM212.63 284.21C199.11 284.21 188.12 295.21 188.12 308.72C188.12 310.93 189.91 312.72 192.12 312.72H233.14C235.35 312.72 237.14 310.93 237.14 308.72C237.14 295.2 226.14 284.21 212.63 284.21Z" fill="#543714"/>
<path d="M232.79 305.76H192.47C188.742 305.76 185.72 308.782 185.72 312.51V312.71C185.72 316.438 188.742 319.46 192.47 319.46H232.79C236.518 319.46 239.54 316.438 239.54 312.71V312.51C239.54 308.782 236.518 305.76 232.79 305.76Z" fill="white"/>
<path d="M232.79 307.76C235.4 307.76 237.54 309.9 237.54 312.51V312.71C237.54 315.32 235.4 317.46 232.79 317.46H192.47C189.86 317.46 187.72 315.32 187.72 312.71V312.51C187.72 309.9 189.86 307.76 192.47 307.76H232.79ZM232.79 303.76H192.47C187.64 303.76 183.72 307.69 183.72 312.51V312.71C183.72 317.54 187.65 321.46 192.47 321.46H232.79C237.62 321.46 241.54 317.53 241.54 312.71V312.51C241.54 307.68 237.61 303.76 232.79 303.76Z" fill="#543714"/>
<path d="M175.21 179.91C178.22 179.91 180.66 178.652 180.66 177.1C180.66 175.548 178.22 174.29 175.21 174.29C172.2 174.29 169.76 175.548 169.76 177.1C169.76 178.652 172.2 179.91 175.21 179.91Z" fill="#F9C5AF"/>
<path d="M117.28 310.72C116.18 310.72 115.28 309.82 115.28 308.72C115.28 296.31 125.38 286.21 137.79 286.21C150.2 286.21 160.3 296.31 160.3 308.72C160.3 309.82 159.4 310.72 158.3 310.72H117.28Z" fill="#788885"/>
<path d="M137.79 288.21C149.12 288.21 158.3 297.39 158.3 308.72H117.28C117.28 297.39 126.46 288.21 137.79 288.21ZM137.79 284.21C124.27 284.21 113.28 295.21 113.28 308.72C113.28 310.93 115.07 312.72 117.28 312.72H158.3C160.51 312.72 162.3 310.93 162.3 308.72C162.3 295.2 151.3 284.21 137.79 284.21Z" fill="#543714"/>
<path d="M157.96 305.76H117.64C113.912 305.76 110.89 308.782 110.89 312.51V312.71C110.89 316.438 113.912 319.46 117.64 319.46H157.96C161.688 319.46 164.71 316.438 164.71 312.71V312.51C164.71 308.782 161.688 305.76 157.96 305.76Z" fill="white"/>
<path d="M157.95 307.76C160.56 307.76 162.7 309.9 162.7 312.51V312.71C162.7 315.32 160.56 317.46 157.95 317.46H117.63C115.02 317.46 112.88 315.32 112.88 312.71V312.51C112.88 309.9 115.02 307.76 117.63 307.76H157.95ZM157.95 303.76H117.63C112.8 303.76 108.88 307.69 108.88 312.51V312.71C108.88 317.54 112.81 321.46 117.63 321.46H157.95C162.78 321.46 166.7 317.53 166.7 312.71V312.51C166.7 307.68 162.77 303.76 157.95 303.76Z" fill="#543714"/>
<path d="M86.5103 297.78C83.8303 297.78 81.6102 297.01 79.9302 295.48C73.7102 289.83 77.6202 275.72 88.8402 263.36C96.7102 254.69 106.34 249.09 113.37 249.09C116.05 249.09 118.27 249.86 119.95 251.39C126.17 257.04 122.26 271.15 111.04 283.51C103.17 292.18 93.5403 297.78 86.5103 297.78V297.78Z" fill="white"/>
<path d="M113.38 251.1C115.49 251.1 117.28 251.67 118.62 252.88C123.93 257.7 119.88 270.82 109.57 282.17C101.85 290.67 92.8002 295.78 86.5202 295.78C84.4102 295.78 82.6202 295.21 81.2802 294C75.9702 289.18 80.0202 276.06 90.3302 264.71C98.0502 256.21 107.1 251.1 113.38 251.1ZM113.38 247.1C105.69 247.1 95.7203 252.82 87.3703 262.02C82.0003 267.94 78.0003 274.54 76.1303 280.62C73.9403 287.72 74.8102 293.52 78.6002 296.96C80.6302 298.81 83.3702 299.78 86.5302 299.78C94.2202 299.78 104.19 294.06 112.54 284.86C124.72 271.45 128.49 256.43 121.32 249.92C119.29 248.07 116.55 247.1 113.39 247.1H113.38Z" fill="#553711"/>
<path d="M107 237.83H102.86C99.6128 237.83 96.9802 240.463 96.9802 243.71V313.2C96.9802 316.448 99.6128 319.08 102.86 319.08H107C110.248 319.08 112.88 316.448 112.88 313.2V243.71C112.88 240.463 110.248 237.83 107 237.83Z" fill="#CA9F70" stroke="#543714" stroke-width="4" stroke-linecap="round" stroke-linejoin="round"/>
<path d="M82.6203 244.11C82.6203 242.2 84.1703 240.66 86.0703 240.66C88.4603 240.66 90.3903 242.59 90.3903 244.98C90.3903 247.96 87.9703 250.38 84.9903 250.38C81.2603 250.38 78.2403 247.36 78.2403 243.63C78.2403 238.97 82.0203 235.2 86.6703 235.2C92.4903 235.2 97.2103 239.92 97.2103 245.74C97.2103 253.02 91.3103 258.92 84.0303 258.92C74.9303 258.92 67.5603 251.54 67.5603 242.45C67.5603 231.08 76.7803 221.86 88.1503 221.86C99.5203 221.86 112.87 231.75 112.87 243.76" fill="#CA9F70"/>
<path d="M82.6203 244.11C82.6203 242.2 84.1703 240.66 86.0703 240.66C88.4603 240.66 90.3903 242.59 90.3903 244.98C90.3903 247.96 87.9703 250.38 84.9903 250.38C81.2603 250.38 78.2403 247.36 78.2403 243.63C78.2403 238.97 82.0203 235.2 86.6703 235.2C92.4903 235.2 97.2103 239.92 97.2103 245.74C97.2103 253.02 91.3103 258.92 84.0303 258.92C74.9303 258.92 67.5603 251.54 67.5603 242.45C67.5603 231.08 76.7803 221.86 88.1503 221.86C99.5203 221.86 112.87 231.75 112.87 243.76" stroke="#543714" stroke-width="4" stroke-linecap="round" stroke-linejoin="round"/>
<path d="M116.26 280.84C111.96 280.84 108.46 277.34 108.46 273.04C108.46 268.74 111.96 265.24 116.26 265.24C120.56 265.24 124.06 268.74 124.06 273.04C124.06 277.34 120.56 280.84 116.26 280.84Z" fill="#FCD8C1"/>
<path d="M116.26 267.24C119.46 267.24 122.06 269.84 122.06 273.04C122.06 276.24 119.46 278.84 116.26 278.84C113.06 278.84 110.46 276.24 110.46 273.04C110.46 269.84 113.06 267.24 116.26 267.24ZM116.26 263.24C110.85 263.24 106.46 267.64 106.46 273.04C106.46 278.44 110.86 282.84 116.26 282.84C121.66 282.84 126.06 278.44 126.06 273.04C126.06 267.64 121.66 263.24 116.26 263.24Z" fill="#553711"/>
<path d="M102.8 294.48C93.1403 294.48 85.2803 286.62 85.2803 276.96C85.2803 267.3 93.1403 259.44 102.8 259.44C106.82 259.44 110.75 260.84 113.87 263.38C114.34 263.76 114.61 264.33 114.61 264.93V288.98C114.61 289.58 114.34 290.15 113.87 290.53C110.75 293.07 106.82 294.47 102.8 294.47V294.48Z" fill="#FCD8C1"/>
<path d="M102.8 261.44C106.52 261.44 109.93 262.75 112.61 264.93V288.98C109.94 291.16 106.52 292.47 102.8 292.47C94.2303 292.47 87.2803 285.52 87.2803 276.95C87.2803 268.38 94.2303 261.43 102.8 261.43M102.8 257.43C92.0403 257.43 83.2803 266.19 83.2803 276.95C83.2803 287.71 92.0403 296.47 102.8 296.47C107.28 296.47 111.66 294.91 115.14 292.07C116.07 291.31 116.61 290.17 116.61 288.97V264.92C116.61 263.72 116.07 262.58 115.14 261.82C111.67 258.99 107.29 257.42 102.81 257.42L102.8 257.43Z" fill="#553711"/>
<path d="M257.05 300.45C250 300.45 240.61 295.44 232.54 287.37C227.09 281.92 222.95 275.77 220.88 270.06C218.63 263.84 219.06 258.75 222.09 255.72C223.81 254 226.28 253.09 229.23 253.09C236.28 253.09 245.67 258.1 253.74 266.17C259.19 271.62 263.33 277.77 265.4 283.48C267.65 289.7 267.22 294.79 264.19 297.82C262.47 299.54 260 300.45 257.05 300.45Z" fill="white"/>
<path d="M229.23 255.07C235.49 255.07 244.45 259.69 252.33 267.57C263.18 278.42 267.85 291.32 262.78 296.4C261.39 297.79 259.41 298.45 257.05 298.45C250.79 298.45 241.83 293.83 233.95 285.95C223.1 275.1 218.43 262.2 223.5 257.12C224.89 255.73 226.87 255.07 229.23 255.07M229.23 251.07C225.74 251.07 222.78 252.18 220.67 254.29C213.82 261.14 218.31 275.96 231.12 288.77C239.55 297.2 249.49 302.44 257.04 302.44C260.53 302.44 263.49 301.33 265.6 299.22C272.45 292.37 267.96 277.55 255.15 264.74C246.72 256.31 236.78 251.07 229.23 251.07V251.07Z" fill="#553711"/>
<path d="M256.172 306.283C264.11 302.765 265.658 288.886 259.63 275.284C253.602 261.681 242.281 253.505 234.343 257.023C226.406 260.54 224.858 274.419 230.886 288.021C236.914 301.624 248.235 309.8 256.172 306.283Z" stroke="#E30413" stroke-width="6.13" stroke-linecap="round" stroke-linejoin="round"/>
<path d="M205.49 275.19C209 267.63 217.17 265.03 223.7 270.21" stroke="#E30413" stroke-width="6" stroke-linecap="round" stroke-linejoin="round"/>
<path d="M237.19 294.48C246.866 294.48 254.71 286.636 254.71 276.96C254.71 267.284 246.866 259.44 237.19 259.44C227.514 259.44 219.67 267.284 219.67 276.96C219.67 286.636 227.514 294.48 237.19 294.48Z" fill="#FCD8C1"/>
<path d="M237.19 261.44C245.76 261.44 252.71 268.39 252.71 276.96C252.71 285.53 245.76 292.48 237.19 292.48C228.62 292.48 221.67 285.53 221.67 276.96C221.67 268.39 228.62 261.44 237.19 261.44M237.19 257.44C226.43 257.44 217.67 266.2 217.67 276.96C217.67 287.72 226.43 296.48 237.19 296.48C247.95 296.48 256.71 287.72 256.71 276.96C256.71 266.2 247.95 257.44 237.19 257.44Z" fill="#553711"/>
</svg>
