<svg width="350" height="350" viewBox="0 0 350 350" fill="none" xmlns="http://www.w3.org/2000/svg">
<path d="M82.6304 325.07C81.5304 325.07 80.6304 324.17 80.6304 323.07C80.6304 321.97 81.5304 321.07 82.6304 321.07C84.2904 320.41 87.5304 310.51 87.5304 293.96C87.5304 273.01 96.6604 253.29 113.23 238.42C129.31 224 150.63 215.73 173.43 215.03C173.57 215 173.72 214.98 173.87 214.98H176.57C176.72 214.98 176.87 215 177.01 215.03C199.84 215.74 221.14 224.01 237.2 238.42C253.77 253.29 262.9 273.01 262.9 293.96C262.9 310.51 266.14 320.41 267.88 321.08C268.98 321.08 269.84 321.97 269.84 323.07C269.84 324.17 268.9 325.06 267.8 325.06H82.6304V325.07Z" fill="#FFCE32"/>
<path d="M176.56 216.98C176.11 216.98 175.66 216.98 175.21 216.98C174.76 216.98 174.31 216.98 173.86 216.98H176.56M175.21 216.98C222.7 217.61 260.9 251.8 260.9 293.95C260.9 310.04 263.99 323.06 267.8 323.06H82.6304C86.4404 323.06 89.5304 310.04 89.5304 293.95C89.5304 251.8 127.73 217.62 175.22 216.98M176.57 212.97H173.87C173.65 212.97 173.43 212.99 173.21 213.02C149.99 213.76 128.28 222.21 111.89 236.91C94.8904 252.16 85.5304 272.42 85.5304 293.94C85.5304 308.41 83.1004 317.16 81.6204 319.17C79.9004 319.62 78.6304 321.18 78.6304 323.04C78.6304 325.25 80.4204 327.04 82.6304 327.04H267.8C270.01 327.04 271.8 325.25 271.8 323.04C271.8 321.18 270.53 319.61 268.81 319.17C267.33 317.15 264.9 308.4 264.9 293.94C264.9 272.42 255.54 252.16 238.54 236.91C222.15 222.2 200.44 213.76 177.22 213.02C177.01 212.98 176.79 212.97 176.56 212.97H176.57Z" fill="#543714"/>
<path d="M82.6302 324.98C81.7602 324.98 81.0002 324.4 80.7802 323.56C80.5602 322.72 80.9202 321.84 81.6802 321.4C84.1502 319.98 87.6202 310.53 87.6202 293.95C87.6202 273.25 96.5702 253.7 112.82 238.9C113.18 238.57 113.64 238.4 114.11 238.4C114.38 238.4 114.66 238.46 114.92 238.58C115.62 238.91 116.06 239.62 116.03 240.39L112.89 323.13C112.85 324.16 112.01 324.97 110.97 324.97H82.6302V324.98Z" fill="#E30413"/>
<path d="M114.1 240.33L110.96 323.07H82.6303C86.2803 320.97 89.5303 310.05 89.5303 293.96C89.5303 273.1 98.8903 254.18 114.1 240.33ZM114.1 236.5C114.1 236.5 114.01 236.5 113.97 236.5C113.02 236.53 112.17 236.91 111.51 237.5C94.8603 252.67 85.6903 272.72 85.6903 293.96C85.6903 311.07 82.0303 318.85 80.7003 319.75C79.2003 320.62 78.4703 322.38 78.9203 324.06C79.3703 325.74 80.8903 326.9 82.6303 326.9H110.96C113.02 326.9 114.71 325.27 114.79 323.21L117.93 240.61C117.93 240.51 117.94 240.42 117.94 240.32C117.94 238.22 116.26 236.52 114.16 236.49C114.14 236.49 114.12 236.49 114.1 236.49V236.5Z" fill="#543714"/>
<path d="M239.47 324.98C238.44 324.98 237.59 324.17 237.55 323.14L234.41 240.4C234.38 239.63 234.82 238.91 235.52 238.59C235.78 238.47 236.05 238.41 236.33 238.41C236.8 238.41 237.26 238.58 237.62 238.91C253.87 253.71 262.82 273.26 262.82 293.96C262.82 310.53 266.29 319.99 268.76 321.41C269.51 321.84 269.88 322.73 269.66 323.57C269.44 324.41 268.68 324.99 267.81 324.99H239.48L239.47 324.98Z" fill="#E30413"/>
<path d="M236.32 240.33C251.53 254.19 260.89 273.1 260.89 293.96C260.89 310.05 264.14 320.97 267.79 323.07H239.46L236.32 240.33ZM236.32 236.5C235.77 236.5 235.22 236.62 234.71 236.86C233.31 237.51 232.44 238.94 232.49 240.48L235.63 323.22C235.71 325.28 237.4 326.91 239.46 326.91H267.79C269.53 326.91 271.05 325.74 271.49 324.07C271.94 322.39 271.2 320.62 269.7 319.76C268.38 318.87 264.72 311.09 264.72 293.98C264.72 272.74 255.55 252.68 238.89 237.51C238.17 236.85 237.24 236.51 236.31 236.51L236.32 236.5Z" fill="#543714"/>
<path d="M79.2704 337.18C78.2304 337.18 77.3604 336.38 77.2804 335.34C77.2004 334.3 77.9304 333.37 78.9604 333.21C81.0104 332.88 83.0904 330.67 83.0904 327.07C83.0904 325.97 83.9904 325.07 85.0904 325.07H265.34C266.44 325.07 267.34 325.97 267.34 327.07C267.34 330.67 269.42 332.88 271.47 333.21C272.5 333.38 273.23 334.3 273.15 335.34C273.07 336.38 272.2 337.18 271.16 337.18H79.2704Z" fill="white"/>
<path d="M175.21 327.07C220.27 327.07 265.34 327.07 265.34 327.07C265.34 331.55 268.02 334.68 271.15 335.18H175.21H79.2703C82.4003 334.68 85.0803 331.55 85.0803 327.07H175.21ZM175.21 323.07H85.0803C82.8703 323.07 81.0803 324.86 81.0803 327.07C81.0803 329.52 79.8203 331.04 78.6403 331.23C76.5803 331.56 75.1203 333.42 75.2903 335.5C75.4603 337.58 77.1903 339.18 79.2803 339.18H271.15C273.24 339.18 274.97 337.58 275.14 335.5C275.31 333.42 273.85 331.56 271.79 331.23C270.61 331.04 269.35 329.52 269.35 327.07C269.35 324.86 267.56 323.07 265.35 323.07H175.21Z" fill="#543714"/>
<path d="M124.261 80.6001C123.161 80.6001 122.261 79.7001 122.261 78.6001C122.261 62.1501 118.731 51.6701 115.411 50.1501C114.551 49.7601 114.091 48.8201 114.291 47.9101C114.491 46.9901 115.301 46.3401 116.241 46.3401H234.171C235.111 46.3401 235.921 47.0001 236.121 47.9101C236.321 48.8301 235.851 49.7601 235.001 50.1501C231.681 51.6701 228.151 62.1501 228.151 78.6001C228.151 79.7001 227.251 80.6001 226.151 80.6001H124.261Z" fill="#F9B233"/>
<path d="M175.21 48.3301H234.18C229.67 50.3901 226.16 61.8701 226.16 78.6001H175.21H124.26C124.26 61.8701 120.75 50.3901 116.24 48.3301H175.21ZM175.21 44.3301H116.24C114.36 44.3301 112.73 45.6401 112.33 47.4801C111.93 49.3201 112.87 51.1901 114.58 51.9701C116.1 52.6601 120.26 60.2601 120.26 78.6001C120.26 80.8101 122.05 82.6001 124.26 82.6001H226.16C228.37 82.6001 230.16 80.8101 230.16 78.6001C230.16 60.2601 234.32 52.6601 235.84 51.9701C237.55 51.1901 238.49 49.3201 238.09 47.4801C237.69 45.6401 236.06 44.3301 234.18 44.3301H175.21V44.3301Z" fill="#543714"/>
<path d="M87.5203 231.94C95.9371 231.94 102.76 225.117 102.76 216.7C102.76 208.283 95.9371 201.46 87.5203 201.46C79.1035 201.46 72.2803 208.283 72.2803 216.7C72.2803 225.117 79.1035 231.94 87.5203 231.94Z" fill="#543714" stroke="#553711" stroke-width="3.1" stroke-linecap="round" stroke-linejoin="round"/>
<path d="M262.9 231.94C271.317 231.94 278.14 225.117 278.14 216.7C278.14 208.283 271.317 201.46 262.9 201.46C254.483 201.46 247.66 208.283 247.66 216.7C247.66 225.117 254.483 231.94 262.9 231.94Z" fill="#543714" stroke="#553711" stroke-width="3.1" stroke-linecap="round" stroke-linejoin="round"/>
<path d="M272.86 178.52L255.87 177.82L264.37 178.17L255.87 177.85C255.91 176.47 255.95 161.25 255.95 159.47C255.95 116.24 222 84.8701 175.22 84.8701C128.44 84.8701 94.4905 116.25 94.4905 159.47C94.4905 161.25 94.5205 176.47 94.5705 177.85L77.5705 178.51C77.5105 176.96 77.4805 159.63 77.4805 159.47C77.4805 107.24 119.5 67.8601 175.22 67.8601C230.94 67.8601 272.96 107.24 272.96 159.47C272.96 159.64 272.93 176.95 272.87 178.52H272.86Z" fill="#543714" stroke="#553711" stroke-width="4" stroke-linecap="round" stroke-linejoin="round"/>
<path d="M79.2703 214.26C69.1203 214.26 60.2303 207.76 57.1303 198.09C54.4603 189.75 56.6903 180.7 62.8003 174.57C62.1303 173.41 61.5903 172.18 61.1803 170.89C57.9803 160.91 63.5003 150.19 73.4803 146.99C75.3703 146.39 77.3203 146.08 79.2903 146.08C87.5803 146.08 94.8603 151.39 97.3903 159.29C99.0403 164.44 98.4403 169.92 95.7503 174.56C98.3503 177.16 100.3 180.36 101.44 183.89C105.35 196.1 98.6003 209.22 86.3903 213.14C84.0803 213.88 81.6903 214.26 79.2903 214.26H79.2703Z" fill="#F9C5AF"/>
<path d="M79.2802 148.08C86.4802 148.08 93.1602 152.68 95.4702 159.9C97.1602 165.18 96.1202 170.68 93.1502 174.89C96.0202 177.36 98.2702 180.63 99.5102 184.5C103.09 195.68 96.9302 207.65 85.7502 211.23C83.5902 211.92 81.4102 212.25 79.2602 212.25C70.2702 212.25 61.9102 206.5 59.0202 197.47C56.3402 189.1 59.1102 180.29 65.3702 174.89C64.4002 173.51 63.6102 171.96 63.0702 170.27C60.2002 161.32 65.1302 151.75 74.0802 148.88C75.8102 148.33 77.5602 148.06 79.2802 148.06M79.2802 144.06C77.1102 144.06 74.9502 144.4 72.8602 145.07C67.5202 146.78 63.1602 150.47 60.5902 155.46C58.0202 160.45 57.5502 166.14 59.2602 171.48C59.5602 172.42 59.9302 173.34 60.3502 174.22C54.4902 180.83 52.4602 190.1 55.2102 198.68C58.5802 209.18 68.2402 216.24 79.2602 216.24C81.8702 216.24 84.4702 215.83 86.9702 215.03C100.23 210.78 107.57 196.53 103.31 183.27C102.23 179.91 100.48 176.83 98.1602 174.22C100.52 169.39 100.94 163.88 99.2602 158.67C96.4602 149.94 88.4202 144.07 79.2602 144.07L79.2802 144.06Z" fill="#553711"/>
<path d="M271.15 214.26C268.75 214.26 266.36 213.88 264.05 213.14C251.84 209.23 245.09 196.1 249 183.89C250.13 180.36 252.08 177.16 254.69 174.56C252 169.92 251.4 164.44 253.05 159.29C255.58 151.39 262.86 146.08 271.15 146.08C273.11 146.08 275.07 146.39 276.96 146.99C281.8 148.54 285.74 151.88 288.06 156.39C290.38 160.9 290.81 166.05 289.26 170.89C288.85 172.17 288.3 173.41 287.64 174.57C293.76 180.7 295.98 189.75 293.31 198.09C290.21 207.76 281.31 214.26 271.17 214.26H271.15Z" fill="#F9C5AF"/>
<path d="M271.14 148.08C272.86 148.08 274.61 148.34 276.34 148.9C285.29 151.77 290.21 161.34 287.35 170.29C286.81 171.98 286.02 173.53 285.05 174.91C291.3 180.32 294.08 189.12 291.4 197.49C288.51 206.51 280.15 212.27 271.16 212.27C269.01 212.27 266.82 211.94 264.67 211.25C253.49 207.67 247.33 195.7 250.91 184.52C252.15 180.65 254.4 177.38 257.27 174.91C254.3 170.7 253.26 165.21 254.95 159.92C257.26 152.7 263.95 148.1 271.14 148.1M271.14 144.1C261.97 144.1 253.94 149.97 251.14 158.7C249.47 163.92 249.89 169.43 252.24 174.25C249.92 176.86 248.17 179.94 247.09 183.3C242.84 196.56 250.17 210.81 263.43 215.06C265.94 215.86 268.53 216.27 271.14 216.27C282.16 216.27 291.82 209.21 295.19 198.71C297.94 190.13 295.91 180.87 290.05 174.25C290.48 173.37 290.84 172.45 291.14 171.51C292.85 166.17 292.38 160.47 289.81 155.49C287.24 150.5 282.89 146.81 277.54 145.1C275.46 144.43 273.3 144.09 271.12 144.09L271.14 144.1Z" fill="#553711"/>
<path d="M175.21 267.81C117.55 267.81 77.27 241.55 77.27 203.96C77.27 194.89 79.55 186.05 84.04 177.68C83.99 174.44 83.97 160.23 83.97 159.47C83.97 135.44 93.49 113.59 110.76 97.9501C127.57 82.7401 150.45 74.3601 175.2 74.3601C199.95 74.3601 222.83 82.7401 239.64 97.9501C256.92 113.59 266.43 135.44 266.43 159.47C266.43 160.23 266.4 174.45 266.36 177.68C270.86 186.05 273.13 194.88 273.13 203.96C273.13 241.55 232.86 267.81 175.19 267.81H175.21Z" fill="#FCD8C1"/>
<path d="M175.21 76.3601C224.49 76.3601 264.44 110.18 264.44 159.47C264.44 160.71 264.41 176.94 264.36 178.17C268.74 186.15 271.14 194.85 271.14 203.96C271.14 242.46 228.19 265.81 175.2 265.81C122.21 265.81 79.2603 242.45 79.2603 203.96C79.2603 194.85 81.6703 186.15 86.0403 178.17C85.9903 176.94 85.9603 160.71 85.9603 159.47C85.9603 110.19 125.91 76.3601 175.19 76.3601M175.19 72.3601C149.94 72.3601 126.58 80.9201 109.41 96.4701C91.7103 112.49 81.9603 134.87 81.9603 159.47C81.9603 159.62 81.9803 173.01 82.0303 177.19C77.5403 185.71 75.2603 194.71 75.2603 203.96C75.2603 214.09 78.0103 223.53 83.4303 232.02C88.5303 240 95.8703 246.97 105.27 252.73C123.22 263.74 148.06 269.81 175.2 269.81C202.34 269.81 227.18 263.74 245.13 252.73C254.53 246.97 261.87 240 266.97 232.02C272.39 223.53 275.14 214.09 275.14 203.96C275.14 194.72 272.86 185.72 268.37 177.19C268.41 173.01 268.44 159.61 268.44 159.47C268.44 134.87 258.69 112.49 240.99 96.4701C223.82 80.9201 200.45 72.3601 175.21 72.3601H175.19Z" fill="#553711"/>
<path d="M127.2 178.15C129.56 170.88 136.32 165.5 144.93 165.5C153.54 165.5 158.38 171.11 158.38 178.15" stroke="#553711" stroke-width="3" stroke-linecap="round" stroke-linejoin="round"/>
<path d="M223.22 178.15C220.86 170.88 214.1 165.5 205.49 165.5C196.88 165.5 192.04 171.11 192.04 178.15" stroke="#553711" stroke-width="3" stroke-linecap="round" stroke-linejoin="round"/>
<path d="M189.78 215.05C189.78 220.51 183.26 224.92 175.21 224.92C167.16 224.92 160.64 220.5 160.64 215.05" stroke="#F08262" stroke-width="3" stroke-linecap="round" stroke-linejoin="round"/>
<path opacity="0.5" d="M82.63 187.98C82.36 187.98 82.09 187.99 81.82 188C80.17 193.13 79.27 198.47 79.27 203.96C79.27 225.42 92.62 242.17 113.62 252.8C120.23 245.92 124.26 236.83 124.26 226.85C124.26 205.38 105.62 187.97 82.62 187.97L82.63 187.98Z" fill="#F39B9B"/>
<path opacity="0.5" d="M267.8 187.98C268.07 187.98 268.34 187.99 268.61 188C270.26 193.13 271.16 198.47 271.16 203.96C271.16 225.42 257.81 242.17 236.81 252.8C230.2 245.92 226.17 236.83 226.17 226.85C226.17 205.38 244.81 187.97 267.81 187.97L267.8 187.98Z" fill="#F39B9B"/>
<path d="M175.21 189.85C178.22 189.85 180.66 188.592 180.66 187.04C180.66 185.488 178.22 184.23 175.21 184.23C172.2 184.23 169.76 185.488 169.76 187.04C169.76 188.592 172.2 189.85 175.21 189.85Z" fill="#F9C5AF"/>
<path d="M175.21 189.85C178.22 189.85 180.66 188.592 180.66 187.04C180.66 185.488 178.22 184.23 175.21 184.23C172.2 184.23 169.76 185.488 169.76 187.04C169.76 188.592 172.2 189.85 175.21 189.85Z" fill="#F9C5AF"/>
<path d="M175.21 76.3601C224.49 76.3601 264.44 110.18 264.44 159.47C264.44 160.71 264.41 176.94 264.36 178.17C258 178.17 252.86 169.18 252.86 158.07C252.86 121.97 227.76 96.7101 196.8 96.7101C189.15 96.7101 181.85 98.5001 175.2 101.74C168.55 98.5001 161.26 96.7101 153.6 96.7101C122.64 96.7101 97.5404 121.97 97.5404 158.07C97.5404 169.18 92.4004 178.17 86.0404 178.17C85.9904 176.94 85.9604 160.71 85.9604 159.47C85.9604 110.19 125.91 76.3601 175.19 76.3601" fill="#543714"/>
<path d="M175.21 76.3601C224.49 76.3601 264.44 110.18 264.44 159.47C264.44 160.71 264.41 176.94 264.36 178.17C258 178.17 252.86 169.18 252.86 158.07C252.86 121.97 227.76 96.7101 196.8 96.7101C189.15 96.7101 181.85 98.5001 175.2 101.74C168.55 98.5001 161.26 96.7101 153.6 96.7101C122.64 96.7101 97.5404 121.97 97.5404 158.07C97.5404 169.18 92.4004 178.17 86.0404 178.17C85.9904 176.94 85.9604 160.71 85.9604 159.47C85.9604 110.19 125.91 76.3601 175.19 76.3601" stroke="#553711" stroke-width="4" stroke-linecap="round" stroke-linejoin="round"/>
<path d="M72.28 216.99C76.991 216.99 80.81 213.171 80.81 208.46C80.81 203.749 76.991 199.93 72.28 199.93C67.569 199.93 63.75 203.749 63.75 208.46C63.75 213.171 67.569 216.99 72.28 216.99Z" fill="#E30413" stroke="#553711" stroke-width="4" stroke-linecap="round" stroke-linejoin="round"/>
<path d="M278.14 216.99C282.851 216.99 286.67 213.171 286.67 208.46C286.67 203.749 282.851 199.93 278.14 199.93C273.429 199.93 269.61 203.749 269.61 208.46C269.61 213.171 273.429 216.99 278.14 216.99Z" fill="#E30413" stroke="#553711" stroke-width="4" stroke-linecap="round" stroke-linejoin="round"/>
<path d="M148.88 138.8C141.78 135.43 133.23 134.33 126.09 138.26C123.69 139.51 121.55 141.26 119.64 143.26C126.73 133 139.1 130.94 150.46 134.68C153.47 135.67 151.79 140.07 148.88 138.8V138.8Z" fill="#543714"/>
<path d="M199.96 134.68C211.31 130.94 223.69 133.01 230.78 143.26C227.09 139.29 222.12 136.48 216.76 135.89C211.47 135.24 206.24 136.66 201.47 138.84C198.59 139.99 197.01 135.65 199.97 134.68H199.96Z" fill="#543714"/>
<path d="M165.66 274.76C164.56 274.76 163.66 273.86 163.66 272.76V245.61C163.66 245.08 163.87 244.57 164.25 244.2L173.8 234.65C174.19 234.26 174.7 234.06 175.21 234.06C175.72 234.06 176.23 234.26 176.62 234.65L186.17 244.2C186.55 244.58 186.76 245.08 186.76 245.61V272.76C186.76 273.86 185.86 274.76 184.76 274.76H165.66Z" fill="#CA9F70"/>
<path d="M175.21 236.06L184.76 245.61V272.76H165.66V245.61L175.21 236.06ZM175.21 232.06C174.15 232.06 173.13 232.48 172.38 233.23L162.83 242.78C162.08 243.53 161.66 244.55 161.66 245.61V272.76C161.66 274.97 163.45 276.76 165.66 276.76H184.76C186.97 276.76 188.76 274.97 188.76 272.76V245.61C188.76 244.55 188.34 243.53 187.59 242.78L182.81 238L179.53 234.72C177.32 232.51 176.87 232.06 175.21 232.06V232.06Z" fill="#543714"/>
<path d="M175.21 58.6C154.05 58.6 134.15 56.75 119.17 53.39C102.86 49.74 94.6001 44.89 94.6001 38.98V14.99C94.6001 14.19 95.0801 13.46 95.8201 13.15C96.0701 13.04 96.3401 12.99 96.6001 12.99C97.1101 12.99 97.6201 13.1899 98.0001 13.5599C104.76 20.1499 131.71 30.61 175.22 30.61C218.73 30.61 245.67 20.1499 252.44 13.5599C252.82 13.1899 253.32 12.99 253.84 12.99C254.1 12.99 254.37 13.04 254.62 13.15C255.36 13.46 255.84 14.19 255.84 14.99V38.98C255.84 44.89 247.57 49.74 231.27 53.39C216.29 56.75 196.39 58.6 175.24 58.6H175.21Z" fill="#F9B233"/>
<path d="M253.82 15V38.9901C253.82 48.7301 218.66 56.61 175.21 56.61C131.76 56.61 96.6001 48.7301 96.6001 38.9901V15C104.03 22.24 131.76 32.62 175.21 32.62C218.66 32.62 246.39 22.25 253.82 15ZM253.82 11C252.8 11 251.79 11.39 251.03 12.14C244.49 18.51 218.13 28.62 175.21 28.62C132.29 28.62 105.93 18.51 99.3901 12.14C98.6301 11.4 97.6201 11 96.6001 11C96.0801 11 95.5501 11.1 95.0501 11.31C93.5701 11.93 92.6001 13.39 92.6001 15V38.9901C92.6001 46.0601 101.15 51.41 118.74 55.35C133.86 58.74 153.92 60.6 175.22 60.6C196.52 60.6 216.58 58.73 231.7 55.35C249.29 51.41 257.84 46.0601 257.84 38.9901V15C257.84 13.39 256.88 11.94 255.39 11.31C254.89 11.1 254.36 11 253.84 11H253.82Z" fill="#543714"/>
<path d="M118.24 70.6899C122.951 70.6899 126.77 66.8709 126.77 62.1599C126.77 57.4489 122.951 53.6299 118.24 53.6299C113.529 53.6299 109.71 57.4489 109.71 62.1599C109.71 66.8709 113.529 70.6899 118.24 70.6899Z" fill="#E30413" stroke="#553711" stroke-width="4" stroke-linecap="round" stroke-linejoin="round"/>
<path d="M118.24 87.7499C122.951 87.7499 126.77 83.931 126.77 79.22C126.77 74.509 122.951 70.6899 118.24 70.6899C113.529 70.6899 109.71 74.509 109.71 79.22C109.71 83.931 113.529 87.7499 118.24 87.7499Z" fill="#E30413" stroke="#553711" stroke-width="4" stroke-linecap="round" stroke-linejoin="round"/>
<path d="M118.24 104.8C122.951 104.8 126.77 100.981 126.77 96.27C126.77 91.559 122.951 87.74 118.24 87.74C113.529 87.74 109.71 91.559 109.71 96.27C109.71 100.981 113.529 104.8 118.24 104.8Z" fill="#E30413" stroke="#553711" stroke-width="4" stroke-linecap="round" stroke-linejoin="round"/>
<path d="M118.24 121.85C122.951 121.85 126.77 118.031 126.77 113.32C126.77 108.609 122.951 104.79 118.24 104.79C113.529 104.79 109.71 108.609 109.71 113.32C109.71 118.031 113.529 121.85 118.24 121.85Z" fill="#E30413" stroke="#553711" stroke-width="4" stroke-linecap="round" stroke-linejoin="round"/>
<path d="M153.14 76.11C157.851 76.11 161.67 72.291 161.67 67.58C161.67 62.869 157.851 59.05 153.14 59.05C148.429 59.05 144.61 62.869 144.61 67.58C144.61 72.291 148.429 76.11 153.14 76.11Z" fill="#E30413" stroke="#553711" stroke-width="4" stroke-linecap="round" stroke-linejoin="round"/>
<path d="M153.14 93.1701C157.851 93.1701 161.67 89.3511 161.67 84.6401C161.67 79.9291 157.851 76.1101 153.14 76.1101C148.429 76.1101 144.61 79.9291 144.61 84.6401C144.61 89.3511 148.429 93.1701 153.14 93.1701Z" fill="#E30413" stroke="#553711" stroke-width="4" stroke-linecap="round" stroke-linejoin="round"/>
<path d="M153.14 110.22C157.851 110.22 161.67 106.401 161.67 101.69C161.67 96.9791 157.851 93.1602 153.14 93.1602C148.429 93.1602 144.61 96.9791 144.61 101.69C144.61 106.401 148.429 110.22 153.14 110.22Z" fill="#E30413" stroke="#553711" stroke-width="4" stroke-linecap="round" stroke-linejoin="round"/>
<path d="M153.14 127.27C157.851 127.27 161.67 123.451 161.67 118.74C161.67 114.029 157.851 110.21 153.14 110.21C148.429 110.21 144.61 114.029 144.61 118.74C144.61 123.451 148.429 127.27 153.14 127.27Z" fill="#E30413" stroke="#553711" stroke-width="4" stroke-linecap="round" stroke-linejoin="round"/>
<path d="M232.18 70.6899C236.891 70.6899 240.71 66.8709 240.71 62.1599C240.71 57.4489 236.891 53.6299 232.18 53.6299C227.469 53.6299 223.65 57.4489 223.65 62.1599C223.65 66.8709 227.469 70.6899 232.18 70.6899Z" fill="#E30413" stroke="#553711" stroke-width="4" stroke-linecap="round" stroke-linejoin="round"/>
<path d="M232.18 87.7499C236.891 87.7499 240.71 83.931 240.71 79.22C240.71 74.509 236.891 70.6899 232.18 70.6899C227.469 70.6899 223.65 74.509 223.65 79.22C223.65 83.931 227.469 87.7499 232.18 87.7499Z" fill="#E30413" stroke="#553711" stroke-width="4" stroke-linecap="round" stroke-linejoin="round"/>
<path d="M232.18 104.8C236.891 104.8 240.71 100.981 240.71 96.27C240.71 91.559 236.891 87.74 232.18 87.74C227.469 87.74 223.65 91.559 223.65 96.27C223.65 100.981 227.469 104.8 232.18 104.8Z" fill="#E30413" stroke="#553711" stroke-width="4" stroke-linecap="round" stroke-linejoin="round"/>
<path d="M232.18 121.85C236.891 121.85 240.71 118.031 240.71 113.32C240.71 108.609 236.891 104.79 232.18 104.79C227.469 104.79 223.65 108.609 223.65 113.32C223.65 118.031 227.469 121.85 232.18 121.85Z" fill="#E30413" stroke="#553711" stroke-width="4" stroke-linecap="round" stroke-linejoin="round"/>
<path d="M197.28 76.11C201.991 76.11 205.81 72.291 205.81 67.58C205.81 62.869 201.991 59.05 197.28 59.05C192.569 59.05 188.75 62.869 188.75 67.58C188.75 72.291 192.569 76.11 197.28 76.11Z" fill="#E30413" stroke="#553711" stroke-width="4" stroke-linecap="round" stroke-linejoin="round"/>
<path d="M197.28 93.1701C201.991 93.1701 205.81 89.3511 205.81 84.6401C205.81 79.9291 201.991 76.1101 197.28 76.1101C192.569 76.1101 188.75 79.9291 188.75 84.6401C188.75 89.3511 192.569 93.1701 197.28 93.1701Z" fill="#E30413" stroke="#553711" stroke-width="4" stroke-linecap="round" stroke-linejoin="round"/>
<path d="M197.28 110.22C201.991 110.22 205.81 106.401 205.81 101.69C205.81 96.9791 201.991 93.1602 197.28 93.1602C192.569 93.1602 188.75 96.9791 188.75 101.69C188.75 106.401 192.569 110.22 197.28 110.22Z" fill="#E30413" stroke="#553711" stroke-width="4" stroke-linecap="round" stroke-linejoin="round"/>
<path d="M197.28 127.27C201.991 127.27 205.81 123.451 205.81 118.74C205.81 114.029 201.991 110.21 197.28 110.21C192.569 110.21 188.75 114.029 188.75 118.74C188.75 123.451 192.569 127.27 197.28 127.27Z" fill="#E30413" stroke="#553711" stroke-width="4" stroke-linecap="round" stroke-linejoin="round"/>
<path d="M134.21 335.81C118.85 335.81 105.58 331.5 98.7199 324.27C95.2699 320.64 93.5699 316.36 93.7899 311.91C93.7999 311.66 93.8599 311.41 93.9699 311.18L116.77 261.23C117.1 260.5 117.82 260.06 118.59 260.06C118.75 260.06 118.92 260.08 119.08 260.12L155.7 269.38C156.77 269.65 157.42 270.74 157.15 271.81L141.42 334.13C141.21 334.97 140.48 335.58 139.61 335.64C137.8 335.75 135.99 335.81 134.21 335.81V335.81Z" fill="#F9B233"/>
<path d="M118.6 262.06L155.22 271.32L139.49 333.64C137.7 333.75 135.94 333.81 134.22 333.81C111.94 333.81 95.16 324.58 95.8 312.02L118.6 262.07M118.6 258.07C117.06 258.07 115.62 258.96 114.96 260.41L92.16 310.36C91.95 310.82 91.83 311.31 91.8 311.82C91.54 316.83 93.43 321.62 97.27 325.66C104.5 333.27 118.31 337.82 134.21 337.82C136.03 337.82 137.89 337.76 139.74 337.64C141.47 337.53 142.94 336.31 143.36 334.63L159.09 272.31C159.63 270.17 158.33 267.99 156.19 267.45L119.57 258.19C119.24 258.11 118.91 258.07 118.59 258.07H118.6Z" fill="#543714"/>
<path d="M141.97 325.66C120.66 325.58 102.32 316.01 98.3702 302.91C98.2402 302.46 98.2702 301.98 98.4602 301.56L116.85 261.27C117.17 260.58 117.86 260.15 118.59 260.15C118.75 260.15 118.9 260.17 119.06 260.21L155.68 269.47C156.71 269.73 157.33 270.77 157.07 271.8L143.84 324.22C143.63 325.07 142.86 325.67 141.98 325.67L141.97 325.66Z" fill="#E30413"/>
<path d="M118.6 262.06L155.22 271.32L141.99 323.74C121.26 323.66 103.87 314.47 100.21 302.35L118.6 262.06ZM118.6 258.23C117.13 258.23 115.75 259.08 115.11 260.47L96.7202 300.76C96.3302 301.61 96.2702 302.57 96.5402 303.46C98.6202 310.36 104.44 316.58 112.94 320.97C121.11 325.19 131.42 327.54 141.98 327.58H141.99C143.74 327.58 145.28 326.39 145.71 324.69L158.94 272.27C159.46 270.22 158.21 268.13 156.16 267.62L119.54 258.36C119.23 258.28 118.91 258.24 118.6 258.24V258.23Z" fill="#543714"/>
<path d="M216.211 335.81C214.431 335.81 212.621 335.75 210.811 335.64C209.941 335.58 209.211 334.98 209.001 334.13L193.271 271.81C193.001 270.74 193.651 269.65 194.721 269.38L231.341 260.12C231.501 260.08 231.671 260.06 231.831 260.06C232.601 260.06 233.321 260.5 233.651 261.23L256.451 311.18C256.551 311.41 256.621 311.66 256.631 311.91C256.861 316.36 255.161 320.64 251.701 324.27C244.841 331.49 231.571 335.81 216.211 335.81Z" fill="#F9B233"/>
<path d="M231.82 262.06L254.62 312.01C255.27 324.57 238.48 333.8 216.2 333.8C214.47 333.8 212.71 333.74 210.93 333.63L195.2 271.31L231.82 262.05M231.82 258.05C231.5 258.05 231.17 258.09 230.84 258.17L194.22 267.43C192.08 267.97 190.78 270.15 191.32 272.29L207.05 334.61C207.48 336.29 208.94 337.51 210.67 337.62C212.52 337.74 214.38 337.8 216.2 337.8C232.1 337.8 245.91 333.25 253.14 325.64C256.98 321.6 258.87 316.81 258.61 311.8C258.58 311.3 258.46 310.8 258.25 310.34L235.45 260.39C234.79 258.94 233.35 258.05 231.81 258.05H231.82Z" fill="#543714"/>
<path d="M208.44 325.66C207.56 325.66 206.8 325.06 206.58 324.21L193.35 271.79C193.09 270.76 193.71 269.72 194.74 269.46L231.36 260.2C231.52 260.16 231.67 260.14 231.83 260.14C232.57 260.14 233.26 260.57 233.57 261.26L251.96 301.55C252.15 301.97 252.19 302.45 252.05 302.9C248.1 316 229.76 325.57 208.45 325.66H208.44Z" fill="#E30413"/>
<path d="M231.82 262.06L250.21 302.35C246.55 314.47 229.16 323.66 208.43 323.74L195.2 271.32L231.82 262.06ZM231.82 258.23C231.51 258.23 231.19 258.27 230.88 258.35L194.26 267.61C192.21 268.13 190.97 270.21 191.48 272.26L204.71 324.68C205.14 326.38 206.67 327.57 208.43 327.57H208.45C219.01 327.53 229.32 325.18 237.49 320.96C245.98 316.57 251.8 310.35 253.89 303.45C254.16 302.56 254.09 301.6 253.71 300.75L235.32 260.46C234.69 259.07 233.31 258.22 231.83 258.22L231.82 258.23Z" fill="#543714"/>
<path d="M142.591 319.21C122.151 319.21 98.4907 293.86 87.5707 276.81C82.4107 268.75 81.7107 259.58 85.7107 252.28C88.0907 247.94 91.6907 245.13 94.9007 245.13C95.9607 245.13 96.9407 245.44 97.7507 246.03C120.331 260.32 154.541 261.86 168.221 261.86C169.281 261.86 170.141 262.72 170.141 263.78C170.141 294.86 158.251 319.2 143.071 319.2C142.941 319.2 142.771 319.2 142.601 319.2L142.591 319.21Z" fill="#E30413"/>
<path d="M94.9004 247.05C95.5604 247.05 96.1504 247.23 96.6604 247.62C104.83 252.81 126.9 263.79 168.21 263.79C168.21 293.36 156.96 317.29 143.06 317.29C142.9 317.29 142.74 317.29 142.58 317.29C123.71 317.29 100.93 294.13 89.1704 275.78C79.3804 260.5 89.2604 247.05 94.8904 247.05M94.8904 243.22C90.9904 243.22 86.7204 246.42 84.0104 251.37C79.6704 259.3 80.3904 269.2 85.9404 277.85C92.6004 288.24 101.63 298.62 110.72 306.34C122.11 316.01 133.13 321.12 142.57 321.12C142.74 321.12 142.91 321.12 143.09 321.12C151.37 321.1 158.9 314.76 164.3 303.26C169.28 292.66 172.03 278.64 172.03 263.79C172.03 261.67 170.31 259.96 168.2 259.96C154.7 259.96 120.96 258.45 98.8104 244.45C97.6804 243.64 96.3304 243.22 94.8904 243.22V243.22Z" fill="#543714"/>
<path d="M142.59 319.21C136.82 319.21 130.45 317.21 123.65 313.25C123.1 312.93 122.75 312.36 122.7 311.73C122.66 311.1 122.93 310.48 123.43 310.09C134.39 301.47 142.12 283.3 143.6 262.66C143.64 262.15 143.88 261.67 144.27 261.34C144.62 261.04 145.06 260.88 145.51 260.88C145.57 260.88 145.62 260.88 145.68 260.88C153.04 261.53 160.63 261.86 168.22 261.86C169.28 261.86 170.14 262.72 170.14 263.78C170.14 294.86 158.25 319.2 143.07 319.2C142.94 319.2 142.77 319.2 142.6 319.2L142.59 319.21Z" fill="#F9B233"/>
<path d="M145.5 262.8C152.51 263.42 160.1 263.79 168.21 263.79C168.21 293.36 156.96 317.29 143.06 317.29C142.9 317.29 142.74 317.29 142.58 317.29C136.81 317.29 130.67 315.12 124.6 311.59C135.82 302.77 143.94 284.53 145.5 262.79M145.5 258.96C144.59 258.96 143.71 259.28 143.01 259.87C142.23 260.54 141.75 261.49 141.67 262.51C140.23 282.62 132.78 300.27 122.23 308.57C121.23 309.36 120.69 310.58 120.78 311.85C120.87 313.12 121.58 314.26 122.68 314.9C129.78 319.02 136.47 321.12 142.58 321.12C142.75 321.12 142.92 321.12 143.1 321.12C151.38 321.1 158.91 314.76 164.32 303.26C169.3 292.66 172.05 278.64 172.05 263.79C172.05 261.67 170.33 259.96 168.22 259.96C160.68 259.96 153.16 259.63 145.85 258.98C145.74 258.97 145.62 258.97 145.51 258.97L145.5 258.96Z" fill="#543714"/>
<path d="M207.32 319.2C192.18 319.2 180.29 294.86 180.29 263.78C180.29 262.72 181.15 261.86 182.21 261.86C195.88 261.86 230.1 260.32 252.68 246.03C253.49 245.44 254.47 245.13 255.53 245.13C258.74 245.13 262.35 247.94 264.72 252.28C268.72 259.59 268.02 268.76 262.86 276.81C251.94 293.85 228.28 319.21 207.84 319.21C207.67 319.21 207.5 319.21 207.32 319.21V319.2Z" fill="#E30413"/>
<path d="M255.52 247.05C261.15 247.05 271.03 260.5 261.24 275.78C249.48 294.14 226.71 317.29 207.83 317.29C207.67 317.29 207.51 317.29 207.35 317.29C193.45 317.29 182.2 293.36 182.2 263.79C223.51 263.79 245.58 252.8 253.75 247.62C254.25 247.24 254.85 247.05 255.51 247.05M255.51 243.22C254.07 243.22 252.72 243.65 251.59 244.45C229.44 258.44 195.69 259.96 182.2 259.96C181.18 259.96 180.21 260.36 179.49 261.08C178.77 261.8 178.37 262.77 178.37 263.79C178.37 278.64 181.11 292.66 186.1 303.26C191.51 314.76 199.04 321.1 207.31 321.12C207.48 321.12 207.65 321.12 207.83 321.12C217.27 321.12 228.29 316.01 239.68 306.34C248.77 298.62 257.81 288.23 264.46 277.85C270 269.2 270.73 259.29 266.39 251.36C263.68 246.41 259.41 243.21 255.51 243.21V243.22Z" fill="#543714"/>
<path d="M207.32 319.2C192.18 319.2 180.3 294.86 180.3 263.78C180.3 262.72 181.16 261.86 182.22 261.86C189.81 261.86 197.4 261.53 204.76 260.88C204.82 260.88 204.87 260.88 204.93 260.88C205.38 260.88 205.82 261.04 206.17 261.34C206.56 261.67 206.8 262.15 206.84 262.66C208.32 283.3 216.05 301.47 227.01 310.09C227.51 310.48 227.78 311.1 227.74 311.73C227.7 312.36 227.34 312.93 226.79 313.25C219.99 317.2 213.62 319.21 207.85 319.21C207.68 319.21 207.51 319.21 207.33 319.21L207.32 319.2Z" fill="#F9B233"/>
<path d="M204.92 262.8C206.48 284.54 214.6 302.78 225.82 311.6C219.75 315.13 213.61 317.3 207.84 317.3C207.68 317.3 207.52 317.3 207.36 317.3C193.46 317.3 182.21 293.37 182.21 263.8C190.32 263.8 197.91 263.43 204.92 262.81M204.92 258.98C204.81 258.98 204.69 258.98 204.58 258.99C197.27 259.64 189.75 259.97 182.21 259.97C180.09 259.97 178.38 261.69 178.38 263.8C178.38 278.65 181.12 292.67 186.11 303.27C191.52 314.77 199.05 321.11 207.33 321.13C207.5 321.13 207.67 321.13 207.85 321.13C213.96 321.13 220.66 319.04 227.75 314.91C228.85 314.27 229.56 313.13 229.65 311.86C229.74 310.59 229.19 309.36 228.2 308.58C217.65 300.28 210.2 282.63 208.76 262.52C208.69 261.49 208.2 260.54 207.42 259.88C206.72 259.29 205.84 258.97 204.93 258.97L204.92 258.98Z" fill="#543714"/>
</svg>
